# vtk DataFile Version 3.0
DroneCFD Output
ASCII
DATASET STRUCTURED_POINTS
DIMENSIONS 50 50 1
ORIGIN 0 0 0
SPACING 0.02 0.02 1
POINT_DATA 2500
SCALARS pressure double 1
LOOKUP_TABLE default
0
0
-0.00145396
-0.00174075
-0.00159083
-0.00131667
-0.000998654
-0.000653653
-0.000286099
0.00010165
0.000507697
0.000930393
0.00136829
0.00182012
0.00228479
0.00276132
0.00324888
0.00374671
0.00425415
0.00477062
0.00529559
0.00582855
0.00636907
0.00691669
0.007471
0.00803158
0.00859797
0.00916973
0.00974635
0.0103273
0.0109119
0.0114996
0.0120894
0.0126805
0.0132718
0.0138621
0.0144497
0.015033
0.0156098
0.0161775
0.0167331
0.017273
0.0177925
0.018286
0.018744
0.0191413
0.0193785
0.019093
0.0174379
0.0174379
0
0
-0.00145396
-0.00174075
-0.00159083
-0.00131667
-0.000998654
-0.000653653
-0.000286099
0.00010165
0.000507697
0.000930393
0.00136829
0.00182012
0.00228479
0.00276132
0.00324888
0.00374671
0.00425415
0.00477062
0.00529559
0.00582855
0.00636907
0.00691669
0.007471
0.00803158
0.00859797
0.00916973
0.00974635
0.0103273
0.0109119
0.0114996
0.0120894
0.0126805
0.0132718
0.0138621
0.0144497
0.015033
0.0156098
0.0161775
0.0167331
0.017273
0.0177925
0.018286
0.018744
0.0191413
0.0193785
0.019093
0.0174379
0.0174379
0.00101407
0.00101407
-0.000449297
-0.000735669
-0.000590991
-0.000330287
-3.33052e-05
0.000284223
0.000618906
0.000969264
0.00133413
0.00171245
0.00210329
0.00250579
0.0029192
0.00334285
0.00377612
0.00421847
0.00466939
0.00512844
0.00559519
0.00606925
0.00655024
0.00703779
0.00753154
0.00803111
0.00853612
0.00904618
0.00956084
0.0100796
0.0106021
0.0111275
0.0116553
0.0121847
0.0127148
0.0132446
0.0137729
0.0142984
0.0148193
0.0153337
0.0158391
0.0163329
0.0168114
0.01727
0.0177007
0.0180798
0.0183085
0.0180213
0.0163533
0.0163533
0.0012532
0.0012532
-0.000231643
-0.000519184
-0.000373998
-0.000114141
0.00018031
0.000493737
0.000822898
0.00116645
0.00152334
0.00189264
0.0022735
0.00266518
0.00306701
0.00347839
0.00389879
0.00432774
0.0047648
0.0052096
0.00566176
0.00612096
0.00658688
0.00705919
0.0075376
0.0080218
0.00851145
0.00900621
0.00950571
0.0100095
0.0105172
0.0110283
0.0115421
0.0120581
0.0125753
0.0130929
0.0136098
0.0141247
0.0146361
0.0151421
0.0156405
0.0161286
0.016603
0.0170591
0.0174893
0.0178694
0.0181003
0.0178119
0.016117
0.016117
0.00128255
0.00128255
-0.000228292
-0.000514858
-0.000364834
-0.000100726
0.000196885
0.000512506
0.000843054
0.00118731
0.00154434
0.00191328
0.00229337
0.00268392
0.0030843
0.00349396
0.00391242
0.00433924
0.00477401
0.00521639
0.00566604
0.00612265
0.00658593
0.0070556
0.00753138
0.00801297
0.00850009
0.0089924
0.00948959
0.00999126
0.010497
0.0110063
0.0115187
0.0120335
0.0125499
0.0130672
0.0135842
0.0140998
0.0146124
0.0151204
0.0156216
0.0161134
0.0165924
0.0170544
0.0174914
0.0178795
0.0181183
0.0178312
0.0161027
0.0161027
0.00125675
0.00125675
-0.000284017
-0.000568544
-0.00041121
-0.000140342
0.000162819
0.00048294
0.000817142
0.00116437
0.00152381
0.00189471
0.00227639
0.0026682
0.0030696
0.00348007
0.00389917
0.00432649
0.00476167
0.00520437
0.00565429
0.00611114
0.00657466
0.00704459
0.00752066
0.00800261
0.00849017
0.00898304
0.00948092
0.00998345
0.0104903
0.0110009
0.0115148
0.0120315
0.0125502
0.0130702
0.0135904
0.0141098
0.0146269
0.0151401
0.0156474
0.0161462
0.0166333
0.0171046
0.0175523
0.0179522
0.0182023
0.0179178
0.0161496
0.0161496
0.00120786
0.00120786
-0.00036679
-0.000648356
-0.000481618
-0.000202025
0.000108386
0.000434489
0.000773658
0.00112504
0.00148798
0.00186184
0.00224605
0.00264004
0.00304332
0.00345544
0.003876
0.00430464
0.00474103
0.00518486
0.00563586
0.00609377
0.00655836
0.00702938
0.00750659
0.00798977
0.00847867
0.00897302
0.00947254
0.00997692
0.0104858
0.0109988
0.0115155
0.0120352
0.0125575
0.0130815
0.0136064
0.0141312
0.0146544
0.0151747
0.0156901
0.0161983
0.0166961
0.0171795
0.0176409
0.0180559
0.0183205
0.0180396
0.0162254
0.0162254
0.00114125
0.00114125
-0.000471347
-0.000748919
-0.000570699
-0.000280497
3.87494e-05
0.000372174
0.000717458
0.00107399
0.0014413
0.0018189
0.00220633
0.00260313
0.00300888
0.00342321
0.00384575
0.00427621
0.00471428
0.00515971
0.00561226
0.0060717
0.00653782
0.00701041
0.00748927
0.00797419
0.00846496
0.00896136
0.00946312
0.00996999
0.0104817
0.0109978
0.0115179
0.0120417
0.0125685
0.0130976
0.0136284
0.0141599
0.0146908
0.0152199
0.0157453
0.0162649
0.0167757
0.017274
0.0177521
0.0181854
0.0184677
0.0181918
0.0163251
0.0163251
0.00105753
0.00105753
-0.000597151
-0.000869519
-0.000677689
-0.000374986
-4.53274e-05
0.000296741
0.00064926
0.0010119
0.00138442
0.0017665
0.00215781
0.00255801
0.00296677
0.0033838
0.00380879
0.0042415
0.00468169
0.00512914
0.00558364
0.00604502
0.00651309
0.00698768
0.00746862
0.00795574
0.00844887
0.00894781
0.00945237
0.00996232
0.0104774
0.0109973
0.0115218
0.0120504
0.0125826
0.0131179
0.0136557
0.0141952
0.0147353
0.0152748
0.0158121
0.0163452
0.0168715
0.0173873
0.0178851
0.0183401
0.0186435
0.018374
0.0164482
0.0164482
0.000956492
0.000956492
-0.00074439
-0.00101014
-0.000802496
-0.00048538
-0.000143728
0.000208304
0.000569174
0.000938884
0.00131743
0.00170471
0.00210055
0.00250473
0.00291703
0.00333724
0.00376514
0.00420054
0.00464325
0.00509312
0.00554998
0.00601369
0.00648411
0.00696111
0.00744456
0.00793433
0.00843028
0.00893228
0.00944016
0.00995376
0.0104729
0.0109973
0.0115268
0.012061
0.0125996
0.0131422
0.0136882
0.014237
0.0147877
0.0153393
0.0158904
0.0164392
0.0169834
0.0175195
0.0180401
0.0185201
0.018848
0.0185867
0.0165952
0.0165952
0.000837776
0.000837776
-0.000913378
-0.00117086
-0.000945117
-0.000611653
-0.000256418
0.000106898
0.000477233
0.000854958
0.00124036
0.00163356
0.00203455
0.00244328
0.00285963
0.0032835
0.00371475
0.00415326
0.00459891
0.00505159
0.0055112
0.00597763
0.0064508
0.00693061
0.00741699
0.00790984
0.00840908
0.00891462
0.00942635
0.00994418
0.010468
0.0109976
0.0115328
0.0120736
0.0126195
0.0131703
0.0137257
0.0142851
0.0148479
0.0154133
0.0159801
0.0165468
0.0171114
0.0176705
0.0182171
0.0187256
0.0190817
0.0188305
0.0167666
0.0167666
0.000700881
0.000700881
-0.00110447
-0.00135176
-0.00110556
-0.000753784
-0.000383372
-7.45166e-06
0.000373456
0.000760138
0.0011532
0.00155302
0.0019598
0.00237363
0.00279454
0.00322253
0.00365756
0.0040996
0.00454858
0.00500446
0.00546719
0.00593674
0.00641304
0.00689607
0.00738579
0.00788215
0.00838514
0.00889471
0.00941082
0.00993343
0.0104625
0.010998
0.0115398
0.0120878
0.012642
0.0132021
0.013768
0.0143393
0.0149157
0.0154966
0.0160811
0.016668
0.0172554
0.0178405
0.0184162
0.0189569
0.0193447
0.0191062
0.0169633
0.0169633
0.00054519
0.00054519
-0.00131807
-0.00155294
-0.00128381
-0.000911753
-0.000524565
-0.000134722
0.000257861
0.000654434
0.00105596
0.0014631
0.00187627
0.00229575
0.00272171
0.00315428
0.00359352
0.00403948
0.00449218
0.00495164
0.00541787
0.0058909
0.00637072
0.00685735
0.00735082
0.00785113
0.00835831
0.00887239
0.00939339
0.00992136
0.0104563
0.0109983
0.0115474
0.0121036
0.0126669
0.0132373
0.0138149
0.0143996
0.0149911
0.0155892
0.0161934
0.0168026
0.0174155
0.0180294
0.0186376
0.0192141
0.0196377
0.0194146
0.0171862
0.0171862
0.00036996
0.00036996
-0.00155459
-0.0017745
-0.00147988
-0.00108554
-0.000679972
-0.000274894
0.000130458
0.000537845
0.000948628
0.00136376
0.00178392
0.00220959
0.00264109
0.00307868
0.00352254
0.00397281
0.0044296
0.00489301
0.00536311
0.00583999
0.0063237
0.00681433
0.00731194
0.00781661
0.00832844
0.0088475
0.00937391
0.00990778
0.0104492
0.0109984
0.0115555
0.0121207
0.0126941
0.0132759
0.0138664
0.0144657
0.0150739
0.015691
0.0163168
0.0169507
0.0175917
0.0182373
0.0188814
0.0194974
0.0199609
0.0197563
0.0174365
0.0174365
0.000174305
0.000174305
-0.0018145
-0.0020165
-0.00169375
-0.0012751
-0.000849567
-0.000427948
-8.74371e-06
0.000410368
0.000831178
0.00125498
0.00168272
0.00211508
0.00255259
0.00299563
0.00344451
0.00389948
0.00436073
0.00482845
0.00530278
0.00578386
0.00627184
0.00676683
0.00726898
0.00777844
0.00829534
0.00881986
0.00935219
0.00989252
0.0104411
0.0109981
0.011564
0.0121389
0.0127233
0.0133176
0.0139221
0.0145374
0.0151638
0.0158017
0.0164512
0.0171121
0.0177838
0.0184644
0.0191476
0.0198071
0.0203147
0.0201324
0.0177154
0.0177154
-4.28122e-05
-4.28122e-05
-0.00209828
-0.00227904
-0.00192539
-0.00148042
-0.00103332
-0.000593869
-0.000159743
0.000271989
0.000703585
0.00113671
0.00157259
0.00201216
0.00245613
0.00290503
0.00335933
0.00381936
0.00428543
0.00475781
0.00523671
0.00572236
0.00621495
0.00671469
0.00722177
0.00773641
0.00825883
0.00878928
0.00932802
0.00987536
0.0104316
0.0109972
0.0115725
0.0121581
0.0127544
0.0133622
0.013982
0.0146146
0.0152608
0.0159213
0.0165965
0.0172868
0.017992
0.0187105
0.0194365
0.0201433
0.0206995
0.0205438
0.0180244
0.0180244
-0.000282601
-0.000282601
-0.00240644
-0.00256215
-0.00217476
-0.00170144
-0.0012312
-0.000772644
-0.000322546
0.000122684
0.000565809
0.00100889
0.00145347
0.00190074
0.0023516
0.00280678
0.00326686
0.00373231
0.00420355
0.00468093
0.00516475
0.0056553
0.00615286
0.00665771
0.0071701
0.00769034
0.00821871
0.00875554
0.0093012
0.00985609
0.0104207
0.0109954
0.011581
0.012178
0.0127872
0.0134095
0.0140458
0.0146972
0.0153647
0.0160495
0.0167526
0.0174748
0.0182162
0.0189757
0.019748
0.0205062
0.0211157
0.0209914
0.0183654
0.0183654
-0.000546462
-0.000546462
-0.0027395
-0.00286586
-0.0024418
-0.0019381
-0.00144318
-0.000964263
-0.000497162
-3.75784e-05
0.000417796
0.000871448
0.00132526
0.00178069
0.00223888
0.00270072
0.00316694
0.00363817
0.00411491
0.00459762
0.00508668
0.00558248
0.00608537
0.00659568
0.00711377
0.00764
0.00817474
0.00871842
0.00927149
0.00983447
0.0104079
0.0109925
0.0115891
0.0121983
0.0128213
0.0134592
0.0141132
0.0147848
0.0154753
0.0161864
0.0169195
0.0176758
0.0184562
0.0192601
0.0200823
0.0208959
0.0215635
0.0214762
0.0187403
0.0187403
-0.000836011
-0.000836011
-0.00309803
-0.00319019
-0.00272642
-0.00219036
-0.00166922
-0.00116872
-0.000683611
-0.000208844
0.000259478
0.000724295
0.00118786
0.00165191
0.00211782
0.00258669
0.00305942
0.00353675
0.00401932
0.00450767
0.00500231
0.00550369
0.00601224
0.00652838
0.00705253
0.00758515
0.0081267
0.00867768
0.00923867
0.00981028
0.0103932
0.0109884
0.0115966
0.0122189
0.0128567
0.0135113
0.0141842
0.0148773
0.0155924
0.0163316
0.0170968
0.0178899
0.0187122
0.0195635
0.0204392
0.0213125
0.0220432
0.0219991
0.0191514
0.0191514
-0.00115311
-0.00115311
-0.00348257
-0.00353511
-0.00302852
-0.00245811
-0.00190928
-0.001386
-0.000881923
-0.000391169
9.07695e-05
0.000567321
0.00104112
0.00151422
0.00198825
0.00246451
0.00294408
0.00342783
0.00391654
0.00441087
0.0049114
0.00541868
0.00593323
0.00645555
0.00698615
0.00752555
0.00807433
0.00863307
0.00920247
0.00978327
0.0103763
0.0109826
0.0116033
0.0122396
0.012893
0.0135653
0.0142584
0.0149745
0.0157158
0.016485
0.0172846
0.0181169
0.0189839
0.0198859
0.0208189
0.0217559
0.0225549
0.0225612
0.0196013
0.0196013
-0.00149988
-0.00149988
-0.0038937
-0.00390053
-0.00334796
-0.00274128
-0.00216332
-0.00161612
-0.00109213
-0.000584628
-8.84318e-05
0.000400397
0.000884902
0.00136747
0.00184998
0.00233397
0.00282069
0.00331119
0.00380635
0.00430695
0.00481368
0.00532719
0.00584807
0.00637692
0.00691434
0.00746093
0.00801736
0.00858433
0.00916263
0.00975316
0.0103569
0.010975
0.0116089
0.01226
0.0129301
0.0136212
0.0143357
0.0150762
0.0158454
0.0166465
0.0174826
0.0183567
0.0192713
0.0202273
0.0212211
0.022226
0.0230988
0.0231634
0.020093
0.020093
-0.00187879
-0.00187879
-0.004332
-0.00428635
-0.00368458
-0.00303975
-0.00243128
-0.00185908
-0.0013143
-0.000789308
-0.000278249
0.000223369
0.000719019
0.00121143
0.00170279
0.00219483
0.00268902
0.00318655
0.00368845
0.00419563
0.00470887
0.00522892
0.00575648
0.00629221
0.00683682
0.007391
0.00795551
0.00853117
0.00911889
0.0097197
0.0103348
0.0109654
0.0116132
0.0122799
0.0129676
0.0136787
0.0144159
0.0151822
0.015981
0.0168159
0.0176908
0.0186091
0.0195741
0.0205874
0.0216456
0.0227228
0.0236748
0.0238066
0.0206297
0.0206297
-0.00229263
-0.00229263
-0.00479802
-0.0046924
-0.00403818
-0.00335341
-0.00271313
-0.00211488
-0.00154847
-0.00100532
-0.000478826
3.60587e-05
0.000543268
0.0010459
0.00154641
0.00204682
0.00254876
0.00305362
0.00356255
0.0040766
0.00459665
0.00512357
0.00565813
0.00620111
0.00675328
0.00731545
0.00788849
0.00847331
0.00907096
0.00968261
0.0103096
0.0109534
0.011616
0.0122992
0.0130055
0.0137376
0.0144987
0.0152923
0.0161223
0.016993
0.0179088
0.018874
0.0198923
0.020966
0.0220923
0.0232457
0.0242826
0.0244916
0.0212154
0.0212154
-0.00274462
-0.00274462
-0.00529232
-0.00511846
-0.00440853
-0.0036821
-0.00300879
-0.00238353
-0.00179473
-0.00123277
-0.00069033
-0.000161738
0.00035741
0.000870588
0.00138058
0.00188963
0.00239961
0.00291206
0.00342831
0.00394951
0.00447669
0.00501078
0.00555269
0.00610327
0.0066634
0.00723398
0.00781597
0.00841044
0.00901854
0.00964161
0.0102811
0.0109389
0.0116169
0.0123175
0.0130433
0.0137976
0.0145839
0.0154063
0.0162693
0.0171776
0.0181366
0.0191511
0.0202255
0.0213629
0.0225608
0.0237945
0.0249219
0.0252192
0.0218543
0.0218543
-0.00323843
-0.00323843
-0.00581545
-0.00556426
-0.00479536
-0.00402568
-0.00331821
-0.00266507
-0.00205316
-0.00147183
-0.000912957
-0.000370254
0.000161178
0.000685214
0.00120496
0.00172293
0.00224121
0.00276153
0.00328536
0.00381401
0.0043486
0.0048902
0.00543979
0.00599834
0.00656681
0.00714623
0.00773765
0.00834225
0.00896135
0.00959642
0.0102492
0.0109215
0.0116158
0.0123346
0.0130811
0.0138587
0.0146715
0.0155241
0.0164216
0.0173696
0.0183738
0.0194401
0.0205735
0.0217776
0.0230505
0.0243685
0.0255922
0.0259899
0.0225513
0.0225513
-0.0037783
-0.0037783
-0.00636791
-0.00602943
-0.00519837
-0.00438397
-0.00364133
-0.00295952
-0.00232386
-0.00172265
-0.00114692
-0.000589756
-4.57302e-05
0.000489442
0.0010192
0.00154634
0.00207317
0.00260161
0.0031333
0.00366967
0.00421198
0.00476141
0.00531904
0.00588593
0.00646317
0.00705185
0.00765318
0.00826843
0.00889908
0.00954676
0.0102134
0.0109011
0.0116124
0.0123504
0.0131184
0.0139205
0.014761
0.0156453
0.0165791
0.0175686
0.0186203
0.0197408
0.0209359
0.0222096
0.0235609
0.024967
0.0262926
0.0268043
0.0233121
0.0233121
-0.00436905
-0.00436905
-0.00695017
-0.00651358
-0.00561722
-0.00475677
-0.00397809
-0.00326692
-0.00260697
-0.00198543
-0.00139248
-0.00082054
-0.000263652
0.000282901
0.000822906
0.00135944
0.00189506
0.00243186
0.00297167
0.00351605
0.0040664
0.00462398
0.00519001
0.00576565
0.00635206
0.00695048
0.0075622
0.00818865
0.00883143
0.00949235
0.0101735
0.0108773
0.0116066
0.0123646
0.0131552
0.0139829
0.0148525
0.01577
0.0167417
0.0177745
0.0188758
0.0200529
0.0213122
0.0226584
0.0240911
0.0255888
0.0270221
0.0276625
0.0241429
0.0241429
-0.00501624
-0.00501624
-0.00756264
-0.00701622
-0.00605155
-0.00514389
-0.00432841
-0.00358731
-0.00290261
-0.00226038
-0.00164991
-0.00106294
-0.000492963
6.51805e-05
0.000615637
0.00116178
0.0017064
0.00225181
0.0028
0.00335267
0.00391136
0.00447746
0.00505226
0.00563705
0.00623309
0.00684172
0.00746436
0.00810256
0.00875808
0.0094329
0.0101293
0.01085
0.0115981
0.0123771
0.0131913
0.0140457
0.0149457
0.0158978
0.016909
0.0179871
0.01914
0.0203758
0.0217018
0.0231233
0.0246402
0.0262329
0.0277795
0.0285646
0.025051
0.025051
-0.00572623
-0.00572623
-0.00820566
-0.0075368
-0.00650094
-0.00554511
-0.00469223
-0.00392075
-0.00321096
-0.00254774
-0.00191953
-0.00131732
-0.000734078
-0.000164171
0.000396914
0.000952854
0.00150668
0.00206093
0.00261775
0.00317901
0.00374637
0.00432133
0.00490531
0.00549968
0.00610583
0.00672518
0.00735929
0.00800983
0.00867873
0.00936813
0.0100806
0.0108189
0.0115866
0.0123876
0.0132266
0.0141088
0.0150405
0.0160286
0.0170809
0.0182059
0.0194124
0.0207092
0.0221042
0.0236033
0.0252071
0.0268979
0.028563
0.0295103
0.0260444
0.0260444
-0.00650634
-0.00650634
-0.00887951
-0.0080747
-0.00696498
-0.00596022
-0.00506951
-0.00426732
-0.00353218
-0.00284779
-0.00220167
-0.0015841
-0.000987453
-0.000405648
0.000166211
0.000732112
0.00129534
0.00185865
0.00242437
0.00299452
0.00357088
0.00415509
0.00474865
0.00535307
0.00596981
0.00660044
0.0072466
0.00791012
0.00859307
0.00929778
0.010027
0.0107839
0.0115721
0.0123961
0.0132607
0.014172
0.0151367
0.0161622
0.0172572
0.0184308
0.0196927
0.0210524
0.0225185
0.0240975
0.0257905
0.0275819
0.0293708
0.0304989
0.0271326
0.0271326
-0.00736497
-0.00736497
-0.00958431
-0.00862922
-0.00744321
-0.00638898
-0.00546018
-0.00462711
-0.0038665
-0.00316084
-0.00249672
-0.00186371
-0.00125359
-0.000659791
-7.7041e-05
0.000498967
0.00107178
0.00164437
0.00221925
0.00279858
0.0033843
0.00397815
0.00458175
0.0051967
0.00582458
0.00646706
0.0071259
0.00780307
0.00850079
0.00922158
0.00996839
0.0107447
0.0115544
0.0124023
0.0132938
0.0142353
0.0152341
0.0162984
0.0174375
0.0186614
0.0199803
0.0214047
0.0229438
0.0246046
0.0263887
0.028283
0.0302004
0.0315293
0.0283259
0.0283259
-0.00831182
-0.00831182
-0.0103201
-0.00919962
-0.00793519
-0.00683119
-0.00586423
-0.00500025
-0.00421415
-0.00348722
-0.00280511
-0.00215665
-0.00153302
-0.000927182
-0.000333457
0.000252781
0.000835348
0.00141743
0.00200173
0.00259057
0.00318602
0.00378993
0.00440404
0.00503005
0.00566965
0.0063246
0.0069968
0.00768834
0.00840159
0.00913927
0.00990454
0.0107011
0.0115333
0.0124061
0.0133255
0.0142984
0.0153326
0.016437
0.0176216
0.0188971
0.0202747
0.0217654
0.0233791
0.0251232
0.0269999
0.0289988
0.0310492
0.0325999
0.0296364
0.0296364
-0.00935804
-0.00935804
-0.0110867
-0.00978509
-0.00844045
-0.00728665
-0.00628164
-0.00538686
-0.0045754
-0.0038273
-0.00312729
-0.00246344
-0.00182634
-0.00120845
-0.000603698
-7.12835e-06
0.000585346
0.00117714
0.00177113
0.00236981
0.00297537
0.0035898
0.00421494
0.00485258
0.00550451
0.00617261
0.00685889
0.00756557
0.00829517
0.0090506
0.00983523
0.010653
0.0115086
0.0124074
0.0133558
0.0143612
0.015432
0.0165778
0.0178092
0.0191376
0.0205751
0.0221334
0.023823
0.0256516
0.027622
0.0297268
0.0319139
0.0337087
0.0310775
0.0310775
-0.0105165
-0.0105165
-0.0118838
-0.0103848
-0.00895856
-0.00775519
-0.00671243
-0.00578715
-0.00495055
-0.0041815
-0.00346376
-0.00278466
-0.00213417
-0.00150427
-0.00088847
-0.000281487
0.00032104
0.000922747
0.00152671
0.00213558
0.00275168
0.00337711
0.00401382
0.0046637
0.00532865
0.00601063
0.00671176
0.00743441
0.00818124
0.00895533
0.00976027
0.0106003
0.0114803
0.0124062
0.0133847
0.0144236
0.0155321
0.0167204
0.0179997
0.0193823
0.0208809
0.0225078
0.0242742
0.0261881
0.0282527
0.0304639
0.0327909
0.0348527
0.0326646
0.0326646
-0.0118021
-0.0118021
-0.0127108
-0.0109979
-0.00948911
-0.00823667
-0.00715668
-0.00620132
-0.00533998
-0.00455029
-0.00381508
-0.00312093
-0.0024572
-0.00181536
-0.00118852
-0.000571063
4.16524e-05
0.000653492
0.00126772
0.00188715
0.00251423
0.00315118
0.00380006
0.00446285
0.00514153
0.00583818
0.00655501
0.00729451
0.00805949
0.00885321
0.00967947
0.0105427
0.0114482
0.0124022
0.0134118
0.0144855
0.0156327
0.0168645
0.0181928
0.0196304
0.0211909
0.0228872
0.0247309
0.0267303
0.0288891
0.0312068
0.033676
0.0360284
0.0344152
0.0344152
-0.0132319
-0.0132319
-0.0135668
-0.0116234
-0.0100318
-0.00873102
-0.00761451
-0.00662966
-0.00574407
-0.00493416
-0.00418184
-0.00347291
-0.00279613
-0.00214247
-0.00150464
-0.000876662
-0.000253629
0.000368559
0.00099336
0.00162374
0.00226228
0.00291132
0.00357301
0.00424942
0.00494262
0.00565478
0.00638821
0.00714552
0.00792964
0.00874401
0.00959262
0.0104802
0.0114123
0.0123954
0.0134372
0.0145465
0.0157336
0.0170098
0.0183878
0.0198812
0.0215042
0.0232702
0.0251912
0.0272759
0.0295282
0.0319515
0.0345645
0.0372311
0.0363488
0.0363488
-0.0148261
-0.0148261
-0.0144504
-0.0122606
-0.0105863
-0.00923826
-0.00808611
-0.00707252
-0.0061633
-0.0053337
-0.00456469
-0.00384132
-0.00315174
-0.00248642
-0.00183765
-0.00119913
-0.000565649
6.71126e-05
0.000702805
0.00134455
0.00199507
0.0026568
0.00333199
0.00402279
0.00473137
0.00545995
0.00621095
0.00698707
0.0077914
0.00862749
0.00949955
0.0104125
0.0113722
0.0123856
0.0134606
0.0146066
0.0158343
0.0171556
0.0185841
0.0201338
0.0218194
0.023655
0.0256531
0.0278222
0.0301667
0.032694
0.0354513
0.0384553
0.0384876
0.0384876
-0.0166076
-0.0166076
-0.0153601
-0.0129086
-0.0111524
-0.0097585
-0.00857178
-0.00753033
-0.00659822
-0.00574954
-0.00496433
-0.00422692
-0.00352483
-0.00284804
-0.00218842
-0.00153933
-0.000895279
-0.000251709
0.000395218
0.00104878
0.00171183
0.0023869
0.00307633
0.00378236
0.00450721
0.00525319
0.00602279
0.00681882
0.00764444
0.00850339
0.00940003
0.0103395
0.011328
0.0123726
0.0134818
0.0146653
0.0159343
0.0173015
0.0187808
0.0203868
0.022135
0.0240398
0.0261139
0.028366
0.0308007
0.0334297
0.0363304
0.0396942
0.0408567
0.0408567
-0.0186034
-0.0186034
-0.0162934
-0.0135668
-0.0117303
-0.010292
-0.00907193
-0.00800362
-0.00704946
-0.00618239
-0.00538155
-0.00463054
-0.00391627
-0.00322822
-0.00255785
-0.00189817
-0.00124341
-0.000588782
6.97468e-05
0.000735607
0.00141177
0.00210088
0.00280536
0.0035275
0.00426959
0.00503401
0.00582331
0.00664037
0.00748846
0.00837144
0.00929383
0.010261
0.0112793
0.0123561
0.0135004
0.0147222
0.0160333
0.0174467
0.0189768
0.0206392
0.0224493
0.0244223
0.0265709
0.0289039
0.0314261
0.0341534
0.0371956
0.0409396
0.0434842
0.0434842
-0.020845
-0.020845
-0.0172476
-0.0142347
-0.01232
-0.0108392
-0.00958713
-0.00849307
-0.00751777
-0.00663306
-0.0058172
-0.00505306
-0.00432696
-0.00362788
-0.00294686
-0.00227657
-0.00161096
-0.000944996
-0.00027447
0.000404203
0.00109412
0.00179801
0.00251838
0.00325757
0.00401794
0.00480189
0.00561204
0.00645132
0.0073231
0.00823132
0.00918064
0.0101766
0.0112258
0.0123359
0.0135161
0.0147769
0.0161304
0.0175902
0.0191711
0.0208891
0.0227603
0.0248
0.027021
0.0294321
0.0320383
0.0348597
0.0380398
0.0421815
0.0464018
0.0464018
-0.0233689
-0.0233689
-0.0182188
-0.0149119
-0.0129221
-0.0114007
-0.0101182
-0.00899955
-0.00800409
-0.00710253
-0.00627229
-0.00549552
-0.00475794
-0.00404805
-0.00335647
-0.00267553
-0.0019989
-0.00132131
-0.000638368
5.36702e-05
0.00075801
0.00147748
0.00221463
0.00297187
0.00375158
0.00455621
0.00538841
0.00625115
0.00714787
0.00808257
0.00906003
0.0100859
0.011167
0.0123113
0.0135282
0.0148285
0.0162247
0.0177308
0.0193621
0.021135
0.0230658
0.0251701
0.0274608
0.0299466
0.0326325
0.0355429
0.0388559
0.0434085
0.0496451
0.0496451
-0.0262186
-0.0262186
-0.0192027
-0.0155989
-0.0135378
-0.011978
-0.0106665
-0.00952458
-0.00850998
-0.00759242
-0.00674846
-0.00595958
-0.0052109
-0.00449044
-0.00378841
-0.00309679
-0.00240897
-0.00171945
-0.00102364
-0.000317665
0.000401798
0.00113766
0.00189252
0.00266885
0.00346903
0.00429555
0.00515105
0.00603855
0.0069615
0.00792398
0.00893084
0.00998788
0.011102
0.0122814
0.0135357
0.014876
0.0163152
0.0178675
0.0195487
0.0213753
0.0233641
0.0255309
0.0278884
0.030445
0.0332058
0.0361995
0.0396389
0.0446103
0.0532571
0.0532571
-0.0294478
-0.0294478
-0.020197
-0.0162998
-0.014172
-0.0125763
-0.0112378
-0.0100741
-0.0090417
-0.00810925
-0.00725253
-0.0064523
-0.00569315
-0.00496257
-0.00425038
-0.00354822
-0.00284917
-0.00214753
-0.00143849
-0.000718049
1.72395e-05
0.000770356
0.00154397
0.00234056
0.00316254
0.00401238
0.00489276
0.00580668
0.00675762
0.00774969
0.0087878
0.00987785
0.0110269
0.0122432
0.0135366
0.0149187
0.0164023
0.0180021
0.0197341
0.0216152
0.0236623
0.0258911
0.0283144
0.03094
0.033773
0.0368459
0.0404054
0.0457974
0.0573092
0.0573092
-0.0331467
-0.0331467
-0.0212256
-0.0170481
-0.0148606
-0.0132335
-0.0118718
-0.01069
-0.00964315
-0.00869895
-0.00783232
-0.00702332
-0.00625591
-0.00551709
-0.00479621
-0.00408455
-0.0033749
-0.00266126
-0.00193865
-0.00120289
-0.000450417
0.000321842
0.00111661
0.00193641
0.00278368
0.0036609
0.00457077
0.00551629
0.00650098
0.00752902
0.00860541
0.00973615
0.0109284
0.0121909
0.0135335
0.0149679
0.0165076
0.0181675
0.0199637
0.0219133
0.0240334
0.0263394
0.0288435
0.0315528
0.0344714
0.0376342
0.0413194
0.047134
0.0620367
0.0620367
-0.0376252
-0.0376252
-0.0225255
-0.0180994
-0.0158701
-0.0142276
-0.0128589
-0.0116748
-0.0106288
-0.00968707
-0.00882332
-0.00801656
-0.00724988
-0.00650954
-0.00578427
-0.00506484
-0.0043436
-0.00361423
-0.0028715
-0.00211101
-0.00132907
-0.000522509
0.000311473
0.00117544
0.00207189
0.00300337
0.00397263
0.00498284
0.00603766
0.00714151
0.0082997
0.0095186
0.0108059
0.0121706
0.0136234
0.0151766
0.0168441
0.0186414
0.0205851
0.0226921
0.0249791
0.0274603
0.030146
0.0330398
0.0361414
0.0394835
0.0433664
0.0496437
0.0685555
0.0685555
-0.0446041
-0.0446041
-0.0257604
-0.0211725
-0.018972
-0.0173862
-0.016081
-0.01496
-0.0139714
-0.0130778
-0.0122497
-0.0114639
-0.0107018
-0.00994844
-0.00919181
-0.00842226
-0.00763202
-0.00681487
-0.00596577
-0.00508067
-0.00415624
-0.00318965
-0.00217841
-0.00112014
-1.2428e-05
0.00114736
0.00236229
0.00363599
0.0049729
0.00637838
0.00785897
0.00942248
0.0110782
0.012837
0.0147113
0.0167152
0.018864
0.021174
0.0236619
0.0263433
0.0292317
0.0323356
0.0356559
0.0391829
0.0428982
0.0468131
0.051224
0.0581816
0.0818624
0.0818624
-0.0634942
-0.0634942
-0.0403893
-0.0358488
-0.0338432
-0.0324405
-0.0312669
-0.0302075
-0.0292007
-0.0282044
-0.0271888
-0.026133
-0.0250223
-0.0238469
-0.0226007
-0.0212796
-0.0198814
-0.0184051
-0.0168499
-0.0152155
-0.0135013
-0.0117063
-0.00982887
-0.00786651
-0.00581569
-0.00367166
-0.0014283
0.00092201
0.00338852
0.00598222
0.00871595
0.0116044
0.0146639
0.0179127
0.02137
0.0250562
0.0289913
0.033194
0.0376796
0.0424579
0.0475291
0.0528792
0.058475
0.0642569
0.0701389
0.0760455
0.0821811
0.0906539
0.120125
0.120125
-0.138423
-0.138423
-0.109748
-0.103762
-0.0998451
-0.0960982
-0.0922454
-0.0882686
-0.08419
-0.0800367
-0.0758339
-0.0716031
-0.0673613
-0.063121
-0.0588906
-0.0546742
-0.0504724
-0.0462821
-0.0420969
-0.0379074
-0.0337007
-0.0294612
-0.0251696
-0.0208037
-0.0163376
-0.0117417
-0.0069828
-0.00202334
0.0031783
0.00866811
0.0144965
0.020718
0.027391
0.0345773
0.0423402
0.0507435
0.059848
0.0697082
0.0803661
0.0918439
0.104133
0.117181
0.130873
0.145009
0.159285
0.173303
0.186818
0.201417
0.24001
0.24001
-0.498214
-0.498214
-0.419801
-0.360246
-0.313046
-0.273991
-0.241127
-0.213174
-0.189182
-0.16842
-0.150318
-0.13442
-0.120362
-0.107846
-0.0966294
-0.0865069
-0.0773069
-0.0688819
-0.0611037
-0.0538587
-0.047044
-0.0405642
-0.0343286
-0.0282484
-0.0222344
-0.0161941
-0.0100294
-0.00363378
0.00311083
0.0103373
0.0181969
0.0268635
0.0365382
0.0474538
0.059881
0.0741331
0.0905717
0.109611
0.131723
0.157433
0.18732
0.222006
0.262132
0.308326
0.361163
0.421133
0.488831
0.566719
0.661588
0.661588
-0.498214
-0.498214
-0.419801
-0.360246
-0.313046
-0.273991
-0.241127
-0.213174
-0.189182
-0.16842
-0.150318
-0.13442
-0.120362
-0.107846
-0.0966294
-0.0865069
-0.0773069
-0.0688819
-0.0611037
-0.0538587
-0.047044
-0.0405642
-0.0343286
-0.0282484
-0.0222344
-0.0161941
-0.0100294
-0.00363378
0.00311083
0.0103373
0.0181969
0.0268635
0.0365382
0.0474538
0.059881
0.0741331
0.0905717
0.109611
0.131723
0.157433
0.18732
0.222006
0.262132
0.308326
0.361163
0.421133
0.488831
0.566719
0.661588
0.661588
VECTORS velocity double
-5.05504e-05 5.05503e-05 0.0
5.05504e-05 -5.05503e-05 0.0
0.000296934 -0.000195833 0.0
0.00071994 -0.000227174 0.0
0.00116701 -0.000219895 0.0
0.00159188 -0.000204982 0.0
0.00198679 -0.000189923 0.0
0.0023526 -0.000175885 0.0
0.00269135 -0.000162866 0.0
0.00300494 -0.000150725 0.0
0.00329499 -0.000139331 0.0
0.0035629 -0.000128576 0.0
0.00380984 -0.000118368 0.0
0.00403684 -0.00010863 0.0
0.00424477 -9.92938e-05 0.0
0.00443436 -9.02986e-05 0.0
0.00460625 -8.15903e-05 0.0
0.00476096 -7.31194e-05 0.0
0.00489892 -6.48397e-05 0.0
0.00502047 -5.67078e-05 0.0
0.00512586 -4.86824e-05 0.0
0.00521526 -4.07234e-05 0.0
0.00528878 -3.27916e-05 0.0
0.00534642 -2.48481e-05 0.0
0.00538812 -1.68536e-05 0.0
0.00541374 -8.76846e-06 0.0
0.00542306 -5.51537e-07 0.0
0.00541577 7.8398e-06 0.0
0.00539148 1.64504e-05 0.0
0.0053497 2.53278e-05 0.0
0.00528985 3.45229e-05 0.0
0.00521124 4.40902e-05 0.0
0.00511306 5.40892e-05 0.0
0.00499439 6.4584e-05 0.0
0.00485416 7.56452e-05 0.0
0.00469116 8.73494e-05 0.0
0.00450403 9.97809e-05 0.0
0.00429122 0.000113031 0.0
0.00405099 0.0001272 0.0
0.00378139 0.000142395 0.0
0.00348027 0.000158728 0.0
0.00314522 0.000176318 0.0
0.00277363 0.000195277 0.0
0.00236267 0.000215679 0.0
0.00190965 0.00023734 0.0
0.00141373 0.000258578 0.0
0.00088483 0.000270325 0.0
0.000377733 0.000236772 0.0
7.04805e-05 7.04805e-05 0.0
-7.04805e-05 -7.04805e-05 0.0
5.05504e-05 -5.05503e-05 0.0
-5.05504e-05 5.05503e-05 0.0
-0.000296934 0.000195833 0.0
-0.00071994 0.000227174 0.0
-0.00116701 0.000219895 0.0
-0.00159188 0.000204982 0.0
-0.00198679 0.000189923 0.0
-0.0023526 0.000175885 0.0
-0.00269135 0.000162866 0.0
-0.00300494 0.000150725 0.0
-0.00329499 0.000139331 0.0
-0.0035629 0.000128576 0.0
-0.00380984 0.000118368 0.0
-0.00403684 0.00010863 0.0
-0.00424477 9.92938e-05 0.0
-0.00443436 9.02986e-05 0.0
-0.00460625 8.15903e-05 0.0
-0.00476096 7.31194e-05 0.0
-0.00489892 6.48397e-05 0.0
-0.00502047 5.67078e-05 0.0
-0.00512586 4.86824e-05 0.0
-0.00521526 4.07234e-05 0.0
-0.00528878 3.27916e-05 0.0
-0.00534642 2.48481e-05 0.0
-0.00538812 1.68536e-05 0.0
-0.00541374 8.76846e-06 0.0
-0.00542306 5.51537e-07 0.0
-0.00541577 -7.8398e-06 0.0
-0.00539148 -1.64504e-05 0.0
-0.0053497 -2.53278e-05 0.0
-0.00528985 -3.45229e-05 0.0
-0.00521124 -4.40902e-05 0.0
-0.00511306 -5.40892e-05 0.0
-0.00499439 -6.4584e-05 0.0
-0.00485416 -7.56452e-05 0.0
-0.00469116 -8.73494e-05 0.0
-0.00450403 -9.97809e-05 0.0
-0.00429122 -0.000113031 0.0
-0.00405099 -0.0001272 0.0
-0.00378139 -0.000142395 0.0
-0.00348027 -0.000158728 0.0
-0.00314522 -0.000176318 0.0
-0.00277363 -0.000195277 0.0
-0.00236267 -0.000215679 0.0
-0.00190965 -0.00023734 0.0
-0.00141373 -0.000258578 0.0
-0.00088483 -0.000270325 0.0
-0.000377733 -0.000236772 0.0
-7.04805e-05 -7.04805e-05 0.0
7.04805e-05 7.04805e-05 0.0
0.000151303 -0.000252403 0.0
-0.000151303 0.000252403 0.0
-0.00060132 0.000690379 0.0
-0.00123029 0.000784608 0.0
-0.00188267 0.000761901 0.0
-0.00251025 0.000715438 0.0
-0.00310372 0.00066784 0.0
-0.00366267 0.000622722 0.0
-0.00418806 0.00058017 0.0
-0.00468089 0.000539842 0.0
-0.00514203 0.000501409 0.0
-0.00557223 0.000464601 0.0
-0.00597213 0.000429189 0.0
-0.0063423 0.000394976 0.0
-0.00668322 0.00036179 0.0
-0.0069953 0.000329477 0.0
-0.00727889 0.000297896 0.0
-0.00753428 0.000266914 0.0
-0.00776169 0.000236409 0.0
-0.00796127 0.000206263 0.0
-0.00813311 0.000176361 0.0
-0.00827725 0.000146592 0.0
-0.00839366 0.000116844 0.0
-0.00848223 8.70063e-05 0.0
-0.0085428 5.69667e-05 0.0
-0.00857513 2.66101e-05 0.0
-0.00857892 -4.18216e-06 0.0
-0.00855378 -3.55333e-05 0.0
-0.00849925 -6.75727e-05 0.0
-0.0084148 -0.000100437 0.0
-0.0082998 -0.000134271 0.0
-0.00815352 -0.000169229 0.0
-0.00797517 -0.000205478 0.0
-0.00776384 -0.000243197 0.0
-0.00751853 -0.000282579 0.0
-0.00723811 -0.000323832 0.0
-0.00692135 -0.000367181 0.0
-0.00656693 -0.000412868 0.0
-0.00617337 -0.00046115 0.0
-0.00573912 -0.000512297 0.0
-0.00526248 -0.00056659 0.0
-0.00474167 -0.000624304 0.0
-0.00417487 -0.000685688 0.0
-0.00356025 -0.000750851 0.0
-0.00289632 -0.000819115 0.0
-0.00218378 -0.000885262 0.0
-0.00143445 -0.000921873 0.0
-0.000705574 -0.000821199 0.0
-0.00017896 -0.000319921 0.0
0.00017896 0.000319921 0.0
0.000175428 -0.000579134 0.0
-0.000175428 0.000579134 0.0
-0.000675824 0.00131406 0.0
-0.00135702 0.00147109 0.0
-0.00206065 0.00143143 0.0
-0.00273811 0.00135096 0.0
-0.00337993 0.00126762 0.0
-0.00398563 0.00118759 0.0
-0.00455606 0.00111113 0.0
-0.00509211 0.00103776 0.0
-0.00559452 0.000967035 0.0
-0.00606391 0.000898566 0.0
-0.00650082 0.000832035 0.0
-0.00690569 0.00076717 0.0
-0.0072789 0.000703728 0.0
-0.00762077 0.00064149 0.0
-0.00793155 0.000580255 0.0
-0.00821143 0.000519831 0.0
-0.00846057 0.000460037 0.0
-0.00867905 0.000400696 0.0
-0.00886692 0.000341635 0.0
-0.00902414 0.000282683 0.0
-0.00915065 0.000223668 0.0
-0.00924631 0.000164415 0.0
-0.00931094 0.00010475 0.0
-0.00934426 4.44887e-05 0.0
-0.00934598 -1.65553e-05 0.0
-0.0093157 -7.85776e-05 0.0
-0.00925297 -0.000141783 0.0
-0.00915727 -0.000206386 0.0
-0.00902798 -0.000272615 0.0
-0.00886443 -0.000340712 0.0
-0.00866583 -0.000410935 0.0
-0.00843135 -0.000483558 0.0
-0.00816001 -0.000558875 0.0
-0.00785076 -0.000637202 0.0
-0.00750245 -0.000718871 0.0
-0.00711382 -0.000804239 0.0
-0.00668347 -0.000893676 0.0
-0.00620994 -0.000987565 0.0
-0.00569161 -0.00108629 0.0
-0.00512682 -0.0011902 0.0
-0.0045138 -0.00129961 0.0
-0.00385082 -0.00141454 0.0
-0.00313648 -0.0015337 0.0
-0.00237155 -0.00164815 0.0
-0.00156802 -0.00171184 0.0
-0.000783772 -0.00154435 0.0
-0.000204138 -0.000703019 0.0
0.000204138 0.000703019 0.0
0.000181184 -0.000935747 0.0
-0.000181184 0.000935747 0.0
-0.000695681 0.00197234 0.0
-0.00139338 0.0021917 0.0
-0.00211273 0.00213381 0.0
-0.00280473 0.00201802 0.0
-0.00346002 0.00189767 0.0
-0.00407823 0.00178145 0.0
-0.00466033 0.00166979 0.0
-0.00520727 0.00156208 0.0
-0.00571985 0.0014577 0.0
-0.00619873 0.00135617 0.0
-0.00664447 0.00125708 0.0
-0.00705754 0.00116006 0.0
-0.00743831 0.00106482 0.0
-0.00778711 0.000971068 0.0
-0.0081042 0.000878545 0.0
-0.00838978 0.000787005 0.0
-0.00864399 0.000696211 0.0
-0.00886692 0.000605932 0.0
-0.0090586 0.000515941 0.0
-0.009219 0.00042601 0.0
-0.00934806 0.000335911 0.0
-0.00944564 0.000245412 0.0
-0.00951154 0.000154275 0.0
-0.00954551 6.22575e-05 0.0
-0.00954722 -3.08946e-05 0.0
-0.00951629 -0.000125445 0.0
-0.00945227 -0.000221668 0.0
-0.00935462 -0.000319857 0.0
-0.00922273 -0.000420316 0.0
-0.00905593 -0.000523373 0.0
-0.00885342 -0.000629373 0.0
-0.00861434 -0.000738686 0.0
-0.00833772 -0.000851704 0.0
-0.00802249 -0.000968848 0.0
-0.00766746 -0.00109056 0.0
-0.00727133 -0.00121731 0.0
-0.00683268 -0.0013496 0.0
-0.00634996 -0.0014879 0.0
-0.0058215 -0.00163273 0.0
-0.00524553 -0.00178453 0.0
-0.00462016 -0.00194366 0.0
-0.00394353 -0.0021101 0.0
-0.00321406 -0.00228194 0.0
-0.00243235 -0.00244654 0.0
-0.00161035 -0.002539 0.0
-0.000806601 -0.00230519 0.0
-0.00021063 -0.00111779 0.0
0.00021063 0.00111779 0.0
0.000184125 -0.00130106 0.0
-0.000184125 0.00130106 0.0
-0.000707493 0.0026449 0.0
-0.00141683 0.00292617 0.0
-0.00214687 0.00284874 0.0
-0.00284815 0.00269638 0.0
-0.00351149 0.00253794 0.0
-0.00413672 0.00238463 0.0
-0.00472501 0.00223699 0.0
-0.00527742 0.00209424 0.0
-0.00579489 0.00195559 0.0
-0.00627815 0.00182043 0.0
-0.00672782 0.00168824 0.0
-0.00714444 0.00155858 0.0
-0.00752843 0.00143107 0.0
-0.00788015 0.00130534 0.0
-0.00819988 0.00118109 0.0
-0.00848786 0.00105801 0.0
-0.00874424 0.000935792 0.0
-0.00896912 0.00081416 0.0
-0.00916255 0.000692827 0.0
-0.00932453 0.000571508 0.0
-0.00945497 0.000449918 0.0
-0.00955376 0.000327766 0.0
-0.00962069 0.000204752 0.0
-0.00965551 8.0569e-05 0.0
-0.0096579 -4.51021e-05 0.0
-0.00962747 -0.000172595 0.0
-0.00956376 -0.000302258 0.0
-0.00946622 -0.000434459 0.0
-0.00933423 -0.000569588 0.0
-0.00916708 -0.000708058 0.0
-0.00896396 -0.000850307 0.0
-0.00872399 -0.000996805 0.0
-0.00844614 -0.00114805 0.0
-0.00812929 -0.00130458 0.0
-0.0077722 -0.00146695 0.0
-0.00737348 -0.00163577 0.0
-0.00693162 -0.00181165 0.0
-0.00644496 -0.00199523 0.0
-0.00591168 -0.00218713 0.0
-0.00532985 -0.00238794 0.0
-0.00469739 -0.00259808 0.0
-0.00401219 -0.00281752 0.0
-0.00327243 -0.00304376 0.0
-0.00247843 -0.00326042 0.0
-0.00164199 -0.00338355 0.0
-0.000822537 -0.00308384 0.0
-0.000214613 -0.00154303 0.0
0.000214613 0.00154303 0.0
0.000187484 -0.00167267 0.0
-0.000187484 0.00167267 0.0
-0.00072096 0.00333013 0.0
-0.0014435 0.00367282 0.0
-0.00218555 0.00357418 0.0
-0.00289708 0.00338374 0.0
-0.00356915 0.00318597 0.0
-0.00420187 0.00299455 0.0
-0.00479662 0.0028101 0.0
-0.00535467 0.0026316 0.0
-0.00587707 0.00245809 0.0
-0.00636468 0.0022888 0.0
-0.00681822 0.00212309 0.0
-0.00723829 0.00196042 0.0
-0.00762537 0.00180031 0.0
-0.00797989 0.00164233 0.0
-0.00830215 0.0014861 0.0
-0.00859243 0.00133125 0.0
-0.00885091 0.00117741 0.0
-0.00907771 0.00102423 0.0
-0.00927291 0.000871387 0.0
-0.00943651 0.000718518 0.0
-0.00956844 0.000565283 0.0
-0.00966858 0.000411326 0.0
-0.00973674 0.000256287 0.0
-0.00977268 9.97894e-05 0.0
-0.00977605 -5.8554e-05 0.0
-0.00974648 -0.00021915 0.0
-0.00968347 -0.000382424 0.0
-0.00958648 -0.000548826 0.0
-0.00945486 -0.000718833 0.0
-0.00928787 -0.000892951 0.0
-0.00908468 -0.00107172 0.0
-0.00884433 -0.00125571 0.0
-0.00856577 -0.00144555 0.0
-0.0082478 -0.00164189 0.0
-0.00788909 -0.00184544 0.0
-0.00748816 -0.00205693 0.0
-0.00704336 -0.00227714 0.0
-0.00655289 -0.00250687 0.0
-0.00601476 -0.0027469 0.0
-0.0054268 -0.00299796 0.0
-0.00478669 -0.00326062 0.0
-0.00409202 -0.00353485 0.0
-0.00334063 -0.00381759 0.0
-0.0025325 -0.00408873 0.0
-0.00167928 -0.0042449 0.0
-0.000841391 -0.00387983 0.0
-0.000219355 -0.001977 0.0
0.000219355 0.001977 0.0
0.000191829 -0.00205198 0.0
-0.000191829 0.00205198 0.0
-0.0007378 0.00403027 0.0
-0.00147626 0.00443368 0.0
-0.00223272 0.00431183 0.0
-0.00295656 0.00408146 0.0
-0.00363909 0.00384285 0.0
-0.00428078 0.00361209 0.0
-0.00488327 0.0033898 0.0
-0.00544805 0.00317472 0.0
-0.00597634 0.00296566 0.0
-0.00646915 0.00276166 0.0
-0.0069273 0.00256193 0.0
-0.00735148 0.00236582 0.0
-0.00774226 0.00217276 0.0
-0.0081001 0.00198223 0.0
-0.00842538 0.00179376 0.0
-0.00871841 0.0016069 0.0
-0.0089794 0.00142123 0.0
-0.00920851 0.00123633 0.0
-0.00940582 0.00105181 0.0
-0.00957137 0.000867238 0.0
-0.00970509 0.000682216 0.0
-0.00980688 0.000496322 0.0
-0.00987655 0.000309125 0.0
-0.00991384 0.000120181 0.0
-0.00991844 -7.09729e-05 0.0
-0.00988993 -0.000264819 0.0
-0.00982782 -0.000461867 0.0
-0.00973155 -0.000662653 0.0
-0.00960043 -0.000867747 0.0
-0.0094337 -0.00107776 0.0
-0.00923047 -0.00129333 0.0
-0.00898975 -0.00151517 0.0
-0.00871041 -0.00174401 0.0
-0.00839116 -0.00198066 0.0
-0.00803057 -0.00222597 0.0
-0.00762704 -0.00248086 0.0
-0.00717878 -0.00274628 0.0
-0.00668378 -0.00302321 0.0
-0.00613984 -0.00331264 0.0
-0.00554453 -0.00361549 0.0
-0.00489523 -0.0039325 0.0
-0.00418917 -0.0042637 0.0
-0.00342377 -0.00460553 0.0
-0.0025986 -0.00493409 0.0
-0.0017251 -0.00512626 0.0
-0.000864907 -0.00469655 0.0
-0.000225432 -0.00242178 0.0
0.000225432 0.00242178 0.0
0.000197272 -0.00244108 0.0
-0.000197272 0.00244108 0.0
-0.000758353 0.00474822 0.0
-0.00151564 0.00521148 0.0
-0.00228913 0.005064 0.0
-0.0030275 0.0047915 0.0
-0.0037224 0.00451025 0.0
-0.0043747 0.00423868 0.0
-0.00498635 0.00397736 0.0
-0.00555911 0.0037247 0.0
-0.00609439 0.00347925 0.0
-0.00659337 0.00323984 0.0
-0.00705699 0.00300552 0.0
-0.00748606 0.00277548 0.0
-0.00788122 0.00254904 0.0
-0.00824302 0.00232559 0.0
-0.00857189 0.00210455 0.0
-0.00886819 0.00188542 0.0
-0.00913217 0.00166768 0.0
-0.00936402 0.00145085 0.0
-0.00956386 0.00123445 0.0
-0.00973172 0.001018 0.0
-0.00986758 0.000801031 0.0
-0.00997133 0.000583042 0.0
-0.0100428 0.000363534 0.0
-0.0100817 0.000141988 0.0
-0.0100878 -8.21377e-05 0.0
-0.0100605 -0.000309408 0.0
-0.00999948 -0.00054042 0.0
-0.00990405 -0.000775805 0.0
-0.00977353 -0.00101623 0.0
-0.0096071 -0.00126242 0.0
-0.00940384 -0.00151515 0.0
-0.00916268 -0.00177523 0.0
-0.0088824 -0.00204357 0.0
-0.00856164 -0.00232112 0.0
-0.00819883 -0.00260891 0.0
-0.00779222 -0.00290806 0.0
-0.00733984 -0.00321973 0.0
-0.00683947 -0.00354512 0.0
-0.00628866 -0.00388548 0.0
-0.00568465 -0.00424196 0.0
-0.00502447 -0.00461552 0.0
-0.00430491 -0.00500631 0.0
-0.00352293 -0.0054103 0.0
-0.0026776 -0.00579982 0.0
-0.00178012 -0.00603151 0.0
-0.000893484 -0.00553813 0.0
-0.000232972 -0.00288019 0.0
0.000232972 0.00288019 0.0
0.000203867 -0.00284222 0.0
-0.000203867 0.00284222 0.0
-0.000782782 0.00548707 0.0
-0.00156191 0.00600904 0.0
-0.00235509 0.0058331 0.0
-0.00311025 0.00551592 0.0
-0.00381947 0.00518994 0.0
-0.00448405 0.00487586 0.0
-0.00510632 0.00457411 0.0
-0.00568833 0.00428271 0.0
-0.00623172 0.00399992 0.0
-0.00673786 0.00372429 0.0
-0.00720784 0.00345468 0.0
-0.00764258 0.00319013 0.0
-0.00804285 0.00292982 0.0
-0.00840925 0.00267301 0.0
-0.0087423 0.00241905 0.0
-0.0090424 0.00216731 0.0
-0.00930986 0.00191722 0.0
-0.00954491 0.0016682 0.0
-0.00974768 0.0014197 0.0
-0.00991825 0.00117118 0.0
-0.0100566 0.00092206 0.0
-0.0101626 0.000671792 0.0
-0.0102362 0.000419792 0.0
-0.010277 0.00016546 0.0
-0.0102847 -9.18275e-05 0.0
-0.0102589 -0.000352726 0.0
-0.0101992 -0.000617926 0.0
-0.0101047 -0.000888162 0.0
-0.00997491 -0.00116422 0.0
-0.00980884 -0.00144693 0.0
-0.00960555 -0.0017372 0.0
-0.00936388 -0.00203601 0.0
-0.00908254 -0.00234441 0.0
-0.00876002 -0.00266355 0.0
-0.00839464 -0.00299466 0.0
-0.00798448 -0.00333908 0.0
-0.00752733 -0.00369822 0.0
-0.00702075 -0.00407357 0.0
-0.00646197 -0.00446664 0.0
-0.00584788 -0.00487889 0.0
-0.00517508 -0.00531157 0.0
-0.00443989 -0.00576501 0.0
-0.00363869 -0.00623477 0.0
-0.00277001 -0.00668936 0.0
-0.00184474 -0.00696472 0.0
-0.000927365 -0.00640893 0.0
-0.000242054 -0.00335522 0.0
0.000242054 0.00335522 0.0
0.000211672 -0.00325776 0.0
-0.000211672 0.00325776 0.0
-0.000811255 0.00625003 0.0
-0.00161532 0.00682927 0.0
-0.00243088 0.00662161 0.0
-0.00320515 0.00625684 0.0
-0.00393064 0.00588374 0.0
-0.0046092 0.0055252 0.0
-0.00524357 0.00518141 0.0
-0.00583611 0.00484996 0.0
-0.00638875 0.0045287 0.0
-0.00690304 0.00421593 0.0
-0.00738028 0.00391025 0.0
-0.0078215 0.00361053 0.0
-0.00822758 0.00331577 0.0
-0.00859924 0.00302513 0.0
-0.00893706 0.00273781 0.0
-0.00924151 0.0024531 0.0
-0.00951294 0.00217033 0.0
-0.00975164 0.00188883 0.0
-0.00995776 0.00160798 0.0
-0.0101314 0.00132712 0.0
-0.0102726 0.00104564 0.0
-0.0103813 0.000762884 0.0
-0.0104572 0.000478183 0.0
-0.0105002 0.000190857 0.0
-0.0105098 -9.98105e-05 0.0
-0.0104858 -0.00039457 0.0
-0.0104274 -0.000694215 0.0
-0.0103342 -0.000999592 0.0
-0.0102052 -0.0013116 0.0
-0.0100395 -0.00163122 0.0
-0.00983623 -0.0019595 0.0
-0.00959401 -0.00229759 0.0
-0.00931148 -0.00264671 0.0
-0.008987 -0.00300824 0.0
-0.00861872 -0.00338363 0.0
-0.00820452 -0.00377448 0.0
-0.00774198 -0.00418251 0.0
-0.00722834 -0.00460951 0.0
-0.00666049 -0.00505734 0.0
-0.00603493 -0.00552784 0.0
-0.00534775 -0.00602259 0.0
-0.00459474 -0.0065422 0.0
-0.00377164 -0.00708186 0.0
-0.00287633 -0.00760626 0.0
-0.00191935 -0.00793008 0.0
-0.000966813 -0.00731347 0.0
-0.000252764 -0.00385003 0.0
0.000252764 0.00385003 0.0
0.000220755 -0.00369018 0.0
-0.000220755 0.00369018 0.0
-0.000843965 0.0070404 0.0
-0.00167613 0.00767513 0.0
-0.00251685 0.00743203 0.0
-0.00331255 0.00701638 0.0
-0.00405632 0.00659347 0.0
-0.00475057 0.00618828 0.0
-0.00539852 0.00580065 0.0
-0.0060029 0.00542764 0.0
-0.00656592 0.00506668 0.0
-0.00708939 0.00471571 0.0
-0.00757477 0.00437308 0.0
-0.00802328 0.00403743 0.0
-0.00843591 0.00370759 0.0
-0.00881348 0.00338254 0.0
-0.00915666 0.00306139 0.0
-0.009466 0.0027433 0.0
-0.00974191 0.00242748 0.0
-0.00998472 0.00211318 0.0
-0.0101946 0.00179967 0.0
-0.0103718 0.00148623 0.0
-0.0105162 0.00117213 0.0
-0.0106278 0.000856641 0.0
-0.0107064 0.000539007 0.0
-0.0107519 0.000218451 0.0
-0.0107637 -0.000105841 0.0
-0.0107416 -0.000434723 0.0
-0.0106849 -0.000769101 0.0
-0.010593 -0.00110994 0.0
-0.0104649 -0.00145829 0.0
-0.0102998 -0.00181525 0.0
-0.0100966 -0.00218206 0.0
-0.00985379 -0.00256003 0.0
-0.00956996 -0.00295063 0.0
-0.00924332 -0.00335544 0.0
-0.00887184 -0.0037762 0.0
-0.00845315 -0.0042148 0.0
-0.00798458 -0.0046733 0.0
-0.00746304 -0.00515389 0.0
-0.00688502 -0.00565882 0.0
-0.00624657 -0.00619037 0.0
-0.00554324 -0.00675056 0.0
-0.00477018 -0.00734032 0.0
-0.00392243 -0.00795457 0.0
-0.00299714 -0.00855415 0.0
-0.00200442 -0.0089319 0.0
-0.00101214 -0.00825648 0.0
-0.000265208 -0.004368 0.0
0.000265208 0.004368 0.0
0.000231201 -0.00414214 0.0
-0.000231201 0.00414214 0.0
-0.00088114 0.00786159 0.0
-0.00174467 0.00854964 0.0
-0.00261334 0.00826692 0.0
-0.00343285 0.0077967 0.0
-0.00419692 0.00732099 0.0
-0.00490861 0.0068667 0.0
-0.00557165 0.00643321 0.0
-0.00618919 0.00601699 0.0
-0.00676375 0.00561493 0.0
-0.00729742 0.0052246 0.0
-0.00779186 0.00484402 0.0
-0.00824846 0.0044716 0.0
-0.00866836 0.00410595 0.0
-0.00905251 0.0037459 0.0
-0.00940166 0.00339038 0.0
-0.00971645 0.00303843 0.0
-0.00999734 0.00268916 0.0
-0.0102447 0.00234169 0.0
-0.0104589 0.0019952 0.0
-0.0106399 0.00164887 0.0
-0.0107879 0.00130188 0.0
-0.0109028 0.000953398 0.0
-0.0109845 0.000602574 0.0
-0.0110327 0.000248528 0.0
-0.0110471 -0.000109657 0.0
-0.0110271 -0.00047295 0.0
-0.0109723 -0.00084238 0.0
-0.0108819 -0.00121905 0.0
-0.010755 -0.00160413 0.0
-0.0105905 -0.00199893 0.0
-0.0103874 -0.00240484 0.0
-0.010144 -0.00282339 0.0
-0.00985882 -0.00325629 0.0
-0.00952985 -0.00370538 0.0
-0.00915486 -0.00417273 0.0
-0.00873126 -0.00466056 0.0
-0.00825604 -0.00517134 0.0
-0.00772576 -0.00570768 0.0
-0.00713647 -0.00627233 0.0
-0.0064837 -0.00686808 0.0
-0.0057624 -0.00749748 0.0
-0.00496701 -0.00816187 0.0
-0.0040918 -0.00885597 0.0
-0.00313309 -0.00953675 0.0
-0.0021005 -0.0099746 0.0
-0.00106369 -0.00924287 0.0
-0.000279511 -0.00491272 0.0
0.000279511 0.00491272 0.0
0.000243105 -0.00461645 0.0
-0.000243105 0.00461645 0.0
-0.000923039 0.00871716 0.0
-0.0018213 0.00945586 0.0
-0.00272078 0.00912885 0.0
-0.00356651 0.00860001 0.0
-0.00435294 0.00806818 0.0
-0.00508384 0.00756209 0.0
-0.0057635 0.00708053 0.0
-0.00639552 0.00661923 0.0
-0.0069828 0.00617453 0.0
-0.0075277 0.00574354 0.0
-0.00803211 0.00532394 0.0
-0.00849764 0.00491381 0.0
-0.00892556 0.00451157 0.0
-0.00931695 0.00411582 0.0
-0.00967269 0.00372535 0.0
-0.00999347 0.00333903 0.0
-0.0102799 0.00295585 0.0
-0.0105323 0.00257482 0.0
-0.0107511 0.002195 0.0
-0.0109365 0.00181545 0.0
-0.0110884 0.00143527 0.0
-0.011207 0.0010535 0.0
-0.0112921 0.000669209 0.0
-0.0113434 0.000281392 0.0
-0.0113605 -0.000110979 0.0
-0.0113431 -0.000508997 0.0
-0.0112904 -0.000913823 0.0
-0.0112017 -0.0013267 0.0
-0.0110761 -0.00174899 0.0
-0.0109125 -0.00218215 0.0
-0.0107095 -0.00262779 0.0
-0.0104656 -0.00308769 0.0
-0.010179 -0.0035638 0.0
-0.00984755 -0.00405829 0.0
-0.00946878 -0.00457357 0.0
-0.00903983 -0.00511228 0.0
-0.00855736 -0.00567732 0.0
-0.0080175 -0.00627183 0.0
-0.00741584 -0.00689913 0.0
-0.0067473 -0.00756259 0.0
-0.00600618 -0.00826539 0.0
-0.00518613 -0.0090094 0.0
-0.00428057 -0.00978921 0.0
-0.0032849 -0.0105579 0.0
-0.00220817 -0.0110628 0.0
-0.00112189 -0.0102778 0.0
-0.000295818 -0.00548805 0.0
0.000295818 0.00548805 0.0
0.000256582 -0.00511613 0.0
-0.000256582 0.00511613 0.0
-0.00096996 0.00961078 0.0
-0.00190641 0.0103969 0.0
-0.00283962 0.0100205 0.0
-0.00371402 0.00942853 0.0
-0.00452489 0.00883696 0.0
-0.00527679 0.0082761 0.0
-0.00597464 0.00774402 0.0
-0.00662251 0.00723563 0.0
-0.0072237 0.00674661 0.0
-0.00778087 0.00627354 0.0
-0.0082962 0.00581369 0.0
-0.00877148 0.00536485 0.0
-0.00920817 0.00492514 0.0
-0.00960749 0.00449295 0.0
-0.00997042 0.00406688 0.0
-0.0102978 0.00364564 0.0
-0.0105902 0.00322807 0.0
-0.0108482 0.00281304 0.0
-0.0110721 0.00239949 0.0
-0.0112622 0.00198638 0.0
-0.0114186 0.00157267 0.0
-0.0115412 0.00115732 0.0
-0.01163 0.000739254 0.0
-0.0116847 0.000317364 0.0
-0.011705 -0.000109508 0.0
-0.0116903 -0.000542588 0.0
-0.01164 -0.000983183 0.0
-0.0115534 -0.0014327 0.0
-0.0114293 -0.00189267 0.0
-0.0112666 -0.00236477 0.0
-0.0110639 -0.00285084 0.0
-0.0108196 -0.0033529 0.0
-0.0105315 -0.00387324 0.0
-0.0101975 -0.00441435 0.0
-0.00981469 -0.00497905 0.0
-0.00937999 -0.00557044 0.0
-0.00888966 -0.00619196 0.0
-0.00833939 -0.00684731 0.0
-0.00772422 -0.00754048 0.0
-0.00703844 -0.00827555 0.0
-0.0062756 -0.0090564 0.0
-0.00542851 -0.00988553 0.0
-0.00448964 -0.0107575 0.0
-0.00345338 -0.0116215 0.0
-0.00232811 -0.0122012 0.0
-0.00118718 -0.0113666 0.0
-0.000314298 -0.00609817 0.0
0.000314298 0.00609817 0.0
0.00027176 -0.00564447 0.0
-0.00027176 0.00564447 0.0
-0.00102224 0.0105463 0.0
-0.00200045 0.0113761 0.0
-0.00297036 0.0109444 0.0
-0.00387592 0.0102845 0.0
-0.00471336 0.00962928 0.0
-0.00548809 0.00901042 0.0
-0.0062057 0.00842516 0.0
-0.0068708 0.00786746 0.0
-0.00748711 0.00733227 0.0
-0.00805763 0.00681557 0.0
-0.00858482 0.00631419 0.0
-0.00907071 0.00582552 0.0
-0.00951693 0.00534739 0.0
-0.00992487 0.00487796 0.0
-0.0102956 0.00441558 0.0
-0.0106301 0.00395882 0.0
-0.0109291 0.00350631 0.0
-0.0111932 0.00305682 0.0
-0.0114227 0.00260913 0.0
-0.0116179 0.00216208 0.0
-0.0117791 0.0017145 0.0
-0.0119062 0.00126523 0.0
-0.0119991 0.000813071 0.0
-0.0120576 0.000356785 0.0
-0.0120814 -0.000104922 0.0
-0.0120698 -0.000573422 0.0
-0.0120222 -0.00105018 0.0
-0.0119378 -0.00153679 0.0
-0.0118155 -0.00203498 0.0
-0.011654 -0.00254664 0.0
-0.0114518 -0.00307387 0.0
-0.011207 -0.00361901 0.0
-0.0109175 -0.00418466 0.0
-0.0105808 -0.00477373 0.0
-0.0101938 -0.00538948 0.0
-0.00975292 -0.00603555 0.0
-0.00925415 -0.00671595 0.0
-0.00869264 -0.00743509 0.0
-0.00806282 -0.00819769 0.0
-0.00735831 -0.00900863 0.0
-0.00657182 -0.00987264 0.0
-0.00569523 -0.010793 0.0
-0.00471999 -0.0117642 0.0
-0.0036394 -0.0127317 0.0
-0.00246105 -0.0133946 0.0
-0.00126011 -0.012515 0.0
-0.000335144 -0.00674761 0.0
0.000335144 0.00674761 0.0
0.000288788 -0.00620502 0.0
-0.000288788 0.00620502 0.0
-0.00108025 0.0115277 0.0
-0.00210392 0.0123966 0.0
-0.00311354 0.0119034 0.0
-0.0040528 0.0111703 0.0
-0.00491897 0.0104471 0.0
-0.0057184 0.00976675 0.0
-0.00645738 0.00912542 0.0
-0.00714112 0.00851603 0.0
-0.00777378 0.00793266 0.0
-0.00835875 0.00737066 0.0
-0.00889877 0.00682631 0.0
-0.00939612 0.00629662 0.0
-0.00985266 0.00577905 0.0
-0.0102699 0.00527149 0.0
-0.0106492 0.00477207 0.0
-0.0109914 0.00427911 0.0
-0.0112975 0.00379111 0.0
-0.0115681 0.00330665 0.0
-0.0118037 0.00282438 0.0
-0.0120046 0.00234298 0.0
-0.012171 0.00186117 0.0
-0.012303 0.00137763 0.0
-0.0124004 0.000891039 0.0
-0.0124631 0.00040002 0.0
-0.0124907 -9.68731e-05 0.0
-0.0124825 -0.000601172 0.0
-0.012438 -0.00111452 0.0
-0.0123562 -0.0016387 0.0
-0.0122359 -0.00217566 0.0
-0.0120758 -0.00272755 0.0
-0.0118742 -0.00329675 0.0
-0.0116292 -0.00388594 0.0
-0.0113383 -0.00449809 0.0
-0.0109988 -0.00513657 0.0
-0.0106073 -0.00580515 0.0
-0.01016 -0.00650806 0.0
-0.00965218 -0.00725 0.0
-0.00907858 -0.00803615 0.0
-0.00843296 -0.00887207 0.0
-0.00770817 -0.00976357 0.0
-0.00689604 -0.0107163 0.0
-0.00598745 -0.0117344 0.0
-0.00497269 -0.0128127 0.0
-0.00384391 -0.0138925 0.0
-0.00260781 -0.0146482 0.0
-0.00134125 -0.0137289 0.0
-0.000358579 -0.00744133 0.0
0.000358579 0.00744133 0.0
0.000307835 -0.00680165 0.0
-0.000307835 0.00680165 0.0
-0.00114441 0.0125591 0.0
-0.00221734 0.0134618 0.0
-0.00326976 0.0129003 0.0
-0.00424528 0.0120883 0.0
-0.00514239 0.0112925 0.0
-0.00596841 0.0105468 0.0
-0.00673043 0.00984634 0.0
-0.00743424 0.00918267 0.0
-0.00808452 0.00854896 0.0
-0.00868504 0.00793984 0.0
-0.00923888 0.00735101 0.0
-0.00974859 0.00677898 0.0
-0.0102162 0.00622088 0.0
-0.0106435 0.00567424 0.0
-0.0110319 0.00513695 0.0
-0.0113826 0.00460711 0.0
-0.0116963 0.00408301 0.0
-0.011974 0.00356305 0.0
-0.0122162 0.00304572 0.0
-0.0124232 0.00252955 0.0
-0.0125953 0.00201311 0.0
-0.0127326 0.00149494 0.0
-0.012835 0.000973564 0.0
-0.0129022 0.000447457 0.0
-0.012934 -8.49892e-05 0.0
-0.0129297 -0.000625482 0.0
-0.0128886 -0.00117586 0.0
-0.0128097 -0.00173812 0.0
-0.0126917 -0.00231445 0.0
-0.0125333 -0.00290728 0.0
-0.0123326 -0.00351931 0.0
-0.0120874 -0.00415359 0.0
-0.0117952 -0.00481353 0.0
-0.0114529 -0.00550299 0.0
-0.0110568 -0.00622633 0.0
-0.0106026 -0.00698845 0.0
-0.0100852 -0.00779481 0.0
-0.00949864 -0.00865147 0.0
-0.00883605 -0.00956495 0.0
-0.00808941 -0.0105421 0.0
-0.0072496 -0.0115897 0.0
-0.0063064 -0.0127128 0.0
-0.0052489 -0.0139066 0.0
-0.00406797 -0.0151084 0.0
-0.00276928 -0.0159672 0.0
-0.00143126 -0.0150146 0.0
-0.000384854 -0.00818477 0.0
0.000384854 0.00818477 0.0
0.000329093 -0.00743857 0.0
-0.000329093 0.00743857 0.0
-0.00121519 0.0136448 0.0
-0.0023413 0.0145751 0.0
-0.00343965 0.0139378 0.0
-0.00445406 0.0130407 0.0
-0.00538434 0.0121674 0.0
-0.00623889 0.0113525 0.0
-0.00702563 0.0105895 0.0
-0.00775099 0.00986873 0.0
-0.00842018 0.00918237 0.0
-0.0090374 0.00852417 0.0
-0.00960608 0.0078892 0.0
-0.010129 0.00727346 0.0
-0.0106086 0.00667362 0.0
-0.0110467 0.00608691 0.0
-0.0114449 0.00551088 0.0
-0.0118045 0.00494341 0.0
-0.0121266 0.00438256 0.0
-0.0124119 0.00382653 0.0
-0.0126612 0.00327364 0.0
-0.0128748 0.00272226 0.0
-0.0130531 0.00217078 0.0
-0.0131961 0.0016176 0.0
-0.0133039 0.00106107 0.0
-0.0133762 0.000499514 0.0
-0.0134126 -6.88669e-05 0.0
-0.0134126 -0.000645966 0.0
-0.0133752 -0.00123383 0.0
-0.0132996 -0.0018347 0.0
-0.0131844 -0.00245103 0.0
-0.0130279 -0.00308555 0.0
-0.0128283 -0.00374134 0.0
-0.0125832 -0.00442183 0.0
-0.0122898 -0.00513094 0.0
-0.0119446 -0.00587308 0.0
-0.0115437 -0.00665327 0.0
-0.0110823 -0.00747715 0.0
-0.0105547 -0.00835108 0.0
-0.00995438 -0.00928206 0.0
-0.00927361 -0.0102777 0.0
-0.00850351 -0.0113461 0.0
-0.00763392 -0.0124952 0.0
-0.00665344 -0.0137311 0.0
-0.00554986 -0.0150494 0.0
-0.00431269 -0.0163837 0.0
-0.00294643 -0.0173568 0.0
-0.00153087 -0.0163785 0.0
-0.000414256 -0.00898388 0.0
0.000414256 0.00898388 0.0
0.000352778 -0.00812044 0.0
-0.000352778 0.00812044 0.0
-0.00129312 0.0147894 0.0
-0.00247645 0.01574 0.0
-0.00362391 0.0150187 0.0
-0.00467986 0.0140301 0.0
-0.0056456 0.013074 0.0
-0.00653066 0.0121855 0.0
-0.00734383 0.0113564 0.0
-0.00809226 0.0105756 0.0
-0.00878168 0.00983411 0.0
-0.00941678 0.00912475 0.0
-0.0100013 0.00844188 0.0
-0.0105385 0.00778092 0.0
-0.0110309 0.00713809 0.0
-0.0114805 0.0065102 0.0
-0.0118893 0.00589452 0.0
-0.0122585 0.00528862 0.0
-0.0125894 0.00469033 0.0
-0.012883 0.00409764 0.0
-0.0131399 0.00350867 0.0
-0.0133606 0.00292161 0.0
-0.0135456 0.00233467 0.0
-0.0136949 0.00174608 0.0
-0.0138086 0.00115403 0.0
-0.0138864 0.000556637 0.0
-0.0139279 -4.80712e-05 0.0
-0.0139325 -0.000662203 0.0
-0.0138994 -0.00128804 0.0
-0.0138274 -0.00192807 0.0
-0.0137153 -0.00258506 0.0
-0.0135612 -0.00326208 0.0
-0.013363 -0.00396259 0.0
-0.0131181 -0.00469051 0.0
-0.0128236 -0.00545026 0.0
-0.0124756 -0.00624692 0.0
-0.0120697 -0.00708621 0.0
-0.0116008 -0.00797463 0.0
-0.0110624 -0.0089195 0.0
-0.0104474 -0.00992894 0.0
-0.00974727 -0.0110118 0.0
-0.00895205 -0.0121774 0.0
-0.0080505 -0.013435 0.0
-0.00702998 -0.0147922 0.0
-0.0058769 -0.0162449 0.0
-0.00457928 -0.0177229 0.0
-0.00314033 -0.0188228 0.0
-0.0016409 -0.0178275 0.0
-0.000447109 -0.00984524 0.0
0.000447109 0.00984524 0.0
0.000379136 -0.00885236 0.0
-0.000379136 0.00885236 0.0
-0.00137878 0.0159975 0.0
-0.00262348 0.0169599 0.0
-0.00382329 0.0161461 0.0
-0.00492347 0.0150589 0.0
-0.00592698 0.0140144 0.0
-0.00684457 0.0130477 0.0
-0.00768595 0.0121487 0.0
-0.00845899 0.0113047 0.0
-0.00917002 0.0105054 0.0
-0.0098242 0.00974269 0.0
-0.0104257 0.00901003 0.0
-0.0109781 0.00830227 0.0
-0.0114841 0.00761509 0.0
-0.0119461 0.00694489 0.0
-0.0123661 0.00628856 0.0
-0.0127456 0.00564339 0.0
-0.0130861 0.00500694 0.0
-0.0133884 0.00437696 0.0
-0.0136536 0.00375136 0.0
-0.013882 0.00312812 0.0
-0.0140742 0.00250529 0.0
-0.0142303 0.00188089 0.0
-0.0143503 0.00125292 0.0
-0.0144341 0.000619306 0.0
-0.0144812 -2.21322e-05 0.0
-0.014491 -0.000673735 0.0
-0.0144626 -0.00133803 0.0
-0.0143948 -0.00201781 0.0
-0.0142861 -0.00271615 0.0
-0.0141347 -0.00343651 0.0
-0.0139382 -0.00418279 0.0
-0.0136939 -0.00495941 0.0
-0.0133984 -0.00577141 0.0
-0.0130476 -0.00662454 0.0
-0.0126367 -0.00752537 0.0
-0.0121598 -0.00848133 0.0
-0.0116102 -0.00950081 0.0
-0.0109796 -0.0105932 0.0
-0.0102588 -0.0117686 0.0
-0.00943671 -0.0130378 0.0
-0.00850096 -0.0144118 0.0
-0.00743755 -0.0158994 0.0
-0.00623143 -0.017497 0.0
-0.00486905 -0.0191308 0.0
-0.00335214 -0.0203707 0.0
-0.00176225 -0.0193689 0.0
-0.000483781 -0.0107761 0.0
0.000483781 0.0107761 0.0
0.000408442 -0.00963994 0.0
-0.000408442 0.00963994 0.0
-0.00147281 0.0172739 0.0
-0.00278316 0.0182385 0.0
-0.00403857 0.0173227 0.0
-0.00518572 0.0161296 0.0
-0.00622937 0.0149909 0.0
-0.00718156 0.013941 0.0
-0.00805295 0.0129681 0.0
-0.0088522 0.0120576 0.0
-0.00958625 0.0111977 0.0
-0.0102608 0.0103792 0.0
-0.0108804 0.00959471 0.0
-0.0114489 0.00883844 0.0
-0.0119695 0.00810547 0.0
-0.0124447 0.00739173 0.0
-0.0128767 0.00669372 0.0
-0.0132673 0.00600838 0.0
-0.0136179 0.005333 0.0
-0.0139297 0.00466507 0.0
-0.0142036 0.00400227 0.0
-0.0144403 0.00334236 0.0
-0.0146403 0.00268318 0.0
-0.0148037 0.00202255 0.0
-0.0149307 0.00135826 0.0
-0.015021 0.000688038 0.0
-0.0150742 9.45733e-06 0.0
-0.0150897 -0.000680065 0.0
-0.0150664 -0.00138334 0.0
-0.0150033 -0.00210347 0.0
-0.0148986 -0.00284389 0.0
-0.0147503 -0.00360848 0.0
-0.0145559 -0.00440163 0.0
-0.0143124 -0.00522832 0.0
-0.0140162 -0.00609427 0.0
-0.0136627 -0.007006 0.0
-0.0132465 -0.00797097 0.0
-0.0127614 -0.00899769 0.0
-0.0121998 -0.0100957 0.0
-0.0115528 -0.0112758 0.0
-0.0108099 -0.0125496 0.0
-0.00995926 -0.0139296 0.0
-0.008987 -0.0154281 0.0
-0.00787776 -0.0170557 0.0
-0.00661495 -0.0188096 0.0
-0.00518337 -0.0206122 0.0
-0.0035831 -0.0220065 0.0
-0.00189592 -0.0210101 0.0
-0.000524687 -0.0117846 0.0
0.000524687 0.0117846 0.0
0.000441011 -0.0104894 0.0
-0.000441011 0.0104894 0.0
-0.00157593 0.0186237 0.0
-0.0029563 0.0195794 0.0
-0.00427062 0.0185515 0.0
-0.0054675 0.0172448 0.0
-0.00655369 0.0160055 0.0
-0.00754259 0.0148675 0.0
-0.00844586 0.0138164 0.0
-0.00927296 0.0128357 0.0
-0.0100315 0.0119122 0.0
-0.0107277 0.0110354 0.0
-0.0113665 0.010197 0.0
-0.0119523 0.00939041 0.0
-0.0124883 0.00861012 0.0
-0.0129776 0.00785154 0.0
-0.0134224 0.00711073 0.0
-0.0138248 0.0063843 0.0
-0.0141862 0.00566918 0.0
-0.0145082 0.00496262 0.0
-0.0147915 0.00426201 0.0
-0.0150371 0.00356491 0.0
-0.0152454 0.00286891 0.0
-0.0154168 0.00217163 0.0
-0.0155513 0.00147063 0.0
-0.0156487 0.000763387 0.0
-0.0157086 4.72455e-05 0.0
-0.0157303 -0.000680657 0.0
-0.0157129 -0.00142344 0.0
-0.0156549 -0.00218454 0.0
-0.0155546 -0.00296781 0.0
-0.0154099 -0.00377757 0.0
-0.015218 -0.00461876 0.0
-0.0149757 -0.00549698 0.0
-0.0146789 -0.0064187 0.0
-0.0143227 -0.00739129 0.0
-0.0139013 -0.00842323 0.0
-0.0134076 -0.00952417 0.0
-0.0128335 -0.010705 0.0
-0.012169 -0.011978 0.0
-0.0114028 -0.0133565 0.0
-0.0105216 -0.0148546 0.0
-0.00951042 -0.0164866 0.0
-0.00835231 -0.0182646 0.0
-0.00702906 -0.0201867 0.0
-0.00552374 -0.0221719 0.0
-0.00383457 -0.0237363 0.0
-0.00204303 -0.0227591 0.0
-0.000570294 -0.0128796 0.0
0.000570294 0.0128796 0.0
0.000477193 -0.0114076 0.0
-0.000477193 0.0114076 0.0
-0.00168892 0.0200522 0.0
-0.00314381 0.0209862 0.0
-0.00452036 0.0198355 0.0
-0.00576975 0.0184071 0.0
-0.00690093 0.0170607 0.0
-0.00792869 0.015829 0.0
-0.00886576 0.0146952 0.0
-0.00972241 0.0136406 0.0
-0.0105069 0.0126503 0.0
-0.0112261 0.0117125 0.0
-0.0118854 0.010818 0.0
-0.0124895 0.00995919 0.0
-0.013042 0.00912997 0.0
-0.0135463 0.00832517 0.0
-0.0140048 0.00754041 0.0
-0.0144197 0.00677188 0.0
-0.0147928 0.00601619 0.0
-0.0151255 0.00527026 0.0
-0.015419 0.00453123 0.0
-0.0156741 0.0037964 0.0
-0.0158915 0.00306311 0.0
-0.0160714 0.00232874 0.0
-0.016214 0.00159061 0.0
-0.0163192 0.000845951 0.0
-0.0163864 9.18238e-05 0.0
-0.016415 -0.000674929 0.0
-0.0164038 -0.00145776 0.0
-0.0163516 -0.00226049 0.0
-0.0162563 -0.00308739 0.0
-0.0161157 -0.00394332 0.0
-0.0159268 -0.00483379 0.0
-0.0156859 -0.00576511 0.0
-0.0153888 -0.00674454 0.0
-0.01503 -0.00778043 0.0
-0.0146032 -0.00888235 0.0
-0.0141006 -0.0100613 0.0
-0.0135132 -0.0113295 0.0
-0.0128303 -0.012701 0.0
-0.0120393 -0.0141907 0.0
-0.0111257 -0.015815 0.0
-0.0100731 -0.0175899 0.0
-0.008863 -0.0195295 0.0
-0.00747545 -0.0216327 0.0
-0.00589173 -0.0238151 0.0
-0.00410802 -0.025566 0.0
-0.00220481 -0.0246241 0.0
-0.000621131 -0.014071 0.0
0.000621131 0.014071 0.0
0.000517387 -0.0124022 0.0
-0.000517387 0.0124022 0.0
-0.00181269 0.0215646 0.0
-0.00334667 0.0224626 0.0
-0.00478878 0.0211778 0.0
-0.0060935 0.019619 0.0
-0.00727214 0.0181586 0.0
-0.00834097 0.0168277 0.0
-0.0093138 0.0156064 0.0
-0.0102018 0.014474 0.0
-0.0110139 0.0134136 0.0
-0.0117574 0.012412 0.0
-0.0124385 0.0114589 0.0
-0.013062 0.0105459 0.0
-0.0136321 0.00966599 0.0
-0.0141523 0.00881352 0.0
-0.0146253 0.00798358 0.0
-0.0150536 0.00717191 0.0
-0.0154391 0.00637475 0.0
-0.0157834 0.00558871 0.0
-0.0160878 0.00481062 0.0
-0.0163531 0.0040375 0.0
-0.0165802 0.00326643 0.0
-0.0167694 0.00249453 0.0
-0.0169208 0.00171886 0.0
-0.0170343 0.000936374 0.0
-0.0171095 0.00014383 0.0
-0.0171456 -0.000662251 0.0
-0.0171415 -0.00148569 0.0
-0.0170956 -0.00233072 0.0
-0.0170059 -0.0032021 0.0
-0.0168699 -0.00410524 0.0
-0.0166844 -0.00504631 0.0
-0.0164454 -0.00603239 0.0
-0.0161482 -0.00707162 0.0
-0.0157869 -0.00817342 0.0
-0.0153545 -0.00934858 0.0
-0.0148427 -0.0106094 0.0
-0.0142414 -0.01197 0.0
-0.013539 -0.0134458 0.0
-0.0127217 -0.0150541 0.0
-0.0117737 -0.0168131 0.0
-0.0106771 -0.0187411 0.0
-0.0094117 -0.0208539 0.0
-0.0079559 -0.0231516 0.0
-0.00628904 -0.0255467 0.0
-0.00440504 -0.0275021 0.0
-0.00238261 -0.0266137 0.0
-0.000677793 -0.0153699 0.0
0.000677793 0.0153699 0.0
0.000562042 -0.0134816 0.0
-0.000562042 0.0134816 0.0
-0.0019482 0.0231667 0.0
-0.00356594 0.0240123 0.0
-0.00507695 0.0225812 0.0
-0.00643983 0.0208831 0.0
-0.00766844 0.0193017 0.0
-0.00878059 0.0178655 0.0
-0.00979119 0.016552 0.0
-0.0107123 0.0153375 0.0
-0.0115536 0.0142034 0.0
-0.012323 0.0131351 0.0
-0.0130272 0.012121 0.0
-0.0136714 0.0111516 0.0
-0.0142602 0.0102192 0.0
-0.0147973 0.00931756 0.0
-0.0152858 0.00844113 0.0
-0.0157284 0.00758522 0.0
-0.0161271 0.00674568 0.0
-0.0164838 0.00591873 0.0
-0.0167998 0.00510092 0.0
-0.0170761 0.00428893 0.0
-0.0173137 0.00347959 0.0
-0.0175128 0.00266971 0.0
-0.0176738 0.00185609 0.0
-0.0177964 0.00103535 0.0
-0.0178803 0.000203953 0.0
-0.0179247 -0.000641948 0.0
-0.0179282 -0.00150657 0.0
-0.0178893 -0.00239461 0.0
-0.0178059 -0.00331135 0.0
-0.0176751 -0.00426281 0.0
-0.0174934 -0.00525589 0.0
-0.0172567 -0.00629849 0.0
-0.0169597 -0.00739978 0.0
-0.016596 -0.00857029 0.0
-0.0161579 -0.00982215 0.0
-0.0156364 -0.0111693 0.0
-0.0150205 -0.0126273 0.0
-0.0142974 -0.014214 0.0
-0.0134522 -0.0159485 0.0
-0.0124677 -0.0178512 0.0
-0.0113244 -0.0199429 0.0
-0.0100004 -0.0222414 0.0
-0.0084723 -0.024748 0.0
-0.00671745 -0.027372 0.0
-0.00472735 -0.0295509 0.0
-0.00257794 -0.0287368 0.0
-0.00074095 -0.0167887 0.0
0.00074095 0.0167887 0.0
0.000611666 -0.0146553 0.0
-0.000611666 0.0146553 0.0
-0.00209656 0.024864 0.0
-0.00380278 0.0256389 0.0
-0.00538601 0.0240488 0.0
-0.00680987 0.0222023 0.0
-0.008091 0.0204923 0.0
-0.00924877 0.0189448 0.0
-0.0102992 0.0175337 0.0
-0.0112553 0.0162329 0.0
-0.0121275 0.0150215 0.0
-0.0129244 0.0138834 0.0
-0.0136531 0.0128055 0.0
-0.0143193 0.0117775 0.0
-0.0149279 0.0107908 0.0
-0.0154831 0.00983829 0.0
-0.0159881 0.00891401 0.0
-0.0164459 0.00801271 0.0
-0.0168588 0.00712981 0.0
-0.0172287 0.00626115 0.0
-0.0175571 0.00540291 0.0
-0.0178453 0.00455147 0.0
-0.0180941 0.00370334 0.0
-0.018304 0.00285504 0.0
-0.0184753 0.00200303 0.0
-0.0186079 0.00114363 0.0
-0.0187012 0.000272931 0.0
-0.0187545 -0.000613292 0.0
-0.0187665 -0.0015197 0.0
-0.0187354 -0.00245148 0.0
-0.0186588 -0.00341451 0.0
-0.0185338 -0.00441548 0.0
-0.0183566 -0.00546206 0.0
-0.0181225 -0.0065631 0.0
-0.0178259 -0.00772882 0.0
-0.0174599 -0.00897104 0.0
-0.017016 -0.0103033 0.0
-0.0164843 -0.0117413 0.0
-0.0158529 -0.0133026 0.0
-0.015108 -0.0150068 0.0
-0.0142333 -0.0168756 0.0
-0.0132101 -0.0189318 0.0
-0.0120172 -0.0211985 0.0
-0.0106312 -0.0236958 0.0
-0.00902661 -0.0264263 0.0
-0.00717888 -0.0292963 0.0
-0.00507678 -0.0317188 0.0
-0.00279248 -0.0310026 0.0
-0.000811361 -0.018341 0.0
0.000811361 0.018341 0.0
0.000666835 -0.0159338 0.0
-0.000666835 0.0159338 0.0
-0.00225897 0.0266626 0.0
-0.00405845 0.0273461 0.0
-0.0057172 0.0255836 0.0
-0.00720489 0.023579 0.0
-0.0085411 0.0217329 0.0
-0.00974683 0.0200677 0.0
-0.0108393 0.0185538 0.0
-0.0118323 0.017162 0.0
-0.0127373 0.0158695 0.0
-0.0135632 0.0146582 0.0
-0.0143178 0.0135139 0.0
-0.0150074 0.0124249 0.0
-0.0156371 0.0113818 0.0
-0.0162115 0.0103768 0.0
-0.0167342 0.00940324 0.0
-0.0172083 0.00845535 0.0
-0.0176363 0.00752807 0.0
-0.0180203 0.00661683 0.0
-0.0183621 0.00571746 0.0
-0.018663 0.00482596 0.0
-0.0189239 0.00393853 0.0
-0.0191455 0.00305133 0.0
-0.0193279 0.0021605 0.0
-0.0194712 0.00126201 0.0
-0.0195749 0.000351561 0.0
-0.019638 -0.000575502 0.0
-0.0196592 -0.00152431 0.0
-0.0196365 -0.00250062 0.0
-0.0195676 -0.00351092 0.0
-0.019449 -0.00456265 0.0
-0.0192768 -0.00566433 0.0
-0.0190458 -0.00682585 0.0
-0.0187499 -0.00805859 0.0
-0.0183815 -0.00937574 0.0
-0.0179315 -0.0107925 0.0
-0.0173892 -0.0123262 0.0
-0.0167415 -0.0139966 0.0
-0.0159735 -0.0158257 0.0
-0.0150674 -0.0178374 0.0
-0.0140032 -0.0200574 0.0
-0.0127579 -0.0225111 0.0
-0.0113062 -0.025221 0.0
-0.00962093 -0.028191 0.0
-0.00767536 -0.0313249 0.0
-0.00545535 -0.0340123 0.0
-0.00302807 -0.0334206 0.0
-0.000889876 -0.0200422 0.0
0.000889876 0.0200422 0.0
0.000728199 -0.0173288 0.0
-0.000728199 0.0173288 0.0
-0.00243681 0.0285683 0.0
-0.00433435 0.0291374 0.0
-0.00607187 0.0271886 0.0
-0.0076262 0.0250161 0.0
-0.00902008 0.0230259 0.0
-0.0102762 0.0212365 0.0
-0.0114128 0.0196141 0.0
-0.0124449 0.0181268 0.0
-0.0133843 0.0167491 0.0
-0.0142411 0.0154613 0.0
-0.0150232 0.0142475 0.0
-0.0157376 0.0130951 0.0
-0.0163898 0.0119936 0.0
-0.0169847 0.0109343 0.0
-0.0175262 0.00990993 0.0
-0.0180176 0.00891418 0.0
-0.0184618 0.00794145 0.0
-0.0188611 0.00698676 0.0
-0.0192172 0.00604549 0.0
-0.0195318 0.00511332 0.0
-0.0198057 0.00418603 0.0
-0.0200398 0.00325947 0.0
-0.0202344 0.00232939 0.0
-0.0203893 0.00139137 0.0
-0.0205042 0.000440697 0.0
-0.0205779 -0.000527746 0.0
-0.0206092 -0.00151962 0.0
-0.0205959 -0.00254127 0.0
-0.0205352 -0.00359989 0.0
-0.0204238 -0.00470372 0.0
-0.020257 -0.00586224 0.0
-0.0200295 -0.00708641 0.0
-0.0197345 -0.00838893 0.0
-0.0193638 -0.00978447 0.0
-0.0189076 -0.01129 0.0
-0.018354 -0.0129247 0.0
-0.0176891 -0.0147107 0.0
-0.0168965 -0.0166723 0.0
-0.0159572 -0.0188362 0.0
-0.0148495 -0.0212306 0.0
-0.0135487 -0.0238839 0.0
-0.0120277 -0.0268208 0.0
-0.0102574 -0.0300467 0.0
-0.00820904 -0.0334632 0.0
-0.00586521 -0.0364379 0.0
-0.00328674 -0.0360008 0.0
-0.000977455 -0.0219096 0.0
0.000977455 0.0219096 0.0
0.000796499 -0.0188535 0.0
-0.000796499 0.0188535 0.0
-0.00263158 0.0305873 0.0
-0.004632 0.0310164 0.0
-0.00645148 0.0288666 0.0
-0.00807524 0.0265161 0.0
-0.00952939 0.0243739 0.0
-0.0108382 0.0224535 0.0
-0.0120213 0.0207169 0.0
-0.0130945 0.0191291 0.0
-0.0140704 0.0176622 0.0
-0.0149598 0.0162943 0.0
-0.0157712 0.0150081 0.0
-0.0165119 0.0137896 0.0
-0.0171881 0.0126274 0.0
-0.0178048 0.011512 0.0
-0.0183664 0.0104353 0.0
-0.0188764 0.00939033 0.0
-0.019338 0.00837105 0.0
-0.0197535 0.00737196 0.0
-0.0201251 0.00638804 0.0
-0.0204543 0.00541453 0.0
-0.0207424 0.00444684 0.0
-0.0209901 0.00348042 0.0
-0.0211977 0.00251064 0.0
-0.0213653 0.00153264 0.0
-0.0214922 0.000541254 0.0
-0.0215776 -0.000469135 0.0
-0.0216198 -0.00150477 0.0
-0.0216167 -0.00257264 0.0
-0.0215651 -0.0036807 0.0
-0.0214614 -0.00483808 0.0
-0.0213007 -0.00605529 0.0
-0.0210771 -0.00734448 0.0
-0.0207832 -0.00871975 0.0
-0.0204102 -0.0101974 0.0
-0.0199473 -0.0117962 0.0
-0.0193818 -0.0135376 0.0
-0.0186985 -0.0154459 0.0
-0.0178799 -0.0175482 0.0
-0.0169053 -0.019874 0.0
-0.0157515 -0.0224543 0.0
-0.0143921 -0.0253204 0.0
-0.0127981 -0.0284993 0.0
-0.0109384 -0.0319981 0.0
-0.00878221 -0.0357164 0.0
-0.00630869 -0.039002 0.0
-0.00357077 -0.038753 0.0
-0.00107518 -0.0239622 0.0
0.00107518 0.0239622 0.0
0.000872573 -0.0205226 0.0
-0.000872573 0.0205226 0.0
-0.002845 0.0327257 0.0
-0.00495307 0.0329864 0.0
-0.00685761 0.0306206 0.0
-0.00855356 0.0280819 0.0
-0.0100706 0.0257793 0.0
-0.0114347 0.023721 0.0
-0.0126665 0.0218645 0.0
-0.0137829 0.0201712 0.0
-0.0147975 0.0186107 0.0
-0.0157213 0.017159 0.0
-0.0165637 0.0157972 0.0
-0.0173325 0.01451 0.0
-0.0180342 0.0132849 0.0
-0.0186742 0.0121113 0.0
-0.0192573 0.0109806 0.0
-0.0197872 0.00988505 0.0
-0.0202674 0.00881805 0.0
-0.0207005 0.0077736 0.0
-0.0210887 0.0067462 0.0
-0.0214338 0.00573067 0.0
-0.021737 0.00472201 0.0
-0.0219993 0.00371523 0.0
-0.0222211 0.00270527 0.0
-0.0224024 0.00168682 0.0
-0.0225425 0.00065421 0.0
-0.0226405 -0.000398729 0.0
-0.0226946 -0.00147886 0.0
-0.0227024 -0.0025939 0.0
-0.0226608 -0.00375262 0.0
-0.0225656 -0.00496512 0.0
-0.0224115 -0.00624301 0.0
-0.0221921 -0.00759976 0.0
-0.0218995 -0.00905098 0.0
-0.021524 -0.0106147 0.0
-0.021054 -0.0123117 0.0
-0.0204758 -0.0141658 0.0
-0.019773 -0.0162038 0.0
-0.0189266 -0.0184554 0.0
-0.0179147 -0.0209533 0.0
-0.0167121 -0.0237314 0.0
-0.0152908 -0.026824 0.0
-0.0136199 -0.0302607 0.0
-0.0116664 -0.0340499 0.0
-0.00939731 -0.0380899 0.0
-0.00678831 -0.0417111 0.0
-0.00388266 -0.0416876 0.0
-0.00118426 -0.0262216 0.0
0.00118426 0.0262216 0.0
0.000957378 -0.0223526 0.0
-0.000957378 0.0223526 0.0
-0.00307898 0.0349898 0.0
-0.0052994 0.0350508 0.0
-0.00729199 0.0324533 0.0
-0.00906285 0.0297159 0.0
-0.0106453 0.0272447 0.0
-0.0120671 0.0250414 0.0
-0.0133502 0.0230589 0.0
-0.0145121 0.021255 0.0
-0.0155673 0.0195965 0.0
-0.0165276 0.0180573 0.0
-0.017403 0.0166167 0.0
-0.0182016 0.015258 0.0
-0.0189305 0.0139675 0.0
-0.0195955 0.0127338 0.0
-0.0202015 0.0115473 0.0
-0.0207529 0.0103997 0.0
-0.0212531 0.00928374 0.0
-0.021705 0.00819291 0.0
-0.0221111 0.00712119 0.0
-0.0224733 0.00606294 0.0
-0.022793 0.0050127 0.0
-0.0230712 0.00396503 0.0
-0.0233083 0.00291439 0.0
-0.0235043 0.00185499 0.0
-0.0236588 0.000780608 0.0
-0.0237704 -0.00031553 0.0
-0.0238374 -0.00144097 0.0
-0.0238571 -0.0026042 0.0
-0.0238262 -0.00381491 0.0
-0.0237401 -0.00508421 0.0
-0.0235931 -0.00642496 0.0
-0.0233783 -0.00785202 0.0
-0.023087 -0.00938264 0.0
-0.0227088 -0.0110367 0.0
-0.0222312 -0.0128373 0.0
-0.0216393 -0.0148104 0.0
-0.0209157 -0.0169856 0.0
-0.0200398 -0.0193958 0.0
-0.0189881 -0.0220765 0.0
-0.0177339 -0.025065 0.0
-0.0162473 -0.0283984 0.0
-0.0144955 -0.032109 0.0
-0.0124438 -0.0362068 0.0
-0.010057 -0.0405889 0.0
-0.0073068 -0.0445712 0.0
-0.00422517 -0.0448147 0.0
-0.00130608 -0.028712 0.0
0.00130608 0.028712 0.0
0.001052 -0.0243619 0.0
-0.001052 0.0243619 0.0
-0.00333567 0.0373857 0.0
-0.00567304 0.0372127 0.0
-0.00775656 0.0343675 0.0
-0.00960496 0.031421 0.0
-0.0112555 0.0287727 0.0
-0.0127375 0.0264173 0.0
-0.0140742 0.0243027 0.0
-0.0152839 0.0223829 0.0
-0.0163821 0.0206219 0.0
-0.0173811 0.0189912 0.0
-0.0182914 0.0174684 0.0
-0.0191218 0.0160353 0.0
-0.0198797 0.0146769 0.0
-0.0205713 0.0133809 0.0
-0.0212021 0.0121369 0.0
-0.0217764 0.0109357 0.0
-0.0222981 0.00976957 0.0
-0.0227704 0.00863129 0.0
-0.0231958 0.00751436 0.0
-0.0235765 0.00641264 0.0
-0.023914 0.00532018 0.0
-0.0242093 0.00423105 0.0
-0.024463 0.00313921 0.0
-0.0246751 0.00203831 0.0
-0.0248449 0.000921556 0.0
-0.0249713 -0.000218493 0.0
-0.0250522 -0.00139012 0.0
-0.0250848 -0.00260267 0.0
-0.0250654 -0.0038668 0.0
-0.024989 -0.00519477 0.0
-0.0248497 -0.00660074 0.0
-0.0246396 -0.00810109 0.0
-0.0243497 -0.00971484 0.0
-0.0239685 -0.0114639 0.0
-0.0234826 -0.0133736 0.0
-0.022876 -0.0154725 0.0
-0.02213 -0.0177932 0.0
-0.0212226 -0.0203715 0.0
-0.0201287 -0.0232463 0.0
-0.0188199 -0.0264581 0.0
-0.0172644 -0.0300473 0.0
-0.0154278 -0.0340485 0.0
-0.0132734 -0.0384735 0.0
-0.0107639 -0.0432185 0.0
-0.00786711 -0.0475885 0.0
-0.00460138 -0.0481448 0.0
-0.00144217 -0.0314602 0.0
0.00144217 0.0314602 0.0
0.0011577 -0.0265716 0.0
-0.0011577 0.0265716 0.0
-0.00361751 0.0399195 0.0
-0.00607627 0.0394751 0.0
-0.0082534 0.0363658 0.0
-0.0101819 0.0331996 0.0
-0.0119031 0.0303657 0.0
-0.0134479 0.0278511 0.0
-0.0148406 0.0255982 0.0
-0.0161006 0.0235573 0.0
-0.017244 0.0216891 0.0
-0.0182839 0.019963 0.0
-0.0192313 0.0183545 0.0
-0.0200956 0.0168439 0.0
-0.0208845 0.0154151 0.0
-0.0216047 0.0140547 0.0
-0.022262 0.0127512 0.0
-0.022861 0.0114948 0.0
-0.023406 0.0102771 0.0
-0.0239002 0.00909025 0.0
-0.0243465 0.00792717 0.0
-0.0247472 0.00678119 0.0
-0.025104 0.00564583 0.0
-0.0254179 0.00451463 0.0
-0.0256895 0.00338101 0.0
-0.025919 0.00223802 0.0
-0.0261055 0.00107823 0.0
-0.0262478 -0.000106522 0.0
-0.0263436 -0.00132532 0.0
-0.0263901 -0.00258844 0.0
-0.0263829 -0.00390759 0.0
-0.026317 -0.00529626 0.0
-0.0261856 -0.00677002 0.0
-0.0259805 -0.00834691 0.0
-0.0256917 -0.0100478 0.0
-0.0253071 -0.0118968 0.0
-0.0248121 -0.0139216 0.0
-0.0241896 -0.0161536 0.0
-0.0234195 -0.0186283 0.0
-0.0224784 -0.0213849 0.0
-0.0213396 -0.0244656 0.0
-0.019973 -0.0279143 0.0
-0.0183451 -0.0317745 0.0
-0.0164195 -0.0360835 0.0
-0.0141579 -0.0408546 0.0
-0.0115211 -0.0459837 0.0
-0.0084724 -0.0507687 0.0
-0.00501469 -0.051688 0.0
-0.00159426 -0.0344967 0.0
0.00159426 0.0344967 0.0
0.00127588 -0.0290052 0.0
-0.00127588 0.0290052 0.0
-0.00392724 0.0425971 0.0
-0.0065116 0.0418406 0.0
-0.00878488 0.0384507 0.0
-0.010796 0.0350543 0.0
-0.0125902 0.0320264 0.0
-0.0142003 0.0293453 0.0
-0.0156516 0.026948 0.0
-0.0169644 0.0247804 0.0
-0.0181555 0.0228004 0.0
-0.0192387 0.0209747 0.0
-0.0202256 0.019277 0.0
-0.0211259 0.017686 0.0
-0.021948 0.0161841 0.0
-0.0226989 0.0147568 0.0
-0.0233847 0.013392 0.0
-0.0240104 0.0120788 0.0
-0.0245804 0.0108081 0.0
-0.0250984 0.00957149 0.0
-0.0255674 0.00836126 0.0
-0.0259897 0.00717017 0.0
-0.0263673 0.00599117 0.0
-0.0267014 0.00481724 0.0
-0.0269925 0.00364119 0.0
-0.0272407 0.00245544 0.0
-0.0274452 0.00125186 0.0
-0.0276046 2.15221e-05 0.0
-0.0277165 -0.00124555 0.0
-0.0277777 -0.00256063 0.0
-0.0277836 -0.00393657 0.0
-0.0277287 -0.00538819 0.0
-0.0276056 -0.00693257 0.0
-0.0274055 -0.0085895 0.0
-0.0271177 -0.0103819 0.0
-0.0267289 -0.0123361 0.0
-0.0262238 -0.0144824 0.0
-0.0255839 -0.0168552 0.0
-0.0247877 -0.019493 0.0
-0.0238106 -0.0224385 0.0
-0.0226241 -0.0257373 0.0
-0.0211964 -0.0294369 0.0
-0.0194922 -0.0335839 0.0
-0.0174737 -0.0382182 0.0
-0.0151005 -0.0433546 0.0
-0.0123317 -0.0488894 0.0
-0.00912614 -0.0541173 0.0
-0.00546885 -0.0554544 0.0
-0.00176429 -0.0378552 0.0
0.00176429 0.0378552 0.0
0.00140819 -0.0316893 0.0
-0.00140819 0.0316893 0.0
-0.00426799 0.0454242 0.0
-0.00698188 0.0443117 0.0
-0.0093536 0.0406246 0.0
-0.0114496 0.0369875 0.0
-0.0133194 0.0337573 0.0
-0.0149973 0.0309025 0.0
-0.0165098 0.0283545 0.0
-0.0178779 0.0260549 0.0
-0.0191193 0.0239583 0.0
-0.0202483 0.022029 0.0
-0.021277 0.0202384 0.0
-0.0222159 0.0185637 0.0
-0.0230735 0.016986 0.0
-0.0238573 0.0154897 0.0
-0.0245738 0.0140613 0.0
-0.0252283 0.0126896 0.0
-0.0258254 0.0113645 0.0
-0.0263692 0.0100769 0.0
-0.0268627 0.00881841 0.0
-0.0273086 0.00758129 0.0
-0.0277088 0.00635785 0.0
-0.0280647 0.00514045 0.0
-0.0283769 0.00392125 0.0
-0.0286453 0.00269199 0.0
-0.0288692 0.00144377 0.0
-0.029047 0.000166816 0.0
-0.0291761 -0.00114979 0.0
-0.029253 -0.00251839 0.0
-0.0292727 -0.0039531 0.0
-0.0292292 -0.00547014 0.0
-0.0291147 -0.00708824 0.0
-0.0289195 -0.00882905 0.0
-0.0286321 -0.0107176 0.0
-0.0282384 -0.0127827 0.0
-0.0277219 -0.0150574 0.0
-0.0270629 -0.0175791 0.0
-0.0262386 -0.0203896 0.0
-0.0252228 -0.023535 0.0
-0.0239855 -0.0270646 0.0
-0.0224932 -0.0310296 0.0
-0.020709 -0.0354795 0.0
-0.0185933 -0.040457 0.0
-0.0161043 -0.045978 0.0
-0.0131991 -0.05194 0.0
-0.00983204 -0.0576393 0.0
-0.00596801 -0.0594538 0.0
-0.00195446 -0.041574 0.0
0.00195446 0.041574 0.0
0.00155651 -0.034654 0.0
-0.00155651 0.034654 0.0
-0.00464331 0.048406 0.0
-0.00749028 0.0468907 0.0
-0.00996251 0.0428895 0.0
-0.0121456 0.0390016 0.0
-0.0140934 0.0355607 0.0
-0.0158416 0.0325253 0.0
-0.0174178 0.0298203 0.0
-0.0188439 0.0273833 0.0
-0.0201382 0.0251654 0.0
-0.0213156 0.0231282 0.0
-0.0223889 0.0212412 0.0
-0.0233688 0.0194797 0.0
-0.0242645 0.0178234 0.0
-0.0250837 0.0162554 0.0
-0.0258333 0.0147616 0.0
-0.0265189 0.0133295 0.0
-0.0271455 0.0119484 0.0
-0.0277172 0.0106084 0.0
-0.0282374 0.0093006 0.0
-0.0287089 0.00801646 0.0
-0.0291337 0.00674769 0.0
-0.0295132 0.00548598 0.0
-0.0298481 0.0042228 0.0
-0.0301384 0.00294915 0.0
-0.0303832 0.0016553 0.0
-0.0305807 0.000330566 0.0
-0.0307281 -0.001037 0.0
-0.0308215 -0.00246091 0.0
-0.0308557 -0.0039566 0.0
-0.0308241 -0.00554182 0.0
-0.0307181 -0.00723705 0.0
-0.0305276 -0.00906593 0.0
-0.03024 -0.0110558 0.0
-0.0298404 -0.0132379 0.0
-0.0293109 -0.0156482 0.0
-0.0286309 -0.0183273 0.0
-0.0277761 -0.0213204 0.0
-0.0267187 -0.0246773 0.0
-0.0254273 -0.028451 0.0
-0.0238668 -0.032696 0.0
-0.0219987 -0.0374654 0.0
-0.0197816 -0.0428039 0.0
-0.0171726 -0.0487291 0.0
-0.0141269 -0.0551398 0.0
-0.0105941 -0.0613392 0.0
-0.00651678 -0.0636952 0.0
-0.00216721 -0.0456956 0.0
0.00216721 0.0456956 0.0
0.00172301 -0.0379335 0.0
-0.00172301 0.0379335 0.0
-0.00505724 0.0515475 0.0
-0.0080404 0.0495794 0.0
-0.0106149 0.0452476 0.0
-0.0128871 0.0410989 0.0
-0.0149151 0.0374392 0.0
-0.0167362 0.0342161 0.0
-0.0183787 0.0313482 0.0
-0.0198655 0.0287684 0.0
-0.0212154 0.0264245 0.0
-0.022444 0.0242753 0.0
-0.0235647 0.0222881 0.0
-0.0245884 0.0204365 0.0
-0.0255249 0.0186987 0.0
-0.0263823 0.0170567 0.0
-0.0271676 0.0154952 0.0
-0.0278869 0.0140009 0.0
-0.0285454 0.0125621 0.0
-0.0291475 0.0111684 0.0
-0.0296967 0.00981001 0.0
-0.0301959 0.00847776 0.0
-0.0306474 0.00716266 0.0
-0.0310526 0.0058557 0.0
-0.0314122 0.00454759 0.0
-0.031726 0.00322851 0.0
-0.0319932 0.00188787 0.0
-0.0322117 0.000513994 0.0
-0.0323785 -0.000906181 0.0
-0.0324894 -0.00238742 0.0
-0.0325387 -0.0039466 0.0
-0.0325191 -0.00560307 0.0
-0.0324216 -0.00737918 0.0
-0.0322353 -0.00930069 0.0
-0.0319466 -0.0113973 0.0
-0.0315397 -0.013703 0.0
-0.0309956 -0.0162567 0.0
-0.0302923 -0.0191022 0.0
-0.0294042 -0.0222884 0.0
-0.0283022 -0.0258687 0.0
-0.0269533 -0.0298999 0.0
-0.0253208 -0.0344402 0.0
-0.0233646 -0.0395456 0.0
-0.0210422 -0.0452632 0.0
-0.018309 -0.051612 0.0
-0.0151189 -0.0584927 0.0
-0.0114168 -0.0652211 0.0
-0.00712021 -0.0681873 0.0
-0.00240527 -0.0502681 0.0
0.00240527 0.0502681 0.0
0.0019102 -0.0415667 0.0
-0.0019102 0.0415667 0.0
-0.00551443 0.0548528 0.0
-0.00863631 0.0523791 0.0
-0.0113145 0.0477006 0.0
-0.0136777 0.0432813 0.0
-0.0157881 0.0393951 0.0
-0.0176844 0.0359775 0.0
-0.0193958 0.0329407 0.0
-0.020946 0.0302129 0.0
-0.0223544 0.0277383 0.0
-0.0236373 0.0254729 0.0
-0.0248081 0.0233819 0.0
-0.0258787 0.021437 0.0
-0.026859 0.0196149 0.0
-0.0277574 0.0178963 0.0
-0.0285814 0.0162649 0.0
-0.0293372 0.0147064 0.0
-0.0300304 0.0132083 0.0
-0.0306655 0.0117593 0.0
-0.0312463 0.010349 0.0
-0.0317758 0.00896747 0.0
-0.0322563 0.00760492 0.0
-0.0326893 0.00625161 0.0
-0.0330755 0.00489745 0.0
-0.0334147 0.00353175 0.0
-0.0337059 0.00214296 0.0
-0.0339468 0.000718329 0.0
-0.0341341 -0.000756371 0.0
-0.0342632 -0.00229726 0.0
-0.0343279 -0.00392274 0.0
-0.0343205 -0.0056539 0.0
-0.0342313 -0.00751504 0.0
-0.0340484 -0.00953414 0.0
-0.0337574 -0.0117434 0.0
-0.0333416 -0.0141797 0.0
-0.0327807 -0.0168849 0.0
-0.0320516 -0.0199064 0.0
-0.0311274 -0.0232965 0.0
-0.0299774 -0.0271126 0.0
-0.0285672 -0.0314151 0.0
-0.0268587 -0.036266 0.0
-0.0248104 -0.0417242 0.0
-0.0223785 -0.047839 0.0
-0.0195173 -0.0546306 0.0
-0.0161794 -0.0620022 0.0
-0.0123047 -0.0692884 0.0
-0.00778391 -0.0729374 0.0
-0.00267171 -0.0553451 0.0
0.00267171 0.0553451 0.0
0.00212097 -0.0455979 0.0
-0.00212097 0.0455979 0.0
-0.00602022 0.0583251 0.0
-0.00928263 0.0552911 0.0
-0.0120657 0.05025 0.0
-0.0145215 0.045551 0.0
-0.0167163 0.0414307 0.0
-0.0186901 0.0378121 0.0
-0.0204731 0.0346006 0.0
-0.0220895 0.0317197 0.0
-0.0235593 0.0291098 0.0
-0.0248993 0.0267243 0.0
-0.0261236 0.0245258 0.0
-0.0272442 0.0224843 0.0
-0.0282713 0.020575 0.0
-0.029214 0.0187773 0.0
-0.0300798 0.0170737 0.0
-0.0308753 0.015449 0.0
-0.0316062 0.0138898 0.0
-0.0322773 0.012384 0.0
-0.0328924 0.0109203 0.0
-0.0334549 0.0094881 0.0
-0.0339669 0.00807682 0.0
-0.0344301 0.00667589 0.0
-0.0348451 0.00527436 0.0
-0.0352116 0.0038606 0.0
-0.0355284 0.00242203 0.0
-0.035793 0.000944786 0.0
-0.0360018 -0.000586664 0.0
-0.0361498 -0.00218987 0.0
-0.0362304 -0.00388484 0.0
-0.0362351 -0.00569451 0.0
-0.0361535 -0.00764526 0.0
-0.0359729 -0.00976739 0.0
-0.0356783 -0.0120957 0.0
-0.0352515 -0.01467 0.0
-0.0346715 -0.0175354 0.0
-0.0339136 -0.0207428 0.0
-0.0329498 -0.0243481 0.0
-0.0317482 -0.0284126 0.0
-0.0302728 -0.0330006 0.0
-0.0284842 -0.0381775 0.0
-0.0263398 -0.0440053 0.0
-0.0237944 -0.0505352 0.0
-0.0208017 -0.0577883 0.0
-0.0173127 -0.0656714 0.0
-0.013263 -0.0735436 0.0
-0.00851401 -0.077952 0.0
-0.00296995 -0.0609867 0.0
0.00296995 0.0609867 0.0
0.00235871 -0.0500776 0.0
-0.00235871 0.0500776 0.0
-0.00658073 0.0619667 0.0
-0.00998466 0.0583159 0.0
-0.0128733 0.052897 0.0
-0.0154231 0.0479094 0.0
-0.0177041 0.043548 0.0
-0.0197576 0.0397222 0.0
-0.0216146 0.0363305 0.0
-0.0233 0.0332915 0.0
-0.0248343 0.030542 0.0
-0.0262346 0.0280324 0.0
-0.0275156 0.0257229 0.0
-0.0286895 0.0235817 0.0
-0.0297671 0.0215823 0.0
-0.0307574 0.019703 0.0
-0.0316685 0.0179249 0.0
-0.032507 0.0162319 0.0
-0.0332789 0.0146097 0.0
-0.0339891 0.0130453 0.0
-0.0346417 0.0115267 0.0
-0.03524 0.0100424 0.0
-0.0357863 0.00858089 0.0
-0.0362821 0.00713086 0.0
-0.0367282 0.00568039 0.0
-0.0371239 0.00421687 0.0
-0.037468 0.00272662 0.0
-0.0377577 0.00119454 0.0
-0.037989 -0.000396253 0.0
-0.0381565 -0.00206483 0.0
-0.0382529 -0.00383291 0.0
-0.0382693 -0.00572538 0.0
-0.0381945 -0.00777078 0.0
-0.038015 -0.0100019 0.0
-0.0377148 -0.0124561 0.0
-0.0372747 -0.0151764 0.0
-0.0366726 -0.0182112 0.0
-0.0358828 -0.0216147 0.0
-0.0348758 -0.0254469 0.0
-0.0336185 -0.0297728 0.0
-0.0320738 -0.0346605 0.0
-0.030201 -0.040179 0.0
-0.0279563 -0.046393 0.0
-0.0252936 -0.0533555 0.0
-0.0221659 -0.0610885 0.0
-0.0185234 -0.0695027 0.0
-0.0142969 -0.0779885 0.0
-0.00931714 -0.0832358 0.0
-0.00330375 -0.0672604 0.0
0.00330375 0.0672604 0.0
0.00262732 -0.0550636 0.0
-0.00262732 0.0550636 0.0
-0.00720299 0.0657784 0.0
-0.0107483 0.0614535 0.0
-0.0137428 0.0556425 0.0
-0.0163875 0.0503583 0.0
-0.0187563 0.0457489 0.0
-0.0208915 0.04171 0.0
-0.0228249 0.038133 0.0
-0.0245819 0.0349314 0.0
-0.0261836 0.0320381 0.0
-0.0276474 0.0294005 0.0
-0.0289884 0.0269767 0.0
-0.0302191 0.0247326 0.0
-0.0313505 0.0226404 0.0
-0.0323921 0.0206768 0.0
-0.0333519 0.0188219 0.0
-0.034237 0.0170585 0.0
-0.0350533 0.0153713 0.0
-0.035806 0.0137466 0.0
-0.0364993 0.0121713 0.0
-0.0371363 0.0106331 0.0
-0.0377196 0.00911975 0.0
-0.0382507 0.00761888 0.0
-0.0387299 0.00611763 0.0
-0.0391568 0.00460233 0.0
-0.0395297 0.00305811 0.0
-0.0398456 0.0014686 0.0
-0.0401 -0.000184538 0.0
-0.0402871 -0.00192199 0.0
-0.0403992 -0.00376729 0.0
-0.0404265 -0.00574733 0.0
-0.0403572 -0.00789294 0.0
-0.0401769 -0.0102394 0.0
-0.0398687 -0.012827 0.0
-0.0394126 -0.0157017 0.0
-0.0387852 -0.0189154 0.0
-0.0379597 -0.0225258 0.0
-0.0369057 -0.0265968 0.0
-0.0355886 -0.0311973 0.0
-0.0339703 -0.0363991 0.0
-0.0320092 -0.0422745 0.0
-0.0296604 -0.048891 0.0
-0.0268773 -0.0563032 0.0
-0.0236121 -0.0645337 0.0
-0.0198143 -0.0734977 0.0
-0.0154106 -0.0826237 0.0
-0.0101997 -0.0887911 0.0
-0.00367698 -0.0742412 0.0
0.00367698 0.0742412 0.0
0.00293107 -0.060622 0.0
-0.00293107 0.060622 0.0
-0.00789421 0.0697588 0.0
-0.0115788 0.064703 0.0
-0.0146781 0.0584868 0.0
-0.0174176 0.0528982 0.0
-0.0198745 0.0480347 0.0
-0.0220924 0.0437774 0.0
-0.0241035 0.0400101 0.0
-0.0259337 0.0366415 0.0
-0.0276045 0.0336005 0.0
-0.0291339 0.0308314 0.0
-0.0305371 0.0282899 0.0
-0.031827 0.02594 0.0
-0.0330147 0.0237522 0.0
-0.0341099 0.0217018 0.0
-0.0351209 0.0197677 0.0
-0.0360549 0.0179317 0.0
-0.0369179 0.0161775 0.0
-0.0377152 0.0144904 0.0
-0.038451 0.0128565 0.0
-0.0391286 0.0112626 0.0
-0.0397504 0.00969538 0.0
-0.0403178 0.00814165 0.0
-0.0408311 0.00658745 0.0
-0.0412897 0.00501798 0.0
-0.0416915 0.00341715 0.0
-0.0420333 0.00176718 0.0
-0.0423102 4.8254e-05 0.0
-0.0425158 -0.00176203 0.0
-0.0426419 -0.00368911 0.0
-0.0426782 -0.00576198 0.0
-0.0426119 -0.00801382 0.0
-0.0424282 -0.0104825 0.0
-0.042109 -0.0132113 0.0
-0.0416334 -0.0162492 0.0
-0.0409771 -0.0196515 0.0
-0.0401125 -0.0234798 0.0
-0.0390078 -0.0278016 0.0
-0.0376278 -0.0326896 0.0
-0.0359333 -0.0382195 0.0
-0.0338818 -0.0444667 0.0
-0.0314278 -0.0515015 0.0
-0.0285243 -0.0593795 0.0
-0.0251231 -0.0681238 0.0
-0.0211733 -0.0776551 0.0
-0.0165974 -0.0874461 0.0
-0.0111617 -0.0946153 0.0
-0.00409166 -0.0820098 0.0
0.00409166 0.0820098 0.0
0.00327222 -0.0668253 0.0
-0.00327222 0.0668253 0.0
-0.00865453 0.0739009 0.0
-0.0124683 0.0680592 0.0
-0.015664 0.0614254 0.0
-0.0184905 0.0555255 0.0
-0.0210282 0.0504021 0.0
-0.0233213 0.0459211 0.0
-0.0254027 0.0419589 0.0
-0.0272989 0.038419 0.0
-0.0290315 0.0352264 0.0
-0.030619 0.0323223 0.0
-0.0320768 0.0296599 0.0
-0.033418 0.0272011 0.0
-0.0346541 0.0249149 0.0
-0.0357949 0.0227751 0.0
-0.0368489 0.0207594 0.0
-0.0378234 0.0188485 0.0
-0.0387246 0.0170251 0.0
-0.0395579 0.0152735 0.0
-0.0403275 0.0135789 0.0
-0.0410368 0.0119271 0.0
-0.0416882 0.010304 0.0
-0.042283 0.00869523 0.0
-0.0428215 0.00708576 0.0
-0.0433029 0.0054596 0.0
-0.0437249 0.00379936 0.0
-0.044084 0.00208584 0.0
-0.0443751 0.000297607 0.0
-0.0445914 -0.00158949 0.0
-0.0447241 -0.00360286 0.0
-0.0447624 -0.00577367 0.0
-0.0446932 -0.00813752 0.0
-0.0445008 -0.010735 0.0
-0.0441667 -0.0136122 0.0
-0.0436692 -0.0168214 0.0
-0.0429836 -0.0204213 0.0
-0.0420812 -0.0244771 0.0
-0.04093 -0.0290602 0.0
-0.0394941 -0.034247 0.0
-0.0377338 -0.0401169 0.0
-0.0356062 -0.0467485 0.0
-0.0330655 -0.0542143 0.0
-0.0300646 -0.0625712 0.0
-0.0265552 -0.0718426 0.0
-0.0224862 -0.0819551 0.0
-0.017776 -0.0924323 0.0
-0.0121583 -0.100682 0.0
-0.00453482 -0.0906363 0.0
0.00453482 0.0906363 0.0
0.00363233 -0.0737298 0.0
-0.00363233 0.0737298 0.0
-0.00942026 0.0781666 0.0
-0.0132998 0.0714869 0.0
-0.0165297 0.0644233 0.0
-0.0193798 0.0582043 0.0
-0.0219328 0.052814 0.0
-0.0242335 0.048103 0.0
-0.0263154 0.0439402 0.0
-0.0282053 0.0402237 0.0
-0.0299256 0.0368747 0.0
-0.0314951 0.0338311 0.0
-0.0329299 0.0310437 0.0
-0.0342437 0.0284724 0.0
-0.0354485 0.0260845 0.0
-0.0365548 0.0238525 0.0
-0.0375715 0.0217527 0.0
-0.0385068 0.0197648 0.0
-0.0393674 0.0178705 0.0
-0.0401591 0.016053 0.0
-0.0408868 0.0142967 0.0
-0.0415545 0.0125863 0.0
-0.0421649 0.0109067 0.0
-0.0427199 0.0092424 0.0
-0.0432201 0.00757738 0.0
-0.0436651 0.00589434 0.0
-0.044053 0.00417455 0.0
-0.0443806 0.00239732 0.0
-0.0446429 0.000539589 0.0
-0.0448336 -0.0014246 0.0
-0.044944 -0.00352463 0.0
-0.0449637 -0.0057939 0.0
-0.0448798 -0.0082704 0.0
-0.0446769 -0.0109974 0.0
-0.0443369 -0.0140239 0.0
-0.0438387 -0.0174053 0.0
-0.0431579 -0.0212038 0.0
-0.0422667 -0.0254881 0.0
-0.0411337 -0.0303334 0.0
-0.0397236 -0.0358197 0.0
-0.0379978 -0.0420302 0.0
-0.0359141 -0.0490465 0.0
-0.0334276 -0.0569435 0.0
-0.0304913 -0.0657793 0.0
-0.0270573 -0.0755779 0.0
-0.023073 -0.086273 0.0
-0.0184517 -0.097446 0.0
-0.0128927 -0.106845 0.0
-0.00490919 -0.10008 0.0
0.00490919 0.10008 0.0
0.00384933 -0.0812115 0.0
-0.00384933 0.0812115 0.0
-0.00969339 0.082317 0.0
-0.013225 0.0747477 0.0
-0.0160693 0.0672366 0.0
-0.0185118 0.0606836 0.0
-0.0206365 0.0550124 0.0
-0.0224894 0.0500583 0.0
-0.0241055 0.0456829 0.0
-0.0255139 0.0417794 0.0
-0.0267399 0.0382652 0.0
-0.0278053 0.0350754 0.0
-0.0287294 0.0321582 0.0
-0.0295295 0.0294718 0.0
-0.0302211 0.0269816 0.0
-0.0308182 0.0246587 0.0
-0.0313334 0.0224784 0.0
-0.031778 0.020419 0.0
-0.0321622 0.0184611 0.0
-0.0324952 0.0165871 0.0
-0.0327848 0.01478 0.0
-0.0330379 0.0130237 0.0
-0.0332603 0.011302 0.0
-0.0334566 0.00959828 0.0
-0.03363 0.00789523 0.0
-0.0337829 0.00617434 0.0
-0.033916 0.00441551 0.0
-0.0340286 0.00259659 0.0
-0.0341189 0.000692932 0.0
-0.034183 -0.00132317 0.0
-0.0342157 -0.00348299 0.0
-0.0342096 -0.00582199 0.0
-0.0341554 -0.00838044 0.0
-0.0340415 -0.0112041 0.0
-0.033854 -0.0143447 0.0
-0.0335761 -0.0178606 0.0
-0.0331883 -0.0218171 0.0
-0.0326676 -0.0262866 0.0
-0.0319876 -0.0313478 0.0
-0.0311182 -0.0370847 0.0
-0.0300252 -0.0435841 0.0
-0.0286701 -0.0509314 0.0
-0.0270105 -0.0592047 0.0
-0.0250001 -0.0684647 0.0
-0.0225887 -0.0787379 0.0
-0.0197176 -0.0899683 0.0
-0.0162859 -0.101804 0.0
-0.0119482 -0.112384 0.0
-0.00474182 -0.109731 0.0
0.00474182 0.109731 0.0
0.00296933 -0.0880302 0.0
-0.00296933 0.0880302 0.0
-0.00659611 0.0849691 0.0
-0.00741908 0.0764502 0.0
-0.00749676 0.0684562 0.0
-0.0071289 0.0615387 0.0
-0.00640903 0.0555622 0.0
-0.00539591 0.0503483 0.0
-0.0041398 0.0457528 0.0
-0.00268644 0.0416646 0.0
-0.0010778 0.0379974 0.0
0.00064767 0.0346831 0.0
0.00245476 0.0316675 0.0
0.00431137 0.028906 0.0
0.0061883 0.0263621 0.0
0.0080591 0.0240046 0.0
0.00989982 0.021807 0.0
0.0116889 0.0197459 0.0
0.0134069 0.0178004 0.0
0.0150364 0.0159512 0.0
0.0165617 0.0141801 0.0
0.0179688 0.0124696 0.0
0.0192451 0.0108022 0.0
0.0203792 0.00916021 0.0
0.0213609 0.00752511 0.0
0.0221809 0.00587732 0.0
0.0228309 0.00419565 0.0
0.0233031 0.0024569 0.0
0.0235907 0.000635297 0.0
0.0236873 -0.00129799 0.0
0.0235872 -0.00337546 0.0
0.0232855 -0.0056339 0.0
0.0227778 -0.00811505 0.0
0.0220608 -0.0108663 0.0
0.0211322 -0.0139414 0.0
0.0199914 -0.0174009 0.0
0.0186397 -0.0213129 0.0
0.0170809 -0.0257528 0.0
0.0153226 -0.0308033 0.0
0.0133767 -0.0365528 0.0
0.0112615 -0.0430937 0.0
0.00900244 -0.0505178 0.0
0.00663501 -0.0589104 0.0
0.00420642 -0.0683407 0.0
0.00177904 -0.0788459 0.0
-0.000561374 -0.090391 0.0
-0.00266611 -0.102708 0.0
-0.00409896 -0.114385 0.0
-0.00228148 -0.116755 0.0
0.00228148 0.116755 0.0
-0.00344212 -0.0875574 0.0
0.00344212 0.0875574 0.0
0.0130679 0.0794429 0.0
0.025797 0.0700702 0.0
0.038953 0.0617577 0.0
0.0521337 0.0546887 0.0
0.0651676 0.0486585 0.0
0.077939 0.0434675 0.0
0.0903584 0.038958 0.0
0.102356 0.0350081 0.0
0.113879 0.0315223 0.0
0.124887 0.0284251 0.0
0.13535 0.0256557 0.0
0.145246 0.0231645 0.0
0.154563 0.0209103 0.0
0.163289 0.0188589 0.0
0.171421 0.0169807 0.0
0.178953 0.0152503 0.0
0.185886 0.0136453 0.0
0.192218 0.0121454 0.0
0.197946 0.0107318 0.0
0.20307 0.00938701 0.0
0.207585 0.00809383 0.0
0.211484 0.0068353 0.0
0.214758 0.00559409 0.0
0.217395 0.00435208 0.0
0.219376 0.00308993 0.0
0.220679 0.00178663 0.0
0.221279 0.00041888 0.0
0.22114 -0.00103937 0.0
0.220223 -0.00261762 0.0
0.218483 -0.0043495 0.0
0.215865 -0.00627355 0.0
0.212308 -0.00843399 0.0
0.207744 -0.0108817 0.0
0.202099 -0.0136748 0.0
0.195292 -0.01688 0.0
0.187238 -0.0205724 0.0
0.177849 -0.0248364 0.0
0.16704 -0.029765 0.0
0.154732 -0.0354586 0.0
0.14086 -0.0420222 0.0
0.125382 -0.0495606 0.0
0.108292 -0.0581713 0.0
0.0896349 -0.0679312 0.0
0.0695384 -0.0788688 0.0
0.0482736 -0.0908606 0.0
0.0265242 -0.10305 0.0
0.00782666 -0.111209 0.0
-0.00782666 0.111209 0.0
-0.0420576 -0.0420576 0.0
0.0420576 0.0420576 0.0
0.120745 0.0366297 0.0
0.189137 0.0317624 0.0
0.248473 0.0275735 0.0
0.300106 0.0240593 0.0
0.345262 0.0210973 0.0
0.38494 0.01858 0.0
0.419943 0.016423 0.0
0.450927 0.014561 0.0
0.478431 0.0129427 0.0
0.5029 0.0115272 0.0
0.52471 0.0102819 0.0
0.544171 0.00917987 0.0
0.56155 0.00819933 0.0
0.577072 0.00732192 0.0
0.590926 0.00653218 0.0
0.603275 0.00581689 0.0
0.614256 0.00516458 0.0
0.623986 0.00456505 0.0
0.63256 0.00400915 0.0
0.640058 0.00348837 0.0
0.646541 0.00299469 0.0
0.652056 0.00252028 0.0
0.656633 0.0020573 0.0
0.660288 0.00159766 0.0
0.663019 0.00113283 0.0
0.664805 0.000653566 0.0
0.665608 0.000149631 0.0
0.665368 -0.000390466 0.0
0.663997 -0.000979818 0.0
0.661384 -0.00163349 0.0
0.657382 -0.00236893 0.0
0.651806 -0.00320644 0.0
0.64443 -0.00416966 0.0
0.634974 -0.00528611 0.0
0.6231 -0.00658769 0.0
0.608402 -0.00811121 0.0
0.590392 -0.0098987 0.0
0.568495 -0.0119976 0.0
0.542037 -0.0144604 0.0
0.510233 -0.0173441 0.0
0.47218 -0.0207083 0.0
0.42686 -0.0246123 0.0
0.373137 -0.0291105 0.0
0.309785 -0.0342413 0.0
0.235553 -0.039991 0.0
0.149472 -0.0460896 0.0
0.0516914 -0.0516914 0.0
-0.0516914 0.0516914 0.0
-1.95794 0.0420576 0.0
1.95794 -0.0420576 0.0
1.87926 -0.0366297 0.0
1.81086 -0.0317624 0.0
1.75153 -0.0275735 0.0
1.69989 -0.0240593 0.0
1.65474 -0.0210973 0.0
1.61506 -0.01858 0.0
1.58006 -0.016423 0.0
1.54907 -0.014561 0.0
1.52157 -0.0129427 0.0
1.4971 -0.0115272 0.0
1.47529 -0.0102819 0.0
1.45583 -0.00917987 0.0
1.43845 -0.00819933 0.0
1.42293 -0.00732192 0.0
1.40907 -0.00653218 0.0
1.39673 -0.00581689 0.0
1.38574 -0.00516458 0.0
1.37601 -0.00456505 0.0
1.36744 -0.00400915 0.0
1.35994 -0.00348837 0.0
1.35346 -0.00299469 0.0
1.34794 -0.00252028 0.0
1.34337 -0.0020573 0.0
1.33971 -0.00159766 0.0
1.33698 -0.00113283 0.0
1.33519 -0.000653566 0.0
1.33439 -0.000149631 0.0
1.33463 0.000390466 0.0
1.336 0.000979818 0.0
1.33862 0.00163349 0.0
1.34262 0.00236893 0.0
1.34819 0.00320644 0.0
1.35557 0.00416966 0.0
1.36503 0.00528611 0.0
1.3769 0.00658769 0.0
1.3916 0.00811121 0.0
1.40961 0.0098987 0.0
1.4315 0.0119976 0.0
1.45796 0.0144604 0.0
1.48977 0.0173441 0.0
1.52782 0.0207083 0.0
1.57314 0.0246123 0.0
1.62686 0.0291105 0.0
1.69021 0.0342413 0.0
1.76445 0.039991 0.0
1.85053 0.0460896 0.0
1.94831 0.0516914 0.0
-1.94831 -0.0516914 0.0
