# vtk DataFile Version 3.0
DroneCFD Output
ASCII
DATASET STRUCTURED_POINTS
DIMENSIONS 50 50 1
ORIGIN 0 0 0
SPACING 0.02 0.02 1
POINT_DATA 2500
SCALARS pressure double 1
LOOKUP_TABLE default
0
0
-0.000250054
-0.000193622
-6.00135e-05
0.000127401
0.000365221
0.000651141
0.000982764
0.00135758
0.00177302
0.00222647
0.00271528
0.00323683
0.0037885
0.00436766
0.00497174
0.00559817
0.00624441
0.00690794
0.00758627
0.0082769
0.00897736
0.00968519
0.0103979
0.011113
0.0118281
0.0125406
0.0132479
0.0139476
0.014637
0.0153136
0.0159745
0.0166171
0.0172387
0.0178363
0.0184071
0.0189483
0.0194568
0.0199297
0.020364
0.0207567
0.0211048
0.0214056
0.0216563
0.0218543
0.0219959
0.0220573
0.0218067
0.0218067
0
0
-0.000250054
-0.000193622
-6.00135e-05
0.000127401
0.000365221
0.000651141
0.000982764
0.00135758
0.00177302
0.00222647
0.00271528
0.00323683
0.0037885
0.00436766
0.00497174
0.00559817
0.00624441
0.00690794
0.00758627
0.0082769
0.00897736
0.00968519
0.0103979
0.011113
0.0118281
0.0125406
0.0132479
0.0139476
0.014637
0.0153136
0.0159745
0.0166171
0.0172387
0.0178363
0.0184071
0.0189483
0.0194568
0.0199297
0.020364
0.0207567
0.0211048
0.0214056
0.0216563
0.0218543
0.0219959
0.0220573
0.0218067
0.0218067
0.000222606
0.000222606
-2.96838e-05
2.64e-05
0.000158598
0.00034326
0.000577047
0.000857734
0.00118301
0.00155044
0.00195754
0.00240177
0.00288057
0.00339139
0.00393166
0.00449884
0.00509043
0.00570391
0.00633681
0.00698666
0.00765102
0.00832746
0.00901356
0.0097069
0.0104051
0.0111056
0.0118061
0.0125041
0.0131971
0.0138826
0.014558
0.0152209
0.0158685
0.0164982
0.0171072
0.0176929
0.0182524
0.0187828
0.0192814
0.0197451
0.020171
0.0205564
0.0208983
0.0211939
0.0214406
0.0216359
0.0217761
0.0218372
0.0215843
0.0215843
0.00018741
0.00018741
-6.89009e-05
-1.23603e-05
0.00012092
0.000306958
0.000542327
0.000824743
0.00115184
0.00152116
0.00193018
0.00237633
0.00285704
0.00336974
0.00391187
0.00448088
0.00507426
0.0056895
0.00632413
0.00697569
0.00764174
0.00831986
0.00900763
0.00970264
0.0104025
0.0111047
0.011807
0.0125067
0.0132015
0.0138889
0.0145662
0.015231
0.0158807
0.0165124
0.0171236
0.0177115
0.0182733
0.0188061
0.019307
0.0197731
0.0202014
0.0205891
0.0209333
0.021231
0.0214797
0.0216766
0.0218182
0.0218798
0.0216229
0.0216229
9.50715e-05
9.50715e-05
-0.000166193
-0.000108639
2.67576e-05
0.000215524
0.000454102
0.000740112
0.00107111
0.00144457
0.00185791
0.00230852
0.00279381
0.00331116
0.00385801
0.00443178
0.00502994
0.00565
0.00628947
0.00694589
0.00761681
0.00829983
0.00899252
0.00969248
0.0103973
0.0111046
0.0118118
0.0125167
0.0132166
0.0139091
0.0145917
0.0152617
0.0159167
0.0165538
0.0171703
0.0177636
0.0183307
0.0188689
0.019375
0.0198463
0.0202797
0.0206723
0.021021
0.0213229
0.0215754
0.0217755
0.0219195
0.0219825
0.0217205
0.0217205
-3.71378e-05
-3.71378e-05
-0.000304245
-0.000245217
-0.000106838
8.57618e-05
0.000328845
0.000619902
0.000956381
0.00133566
0.0017551
0.00221202
0.00270377
0.00322771
0.00378124
0.00436177
0.00496676
0.00559368
0.00624005
0.00690341
0.00758132
0.00827134
0.00897108
0.00967812
0.0103901
0.0111045
0.011819
0.0125311
0.0132383
0.0139382
0.0146282
0.0153058
0.0159682
0.0166129
0.0172371
0.0178379
0.0184126
0.0189583
0.0194719
0.0199504
0.0203909
0.0207902
0.0211453
0.0214532
0.0217109
0.0219156
0.0220631
0.0221278
0.02186
0.02186
-0.000208667
-0.000208667
-0.000482587
-0.000421585
-0.000279319
-8.17452e-05
0.000167168
0.000464745
0.000808295
0.00119509
0.00162238
0.00208742
0.00258751
0.00311995
0.0036821
0.00427136
0.00488515
0.00552093
0.00617623
0.00684855
0.00753547
0.00823456
0.0089434
0.0096596
0.0103808
0.0111044
0.0118283
0.0125498
0.0132665
0.0139759
0.0146755
0.0153627
0.0160349
0.0166893
0.0173232
0.0179339
0.0185184
0.0190737
0.0195969
0.0200848
0.0205344
0.0209425
0.0213058
0.0216213
0.0218859
0.0220963
0.0222484
0.0223155
0.0220408
0.0220408
-0.00042018
-0.00042018
-0.000701961
-0.000638428
-0.000491301
-0.000287546
-3.14152e-05
0.000274212
0.000626478
0.00102251
0.00145946
0.00193448
0.0024448
0.00298768
0.00356041
0.00416037
0.00478496
0.00543163
0.00609787
0.0067812
0.00747919
0.0081894
0.00890942
0.00963686
0.0103693
0.0111044
0.0118397
0.0125727
0.013301
0.0140221
0.0147335
0.0154326
0.0161166
0.016783
0.017429
0.0180517
0.0186481
0.0192153
0.0197502
0.0202497
0.0207105
0.0211294
0.0215029
0.0218278
0.0221008
0.0223185
0.0224763
0.0225465
0.0222638
0.0222638
-0.000672583
-0.000672583
-0.00096335
-0.00089665
-0.000743602
-0.000532373
-0.000267557
4.77235e-05
0.000410412
0.000817477
0.00126593
0.00175284
0.00227533
0.0028306
0.00341591
0.00402858
0.00466599
0.00532558
0.00600481
0.00670121
0.00741232
0.00813573
0.00886903
0.00960981
0.0103557
0.0111043
0.0118531
0.0125998
0.0133419
0.014077
0.0148023
0.0155154
0.0162137
0.0168943
0.0175545
0.0181914
0.0188021
0.0193834
0.0199323
0.0204456
0.0209197
0.0213515
0.0217372
0.0220735
0.0223566
0.0225831
0.0227478
0.0228218
0.02253
0.02253
-0.000966985
-0.000966985
-0.00126793
-0.00119733
-0.0010372
-0.000817097
-0.000542033
-0.00021541
0.000159487
0.00057944
0.00104131
0.00154205
0.0020787
0.00264838
0.00324828
0.00387571
0.00452799
0.00520255
0.00589684
0.00660838
0.00733472
0.00807343
0.0088221
0.00957834
0.0103398
0.011104
0.0118686
0.0126312
0.0133893
0.0141404
0.0148819
0.0156113
0.016326
0.0170231
0.0176998
0.0183533
0.0189806
0.0195784
0.0201436
0.0206728
0.0211627
0.0216094
0.0220095
0.0223591
0.0226543
0.0228912
0.0230642
0.0231429
0.0228408
0.0228408
-0.0013047
-0.0013047
-0.00161707
-0.00154174
-0.00137322
-0.00114273
-0.000855741
-0.000515985
-0.000127007
0.000307771
0.000785044
0.00130163
0.00185447
0.0024406
0.00305717
0.00370142
0.00437065
0.00506228
0.00577373
0.00650252
0.00724618
0.00800231
0.00876848
0.00954233
0.0103215
0.0111035
0.0118861
0.0126667
0.013443
0.0142124
0.0149724
0.0157204
0.0164538
0.0171697
0.0178653
0.0185378
0.0191839
0.0198006
0.0203845
0.0209321
0.0214399
0.0219041
0.0223207
0.0226858
0.0229951
0.0232442
0.023427
0.0235114
0.0231977
0.0231977
-0.00168728
-0.00168728
-0.00201237
-0.0019313
-0.00175295
-0.00151041
-0.0012097
-0.000854906
-0.00044987
1.75509e-06
0.000496485
0.001031
0.00160212
0.00220681
0.00284215
0.00350534
0.00419365
0.00490446
0.00563519
0.00638336
0.00714649
0.00792218
0.00870802
0.00950163
0.0103007
0.0111027
0.0119054
0.0127063
0.013503
0.014293
0.0150738
0.0158427
0.0165972
0.0173343
0.0180512
0.018745
0.0194125
0.0200505
0.0206555
0.021224
0.0217523
0.0222363
0.0226718
0.0230547
0.0233802
0.0236435
0.0238379
0.0239292
0.0236026
0.0236026
-0.0021165
-0.0021165
-0.00245564
-0.00236768
-0.00217786
-0.00192144
-0.00160505
-0.00123318
-0.000810001
-0.000339405
0.000174925
0.000729516
0.00132108
0.00194649
0.00260276
0.00328705
0.00399659
0.00472874
0.00548092
0.00625063
0.0070354
0.00783282
0.0086405
0.00945608
0.0102772
0.0111015
0.0119266
0.01275
0.0135695
0.0143824
0.0151862
0.0159784
0.0167563
0.017517
0.0182577
0.0189753
0.0196667
0.0203285
0.0209573
0.0215492
0.0221005
0.0226069
0.023064
0.0234671
0.0238112
0.024091
0.0242989
0.0243984
0.0240575
0.0240575
-0.00259438
-0.00259438
-0.00294893
-0.0028527
-0.00264957
-0.00237725
-0.00204306
-0.00165194
-0.00120839
-0.000716594
-0.000180428
0.000396476
0.00101071
0.00165906
0.00233848
0.00304607
0.00377905
0.00453474
0.00531057
0.00610401
0.00691262
0.00773399
0.00856573
0.0094055
0.0102509
0.0110997
0.0119494
0.0127978
0.0136422
0.0144804
0.0153097
0.0161276
0.0169313
0.0177181
0.0184851
0.0192291
0.0199469
0.0206353
0.0212904
0.0219086
0.0224856
0.0230171
0.0234984
0.0239245
0.0242898
0.0245885
0.0248121
0.0249215
0.024565
0.024565
-0.00312323
-0.00312323
-0.00349456
-0.0033884
-0.00316986
-0.00287941
-0.00252511
-0.00211239
-0.00164613
-0.00113078
-0.00057044
3.10992e-05
0.00067031
0.00134389
0.00204873
0.00278188
0.00354054
0.00432202
0.00512373
0.00594315
0.00677784
0.00762539
0.00848345
0.00934967
0.0102217
0.0110973
0.011974
0.0128495
0.0137214
0.0145872
0.0154444
0.0162904
0.0171225
0.0179379
0.0187337
0.0195068
0.0202538
0.0209713
0.0216557
0.0223028
0.0229085
0.0234681
0.0239766
0.0244284
0.0248178
0.0251381
0.02538
0.0255012
0.0251277
0.0251277
-0.00370567
-0.00370567
-0.00409509
-0.00397706
-0.00374073
-0.00342965
-0.00305271
-0.00261587
-0.00212439
-0.00158302
-0.000996055
-0.000367466
0.000299107
0.00100027
0.00173287
0.0024939
0.00328055
0.00409011
0.00491998
0.00576765
0.0066307
0.00750673
0.00839339
0.00928836
0.0101893
0.011094
0.012
0.0129051
0.0138068
0.0147027
0.0155902
0.0164669
0.01733
0.0181766
0.0190039
0.0198087
0.0205877
0.0213374
0.0220538
0.022733
0.0233703
0.0239611
0.0244998
0.0249807
0.0253973
0.0257423
0.0260054
0.0261407
0.0257488
0.0257488
-0.00434461
-0.00434461
-0.00475339
-0.00462115
-0.0043643
-0.00402984
-0.00362751
-0.00316384
-0.00264447
-0.00207444
-0.0014583
-0.000800144
-0.000103738
0.000627451
0.0013902
0.0021815
0.00299849
0.00383846
0.00469883
0.00557709
0.00647081
0.00737764
0.00829524
0.00922131
0.0101536
0.0110897
0.0120275
0.0129645
0.0138985
0.0148269
0.0157474
0.0166573
0.017554
0.0184345
0.0192961
0.0201355
0.0209493
0.021734
0.0224856
0.0231999
0.0238722
0.0244974
0.0250699
0.0255833
0.0260305
0.0264037
0.0266912
0.0268435
0.0264319
0.0264319
-0.00504334
-0.00504334
-0.00547261
-0.00532339
-0.00504291
-0.00468198
-0.00425126
-0.00375782
-0.00320772
-0.00260629
-0.00195828
-0.00126794
-0.000539136
0.000224589
0.00101997
0.00184396
0.00269371
0.0035665
0.00445975
0.00537097
0.00629775
0.00723776
0.00818868
0.00914824
0.0101142
0.0110843
0.0120562
0.0130277
0.0139965
0.01496
0.015916
0.0168618
0.0177947
0.018712
0.0196106
0.0204875
0.0213392
0.022162
0.022952
0.0237047
0.0244154
0.0250787
0.0256885
0.0262381
0.0267199
0.027125
0.0274408
0.0276133
0.0271809
0.0271809
-0.00580553
-0.00580553
-0.00625624
-0.00608674
-0.00577909
-0.00538826
-0.00492585
-0.00439949
-0.00381564
-0.00317989
-0.00249718
-0.00177193
-0.00100808
-0.000209219
0.00062134
0.00148054
0.00236552
0.00327358
0.00420215
0.00514876
0.00611103
0.00708664
0.00807332
0.00906883
0.0100709
0.0110774
0.012086
0.0130946
0.0141006
0.015102
0.0160961
0.0170804
0.0180524
0.0190092
0.0199479
0.0208653
0.0217579
0.0226222
0.0234539
0.0242486
0.0250013
0.0257063
0.0263574
0.0269474
0.0274679
0.0279094
0.0282578
0.0284544
0.0280003
0.0280003
-0.00663527
-0.00663527
-0.0071081
-0.00691438
-0.00657553
-0.00615098
-0.0056533
-0.00509062
-0.00446978
-0.00379663
-0.0030763
-0.00231329
-0.00151163
-0.000674957
0.000193404
0.00109039
0.00201315
0.002959
0.00392539
0.00490989
0.00591013
0.00692384
0.00794877
0.00898272
0.0100235
0.0110689
0.0121168
0.0131649
0.014211
0.0152527
0.0162877
0.0173135
0.0183274
0.0193266
0.0203084
0.0212694
0.0222063
0.0231153
0.0239922
0.0248326
0.0256311
0.0263821
0.0270788
0.0277135
0.0282775
0.0287602
0.0291462
0.0293716
0.0288951
0.0288951
-0.00753712
-0.00753712
-0.00803234
-0.00780978
-0.00743512
-0.00697262
-0.00643574
-0.00583309
-0.00517184
-0.00445806
-0.003697
-0.00289327
-0.00205095
-0.00117369
-0.000264826
0.000672604
0.00163576
0.00262199
0.00362877
0.0046537
0.00569446
0.00674882
0.00781456
0.00888952
0.00997157
0.0110586
0.0121483
0.0132387
0.0143275
0.0154124
0.016491
0.017561
0.0186198
0.0196646
0.0206925
0.0217004
0.0226849
0.0236422
0.0245681
0.025458
0.0263065
0.0271077
0.0278546
0.028539
0.0291516
0.029681
0.0301104
0.0303701
0.029871
0.029871
-0.00851612
-0.00851612
-0.00903349
-0.00877662
-0.00836094
-0.0078558
-0.00727545
-0.00662891
-0.0059236
-0.00516577
-0.00436077
-0.00351325
-0.0026273
-0.0017066
-0.000754431
0.000226173
0.00123242
0.00226168
0.00331149
0.00437948
0.00546339
0.00656101
0.00767019
0.00878882
0.00991478
0.011046
0.0121804
0.0133158
0.01445
0.0155809
0.0167062
0.0178234
0.01893
0.0200235
0.0211008
0.022159
0.0231946
0.0242039
0.0251826
0.0261262
0.0270291
0.0278851
0.0286871
0.0294266
0.0300936
0.0306758
0.0311551
0.0314555
0.0309341
0.0309341
-0.00957787
-0.00957787
-0.0101164
-0.00981887
-0.00935629
-0.00880331
-0.00817484
-0.00748021
-0.00672699
-0.00592152
-0.00506919
-0.00417468
-0.00324205
-0.00227494
-0.0012766
-0.000250001
0.000802098
0.00187714
0.00297269
0.00408645
0.0052162
0.00635979
0.00751512
0.00868012
0.00985275
0.011031
0.0122127
0.013396
0.0145786
0.0157584
0.0169332
0.0181007
0.0192584
0.0204037
0.0215339
0.0226458
0.0237362
0.0248013
0.025837
0.0268385
0.0278004
0.0287163
0.0295788
0.0303791
0.0311067
0.0317486
0.0322852
0.0326341
0.0320915
0.0320915
-0.0107286
-0.0107286
-0.0112865
-0.0109407
-0.0104246
-0.00981807
-0.00913647
-0.00838925
-0.00758403
-0.00672715
-0.005824
-0.00487917
-0.00389669
-0.00288011
-0.00183262
-0.000757131
0.000343681
0.00146732
0.00261142
0.00377374
0.00495212
0.00614446
0.00734873
0.00856292
0.00978503
0.0110131
0.0122451
0.0134791
0.014713
0.0159448
0.0171723
0.0183932
0.0196052
0.0208057
0.0219922
0.0231615
0.0243105
0.0254355
0.0265324
0.0275964
0.0286222
0.0296033
0.0305321
0.0313996
0.0321947
0.0329039
0.0335064
0.0339127
0.0333509
0.0333509
-0.011975
-0.011975
-0.0125492
-0.0121467
-0.0115696
-0.0109032
-0.010163
-0.00935844
-0.00849691
-0.00758469
-0.00662704
-0.00562846
-0.00459284
-0.00352364
-0.00242394
-0.00129656
-0.00014408
0.00103107
0.00222662
0.00344038
0.00467027
0.00591425
0.00717036
0.00843663
0.00971116
0.010992
0.0122773
0.0135651
0.0148534
0.0161402
0.0174235
0.0187011
0.0199708
0.02123
0.0224764
0.0237069
0.0249184
0.0261075
0.0272701
0.0284015
0.0294964
0.0305484
0.0315497
0.0324912
0.0333615
0.0341466
0.0348246
0.0352987
0.0347209
0.0347209
-0.0133248
-0.0133248
-0.0139107
-0.0134414
-0.0127951
-0.012062
-0.0112574
-0.0103903
-0.00946797
-0.0084963
-0.00748036
-0.00642445
-0.0053323
-0.00420721
-0.00305213
-0.00186976
-0.00066257
0.000567116
0.0018171
0.0030853
0.00436968
0.0056683
0.00697924
0.00830063
0.0096306
0.0109673
0.012309
0.0136536
0.0149995
0.0163446
0.0176871
0.0190248
0.0203556
0.0216772
0.0229871
0.0242828
0.0255611
0.0268186
0.0280516
0.0292555
0.0304251
0.0315539
0.0326344
0.0336574
0.0346113
0.0354817
0.0362459
0.0367998
0.0362112
0.0362112
-0.014786
-0.014786
-0.0153772
-0.0148299
-0.0141051
-0.0132979
-0.0124226
-0.0114877
-0.0104998
-0.00946434
-0.00838616
-0.00726923
-0.00611705
-0.0049327
-0.00371897
-0.0024784
-0.00121333
7.40206e-05
0.00138157
0.0027073
0.00404929
0.00540566
0.00677457
0.0081542
0.00954279
0.0109386
0.0123398
0.0137446
0.0151514
0.0165581
0.0179632
0.0193644
0.02076
0.0221477
0.0235252
0.0248901
0.0262394
0.0275701
0.0288785
0.0301602
0.0314102
0.0326224
0.0337893
0.0349018
0.0359484
0.0369147
0.0377772
0.0384246
0.0378321
0.0378321
-0.0163678
-0.0163678
-0.0169553
-0.0163172
-0.015504
-0.0146145
-0.0136619
-0.0126535
-0.011595
-0.0104914
-0.00934688
-0.00816512
-0.00694928
-0.0057022
-0.00442642
-0.00312432
-0.00179809
-0.000449814
0.000918539
0.00230506
0.0037079
0.00512527
0.00655541
0.00799659
0.0094471
0.0109053
0.0123694
0.0138378
0.0153089
0.0167808
0.018252
0.0197205
0.0211846
0.0226423
0.0240915
0.0255298
0.0269548
0.0283634
0.0297522
0.0311174
0.0324541
0.0337565
0.0350175
0.0362283
0.0373776
0.0384512
0.0394255
0.0401821
0.0395954
0.0395954
-0.01808
-0.01808
-0.0186518
-0.0179086
-0.0169961
-0.0160158
-0.0149788
-0.0138909
-0.0127567
-0.0115803
-0.0103652
-0.0091147
-0.00783147
-0.00651803
-0.0051767
-0.00380961
-0.0024188
-0.00100619
0.000426369
0.00187707
0.00334417
0.00482596
0.00632076
0.00782692
0.00934282
0.0108669
0.0123974
0.013933
0.015472
0.0170128
0.0185538
0.0200935
0.0216301
0.0231618
0.0246869
0.0262031
0.0277083
0.0291999
0.0306748
0.0321293
0.0335593
0.0349593
0.0363226
0.037641
0.0389038
0.0400974
0.0411983
0.0420816
0.0415137
0.0415137
-0.0199331
-0.0199331
-0.0204737
-0.0196096
-0.018586
-0.0175057
-0.016377
-0.0152034
-0.0139881
-0.0127341
-0.0114442
-0.0101209
-0.00876637
-0.00738285
-0.00597229
-0.00453662
-0.00307764
-0.00159713
-9.67999e-05
0.00142166
0.0029566
0.00450641
0.00606949
0.00764426
0.00922921
0.0108228
0.0124236
0.01403
0.0156407
0.0172542
0.018869
0.0204837
0.0220969
0.023707
0.0253124
0.0269112
0.0285017
0.0300815
0.0316481
0.0331983
0.0347284
0.0362337
0.0377082
0.0391444
0.0405325
0.0418597
0.0431035
0.0441331
0.0436011
0.0436011
-0.0219389
-0.0219389
-0.0224279
-0.0214257
-0.0202787
-0.0190887
-0.0178604
-0.0165947
-0.0152928
-0.0139564
-0.0125872
-0.0111869
-0.00975712
-0.00829963
-0.00681605
-0.00530801
-0.00377711
-0.00222494
-0.000653072
0.000936923
0.0025435
0.00416513
0.00580031
0.00744756
0.00910541
0.0107725
0.0124473
0.0141286
0.0158149
0.0175052
0.0191979
0.020892
0.0225861
0.0242789
0.0259692
0.0276556
0.0293365
0.0310101
0.0326744
0.0343269
0.0359645
0.0375834
0.0391784
0.0407432
0.0422691
0.0437449
0.0451492
0.0463467
0.0458726
0.0458726
-0.0241099
-0.0241099
-0.0245214
-0.0233624
-0.0220789
-0.0207693
-0.0194335
-0.0180691
-0.016675
-0.0152512
-0.0137981
-0.0123164
-0.0108073
-0.00927179
-0.0077112
-0.00612683
-0.00452004
-0.00289223
-0.00124483
0.000420711
0.00210296
0.00380048
0.00551184
0.00723564
0.00897052
0.0107151
0.0124682
0.0142285
0.0159948
0.0177661
0.0195411
0.0213189
0.0230984
0.0248788
0.026659
0.0284379
0.0302147
0.0319879
0.0337563
0.035518
0.0372709
0.039012
0.0407376
0.0424425
0.0441199
0.04576
0.0473436
0.0487327
0.0483449
0.0483449
-0.0264596
-0.0264596
-0.0267605
-0.0254252
-0.0239917
-0.0225523
-0.0211009
-0.0196312
-0.0181392
-0.0166229
-0.0150811
-0.0135138
-0.011921
-0.0103033
-0.00866147
-0.00699658
-0.00530969
-0.00360201
-0.00187481
-0.000129423
0.00163282
0.00341056
0.00520247
0.00700721
0.00882351
0.0106501
0.0124859
0.0143297
0.0161804
0.0180372
0.0198991
0.0217654
0.0236352
0.025508
0.0273832
0.0292602
0.0311385
0.0330175
0.0348966
0.0367749
0.0386513
0.040524
0.0423907
0.044248
0.0460911
0.0479125
0.0496954
0.0513012
0.051036
0.051036
-0.0290027
-0.0290027
-0.0291514
-0.0276191
-0.0260224
-0.0244429
-0.0228678
-0.0212861
-0.0196905
-0.0180765
-0.0164414
-0.0147838
-0.0131029
-0.0113985
-0.00967114
-0.00792128
-0.00614979
-0.0043577
-0.00254613
-0.000716274
0.00113061
0.00299326
0.00487041
0.00676082
0.00866328
0.0105766
0.0124998
0.0144319
0.0163719
0.0183191
0.0202728
0.0222325
0.0241977
0.0261683
0.0281439
0.0301247
0.0321107
0.034102
0.0360988
0.0381015
0.0401099
0.042124
0.044143
0.0461658
0.0481896
0.0502098
0.0522128
0.0540621
0.0539653
0.0539653
-0.031755
-0.031755
-0.0316994
-0.0299491
-0.028176
-0.0264466
-0.0247399
-0.0230395
-0.0213346
-0.0196179
-0.0178847
-0.0161321
-0.0143585
-0.0125629
-0.0107452
-0.0089056
-0.0070447
-0.0051633
-0.00326238
-0.00134305
0.000593533
0.00254617
0.00451366
0.00649484
0.00848858
0.0104938
0.0125096
0.0145351
0.0165696
0.0186124
0.0206632
0.0227217
0.0247878
0.0268617
0.0289436
0.0310342
0.0331343
0.0352448
0.0373669
0.039502
0.0416517
0.0438174
0.0460006
0.0482022
0.0504225
0.0526599
0.0549042
0.0570248
0.0571538
0.0571538
-0.0347337
-0.0347337
-0.0344085
-0.0324196
-0.0304578
-0.0285689
-0.0267231
-0.024898
-0.0230783
-0.0212538
-0.0194176
-0.0175654
-0.0156942
-0.0138025
-0.0118894
-0.009955
-0.00799944
-0.0060234
-0.00402774
-0.00201346
1.83444e-05
0.00206652
0.00412993
0.00620746
0.00829806
0.0104008
0.0125147
0.0146392
0.0167738
0.0189179
0.0210715
0.0232345
0.0254074
0.0275907
0.0297852
0.0319922
0.0342132
0.0364502
0.0387054
0.0409817
0.0432822
0.0456104
0.04797
0.0503646
0.0527975
0.0552705
0.0577774
0.0601976
0.0606242
0.0606242
-0.0379572
-0.0379572
-0.0372817
-0.0350342
-0.0328725
-0.0308159
-0.0288242
-0.0268685
-0.0249289
-0.0229918
-0.0210479
-0.0190911
-0.0171174
-0.0151244
-0.0131107
-0.0110759
-0.00901994
-0.00694342
-0.00484705
-0.00273179
-0.000598685
0.00155115
0.0037166
0.00589661
0.0080902
0.0102965
0.0125147
0.0147444
0.0169851
0.0192366
0.0214992
0.0237731
0.0260592
0.0283584
0.0306722
0.0330025
0.0353519
0.0377232
0.04012
0.0425466
0.0450081
0.04751
0.0500586
0.0526606
0.0553224
0.0580493
0.0608394
0.0635874
0.0644007
0.0644007
-0.0414459
-0.0414459
-0.0403202
-0.0377957
-0.035425
-0.0331936
-0.0310504
-0.0289592
-0.0268951
-0.0248408
-0.0227845
-0.0207183
-0.0186369
-0.0165371
-0.0144169
-0.0122757
-0.0101131
-0.00792966
-0.005726
-0.00350306
-0.0012619
0.000996379
0.00327068
0.00555997
0.00786332
0.0101799
0.0125092
0.0148507
0.0172043
0.0195701
0.0219484
0.0243401
0.0267463
0.0291685
0.031609
0.0340703
0.0365559
0.0390699
0.0416172
0.0442039
0.0468368
0.049524
0.0522747
0.0550984
0.0580052
0.0610037
0.0640965
0.0671991
0.0685095
0.0685095
-0.0452222
-0.0452222
-0.0435227
-0.0407055
-0.0381193
-0.0357083
-0.0334093
-0.0311788
-0.0289864
-0.0268109
-0.0246378
-0.0224574
-0.020263
-0.0180505
-0.0158177
-0.0135634
-0.0112872
-0.00898963
-0.00667128
-0.00433316
-0.00197637
0.00039796
0.00278871
0.00519487
0.00761555
0.01005
0.0124978
0.0149587
0.0174327
0.0199201
0.0224217
0.0249387
0.0274727
0.0300258
0.0326009
0.0352015
0.037832
0.0404976
0.043205
0.0459618
0.0487771
0.0516616
0.0546272
0.057687
0.0608541
0.0641407
0.0675535
0.0710355
0.0729788
0.0729788
-0.0493106
-0.0493106
-0.0468859
-0.043764
-0.040959
-0.0383659
-0.0359091
-0.033537
-0.0312136
-0.0289137
-0.02662
-0.0243206
-0.0220077
-0.0196765
-0.0173242
-0.0149495
-0.012552
-0.0101322
-0.00769087
-0.0052291
-0.0027481
-0.000249117
0.00226668
0.00479826
0.00734476
0.00990555
0.0124803
0.0150688
0.0176715
0.020289
0.0229223
0.0255731
0.0282434
0.0309362
0.0336548
0.0364037
0.0391883
0.0420153
0.0448928
0.0478303
0.0508393
0.0539329
0.0571263
0.0604355
0.0638771
0.0674661
0.0712132
0.0750962
0.0778389
0.0778389
-0.0537391
-0.0537391
-0.0504032
-0.0469695
-0.0439466
-0.0411723
-0.0385581
-0.0360443
-0.0335889
-0.0311625
-0.0287448
-0.0263221
-0.0238853
-0.021429
-0.0189499
-0.0164467
-0.0139193
-0.0113681
-0.0087943
-0.0061992
-0.00358422
-0.000950775
0.00169986
0.0043666
0.00704859
0.00974527
0.0124564
0.0151821
0.017923
0.0206799
0.0234544
0.0262484
0.0290648
0.0319068
0.0347787
0.0376859
0.0406349
0.0436336
0.0466918
0.049821
0.0530349
0.0563494
0.0597824
0.0633534
0.0670817
0.0709847
0.0750764
0.079377
0.0831224
0.0831224
-0.0585392
-0.0585392
-0.0540646
-0.0503185
-0.0470833
-0.0441327
-0.0413649
-0.0387119
-0.0361255
-0.0335721
-0.0310284
-0.0284786
-0.0259127
-0.0233244
-0.0207107
-0.0180702
-0.015403
-0.0127101
-0.00999304
-0.00725352
-0.00449331
-0.0017141
0.00108265
0.00389573
0.0067243
0.00956784
0.0124263
0.0153
0.0181897
0.0210969
0.0240233
0.0269715
0.0299446
0.0329468
0.035983
0.0390595
0.0421839
0.0453655
0.0486154
0.0519474
0.0553772
0.0589236
0.0626072
0.0664502
0.0704746
0.0746995
0.0791412
0.0838697
0.0888645
0.0888645
-0.0637469
-0.0637469
-0.0578565
-0.0538053
-0.0503689
-0.0472516
-0.0443379
-0.0415514
-0.0388379
-0.0361591
-0.0334888
-0.0308092
-0.0281093
-0.0253825
-0.0226258
-0.0198381
-0.0170202
-0.0141738
-0.0113011
-0.00840427
-0.00548577
-0.00254765
0.000408309
0.00338075
0.00636876
0.0093719
0.0123903
0.0154244
0.0184755
0.0215453
0.024636
0.0277507
0.030893
0.0340677
0.0372806
0.0405385
0.0438503
0.0472263
0.0506795
0.0542251
0.0578814
0.0616693
0.0656123
0.0697351
0.0740615
0.0786112
0.0834022
0.0885608
0.0951032
0.0951032
-0.0694047
-0.0694047
-0.0617607
-0.0574217
-0.0538014
-0.0505321
-0.0474851
-0.0445751
-0.0417417
-0.0389421
-0.0361467
-0.0333362
-0.0304984
-0.0276266
-0.024718
-0.0217726
-0.0187918
-0.0157784
-0.0127356
-0.00966655
-0.00657445
-0.003462
-0.000331415
0.00281568
0.00597826
0.00915595
0.012349
0.0155583
0.0187853
0.0220321
0.0253015
0.028597
0.0319228
0.0352841
0.0386872
0.04214
0.045652
0.0492347
0.0529024
0.0566721
0.0605641
0.0646015
0.0688102
0.0732167
0.0778463
0.0827183
0.0878513
0.0934319
0.101881
0.101881
-0.0755656
-0.0755656
-0.0657584
-0.061161
-0.0573805
-0.0539801
-0.0508177
-0.0477994
-0.0448578
-0.0419455
-0.0390297
-0.0360891
-0.0331107
-0.0300878
-0.0270184
-0.0239035
-0.0207459
-0.0175499
-0.0143201
-0.0110611
-0.00777714
-0.00447187
-0.00114817
0.00219193
0.00554722
0.00891734
0.0123027
0.0157046
0.0191247
0.0225657
0.0260308
0.0295239
0.0330496
0.0366136
0.0402227
0.0438852
0.0476114
0.0514137
0.0553075
0.0593114
0.0634473
0.0677406
0.0722188
0.0769102
0.0818403
0.0870272
0.0924885
0.0984723
0.109257
0.109257
-0.0823736
-0.0823736
-0.0699102
-0.065102
-0.0611958
-0.0576948
-0.0544434
-0.0513382
-0.0483047
-0.0452903
-0.0422588
-0.039187
-0.0360616
-0.0328762
-0.0296302
-0.0263264
-0.0229698
-0.0195668
-0.0161243
-0.0126489
-0.00914638
-0.00562179
-0.00207892
0.0014796
0.00505231
0.00863892
0.0122401
0.0158575
0.0194934
0.0231511
0.0268342
0.0305472
0.0342952
0.0380844
0.041922
0.0458169
0.04978
0.0538247
0.0579677
0.062229
0.0666325
0.0712053
0.0759765
0.0809751
0.0862256
0.0917423
0.0975383
0.103915
0.117556
0.117556
-0.0916285
-0.0916285
-0.0759713
-0.0710671
-0.0671137
-0.0635602
-0.0602315
-0.0570138
-0.0538281
-0.0506212
-0.0473598
-0.044025
-0.040609
-0.037112
-0.0335392
-0.0298993
-0.0262027
-0.0224603
-0.0186825
-0.0148786
-0.0110563
-0.00722137
-0.00337791
0.000472075
0.00432832
0.00819217
0.0120664
0.015955
0.0198629
0.023796
0.027761
0.0317654
0.0358174
0.0399266
0.0441039
0.0483621
0.0527165
0.0571849
0.0617888
0.0665528
0.0715043
0.0766724
0.0820851
0.0877647
0.0937216
0.0999459
0.106416
0.113434
0.13068
0.13068
-0.133185
-0.133185
-0.113125
-0.106992
-0.101348
-0.0957442
-0.0901122
-0.0844405
-0.0787396
-0.0730304
-0.0673378
-0.061687
-0.0561011
-0.0505997
-0.0451981
-0.0399075
-0.0347346
-0.0296819
-0.0247481
-0.0199281
-0.0152139
-0.0105943
-0.00605576
-0.00158217
0.0028446
0.00724472
0.0116404
0.0160558
0.0205174
0.0250539
0.0296971
0.0344816
0.0394459
0.0446326
0.0500889
0.0558669
0.0620238
0.0686208
0.0757223
0.0833924
0.09169
0.100661
0.110325
0.120658
0.131567
0.142854
0.154196
0.165458
0.189387
0.189387
-0.492489
-0.492489
-0.422806
-0.3622
-0.311991
-0.269664
-0.233626
-0.202694
-0.175966
-0.152742
-0.132466
-0.114688
-0.0990418
-0.0852213
-0.0729673
-0.0620582
-0.0523018
-0.0435301
-0.0355949
-0.0283643
-0.02172
-0.0155548
-0.00977048
-0.00427509
0.001019
0.00619767
0.0113478
0.01656
0.0219321
0.027573
0.0336065
0.0401762
0.047451
0.0556313
0.0649553
0.0757069
0.0882237
0.102904
0.120218
0.140708
0.165
0.193797
0.227872
0.26805
0.315168
0.370022
0.433299
0.505926
0.584152
0.584152
-0.492489
-0.492489
-0.422806
-0.3622
-0.311991
-0.269664
-0.233626
-0.202694
-0.175966
-0.152742
-0.132466
-0.114688
-0.0990418
-0.0852213
-0.0729673
-0.0620582
-0.0523018
-0.0435301
-0.0355949
-0.0283643
-0.02172
-0.0155548
-0.00977048
-0.00427509
0.001019
0.00619767
0.0113478
0.01656
0.0219321
0.027573
0.0336065
0.0401762
0.047451
0.0556313
0.0649553
0.0757069
0.0882237
0.102904
0.120218
0.140708
0.165
0.193797
0.227872
0.26805
0.315168
0.370022
0.433299
0.505926
0.584152
0.584152
VECTORS velocity double
-8.43483e-05 8.43482e-05 0.0
8.43483e-05 -8.43482e-05 0.0
0.000281148 -0.000112451 0.0
0.000507136 -0.000113537 0.0
0.00073234 -0.000111668 0.0
0.000953086 -0.000109078 0.0
0.00116812 -0.000105956 0.0
0.00137643 -0.000102357 0.0
0.00157712 -9.8332e-05 0.0
0.00176938 -9.39261e-05 0.0
0.00195249 -8.9183e-05 0.0
0.00212582 -8.41429e-05 0.0
0.0022888 -7.88426e-05 0.0
0.00244096 -7.33152e-05 0.0
0.00258187 -6.75908e-05 0.0
0.00271115 -6.16961e-05 0.0
0.0028285 -5.5655e-05 0.0
0.00293365 -4.94885e-05 0.0
0.00302635 -4.32155e-05 0.0
0.00310642 -3.68527e-05 0.0
0.00317369 -3.04149e-05 0.0
0.00322802 -2.39155e-05 0.0
0.0032693 -1.73667e-05 0.0
0.00329745 -1.07798e-05 0.0
0.00331239 -4.16521e-06 0.0
0.00331409 2.4667e-06 0.0
0.00330252 9.10578e-06 0.0
0.00327767 1.57416e-05 0.0
0.00323957 2.23632e-05 0.0
0.00318824 2.89589e-05 0.0
0.00312377 3.55157e-05 0.0
0.00304623 4.20192e-05 0.0
0.00295576 4.84535e-05 0.0
0.00285251 5.48002e-05 0.0
0.00273667 6.10388e-05 0.0
0.00260848 6.71459e-05 0.0
0.00246824 7.30952e-05 0.0
0.00231629 7.88569e-05 0.0
0.00215304 8.43977e-05 0.0
0.00197896 8.96803e-05 0.0
0.00179461 9.46639e-05 0.0
0.00160065 9.93034e-05 0.0
0.00139779 0.00010355 0.0
0.00118689 0.000107353 0.0
0.00096888 0.000110656 0.0
0.000744826 0.000113398 0.0
0.000516045 0.000115383 0.0
0.000286311 0.000114352 0.0
8.59794e-05 8.59794e-05 0.0
-8.59794e-05 -8.59794e-05 0.0
8.43483e-05 -8.43482e-05 0.0
-8.43483e-05 8.43482e-05 0.0
-0.000281148 0.000112451 0.0
-0.000507136 0.000113537 0.0
-0.00073234 0.000111668 0.0
-0.000953086 0.000109078 0.0
-0.00116812 0.000105956 0.0
-0.00137643 0.000102357 0.0
-0.00157712 9.8332e-05 0.0
-0.00176938 9.39261e-05 0.0
-0.00195249 8.9183e-05 0.0
-0.00212582 8.41429e-05 0.0
-0.0022888 7.88426e-05 0.0
-0.00244096 7.33152e-05 0.0
-0.00258187 6.75908e-05 0.0
-0.00271115 6.16961e-05 0.0
-0.0028285 5.5655e-05 0.0
-0.00293365 4.94885e-05 0.0
-0.00302635 4.32155e-05 0.0
-0.00310642 3.68527e-05 0.0
-0.00317369 3.04149e-05 0.0
-0.00322802 2.39155e-05 0.0
-0.0032693 1.73667e-05 0.0
-0.00329745 1.07798e-05 0.0
-0.00331239 4.16521e-06 0.0
-0.00331409 -2.4667e-06 0.0
-0.00330252 -9.10578e-06 0.0
-0.00327767 -1.57416e-05 0.0
-0.00323957 -2.23632e-05 0.0
-0.00318824 -2.89589e-05 0.0
-0.00312377 -3.55157e-05 0.0
-0.00304623 -4.20192e-05 0.0
-0.00295576 -4.84535e-05 0.0
-0.00285251 -5.48002e-05 0.0
-0.00273667 -6.10388e-05 0.0
-0.00260848 -6.71459e-05 0.0
-0.00246824 -7.30952e-05 0.0
-0.00231629 -7.88569e-05 0.0
-0.00215304 -8.43977e-05 0.0
-0.00197896 -8.96803e-05 0.0
-0.00179461 -9.46639e-05 0.0
-0.00160065 -9.93034e-05 0.0
-0.00139779 -0.00010355 0.0
-0.00118689 -0.000107353 0.0
-0.00096888 -0.000110656 0.0
-0.000744826 -0.000113398 0.0
-0.000516045 -0.000115383 0.0
-0.000286311 -0.000114352 0.0
-8.59794e-05 -8.59794e-05 0.0
8.59794e-05 8.59794e-05 0.0
0.000109596 -0.000278293 0.0
-0.000109596 0.000278293 0.0
-0.000357276 0.000362985 0.0
-0.000634487 0.000366201 0.0
-0.000910637 0.000360358 0.0
-0.00118169 0.00035219 0.0
-0.0014461 0.00034228 0.0
-0.00170256 0.00033081 0.0
-0.00194993 0.000317938 0.0
-0.00218716 0.000303815 0.0
-0.00241334 0.00028858 0.0
-0.00262763 0.000272365 0.0
-0.00282932 0.000255288 0.0
-0.00301775 0.000237457 0.0
-0.00319236 0.000218971 0.0
-0.00335267 0.000199915 0.0
-0.00349826 0.00018037 0.0
-0.00362874 0.000160404 0.0
-0.00374382 0.000140081 0.0
-0.00384322 0.000119455 0.0
-0.00392672 9.85764e-05 0.0
-0.00399412 7.74913e-05 0.0
-0.00404529 5.62404e-05 0.0
-0.0040801 3.48624e-05 0.0
-0.00409847 1.33935e-05 0.0
-0.00410033 -8.13096e-06 0.0
-0.00408567 -2.96758e-05 0.0
-0.00405448 -5.12054e-05 0.0
-0.00400681 -7.2682e-05 0.0
-0.0039427 -9.40657e-05 0.0
-0.00386227 -0.000115313 0.0
-0.00376565 -0.000136375 0.0
-0.00365303 -0.000157198 0.0
-0.00352461 -0.000177723 0.0
-0.00338069 -0.00019788 0.0
-0.00322159 -0.000217593 0.0
-0.0030477 -0.000236777 0.0
-0.00285949 -0.000255333 0.0
-0.00265751 -0.000273155 0.0
-0.00244239 -0.000290121 0.0
-0.00221486 -0.0003061 0.0
-0.00197575 -0.000320946 0.0
-0.00172601 -0.000334504 0.0
-0.0014667 -0.000346605 0.0
-0.00119904 -0.000357075 0.0
-0.000924359 -0.000365714 0.0
-0.000644291 -0.000371916 0.0
-0.000362975 -0.000368869 0.0
-0.000111405 -0.000283364 0.0
0.000111405 0.000283364 0.0
0.000112356 -0.000500244 0.0
-0.000112356 0.000500244 0.0
-0.000365991 0.000642348 0.0
-0.000649559 0.000647618 0.0
-0.000931946 0.000637479 0.0
-0.00120906 0.000623236 0.0
-0.00147931 0.000605883 0.0
-0.00174138 0.000585744 0.0
-0.00199411 0.000563099 0.0
-0.00223643 0.000538216 0.0
-0.00246742 0.000511342 0.0
-0.00268623 0.00048271 0.0
-0.00289214 0.000452529 0.0
-0.00308448 0.000420993 0.0
-0.00326271 0.000388274 0.0
-0.00342631 0.000354529 0.0
-0.00357487 0.000319898 0.0
-0.00370801 0.000284506 0.0
-0.00382542 0.000248466 0.0
-0.00392683 0.000211877 0.0
-0.00401201 0.000174831 0.0
-0.00408078 0.000137409 0.0
-0.00413298 9.96882e-05 0.0
-0.00416849 6.17377e-05 0.0
-0.00418723 2.36248e-05 0.0
-0.00418914 -1.45856e-05 0.0
-0.0041742 -5.28288e-05 0.0
-0.0041424 -9.10392e-05 0.0
-0.00409378 -0.000129148 0.0
-0.0040284 -0.000167082 0.0
-0.00394636 -0.000204761 0.0
-0.00384781 -0.000242098 0.0
-0.00373292 -0.000278996 0.0
-0.00360191 -0.000315347 0.0
-0.00345506 -0.000351028 0.0
-0.0032927 -0.000385903 0.0
-0.00311524 -0.000419818 0.0
-0.00292313 -0.000452601 0.0
-0.00271694 -0.000484061 0.0
-0.00249729 -0.000513984 0.0
-0.00226492 -0.000542137 0.0
-0.00202068 -0.000568264 0.0
-0.00176552 -0.000592088 0.0
-0.00150053 -0.000613314 0.0
-0.00122693 -0.00063163 0.0
-0.000946089 -0.000646683 0.0
-0.000659666 -0.000657439 0.0
-0.000371866 -0.000652461 0.0
-0.000114219 -0.000508988 0.0
0.000114219 0.000508988 0.0
0.000113781 -0.000726381 0.0
-0.000113781 0.000726381 0.0
-0.000370796 0.000926863 0.0
-0.000658244 0.000934119 0.0
-0.000944394 0.000919515 0.0
-0.00122508 0.000898997 0.0
-0.00149869 0.000873981 0.0
-0.00176391 0.000844938 0.0
-0.00201955 0.000812277 0.0
-0.00226457 0.000776384 0.0
-0.00249803 0.000737619 0.0
-0.0027191 0.000696317 0.0
-0.00292706 0.00065278 0.0
-0.00312126 0.000607288 0.0
-0.00330115 0.00056009 0.0
-0.00346624 0.00051141 0.0
-0.00361611 0.000461451 0.0
-0.00375041 0.000410394 0.0
-0.00386882 0.0003584 0.0
-0.00397108 0.000305615 0.0
-0.00405698 0.000252169 0.0
-0.00412632 0.000198181 0.0
-0.00417897 0.000143761 0.0
-0.0042148 8.90108e-05 0.0
-0.00423373 3.40266e-05 0.0
-0.00423571 -2.10972e-05 0.0
-0.00422071 -7.62673e-05 0.0
-0.00418872 -0.000131388 0.0
-0.00413978 -0.000186361 0.0
-0.00407395 -0.000241079 0.0
-0.00399132 -0.000295428 0.0
-0.00389202 -0.000349281 0.0
-0.00377623 -0.000402499 0.0
-0.00364416 -0.000454926 0.0
-0.00349607 -0.000506384 0.0
-0.0033323 -0.000556679 0.0
-0.00315322 -0.000605588 0.0
-0.00295929 -0.000652864 0.0
-0.00275105 -0.000698231 0.0
-0.00252913 -0.000741383 0.0
-0.00229425 -0.000781982 0.0
-0.00204725 -0.000819659 0.0
-0.00178909 -0.000854015 0.0
-0.00152085 -0.00088462 0.0
-0.00124375 -0.000911022 0.0
-0.000959173 -0.000932708 0.0
-0.000668809 -0.000948202 0.0
-0.000376937 -0.000941369 0.0
-0.000115728 -0.000738936 0.0
0.000115728 0.000738936 0.0
0.000115647 -0.000955809 0.0
-0.000115647 0.000955809 0.0
-0.00037703 0.00121583 0.0
-0.000669442 0.00122501 0.0
-0.000960401 0.00120574 0.0
-0.00124565 0.00117871 0.0
-0.00152354 0.00114577 0.0
-0.00179274 0.00110757 0.0
-0.00205208 0.00106463 0.0
-0.00230049 0.00101747 0.0
-0.00253706 0.000966559 0.0
-0.00276095 0.000912344 0.0
-0.00297146 0.00085522 0.0
-0.00316797 0.000795551 0.0
-0.00334992 0.000733663 0.0
-0.00351684 0.000669851 0.0
-0.00366833 0.000604377 0.0
-0.00380404 0.000537478 0.0
-0.00392368 0.000469363 0.0
-0.00402699 0.000400222 0.0
-0.00411375 0.000330224 0.0
-0.00418381 0.000259523 0.0
-0.004237 0.000188262 0.0
-0.00427323 0.000116572 0.0
-0.00429241 4.45779e-05 0.0
-0.00429448 -2.75977e-05 0.0
-0.00427942 -9.98343e-05 0.0
-0.00424722 -0.000172009 0.0
-0.00419791 -0.000243992 0.0
-0.00413154 -0.000315648 0.0
-0.0040482 -0.000386827 0.0
-0.00394801 -0.000457366 0.0
-0.00383113 -0.000527083 0.0
-0.00369777 -0.000595776 0.0
-0.00354817 -0.000663216 0.0
-0.00338265 -0.000729146 0.0
-0.00320158 -0.000793279 0.0
-0.00300539 -0.000855292 0.0
-0.0027946 -0.000914824 0.0
-0.00256984 -0.000971474 0.0
-0.00233181 -0.0010248 0.0
-0.00208133 -0.00107432 0.0
-0.00181936 -0.00111949 0.0
-0.00154698 -0.00115977 0.0
-0.00126541 -0.00119454 0.0
-0.000976058 -0.00122312 0.0
-0.000680639 -0.00124357 0.0
-0.00038354 -0.00123497 0.0
-0.000117711 -0.000972375 0.0
0.000117711 0.000972375 0.0
0.000118075 -0.00118953 0.0
-0.000118075 0.00118953 0.0
-0.000385065 0.00151048 0.0
-0.000683781 0.00152148 0.0
-0.000980842 0.00149728 0.0
-0.00127187 0.00146343 0.0
-0.00155518 0.00142226 0.0
-0.00182944 0.00137455 0.0
-0.00209344 0.00132099 0.0
-0.00234615 0.00126223 0.0
-0.00258664 0.00119885 0.0
-0.0028141 0.00113141 0.0
-0.00302784 0.0010604 0.0
-0.00322724 0.000986275 0.0
-0.00341179 0.000909432 0.0
-0.00358102 0.000830237 0.0
-0.00373455 0.000749013 0.0
-0.00387205 0.00066605 0.0
-0.00399322 0.000581604 0.0
-0.00409784 0.000495908 0.0
-0.00418571 0.000409168 0.0
-0.00425665 0.000321573 0.0
-0.00431054 0.000233295 0.0
-0.00434726 0.000144493 0.0
-0.00436675 5.53197e-05 0.0
-0.00436894 -3.40776e-05 0.0
-0.0043538 -0.000123553 0.0
-0.00432134 -0.000212956 0.0
-0.00427156 -0.000302133 0.0
-0.00420452 -0.000390916 0.0
-0.00412029 -0.000479125 0.0
-0.00401899 -0.000566561 0.0
-0.00390075 -0.000653003 0.0
-0.00376577 -0.000738202 0.0
-0.00361427 -0.000821879 0.0
-0.00344656 -0.00090372 0.0
-0.00326297 -0.00098337 0.0
-0.00306393 -0.00106043 0.0
-0.00284994 -0.00113446 0.0
-0.00262158 -0.00120495 0.0
-0.00237957 -0.00127137 0.0
-0.0021247 -0.0013331 0.0
-0.0018579 -0.00138948 0.0
-0.00158028 -0.0014398 0.0
-0.00129305 -0.0014833 0.0
-0.000997633 -0.00151912 0.0
-0.000695796 -0.00154483 0.0
-0.000392051 -0.00153456 0.0
-0.00012029 -0.00121038 0.0
0.00012029 0.00121038 0.0
0.000121089 -0.00142869 0.0
-0.000121089 0.00142869 0.0
-0.000394981 0.0018122 0.0
-0.000701403 0.0018249 0.0
-0.00100591 0.00179543 0.0
-0.00130398 0.00175438 0.0
-0.0015939 0.00170454 0.0
-0.0018743 0.00164691 0.0
-0.00214397 0.00158231 0.0
-0.00240188 0.00151153 0.0
-0.00264712 0.00143528 0.0
-0.00287891 0.00135423 0.0
-0.00309655 0.00126897 0.0
-0.00329946 0.00118003 0.0
-0.00348714 0.0010879 0.0
-0.00365916 0.000993016 0.0
-0.00381515 0.000895751 0.0
-0.00395479 0.000796449 0.0
-0.00407783 0.000695415 0.0
-0.00418403 0.00059292 0.0
-0.00427321 0.000489206 0.0
-0.00434523 0.000384494 0.0
-0.00439995 0.000278982 0.0
-0.00443728 0.000172858 0.0
-0.00445713 6.62972e-05 0.0
-0.00445947 -4.05298e-05 0.0
-0.00444425 -0.000147454 0.0
-0.00441147 -0.000254302 0.0
-0.00436114 -0.000360895 0.0
-0.00429329 -0.000467038 0.0
-0.004208 -0.000572523 0.0
-0.00410535 -0.000677116 0.0
-0.00398548 -0.00078056 0.0
-0.00384855 -0.000882561 0.0
-0.00369477 -0.000982793 0.0
-0.00352441 -0.00108088 0.0
-0.00333779 -0.00117641 0.0
-0.00313531 -0.00126891 0.0
-0.00291744 -0.00135784 0.0
-0.00268475 -0.00144261 0.0
-0.0024379 -0.00152257 0.0
-0.0021777 -0.00159697 0.0
-0.00190505 -0.00166503 0.0
-0.00162104 -0.00172588 0.0
-0.00132692 -0.00177858 0.0
-0.00102411 -0.00182206 0.0
-0.000714437 -0.0018534 0.0
-0.000402561 -0.00184161 0.0
-0.000123491 -0.00145416 0.0
0.000123491 0.00145416 0.0
0.000124713 -0.0016745 0.0
-0.000124713 0.0016745 0.0
-0.000406863 0.00212244 0.0
-0.000722455 0.00213668 0.0
-0.00103581 0.00210152 0.0
-0.00134223 0.00205278 0.0
-0.00163996 0.00199378 0.0
-0.00192761 0.0019257 0.0
-0.00220397 0.00184955 0.0
-0.00246801 0.00176624 0.0
-0.00271884 0.00167664 0.0
-0.00295569 0.00158151 0.0
-0.00317791 0.00148155 0.0
-0.00338494 0.00137739 0.0
-0.00357629 0.00126958 0.0
-0.00375157 0.00115863 0.0
-0.00391043 0.00104498 0.0
-0.00405258 0.000929014 0.0
-0.00417778 0.000811085 0.0
-0.00428583 0.000691501 0.0
-0.00437655 0.000570538 0.0
-0.00444982 0.000448444 0.0
-0.00450551 0.000325445 0.0
-0.00454354 0.00020175 0.0
-0.00456384 7.75565e-05 0.0
-0.00456635 -4.69458e-05 0.0
-0.00455103 -0.000171567 0.0
-0.00451789 -0.000296115 0.0
-0.00446692 -0.000420387 0.0
-0.00439814 -0.000544166 0.0
-0.00431161 -0.000667216 0.0
-0.00420741 -0.000789275 0.0
-0.00408564 -0.000910049 0.0
-0.00394643 -0.00102921 0.0
-0.00378999 -0.00114637 0.0
-0.00361655 -0.00126111 0.0
-0.00342639 -0.00137296 0.0
-0.00321988 -0.00148135 0.0
-0.00299747 -0.00158568 0.0
-0.00275968 -0.00168525 0.0
-0.00250716 -0.00177929 0.0
-0.00224068 -0.00186694 0.0
-0.00196113 -0.00194726 0.0
-0.00166959 -0.0020192 0.0
-0.0013673 -0.00208167 0.0
-0.00105573 -0.00213336 0.0
-0.000736729 -0.00217078 0.0
-0.000415166 -0.00215766 0.0
-0.000127345 -0.00170499 0.0
0.000127345 0.00170499 0.0
0.000128981 -0.00192819 0.0
-0.000128981 0.00192819 0.0
-0.000420816 0.00244273 0.0
-0.000747118 0.00245828 0.0
-0.00107078 0.00241693 0.0
-0.0013869 0.00235992 0.0
-0.00169368 0.00229115 0.0
-0.00198971 0.00221201 0.0
-0.00227379 0.00212368 0.0
-0.0025449 0.00202726 0.0
-0.00280216 0.00192372 0.0
-0.00304484 0.00181396 0.0
-0.00327231 0.00169878 0.0
-0.00348404 0.00157891 0.0
-0.00367959 0.00145497 0.0
-0.00385859 0.00132752 0.0
-0.00402073 0.00119708 0.0
-0.00416574 0.00106407 0.0
-0.00429341 0.000928896 0.0
-0.00440356 0.00079189 0.0
-0.00449605 0.000653361 0.0
-0.00457074 0.000513583 0.0
-0.00462754 0.000372804 0.0
-0.00466637 0.000231253 0.0
-0.00468717 8.91442e-05 0.0
-0.00468988 -5.33146e-05 0.0
-0.00467447 -0.000195918 0.0
-0.00464092 -0.000338457 0.0
-0.00458923 -0.00048071 0.0
-0.00451941 -0.000622442 0.0
-0.00443148 -0.000763392 0.0
-0.00432552 -0.000903272 0.0
-0.00420159 -0.00104176 0.0
-0.00405981 -0.00117848 0.0
-0.00390034 -0.00131301 0.0
-0.00372338 -0.00144488 0.0
-0.00352918 -0.00157355 0.0
-0.00331807 -0.00169838 0.0
-0.00309045 -0.00181868 0.0
-0.00284682 -0.00193367 0.0
-0.00258778 -0.00204244 0.0
-0.00231406 -0.002144 0.0
-0.00202654 -0.00223726 0.0
-0.00172628 -0.00232101 0.0
-0.00141451 -0.00239392 0.0
-0.00109274 -0.00245446 0.0
-0.000762876 -0.00249854 0.0
-0.000429988 -0.00248435 0.0
-0.000131888 -0.00196422 0.0
0.000131888 0.00196422 0.0
0.000133933 -0.00219111 0.0
-0.000133933 0.00219111 0.0
-0.00043697 0.00277469 0.0
-0.000775606 0.00279126 0.0
-0.00111109 0.00274309 0.0
-0.00143833 0.00267712 0.0
-0.00175545 0.00259785 0.0
-0.00206103 0.00250692 0.0
-0.00235388 0.0024057 0.0
-0.00263299 0.00229546 0.0
-0.00289753 0.00217732 0.0
-0.00314678 0.0020523 0.0
-0.00338017 0.00192131 0.0
-0.0035972 0.00178515 0.0
-0.00379747 0.00164455 0.0
-0.00398065 0.00150012 0.0
-0.00414646 0.00135243 0.0
-0.00429467 0.00120195 0.0
-0.00442511 0.00104912 0.0
-0.00453761 0.000894317 0.0
-0.00463206 0.000737865 0.0
-0.00470835 0.000580061 0.0
-0.0047664 0.000421174 0.0
-0.00480613 0.000261447 0.0
-0.00482749 0.000101108 0.0
-0.00483044 -5.96226e-05 0.0
-0.00481493 -0.000220527 0.0
-0.00478094 -0.000381384 0.0
-0.00472845 -0.000541959 0.0
-0.00465747 -0.000701999 0.0
-0.004568 -0.000861226 0.0
-0.00446008 -0.00101933 0.0
-0.00433375 -0.00117596 0.0
-0.00418911 -0.0013307 0.0
-0.00402626 -0.00148311 0.0
-0.00384536 -0.00163264 0.0
-0.00364664 -0.00177871 0.0
-0.00343036 -0.00192061 0.0
-0.00319688 -0.00205755 0.0
-0.00294665 -0.00218866 0.0
-0.00268023 -0.00231291 0.0
-0.00239831 -0.00242917 0.0
-0.00210174 -0.00253619 0.0
-0.00179154 -0.00263255 0.0
-0.00146895 -0.00271672 0.0
-0.00113549 -0.00278689 0.0
-0.000793126 -0.00283833 0.0
-0.000447172 -0.00282341 0.0
-0.000137166 -0.00223328 0.0
0.000137166 0.00223328 0.0
0.000139619 -0.00246466 0.0
-0.000139619 0.00246466 0.0
-0.000455479 0.00312003 0.0
-0.000808177 0.00313725 0.0
-0.0011571 0.00308151 0.0
-0.00149691 0.00300575 0.0
-0.00182569 0.00291513 0.0
-0.00214202 0.00281155 0.0
-0.00244471 0.00269661 0.0
-0.00273278 0.00257174 0.0
-0.00300544 0.00243823 0.0
-0.00326203 0.00229722 0.0
-0.003502 0.00214974 0.0
-0.00372491 0.00199667 0.0
-0.00393041 0.0018388 0.0
-0.00411821 0.00167684 0.0
-0.00428808 0.00151138 0.0
-0.00443983 0.00134296 0.0
-0.00457331 0.00117203 0.0
-0.0046884 0.000999007 0.0
-0.00478502 0.000824234 0.0
-0.00486306 0.000648028 0.0
-0.00492248 0.000470669 0.0
-0.00496321 0.000292413 0.0
-0.0049852 0.000113496 0.0
-0.00498841 -6.58533e-05 0.0
-0.00497281 -0.000245411 0.0
-0.00493835 -0.000424946 0.0
-0.00488501 -0.000604217 0.0
-0.00481278 -0.00078296 0.0
-0.00472163 -0.000960883 0.0
-0.00461157 -0.00113766 0.0
-0.00448262 -0.0013129 0.0
-0.00433482 -0.00148619 0.0
-0.00416825 -0.00165703 0.0
-0.00398303 -0.00182484 0.0
-0.0037793 -0.00198896 0.0
-0.0035573 -0.00214863 0.0
-0.00331732 -0.00230298 0.0
-0.00305975 -0.00245102 0.0
-0.0027851 -0.00259161 0.0
-0.00249401 -0.00272348 0.0
-0.00218726 -0.00284519 0.0
-0.00186587 -0.00295514 0.0
-0.00153106 -0.00305153 0.0
-0.00118435 -0.00313226 0.0
-0.000827771 -0.0031919 0.0
-0.000466897 -0.00317667 0.0
-0.000143237 -0.00251368 0.0
0.000143237 0.00251368 0.0
0.000146097 -0.00275037 0.0
-0.000146097 0.00275037 0.0
-0.000476527 0.00348061 0.0
-0.000845133 0.00349798 0.0
-0.00120919 0.00343376 0.0
-0.00156311 0.00334723 0.0
-0.00190493 0.00324426 0.0
-0.00223323 0.00312705 0.0
-0.00254685 0.00299742 0.0
-0.00284485 0.00285701 0.0
-0.00312649 0.00270726 0.0
-0.00339115 0.00254944 0.0
-0.00363835 0.00238469 0.0
-0.00386771 0.00221399 0.0
-0.00407894 0.00203821 0.0
-0.00427179 0.00185809 0.0
-0.00444609 0.0016743 0.0
-0.00460169 0.0014874 0.0
-0.00473849 0.00129788 0.0
-0.00485641 0.00110617 0.0
-0.00495537 0.000912645 0.0
-0.00503533 0.000717625 0.0
-0.00509625 0.0005214 0.0
-0.00513806 0.000324231 0.0
-0.00516075 0.000126359 0.0
-0.00516427 -7.19864e-05 0.0
-0.00514857 -0.000270578 0.0
-0.00511363 -0.000469185 0.0
-0.00505938 -0.00066756 0.0
-0.0049858 -0.000865436 0.0
-0.00489285 -0.00106251 0.0
-0.00478049 -0.00125844 0.0
-0.00464871 -0.00145284 0.0
-0.00449751 -0.00164525 0.0
-0.00432691 -0.00183514 0.0
-0.00413697 -0.0020219 0.0
-0.00392779 -0.00220481 0.0
-0.00369953 -0.00238305 0.0
-0.00345242 -0.00255566 0.0
-0.00318678 -0.00272155 0.0
-0.00290304 -0.00287947 0.0
-0.00260178 -0.00302798 0.0
-0.00228374 -0.00316547 0.0
-0.00194987 -0.00329011 0.0
-0.00160138 -0.00339986 0.0
-0.00123978 -0.00349225 0.0
-0.000867159 -0.0035611 0.0
-0.000489372 -0.00354613 0.0
-0.000150168 -0.00280709 0.0
0.000150168 0.00280709 0.0
0.000153438 -0.00304991 0.0
-0.000153438 0.00304991 0.0
-0.000500334 0.0038584 0.0
-0.000886827 0.00387529 0.0
-0.00126782 0.0038015 0.0
-0.00163745 0.00370304 0.0
-0.00199374 0.00358656 0.0
-0.00233528 0.00345458 0.0
-0.00266094 0.00330917 0.0
-0.00296984 0.00315217 0.0
-0.0032613 0.00298519 0.0
-0.00353478 0.00280964 0.0
-0.00378986 0.00262677 0.0
-0.00402624 0.00243765 0.0
-0.00424367 0.00224321 0.0
-0.00444199 0.00204426 0.0
-0.00462107 0.00184151 0.0
-0.00478083 0.00163555 0.0
-0.0049212 0.0014269 0.0
-0.00504215 0.00121602 0.0
-0.00514365 0.00100327 0.0
-0.00522567 0.000788986 0.0
-0.00528819 0.00057347 0.0
-0.00533119 0.000356978 0.0
-0.00535464 0.000139746 0.0
-0.0053585 -7.79978e-05 0.0
-0.00534273 -0.000296033 0.0
-0.00530727 -0.00051413 0.0
-0.00525208 -0.000732048 0.0
-0.00517709 -0.000949519 0.0
-0.00508223 -0.00116624 0.0
-0.00496743 -0.00138187 0.0
-0.00483264 -0.00159599 0.0
-0.0046778 -0.00180814 0.0
-0.00450288 -0.00201777 0.0
-0.00430787 -0.00222422 0.0
-0.0040928 -0.00242673 0.0
-0.00385776 -0.00262442 0.0
-0.0036029 -0.00281626 0.0
-0.00332846 -0.00300104 0.0
-0.00303478 -0.00317739 0.0
-0.00272237 -0.00334373 0.0
-0.00239188 -0.00349825 0.0
-0.00204421 -0.00363888 0.0
-0.00168052 -0.00376329 0.0
-0.0013023 -0.00386865 0.0
-0.000911694 -0.00394792 0.0
-0.000514849 -0.00393393 0.0
-0.00015804 -0.00311529 0.0
0.00015804 0.00311529 0.0
0.000161728 -0.00336507 0.0
-0.000161728 0.00336507 0.0
-0.000527156 0.00425556 0.0
-0.000933671 0.00427114 0.0
-0.00133351 0.00418648 0.0
-0.00172056 0.00407474 0.0
-0.0020928 0.0039434 0.0
-0.00244887 0.00379534 0.0
-0.0027877 0.0036329 0.0
-0.00310849 0.00345813 0.0
-0.00341063 0.00327282 0.0
-0.00369365 0.00307852 0.0
-0.00395725 0.00287657 0.0
-0.00420117 0.00266814 0.0
-0.00442527 0.00245424 0.0
-0.00462944 0.00223572 0.0
-0.00481364 0.00201333 0.0
-0.00497784 0.00178768 0.0
-0.00512202 0.00155933 0.0
-0.00524621 0.00132872 0.0
-0.0053504 0.00109625 0.0
-0.00543462 0.000862239 0.0
-0.00549886 0.000626981 0.0
-0.00554312 0.000390729 0.0
-0.00556739 0.00015371 0.0
-0.00557164 -8.38589e-05 0.0
-0.00555581 -0.000321769 0.0
-0.00551985 -0.000559803 0.0
-0.00546369 -0.000797729 0.0
-0.00538723 -0.00103529 0.0
-0.00529038 -0.00127219 0.0
-0.00517302 -0.00150807 0.0
-0.00503506 -0.00174255 0.0
-0.00487637 -0.00197512 0.0
-0.00469686 -0.00220523 0.0
-0.00449645 -0.00243218 0.0
-0.00427509 -0.00265519 0.0
-0.00403278 -0.00287331 0.0
-0.00376958 -0.00308543 0.0
-0.00348563 -0.00329026 0.0
-0.00318117 -0.0034863 0.0
-0.0028566 -0.00367181 0.0
-0.0025125 -0.00384476 0.0
-0.00214966 -0.00400287 0.0
-0.00176918 -0.00414347 0.0
-0.00137252 -0.00426334 0.0
-0.000961853 -0.00435451 0.0
-0.000543623 -0.00434243 0.0
-0.00016695 -0.00344028 0.0
0.00016695 0.00344028 0.0
0.000171067 -0.00369787 0.0
-0.000171067 0.00369787 0.0
-0.000557294 0.00467442 0.0
-0.000986144 0.00468764 0.0
-0.00140688 0.00459056 0.0
-0.00181312 0.00446394 0.0
-0.00220286 0.00431619 0.0
-0.0025748 0.00415055 0.0
-0.00292795 0.00396967 0.0
-0.00326161 0.00377581 0.0
-0.00357527 0.00357093 0.0
-0.00386857 0.00335673 0.0
-0.00414128 0.00313466 0.0
-0.00439327 0.00290597 0.0
-0.00462447 0.00267172 0.0
-0.00483488 0.00243282 0.0
-0.0050245 0.00219005 0.0
-0.00519339 0.00194405 0.0
-0.0053416 0.00169537 0.0
-0.0054692 0.00144447 0.0
-0.00557624 0.00119174 0.0
-0.00566278 0.000937499 0.0
-0.00572884 0.000682025 0.0
-0.00577445 0.000425556 0.0
-0.0057996 0.000168304 0.0
-0.00580427 -8.95362e-05 0.0
-0.00578842 -0.000347773 0.0
-0.00575197 -0.00060621 0.0
-0.00569482 -0.000864632 0.0
-0.00561686 -0.0011228 0.0
-0.00551796 -0.00138043 0.0
-0.00539795 -0.00163719 0.0
-0.00525668 -0.00189267 0.0
-0.00509397 -0.0021464 0.0
-0.00490964 -0.00239778 0.0
-0.00470354 -0.00264614 0.0
-0.00447552 -0.00289062 0.0
-0.00422548 -0.00313024 0.0
-0.00395337 -0.00336382 0.0
-0.00365922 -0.00358999 0.0
-0.00334314 -0.00380711 0.0
-0.00300542 -0.00401328 0.0
-0.00264651 -0.0042063 0.0
-0.00226709 -0.00438359 0.0
-0.00186817 -0.00454216 0.0
-0.00145115 -0.00467833 0.0
-0.00101819 -0.00478315 0.0
-0.00057604 -0.00477416 0.0
-0.000177014 -0.00378425 0.0
0.000177014 0.00378425 0.0
0.000181573 -0.00405051 0.0
-0.000181573 0.00405051 0.0
-0.000591102 0.00511753 0.0
-0.0010448 0.00512707 0.0
-0.00148863 0.0050157 0.0
-0.00191593 0.00487235 0.0
-0.00232479 0.00470638 0.0
-0.00271396 0.00452147 0.0
-0.00308261 0.00432055 0.0
-0.00343013 0.00410611 0.0
-0.00375613 0.0038803 0.0
-0.00406041 0.00364494 0.0
-0.00434283 0.00340159 0.0
-0.00460338 0.00315158 0.0
-0.00484209 0.00289603 0.0
-0.00505906 0.00263588 0.0
-0.0052544 0.00237194 0.0
-0.00542821 0.00210486 0.0
-0.00558064 0.0018352 0.0
-0.00571181 0.00156341 0.0
-0.00582183 0.00128986 0.0
-0.00591079 0.00101487 0.0
-0.00597877 0.000738688 0.0
-0.00602579 0.000461529 0.0
-0.00605189 0.00018358 0.0
-0.00605704 -9.49906e-05 0.0
-0.00604119 -0.000374021 0.0
-0.00600426 -0.000653343 0.0
-0.00594614 -0.00093277 0.0
-0.00586667 -0.00121209 0.0
-0.00576568 -0.00149104 0.0
-0.00564297 -0.0017693 0.0
-0.00549829 -0.0020465 0.0
-0.00533142 -0.00232215 0.0
-0.00514209 -0.00259568 0.0
-0.00493004 -0.00286638 0.0
-0.00469503 -0.00313339 0.0
-0.00443684 -0.00339569 0.0
-0.00415528 -0.00365203 0.0
-0.00385026 -0.00390096 0.0
-0.00352175 -0.00414072 0.0
-0.00316988 -0.00436926 0.0
-0.00279495 -0.00458416 0.0
-0.00239751 -0.00478258 0.0
-0.00197843 -0.00496117 0.0
-0.001539 -0.00511577 0.0
-0.00108133 -0.00523634 0.0
-0.000612508 -0.00523195 0.0
-0.000188368 -0.00414963 0.0
0.000188368 0.00414963 0.0
0.000193386 -0.00442547 0.0
-0.000193386 0.00442547 0.0
-0.00062899 0.0055877 0.0
-0.00111027 0.00559188 0.0
-0.00157953 0.00546399 0.0
-0.0020299 0.00530173 0.0
-0.00245954 0.00511549 0.0
-0.00286736 0.00490937 0.0
-0.00325268 0.00468661 0.0
-0.00361504 0.00444993 0.0
-0.00395423 0.00420167 0.0
-0.00427015 0.00394376 0.0
-0.00456284 0.00367788 0.0
-0.00483241 0.00340541 0.0
-0.00507901 0.00312752 0.0
-0.00530285 0.0028452 0.0
-0.00550414 0.00255924 0.0
-0.00568308 0.00227032 0.0
-0.0058399 0.00197898 0.0
-0.00597477 0.00168567 0.0
-0.00608788 0.00139073 0.0
-0.00617935 0.00109444 0.0
-0.00624931 0.000797046 0.0
-0.00629783 0.000498712 0.0
-0.00632493 0.000199594 0.0
-0.0063306 -0.000100177 0.0
-0.00631481 -0.000400478 0.0
-0.00627744 -0.000701179 0.0
-0.00621837 -0.00100213 0.0
-0.0061374 -0.00130316 0.0
-0.00603433 -0.00160404 0.0
-0.00590887 -0.00190448 0.0
-0.00576074 -0.00220413 0.0
-0.00558961 -0.00250253 0.0
-0.00539512 -0.00279912 0.0
-0.00517692 -0.00309319 0.0
-0.00493464 -0.00338388 0.0
-0.00466792 -0.00367012 0.0
-0.00437643 -0.00395064 0.0
-0.00405991 -0.00422389 0.0
-0.00371817 -0.00448803 0.0
-0.00335116 -0.00474083 0.0
-0.002959 -0.00497968 0.0
-0.00254205 -0.00520145 0.0
-0.002101 -0.00540243 0.0
-0.00163699 -0.00557795 0.0
-0.00115204 -0.00571677 0.0
-0.000653502 -0.00571888 0.0
-0.000201172 -0.00453917 0.0
0.000201172 0.00453917 0.0
0.000206671 -0.00482553 0.0
-0.000206671 0.00482553 0.0
-0.000671439 0.00608802 0.0
-0.00118329 0.0060847 0.0
-0.00168052 0.00593766 0.0
-0.00215604 0.00575395 0.0
-0.0026082 0.00554507 0.0
-0.00303613 0.00531554 0.0
-0.0034393 0.00506892 0.0
-0.00381749 0.00480817 0.0
-0.00417065 0.00453577 0.0
-0.00449887 0.0042538 0.0
-0.00480236 0.00396401 0.0
-0.00508136 0.00366785 0.0
-0.00533619 0.00336652 0.0
-0.00556717 0.00306102 0.0
-0.00577461 0.00275215 0.0
-0.00595885 0.00244059 0.0
-0.00612017 0.00212685 0.0
-0.00625885 0.00181135 0.0
-0.00637512 0.00149442 0.0
-0.00646919 0.00117629 0.0
-0.0065412 0.000857164 0.0
-0.00659126 0.000537165 0.0
-0.00661941 0.000216401 0.0
-0.00662568 -0.000105044 0.0
-0.00660999 -0.000427096 0.0
-0.00657224 -0.000749675 0.0
-0.00651227 -0.00107268 0.0
-0.00642985 -0.00139599 0.0
-0.00632471 -0.00171942 0.0
-0.00619653 -0.00204273 0.0
-0.00604494 -0.0023656 0.0
-0.0058695 -0.00268762 0.0
-0.00566978 -0.00300824 0.0
-0.00544527 -0.00332678 0.0
-0.00519548 -0.00364236 0.0
-0.00491991 -0.00395394 0.0
-0.00461804 -0.00426018 0.0
-0.00428944 -0.00455948 0.0
-0.00393372 -0.0048499 0.0
-0.0035506 -0.00512909 0.0
-0.00313998 -0.00539421 0.0
-0.00270199 -0.00564187 0.0
-0.00223708 -0.00586797 0.0
-0.00174619 -0.00606731 0.0
-0.00123116 -0.00622739 0.0
-0.000699579 -0.00623838 0.0
-0.000215616 -0.00495596 0.0
0.000215616 0.00495596 0.0
0.00022162 -0.00525382 0.0
-0.00022162 0.00525382 0.0
-0.000719004 0.00662188 0.0
-0.00126471 0.0066084 0.0
-0.00179261 0.00643907 0.0
-0.00229551 0.00623097 0.0
-0.00277201 0.00599672 0.0
-0.00322151 0.00574131 0.0
-0.00364374 0.00546857 0.0
-0.00403872 0.00518169 0.0
-0.00440663 0.00488331 0.0
-0.00474777 0.00457562 0.0
-0.00506252 0.00426043 0.0
-0.00535134 0.00393925 0.0
-0.00561467 0.00361329 0.0
-0.005853 0.00328355 0.0
-0.00606677 0.00295084 0.0
-0.00625641 0.00261579 0.0
-0.00642233 0.0022789 0.0
-0.00656488 0.00194054 0.0
-0.00668438 0.001601 0.0
-0.00678108 0.00126048 0.0
-0.00685519 0.000919095 0.0
-0.00690683 0.00057694 0.0
-0.00693611 0.000234057 0.0
-0.00694301 -0.000109532 0.0
-0.0069275 -0.000453812 0.0
-0.00688944 -0.000798767 0.0
-0.00682864 -0.00114436 0.0
-0.00674484 -0.00149052 0.0
-0.00663772 -0.00183714 0.0
-0.00650688 -0.00218403 0.0
-0.00635186 -0.00253093 0.0
-0.00617214 -0.00287746 0.0
-0.00596714 -0.00322313 0.0
-0.00573624 -0.00356729 0.0
-0.00547879 -0.00390909 0.0
-0.0051941 -0.00424748 0.0
-0.00488148 -0.00458111 0.0
-0.00454027 -0.00490836 0.0
-0.00416984 -0.00522718 0.0
-0.00376966 -0.00553511 0.0
-0.00333936 -0.00582912 0.0
-0.00287877 -0.00610554 0.0
-0.00238805 -0.00635992 0.0
-0.00186783 -0.00658647 0.0
-0.00131969 -0.00677139 0.0
-0.000751387 -0.00679427 0.0
-0.000231924 -0.0054035 0.0
0.000231924 0.0054035 0.0
0.000238459 -0.0057139 0.0
-0.000238459 0.0057139 0.0
-0.000772331 0.00719306 0.0
-0.0013555 0.0071661 0.0
-0.00191698 0.00697074 0.0
-0.00244961 0.00673482 0.0
-0.00295234 0.0064721 0.0
-0.00342491 0.00618799 0.0
-0.0038674 0.00588661 0.0
-0.00428012 0.00557134 0.0
-0.0046635 0.00524495 0.0
-0.00501812 0.00490973 0.0
-0.00534458 0.00456754 0.0
-0.00564352 0.0042199 0.0
-0.00591559 0.00386804 0.0
-0.00616142 0.00351295 0.0
-0.00638162 0.0031554 0.0
-0.00657674 0.00279599 0.0
-0.0067473 0.00243517 0.0
-0.00689375 0.00207327 0.0
-0.00701649 0.00171051 0.0
-0.00711585 0.00134702 0.0
-0.00719208 0.000982877 0.0
-0.00724535 0.000618083 0.0
-0.00727578 0.000252616 0.0
-0.0072834 -0.000113575 0.0
-0.00726813 -0.00048055 0.0
-0.00722985 -0.000848369 0.0
-0.00716834 -0.00121707 0.0
-0.00708328 -0.00158666 0.0
-0.00697429 -0.00195711 0.0
-0.0068409 -0.00232829 0.0
-0.00668256 -0.00270003 0.0
-0.00649862 -0.00307201 0.0
-0.0062884 -0.0034438 0.0
-0.0060511 -0.00381481 0.0
-0.0057859 -0.00418422 0.0
-0.00549192 -0.00455102 0.0
-0.00516825 -0.00491387 0.0
-0.00481396 -0.00527111 0.0
-0.00442815 -0.00562066 0.0
-0.00401001 -0.00595995 0.0
-0.00355881 -0.00628578 0.0
-0.00307403 -0.00659425 0.0
-0.00255544 -0.00688051 0.0
-0.00200329 -0.00713825 0.0
-0.00141876 -0.00735228 0.0
-0.000809681 -0.00739077 0.0
-0.000250358 -0.00588578 0.0
0.000250358 0.00588578 0.0
0.000257454 -0.00620981 0.0
-0.000257454 0.00620981 0.0
-0.000832166 0.00780573 0.0
-0.00145675 0.00776118 0.0
-0.00205497 0.00753538 0.0
-0.00261981 0.00726765 0.0
-0.00315072 0.00697291 0.0
-0.0036479 0.00665694 0.0
-0.00411184 0.0063241 0.0
-0.0045432 0.00597793 0.0
-0.00494275 0.00562131 0.0
-0.00531135 0.00525659 0.0
-0.00564988 0.00488566 0.0
-0.00595919 0.00451004 0.0
-0.00624016 0.00413094 0.0
-0.00649359 0.00374932 0.0
-0.00672026 0.0033659 0.0
-0.00692087 0.00298122 0.0
-0.00709606 0.00259569 0.0
-0.0072464 0.00220955 0.0
-0.00737236 0.00182295 0.0
-0.00747436 0.00143595 0.0
-0.00755271 0.00104853 0.0
-0.00760763 0.000660631 0.0
-0.00763927 0.000272135 0.0
-0.00764765 -0.000117097 0.0
-0.00763273 -0.000507214 0.0
-0.00759435 -0.000898365 0.0
-0.00753226 -0.00129068 0.0
-0.00744609 -0.00168427 0.0
-0.00733541 -0.00207917 0.0
-0.00719965 -0.00247538 0.0
-0.00703815 -0.00287279 0.0
-0.00685016 -0.00327118 0.0
-0.00663483 -0.0036702 0.0
-0.00639121 -0.00406933 0.0
-0.00611828 -0.00446784 0.0
-0.00581492 -0.00486474 0.0
-0.00547997 -0.00525877 0.0
-0.00511222 -0.00564825 0.0
-0.00471045 -0.00603109 0.0
-0.00427348 -0.00640464 0.0
-0.00380018 -0.00676559 0.0
-0.0032896 -0.0071098 0.0
-0.00274103 -0.00743211 0.0
-0.00215417 -0.00772567 0.0
-0.00152969 -0.00797386 0.0
-0.000875335 -0.00803262 0.0
-0.000271226 -0.00640736 0.0
0.000271226 0.00640736 0.0
0.000278913 -0.00674617 0.0
-0.000278913 0.00674617 0.0
-0.00089937 0.00846453 0.0
-0.00156972 0.00839731 0.0
-0.00220809 0.00813584 0.0
-0.00280776 0.0078317 0.0
-0.00336888 0.00750089 0.0
-0.00389222 0.00714949 0.0
-0.00437877 0.00678204 0.0
-0.00482964 0.00640221 0.0
-0.005246 0.00601294 0.0
-0.00562902 0.00561659 0.0
-0.0059799 0.00521505 0.0
-0.00629976 0.00480982 0.0
-0.00658971 0.00440207 0.0
-0.00685076 0.00399268 0.0
-0.00708387 0.00358232 0.0
-0.00728991 0.00317145 0.0
-0.00746966 0.0027604 0.0
-0.0076238 0.00234931 0.0
-0.00775292 0.00193827 0.0
-0.00785752 0.00152722 0.0
-0.00793796 0.00111605 0.0
-0.00799454 0.000704608 0.0
-0.00802741 0.000292666 0.0
-0.00803664 -0.000120014 0.0
-0.00802217 -0.000533689 0.0
-0.00798383 -0.000948614 0.0
-0.00792133 -0.00136503 0.0
-0.00783427 -0.00178315 0.0
-0.00772211 -0.00220313 0.0
-0.00758422 -0.00262508 0.0
-0.00741982 -0.00304899 0.0
-0.00722803 -0.00347476 0.0
-0.00700782 -0.00390216 0.0
-0.00675805 -0.00433075 0.0
-0.00647749 -0.00475991 0.0
-0.00616478 -0.00518875 0.0
-0.00581844 -0.00561604 0.0
-0.00543696 -0.0060402 0.0
-0.00501873 -0.00645913 0.0
-0.00456213 -0.00687017 0.0
-0.00406557 -0.00726992 0.0
-0.00352756 -0.00765407 0.0
-0.00294678 -0.00801719 0.0
-0.00232226 -0.00835196 0.0
-0.00165397 -0.00864035 0.0
-0.000949364 -0.0087251 0.0
-0.000294887 -0.00697347 0.0
0.000294887 0.00697347 0.0
0.000303194 -0.00732828 0.0
-0.000303194 0.00732828 0.0
-0.000974931 0.00917462 0.0
-0.00169585 0.00907849 0.0
-0.00237803 0.0087752 0.0
-0.00301532 0.0084293 0.0
-0.00360873 0.00805781 0.0
-0.00415979 0.00766697 0.0
-0.00467011 0.00726143 0.0
-0.00514131 0.0068449 0.0
-0.00557502 0.00642032 0.0
-0.00597283 0.00599004 0.0
-0.00633625 0.0055559 0.0
-0.00666674 0.00511933 0.0
-0.00696565 0.00468142 0.0
-0.00723424 0.00424297 0.0
-0.00747369 0.00380457 0.0
-0.00768502 0.00336657 0.0
-0.00786918 0.00292919 0.0
-0.008027 0.00249248 0.0
-0.00815916 0.00205639 0.0
-0.00826626 0.00162078 0.0
-0.00834875 0.00118542 0.0
-0.00840696 0.000750027 0.0
-0.0084411 0.000314263 0.0
-0.00845125 -0.000122233 0.0
-0.00843735 -0.000559839 0.0
-0.00839922 -0.000998937 0.0
-0.00833653 -0.0014399 0.0
-0.00824883 -0.00188305 0.0
-0.0081355 -0.00232871 0.0
-0.0079958 -0.00277709 0.0
-0.00782885 -0.00322833 0.0
-0.00763359 -0.00368248 0.0
-0.00740883 -0.00413941 0.0
-0.00715322 -0.00459886 0.0
-0.00686528 -0.00506031 0.0
-0.00654335 -0.005523 0.0
-0.00618565 -0.00598583 0.0
-0.00579027 -0.00644729 0.0
-0.00535517 -0.00690538 0.0
-0.00487823 -0.00735746 0.0
-0.0043573 -0.00780012 0.0
-0.00379022 -0.00822896 0.0
-0.00317494 -0.00863836 0.0
-0.00250964 -0.00902061 0.0
-0.00179331 -0.00935632 0.0
-0.00103294 -0.0094741 0.0
-0.000321763 -0.00759012 0.0
0.000321763 0.00759012 0.0
0.000330713 -0.00796219 0.0
-0.000330713 0.00796219 0.0
-0.00105998 0.00994172 0.0
-0.00183676 0.00980909 0.0
-0.0025667 0.00945673 0.0
-0.00324455 0.00906292 0.0
-0.00387243 0.00864548 0.0
-0.00445277 0.0082107 0.0
-0.00498796 0.0077632 0.0
-0.00548024 0.00730662 0.0
-0.00593178 0.00684385 0.0
-0.00634462 0.00637716 0.0
-0.00672069 0.00590827 0.0
-0.00706177 0.00543852 0.0
-0.00736953 0.00496889 0.0
-0.00764549 0.00450006 0.0
-0.00789105 0.00403248 0.0
-0.00810745 0.0035664 0.0
-0.0082958 0.00310188 0.0
-0.00845708 0.00263888 0.0
-0.00859211 0.00217719 0.0
-0.00870157 0.00171655 0.0
-0.00878601 0.00125659 0.0
-0.00884582 0.000796884 0.0
-0.00888124 0.000336974 0.0
-0.00889239 -0.000123649 0.0
-0.0088792 -0.000585505 0.0
-0.00884149 -0.00104912 0.0
-0.00877887 -0.00151501 0.0
-0.00869084 -0.00198367 0.0
-0.00857671 -0.00245555 0.0
-0.00843563 -0.00293103 0.0
-0.00826656 -0.00341042 0.0
-0.00806829 -0.00389392 0.0
-0.00783944 -0.00438158 0.0
-0.00757843 -0.0048733 0.0
-0.00728349 -0.00536875 0.0
-0.00695265 -0.00586732 0.0
-0.00658376 -0.00636809 0.0
-0.00617445 -0.00686971 0.0
-0.00572221 -0.0073703 0.0
-0.00522433 -0.00786735 0.0
-0.00467797 -0.00835751 0.0
-0.0040802 -0.00883641 0.0
-0.00342805 -0.00929834 0.0
-0.00271861 -0.00973537 0.0
-0.00194967 -0.0101268 0.0
-0.0011274 -0.0102862 0.0
-0.00035234 -0.00826423 0.0
0.00035234 0.00826423 0.0
0.00036195 -0.00865485 0.0
-0.00036195 0.00865485 0.0
-0.00115581 0.0107722 0.0
-0.00199426 0.0105938 0.0
-0.00277626 0.0101839 0.0
-0.00349777 0.00973509 0.0
-0.00416234 0.00926575 0.0
-0.00477354 0.00878198 0.0
-0.00533465 0.00828821 0.0
-0.00584868 0.00778792 0.0
-0.00631842 0.00728383 0.0
-0.00674643 0.00677804 0.0
-0.00713511 0.00627213 0.0
-0.00748663 0.00576727 0.0
-0.00780299 0.00526427 0.0
-0.00808603 0.00476368 0.0
-0.00833738 0.00426577 0.0
-0.00855852 0.00377065 0.0
-0.00875075 0.00327822 0.0
-0.0089152 0.00278827 0.0
-0.00905284 0.00230046 0.0
-0.00916447 0.00181436 0.0
-0.00925071 0.00132945 0.0
-0.00931205 0.000845156 0.0
-0.00934876 0.000360844 0.0
-0.00936099 -0.000124147 0.0
-0.00934868 -0.0006105 0.0
-0.00931161 -0.00109891 0.0
-0.00924939 -0.00159006 0.0
-0.00916143 -0.00208462 0.0
-0.00904695 -0.00258321 0.0
-0.00890499 -0.00308642 0.0
-0.00873436 -0.00359473 0.0
-0.00853369 -0.00410854 0.0
-0.00830136 -0.00462813 0.0
-0.00803554 -0.00515358 0.0
-0.00773416 -0.0056848 0.0
-0.00739488 -0.00622139 0.0
-0.00701512 -0.00676267 0.0
-0.00659205 -0.0073075 0.0
-0.00612255 -0.00785425 0.0
-0.00560325 -0.00840059 0.0
-0.0050305 -0.00894338 0.0
-0.00440042 -0.00947839 0.0
-0.00370893 -0.01 0.0
-0.00295181 -0.0105003 0.0
-0.00212527 -0.0109574 0.0
-0.00123431 -0.0111689 0.0
-0.000387187 -0.00900375 0.0
0.000387187 0.00900375 0.0
0.000397457 -0.00941426 0.0
-0.000397457 0.00941426 0.0
-0.00126389 0.0116731 0.0
-0.00217041 0.0114379 0.0
-0.00300908 0.0109605 0.0
-0.00377755 0.0104485 0.0
-0.00448113 0.00992048 0.0
-0.00512474 0.00938206 0.0
-0.00571277 0.00883726 0.0
-0.00624911 0.00828924 0.0
-0.00673729 0.00774042 0.0
-0.00718048 0.00719266 0.0
-0.00758159 0.00664729 0.0
-0.00794325 0.00610528 0.0
-0.00826784 0.00556722 0.0
-0.00855751 0.00503344 0.0
-0.0088142 0.00450405 0.0
-0.00903962 0.00397893 0.0
-0.0092353 0.00345783 0.0
-0.00940254 0.00294035 0.0
-0.00954246 0.00242595 0.0
-0.00965599 0.00191403 0.0
-0.00974386 0.0014039 0.0
-0.00980662 0.000894798 0.0
-0.00984461 0.000385912 0.0
-0.009858 -0.000123601 0.0
-0.00984675 -0.00063461 0.0
-0.00981061 -0.001148 0.0
-0.00974916 -0.00166465 0.0
-0.00966173 -0.00218542 0.0
-0.00954746 -0.00271116 0.0
-0.00940525 -0.00324264 0.0
-0.00923377 -0.00378061 0.0
-0.00903144 -0.00432567 0.0
-0.0087964 -0.00487836 0.0
-0.00852655 -0.00543902 0.0
-0.00821947 -0.00600783 0.0
-0.00787242 -0.00658469 0.0
-0.00748236 -0.00716919 0.0
-0.00704587 -0.00776054 0.0
-0.00655918 -0.0083574 0.0
-0.00601812 -0.0089578 0.0
-0.00541811 -0.00955893 0.0
-0.00475415 -0.0101569 0.0
-0.00402079 -0.0107464 0.0
-0.00321217 -0.0113196 0.0
-0.0023226 -0.0118541 0.0
-0.00135541 -0.0121303 0.0
-0.000426957 -0.0098179 0.0
0.000426957 0.0098179 0.0
0.000437868 -0.0102496 0.0
-0.000437868 0.0102496 0.0
-0.00138588 0.0126522 0.0
-0.0023675 0.0123469 0.0
-0.00326783 0.0117905 0.0
-0.00408676 0.0112059 0.0
-0.00483171 0.0106116 0.0
-0.00550928 0.0100122 0.0
-0.00612515 0.00941106 0.0
-0.00668426 0.00881089 0.0
-0.00719098 0.00821366 0.0
-0.00764919 0.00762083 0.0
-0.0080624 0.00703343 0.0
-0.00843372 0.00645212 0.0
-0.00876598 0.00587722 0.0
-0.0090617 0.00530882 0.0
-0.00932312 0.00474678 0.0
-0.00955224 0.00419075 0.0
-0.00975081 0.00364026 0.0
-0.00992034 0.00309469 0.0
-0.0100621 0.00255331 0.0
-0.0101772 0.0020153 0.0
-0.0102665 0.00147976 0.0
-0.0103305 0.000945736 0.0
-0.0103697 0.000412209 0.0
-0.0103844 -0.000121873 0.0
-0.0103744 -0.000657588 0.0
-0.0103395 -0.00119603 0.0
-0.0102793 -0.00173831 0.0
-0.0101929 -0.00228552 0.0
-0.0100795 -0.00283872 0.0
-0.00993784 -0.00339897 0.0
-0.00976635 -0.00396724 0.0
-0.00956328 -0.00454444 0.0
-0.00932651 -0.00513139 0.0
-0.00905361 -0.00572874 0.0
-0.0087418 -0.00633701 0.0
-0.0083879 -0.00695646 0.0
-0.00798831 -0.00758707 0.0
-0.00753899 -0.00822846 0.0
-0.00703539 -0.00887976 0.0
-0.00647244 -0.00953946 0.0
-0.00584443 -0.0102053 0.0
-0.00514503 -0.0108739 0.0
-0.00436718 -0.0115406 0.0
-0.00350302 -0.0121982 0.0
-0.00254449 -0.0128237 0.0
-0.00149272 -0.0131797 0.0
-0.000472406 -0.0107173 0.0
0.000472406 0.0107173 0.0
0.000483905 -0.0111714 0.0
-0.000483905 0.0111714 0.0
-0.00152363 0.0137182 0.0
-0.00258805 0.013327 0.0
-0.00355544 0.0126781 0.0
-0.00442854 0.0120103 0.0
-0.00521733 0.0113409 0.0
-0.00593039 0.0106734 0.0
-0.00657494 0.0100102 0.0
-0.00715713 0.00935306 0.0
-0.00768233 0.00870341 0.0
-0.00815523 0.0080622 0.0
-0.00858 0.00743004 0.0
-0.00896034 0.00680718 0.0
-0.00929953 0.00619362 0.0
-0.00960051 0.00558913 0.0
-0.00986589 0.00499327 0.0
-0.010098 0.00440544 0.0
-0.0102987 0.0038249 0.0
-0.0104699 0.00325077 0.0
-0.010613 0.0026821 0.0
-0.0107292 0.00211782 0.0
-0.0108195 0.00155681 0.0
-0.0108847 0.000997868 0.0
-0.0109251 0.000439755 0.0
-0.0109411 -0.000118812 0.0
-0.0109326 -0.000679152 0.0
-0.0108993 -0.0012426 0.0
-0.0108408 -0.00181051 0.0
-0.0107562 -0.00238424 0.0
-0.0106445 -0.00296513 0.0
-0.0105042 -0.00355451 0.0
-0.0103338 -0.00415365 0.0
-0.0101311 -0.0047638 0.0
-0.00989376 -0.00538611 0.0
-0.00961906 -0.00602162 0.0
-0.00930375 -0.00667125 0.0
-0.00894417 -0.00733571 0.0
-0.00853611 -0.00801547 0.0
-0.00807481 -0.00871069 0.0
-0.00755485 -0.00942109 0.0
-0.00697006 -0.0101459 0.0
-0.00631347 -0.0108835 0.0
-0.00557714 -0.0116314 0.0
-0.00475208 -0.012386 0.0
-0.00382805 -0.013141 0.0
-0.00279408 -0.0138734 0.0
-0.00164851 -0.0143273 0.0
-0.000524397 -0.0117141 0.0
0.000524397 0.0117141 0.0
0.000536389 -0.0121916 0.0
-0.000536389 0.0121916 0.0
-0.00167925 0.0148805 0.0
-0.00283489 0.0143848 0.0
-0.00387517 0.013628 0.0
-0.00480638 0.0128647 0.0
-0.00564155 0.0121105 0.0
-0.00639162 0.011367 0.0
-0.00706558 0.0106352 0.0
-0.00767104 0.00991576 0.0
-0.00821448 0.00920935 0.0
-0.00870153 0.00851621 0.0
-0.00913711 0.00783638 0.0
-0.00952556 0.00716962 0.0
-0.00987073 0.00651553 0.0
-0.010176 0.00587347 0.0
-0.0104443 0.00524266 0.0
-0.0106784 0.00462219 0.0
-0.0108805 0.004011 0.0
-0.0110526 0.00340795 0.0
-0.0111963 0.00281178 0.0
-0.0113132 0.00222118 0.0
-0.0114042 0.00163476 0.0
-0.0114701 0.00105105 0.0
-0.0115117 0.00046856 0.0
-0.0115291 -0.000114256 0.0
-0.0115223 -0.000698981 0.0
-0.0114911 -0.00128722 0.0
-0.0114349 -0.00188062 0.0
-0.0113528 -0.0024808 0.0
-0.0112437 -0.00308944 0.0
-0.011106 -0.00370818 0.0
-0.0109378 -0.00433865 0.0
-0.0107368 -0.00498246 0.0
-0.0105004 -0.00564117 0.0
-0.0102254 -0.00631627 0.0
-0.00990813 -0.00700917 0.0
-0.00954437 -0.00772113 0.0
-0.00912922 -0.00845324 0.0
-0.00865711 -0.00920633 0.0
-0.00812159 -0.00998093 0.0
-0.00751528 -0.0107771 0.0
-0.00682969 -0.0115944 0.0
-0.006055 -0.0124315 0.0
-0.00517991 -0.0132861 0.0
-0.00419136 -0.0141535 0.0
-0.0030749 -0.0150113 0.0
-0.00182533 -0.0155845 0.0
-0.000583919 -0.0128224 0.0
0.000583919 0.0128224 0.0
0.000596252 -0.0133243 0.0
-0.000596252 0.0133243 0.0
-0.00185505 0.0161495 0.0
-0.00311108 0.0155274 0.0
-0.00423055 0.0146451 0.0
-0.00522408 0.0137723 0.0
-0.00610831 0.0129223 0.0
-0.00689688 0.0120939 0.0
-0.00760091 0.0112863 0.0
-0.00822964 0.0104988 0.0
-0.00879086 0.00973095 0.0
-0.00929128 0.00898207 0.0
-0.00973668 0.0082515 0.0
-0.0101321 0.0075384 0.0
-0.010482 0.00684183 0.0
-0.0107903 0.00616072 0.0
-0.0110605 0.00549387 0.0
-0.0112954 0.00483998 0.0
-0.0114977 0.00419765 0.0
-0.0116698 0.00356541 0.0
-0.0118134 0.00294169 0.0
-0.0119301 0.00232486 0.0
-0.0120213 0.00171324 0.0
-0.0120879 0.00110509 0.0
-0.0121304 0.000498611 0.0
-0.0121493 -0.00010803 0.0
-0.0121445 -0.00071671 0.0
-0.0121159 -0.00132934 0.0
-0.0120627 -0.00194787 0.0
-0.0119841 -0.00257428 0.0
-0.0118786 -0.00321055 0.0
-0.0117447 -0.00385872 0.0
-0.0115802 -0.00452081 0.0
-0.0113826 -0.00519886 0.0
-0.0111488 -0.00589492 0.0
-0.0108754 -0.00661099 0.0
-0.010558 -0.00734908 0.0
-0.0101919 -0.0081111 0.0
-0.00977144 -0.0088989 0.0
-0.00929003 -0.00971419 0.0
-0.00874012 -0.0105585 0.0
-0.00811288 -0.0114331 0.0
-0.00739804 -0.0123389 0.0
-0.00658361 -0.0132762 0.0
-0.00565556 -0.0142445 0.0
-0.00459748 -0.0152416 0.0
-0.00339083 -0.0162463 0.0
-0.00202607 -0.0169639 0.0
-0.000652099 -0.0140584 0.0
0.000652099 0.0140584 0.0
0.000664546 -0.0145851 0.0
-0.000664546 0.0145851 0.0
-0.0020536 0.0175365 0.0
-0.00341997 0.0167628 0.0
-0.00462542 0.0157347 0.0
-0.0056858 0.0147367 0.0
-0.00662187 0.0137782 0.0
-0.00745046 0.0128551 0.0
-0.0081851 0.0119638 0.0
-0.00883694 0.0111019 0.0
-0.00941529 0.0102674 0.0
-0.00992803 0.00945874 0.0
-0.010382 0.00867416 0.0
-0.010783 0.00791217 0.0
-0.0111361 0.00717116 0.0
-0.011446 0.00644953 0.0
-0.0117164 0.00574558 0.0
-0.0119508 0.00505759 0.0
-0.0121521 0.00438374 0.0
-0.0123229 0.00372218 0.0
-0.0124654 0.00307099 0.0
-0.0125813 0.00242821 0.0
-0.0126721 0.00179182 0.0
-0.0127388 0.00115975 0.0
-0.0127821 0.000529879 0.0
-0.0128026 -9.99445e-05 0.0
-0.0128002 -0.000731928 0.0
-0.0127747 -0.00136832 0.0
-0.0127253 -0.00201142 0.0
-0.0126511 -0.00266357 0.0
-0.0125507 -0.00332716 0.0
-0.0124221 -0.00400462 0.0
-0.012263 -0.00469845 0.0
-0.0120707 -0.00541117 0.0
-0.0118417 -0.00614538 0.0
-0.0115719 -0.00690372 0.0
-0.0112568 -0.00768887 0.0
-0.0108906 -0.00850356 0.0
-0.0104669 -0.00935057 0.0
-0.00997818 -0.0102327 0.0
-0.00941539 -0.0111527 0.0
-0.00876811 -0.0121134 0.0
-0.00802399 -0.0131175 0.0
-0.0071685 -0.0141674 0.0
-0.00618441 -0.0152654 0.0
-0.0050514 -0.0164119 0.0
-0.00374616 -0.0175879 0.0
-0.00225392 -0.0184793 0.0
-0.000730214 -0.0154407 0.0
0.000730214 0.0154407 0.0
0.000742453 -0.0159921 0.0
-0.000742453 0.0159921 0.0
-0.00227775 0.0190539 0.0
-0.00376519 0.0180992 0.0
-0.00506395 0.0169025 0.0
-0.00619602 0.0157614 0.0
-0.00718692 0.0146805 0.0
-0.00805706 0.0136515 0.0
-0.00882278 0.0126677 0.0
-0.00949739 0.0117244 0.0
-0.0100919 0.0108178 0.0
-0.0106157 0.00994487 0.0
-0.0110766 0.00910285 0.0
-0.0114814 0.00828928 0.0
-0.011836 0.00750183 0.0
-0.0121455 0.00673822 0.0
-0.0124144 0.0059962 0.0
-0.0126466 0.00527352 0.0
-0.0128453 0.0045679 0.0
-0.0130136 0.00387708 0.0
-0.0131537 0.00319871 0.0
-0.0132678 0.00253046 0.0
-0.0133574 0.00186994 0.0
-0.0134238 0.00121471 0.0
-0.0134678 0.000562303 0.0
-0.0134899 -8.98003e-05 0.0
-0.0134902 -0.00074417 0.0
-0.0134684 -0.00140343 0.0
-0.0134238 -0.00207027 0.0
-0.0133553 -0.00274743 0.0
-0.0132613 -0.00343775 0.0
-0.0131398 -0.00414413 0.0
-0.0129882 -0.00486957 0.0
-0.0128034 -0.00561718 0.0
-0.0125816 -0.0063902 0.0
-0.0123183 -0.00719197 0.0
-0.0120081 -0.00802602 0.0
-0.0116446 -0.00889605 0.0
-0.0112204 -0.00980594 0.0
-0.0107266 -0.0107598 0.0
-0.0101529 -0.0117621 0.0
-0.00948681 -0.0128174 0.0
-0.0087136 -0.0139308 0.0
-0.00781575 -0.0151075 0.0
-0.00677235 -0.0163528 0.0
-0.00555854 -0.0176712 0.0
-0.00414555 -0.0190468 0.0
-0.00251243 -0.0201458 0.0
-0.000819708 -0.0169906 0.0
0.000819708 0.0169906 0.0
0.000831302 -0.0175658 0.0
-0.000831302 0.0175658 0.0
-0.00253061 0.0207147 0.0
-0.00415062 0.0195458 0.0
-0.00555058 0.0181546 0.0
-0.00675959 0.0168503 0.0
-0.00780851 0.0156314 0.0
-0.00872181 0.0144841 0.0
-0.00951899 0.013398 0.0
-0.0102159 0.0123656 0.0
-0.0108254 0.0113808 0.0
-0.0113586 0.0104388 0.0
-0.0118245 0.00953566 0.0
-0.0122309 0.00866774 0.0
-0.0125848 0.0078318 0.0
-0.0128918 0.0070248 0.0
-0.013157 0.0062438 0.0
-0.0133849 0.00548598 0.0
-0.0135793 0.00474853 0.0
-0.0137433 0.00402868 0.0
-0.0138797 0.00332365 0.0
-0.0139907 0.00263067 0.0
-0.0140783 0.00194692 0.0
-0.0141438 0.00126959 0.0
-0.0141882 0.000595791 0.0
-0.014212 -7.73849e-05 0.0
-0.0142153 -0.00075291 0.0
-0.014198 -0.00143382 0.0
-0.0141592 -0.00212324 0.0
-0.0140978 -0.00282437 0.0
-0.0140121 -0.00354053 0.0
-0.0138998 -0.00427515 0.0
-0.0137581 -0.00503182 0.0
-0.0135835 -0.0058143 0.0
-0.0133718 -0.00662656 0.0
-0.013118 -0.00747279 0.0
-0.0128159 -0.00835751 0.0
-0.0124584 -0.00928555 0.0
-0.0120369 -0.0102622 0.0
-0.0115411 -0.0112931 0.0
-0.0109588 -0.0123848 0.0
-0.0102754 -0.0135442 0.0
-0.00947351 -0.0147792 0.0
-0.00853201 -0.0160984 0.0
-0.00742579 -0.0175115 0.0
-0.00612481 -0.0190274 0.0
-0.00459409 -0.0206344 0.0
-0.00280553 -0.0219799 0.0
-0.000922209 -0.0187326 0.0
0.000922209 0.0187326 0.0
0.000932582 -0.0193297 0.0
-0.000932582 0.0193297 0.0
-0.00281558 0.0225332 0.0
-0.00458041 0.0211122 0.0
-0.00609002 0.0194977 0.0
-0.00738167 0.0180078 0.0
-0.00849207 0.0166332 0.0
-0.00945026 0.0153537 0.0
-0.0102793 0.0141546 0.0
-0.0109978 0.0130244 0.0
-0.0116209 0.0119547 0.0
-0.0121615 0.0109386 0.0
-0.0126301 0.00997035 0.0
-0.0130357 0.00904515 0.0
-0.0133861 0.00815863 0.0
-0.0136879 0.00730684 0.0
-0.013947 0.00648608 0.0
-0.0141682 0.00569283 0.0
-0.0143559 0.00492367 0.0
-0.0145136 0.00417529 0.0
-0.0146446 0.00344438 0.0
-0.0147513 0.00272769 0.0
-0.0148357 0.00202196 0.0
-0.0148996 0.0013239 0.0
-0.014944 0.000630204 0.0
-0.0149695 -6.24749e-05 0.0
-0.0149764 -0.000757557 0.0
-0.0149643 -0.00145854 0.0
-0.0149326 -0.00216901 0.0
-0.01488 -0.00289268 0.0
-0.0148045 -0.00363342 0.0
-0.0147038 -0.00439525 0.0
-0.0145748 -0.00518242 0.0
-0.0144136 -0.00599945 0.0
-0.0142156 -0.00685113 0.0
-0.0139749 -0.00774268 0.0
-0.0136849 -0.00867973 0.0
-0.0133373 -0.0096685 0.0
-0.0129221 -0.0107159 0.0
-0.0124277 -0.0118297 0.0
-0.0118397 -0.0130185 0.0
-0.0111411 -0.0142925 0.0
-0.010311 -0.0156629 0.0
-0.00932452 -0.0171427 0.0
-0.00815166 -0.0187463 0.0
-0.00675651 -0.0204887 0.0
-0.00509723 -0.0223631 0.0
-0.00313753 -0.0239994 0.0
-0.00103955 -0.0206943 0.0
0.00103955 0.0206943 0.0
0.00104796 -0.0213103 0.0
-0.00104796 0.0213103 0.0
-0.00313635 0.024524 0.0
-0.00505893 0.0228088 0.0
-0.00668725 0.0209391 0.0
-0.00806772 0.0192386 0.0
-0.00924344 0.0176885 0.0
-0.0102484 0.0162615 0.0
-0.0111097 0.014937 0.0
-0.011849 0.0136997 0.0
-0.0124841 0.0125377 0.0
-0.0130297 0.0114418 0.0
-0.0134982 0.0104042 0.0
-0.0139 0.00941864 0.0
-0.0142439 0.00847941 0.0
-0.0145374 0.0075815 0.0
-0.0147873 0.0067203 0.0
-0.0149989 0.00589151 0.0
-0.0151773 0.00509102 0.0
-0.0153264 0.00431486 0.0
-0.0154499 0.00355918 0.0
-0.0155505 0.00282016 0.0
-0.0156305 0.00209404 0.0
-0.0156919 0.00137703 0.0
-0.0157358 0.000665352 0.0
-0.0157631 -4.48369e-05 0.0
-0.0157739 -0.000757441 0.0
-0.0157682 -0.00147646 0.0
-0.015745 -0.00220601 0.0
-0.0157029 -0.00295036 0.0
-0.0156402 -0.00371398 0.0
-0.0155539 -0.00450158 0.0
-0.0154409 -0.00531814 0.0
-0.0152968 -0.00616902 0.0
-0.0151164 -0.00706002 0.0
-0.0148934 -0.00799748 0.0
-0.0146199 -0.00898841 0.0
-0.0142867 -0.0100407 0.0
-0.0138825 -0.0111631 0.0
-0.0133935 -0.0123658 0.0
-0.0128032 -0.0136606 0.0
-0.0120915 -0.0150608 0.0
-0.011234 -0.0165822 0.0
-0.0102011 -0.0182427 0.0
-0.00895736 -0.0200629 0.0
-0.0074604 -0.0220642 0.0
-0.0056608 -0.0242464 0.0
-0.00351314 -0.0262235 0.0
-0.00117377 -0.0229076 0.0
0.00117377 0.0229076 0.0
0.0011793 -0.0235375 0.0
-0.0011793 0.0235375 0.0
-0.00349693 0.0267028 0.0
-0.00559074 0.0246464 0.0
-0.00734743 0.0224865 0.0
-0.00882347 0.0205477 0.0
-0.0100688 0.0188004 0.0
-0.0111227 0.0172086 0.0
-0.0120167 0.0157452 0.0
-0.012776 0.0143901 0.0
-0.0134212 0.0131276 0.0
-0.0139693 0.0119456 0.0
-0.0144345 0.0108341 0.0
-0.0148289 0.00978487 0.0
-0.0151626 0.0087907 0.0
-0.0154442 0.00784537 0.0
-0.0156811 0.00694321 0.0
-0.0158798 0.00607898 0.0
-0.0160457 0.0052478 0.0
-0.0161835 0.00444497 0.0
-0.0162969 0.00366598 0.0
-0.0163894 0.00290643 0.0
-0.0164635 0.00216196 0.0
-0.0165213 0.00142825 0.0
-0.0165642 0.000700977 0.0
-0.0165932 -2.42282e-05 0.0
-0.0166086 -0.000751807 0.0
-0.0166101 -0.00148631 0.0
-0.0165971 -0.00223244 0.0
-0.0165679 -0.00299508 0.0
-0.0165206 -0.00377938 0.0
-0.0164522 -0.00459079 0.0
-0.016359 -0.00543515 0.0
-0.0162364 -0.00631878 0.0
-0.0160784 -0.00724861 0.0
-0.015878 -0.00823233 0.0
-0.0156265 -0.00927855 0.0
-0.0153131 -0.0103971 0.0
-0.014925 -0.0115991 0.0
-0.0144462 -0.0128976 0.0
-0.0138575 -0.0143078 0.0
-0.0131353 -0.0158475 0.0
-0.012251 -0.0175373 0.0
-0.0111701 -0.0194014 0.0
-0.00985077 -0.0214672 0.0
-0.00824356 -0.023764 0.0
-0.00629095 -0.0262988 0.0
-0.00393748 -0.0286722 0.0
-0.00132716 -0.0254086 0.0
0.00132716 0.0254086 0.0
0.0013287 -0.0260455 0.0
-0.0013287 0.0260455 0.0
-0.00390167 0.0290853 0.0
-0.00618062 0.0266366 0.0
-0.00807589 0.0241482 0.0
-0.00965486 0.021941 0.0
-0.0109746 0.0199722 0.0
-0.0120801 0.0181963 0.0
-0.0130075 0.0165789 0.0
-0.0137859 0.0150941 0.0
-0.0144391 0.013722 0.0
-0.0149867 0.012447 0.0
-0.0154451 0.0112564 0.0
-0.015828 0.0101399 0.0
-0.0161472 0.00908849 0.0
-0.0164124 0.00809447 0.0
-0.0166323 0.00715094 0.0
-0.016814 0.00625164 0.0
-0.0169637 0.00539072 0.0
-0.0170866 0.00456271 0.0
-0.0171872 0.00376233 0.0
-0.0172692 0.00298451 0.0
-0.0173354 0.00222425 0.0
-0.0173883 0.00147663 0.0
-0.0174295 0.000736734 0.0
-0.0174602 -3.99344e-07 0.0
-0.0174806 -0.000739797 0.0
-0.0174908 -0.00148662 0.0
-0.0174898 -0.0022462 0.0
-0.0174761 -0.00302412 0.0
-0.0174475 -0.00382628 0.0
-0.0174008 -0.00465896 0.0
-0.017332 -0.00552897 0.0
-0.0172359 -0.00644374 0.0
-0.017106 -0.00741151 0.0
-0.0169342 -0.00844154 0.0
-0.0167108 -0.00954432 0.0
-0.0164235 -0.0107319 0.0
-0.0160574 -0.0120184 0.0
-0.0155942 -0.0134202 0.0
-0.0150114 -0.0149567 0.0
-0.0142816 -0.0166506 0.0
-0.0133715 -0.0185287 0.0
-0.0122404 -0.0206221 0.0
-0.0108402 -0.0229662 0.0
-0.00911343 -0.025599 0.0
-0.00699417 -0.0285357 0.0
-0.0044161 -0.0313669 0.0
-0.00150229 -0.028238 0.0
0.00150229 0.028238 0.0
0.0014985 -0.0288727 0.0
-0.0014985 0.0288727 0.0
-0.00435527 0.0316879 0.0
-0.00683348 0.0287912 0.0
-0.00887806 0.0259335 0.0
-0.010568 0.0234247 0.0
-0.0119676 0.0212079 0.0
-0.0131278 0.0192265 0.0
-0.0140897 0.017438 0.0
-0.0148865 0.0158101 0.0
-0.0155455 0.0143181 0.0
-0.0160893 0.0129423 0.0
-0.0165367 0.011667 0.0
-0.0169036 0.0104792 0.0
-0.0172033 0.00936805 0.0
-0.0174472 0.00832408 0.0
-0.017645 0.00733895 0.0
-0.0178048 0.00640518 0.0
-0.0179338 0.00551587 0.0
-0.0180379 0.0046646 0.0
-0.0181222 0.00384526 0.0
-0.0181907 0.00305201 0.0
-0.0182468 0.00227915 0.0
-0.0182932 0.00152106 0.0
-0.0183319 0.000772176 0.0
-0.018364 2.69049e-05 0.0
-0.0183902 -0.000720435 0.0
-0.0184104 -0.00147567 0.0
-0.0184237 -0.00224485 0.0
-0.0184285 -0.0030343 0.0
-0.0184224 -0.00385077 0.0
-0.0184021 -0.00470149 0.0
-0.018363 -0.00559435 0.0
-0.0182994 -0.00653807 0.0
-0.0182041 -0.00754242 0.0
-0.018068 -0.00861847 0.0
-0.0178799 -0.00977896 0.0
-0.0176258 -0.0110387 0.0
-0.0172886 -0.012415 0.0
-0.016847 -0.0139285 0.0
-0.016275 -0.0156033 0.0
-0.0155406 -0.0174681 0.0
-0.014605 -0.0195568 0.0
-0.0134215 -0.0219085 0.0
-0.0119341 -0.0245674 0.0
-0.0100776 -0.0275811 0.0
-0.00777714 -0.0309734 0.0
-0.00495499 -0.0343294 0.0
-0.00170199 -0.0314423 0.0
0.00170199 0.0314423 0.0
0.00169135 -0.0320626 0.0
-0.00169135 0.0320626 0.0
-0.00486286 0.0345263 0.0
-0.00755437 0.0311225 0.0
-0.00975942 0.0278518 0.0
-0.0115691 0.0250059 0.0
-0.0130548 0.0225119 0.0
-0.0142735 0.0203014 0.0
-0.0152714 0.0183228 0.0
-0.0160862 0.0165368 0.0
-0.0167489 0.0149131 0.0
-0.0172854 0.0134276 0.0
-0.0177173 0.012061 0.0
-0.0180629 0.0107976 0.0
-0.0183374 0.00962394 0.0
-0.018554 0.0085287 0.0
-0.0187238 0.00750186 0.0
-0.0188562 0.00653452 0.0
-0.0189592 0.00561857 0.0
-0.0190397 0.00474648 0.0
-0.0191033 0.00391122 0.0
-0.0191549 0.00310605 0.0
-0.0191981 0.00232448 0.0
-0.0192361 0.00156013 0.0
-0.0192711 0.000806723 0.0
-0.0193045 5.7943e-05 0.0
-0.0193372 -0.000692603 0.0
-0.019369 -0.00145148 0.0
-0.0193993 -0.0022255 0.0
-0.0194262 -0.00302187 0.0
-0.0194472 -0.00384824 0.0
-0.0194586 -0.00471294 0.0
-0.0194555 -0.00562511 0.0
-0.0194315 -0.00659494 0.0
-0.0193784 -0.00763396 0.0
-0.019286 -0.00875542 0.0
-0.0191415 -0.00997467 0.0
-0.0189288 -0.0113097 0.0
-0.0186281 -0.0127819 0.0
-0.0182149 -0.0144164 0.0
-0.0176588 -0.0162434 0.0
-0.0169229 -0.0182983 0.0
-0.0159622 -0.0206229 0.0
-0.0147229 -0.0232652 0.0
-0.0131414 -0.0262795 0.0
-0.0111439 -0.029723 0.0
-0.00864677 -0.033629 0.0
-0.00556057 -0.0375821 0.0
-0.00192944 -0.0350737 0.0
0.00192944 0.0350737 0.0
0.00191024 -0.0356642 0.0
-0.00191024 0.0356642 0.0
-0.00542999 0.037616 0.0
-0.00834845 0.0336428 0.0
-0.0107254 0.0299135 0.0
-0.0126642 0.0266927 0.0
-0.0142432 0.0238898 0.0
-0.0155251 0.0214241 0.0
-0.0165612 0.0192341 0.0
-0.017394 0.017273 0.0
-0.0180584 0.0155041 0.0
-0.018584 0.0138987 0.0
-0.0189956 0.0124334 0.0
-0.0193139 0.0110891 0.0
-0.0195568 0.00984987 0.0
-0.0197394 0.00870191 0.0
-0.0198743 0.00763336 0.0
-0.0199725 0.00663365 0.0
-0.0200433 0.00569324 0.0
-0.0200944 0.00480338 0.0
-0.0201324 0.00395592 0.0
-0.0201626 0.00314314 0.0
-0.0201896 0.00235761 0.0
-0.0202168 0.00159215 0.0
-0.0202467 0.000839633 0.0
-0.0202812 9.29744e-05 0.0
-0.0203212 -0.000655013 0.0
-0.0203667 -0.00141171 0.0
-0.0204169 -0.00218479 0.0
-0.0204702 -0.00298241 0.0
-0.0205236 -0.00381328 0.0
-0.0205731 -0.00468695 0.0
-0.0206134 -0.005614 0.0
-0.0206371 -0.00660634 0.0
-0.0206352 -0.00767758 0.0
-0.0205959 -0.0088435 0.0
-0.0205044 -0.0101225 0.0
-0.0203424 -0.0115365 0.0
-0.0200869 -0.0131113 0.0
-0.0197092 -0.0148779 0.0
-0.0191744 -0.0168728 0.0
-0.0184398 -0.0191395 0.0
-0.0174537 -0.0217285 0.0
-0.0161547 -0.0246979 0.0
-0.014471 -0.0281121 0.0
-0.0123201 -0.0320388 0.0
-0.00961007 -0.0365204 0.0
-0.00623975 -0.0411473 0.0
-0.00218814 -0.0391913 0.0
0.00218814 0.0391913 0.0
0.00215858 -0.039733 0.0
-0.00215858 0.039733 0.0
-0.00606278 0.0409712 0.0
-0.00922102 0.0363644 0.0
-0.0117815 0.0321295 0.0
-0.0138596 0.0284936 0.0
-0.0155399 0.0253481 0.0
-0.0168906 0.0225985 0.0
-0.0179682 0.0201734 0.0
-0.0188196 0.0180177 0.0
-0.0194842 0.0160884 0.0
-0.0199954 0.0143512 0.0
-0.0203813 0.0127784 0.0
-0.0206661 0.0113472 0.0
-0.02087 0.0100386 0.0
-0.0210106 0.00883628 0.0
-0.0211027 0.00772603 0.0
-0.0211589 0.00669541 0.0
-0.0211899 0.00573324 0.0
-0.0212048 0.00482931 0.0
-0.021211 0.0039742 0.0
-0.0212149 0.00315903 0.0
-0.0212215 0.00237535 0.0
-0.0212349 0.00161499 0.0
-0.0212581 0.000869957 0.0
-0.0212933 0.000132257 0.0
-0.0213414 -0.000606168 0.0
-0.0214029 -0.00135361 0.0
-0.0214768 -0.00211871 0.0
-0.0215614 -0.00291067 0.0
-0.0216535 -0.00373945 0.0
-0.0217488 -0.00461597 0.0
-0.021841 -0.0055525 0.0
-0.0219222 -0.00656294 0.0
-0.0219818 -0.00766336 0.0
-0.0220063 -0.0088725 0.0
-0.0219788 -0.0102125 0.0
-0.0218778 -0.0117096 0.0
-0.0216766 -0.013395 0.0
-0.0213423 -0.0153062 0.0
-0.0208343 -0.0174873 0.0
-0.0201034 -0.0199905 0.0
-0.0190907 -0.0228762 0.0
-0.0177268 -0.026213 0.0
-0.0159314 -0.0300761 0.0
-0.0136138 -0.0345433 0.0
-0.0106741 -0.0396656 0.0
-0.00699988 -0.0450467 0.0
-0.00248199 -0.0438614 0.0
0.00248199 0.0438614 0.0
0.00244029 -0.0443318 0.0
-0.00244029 0.0443318 0.0
-0.00676801 0.0446042 0.0
-0.0101775 0.039299 0.0
-0.012933 0.0345108 0.0
-0.0151612 0.0304185 0.0
-0.0169519 0.0268941 0.0
-0.0183783 0.0238297 0.0
-0.0195016 0.0211432 0.0
-0.0203733 0.0187711 0.0
-0.0210372 0.0166635 0.0
-0.0215306 0.0147806 0.0
-0.0218856 0.0130899 0.0
-0.0221298 0.0115646 0.0
-0.0222867 0.0101821 0.0
-0.0223765 0.0089232 0.0
-0.0224164 0.00777118 0.0
-0.0224214 0.00671136 0.0
-0.0224037 0.00573062 0.0
-0.022374 0.00481708 0.0
-0.0223411 0.00395979 0.0
-0.0223124 0.00314856 0.0
-0.0222937 0.00237374 0.0
-0.0222897 0.00162606 0.0
-0.0223041 0.000896491 0.0
-0.0223393 0.000176048 0.0
-0.0223968 -0.000544318 0.0
-0.0224769 -0.00127391 0.0
-0.0225788 -0.00202248 0.0
-0.0227007 -0.00280044 0.0
-0.0228391 -0.00361912 0.0
-0.0229891 -0.0044911 0.0
-0.0231436 -0.00543058 0.0
-0.0232935 -0.00645384 0.0
-0.0234265 -0.00757982 0.0
-0.0235272 -0.00883081 0.0
-0.0235758 -0.0102332 0.0
-0.0235472 -0.0118184 0.0
-0.0234105 -0.013624 0.0
-0.0231274 -0.0156946 0.0
-0.0226512 -0.0180831 0.0
-0.0219258 -0.0208511 0.0
-0.0208843 -0.0240697 0.0
-0.019449 -0.0278186 0.0
-0.0175312 -0.0321837 0.0
-0.0150323 -0.0372523 0.0
-0.0118459 -0.0430828 0.0
-0.00784879 -0.0493007 0.0
-0.00281532 -0.0491587 0.0
0.00281532 0.0491587 0.0
0.00275985 -0.049532 0.0
-0.00275985 0.049532 0.0
-0.00755322 0.0485252 0.0
-0.0112236 0.042458 0.0
-0.0141851 0.037069 0.0
-0.0165744 0.0324779 0.0
-0.0184857 0.0285367 0.0
-0.0199961 0.025124 0.0
-0.0211708 0.022147 0.0
-0.0220657 0.0195338 0.0
-0.0227288 0.0172277 0.0
-0.0232016 0.0151828 0.0
-0.0235205 0.0133617 0.0
-0.0237168 0.0117332 0.0
-0.0238176 0.0102711 0.0
-0.0238464 0.00895283 0.0
-0.0238236 0.0077587 0.0
-0.0237664 0.00667152 0.0
-0.0236895 0.00567591 0.0
-0.0236054 0.004758 0.0
-0.0235245 0.00390509 0.0
-0.0234554 0.00310542 0.0
-0.0234052 0.00234795 0.0
-0.0233794 0.00162212 0.0
-0.0233823 0.0009177 0.0
-0.0234168 0.000224588 0.0
-0.0234848 -0.000467399 0.0
-0.0235868 -0.00116873 0.0
-0.0237221 -0.00189041 0.0
-0.0238884 -0.00264426 0.0
-0.0240821 -0.00344322 0.0
-0.0242974 -0.00430179 0.0
-0.0245263 -0.00523648 0.0
-0.024758 -0.00626638 0.0
-0.0249783 -0.00741383 0.0
-0.0251692 -0.00870527 0.0
-0.0253073 -0.0101721 0.0
-0.0253635 -0.0118518 0.0
-0.0253018 -0.013789 0.0
-0.0250779 -0.0160366 0.0
-0.0246382 -0.0186569 0.0
-0.0239188 -0.0217221 0.0
-0.0228448 -0.0253142 0.0
-0.0213301 -0.0295241 0.0
-0.0192778 -0.0344483 0.0
-0.0165823 -0.040182 0.0
-0.0131319 -0.04679 0.0
-0.00879465 -0.0539279 0.0
-0.00319283 -0.0551669 0.0
0.00319283 0.0551669 0.0
0.00312216 -0.055414 0.0
-0.00312216 0.055414 0.0
-0.00842588 0.0527402 0.0
-0.0123632 0.0458506 0.0
-0.0155402 0.0398148 0.0
-0.0181012 0.0346825 0.0
-0.0201432 0.0302854 0.0
-0.0217463 0.0264887 0.0
-0.0229789 0.0231895 0.0
-0.0239005 0.0203077 0.0
-0.0245631 0.0177795 0.0
-0.0250126 0.0155534 0.0
-0.0252895 0.0135869 0.0
-0.0254295 0.0118443 0.0
-0.0254638 0.0102952 0.0
-0.0254198 0.0089136 0.0
-0.0253212 0.00767652 0.0
-0.0251886 0.00656383 0.0
-0.0250394 0.00555752 0.0
-0.0248885 0.00464139 0.0
-0.0247484 0.00380066 0.0
-0.0246293 0.00302171 0.0
-0.0245397 0.00229184 0.0
-0.0244862 0.00159898 0.0
-0.024474 0.000931506 0.0
-0.0245067 0.000277989 0.0
-0.0245864 -0.000373067 0.0
-0.024714 -0.00103349 0.0
-0.0248886 -0.00171574 0.0
-0.0251079 -0.00243328 0.0
-0.0253675 -0.00320099 0.0
-0.0256606 -0.00403564 0.0
-0.0259778 -0.00495649 0.0
-0.0263065 -0.00598595 0.0
-0.02663 -0.00715042 0.0
-0.0269267 -0.00848119 0.0
-0.0271693 -0.0100155 0.0
-0.0273237 -0.0117977 0.0
-0.0273481 -0.0138805 0.0
-0.0271913 -0.0163259 0.0
-0.0267922 -0.0192064 0.0
-0.0260789 -0.0226052 0.0
-0.0249682 -0.0266158 0.0
-0.0233655 -0.03134 0.0
-0.0211668 -0.0368835 0.0
-0.0182607 -0.0433483 0.0
-0.0145319 -0.0508029 0.0
-0.00984197 -0.0589422 0.0
-0.00361833 -0.061978 0.0
0.00361833 0.061978 0.0
0.0035244 -0.0620606 0.0
-0.0035244 0.0620606 0.0
-0.00936869 0.0572417 0.0
-0.013557 0.0494748 0.0
-0.016938 0.0427484 0.0
-0.019661 0.037033 0.0
-0.0218242 0.0321401 0.0
-0.0235092 0.0279221 0.0
-0.0247869 0.0242665 0.0
-0.02572 0.0210854 0.0
-0.0263643 0.0183087 0.0
-0.02677 0.0158794 0.0
-0.0269821 0.0137499 0.0
-0.0270409 0.0118801 0.0
-0.0269826 0.0102354 0.0
-0.0268389 0.00878575 0.0
-0.0266378 0.00750473 0.0
-0.0264037 0.00636882 0.0
-0.0261573 0.005357 0.0
-0.0259166 0.00445031 0.0
-0.0256965 0.00363148 0.0
-0.0255093 0.00288467 0.0
-0.0253652 0.00219519 0.0
-0.0252722 0.00154915 0.0
-0.0252364 0.000933288 0.0
-0.0252621 0.000334578 0.0
-0.025352 -0.000260023 0.0
-0.025507 -0.000863942 0.0
-0.0257262 -0.00149138 0.0
-0.0260068 -0.00215777 0.0
-0.0263435 -0.00288026 0.0
-0.0267285 -0.00367836 0.0
-0.0271504 -0.00457459 0.0
-0.0275942 -0.00559531 0.0
-0.0280401 -0.00677168 0.0
-0.0284627 -0.00814062 0.0
-0.0288301 -0.00974607 0.0
-0.0291027 -0.0116401 0.0
-0.0292321 -0.0138843 0.0
-0.0291605 -0.0165506 0.0
-0.028819 -0.0197222 0.0
-0.028128 -0.0234937 0.0
-0.0269964 -0.0279697 0.0
-0.0253228 -0.0332624 0.0
-0.0229971 -0.0394856 0.0
-0.019904 -0.0467454 0.0
-0.0159268 -0.0551118 0.0
-0.0109228 -0.0643272 0.0
-0.0040715 -0.0696679 0.0
0.0040715 0.0696679 0.0
0.00379202 -0.069377 0.0
-0.00379202 0.069377 0.0
-0.0098437 0.0618212 0.0
-0.0138872 0.0531271 0.0
-0.0170768 0.0456667 0.0
-0.0195665 0.0393273 0.0
-0.0214589 0.0339013 0.0
-0.0228422 0.0292292 0.0
-0.0237944 0.0251893 0.0
-0.0243853 0.0216866 0.0
-0.0246782 0.0186447 0.0
-0.0247299 0.0160008 0.0
-0.0245919 0.0137025 0.0
-0.0243101 0.0117045 0.0
-0.0239251 0.00996764 0.0
-0.0234728 0.00845751 0.0
-0.0229844 0.00714347 0.0
-0.0224866 0.00599817 0.0
-0.0220023 0.004997 0.0
-0.0215505 0.00411778 0.0
-0.021147 0.00334034 0.0
-0.0208046 0.00264624 0.0
-0.0205335 0.00201847 0.0
-0.0203417 0.00144112 0.0
-0.0202353 0.000899031 0.0
-0.0202182 0.000377457 0.0
-0.0202929 -0.000138345 0.0
-0.0204599 -0.000663549 0.0
-0.0207182 -0.00121425 0.0
-0.0210645 -0.00180802 0.0
-0.0214932 -0.00246454 0.0
-0.0219961 -0.00320631 0.0
-0.0225614 -0.00405946 0.0
-0.0231733 -0.00505472 0.0
-0.0238113 -0.00622838 0.0
-0.024449 -0.00762352 0.0
-0.0250537 -0.00929118 0.0
-0.0255845 -0.0112916 0.0
-0.0259922 -0.0136956 0.0
-0.0262178 -0.0165853 0.0
-0.026192 -0.0200547 0.0
-0.0258345 -0.0242097 0.0
-0.025054 -0.0291658 0.0
-0.0237487 -0.0350451 0.0
-0.0218081 -0.0419691 0.0
-0.0191153 -0.0500476 0.0
-0.0155502 -0.059352 0.0
-0.0109593 -0.069682 0.0
-0.00419211 -0.0779315 0.0
0.00419211 0.0779315 0.0
0.000933825 -0.0741028 0.0
-0.000933825 0.0741028 0.0
-0.000935164 0.0631484 0.0
0.00130008 0.0536082 0.0
0.00413482 0.0455406 0.0
0.00733697 0.038741 0.0
0.0107446 0.0329724 0.0
0.0142321 0.0280539 0.0
0.0177025 0.0238462 0.0
0.0210834 0.0202398 0.0
0.0243215 0.0171462 0.0
0.0273796 0.014493 0.0
0.0302329 0.0122191 0.0
0.0328662 0.0102727 0.0
0.0352719 0.00860876 0.0
0.0374479 0.00718809 0.0
0.0393963 0.00597612 0.0
0.0411218 0.00494226 0.0
0.042631 0.00405934 0.0
0.0439316 0.00330309 0.0
0.0450312 0.00265181 0.0
0.0459377 0.00208591 0.0
0.0466578 0.00158759 0.0
0.0471976 0.00114042 0.0
0.0475619 0.000728986 0.0
0.0477539 0.000338402 0.0
0.0477754 -4.61079e-05 0.0
0.0476264 -0.00043974 0.0
0.0473053 -0.00085867 0.0
0.0468087 -0.00132069 0.0
0.0461315 -0.0018459 0.0
0.0452669 -0.00245753 0.0
0.0442068 -0.00318282 0.0
0.0429414 -0.00405404 0.0
0.0414599 -0.0051096 0.0
0.0397507 -0.00639535 0.0
0.0378019 -0.00796585 0.0
0.0356015 -0.0098858 0.0
0.0331391 -0.0122314 0.0
0.0304066 -0.0150914 0.0
0.0274004 -0.0185682 0.0
0.0241241 -0.0227774 0.0
0.0205923 -0.0278468 0.0
0.0168362 -0.0339133 0.0
0.0129116 -0.041117 0.0
0.00890955 -0.0495906 0.0
0.00497395 -0.0594386 0.0
0.00135985 -0.0705722 0.0
-0.000162495 -0.0822861 0.0
0.000162495 0.0822861 0.0
-0.0375183 -0.0375183 0.0
0.0375183 0.0375183 0.0
0.106145 0.031108 0.0
0.163405 0.0261527 0.0
0.211562 0.0220043 0.0
0.252102 0.0185354 0.0
0.286255 0.0156174 0.0
0.315024 0.013152 0.0
0.339239 0.0110628 0.0
0.359592 0.00928974 0.0
0.376666 0.00778417 0.0
0.390956 0.00650635 0.0
0.402886 0.00542306 0.0
0.412815 0.0045062 0.0
0.421053 0.00373169 0.0
0.427863 0.00307872 0.0
0.433471 0.00252919 0.0
0.438067 0.00206724 0.0
0.441814 0.00167893 0.0
0.444845 0.00135201 0.0
0.447272 0.0010756 0.0
0.449188 0.000840044 0.0
0.450665 0.000636636 0.0
0.451759 0.000457452 0.0
0.452511 0.000295116 0.0
0.452949 0.000142571 0.0
0.453084 -7.16498e-06 0.0
0.452916 -0.000161265 0.0
0.452427 -0.000327385 0.0
0.451586 -0.000513986 0.0
0.450341 -0.000730701 0.0
0.448622 -0.000988742 0.0
0.446332 -0.00130136 0.0
0.443346 -0.00168437 0.0
0.439505 -0.00215672 0.0
0.434607 -0.00274117 0.0
0.428401 -0.00346499 0.0
0.420575 -0.00436066 0.0
0.410748 -0.00546673 0.0
0.398453 -0.00682844 0.0
0.383126 -0.00849829 0.0
0.364091 -0.0105363 0.0
0.340545 -0.0130098 0.0
0.311543 -0.0159922 0.0
0.27599 -0.0195607 0.0
0.232637 -0.0237921 0.0
0.180091 -0.0287547 0.0
0.116892 -0.0344437 0.0
0.0412243 -0.0412243 0.0
-0.0412243 0.0412243 0.0
-1.96248 0.0375183 0.0
1.96248 -0.0375183 0.0
1.89386 -0.031108 0.0
1.83659 -0.0261527 0.0
1.78844 -0.0220043 0.0
1.7479 -0.0185354 0.0
1.71375 -0.0156174 0.0
1.68498 -0.013152 0.0
1.66076 -0.0110628 0.0
1.64041 -0.00928974 0.0
1.62333 -0.00778417 0.0
1.60904 -0.00650635 0.0
1.59711 -0.00542306 0.0
1.58719 -0.0045062 0.0
1.57895 -0.00373169 0.0
1.57214 -0.00307872 0.0
1.56653 -0.00252919 0.0
1.56193 -0.00206724 0.0
1.55819 -0.00167893 0.0
1.55516 -0.00135201 0.0
1.55273 -0.0010756 0.0
1.55081 -0.000840044 0.0
1.54934 -0.000636636 0.0
1.54824 -0.000457452 0.0
1.54749 -0.000295116 0.0
1.54705 -0.000142571 0.0
1.54692 7.16498e-06 0.0
1.54708 0.000161265 0.0
1.54757 0.000327385 0.0
1.54841 0.000513986 0.0
1.54966 0.000730701 0.0
1.55138 0.000988742 0.0
1.55367 0.00130136 0.0
1.55665 0.00168437 0.0
1.5605 0.00215672 0.0
1.56539 0.00274117 0.0
1.5716 0.00346499 0.0
1.57942 0.00436066 0.0
1.58925 0.00546673 0.0
1.60155 0.00682844 0.0
1.61687 0.00849829 0.0
1.63591 0.0105363 0.0
1.65945 0.0130098 0.0
1.68846 0.0159922 0.0
1.72401 0.0195607 0.0
1.76736 0.0237921 0.0
1.81991 0.0287547 0.0
1.88311 0.0344437 0.0
1.95878 0.0412243 0.0
-1.95878 -0.0412243 0.0
