# vtk DataFile Version 3.0
DroneCFD Output
ASCII
DATASET STRUCTURED_POINTS
DIMENSIONS 50 50 1
ORIGIN 0 0 0
SPACING 0.02 0.02 1
POINT_DATA 2500
SCALARS pressure double 1
LOOKUP_TABLE default
0
0
-0.00164393
-0.00201688
-0.00186561
-0.00156229
-0.0012138
-0.00084334
-0.000455785
-5.28294e-05
0.000364331
0.000794645
0.00123718
0.0016911
0.00215569
0.00263034
0.0031145
0.00360773
0.00410963
0.00461987
0.00513818
0.0056643
0.00619802
0.00673915
0.0072875
0.00784289
0.00840514
0.00897404
0.00954938
0.0101309
0.0107183
0.0113111
0.011909
0.0125114
0.0131175
0.0137266
0.0143375
0.0149489
0.0155593
0.0161665
0.0167679
0.0173604
0.0179396
0.0184997
0.019029
0.0194914
0.0197504
0.0193594
0.0174243
0.0174243
0
0
-0.00164393
-0.00201688
-0.00186561
-0.00156229
-0.0012138
-0.00084334
-0.000455785
-5.28294e-05
0.000364331
0.000794645
0.00123718
0.0016911
0.00215569
0.00263034
0.0031145
0.00360773
0.00410963
0.00461987
0.00513818
0.0056643
0.00619802
0.00673915
0.0072875
0.00784289
0.00840514
0.00897404
0.00954938
0.0101309
0.0107183
0.0113111
0.011909
0.0125114
0.0131175
0.0137266
0.0143375
0.0149489
0.0155593
0.0161665
0.0167679
0.0173604
0.0179396
0.0184997
0.019029
0.0194914
0.0197504
0.0193594
0.0174243
0.0174243
0.00112325
0.00112325
-0.000530658
-0.000902839
-0.000757399
-0.000469342
-0.000144745
0.00019457
0.000545025
0.00090598
0.0012771
0.00165804
0.00204844
0.00244793
0.00285616
0.00327283
0.00369764
0.00413034
0.0045707
0.0050185
0.00547355
0.00593569
0.00640475
0.00688058
0.00736303
0.00785195
0.00834718
0.00884857
0.00935591
0.00986899
0.0103876
0.0109114
0.0114401
0.0119732
0.0125104
0.0130509
0.0135942
0.0141392
0.0146849
0.0152299
0.0157724
0.0163103
0.0168405
0.0173587
0.0178549
0.0182951
0.0185436
0.0181502
0.0162006
0.0162006
0.00141523
0.00141523
-0.000262166
-0.000635881
-0.000490444
-0.000204054
0.00011691
0.000450777
0.000794144
0.00114653
0.00150774
0.00187756
0.00225574
0.00264203
0.0030362
0.00343801
0.00384727
0.0042638
0.00468745
0.00511807
0.00555556
0.00599981
0.00645072
0.00690819
0.00737215
0.0078425
0.00831916
0.00880201
0.00929094
0.00978582
0.0102865
0.0107927
0.0113042
0.0118208
0.0123419
0.0128673
0.0133962
0.0139279
0.0144614
0.0149956
0.0155288
0.016059
0.0165834
0.0170977
0.0175922
0.0180328
0.0182828
0.0178875
0.0159075
0.0159075
0.00146557
0.00146557
-0.000239921
-0.000612722
-0.000462483
-0.000172076
0.000151644
0.000487176
0.000831299
0.00118368
0.00154424
0.00191286
0.00228936
0.00267357
0.00306529
0.00346436
0.00387061
0.00428391
0.00470415
0.00513121
0.00556501
0.00600548
0.00645256
0.00690617
0.00736626
0.00783279
0.00830567
0.00878485
0.00927023
0.00976172
0.0102592
0.0107625
0.0112714
0.0117856
0.0123049
0.0128289
0.0133569
0.0138883
0.0144223
0.0149578
0.0154932
0.0160266
0.0165554
0.0170753
0.0175768
0.0180256
0.0182837
0.0178893
0.0158717
0.0158717
0.00145059
0.00145059
-0.00028686
-0.000657537
-0.000499826
-0.000202696
0.000126384
0.000466125
0.000813543
0.00116848
0.00153101
0.00190111
0.00227871
0.00266367
0.00305589
0.00345523
0.00386158
0.00427484
0.00469493
0.00512176
0.00555527
0.00599542
0.00644216
0.00689545
0.00735526
0.00782156
0.0082943
0.00877344
0.00925893
0.0097507
0.0102486
0.0107526
0.0112626
0.0117782
0.0122992
0.0128253
0.0133561
0.0138909
0.0144291
0.0149695
0.0155108
0.0160512
0.0165883
0.0171178
0.0176304
0.0180915
0.0183615
0.0179692
0.0159074
0.0159074
0.00141105
0.00141105
-0.00036222
-0.000729764
-0.000562409
-0.000256554
7.96024e-05
0.000425046
0.000777084
0.00113579
0.00150139
0.001874
0.00225366
0.00264033
0.00303396
0.00343447
0.00384181
0.00425591
0.00467672
0.0051042
0.00553831
0.00597904
0.00642635
0.00688025
0.00734072
0.00780775
0.00828133
0.00876145
0.00924808
0.00974118
0.0102407
0.0107466
0.0112587
0.0117769
0.012301
0.0128308
0.0133658
0.0139057
0.0144497
0.014997
0.0155464
0.0160963
0.0166442
0.0171863
0.0177131
0.01819
0.0184752
0.0180862
0.0159734
0.0159734
0.00135468
0.00135468
-0.000458337
-0.000821636
-0.000642523
-0.000326074
1.87006e-05
0.000371131
0.000728872
0.00109226
0.00146173
0.00183757
0.00221992
0.00260886
0.00300441
0.00340658
0.00381536
0.00423072
0.00465268
0.00508121
0.00551632
0.00595803
0.00640633
0.00686125
0.0073228
0.00779102
0.00826591
0.00874749
0.00923579
0.00973081
0.0102325
0.0107409
0.011256
0.0117777
0.0123058
0.0128402
0.0133806
0.0139268
0.0144782
0.0150341
0.0155934
0.0161548
0.016716
0.0172734
0.0178176
0.0183136
0.0186173
0.0182328
0.0160624
0.0160624
0.00128262
0.00128262
-0.00057414
-0.000931894
-0.000738872
-0.000409978
-5.5076e-05
0.000305584
0.000670065
0.00103901
0.00141311
0.00179281
0.00217842
0.00257012
0.00296805
0.00337227
0.00378286
0.00419984
0.00462327
0.00505318
0.00548961
0.00593261
0.00638221
0.00683848
0.00730146
0.00777122
0.0082478
0.00873127
0.00922168
0.0097191
0.0102236
0.0107351
0.0112538
0.0117796
0.0123126
0.0128526
0.0133995
0.0139533
0.0145134
0.0150795
0.0156507
0.0162257
0.0168026
0.017378
0.0179426
0.0184612
0.0187868
0.0184083
0.0161732
0.0161732
0.00119477
0.00119477
-0.000709684
-0.00106037
-0.000851227
-0.000508033
-0.000141503
0.000228616
0.000600861
0.000976232
0.00135568
0.00173987
0.00212928
0.00252423
0.00292495
0.00333162
0.00374437
0.0041633
0.00458852
0.00502011
0.00545816
0.00590275
0.00635396
0.00681189
0.00727662
0.00774826
0.0082269
0.00871265
0.00920561
0.0097059
0.0102136
0.0107289
0.0112519
0.0117826
0.0123212
0.0128677
0.0134223
0.0139848
0.0145552
0.015133
0.0157178
0.0163086
0.0169037
0.0174999
0.0180881
0.0186326
0.0189836
0.018613
0.0163062
0.0163062
0.00109081
0.00109081
-0.000865209
-0.00120704
-0.000979504
-0.00062015
-0.0002405
0.0001403
0.000521321
0.000903963
0.00128948
0.00167878
0.00207253
0.00247119
0.00287513
0.00328462
0.00369987
0.00412108
0.00454839
0.00498196
0.00542191
0.00586838
0.00632149
0.00678139
0.00724819
0.00772205
0.00820311
0.00869152
0.00918745
0.00969107
0.0102026
0.0107222
0.01125
0.0117864
0.0123315
0.0128855
0.0134488
0.0140213
0.0146032
0.0151945
0.0157949
0.0164036
0.0170193
0.017639
0.0182539
0.0188279
0.019208
0.0188472
0.016462
0.016462
0.000970271
0.000970271
-0.001041
-0.00137192
-0.00112363
-0.000746251
-0.000351999
4.06907e-05
0.000431488
0.000822239
0.00121453
0.00160955
0.00200815
0.00241099
0.00281855
0.00323123
0.00364933
0.00407312
0.00450282
0.00493865
0.00538079
0.00582942
0.00628472
0.00674688
0.00721606
0.00769247
0.0081763
0.00866776
0.00916708
0.0096745
0.0101903
0.0107147
0.0112482
0.0117909
0.0123433
0.0129058
0.0134788
0.0140626
0.0146575
0.0152639
0.0158817
0.0165105
0.0171492
0.0177953
0.01844
0.0190471
0.01946
0.0191116
0.0166412
0.0166412
0.000832551
0.000832551
-0.00123738
-0.00155499
-0.00128352
-0.000886253
-0.000475928
-7.01545e-05
0.000331406
0.000731088
0.00113086
0.00153218
0.00193615
0.0023436
0.00275518
0.0031714
0.00359267
0.00401935
0.00445174
0.0048901
0.0053347
0.00578577
0.00624354
0.00670825
0.00718012
0.00765939
0.00814634
0.00864122
0.00914434
0.00965602
0.0101766
0.0107065
0.0112461
0.0117959
0.0123565
0.0129284
0.0135122
0.0141085
0.0147179
0.015341
0.0159781
0.0166292
0.0172935
0.0179687
0.0186465
0.0192902
0.0197398
0.0194068
0.0168447
0.0168447
0.000676934
0.000676934
-0.00145468
-0.00175625
-0.00145908
-0.00104006
-0.00061221
-0.000192176
0.000221117
0.000630538
0.00103846
0.00144666
0.0018565
0.00226901
0.00268499
0.00310509
0.00352985
0.0039597
0.00439505
0.00483623
0.00528356
0.00573733
0.00619784
0.00666538
0.00714023
0.00762269
0.00811309
0.00861177
0.0091191
0.00963548
0.0101614
0.0106973
0.0112437
0.0118013
0.0123709
0.0129531
0.0135487
0.0141588
0.0147842
0.0154257
0.016084
0.0167595
0.0174519
0.0181593
0.0188734
0.0195573
0.0200477
0.0197334
0.0170737
0.0170737
0.000502556
0.000502556
-0.00169329
-0.00197566
-0.0016502
-0.00120757
-0.000760764
-0.000325313
0.000100663
0.000520613
0.000937348
0.001353
0.00176918
0.00218716
0.00260791
0.00303223
0.00346077
0.00389409
0.00433267
0.00477691
0.00522723
0.00568397
0.00614748
0.00661813
0.00709625
0.00758221
0.00807641
0.00857924
0.00909118
0.00961271
0.0101444
0.0106868
0.0112407
0.0118069
0.0123862
0.0129797
0.0135884
0.0142135
0.0148562
0.0155177
0.0161992
0.0169014
0.0176245
0.0183668
0.0191204
0.0198483
0.0203837
0.0200921
0.0173292
0.0173292
0.000308401
0.000308401
-0.00195358
-0.00221317
-0.00185675
-0.00138867
-0.000921499
-0.000469501
-2.99139e-05
0.000401333
0.000827526
0.00125116
0.00167416
0.00209801
0.00252388
0.00295274
0.00338536
0.00382242
0.00426448
0.00471205
0.00516559
0.00562554
0.00609233
0.00656634
0.00704802
0.00753779
0.0080361
0.00854346
0.0090604
0.00958751
0.0101255
0.010675
0.011237
0.0118125
0.0124024
0.0130081
0.0136308
0.0142722
0.0149337
0.015617
0.0163236
0.0170548
0.017811
0.0185911
0.0193875
0.0201631
0.0207478
0.0204835
0.0176127
0.0176127
9.32734e-05
9.32734e-05
-0.00223598
-0.00246873
-0.00207858
-0.00158323
-0.00109432
-0.000624671
-0.000170573
0.000272715
0.000708986
0.00114114
0.00157139
0.0020015
0.00243284
0.00286654
0.00330352
0.00374457
0.00419036
0.00464149
0.0050985
0.00556192
0.00603221
0.00650987
0.00699538
0.00748924
0.007992
0.00850423
0.00902656
0.0095597
0.0101044
0.0106617
0.0112324
0.0118178
0.0124191
0.013038
0.0136759
0.0143348
0.0150166
0.0157233
0.016457
0.0172193
0.0180113
0.0188321
0.0196747
0.0205016
0.0211403
0.0209083
0.017926
0.017926
-0.000144213
-0.000144213
-0.00254091
-0.00274223
-0.00231552
-0.0017911
-0.00127912
-0.000790753
-0.000321275
0.000134772
0.000581718
0.00102288
0.00146082
0.00189756
0.00233469
0.00277351
0.00321512
0.00366041
0.00411016
0.00456509
0.00502581
0.00549291
0.00596696
0.00644852
0.00693813
0.00743639
0.00794391
0.00846136
0.00898948
0.00952907
0.0100811
0.0106465
0.0112266
0.0118226
0.0124362
0.0130692
0.0137234
0.0144011
0.0151046
0.0158365
0.0165992
0.0173949
0.0182252
0.0190897
0.0199816
0.0208637
0.0215609
0.0213674
0.0182709
0.0182709
-0.000405664
-0.000405664
-0.00286883
-0.00303356
-0.00256737
-0.00201213
-0.00147578
-0.000967676
-0.000481982
-1.24897e-05
0.000445702
0.000896355
0.00134239
0.0017861
0.00222932
0.00267356
0.00312003
0.00356979
0.00402375
0.00448269
0.00494733
0.00541836
0.0058964
0.0063821
0.00687608
0.00737903
0.00789162
0.00841464
0.00894892
0.0094954
0.0100551
0.0106293
0.0112194
0.0118268
0.0124535
0.0131015
0.013773
0.0144708
0.0151976
0.0159563
0.01675
0.0175813
0.0184525
0.0193635
0.020308
0.021249
0.0220097
0.0218613
0.0186497
0.0186497
-0.000692934
-0.000692934
-0.00322021
-0.00334255
-0.00283392
-0.00224613
-0.00168419
-0.00115536
-0.000652659
-0.000169069
0.000300908
0.000761503
0.00121601
0.00166703
0.00211663
0.00256653
0.00301811
0.00347257
0.00393093
0.0043941
0.00486289
0.00533805
0.00582032
0.0063104
0.00680902
0.00731693
0.00783492
0.00836385
0.00890467
0.00945846
0.0100264
0.0106099
0.0112105
0.0118301
0.0124707
0.0131346
0.0138247
0.0145438
0.0152952
0.0160825
0.0169091
0.0177783
0.0186929
0.0196533
0.0206537
0.0216572
0.0224864
0.0223907
0.0190648
0.0190648
-0.00100816
-0.00100816
-0.00359551
-0.00366901
-0.0031149
-0.00249293
-0.00190421
-0.00135374
-0.000833272
-0.00033497
0.000147298
0.000618258
0.00108159
0.00154022
0.00199648
0.00245228
0.00290919
0.00336856
0.00383153
0.00429913
0.00477226
0.00525178
0.00573849
0.00623321
0.00673672
0.00724988
0.00777356
0.00830875
0.0088565
0.00941803
0.00999469
0.010588
0.0111999
0.0118322
0.0124875
0.0131684
0.013878
0.0146197
0.0153973
0.0162148
0.0170763
0.0179856
0.0189461
0.0199588
0.0210181
0.0220879
0.0229906
0.0229563
0.0195191
0.0195191
-0.00135379
-0.00135379
-0.00399521
-0.0040127
-0.00341005
-0.0027523
-0.00213571
-0.00156272
-0.00102379
-0.000510206
-1.51764e-05
0.000466539
0.000939035
0.00140556
0.00186871
0.00233063
0.00279308
0.00325756
0.00372533
0.00419755
0.00467523
0.00515931
0.00565069
0.00615027
0.00665894
0.00717763
0.00770732
0.0082491
0.00880417
0.00937386
0.0099597
0.0105634
0.0111871
0.011833
0.0125038
0.0132026
0.0139328
0.0146984
0.0155036
0.016353
0.0172512
0.0182029
0.0192117
0.0202794
0.0214008
0.0225406
0.023522
0.0235586
0.020016
0.020016
-0.00173265
-0.00173265
-0.00441979
-0.00437334
-0.00371905
-0.00302403
-0.00237853
-0.00178223
-0.00122419
-0.000694799
-0.000186576
0.000306251
0.000788207
0.00126288
0.00173316
0.00220141
0.00266959
0.00313935
0.00361211
0.00408914
0.00457155
0.00506039
0.00555667
0.00606135
0.00657542
0.00709992
0.00763594
0.00818466
0.00874742
0.00932571
0.00992122
0.0105359
0.011172
0.0118322
0.0125193
0.0132369
0.0139889
0.0147796
0.0156138
0.0164967
0.0174337
0.0184298
0.0194894
0.0206147
0.0218011
0.0230144
0.0240798
0.0241982
0.0205591
0.0205591
-0.00214796
-0.00214796
-0.00486973
-0.00475059
-0.00404156
-0.00330787
-0.00263253
-0.00201219
-0.00143445
-0.000888777
-0.000366975
0.000137286
0.00062897
0.00111203
0.00158963
0.0020644
0.00253848
0.00301369
0.00349162
0.00397362
0.00446096
0.00495477
0.00545615
0.00596617
0.00648591
0.0070165
0.00755915
0.00811516
0.008686
0.00927332
0.00987899
0.0105052
0.0111544
0.0118295
0.0125338
0.0132712
0.0140459
0.014863
0.0157276
0.0166458
0.0176232
0.0186659
0.0197786
0.0209642
0.0222184
0.0235085
0.0246633
0.0248753
0.0211528
0.0211528
-0.00260345
-0.00260345
-0.00534548
-0.00514408
-0.00437722
-0.00360356
-0.00289754
-0.0022525
-0.00165456
-0.00109218
-0.000556457
-4.04842e-05
0.000461164
0.000952804
0.00143792
0.00191937
0.0023995
0.00288034
0.00336358
0.00385074
0.00434318
0.00484215
0.00534885
0.00586444
0.00639011
0.00692709
0.00747669
0.00804035
0.00861966
0.00921645
0.00983278
0.010471
0.0111339
0.0118247
0.012547
0.0133051
0.0141037
0.0149483
0.0158448
0.0167997
0.0178195
0.0189107
0.0200787
0.021327
0.0226518
0.0240219
0.0252716
0.0255903
0.021802
0.021802
-0.00310336
-0.00310336
-0.00584748
-0.00555335
-0.00472561
-0.00391083
-0.00317339
-0.0025031
-0.0018845
-0.00130506
-0.000755125
-0.000227201
0.000284611
0.000785009
0.00127779
0.00176606
0.0022524
0.00273899
0.00322771
0.00372019
0.00421791
0.00472224
0.00523448
0.00575588
0.00628775
0.0068314
0.00738828
0.00795994
0.00854813
0.00915484
0.00978232
0.0104332
0.0111104
0.0118176
0.0125587
0.0133384
0.0141619
0.0150353
0.015965
0.0169581
0.018022
0.0191636
0.0203891
0.0217024
0.0231003
0.0245535
0.0259032
0.0263432
0.0225122
0.0225122
-0.00365258
-0.00365258
-0.00637615
-0.00597791
-0.00508632
-0.00422938
-0.00345991
-0.0027639
-0.00212427
-0.00152748
-0.000963094
-0.000423024
9.91143e-05
0.000608412
0.00110898
0.00160421
0.00209688
0.00258936
0.00308369
0.00358165
0.00408484
0.00459472
0.00511271
0.00564018
0.0061785
0.00672914
0.00729362
0.00787366
0.00847115
0.00908823
0.00972737
0.0103914
0.0110836
0.0118079
0.0125686
0.0133708
0.0142203
0.0151236
0.0160878
0.0171207
0.0182302
0.0194241
0.020709
0.0220894
0.0235627
0.0251017
0.0265569
0.0271339
0.0232897
0.0232897
-0.00425671
-0.00425671
-0.00693183
-0.0064172
-0.00545888
-0.00455891
-0.00375692
-0.00303482
-0.00237388
-0.0017595
-0.00118049
-0.000628132
-9.55445e-05
0.000422762
0.000931231
0.00143351
0.00193262
0.00243112
0.0029312
0.00343479
0.00394361
0.00445926
0.00498323
0.005517
0.00606207
0.00662
0.00719244
0.00778124
0.00838844
0.00901636
0.00966768
0.0103455
0.0110533
0.0117954
0.0125765
0.0134021
0.0142785
0.0152128
0.0162128
0.0172869
0.0184436
0.0196914
0.0210375
0.0224868
0.0240376
0.025665
0.0272307
0.0279619
0.0241418
0.0241418
-0.00492218
-0.00492218
-0.00751483
-0.00687062
-0.00584283
-0.00489913
-0.00406425
-0.00331581
-0.00263335
-0.00200123
-0.00140747
-0.000842724
-0.000299604
0.000227787
0.000744229
0.00125364
0.00175929
0.00226391
0.00276988
0.00327925
0.00379389
0.00431549
0.00484567
0.00538602
0.00593813
0.00650367
0.00708444
0.00768239
0.00829974
0.00893898
0.009603
0.0102951
0.0110193
0.0117798
0.0125821
0.013432
0.0143363
0.0153028
0.0163397
0.0174562
0.0186615
0.0199647
0.0213736
0.0228936
0.0245234
0.0262414
0.0279227
0.0288267
0.0250765
0.0250765
-0.0056564
-0.0056564
-0.00812538
-0.00733748
-0.00623767
-0.00524972
-0.00438173
-0.00360679
-0.0029027
-0.00225277
-0.0016442
-0.00106702
-0.000513323
2.3195e-05
0.000547659
0.00106427
0.00157653
0.00208738
0.00259935
0.00311466
0.00363529
0.00416306
0.00469969
0.00524689
0.00580634
0.00637984
0.0069693
0.00757682
0.00820477
0.00885583
0.0095331
0.0102402
0.0109812
0.011761
0.0125852
0.0134602
0.0143934
0.0153929
0.0164678
0.0176279
0.0188831
0.020243
0.0217161
0.0233081
0.0250185
0.0268288
0.0286304
0.029727
0.0261033
0.0261033
-0.00646787
-0.00646787
-0.00876359
-0.00781707
-0.00664291
-0.00561038
-0.0047092
-0.00390772
-0.00318198
-0.00251423
-0.00189086
-0.00130125
-0.000736982
-0.00019133
0.000341178
0.000865032
0.00138397
0.00190113
0.00241923
0.00294063
0.00346743
0.00400158
0.00454493
0.00509925
0.00566637
0.00624819
0.00684674
0.00746426
0.00810328
0.00876666
0.00945772
0.0101803
0.0109389
0.0117386
0.0125855
0.0134864
0.0144493
0.0154828
0.0165968
0.0178015
0.0191076
0.0205253
0.0220637
0.0237287
0.0255207
0.0274248
0.029351
0.0306615
0.0272327
0.0272327
-0.00736636
-0.00736636
-0.00942946
-0.00830862
-0.00705804
-0.00598081
-0.00504651
-0.00421856
-0.00347127
-0.00278577
-0.00214766
-0.00154567
-0.000970884
-0.000416124
0.000124424
0.00065554
0.0011812
0.00170477
0.00222911
0.00275674
0.00328991
0.00383068
0.00438099
0.00494275
0.00551788
0.00610839
0.00671644
0.00734441
0.00799498
0.00867121
0.00937663
0.0101153
0.0108921
0.0117124
0.0125827
0.0135103
0.0145036
0.0155721
0.0167259
0.0179761
0.019334
0.0208105
0.0224149
0.0241537
0.0260279
0.0280267
0.0300814
0.0316282
0.0284767
0.0284767
-0.00836316
-0.00836316
-0.0101228
-0.00881131
-0.0074826
-0.00636074
-0.00539354
-0.00453933
-0.00377063
-0.00306754
-0.00241483
-0.00180058
-0.00121535
-0.000651545
-0.000102987
0.000435395
0.000967824
0.00149786
0.00202856
0.00256259
0.00310232
0.00364994
0.0042075
0.00477701
0.00536051
0.00596011
0.00657809
0.00721698
0.00787961
0.00856923
0.00928957
0.010045
0.0108405
0.0116821
0.0125765
0.0135315
0.014556
0.01566
0.0168544
0.0181509
0.0195613
0.021097
0.022768
0.0245809
0.0265374
0.0286313
0.0308181
0.0326245
0.0298491
0.0298491
-0.00947127
-0.00947127
-0.0108433
-0.00932431
-0.00791611
-0.00674994
-0.00575019
-0.00487002
-0.0040802
-0.00335974
-0.00269262
-0.00206627
-0.00147073
-0.000897968
-0.000341454
0.000204179
0.000743402
0.00127999
0.00181716
0.00235774
0.00290424
0.00345896
0.00402407
0.00460167
0.00519391
0.00580302
0.0064314
0.0070817
0.00775691
0.00846045
0.00919629
0.00996901
0.010784
0.0116474
0.0125665
0.0135495
0.0146059
0.0157461
0.0169817
0.0183249
0.0197882
0.0213835
0.0231211
0.025008
0.0270466
0.0292353
0.0315569
0.0336471
0.0313651
0.0313651
-0.0107057
-0.0107057
-0.0115904
-0.00984676
-0.00835817
-0.00714821
-0.00611642
-0.00521071
-0.00440011
-0.00366259
-0.00298131
-0.00234308
-0.00173739
-0.00115579
-0.000591396
-3.85405e-05
0.000507496
0.00105069
0.00159446
0.00214177
0.00269526
0.00325734
0.00383031
0.00441636
0.00501775
0.00563681
0.00627605
0.00693826
0.00762659
0.00834462
0.00909653
0.00988715
0.0107221
0.011608
0.0125524
0.013564
0.0146527
0.0158296
0.0171067
0.0184969
0.0200132
0.0216681
0.023472
0.0254323
0.0275521
0.029835
0.0322934
0.0346921
0.0330424
0.0330424
-0.0120839
-0.0120839
-0.012363
-0.0103778
-0.00880841
-0.00755541
-0.00649222
-0.0055615
-0.00473057
-0.00397635
-0.00328122
-0.00263135
-0.00201572
-0.00142543
-0.000853246
-0.000293207
0.000259658
0.00080954
0.00136002
0.00191423
0.00247494
0.00304467
0.00362583
0.00422071
0.00483167
0.00546113
0.00611174
0.00678639
0.00748838
0.00822146
0.00899001
0.0097991
0.0106547
0.0115636
0.0125338
0.0135744
0.0146959
0.0159097
0.0172285
0.0186657
0.0202349
0.0219489
0.0238185
0.0258511
0.0280507
0.0304263
0.0330226
0.0357546
0.0349008
0.0349008
-0.0136258
-0.0136258
-0.0131599
-0.0109166
-0.00926658
-0.00797149
-0.00687768
-0.00592257
-0.00507182
-0.00430133
-0.00359271
-0.00293149
-0.00230613
-0.00170731
-0.00112745
-0.000560273
-5.66201e-07
0.000556071
0.0011134
0.0016747
0.00224287
0.00282055
0.00341025
0.00401436
0.00463532
0.00527568
0.00593815
0.00662578
0.00734198
0.00809068
0.00887643
0.00970454
0.0105812
0.0115136
0.01251
0.01358
0.0147345
0.0159854
0.0173459
0.0188299
0.0204514
0.0222236
0.0241577
0.0262612
0.0285385
0.0310046
0.033739
0.0368283
0.0369626
0.0369626
-0.015355
-0.015355
-0.0139793
-0.0114625
-0.00973252
-0.00839651
-0.00727295
-0.00629416
-0.00542417
-0.00463789
-0.00391617
-0.00324391
-0.00260907
-0.0020019
-0.00141447
-0.000840199
-0.000273634
0.000289838
0.000854157
0.00142274
0.00199864
0.00258459
0.00318319
0.00379695
0.00442838
0.00508011
0.00575498
0.00645613
0.00718709
0.00795195
0.00875545
0.00960309
0.0105013
0.0114576
0.0124806
0.0135802
0.0147677
0.0160556
0.0174575
0.0189877
0.0206606
0.0224899
0.0244868
0.0266589
0.0290114
0.0315652
0.0344366
0.0379063
0.0392529
0.0392529
-0.0172985
-0.0172985
-0.0148189
-0.0120147
-0.0102062
-0.00883063
-0.00767832
-0.00667663
-0.00578801
-0.00498646
-0.00425205
-0.00356908
-0.00292501
-0.00230967
-0.00171477
-0.00113345
-0.000560001
1.03983e-05
0.000581861
0.00115796
0.00174185
0.0023364
0.0029443
0.00356812
0.00421049
0.00487411
0.0055619
0.0062771
0.00702337
0.00780493
0.00862668
0.00949432
0.0104145
0.011395
0.0124448
0.0135741
0.0147945
0.0161191
0.0175617
0.0191372
0.0208603
0.022745
0.0248025
0.0270406
0.0294649
0.0321026
0.0351088
0.0389796
0.0418
0.0418
-0.019488
-0.019488
-0.0156756
-0.0125728
-0.0106879
-0.00927423
-0.00809422
-0.00707043
-0.00616386
-0.00534755
-0.00460088
-0.00390754
-0.00325448
-0.00263114
-0.00202887
-0.00144052
-0.000860141
-0.000282704
0.000296077
0.000879918
0.0014721
0.0020756
0.00269318
0.00332753
0.00398131
0.00465731
0.00535854
0.00608833
0.00685043
0.00764919
0.00848965
0.00937769
0.0103202
0.0113251
0.0124017
0.0135606
0.0148137
0.0161743
0.0176568
0.0192763
0.021048
0.0229858
0.0251013
0.0274019
0.0298943
0.0326113
0.0357484
0.0400381
0.0446357
0.0446357
-0.0219605
-0.0219605
-0.0165457
-0.0131365
-0.0111781
-0.00972795
-0.00852133
-0.0074763
-0.00655244
-0.00572192
-0.0049634
-0.00426
-0.00359819
-0.00296699
-0.00235743
-0.00176206
-0.00117469
-0.000590092
-3.80495e-06
0.000588029
0.00118881
0.00180161
0.00242929
0.00307458
0.00374025
0.00442914
0.00514433
0.0058892
0.00666763
0.00748405
0.00834364
0.00925241
0.0102174
0.0112469
0.0123503
0.0135385
0.0148237
0.0162196
0.0177408
0.0194028
0.0212209
0.0232093
0.0253795
0.027739
0.0302947
0.0330859
0.0363486
0.0410703
0.0477964
0.0477964
-0.0247603
-0.0247603
-0.0174249
-0.0137067
-0.0116782
-0.0101935
-0.00896142
-0.00789604
-0.00695561
-0.00611145
-0.00534153
-0.00462843
-0.00395813
-0.00331926
-0.00270251
-0.00210015
-0.00150575
-0.000913884
-0.000319921
0.000280137
0.000889806
0.00151225
0.00215042
0.00280711
0.00348515
0.00418743
0.0049171
0.00567761
0.00647289
0.00730748
0.00818665
0.00911657
0.0101044
0.0111586
0.0122889
0.0135062
0.0148232
0.0162536
0.0178125
0.0195156
0.0213782
0.0234148
0.0256366
0.0280511
0.0306657
0.0335256
0.0369074
0.0420686
0.0513282
0.0513282
-0.0279443
-0.0279443
-0.0183136
-0.0142903
-0.0121965
-0.0106794
-0.00942353
-0.00833916
-0.00738333
-0.00652655
-0.00574615
-0.00502412
-0.00434601
-0.00370005
-0.00307656
-0.00246757
-0.00186638
-0.00126737
-0.000665735
-5.73336e-05
0.00056147
0.00119394
0.0018431
0.00251183
0.003203
0.00391958
0.00466476
0.00544207
0.0062555
0.00710967
0.00800997
0.00896268
0.00997516
0.0110559
0.0122149
0.0134634
0.0148141
0.0162812
0.0178797
0.0196255
0.0215343
0.0236202
0.0258946
0.0283643
0.0310371
0.0339636
0.0374598
0.0430623
0.0553224
0.0553224
-0.0316218
-0.0316218
-0.0192544
-0.0149405
-0.012789
-0.0112444
-0.00996923
-0.0088702
-0.00790316
-0.00703775
-0.00625059
-0.00552309
-0.00484024
-0.00418986
-0.00356189
-0.00294801
-0.00234125
-0.00173575
-0.0011265
-0.000509179
0.000119999
0.000764428
0.00142724
0.00211142
0.00281993
0.00355583
0.00432241
0.00512329
0.00596262
0.00684514
0.00777641
0.0087629
0.00981219
0.0109331
0.0121358
0.0134318
0.0148342
0.0163573
0.0180165
0.0198276
0.0218062
0.0239662
0.0263179
0.0288675
0.0316217
0.0346347
0.0382582
0.0443079
0.0601078
0.0601078
-0.0362003
-0.0362003
-0.0205824
-0.0160131
-0.0138251
-0.0122727
-0.0109981
-0.00990429
-0.00894528
-0.0080893
-0.00731173
-0.00659294
-0.00591706
-0.00527113
-0.00464445
-0.00402814
-0.00341479
-0.00279812
-0.00217282
-0.0015343
-0.000878546
-0.000201963
0.000498756
0.00122677
0.00198522
0.00277736
0.00360671
0.00447717
0.00539319
0.00635991
0.00738333
0.00847043
0.00962935
0.0108695
0.0122017
0.0136381
0.0151923
0.016879
0.0187136
0.0207117
0.022888
0.0252546
0.0278192
0.0305833
0.0335487
0.0367665
0.040613
0.0471646
0.0671386
0.0671386
-0.0437711
-0.0437711
-0.0243356
-0.0196046
-0.0174578
-0.0159771
-0.0147811
-0.0137646
-0.0128762
-0.0120798
-0.0113476
-0.0106572
-0.00999102
-0.00933454
-0.00867615
-0.00800634
-0.00731737
-0.00660285
-0.0058575
-0.00507686
-0.00425707
-0.00339471
-0.00248657
-0.00152951
-0.000520272
0.000544681
0.00166932
0.00285821
0.0041167
0.00545102
0.0068685
0.00837762
0.00998818
0.0117113
0.0135595
0.0155464
0.0176867
0.0199953
0.022487
0.0251749
0.028069
0.0311738
0.0344855
0.0379897
0.0416666
0.0455433
0.0499904
0.0572907
0.0822125
0.0822125
-0.0643863
-0.0643863
-0.0406156
-0.0359247
-0.0339742
-0.0326778
-0.0316128
-0.0306546
-0.0297413
-0.0288322
-0.0278983
-0.0269194
-0.0258813
-0.0247742
-0.0235919
-0.0223299
-0.0209859
-0.0195579
-0.0180446
-0.016445
-0.0147574
-0.0129799
-0.0111098
-0.00914364
-0.00707668
-0.0049031
-0.00261568
-0.000205779
0.00233683
0.005024
0.00786922
0.0108876
0.0140958
0.0175116
0.0211538
0.0250413
0.0291922
0.0336223
0.0383433
0.0433597
0.0486655
0.0542394
0.0600389
0.0659954
0.0720162
0.0780361
0.0843286
0.0932365
0.124115
0.124115
-0.140699
-0.140699
-0.111288
-0.105129
-0.101249
-0.0975949
-0.0938385
-0.0899522
-0.0859581
-0.0818838
-0.0777551
-0.0735931
-0.0694146
-0.0652312
-0.0610503
-0.056875
-0.0527047
-0.0485349
-0.0443578
-0.0401626
-0.0359349
-0.0316575
-0.0273098
-0.0228679
-0.0183043
-0.0135881
-0.00868447
-0.00355458
0.00184452
0.00755994
0.013643
0.0201488
0.0271362
0.0346663
0.0428019
0.0516047
0.0611329
0.0714367
0.0825525
0.0944948
0.107246
0.120741
0.134852
0.149363
0.163958
0.178241
0.192028
0.207143
0.24726
0.24726
-0.498015
-0.498015
-0.418854
-0.359153
-0.312044
-0.273149
-0.240457
-0.212673
-0.188844
-0.168241
-0.15029
-0.134539
-0.12062
-0.108238
-0.0971471
-0.0871426
-0.0780521
-0.0697276
-0.0620401
-0.0548753
-0.0481294
-0.0417064
-0.0355148
-0.0294651
-0.0234675
-0.0174288
-0.0112503
-0.00482513
0.00196533
0.0092542
0.017193
0.0259555
0.0357427
0.0467873
0.0593592
0.0737709
0.0903828
0.109608
0.131914
0.157826
0.187919
0.222809
0.263129
0.309502
0.362496
0.42261
0.490502
0.568866
0.665281
0.665281
-0.498015
-0.498015
-0.418854
-0.359153
-0.312044
-0.273149
-0.240457
-0.212673
-0.188844
-0.168241
-0.15029
-0.134539
-0.12062
-0.108238
-0.0971471
-0.0871426
-0.0780521
-0.0697276
-0.0620401
-0.0548753
-0.0481294
-0.0417064
-0.0355148
-0.0294651
-0.0234675
-0.0174288
-0.0112503
-0.00482513
0.00196533
0.0092542
0.017193
0.0259555
0.0357427
0.0467873
0.0593592
0.0737709
0.0903828
0.109608
0.131914
0.157826
0.187919
0.222809
0.263129
0.309502
0.362496
0.42261
0.490502
0.568866
0.665281
0.665281
VECTORS velocity double
-4.06642e-05 4.06641e-05 0.0
4.06642e-05 -4.06641e-05 0.0
0.000285917 -0.000204589 0.0
0.000734691 -0.000244185 0.0
0.00121544 -0.000236561 0.0
0.00167068 -0.00021868 0.0
0.00208998 -0.000200625 0.0
0.00247475 -0.000184142 0.0
0.00282812 -0.000169226 0.0
0.00315298 -0.000155639 0.0
0.00345178 -0.00014316 0.0
0.00372655 -0.000131607 0.0
0.00397899 -0.000120832 0.0
0.00421053 -0.000110712 0.0
0.00442239 -0.000101144 0.0
0.00461557 -9.20368e-05 0.0
0.00479092 -8.33146e-05 0.0
0.00494914 -7.49078e-05 0.0
0.00509081 -6.67543e-05 0.0
0.00521636 -5.87971e-05 0.0
0.00532614 -5.0983e-05 0.0
0.00542038 -4.32615e-05 0.0
0.00549923 -3.55836e-05 0.0
0.00556271 -2.79012e-05 0.0
0.00561078 -2.01662e-05 0.0
0.00564327 -1.23294e-05 0.0
0.00565994 -4.34003e-06 0.0
0.00566043 3.85547e-06 0.0
0.00564426 1.23141e-05 0.0
0.00561085 2.10973e-05 0.0
0.00555948 3.02724e-05 0.0
0.00548929 3.99133e-05 0.0
0.00539928 5.01022e-05 0.0
0.00528824 6.09311e-05 0.0
0.00515481 7.25031e-05 0.0
0.00499737 8.49345e-05 0.0
0.00481408 9.83566e-05 0.0
0.00460281 0.000112917 0.0
0.00436111 0.000128781 0.0
0.00408619 0.000146134 0.0
0.00377488 0.000165178 0.0
0.00342357 0.00018613 0.0
0.00302823 0.000209209 0.0
0.00258445 0.000234572 0.0
0.00208795 0.000261933 0.0
0.00153734 0.000288677 0.0
0.000946533 0.000302127 0.0
0.000386313 0.000258093 0.0
6.41103e-05 6.41103e-05 0.0
-6.41103e-05 -6.41103e-05 0.0
4.06642e-05 -4.06641e-05 0.0
-4.06642e-05 4.06641e-05 0.0
-0.000285917 0.000204589 0.0
-0.000734691 0.000244185 0.0
-0.00121544 0.000236561 0.0
-0.00167068 0.00021868 0.0
-0.00208998 0.000200625 0.0
-0.00247475 0.000184142 0.0
-0.00282812 0.000169226 0.0
-0.00315298 0.000155639 0.0
-0.00345178 0.00014316 0.0
-0.00372655 0.000131607 0.0
-0.00397899 0.000120832 0.0
-0.00421053 0.000110712 0.0
-0.00442239 0.000101144 0.0
-0.00461557 9.20368e-05 0.0
-0.00479092 8.33146e-05 0.0
-0.00494914 7.49078e-05 0.0
-0.00509081 6.67543e-05 0.0
-0.00521636 5.87971e-05 0.0
-0.00532614 5.0983e-05 0.0
-0.00542038 4.32615e-05 0.0
-0.00549923 3.55836e-05 0.0
-0.00556271 2.79012e-05 0.0
-0.00561078 2.01662e-05 0.0
-0.00564327 1.23294e-05 0.0
-0.00565994 4.34003e-06 0.0
-0.00566043 -3.85547e-06 0.0
-0.00564426 -1.23141e-05 0.0
-0.00561085 -2.10973e-05 0.0
-0.00555948 -3.02724e-05 0.0
-0.00548929 -3.99133e-05 0.0
-0.00539928 -5.01022e-05 0.0
-0.00528824 -6.09311e-05 0.0
-0.00515481 -7.25031e-05 0.0
-0.00499737 -8.49345e-05 0.0
-0.00481408 -9.83566e-05 0.0
-0.00460281 -0.000112917 0.0
-0.00436111 -0.000128781 0.0
-0.00408619 -0.000146134 0.0
-0.00377488 -0.000165178 0.0
-0.00342357 -0.00018613 0.0
-0.00302823 -0.000209209 0.0
-0.00258445 -0.000234572 0.0
-0.00208795 -0.000261933 0.0
-0.00153734 -0.000288677 0.0
-0.000946533 -0.000302127 0.0
-0.000386313 -0.000258093 0.0
-6.41103e-05 -6.41103e-05 0.0
6.41103e-05 6.41103e-05 0.0
0.000151937 -0.000233265 0.0
-0.000151937 0.000233265 0.0
-0.000622119 0.000727422 0.0
-0.00129848 0.000846491 0.0
-0.00200616 0.000822679 0.0
-0.00268547 0.000767111 0.0
-0.00332419 0.000710222 0.0
-0.00392227 0.000657391 0.0
-0.00448165 0.000608723 0.0
-0.00500424 0.000563597 0.0
-0.00549167 0.000521426 0.0
-0.00594529 0.000481729 0.0
-0.00636625 0.000444113 0.0
-0.00675553 0.000408252 0.0
-0.00711394 0.000373868 0.0
-0.00744216 0.000340721 0.0
-0.00774078 0.000308601 0.0
-0.00801026 0.000277317 0.0
-0.00825095 0.000246699 0.0
-0.00846313 0.000216584 0.0
-0.00864698 0.000186823 0.0
-0.00880258 0.000157269 0.0
-0.00892994 0.00012778 0.0
-0.00902896 9.82148e-05 0.0
-0.00909947 6.84317e-05 0.0
-0.0091412 3.82851e-05 0.0
-0.00915377 7.62409e-06 0.0
-0.00913671 -2.371e-05 0.0
-0.00908946 -5.58856e-05 0.0
-0.00901131 -8.90839e-05 0.0
-0.00890146 -0.000123502 0.0
-0.00875898 -0.000159354 0.0
-0.00858278 -0.000196877 0.0
-0.00837163 -0.000236335 0.0
-0.00812415 -0.00027802 0.0
-0.00783874 -0.000322258 0.0
-0.00751366 -0.000369413 0.0
-0.0071469 -0.000419892 0.0
-0.00673626 -0.000474144 0.0
-0.00627928 -0.000532662 0.0
-0.00577327 -0.000595979 0.0
-0.00521525 -0.000664655 0.0
-0.00460204 -0.000739232 0.0
-0.00393033 -0.000820033 0.0
-0.00319728 -0.000906033 0.0
-0.0024033 -0.000989165 0.0
-0.00156462 -0.00103112 0.0
-0.000754949 -0.000898986 0.0
-0.000186074 -0.000314295 0.0
0.000186074 0.000314295 0.0
0.000180752 -0.000565954 0.0
-0.000180752 0.000565954 0.0
-0.000710879 0.00139504 0.0
-0.00144916 0.00159352 0.0
-0.00221767 0.00155184 0.0
-0.00295624 0.00145583 0.0
-0.0036525 0.00135649 0.0
-0.00430626 0.00126297 0.0
-0.00491934 0.0011756 0.0
-0.00549349 0.00109346 0.0
-0.00603018 0.00101568 0.0
-0.00653063 0.000941544 0.0
-0.00699584 0.000870467 0.0
-0.00742663 0.000801966 0.0
-0.00782369 0.000735628 0.0
-0.0081876 0.000671095 0.0
-0.0085188 0.00060805 0.0
-0.00881767 0.000546207 0.0
-0.00908447 0.000485302 0.0
-0.0093194 0.000425086 0.0
-0.00952255 0.000365323 0.0
-0.00969396 0.000305783 0.0
-0.00983358 0.000246241 0.0
-0.00994127 0.00018647 0.0
-0.0100168 0.000126241 0.0
-0.0100599 6.53178e-05 0.0
-0.0100702 3.45691e-06 0.0
-0.0100472 -5.95993e-05 0.0
-0.00999036 -0.000124124 0.0
-0.00989895 -0.000190409 0.0
-0.0097722 -0.000258772 0.0
-0.00960921 -0.000329556 0.0
-0.00940894 -0.00040314 0.0
-0.00917022 -0.000479939 0.0
-0.00889171 -0.000560413 0.0
-0.00857191 -0.000645071 0.0
-0.00820912 -0.000734477 0.0
-0.00780146 -0.000829253 0.0
-0.0073468 -0.00093008 0.0
-0.0068428 -0.0010377 0.0
-0.00628686 -0.0011529 0.0
-0.00567614 -0.00127648 0.0
-0.00500755 -0.0014092 0.0
-0.00427793 -0.0015514 0.0
-0.00348451 -0.00170114 0.0
-0.00262786 -0.00184468 0.0
-0.00172441 -0.00191773 0.0
-0.000848648 -0.00169781 0.0
-0.000216313 -0.000716682 0.0
0.000216313 0.000716682 0.0
0.000187889 -0.000934595 0.0
-0.000187889 0.000934595 0.0
-0.000735081 0.00210372 0.0
-0.00149301 0.00238105 0.0
-0.0022803 0.00232011 0.0
-0.00303638 0.0021822 0.0
-0.00374898 0.00203897 0.0
-0.00441805 0.00190332 0.0
-0.00504549 0.00177576 0.0
-0.00563312 0.00165508 0.0
-0.00618247 0.0015401 0.0
-0.00669478 0.00142988 0.0
-0.00717106 0.00132362 0.0
-0.00761215 0.0012207 0.0
-0.00801876 0.00112056 0.0
-0.00839143 0.00102274 0.0
-0.00873063 0.000926812 0.0
-0.00903672 0.000832399 0.0
-0.00930996 0.000739149 0.0
-0.00955052 0.000646732 0.0
-0.00975852 0.000554831 0.0
-0.00993397 0.000463138 0.0
-0.0100768 0.000371349 0.0
-0.0101869 0.000279156 0.0
-0.0102641 0.00018625 0.0
-0.0103079 9.23083e-05 0.0
-0.0103182 -3.00088e-06 0.0
-0.0102943 -0.000100029 0.0
-0.0102357 -0.000199148 0.0
-0.0101418 -0.000300759 0.0
-0.0100116 -0.000405293 0.0
-0.00984444 -0.000513219 0.0
-0.00963913 -0.000625052 0.0
-0.00939452 -0.000741359 0.0
-0.00910927 -0.000862762 0.0
-0.00878184 -0.000989954 0.0
-0.00841053 -0.0011237 0.0
-0.0079934 -0.00126483 0.0
-0.00752829 -0.00141427 0.0
-0.0070128 -0.00157301 0.0
-0.00644423 -0.00174209 0.0
-0.00581965 -0.00192259 0.0
-0.00513586 -0.00211546 0.0
-0.00438952 -0.0023211 0.0
-0.00357772 -0.00253667 0.0
-0.00270083 -0.0027427 0.0
-0.00177526 -0.00284873 0.0
-0.000876269 -0.00254156 0.0
-0.00022427 -0.00115726 0.0
0.00022427 0.00115726 0.0
0.000191088 -0.00131357 0.0
-0.000191088 0.00131357 0.0
-0.000747867 0.00282871 0.0
-0.00151832 0.00318444 0.0
-0.00231713 0.00310282 0.0
-0.00308325 0.00292169 0.0
-0.00380459 0.00273343 0.0
-0.00448134 0.00255468 0.0
-0.00511557 0.00238608 0.0
-0.00570928 0.0022261 0.0
-0.00626407 0.00207323 0.0
-0.00678129 0.00192627 0.0
-0.00726201 0.00178424 0.0
-0.00770715 0.00164632 0.0
-0.00811743 0.00151183 0.0
-0.00849346 0.00138018 0.0
-0.00883571 0.00125083 0.0
-0.00914458 0.00112333 0.0
-0.00942034 0.000997216 0.0
-0.00966319 0.000872083 0.0
-0.00987324 0.000747532 0.0
-0.0100505 0.000623175 0.0
-0.010195 0.000498627 0.0
-0.0103065 0.000373501 0.0
-0.0103849 0.000247403 0.0
-0.0104298 0.000119929 0.0
-0.0104408 -9.34608e-06 0.0
-0.0104175 -0.000140867 0.0
-0.0103593 -0.000275107 0.0
-0.0102655 -0.000412576 0.0
-0.0101352 -0.000553824 0.0
-0.00996768 -0.000699449 0.0
-0.00976171 -0.000850106 0.0
-0.0095161 -0.00100652 0.0
-0.00922948 -0.00116948 0.0
-0.00890025 -0.00133988 0.0
-0.00852665 -0.00151869 0.0
-0.00810664 -0.00170697 0.0
-0.00763797 -0.0019059 0.0
-0.00711809 -0.00211675 0.0
-0.00654416 -0.00234084 0.0
-0.00591306 -0.00257952 0.0
-0.00522136 -0.00283401 0.0
-0.00446547 -0.00310478 0.0
-0.0036422 -0.00338808 0.0
-0.00275164 -0.00365875 0.0
-0.00181008 -0.00379981 0.0
-0.000893748 -0.0034058 0.0
-0.00022862 -0.00161015 0.0
0.00022862 0.00161015 0.0
0.000194454 -0.00169911 0.0
-0.000194454 0.00169911 0.0
-0.000761544 0.00356704 0.0
-0.00154557 0.00400059 0.0
-0.00235666 0.00389656 0.0
-0.00313324 0.00367063 0.0
-0.00386347 0.00343607 0.0
-0.00454783 0.00321315 0.0
-0.00518865 0.00300266 0.0
-0.00578807 0.00280265 0.0
-0.00634788 0.00261129 0.0
-0.00686953 0.00242708 0.0
-0.00735421 0.00224883 0.0
-0.00780288 0.00207553 0.0
-0.00821635 0.00190636 0.0
-0.00859527 0.00174059 0.0
-0.00894016 0.00157757 0.0
-0.00925145 0.00141674 0.0
-0.00952944 0.00125755 0.0
-0.00977435 0.00109951 0.0
-0.00998631 0.000942126 0.0
-0.0101654 0.000784932 0.0
-0.0103115 0.00062746 0.0
-0.0104246 0.00046924 0.0
-0.0105043 0.000309794 0.0
-0.0105505 0.000148628 0.0
-0.0105628 -1.47754e-05 0.0
-0.0105405 -0.000180959 0.0
-0.0104833 -0.000350503 0.0
-0.0103902 -0.000524028 0.0
-0.0102606 -0.000702209 0.0
-0.0100935 -0.000885781 0.0
-0.00988767 -0.00107555 0.0
-0.00964195 -0.0012724 0.0
-0.00935486 -0.00147732 0.0
-0.00902475 -0.00169139 0.0
-0.00864973 -0.00191581 0.0
-0.00822767 -0.00215191 0.0
-0.00775617 -0.00240114 0.0
-0.0072325 -0.00266506 0.0
-0.00665364 -0.00294532 0.0
-0.0060162 -0.00324358 0.0
-0.00531649 -0.00356136 0.0
-0.00455058 -0.00389922 0.0
-0.00371492 -0.00425257 0.0
-0.00280923 -0.0045905 0.0
-0.00184965 -0.00476919 0.0
-0.000913582 -0.00428883 0.0
-0.000233529 -0.0020723 0.0
0.000233529 0.0020723 0.0
0.00019879 -0.00209236 0.0
-0.00019879 0.00209236 0.0
-0.000778529 0.00432062 0.0
-0.00157876 0.00483126 0.0
-0.00240447 0.0047027 0.0
-0.00319347 0.00443006 0.0
-0.00393423 0.00414764 0.0
-0.00462759 0.00387931 0.0
-0.00527616 0.00362588 0.0
-0.00588232 0.00338501 0.0
-0.00644803 0.00315445 0.0
-0.00697488 0.00293242 0.0
-0.00746417 0.00271746 0.0
-0.00791698 0.00250838 0.0
-0.00833417 0.00230418 0.0
-0.00871647 0.00210399 0.0
-0.00906445 0.00190705 0.0
-0.00937856 0.00171267 0.0
-0.00965917 0.00152022 0.0
-0.0099065 0.00132909 0.0
-0.0101207 0.00113873 0.0
-0.0103019 0.000948565 0.0
-0.01045 0.000758045 0.0
-0.0105649 0.000566614 0.0
-0.0106464 0.000373704 0.0
-0.0106942 0.000178729 0.0
-0.0107079 -1.89248e-05 0.0
-0.0106871 -0.000219903 0.0
-0.010631 -0.000424897 0.0
-0.010539 -0.000634648 0.0
-0.0104103 -0.000849962 0.0
-0.0102437 -0.00107172 0.0
-0.0100383 -0.00130088 0.0
-0.00979254 -0.00153851 0.0
-0.00950503 -0.0017858 0.0
-0.00917398 -0.00204406 0.0
-0.00879741 -0.00231473 0.0
-0.00837303 -0.00259942 0.0
-0.00789827 -0.0028999 0.0
-0.00737019 -0.00321804 0.0
-0.00678553 -0.00355587 0.0
-0.0061406 -0.0039154 0.0
-0.00543136 -0.00429849 0.0
-0.0046535 -0.00470585 0.0
-0.00380302 -0.00513209 0.0
-0.00287921 -0.00554049 0.0
-0.00189803 -0.00575996 0.0
-0.000938206 -0.00519395 0.0
-0.000239803 -0.00254563 0.0
0.000239803 0.00254563 0.0
0.000204253 -0.0024954 0.0
-0.000204253 0.0024954 0.0
-0.000799304 0.00509237 0.0
-0.00161868 0.00567912 0.0
-0.00246162 0.0055235 0.0
-0.00326525 0.00520188 0.0
-0.00401844 0.00486976 0.0
-0.00472244 0.00455453 0.0
-0.00538018 0.00425696 0.0
-0.00599431 0.00397422 0.0
-0.00656701 0.00370365 0.0
-0.00710004 0.0034431 0.0
-0.00759482 0.00319086 0.0
-0.00805254 0.00294551 0.0
-0.00847416 0.00270587 0.0
-0.00886048 0.00247091 0.0
-0.00921213 0.00223975 0.0
-0.00952961 0.00201157 0.0
-0.00981333 0.00178563 0.0
-0.0100636 0.00156124 0.0
-0.0102805 0.00133772 0.0
-0.0104642 0.00111443 0.0
-0.0106146 0.000890724 0.0
-0.0107317 0.000665948 0.0
-0.0108153 0.000439443 0.0
-0.010865 0.000210527 0.0
-0.0108805 -2.15157e-05 0.0
-0.0108612 -0.000257441 0.0
-0.0108066 -0.000498055 0.0
-0.0107159 -0.000744227 0.0
-0.0105881 -0.000996904 0.0
-0.0104223 -0.00125712 0.0
-0.0102172 -0.00152601 0.0
-0.0099715 -0.00180484 0.0
-0.00968348 -0.002095 0.0
-0.00935133 -0.00239806 0.0
-0.00897291 -0.00271573 0.0
-0.00854577 -0.00304994 0.0
-0.00806713 -0.00340278 0.0
-0.00753383 -0.00377653 0.0
-0.00694228 -0.00417359 0.0
-0.00628847 -0.00459641 0.0
-0.00556796 -0.00504723 0.0
-0.00477596 -0.00552697 0.0
-0.00390797 -0.00602945 0.0
-0.00296277 -0.00651215 0.0
-0.00195607 -0.00677618 0.0
-0.000968153 -0.00612547 0.0
-0.000247618 -0.00303306 0.0
0.000247618 0.00303306 0.0
0.000210905 -0.00291056 0.0
-0.000210905 0.00291056 0.0
-0.000824046 0.00588541 0.0
-0.0016656 0.00654701 0.0
-0.00252843 0.00636139 0.0
-0.00334898 0.00598818 0.0
-0.00411654 0.00560423 0.0
-0.00483285 0.00524037 0.0
-0.00550123 0.00489725 0.0
-0.00612463 0.00457148 0.0
-0.00670546 0.00425992 0.0
-0.00724566 0.00396005 0.0
-0.00774683 0.00366986 0.0
-0.00821027 0.00338767 0.0
-0.00863706 0.00311211 0.0
-0.00902807 0.00284199 0.0
-0.009384 0.00257625 0.0
-0.00970542 0.00231398 0.0
-0.00999277 0.0020543 0.0
-0.0102464 0.0017964 0.0
-0.0104664 0.00153953 0.0
-0.0106531 0.00128294 0.0
-0.0108062 0.00102587 0.0
-0.0109259 0.000767589 0.0
-0.0110119 0.000507335 0.0
-0.0110638 0.000244321 0.0
-0.0110814 -2.22755e-05 0.0
-0.011064 -0.000293325 0.0
-0.011011 -0.00056976 0.0
-0.0109217 -0.000852586 0.0
-0.0107951 -0.0011429 0.0
-0.0106302 -0.0014419 0.0
-0.0104256 -0.00175091 0.0
-0.0101798 -0.00207141 0.0
-0.0098912 -0.00240504 0.0
-0.00955775 -0.00275362 0.0
-0.00917716 -0.00311918 0.0
-0.00874681 -0.00350399 0.0
-0.00826366 -0.00391052 0.0
-0.00772427 -0.00434149 0.0
-0.00712472 -0.00479974 0.0
-0.00646061 -0.0052882 0.0
-0.00572701 -0.00580955 0.0
-0.00491863 -0.00636501 0.0
-0.00403037 -0.00694766 0.0
-0.00306041 -0.0075091 0.0
-0.0020242 -0.00782213 0.0
-0.00100368 -0.00708795 0.0
-0.000257058 -0.00353773 0.0
0.000257058 0.00353773 0.0
0.000218802 -0.00334026 0.0
-0.000218802 0.00334026 0.0
-0.000852918 0.00670296 0.0
-0.00171975 0.00743785 0.0
-0.00260519 0.00721882 0.0
-0.00344494 0.00679104 0.0
-0.00422885 0.00635285 0.0
-0.00495918 0.0059384 0.0
-0.00563969 0.00554811 0.0
-0.00627365 0.00517798 0.0
-0.00686375 0.00482434 0.0
-0.00741216 0.00448424 0.0
-0.00792063 0.00415532 0.0
-0.00839062 0.00383565 0.0
-0.00882332 0.00352362 0.0
-0.00921969 0.00321786 0.0
-0.00958053 0.00291715 0.0
-0.00990646 0.00262043 0.0
-0.010198 0.00232671 0.0
-0.0104554 0.00203505 0.0
-0.0106791 0.0017446 0.0
-0.0108691 0.00145448 0.0
-0.0110254 0.00116386 0.0
-0.011148 0.000871895 0.0
-0.0112368 0.000577712 0.0
-0.0112913 0.000280419 0.0
-0.0113112 -2.09216e-05 0.0
-0.0112959 -0.000327303 0.0
-0.0112449 -0.000639791 0.0
-0.0111572 -0.000959538 0.0
-0.011032 -0.0012878 0.0
-0.010868 -0.00162596 0.0
-0.0106639 -0.00197556 0.0
-0.0104181 -0.00233828 0.0
-0.0101288 -0.00271605 0.0
-0.00979392 -0.00311098 0.0
-0.00941087 -0.00352545 0.0
-0.00897685 -0.0039621 0.0
-0.00848855 -0.00442385 0.0
-0.00794222 -0.00491388 0.0
-0.00733355 -0.00543556 0.0
-0.00665767 -0.00599236 0.0
-0.00590916 -0.0065875 0.0
-0.0050821 -0.0072225 0.0
-0.00417075 -0.00788979 0.0
-0.00317261 -0.00853506 0.0
-0.0021028 -0.00890219 0.0
-0.00104506 -0.00808615 0.0
-0.000268212 -0.004063 0.0
0.000268212 0.004063 0.0
0.000228012 -0.00378708 0.0
-0.000228012 0.00378708 0.0
-0.000886106 0.00754835 0.0
-0.0017814 0.00835457 0.0
-0.00269217 0.0080983 0.0
-0.00355346 0.00761259 0.0
-0.0043557 0.00711745 0.0
-0.00510178 0.0066502 0.0
-0.00579591 0.00621094 0.0
-0.00644176 0.00579496 0.0
-0.0070423 0.005398 0.0
-0.00759994 0.00501663 0.0
-0.00811665 0.00464811 0.0
-0.00859402 0.00429022 0.0
-0.00903339 0.00394111 0.0
-0.00943582 0.00359918 0.0
-0.0098022 0.00326305 0.0
-0.0101332 0.00293149 0.0
-0.0104294 0.00260338 0.0
-0.0106913 0.00227767 0.0
-0.010919 0.00195336 0.0
-0.0111128 0.00162949 0.0
-0.0112727 0.0013051 0.0
-0.0113986 0.000979235 0.0
-0.0114905 0.00065092 0.0
-0.0115479 0.000319143 0.0
-0.0115705 -1.71572e-05 0.0
-0.0115577 -0.000359105 0.0
-0.0115088 -0.000707909 0.0
-0.011423 -0.00106488 0.0
-0.0112993 -0.00143145 0.0
-0.0111364 -0.0018092 0.0
-0.0109329 -0.00219989 0.0
-0.0106872 -0.00260547 0.0
-0.0103971 -0.00302815 0.0
-0.0100606 -0.00347037 0.0
-0.00967478 -0.0039349 0.0
-0.00923664 -0.00442481 0.0
-0.00874257 -0.00494351 0.0
-0.00818843 -0.0054947 0.0
-0.00756949 -0.00608235 0.0
-0.00688038 -0.00671056 0.0
-0.00611508 -0.00738311 0.0
-0.00526703 -0.00810199 0.0
-0.00432971 -0.00885898 0.0
-0.00329991 -0.00959382 0.0
-0.00219231 -0.0100208 0.0
-0.00109257 -0.00912499 0.0
-0.000281187 -0.0046124 0.0
0.000281187 0.0046124 0.0
0.000238617 -0.00425371 0.0
-0.000238617 0.00425371 0.0
-0.000923827 0.00842503 0.0
-0.00185082 0.00930019 0.0
-0.00278971 0.00900235 0.0
-0.00367488 0.008455 0.0
-0.00449747 0.00789989 0.0
-0.00526103 0.00737739 0.0
-0.00597031 0.00688715 0.0
-0.00662938 0.00642367 0.0
-0.00724155 0.005982 0.0
-0.00780948 0.0055582 0.0
-0.00833536 0.00514912 0.0
-0.00882097 0.0047522 0.0
-0.00926778 0.0043653 0.0
-0.00967697 0.00398661 0.0
-0.0100495 0.00361455 0.0
-0.0103862 0.00324772 0.0
-0.0106877 0.00288485 0.0
-0.0109544 0.00252474 0.0
-0.0111867 0.00216629 0.0
-0.0113847 0.00180839 0.0
-0.0115486 0.00144999 0.0
-0.0116783 0.00108999 0.0
-0.0117736 0.00072732 0.0
-0.0118343 0.00036083 0.0
-0.0118599 -1.06694e-05 0.0
-0.0118498 -0.000388444 0.0
-0.0118034 -0.000773856 0.0
-0.0117198 -0.00116839 0.0
-0.0115978 -0.00157366 0.0
-0.0114362 -0.00199148 0.0
-0.0112334 -0.00242384 0.0
-0.0109877 -0.00287299 0.0
-0.0106969 -0.00334143 0.0
-0.0103586 -0.00383201 0.0
-0.00996973 -0.00434789 0.0
-0.00952704 -0.00489265 0.0
-0.00902656 -0.00547022 0.0
-0.00846374 -0.00608494 0.0
-0.00783338 -0.00674142 0.0
-0.00712954 -0.00744444 0.0
-0.00634556 -0.00819851 0.0
-0.00547413 -0.00900608 0.0
-0.00450792 -0.0098584 0.0
-0.00344289 -0.0106892 0.0
-0.00229325 -0.0111827 0.0
-0.00114659 -0.0102096 0.0
-0.000296107 -0.0051897 0.0
0.000296107 0.0051897 0.0
0.000250713 -0.00474304 0.0
-0.000250713 0.00474304 0.0
-0.000966331 0.00933652 0.0
-0.00192837 0.0102777 0.0
-0.00289818 0.00993352 0.0
-0.0038096 0.00932042 0.0
-0.00465458 0.00870204 0.0
-0.0054374 0.00812161 0.0
-0.00616337 0.00757818 0.0
-0.00683702 0.00706536 0.0
-0.00746201 0.00657746 0.0
-0.00804131 0.00610997 0.0
-0.00857732 0.00565925 0.0
-0.00907202 0.00522239 0.0
-0.00952705 0.00479694 0.0
-0.00994371 0.00438083 0.0
-0.0103231 0.00397228 0.0
-0.0106661 0.00356969 0.0
-0.0109734 0.00317164 0.0
-0.0112455 0.00277678 0.0
-0.0114828 0.00238385 0.0
-0.0116856 0.00199164 0.0
-0.0118539 0.00159894 0.0
-0.0119878 0.00120457 0.0
-0.012087 0.000807289 0.0
-0.0121513 0.000405834 0.0
-0.0121802 -1.12676e-06 0.0
-0.0121733 -0.000415014 0.0
-0.0121296 -0.000837356 0.0
-0.0120483 -0.00126982 0.0
-0.0119283 -0.00171424 0.0
-0.0117682 -0.00217265 0.0
-0.0115663 -0.00264733 0.0
-0.0113207 -0.00314081 0.0
-0.0110291 -0.00365598 0.0
-0.0106888 -0.00419609 0.0
-0.0102967 -0.00476477 0.0
-0.00984899 -0.00536614 0.0
-0.00934146 -0.00600475 0.0
-0.00876909 -0.0066856 0.0
-0.00812614 -0.00741406 0.0
-0.00740606 -0.00819571 0.0
-0.00660145 -0.00903582 0.0
-0.00570421 -0.00993745 0.0
-0.00470613 -0.0108913 0.0
-0.00360223 -0.0118252 0.0
-0.00240617 -0.0123924 0.0
-0.00120749 -0.0113452 0.0
-0.000313119 -0.00579892 0.0
0.000313119 0.00579892 0.0
0.000264412 -0.00525816 0.0
-0.000264412 0.00525816 0.0
-0.00101391 0.0102865 0.0
-0.0020144 0.0112903 0.0
-0.00301798 0.0108944 0.0
-0.00395806 0.0102111 0.0
-0.00482749 0.00952582 0.0
-0.00563136 0.00888452 0.0
-0.00637559 0.00828548 0.0
-0.0070652 0.00772132 0.0
-0.00770424 0.00718553 0.0
-0.00829599 0.00667294 0.0
-0.00884311 0.00617941 0.0
-0.00934779 0.00570162 0.0
-0.00981183 0.00523677 0.0
-0.0102367 0.00478253 0.0
-0.0106236 0.00433688 0.0
-0.0109735 0.00389801 0.0
-0.0112872 0.00346431 0.0
-0.0115653 0.00303429 0.0
-0.0118082 0.00260653 0.0
-0.0120161 0.00217968 0.0
-0.0121893 0.00175241 0.0
-0.0123277 0.00132338 0.0
-0.0124313 0.000891221 0.0
-0.0124996 0.000454531 0.0
-0.0125323 1.18223e-05 0.0
-0.0125287 -0.000438488 0.0
-0.0124882 -0.000898111 0.0
-0.0124096 -0.00136891 0.0
-0.0122918 -0.00185296 0.0
-0.0121333 -0.00235254 0.0
-0.0119324 -0.00287023 0.0
-0.011687 -0.00340892 0.0
-0.0113946 -0.00397187 0.0
-0.0110523 -0.0045628 0.0
-0.0106566 -0.00518587 0.0
-0.0102035 -0.0058458 0.0
-0.00968833 -0.00654782 0.0
-0.00910552 -0.0072977 0.0
-0.00844879 -0.00810164 0.0
-0.0077109 -0.00896611 0.0
-0.00688369 -0.00989724 0.0
-0.00595816 -0.0108988 0.0
-0.00492514 -0.0119611 0.0
-0.00377867 -0.0130058 0.0
-0.0025317 -0.0136548 0.0
-0.00127575 -0.0125374 0.0
-0.000332394 -0.00644443 0.0
0.000332394 0.00644443 0.0
0.000279842 -0.00580242 0.0
-0.000279842 0.00580242 0.0
-0.00106688 0.0112788 0.0
-0.00210934 0.0123409 0.0
-0.00314958 0.0118875 0.0
-0.00412073 0.0111292 0.0
-0.00501671 0.0103731 0.0
-0.00584344 0.00966779 0.0
-0.00660753 0.00901053 0.0
-0.00731451 0.00839286 0.0
-0.00796885 0.00780736 0.0
-0.00857415 0.00724816 0.0
-0.00913338 0.00671054 0.0
-0.00964895 0.00619073 0.0
-0.0101228 0.00568558 0.0
-0.0105567 0.00519243 0.0
-0.0109518 0.00470899 0.0
-0.0113092 0.00423326 0.0
-0.0116299 0.00376343 0.0
-0.0119145 0.00329781 0.0
-0.0121634 0.00283484 0.0
-0.0123771 0.00237301 0.0
-0.0125557 0.00191084 0.0
-0.0126991 0.00144685 0.0
-0.0128074 0.000979531 0.0
-0.0128802 0.000507314 0.0
-0.012917 2.8552e-05 0.0
-0.0129173 -0.000458516 0.0
-0.0128801 -0.000955797 0.0
-0.0128045 -0.00146538 0.0
-0.0126893 -0.00198957 0.0
-0.0125327 -0.00253095 0.0
-0.012333 -0.00309242 0.0
-0.0120879 -0.00367725 0.0
-0.0117947 -0.00428914 0.0
-0.0114502 -0.00493232 0.0
-0.0110507 -0.00561153 0.0
-0.0105918 -0.00633215 0.0
-0.0100683 -0.0071002 0.0
-0.00947414 -0.00792227 0.0
-0.00880242 -0.00880553 0.0
-0.00804514 -0.00975739 0.0
-0.0071933 -0.010785 0.0
-0.00623694 -0.0118929 0.0
-0.00516586 -0.0130711 0.0
-0.003973 -0.0142352 0.0
-0.00267056 -0.0149749 0.0
-0.00135187 -0.013792 0.0
-0.00035413 -0.00713096 0.0
0.00035413 0.00713096 0.0
0.00029715 -0.00637941 0.0
-0.00029715 0.00637941 0.0
-0.00112561 0.0123173 0.0
-0.00221364 0.0134329 0.0
-0.00329345 0.0129156 0.0
-0.00429815 0.0120769 0.0
-0.00522278 0.011246 0.0
-0.00607423 0.0104732 0.0
-0.00685981 0.00975484 0.0
-0.00758559 0.00908131 0.0
-0.00825649 0.00844415 0.0
-0.0088765 0.00783669 0.0
-0.00944887 0.0072536 0.0
-0.00997623 0.00669061 0.0
-0.0104608 0.00614415 0.0
-0.0109044 0.00561124 0.0
-0.0113084 0.00508931 0.0
-0.011674 0.00457609 0.0
-0.0120023 0.00406958 0.0
-0.012294 0.00356789 0.0
-0.0125496 0.0030693 0.0
-0.0127695 0.00257212 0.0
-0.0129539 0.00207472 0.0
-0.0131029 0.00157545 0.0
-0.0132164 0.00107266 0.0
-0.013294 0.000564603 0.0
-0.0133354 4.94609e-05 0.0
-0.0133399 -0.000474722 0.0
-0.0133065 -0.00101007 0.0
-0.0132343 -0.0015589 0.0
-0.0131218 -0.0021238 0.0
-0.0129675 -0.00270766 0.0
-0.0127691 -0.00331375 0.0
-0.0125244 -0.00394574 0.0
-0.0122305 -0.00460783 0.0
-0.0118838 -0.0053048 0.0
-0.0114802 -0.00604205 0.0
-0.0110151 -0.00682571 0.0
-0.0104826 -0.00766263 0.0
-0.00987619 -0.00856037 0.0
-0.00918823 -0.00952711 0.0
-0.00840993 -0.0105714 0.0
-0.00753137 -0.0117014 0.0
-0.00654159 -0.0129226 0.0
-0.00542924 -0.0142248 0.0
-0.00418612 -0.0155175 0.0
-0.00282351 -0.0163576 0.0
-0.00143645 -0.0151149 0.0
-0.000378549 -0.00786364 0.0
0.000378549 0.00786364 0.0
0.000316506 -0.00699306 0.0
-0.000316506 0.00699306 0.0
-0.00119051 0.0134061 0.0
-0.00232781 0.0145694 0.0
-0.00345015 0.0139812 0.0
-0.00449087 0.0130567 0.0
-0.00544631 0.0121463 0.0
-0.00632435 0.0113023 0.0
-0.00713307 0.0105199 0.0
-0.00787912 0.00978804 0.0
-0.0085679 0.00909711 0.0
-0.00920378 0.00843962 0.0
-0.00979033 0.00780957 0.0
-0.0103305 0.00720213 0.0
-0.0108266 0.0066133 0.0
-0.0112806 0.00603972 0.0
-0.0116943 0.00547851 0.0
-0.0120689 0.00492714 0.0
-0.0124054 0.00438337 0.0
-0.0127048 0.00384512 0.0
-0.0129676 0.00331046 0.0
-0.0131942 0.00277753 0.0
-0.0133851 0.00224454 0.0
-0.0135401 0.00170966 0.0
-0.0136592 0.00117107 0.0
-0.0137422 0.000626844 0.0
-0.0137886 7.49745e-05 0.0
-0.0137977 -0.000486704 0.0
-0.0137686 -0.00106054 0.0
-0.0137001 -0.00164913 0.0
-0.0135908 -0.00225535 0.0
-0.0134388 -0.00288243 0.0
-0.0132421 -0.00353402 0.0
-0.012998 -0.00421429 0.0
-0.0127033 -0.00492795 0.0
-0.0123543 -0.0056804 0.0
-0.0119465 -0.00647777 0.0
-0.0114747 -0.00732701 0.0
-0.0109326 -0.00823591 0.0
-0.010313 -0.00921308 0.0
-0.0096075 -0.0102678 0.0
-0.00880651 -0.0114099 0.0
-0.00789911 -0.0126488 0.0
-0.00687322 -0.0139909 0.0
-0.00571633 -0.0154258 0.0
-0.00441898 -0.016857 0.0
-0.00299139 -0.0178083 0.0
-0.00153011 -0.0165126 0.0
-0.00040591 -0.0086481 0.0
0.00040591 0.0086481 0.0
0.0003381 -0.00764767 0.0
-0.0003381 0.00764767 0.0
-0.00126204 0.0145494 0.0
-0.0024524 0.0157538 0.0
-0.00362027 0.0150871 0.0
-0.0046995 0.0140708 0.0
-0.00568793 0.0130761 0.0
-0.00659448 0.0121571 0.0
-0.00742802 0.0113074 0.0
-0.00819585 0.0105144 0.0
-0.00890385 0.00976749 0.0
-0.0095568 0.00905808 0.0
-0.0101586 0.00837947 0.0
-0.0107125 0.00772623 0.0
-0.011221 0.00709387 0.0
-0.0116865 0.00647864 0.0
-0.0121105 0.00587732 0.0
-0.0124947 0.00528708 0.0
-0.0128402 0.00470544 0.0
-0.0131479 0.00413008 0.0
-0.0134185 0.00355888 0.0
-0.0136525 0.00298979 0.0
-0.0138502 0.00242082 0.0
-0.0140118 0.00184998 0.0
-0.0141372 0.00127525 0.0
-0.014226 0.000694509 0.0
-0.0142779 0.000105547 0.0
-0.014292 -0.000494028 0.0
-0.0142676 -0.00110682 0.0
-0.0142032 -0.0017357 0.0
-0.0140974 -0.00238388 0.0
-0.0139482 -0.00305497 0.0
-0.0137534 -0.00375305 0.0
-0.01351 -0.00448278 0.0
-0.0132146 -0.00524949 0.0
-0.0128633 -0.00605925 0.0
-0.012451 -0.00691899 0.0
-0.011972 -0.00783658 0.0
-0.0114196 -0.00882082 0.0
-0.0107859 -0.00988149 0.0
-0.0100616 -0.0110292 0.0
-0.00923622 -0.012275 0.0
-0.00829777 -0.0136296 0.0
-0.00723304 -0.0151007 0.0
-0.00602826 -0.0166776 0.0
-0.00467262 -0.0182581 0.0
-0.00317516 -0.0193323 0.0
-0.0016336 -0.0179915 0.0
-0.000436501 -0.00949051 0.0
0.000436501 0.00949051 0.0
0.000362148 -0.00834792 0.0
-0.000362148 0.00834792 0.0
-0.00134072 0.0157517 0.0
-0.00258804 0.0169892 0.0
-0.00380444 0.016236 0.0
-0.00492472 0.0151214 0.0
-0.00594833 0.0140375 0.0
-0.00688534 0.0130393 0.0
-0.00774543 0.0121189 0.0
-0.00853657 0.011262 0.0
-0.00926516 0.0104566 0.0
-0.00993644 0.00969322 0.0
-0.0105546 0.00896435 0.0
-0.0111233 0.00826386 0.0
-0.0116452 0.00758675 0.0
-0.0121228 0.00692882 0.0
-0.0125581 0.00628649 0.0
-0.0129526 0.00565662 0.0
-0.0133077 0.00503644 0.0
-0.0136244 0.00442341 0.0
-0.0139034 0.00381518 0.0
-0.0141454 0.00320948 0.0
-0.0143506 0.00260414 0.0
-0.0145193 0.00199696 0.0
-0.0146514 0.00138572 0.0
-0.0147467 0.000768103 0.0
-0.0148045 0.000141664 0.0
-0.0148243 -0.000496232 0.0
-0.0148049 -0.00114846 0.0
-0.0147451 -0.00181822 0.0
-0.0146432 -0.00250905 0.0
-0.0144972 -0.00322499 0.0
-0.0143045 -0.0039706 0.0
-0.014062 -0.0047511 0.0
-0.0137661 -0.00557245 0.0
-0.0134122 -0.0064415 0.0
-0.0129952 -0.00736605 0.0
-0.0125087 -0.00835495 0.0
-0.0119454 -0.00941818 0.0
-0.0112965 -0.0105668 0.0
-0.010552 -0.0118127 0.0
-0.00970046 -0.0131685 0.0
-0.0087287 -0.0146464 0.0
-0.00762233 -0.0162551 0.0
-0.00636621 -0.0179842 0.0
-0.00494814 -0.0197252 0.0
-0.0033758 -0.0209349 0.0
-0.00174772 -0.0195585 0.0
-0.000470655 -0.0103977 0.0
0.000470655 0.0103977 0.0
0.000388897 -0.00909896 0.0
-0.000388897 0.00909896 0.0
-0.00142712 0.0170175 0.0
-0.00273538 0.018279 0.0
-0.00400334 0.0174305 0.0
-0.00516723 0.016211 0.0
-0.00622825 0.0150325 0.0
-0.00719769 0.0139507 0.0
-0.00808611 0.0129559 0.0
-0.00890214 0.0120321 0.0
-0.00965275 0.0111657 0.0
-0.0103436 0.0103462 0.0
-0.0109794 0.00956528 0.0
-0.0115638 0.008816 0.0
-0.0121001 0.00809283 0.0
-0.0125908 0.00739109 0.0
-0.0130382 0.0067068 0.0
-0.0134438 0.00603649 0.0
-0.0138092 0.00537708 0.0
-0.0141356 0.00472578 0.0
-0.0144237 0.00407998 0.0
-0.0146743 0.00343721 0.0
-0.0148877 0.00279507 0.0
-0.0150641 0.00215116 0.0
-0.0152035 0.00150304 0.0
-0.0153057 0.000848164 0.0
-0.0153701 0.000183845 0.0
-0.0153959 -0.000492819 0.0
-0.0153821 -0.001185 0.0
-0.0153274 -0.00189624 0.0
-0.0152298 -0.00263047 0.0
-0.0150873 -0.00339217 0.0
-0.014897 -0.00418643 0.0
-0.0146556 -0.00501908 0.0
-0.0143592 -0.00589681 0.0
-0.0140029 -0.00682728 0.0
-0.0135809 -0.00781926 0.0
-0.0130865 -0.0088827 0.0
-0.0125114 -0.0100288 0.0
-0.0118464 -0.0112701 0.0
-0.0110803 -0.0126199 0.0
-0.0102007 -0.0140924 0.0
-0.00919335 -0.0157015 0.0
-0.00804243 -0.0174572 0.0
-0.00673146 -0.0193491 0.0
-0.00524676 -0.0212631 0.0
-0.00359443 -0.0226218 0.0
-0.00187337 -0.0212208 0.0
-0.000508742 -0.0113771 0.0
0.000508742 0.0113771 0.0
0.000418623 -0.00990648 0.0
-0.000418623 0.00990648 0.0
-0.00152187 0.0183514 0.0
-0.00289515 0.0196266 0.0
-0.00421774 0.0186735 0.0
-0.00542779 0.017342 0.0
-0.0065285 0.0160632 0.0
-0.00753239 0.0148933 0.0
-0.00845093 0.0138203 0.0
-0.00929347 0.0128263 0.0
-0.0100676 0.0118962 0.0
-0.0107794 0.0110184 0.0
-0.0114339 0.0101834 0.0
-0.0120352 0.0093837 0.0
-0.0125869 0.00861308 0.0
-0.0130917 0.00786635 0.0
-0.0135519 0.00713909 0.0
-0.0139695 0.00642746 0.0
-0.014346 0.00572808 0.0
-0.0146828 0.00503786 0.0
-0.0149807 0.00435395 0.0
-0.0152405 0.00367362 0.0
-0.0154627 0.00299424 0.0
-0.0156475 0.0023132 0.0
-0.0157949 0.0016278 0.0
-0.0159046 0.000935266 0.0
-0.0159761 0.000232645 0.0
-0.0160086 -0.000483257 0.0
-0.016001 -0.00121594 0.0
-0.0159517 -0.0019693 0.0
-0.015859 -0.00274772 0.0
-0.0157203 -0.00355615 0.0
-0.0155328 -0.00440027 0.0
-0.0152928 -0.00528657 0.0
-0.014996 -0.00622253 0.0
-0.0146371 -0.00721672 0.0
-0.01421 -0.00827896 0.0
-0.013707 -0.0094204 0.0
-0.0131195 -0.0106536 0.0
-0.0124372 -0.0119926 0.0
-0.0116482 -0.0134524 0.0
-0.0107386 -0.015049 0.0
-0.00969321 -0.0167978 0.0
-0.00849478 -0.0187103 0.0
-0.00712538 -0.0207764 0.0
-0.00556975 -0.0228761 0.0
-0.00383225 -0.0243985 0.0
-0.00201153 -0.0229858 0.0
-0.000551186 -0.012437 0.0
0.000551186 0.012437 0.0
0.00045164 -0.0107767 0.0
-0.00045164 0.0107767 0.0
-0.00162568 0.0197584 0.0
-0.00306816 0.0210353 0.0
-0.00444844 0.0199676 0.0
-0.00570724 0.0185168 0.0
-0.00684991 0.0171319 0.0
-0.0078903 0.015869 0.0
-0.00884082 0.0147137 0.0
-0.00971155 0.0136461 0.0
-0.0105106 0.0126495 0.0
-0.0112447 0.0117109 0.0
-0.0119193 0.0108199 0.0
-0.0125387 0.00996804 0.0
-0.0131068 0.00914849 0.0
-0.0136266 0.0083555 0.0
-0.0141006 0.0075842 0.0
-0.014531 0.00683036 0.0
-0.0149195 0.00609022 0.0
-0.0152675 0.00536042 0.0
-0.0155759 0.0046378 0.0
-0.0158458 0.0039194 0.0
-0.0160774 0.00320233 0.0
-0.0162712 0.00248371 0.0
-0.0164272 0.00176063 0.0
-0.0165451 0.00103002 0.0
-0.0166244 0.000288655 0.0
-0.0166641 -0.000466979 0.0
-0.0166632 -0.00124074 0.0
-0.0166201 -0.00203691 0.0
-0.0165326 -0.00286036 0.0
-0.0163982 -0.00371656 0.0
-0.0162137 -0.00461184 0.0
-0.0159753 -0.0055534 0.0
-0.0156782 -0.00654959 0.0
-0.0153168 -0.00760997 0.0
-0.0148842 -0.00874551 0.0
-0.0143723 -0.00996868 0.0
-0.0137716 -0.0112935 0.0
-0.0130709 -0.0127357 0.0
-0.0122572 -0.014312 0.0
-0.0113158 -0.0160403 0.0
-0.0102299 -0.0179378 0.0
-0.0089809 -0.0200177 0.0
-0.00754941 -0.0222699 0.0
-0.00591849 -0.0245692 0.0
-0.00409056 -0.0262709 0.0
-0.00216332 -0.0248614 0.0
-0.000598462 -0.0135866 0.0
0.000598462 0.0135866 0.0
0.000488302 -0.0117167 0.0
-0.000488302 0.0117167 0.0
-0.00173934 0.0212435 0.0
-0.00325528 0.0225086 0.0
-0.00469632 0.0213156 0.0
-0.00600646 0.0197377 0.0
-0.00719341 0.0182406 0.0
-0.00827239 0.0168796 0.0
-0.00925678 0.015638 0.0
-0.0101574 0.0144932 0.0
-0.0109831 0.0134271 0.0
-0.0117409 0.0124252 0.0
-0.0124367 0.011476 0.0
-0.0130755 0.0105701 0.0
-0.0136611 0.0097001 0.0
-0.014197 0.00885954 0.0
-0.0146858 0.00804307 0.0
-0.01513 0.00724604 0.0
-0.0155313 0.00646433 0.0
-0.0158912 0.00569422 0.0
-0.016211 0.00493229 0.0
-0.0164916 0.00417527 0.0
-0.0167335 0.00342002 0.0
-0.0169371 0.0026634 0.0
-0.0171024 0.0019022 0.0
-0.0172291 0.00113308 0.0
-0.0173168 0.000352508 0.0
-0.0173645 -0.00044338 0.0
-0.0173709 -0.00125882 0.0
-0.0173343 -0.00209855 0.0
-0.0172526 -0.00296792 0.0
-0.017123 -0.00387302 0.0
-0.016942 -0.00482083 0.0
-0.0167054 -0.0058194 0.0
-0.0164081 -0.00687796 0.0
-0.016044 -0.00800719 0.0
-0.0156056 -0.00921929 0.0
-0.0150842 -0.0105282 0.0
-0.0144695 -0.0119495 0.0
-0.0137492 -0.0135007 0.0
-0.0129094 -0.0152005 0.0
-0.0119341 -0.0170687 0.0
-0.0108051 -0.0191245 0.0
-0.00950239 -0.0213827 0.0
-0.00800507 -0.0238337 0.0
-0.00629445 -0.0263469 0.0
-0.00437077 -0.0282448 0.0
-0.00232997 -0.0268555 0.0
-0.000651107 -0.0148362 0.0
0.000651107 0.0148362 0.0
0.000529009 -0.012734 0.0
-0.000529009 0.012734 0.0
-0.00186374 0.022812 0.0
-0.00345747 0.0240499 0.0
-0.00496233 0.0227203 0.0
-0.0063264 0.0210072 0.0
-0.00755996 0.0193915 0.0
-0.00867966 0.0179274 0.0
-0.00969986 0.0165948 0.0
-0.0106322 0.0153693 0.0
-0.011486 0.0142306 0.0
-0.0122691 0.0131627 0.0
-0.0129876 0.012153 0.0
-0.0136469 0.0111912 0.0
-0.0142513 0.010269 0.0
-0.0148043 0.0093795 0.0
-0.015309 0.00851667 0.0
-0.0157679 0.00767543 0.0
-0.0161829 0.00685127 0.0
-0.0165558 0.00604012 0.0
-0.0168878 0.00523822 0.0
-0.0171799 0.00444203 0.0
-0.0174328 0.0036481 0.0
-0.017647 0.002853 0.0
-0.0178223 0.00205323 0.0
-0.0179587 0.00124515 0.0
-0.0180554 0.000424879 0.0
-0.0181117 -0.000411814 0.0
-0.0181261 -0.00126959 0.0
-0.0180968 -0.00215365 0.0
-0.0180214 -0.00306991 0.0
-0.0178969 -0.0040251 0.0
-0.0177197 -0.00502696 0.0
-0.0174852 -0.00608437 0.0
-0.0171878 -0.00720763 0.0
-0.0168209 -0.00840855 0.0
-0.0163765 -0.00970072 0.0
-0.015845 -0.0110996 0.0
-0.0152153 -0.0126226 0.0
-0.0144743 -0.0142889 0.0
-0.0136067 -0.0161196 0.0
-0.0125953 -0.0181363 0.0
-0.0114205 -0.0203606 0.0
-0.0100609 -0.0228088 0.0
-0.00849398 -0.0254719 0.0
-0.0066992 -0.0282141 0.0
-0.00467441 -0.0303261 0.0
-0.00251282 -0.0289767 0.0
-0.000709726 -0.016197 0.0
0.000709726 0.016197 0.0
0.000574213 -0.0138372 0.0
-0.000574213 0.0138372 0.0
-0.00199985 0.0244691 0.0
-0.00367577 0.0256624 0.0
-0.00524749 0.0241844 0.0
-0.0066681 0.0223278 0.0
-0.00795063 0.020587 0.0
-0.00911321 0.0190142 0.0
-0.0101712 0.0175862 0.0
-0.011137 0.0162761 0.0
-0.0120208 0.0150614 0.0
-0.0128306 0.0139247 0.0
-0.0135733 0.0128522 0.0
-0.0142545 0.0118325 0.0
-0.0148788 0.0108565 0.0
-0.0154502 0.00991647 0.0
-0.0159719 0.00900602 0.0
-0.0164465 0.0081195 0.0
-0.0168762 0.00725198 0.0
-0.0172629 0.006399 0.0
-0.0176081 0.00555647 0.0
-0.0179127 0.00472051 0.0
-0.0181775 0.00388737 0.0
-0.0184029 0.0030533 0.0
-0.0185892 0.0022145 0.0
-0.0187359 0.00136698 0.0
-0.0188426 0.000506487 0.0
-0.0189081 -0.000371598 0.0
-0.0189312 -0.00127239 0.0
-0.0189097 -0.00220164 0.0
-0.0188412 -0.00316583 0.0
-0.0187224 -0.0041724 0.0
-0.0185494 -0.00522989 0.0
-0.0183172 -0.00634816 0.0
-0.0180198 -0.00753859 0.0
-0.01765 -0.00881428 0.0
-0.0171992 -0.0101903 0.0
-0.016657 -0.0116837 0.0
-0.0160113 -0.0133138 0.0
-0.0152481 -0.015102 0.0
-0.014351 -0.0170713 0.0
-0.0133013 -0.0192458 0.0
-0.012078 -0.0216491 0.0
-0.0106583 -0.0242995 0.0
-0.00901785 -0.0271885 0.0
-0.00713442 -0.0301757 0.0
-0.00500313 -0.0325206 0.0
-0.0027134 -0.0312334 0.0
-0.000775001 -0.0176818 0.0
0.000775001 0.0176818 0.0
0.000624429 -0.0150359 0.0
-0.000624429 0.0150359 0.0
-0.00214877 0.0262205 0.0
-0.00391133 0.0273495 0.0
-0.00555294 0.0257106 0.0
-0.00703266 0.0237019 0.0
-0.00836653 0.0218293 0.0
-0.00957419 0.0201421 0.0
-0.010672 0.0186141 0.0
-0.0116733 0.0172153 0.0
-0.0125886 0.0159213 0.0
-0.0134269 0.0147129 0.0
-0.0141953 0.0135751 0.0
-0.0148998 0.0124953 0.0
-0.0155454 0.0114636 0.0
-0.0161364 0.0104716 0.0
-0.0166762 0.00951225 0.0
-0.0171676 0.00857933 0.0
-0.0176132 0.00766747 0.0
-0.0180148 0.00677184 0.0
-0.018374 0.00588797 0.0
-0.018692 0.00501162 0.0
-0.0189696 0.00413871 0.0
-0.0192074 0.00326516 0.0
-0.0194053 0.00238683 0.0
-0.0195633 0.00149935 0.0
-0.0196806 0.000598096 0.0
-0.0197562 -0.000322008 0.0
-0.0197886 -0.00126657 0.0
-0.0197757 -0.00224189 0.0
-0.0197146 -0.00325512 0.0
-0.019602 -0.00431446 0.0
-0.0194335 -0.00542933 0.0
-0.0192039 -0.00661062 0.0
-0.0189065 -0.00787088 0.0
-0.0185337 -0.00922462 0.0
-0.018076 -0.0106884 0.0
-0.0175224 -0.0122813 0.0
-0.0168598 -0.0140244 0.0
-0.016073 -0.0159414 0.0
-0.0151445 -0.0180576 0.0
-0.0140541 -0.0203995 0.0
-0.0127796 -0.0229931 0.0
-0.0112964 -0.0258585 0.0
-0.00957849 -0.0289879 0.0
-0.00760189 -0.0322363 0.0
-0.00535873 -0.0348344 0.0
-0.00293335 -0.0336348 0.0
-0.000847702 -0.0193045 0.0
0.000847702 0.0193045 0.0
0.000680235 -0.0163405 0.0
-0.000680235 0.0163405 0.0
-0.00231173 0.0280716 0.0
-0.00416542 0.0291146 0.0
-0.0058799 0.0273016 0.0
-0.00742131 0.0251321 0.0
-0.00880891 0.0231206 0.0
-0.0100639 0.0213134 0.0
-0.0112036 0.0196804 0.0
-0.0122422 0.0181888 0.0
-0.013191 0.0168119 0.0
-0.0140594 0.0155289 0.0
-0.0148551 0.0143231 0.0
-0.0155844 0.0131811 0.0
-0.0162528 0.0120919 0.0
-0.0168647 0.0110463 0.0
-0.0174238 0.0100365 0.0
-0.0179334 0.00905602 0.0
-0.0183959 0.00809883 0.0
-0.0188135 0.00715968 0.0
-0.0191878 0.00623371 0.0
-0.0195203 0.00531632 0.0
-0.0198117 0.00440306 0.0
-0.0200626 0.00348949 0.0
-0.0202733 0.00257109 0.0
-0.0204433 0.00164313 0.0
-0.0205722 0.000700516 0.0
-0.0206587 -0.000262278 0.0
-0.0207012 -0.0012514 0.0
-0.0206975 -0.00227378 0.0
-0.0206445 -0.00333726 0.0
-0.0205385 -0.00445087 0.0
-0.020375 -0.00562499 0.0
-0.020148 -0.00687161 0.0
-0.0198507 -0.00820458 0.0
-0.0194746 -0.00963989 0.0
-0.0190096 -0.0111958 0.0
-0.0184438 -0.0128933 0.0
-0.0177631 -0.0147557 0.0
-0.0169512 -0.0168088 0.0
-0.0159893 -0.0190806 0.0
-0.0148559 -0.0216002 0.0
-0.0135272 -0.0243957 0.0
-0.011977 -0.0274894 0.0
-0.0101778 -0.0308741 0.0
-0.00810354 -0.034401 0.0
-0.00574316 -0.0372732 0.0
-0.00317454 -0.0361899 0.0
-0.000928695 -0.0210809 0.0
0.000928695 0.0210809 0.0
0.000742293 -0.0177631 0.0
-0.000742293 0.0177631 0.0
-0.00249009 0.0300284 0.0
-0.00443942 0.0309609 0.0
-0.00622969 0.02896 0.0
-0.00783535 0.0266207 0.0
-0.00927906 0.0244633 0.0
-0.0105836 0.0225302 0.0
-0.0117674 0.0207872 0.0
-0.0128454 0.0191985 0.0
-0.0138295 0.0177352 0.0
-0.0147299 0.0163744 0.0
-0.0155545 0.015098 0.0
-0.0163102 0.0138914 0.0
-0.0170029 0.0127426 0.0
-0.0176371 0.0116417 0.0
-0.018217 0.0105802 0.0
-0.0187459 0.00955082 0.0
-0.0192266 0.00854723 0.0
-0.0196614 0.00756365 0.0
-0.020052 0.00659479 0.0
-0.0204 0.00563566 0.0
-0.0207063 0.00468143 0.0
-0.0209715 0.00372726 0.0
-0.0211958 0.00276825 0.0
-0.0213789 0.00179921 0.0
-0.0215202 0.000814607 0.0
-0.0216185 -0.000191606 0.0
-0.0216719 -0.00122616 0.0
-0.021678 -0.00229665 0.0
-0.0216337 -0.00341169 0.0
-0.0215349 -0.0045812 0.0
-0.0213766 -0.00581658 0.0
-0.0211525 -0.00713103 0.0
-0.0208552 -0.0085398 0.0
-0.0204755 -0.0100604 0.0
-0.0200027 -0.0117131 0.0
-0.0194238 -0.0135207 0.0
-0.0187238 -0.0155089 0.0
-0.0178852 -0.017706 0.0
-0.0168879 -0.0201427 0.0
-0.015709 -0.0228504 0.0
-0.014323 -0.0258601 0.0
-0.0127024 -0.0291958 0.0
-0.0108178 -0.0328514 0.0
-0.00864139 -0.0366744 0.0
-0.00615851 -0.0398431 0.0
-0.00343901 -0.0389081 0.0
-0.00101895 -0.0230285 0.0
0.00101895 0.0230285 0.0
0.000811349 -0.0193167 0.0
-0.000811349 0.0193167 0.0
-0.0026854 0.0320966 0.0
-0.00473488 0.0328915 0.0
-0.0066038 0.0306886 0.0
-0.00827622 0.0281702 0.0
-0.00977845 0.0258598 0.0
-0.0111348 0.0237947 0.0
-0.0123649 0.0219366 0.0
-0.0134843 0.0202465 0.0
-0.0145058 0.0186929 0.0
-0.0154399 0.0172511 0.0
-0.0162953 0.0159013 0.0
-0.0170792 0.0146277 0.0
-0.0177977 0.0134173 0.0
-0.0184558 0.0122593 0.0
-0.0190579 0.0111445 0.0
-0.0196076 0.010065 0.0
-0.0201078 0.00901392 0.0
-0.020561 0.00798494 0.0
-0.0209692 0.00697237 0.0
-0.021334 0.00597078 0.0
-0.0216563 0.00497491 0.0
-0.0219368 0.00397954 0.0
-0.0221759 0.00297929 0.0
-0.0223731 0.00196855 0.0
-0.0225278 0.000941276 0.0
-0.0226387 -0.000109149 0.0
-0.0227038 -0.00119008 0.0
-0.0227206 -0.00230983 0.0
-0.0226855 -0.00347786 0.0
-0.0225943 -0.00470503 0.0
-0.0224416 -0.00600386 0.0
-0.0222205 -0.00738885 0.0
-0.0219231 -0.00887672 0.0
-0.0215395 -0.0104868 0.0
-0.0210582 -0.012241 0.0
-0.0204652 -0.0141646 0.0
-0.0197446 -0.0162856 0.0
-0.0188775 -0.018635 0.0
-0.0178425 -0.021246 0.0
-0.0166154 -0.0241531 0.0
-0.0151692 -0.0273896 0.0
-0.0134746 -0.0309817 0.0
-0.0115007 -0.034924 0.0
-0.00921765 -0.0390613 0.0
-0.00660709 -0.0425497 0.0
-0.00372904 -0.0417991 0.0
-0.00111958 -0.0251671 0.0
0.00111958 0.0251671 0.0
0.000888257 -0.0210163 0.0
-0.000888257 0.0210163 0.0
-0.00289939 0.0342822 0.0
-0.00505349 0.0349095 0.0
-0.00700382 0.0324899 0.0
-0.0087455 0.029783 0.0
-0.0103086 0.0273123 0.0
-0.0117192 0.0251091 0.0
-0.0129977 0.0231308 0.0
-0.0141608 0.0213348 0.0
-0.0152217 0.0196871 0.0
-0.0161916 0.0181609 0.0
-0.0170796 0.0167349 0.0
-0.0178934 0.0153918 0.0
-0.0186394 0.0141177 0.0
-0.0193231 0.0129008 0.0
-0.019949 0.0117311 0.0
-0.020521 0.0106001 0.0
-0.0210422 0.00950028 0.0
-0.0215153 0.0084249 0.0
-0.0219424 0.00736773 0.0
-0.0223251 0.00632289 0.0
-0.0226647 0.00528469 0.0
-0.0229618 0.00424744 0.0
-0.0232167 0.00320531 0.0
-0.0234291 0.00215219 0.0
-0.0235983 0.00108148 0.0
-0.0237227 -1.4029e-05 0.0
-0.0238004 -0.00114238 0.0
-0.0238285 -0.00231266 0.0
-0.0238034 -0.00353522 0.0
-0.0237202 -0.00482198 0.0
-0.0235733 -0.00618664 0.0
-0.0233553 -0.00764508 0.0
-0.0230576 -0.00921562 0.0
-0.0226697 -0.0109194 0.0
-0.022179 -0.0127804 0.0
-0.0215709 -0.0148262 0.0
-0.0208281 -0.0170874 0.0
-0.0199307 -0.0195977 0.0
-0.0188558 -0.0223932 0.0
-0.0175778 -0.0255111 0.0
-0.0160681 -0.0289875 0.0
-0.0142958 -0.0328506 0.0
-0.0122287 -0.0370961 0.0
-0.00983464 -0.0415663 0.0
-0.00709135 -0.0453985 0.0
-0.00404713 -0.0448725 0.0
-0.00123181 -0.0275184 0.0
0.00123181 0.0275184 0.0
0.000973987 -0.0228785 0.0
-0.000973987 0.0228785 0.0
-0.003134 0.0365911 0.0
-0.00539714 0.0370178 0.0
-0.00743155 0.0343663 0.0
-0.0092449 0.0314616 0.0
-0.0108713 0.0288232 0.0
-0.0123384 0.0264758 0.0
-0.0136677 0.0243719 0.0
-0.0148766 0.0224655 0.0
-0.015979 0.0207198 0.0
-0.0169868 0.0191058 0.0
-0.0179094 0.0176006 0.0
-0.0187551 0.0161856 0.0
-0.0195305 0.0148455 0.0
-0.0202415 0.0135677 0.0
-0.0208929 0.0123415 0.0
-0.0214888 0.0111575 0.0
-0.0220326 0.0100078 0.0
-0.022527 0.00888495 0.0
-0.0229745 0.00778224 0.0
-0.0233767 0.00669333 0.0
-0.0237349 0.00561203 0.0
-0.0240499 0.00453218 0.0
-0.0243219 0.00344746 0.0
-0.0245506 0.00235119 0.0
-0.0247352 0.00123622 0.0
-0.0248742 9.46634e-05 0.0
-0.0249653 -0.00108225 0.0
-0.0250055 -0.00230445 0.0
-0.0249909 -0.00358327 0.0
-0.0249162 -0.0049317 0.0
-0.0247753 -0.00636477 0.0
-0.0245604 -0.00789982 0.0
-0.0242622 -0.00955686 0.0
-0.0238693 -0.0113589 0.0
-0.0233685 -0.0133323 0.0
-0.0227439 -0.015507 0.0
-0.0219773 -0.0179161 0.0
-0.0210475 -0.0205963 0.0
-0.0199303 -0.0235867 0.0
-0.0185985 -0.0269275 0.0
-0.017022 -0.0306573 0.0
-0.0151686 -0.0348065 0.0
-0.0130041 -0.0393718 0.0
-0.0104949 -0.0441938 0.0
-0.00761399 -0.0483951 0.0
-0.00439608 -0.048138 0.0
-0.00135703 -0.0301073 0.0
0.00135703 0.0301073 0.0
0.00106965 -0.0249222 0.0
-0.00106965 0.0249222 0.0
-0.00339143 0.0390293 0.0
-0.00576792 0.0392193 0.0
-0.00788896 0.0363203 0.0
-0.00977636 0.0332084 0.0
-0.0114684 0.0303949 0.0
-0.0129944 0.0278971 0.0
-0.0143768 0.0256623 0.0
-0.0156338 0.0236409 0.0
-0.01678 0.0217931 0.0
-0.0178278 0.0200879 0.0
-0.0187872 0.0185005 0.0
-0.0196667 0.0170108 0.0
-0.0204735 0.0156025 0.0
-0.0212138 0.0142619 0.0
-0.0218925 0.0129774 0.0
-0.0225141 0.0117391 0.0
-0.0230822 0.0105381 0.0
-0.0235997 0.00936664 0.0
-0.0240691 0.00821741 0.0
-0.0244922 0.00708352 0.0
-0.0248705 0.00595831 0.0
-0.0252047 0.00483508 0.0
-0.0254951 0.00370696 0.0
-0.0257414 0.00256671 0.0
-0.0259426 0.00140654 0.0
-0.0260972 0.000217868 0.0
-0.0262026 -0.00100889 0.0
-0.0262557 -0.00228455 0.0
-0.026252 -0.00362149 0.0
-0.0261862 -0.00503391 0.0
-0.0260515 -0.00653819 0.0
-0.0258396 -0.00815324 0.0
-0.0255403 -0.0099009 0.0
-0.0251418 -0.0118062 0.0
-0.0246298 -0.0138979 0.0
-0.0239874 -0.0162083 0.0
-0.0231953 -0.0187735 0.0
-0.0222309 -0.0216331 0.0
-0.0210687 -0.0248293 0.0
-0.0196801 -0.0284053 0.0
-0.0180336 -0.0324024 0.0
-0.0160953 -0.0368532 0.0
-0.0138297 -0.0417553 0.0
-0.011201 -0.0469483 0.0
-0.00817793 -0.0515446 0.0
-0.00477897 -0.0516054 0.0
-0.0014968 -0.0329611 0.0
0.0014968 0.0329611 0.0
0.00117651 -0.0271683 0.0
-0.00117651 0.0271683 0.0
-0.00367416 0.0416025 0.0
-0.00616818 0.0415165 0.0
-0.00837824 0.0383541 0.0
-0.010342 0.0350257 0.0
-0.0121021 0.0320298 0.0
-0.0136893 0.0293754 0.0
-0.0151271 0.0270044 0.0
-0.0164346 0.0248632 0.0
-0.0176269 0.0229094 0.0
-0.018717 0.0211094 0.0
-0.0197153 0.0194367 0.0
-0.0206309 0.0178697 0.0
-0.0214713 0.0163908 0.0
-0.0222428 0.0149853 0.0
-0.0229509 0.0136408 0.0
-0.0236001 0.0123465 0.0
-0.0241943 0.0110929 0.0
-0.0247367 0.00987167 0.0
-0.0252298 0.00867485 0.0
-0.0256755 0.00749503 0.0
-0.0260755 0.006325 0.0
-0.0264304 0.00515752 0.0
-0.0267406 0.00398512 0.0
-0.0270057 0.00279996 0.0
-0.0272247 0.00159355 0.0
-0.0273959 0.000356545 0.0
-0.0275165 -0.000921476 0.0
-0.0275831 -0.00225232 0.0
-0.027591 -0.00364946 0.0
-0.0275344 -0.00512838 0.0
-0.0274059 -0.00670692 0.0
-0.0271967 -0.00840567 0.0
-0.026896 -0.0102484 0.0
-0.026491 -0.0122623 0.0
-0.0259665 -0.0144784 0.0
-0.0253048 -0.0169319 0.0
-0.0244851 -0.0196617 0.0
-0.0234838 -0.0227106 0.0
-0.0222739 -0.0261238 0.0
-0.0208255 -0.0299477 0.0
-0.0191055 -0.0342263 0.0
-0.0170787 -0.0389943 0.0
-0.0147081 -0.0442504 0.0
-0.011956 -0.0498339 0.0
-0.00878632 -0.0548518 0.0
-0.00519924 -0.0552843 0.0
-0.00165289 -0.0361108 0.0
0.00165289 0.0361108 0.0
0.00129602 -0.0296409 0.0
-0.00129602 0.0296409 0.0
-0.00398501 0.0443167 0.0
-0.00660052 0.0439119 0.0
-0.00890186 0.0404701 0.0
-0.0109442 0.0369157 0.0
-0.0127746 0.0337302 0.0
-0.0144254 0.030913 0.0
-0.0159211 0.0284004 0.0
-0.0172814 0.0261349 0.0
-0.0185223 0.024071 0.0
-0.019657 0.0221727 0.0
-0.0206967 0.0204115 0.0
-0.0216507 0.0187645 0.0
-0.0225269 0.0172126 0.0
-0.0233319 0.0157401 0.0
-0.0240715 0.0143337 0.0
-0.0247504 0.0129818 0.0
-0.0253728 0.0116742 0.0
-0.0259419 0.0104019 0.0
-0.0264605 0.00915632 0.0
-0.0269307 0.00792953 0.0
-0.027354 0.0067137 0.0
-0.0277313 0.00550099 0.0
-0.0280627 0.00428333 0.0
-0.0283481 0.0030522 0.0
-0.0285861 0.00179836 0.0
-0.0287749 0.000511674 0.0
-0.0289117 -0.000819212 0.0
-0.0289925 -0.00220714 0.0
-0.0290124 -0.00366678 0.0
-0.0289652 -0.00521497 0.0
-0.0288429 -0.0068711 0.0
-0.028636 -0.00865754 0.0
-0.0283332 -0.0106 0.0
-0.0279207 -0.0127281 0.0
-0.0273824 -0.0150754 0.0
-0.0266994 -0.0176796 0.0
-0.02585 -0.0205831 0.0
-0.0248093 -0.0238314 0.0
-0.0235488 -0.0274733 0.0
-0.0220374 -0.0315581 0.0
-0.0202405 -0.0361327 0.0
-0.0181215 -0.0412337 0.0
-0.0156421 -0.046861 0.0
-0.0127629 -0.0528545 0.0
-0.0094426 -0.0583212 0.0
-0.00566067 -0.0591838 0.0
-0.00182727 -0.039591 0.0
0.00182727 0.039591 0.0
0.00142984 -0.0323667 0.0
-0.00142984 0.0323667 0.0
-0.00432717 0.0471771 0.0
-0.00706791 0.0464077 0.0
-0.00946258 0.0426704 0.0
-0.0115856 0.0388808 0.0
-0.0134885 0.0354985 0.0
-0.0152053 0.0325123 0.0
-0.0167614 0.0298528 0.0
-0.018177 0.0274584 0.0
-0.0194689 0.0252803 0.0
-0.0206509 0.0232801 0.0
-0.0217344 0.0214274 0.0
-0.0227292 0.0196975 0.0
-0.0236436 0.0180701 0.0
-0.0244845 0.0165285 0.0
-0.0252579 0.0150583 0.0
-0.0259689 0.0136471 0.0
-0.0266216 0.012284 0.0
-0.0272196 0.0109593 0.0
-0.0277658 0.00966374 0.0
-0.0282623 0.00838884 0.0
-0.0287108 0.00712611 0.0
-0.0291121 0.0058671 0.0
-0.0294664 0.00460307 0.0
-0.0297734 0.00332475 0.0
-0.0300317 0.00202215 0.0
-0.0302392 0.00068424 0.0
-0.030393 -0.000701313 0.0
-0.0304887 -0.00214847 0.0
-0.0305211 -0.00367315 0.0
-0.0304833 -0.00529365 0.0
-0.030367 -0.007031 0.0
-0.030162 -0.00890945 0.0
-0.0298561 -0.0109568 0.0
-0.0294349 -0.0132051 0.0
-0.0288811 -0.0156904 0.0
-0.028175 -0.0184536 0.0
-0.0272936 -0.0215399 0.0
-0.0262107 -0.0249983 0.0
-0.0248966 -0.0288808 0.0
-0.0233188 -0.0332399 0.0
-0.0214415 -0.0381251 0.0
-0.0192267 -0.0435751 0.0
-0.016635 -0.0495908 0.0
-0.0136251 -0.0560138 0.0
-0.0101505 -0.0619569 0.0
-0.00616746 -0.0633131 0.0
-0.00202216 -0.0434404 0.0
0.00202216 0.0434404 0.0
0.00157991 -0.0353765 0.0
-0.00157991 0.0353765 0.0
-0.0047043 0.0501891 0.0
-0.00757364 0.0490058 0.0
-0.0100635 0.0449568 0.0
-0.0122692 0.0409231 0.0
-0.0142469 0.0373369 0.0
-0.016032 0.0341758 0.0
-0.0176508 0.0313642 0.0
-0.0191244 0.0288362 0.0
-0.0204699 0.0265399 0.0
-0.0217017 0.0244342 0.0
-0.0228317 0.0224868 0.0
-0.02387 0.0206712 0.0
-0.0248252 0.018966 0.0
-0.0257045 0.017353 0.0
-0.0265142 0.015817 0.0
-0.0272596 0.0143447 0.0
-0.0279451 0.0129245 0.0
-0.0285743 0.011546 0.0
-0.0291503 0.0101992 0.0
-0.0296752 0.00887491 0.0
-0.0301508 0.00756408 0.0
-0.0305779 0.00625755 0.0
-0.0309568 0.00494587 0.0
-0.0312869 0.003619 0.0
-0.0315668 0.00226611 0.0
-0.0317942 0.000875223 0.0
-0.0319658 -0.000567032 0.0
-0.032077 -0.0020758 0.0
-0.0321221 -0.00366836 0.0
-0.0320938 -0.00536452 0.0
-0.0319831 -0.00718706 0.0
-0.0317793 -0.00916217 0.0
-0.0314694 -0.0113199 0.0
-0.0310379 -0.0136947 0.0
-0.0304669 -0.0163255 0.0
-0.0297354 -0.0192561 0.0
-0.0288194 -0.0225349 0.0
-0.0276913 -0.0262143 0.0
-0.0263205 -0.0303496 0.0
-0.024673 -0.0349965 0.0
-0.0227117 -0.0402071 0.0
-0.0203976 -0.046022 0.0
-0.01769 -0.0524432 0.0
-0.0145462 -0.059315 0.0
-0.0109141 -0.0657625 0.0
-0.00672424 -0.0676804 0.0
-0.00224002 -0.0477026 0.0
0.00224002 0.0477026 0.0
0.00174844 -0.0387048 0.0
-0.00174844 0.0387048 0.0
-0.00512055 0.0533572 0.0
-0.00812149 0.051708 0.0
-0.0107082 0.0473312 0.0
-0.0129984 0.0430446 0.0
-0.0150531 0.0392477 0.0
-0.0169088 0.0359058 0.0
-0.0185929 0.032937 0.0
-0.0201269 0.030271 0.0
-0.0215287 0.0278524 0.0
-0.022813 0.0256377 0.0
-0.0239922 0.0235924 0.0
-0.0250768 0.0216884 0.0
-0.0260755 0.0199027 0.0
-0.0269961 0.0182161 0.0
-0.0278448 0.0166123 0.0
-0.0286273 0.0150772 0.0
-0.0293481 0.0135983 0.0
-0.030011 0.0121643 0.0
-0.030619 0.0107648 0.0
-0.0311747 0.00938984 0.0
-0.0316795 0.00802957 0.0
-0.0321344 0.00667415 0.0
-0.0325396 0.00531336 0.0
-0.0328944 0.00393638 0.0
-0.0331972 0.00253144 0.0
-0.0334455 0.00108559 0.0
-0.0336357 -0.00041567 0.0
-0.0337629 -0.00198874 0.0
-0.0338209 -0.00365233 0.0
-0.033802 -0.00542784 0.0
-0.0336965 -0.00733988 0.0
-0.0334929 -0.0094167 0.0
-0.0331776 -0.0116907 0.0
-0.0327342 -0.0141988 0.0
-0.0321439 -0.0169828 0.0
-0.0313846 -0.0200896 0.0
-0.0304311 -0.0235709 0.0
-0.0292549 -0.0274825 0.0
-0.027824 -0.0318831 0.0
-0.0261032 -0.0368314 0.0
-0.0240544 -0.0423823 0.0
-0.0216374 -0.048578 0.0
-0.0188107 -0.0554216 0.0
-0.01553 -0.062761 0.0
-0.0117377 -0.0697408 0.0
-0.00733614 -0.0722935 0.0
-0.00248365 -0.0524262 0.0
0.00248365 0.0524262 0.0
0.00193798 -0.0423912 0.0
-0.00193798 0.0423912 0.0
-0.00558072 0.0566857 0.0
-0.00871571 0.0545154 0.0
-0.0114006 0.0497953 0.0
-0.0137772 0.0452474 0.0
-0.0159108 0.0412332 0.0
-0.0178395 0.0377048 0.0
-0.0195912 0.0345739 0.0
-0.0211884 0.0317654 0.0
-0.0226492 0.0292206 0.0
-0.0239889 0.0268935 0.0
-0.0252202 0.0247472 0.0
-0.0263539 0.0227519 0.0
-0.0273992 0.0208833 0.0
-0.0283639 0.0191208 0.0
-0.0292545 0.0174471 0.0
-0.0300769 0.0158472 0.0
-0.0308358 0.0143078 0.0
-0.031535 0.0128169 0.0
-0.0321778 0.0113631 0.0
-0.0327665 0.0099359 0.0
-0.0333028 0.00852466 0.0
-0.0337876 0.00711879 0.0
-0.0342209 0.00570726 0.0
-0.034602 0.00427835 0.0
-0.0349291 0.00281936 0.0
-0.0351994 0.00131627 0.0
-0.035409 -0.000246599 0.0
-0.0355526 -0.00188699 0.0
-0.0356236 -0.0036251 0.0
-0.0356136 -0.00548402 0.0
-0.0355125 -0.00749028 0.0
-0.0353081 -0.00967426 0.0
-0.0349858 -0.0120707 0.0
-0.0345286 -0.0147193 0.0
-0.0339166 -0.0176647 0.0
-0.0331267 -0.0209569 0.0
-0.0321327 -0.0246511 0.0
-0.030905 -0.0288063 0.0
-0.0294105 -0.0334847 0.0
-0.0276128 -0.0387482 0.0
-0.025473 -0.0446541 0.0
-0.0229499 -0.0512463 0.0
-0.020001 -0.058529 0.0
-0.0165808 -0.0663545 0.0
-0.0126261 -0.0738943 0.0
-0.0080088 -0.0771589 0.0
-0.00275614 -0.057666 0.0
0.00275614 0.057666 0.0
0.00215151 -0.0464807 0.0
-0.00215151 0.0464807 0.0
-0.00609028 0.0601777 0.0
-0.00936117 0.0574293 0.0
-0.0121454 0.0523505 0.0
-0.0146098 0.0475332 0.0
-0.0168243 0.0432954 0.0
-0.0188282 0.0395752 0.0
-0.0206501 0.0362772 0.0
-0.0223131 0.0333221 0.0
-0.0238357 0.0306474 0.0
-0.0252337 0.0282044 0.0
-0.0265202 0.025954 0.0
-0.0277061 0.0238647 0.0
-0.028801 0.0219106 0.0
-0.0298129 0.0200699 0.0
-0.0307486 0.0183243 0.0
-0.031614 0.0166577 0.0
-0.0324138 0.015056 0.0
-0.0331523 0.0135063 0.0
-0.0338324 0.0119966 0.0
-0.0344568 0.0105155 0.0
-0.035027 0.00905158 0.0
-0.0355438 0.00759349 0.0
-0.0360072 0.00612931 0.0
-0.0364163 0.00464642 0.0
-0.036769 0.00313108 0.0
-0.0370623 0.00156816 0.0
-0.0372919 -5.92832e-05 0.0
-0.0374522 -0.00177038 0.0
-0.0375361 -0.0035869 0.0
-0.0375345 -0.00553372 0.0
-0.0374369 -0.00763932 0.0
-0.0372302 -0.00993632 0.0
-0.0368992 -0.012462 0.0
-0.0364259 -0.0152586 0.0
-0.0357894 -0.0183739 0.0
-0.034966 -0.0218611 0.0
-0.0339282 -0.0257786 0.0
-0.0326455 -0.0301892 0.0
-0.0310838 -0.0351582 0.0
-0.0292057 -0.0407505 0.0
-0.0269712 -0.047026 0.0
-0.0243387 -0.0540301 0.0
-0.0212648 -0.0617679 0.0
-0.017703 -0.0700976 0.0
-0.0135844 -0.0782246 0.0
-0.00874841 -0.0822819 0.0
-0.00306093 -0.0634831 0.0
0.00306093 0.0634831 0.0
0.00239248 -0.0510247 0.0
-0.00239248 0.0510247 0.0
-0.00665557 0.0638356 0.0
-0.0100634 0.0604501 0.0
-0.0129477 0.0549981 0.0
-0.0155015 0.0499039 0.0
-0.0177986 0.0454364 0.0
-0.0198798 0.0415192 0.0
-0.0217744 0.0380497 0.0
-0.0235057 0.0349438 0.0
-0.025093 0.0321357 0.0
-0.0265523 0.0295735 0.0
-0.027897 0.0272161 0.0
-0.0291384 0.0250301 0.0
-0.0302862 0.022988 0.0
-0.0313486 0.0210668 0.0
-0.0323326 0.0192471 0.0
-0.0332441 0.0175118 0.0
-0.0340881 0.0158459 0.0
-0.0348687 0.0142355 0.0
-0.0355892 0.0126681 0.0
-0.0362519 0.0111311 0.0
-0.0368584 0.00961265 0.0
-0.0374095 0.00810031 0.0
-0.0379049 0.00658133 0.0
-0.0383436 0.00504207 0.0
-0.0387232 0.00346775 0.0
-0.0390404 0.00184203 0.0
-0.0392906 0.000146675 0.0
-0.0394677 -0.00163893 0.0
-0.039564 -0.00353818 0.0
-0.0395702 -0.00557781 0.0
-0.0394747 -0.00778834 0.0
-0.039264 -0.0102047 0.0
-0.0389221 -0.0128666 0.0
-0.03843 -0.0158193 0.0
-0.0377663 -0.0191134 0.0
-0.036906 -0.0228054 0.0
-0.0358209 -0.0269571 0.0
-0.0344795 -0.0316348 0.0
-0.0328468 -0.0369071 0.0
-0.0308845 -0.0428419 0.0
-0.0285522 -0.0495014 0.0
-0.0258072 -0.0569323 0.0
-0.022606 -0.0651408 0.0
-0.0189009 -0.0739916 0.0
-0.0146177 -0.0827323 0.0
-0.00956152 -0.0876664 0.0
-0.0034018 -0.0699458 0.0
0.0034018 0.0699458 0.0
0.00266486 -0.056082 0.0
-0.00266486 0.056082 0.0
-0.00728369 0.0676602 0.0
-0.0108284 0.0635781 0.0
-0.0138131 0.0577391 0.0
-0.0164572 0.0523607 0.0
-0.0188386 0.0476581 0.0
-0.0209989 0.043539 0.0
-0.0229682 0.0398937 0.0
-0.0247703 0.0366333 0.0
-0.0264249 0.0336882 0.0
-0.0279484 0.0310037 0.0
-0.0293542 0.0285364 0.0
-0.0306542 0.0262511 0.0
-0.0318579 0.0241186 0.0
-0.032974 0.0221147 0.0
-0.0340093 0.0202187 0.0
-0.0349701 0.0184125 0.0
-0.0358612 0.0166803 0.0
-0.0366869 0.0150074 0.0
-0.0374503 0.0133801 0.0
-0.0381538 0.0117853 0.0
-0.0387989 0.0102101 0.0
-0.0393862 0.00864121 0.0
-0.0399152 0.00706493 0.0
-0.0403847 0.00546659 0.0
-0.0407921 0.00383027 0.0
-0.0411338 0.0021384 0.0
-0.0414046 0.00037135 0.0
-0.0415981 -0.001493 0.0
-0.0417061 -0.00347977 0.0
-0.0417186 -0.00561758 0.0
-0.0416235 -0.00793909 0.0
-0.0414066 -0.0104815 0.0
-0.0410511 -0.0132873 0.0
-0.0405374 -0.0164043 0.0
-0.039843 -0.0198864 0.0
-0.0389423 -0.0237933 0.0
-0.0378063 -0.0281902 0.0
-0.0364026 -0.0331468 0.0
-0.0346954 -0.038735 0.0
-0.0326459 -0.0450257 0.0
-0.0302129 -0.052083 0.0
-0.0273535 -0.059955 0.0
-0.0240238 -0.0686489 0.0
-0.0201753 -0.078037 0.0
-0.0157287 -0.0874168 0.0
-0.0104536 -0.0933133 0.0
-0.00378232 -0.0771299 0.0
0.00378232 0.0771299 0.0
0.00297271 -0.0617196 0.0
-0.00297271 0.0617196 0.0
-0.00798123 0.07165 0.0
-0.0116604 0.0668122 0.0
-0.014744 0.0605733 0.0
-0.0174776 0.0549043 0.0
-0.0199429 0.0499612 0.0
-0.0221824 0.0456357 0.0
-0.0242267 0.0418106 0.0
-0.0261002 0.038392 0.0
-0.0278228 0.0353066 0.0
-0.0294111 0.0324969 0.0
-0.030879 0.029917 0.0
-0.0322383 0.0275297 0.0
-0.033499 0.0253044 0.0
-0.0346695 0.0232154 0.0
-0.035757 0.0212409 0.0
-0.0367677 0.0193617 0.0
-0.0377065 0.0175611 0.0
-0.0385776 0.0158233 0.0
-0.0393841 0.014134 0.0
-0.0401284 0.0124791 0.0
-0.0408117 0.0108447 0.0
-0.0414345 0.00921669 0.0
-0.0419963 0.00758031 0.0
-0.0424954 0.00591981 0.0
-0.0429291 0.00421811 0.0
-0.0432932 0.00245635 0.0
-0.0435825 0.000613459 0.0
-0.0437898 -0.00133427 0.0
-0.0439066 -0.00341371 0.0
-0.0439223 -0.00565543 0.0
-0.0438244 -0.00809425 0.0
-0.0435979 -0.0107698 0.0
-0.0432253 -0.0137271 0.0
-0.0426865 -0.017017 0.0
-0.0419584 -0.0206963 0.0
-0.0410146 -0.024828 0.0
-0.0398254 -0.0294808 0.0
-0.0383579 -0.0347276 0.0
-0.0365757 -0.0406436 0.0
-0.0344396 -0.0473026 0.0
-0.0319081 -0.0547707 0.0
-0.0289381 -0.0630969 0.0
-0.0254856 -0.0722893 0.0
-0.0215015 -0.0822291 0.0
-0.0169014 -0.0922714 0.0
-0.0114191 -0.0992161 0.0
-0.00420261 -0.0851149 0.0
0.00420261 0.0851149 0.0
0.00331652 -0.0680088 0.0
-0.00331652 0.0680088 0.0
-0.00874283 0.0757956 0.0
-0.0125419 0.0701448 0.0
-0.0157116 0.0634941 0.0
-0.0185224 0.057528 0.0
-0.0210591 0.0523394 0.0
-0.0233651 0.047803 0.0
-0.0254714 0.043794 0.0
-0.0274029 0.0402136 0.0
-0.0291797 0.0369845 0.0
-0.0308187 0.0340464 0.0
-0.0323342 0.0313509 0.0
-0.0337379 0.0288589 0.0
-0.0350402 0.0265381 0.0
-0.0362495 0.0243615 0.0
-0.0373733 0.022306 0.0
-0.0384177 0.0203516 0.0
-0.0393878 0.0184801 0.0
-0.0402877 0.0166753 0.0
-0.0411207 0.0149216 0.0
-0.041889 0.0132041 0.0
-0.042594 0.011508 0.0
-0.0432361 0.00981824 0.0
-0.0438145 0.00811896 0.0
-0.0443275 0.00639331 0.0
-0.0447722 0.00462298 0.0
-0.0451444 0.00278779 0.0
-0.0454383 0.000865204 0.0
-0.0456469 -0.00117011 0.0
-0.0457611 -0.00334683 0.0
-0.0457702 -0.00569749 0.0
-0.0456612 -0.00825911 0.0
-0.045419 -0.0110737 0.0
-0.0450258 -0.014189 0.0
-0.0444612 -0.0176585 0.0
-0.0437017 -0.0215423 0.0
-0.0427209 -0.0259066 0.0
-0.0414891 -0.0308232 0.0
-0.039973 -0.0363687 0.0
-0.0381364 -0.0426213 0.0
-0.0359401 -0.0496573 0.0
-0.0333427 -0.0575449 0.0
-0.0303012 -0.0663341 0.0
-0.0267717 -0.0760341 0.0
-0.0227045 -0.0865356 0.0
-0.01801 -0.0972594 0.0
-0.0123859 -0.105335 0.0
-0.00464063 -0.0939581 0.0
0.00464063 0.0939581 0.0
0.003668 -0.0749934 0.0
-0.003668 0.0749934 0.0
-0.00947507 0.0800444 0.0
-0.0133061 0.0735261 0.0
-0.0164747 0.0664511 0.0
-0.0192732 0.0601803 0.0
-0.0217889 0.0547394 0.0
-0.0240657 0.0499858 0.0
-0.0261352 0.0457871 0.0
-0.0280226 0.0420393 0.0
-0.0297487 0.0386617 0.0
-0.0313309 0.0355905 0.0
-0.0327839 0.0327753 0.0
-0.0341205 0.0301748 0.0
-0.0353513 0.0277553 0.0
-0.0364858 0.0254882 0.0
-0.037532 0.0233493 0.0
-0.0384969 0.0213175 0.0
-0.0393861 0.0193736 0.0
-0.0402047 0.0175004 0.0
-0.0409566 0.0156814 0.0
-0.0416447 0.0139008 0.0
-0.0422712 0.0121428 0.0
-0.042837 0.0103913 0.0
-0.0433421 0.00862947 0.0
-0.0437856 0.00683929 0.0
-0.0441651 0.00500121 0.0
-0.0444771 0.00309369 0.0
-0.0447165 0.00109274 0.0
-0.0448771 -0.00102858 0.0
-0.0449505 -0.00330074 0.0
-0.0449267 -0.00575823 0.0
-0.0447939 -0.00844021 0.0
-0.0445377 -0.0113911 0.0
-0.0441415 -0.014661 0.0
-0.043586 -0.0183065 0.0
-0.0428492 -0.0223905 0.0
-0.0419059 -0.0269824 0.0
-0.0407278 -0.0321574 0.0
-0.0392834 -0.0379951 0.0
-0.0375378 -0.044577 0.0
-0.0354532 -0.0519823 0.0
-0.0329892 -0.0602813 0.0
-0.0301034 -0.0695251 0.0
-0.0267515 -0.0797245 0.0
-0.0228821 -0.0907819 0.0
-0.0183983 -0.102191 0.0
-0.0129591 -0.111466 0.0
-0.00496614 -0.103565 0.0
0.00496614 0.103565 0.0
0.00382711 -0.0824885 0.0
-0.00382711 0.0824885 0.0
-0.00956582 0.0840951 0.0
-0.012914 0.0766546 0.0
-0.0155592 0.0691363 0.0
-0.0178103 0.0625448 0.0
-0.019756 0.0568363 0.0
-0.0214411 0.0518509 0.0
-0.022899 0.0474494 0.0
-0.0241574 0.0435228 0.0
-0.0252401 0.039987 0.0
-0.0261682 0.0367754 0.0
-0.0269601 0.0338353 0.0
-0.0276324 0.0311237 0.0
-0.0282002 0.028605 0.0
-0.0286769 0.0262497 0.0
-0.0290748 0.024032 0.0
-0.0294051 0.0219298 0.0
-0.0296775 0.019923 0.0
-0.0299012 0.0179932 0.0
-0.030084 0.0161231 0.0
-0.0302327 0.0142959 0.0
-0.0303532 0.0124947 0.0
-0.0304503 0.0107024 0.0
-0.0305278 0.00890107 0.0
-0.0305883 0.00707163 0.0
-0.0306332 0.0051933 0.0
-0.0306629 0.00324324 0.0
-0.0306763 0.00119607 0.0
-0.030671 -0.000976664 0.0
-0.0306432 -0.00330706 0.0
-0.0305875 -0.00583141 0.0
-0.0304965 -0.00859083 0.0
-0.0303613 -0.0116319 0.0
-0.0301706 -0.0150071 0.0
-0.029911 -0.0187756 0.0
-0.0295662 -0.0230031 0.0
-0.0291173 -0.027762 0.0
-0.028542 -0.033131 0.0
-0.0278146 -0.0391932 0.0
-0.0269054 -0.0460337 0.0
-0.0257806 -0.0537351 0.0
-0.0244021 -0.0623711 0.0
-0.0227273 -0.0719959 0.0
-0.0207084 -0.0826245 0.0
-0.0182849 -0.0941747 0.0
-0.0153426 -0.106224 0.0
-0.0114889 -0.116726 0.0
-0.00462799 -0.113159 0.0
0.00462799 0.113159 0.0
0.00277366 -0.0890892 0.0
-0.00277366 0.0890892 0.0
-0.00593992 0.0863993 0.0
-0.00621513 0.0779738 0.0
-0.00572863 0.0699758 0.0
-0.00480472 0.0630325 0.0
-0.0035419 0.0570314 0.0
-0.00199841 0.0517975 0.0
-0.000223306 0.0471856 0.0
0.00173858 0.0430831 0.0
0.00384576 0.0394023 0.0
0.00605991 0.036074 0.0
0.00834567 0.0330429 0.0
0.0106705 0.0302636 0.0
0.0130046 0.0276988 0.0
0.0153207 0.0253166 0.0
0.0175938 0.0230899 0.0
0.0198013 0.0209947 0.0
0.0219223 0.0190096 0.0
0.0239379 0.0171147 0.0
0.0258308 0.0152915 0.0
0.0275853 0.0135218 0.0
0.0291866 0.0117879 0.0
0.0306214 0.0100715 0.0
0.031877 0.00835377 0.0
0.0329418 0.00661462 0.0
0.0338047 0.00483241 0.0
0.034455 0.00298345 0.0
0.0348828 0.00104147 0.0
0.0350784 -0.00102288 0.0
0.0350324 -0.00324266 0.0
0.034736 -0.00565519 0.0
0.0341808 -0.00830279 0.0
0.0333591 -0.0112334 0.0
0.032264 -0.0145012 0.0
0.0308901 -0.0181673 0.0
0.0292338 -0.0222998 0.0
0.0272939 -0.0269743 0.0
0.0250729 -0.0322731 0.0
0.0225781 -0.0382838 0.0
0.0198232 -0.0450973 0.0
0.0168301 -0.0528031 0.0
0.0136314 -0.0614829 0.0
0.0102732 -0.0712007 0.0
0.00681889 -0.0819845 0.0
0.00336075 -0.09378 0.0
6.72199e-05 -0.106268 0.0
-0.00256944 -0.117899 0.0
-0.00181439 -0.119601 0.0
0.00181439 0.119601 0.0
-0.00378019 -0.0880827 0.0
0.00378019 0.0880827 0.0
0.014156 0.0801963 0.0
0.027726 0.070882 0.0
0.0417366 0.0625704 0.0
0.0557603 0.0554903 0.0
0.0696209 0.0494503 0.0
0.0832032 0.0442526 0.0
0.0964198 0.0397388 0.0
0.109202 0.0357858 0.0
0.121497 0.0322974 0.0
0.133265 0.0291972 0.0
0.144475 0.0264237 0.0
0.155106 0.0239268 0.0
0.165142 0.021665 0.0
0.174573 0.0196034 0.0
0.183391 0.0177122 0.0
0.19159 0.0159657 0.0
0.199167 0.014341 0.0
0.206117 0.0128176 0.0
0.212436 0.0113766 0.0
0.218118 0.00999997 0.0
0.223156 0.00867051 0.0
0.227539 0.00737097 0.0
0.231254 0.00608379 0.0
0.234283 0.00479065 0.0
0.236605 0.003472 0.0
0.238192 0.00210655 0.0
0.239012 0.000670801 0.0
0.239025 -0.00086158 0.0
0.238188 -0.00252037 0.0
0.236446 -0.00433949 0.0
0.233741 -0.00635776 0.0
0.230004 -0.00861976 0.0
0.225161 -0.0111766 0.0
0.219129 -0.0140868 0.0
0.211823 -0.0174171 0.0
0.203148 -0.0212428 0.0
0.193013 -0.0256484 0.0
0.181326 -0.0307264 0.0
0.168002 -0.0365766 0.0
0.152975 -0.0433029 0.0
0.136199 -0.0510084 0.0
0.117669 -0.0597874 0.0
0.0974377 -0.0697119 0.0
0.0756418 -0.0807986 0.0
0.0525789 -0.092893 0.0
0.0289972 -0.105056 0.0
0.00860655 -0.112809 0.0
-0.00860655 0.112809 0.0
-0.0421513 -0.0421513 0.0
0.0421513 0.0421513 0.0
0.121103 0.0368004 0.0
0.189857 0.0319538 0.0
0.249578 0.0277671 0.0
0.301596 0.0242514 0.0
0.347136 0.0212886 0.0
0.387197 0.0187716 0.0
0.422584 0.0166158 0.0
0.453955 0.0147554 0.0
0.481849 0.0131387 0.0
0.506713 0.0117248 0.0
0.528918 0.0104805 0.0
0.548778 0.00937915 0.0
0.566556 0.00839853 0.0
0.582474 0.00752023 0.0
0.596723 0.0067287 0.0
0.609463 0.00601062 0.0
0.620828 0.00535442 0.0
0.630932 0.00474986 0.0
0.639869 0.0041877 0.0
0.647717 0.00365941 0.0
0.654533 0.00315689 0.0
0.660362 0.00267227 0.0
0.665232 0.00219768 0.0
0.669155 0.00172497 0.0
0.672125 0.00124559 0.0
0.674121 0.000750212 0.0
0.6751 0.000228577 0.0
0.674997 -0.000330872 0.0
0.673725 -0.000941296 0.0
0.671166 -0.00161783 0.0
0.66717 -0.00237802 0.0
0.66155 -0.00324226 0.0
0.654073 -0.00423431 0.0
0.644457 -0.00538179 0.0
0.632359 -0.00671674 0.0
0.617366 -0.00827607 0.0
0.598988 -0.0101019 0.0
0.576644 -0.0122418 0.0
0.549654 -0.0147481 0.0
0.517229 -0.0176778 0.0
0.478461 -0.0210899 0.0
0.432328 -0.0250433 0.0
0.377694 -0.0295906 0.0
0.313337 -0.0347667 0.0
0.238022 -0.0405477 0.0
0.150839 -0.0466359 0.0
0.0521013 -0.0521013 0.0
-0.0521013 0.0521013 0.0
-1.95785 0.0421513 0.0
1.95785 -0.0421513 0.0
1.8789 -0.0368004 0.0
1.81014 -0.0319538 0.0
1.75042 -0.0277671 0.0
1.6984 -0.0242514 0.0
1.65286 -0.0212886 0.0
1.6128 -0.0187716 0.0
1.57742 -0.0166158 0.0
1.54604 -0.0147554 0.0
1.51815 -0.0131387 0.0
1.49329 -0.0117248 0.0
1.47108 -0.0104805 0.0
1.45122 -0.00937915 0.0
1.43344 -0.00839853 0.0
1.41753 -0.00752023 0.0
1.40328 -0.0067287 0.0
1.39054 -0.00601062 0.0
1.37917 -0.00535442 0.0
1.36907 -0.00474986 0.0
1.36013 -0.0041877 0.0
1.35228 -0.00365941 0.0
1.34547 -0.00315689 0.0
1.33964 -0.00267227 0.0
1.33477 -0.00219768 0.0
1.33085 -0.00172497 0.0
1.32787 -0.00124559 0.0
1.32588 -0.000750212 0.0
1.3249 -0.000228577 0.0
1.325 0.000330872 0.0
1.32627 0.000941296 0.0
1.32883 0.00161783 0.0
1.33283 0.00237802 0.0
1.33845 0.00324226 0.0
1.34593 0.00423431 0.0
1.35554 0.00538179 0.0
1.36764 0.00671674 0.0
1.38263 0.00827607 0.0
1.40101 0.0101019 0.0
1.42336 0.0122418 0.0
1.45035 0.0147481 0.0
1.48277 0.0176778 0.0
1.52154 0.0210899 0.0
1.56767 0.0250433 0.0
1.62231 0.0295906 0.0
1.68666 0.0347667 0.0
1.76198 0.0405477 0.0
1.84916 0.0466359 0.0
1.9479 0.0521013 0.0
-1.9479 -0.0521013 0.0
