# vtk DataFile Version 3.0
DroneCFD Output
ASCII
DATASET STRUCTURED_POINTS
DIMENSIONS 50 50 1
ORIGIN 0 0 0
SPACING 0.02 0.02 1
POINT_DATA 2500
SCALARS pressure double 1
LOOKUP_TABLE default
0
0
-0.000499297
-0.000493502
-0.000369282
-0.000187844
4.1653e-05
0.000315479
0.000630438
0.000983489
0.00137173
0.00179238
0.00224283
0.00272054
0.00322313
0.0037483
0.00429387
0.00485772
0.00543781
0.00603217
0.00663888
0.00725603
0.00788179
0.00851429
0.0091517
0.00979218
0.0104339
0.0110749
0.0117133
0.0123471
0.0129742
0.0135926
0.0142
0.0147942
0.0153727
0.0159329
0.0164722
0.0169878
0.0174767
0.0179357
0.0183616
0.0187507
0.0190996
0.0194042
0.0196607
0.0198646
0.0200056
0.0200208
0.0195129
0.0195129
0
0
-0.000499297
-0.000493502
-0.000369282
-0.000187844
4.1653e-05
0.000315479
0.000630438
0.000983489
0.00137173
0.00179238
0.00224283
0.00272054
0.00322313
0.0037483
0.00429387
0.00485772
0.00543781
0.00603217
0.00663888
0.00725603
0.00788179
0.00851429
0.0091517
0.00979218
0.0104339
0.0110749
0.0117133
0.0123471
0.0129742
0.0135926
0.0142
0.0147942
0.0153727
0.0159329
0.0164722
0.0169878
0.0174767
0.0179357
0.0183616
0.0187507
0.0190996
0.0194042
0.0196607
0.0198646
0.0200056
0.0200208
0.0195129
0.0195129
0.000414712
0.000414712
-8.86848e-05
-8.33096e-05
3.85057e-05
0.000214861
0.000436711
0.000700532
0.00100333
0.00134226
0.00171462
0.0021178
0.00254934
0.00300687
0.00348816
0.00399103
0.00451343
0.00505334
0.00560885
0.00617806
0.00675916
0.00735033
0.0079498
0.0085558
0.00916657
0.00978035
0.0103953
0.0110097
0.0116217
0.0122293
0.0128306
0.0134235
0.014006
0.0145759
0.0151308
0.0156683
0.0161859
0.0166809
0.0171504
0.0175916
0.0180011
0.0183758
0.0187122
0.0190066
0.0192553
0.0194539
0.0195925
0.0196071
0.0190949
0.0190949
0.000431236
0.000431236
-8.01591e-05
-7.45519e-05
4.8374e-05
0.000225866
0.000448731
0.000713386
0.00101681
0.00135613
0.00172863
0.00213173
0.00256295
0.00301996
0.00350051
0.00400247
0.00452378
0.00506247
0.00561662
0.00618439
0.00676394
0.00735351
0.00795134
0.00855568
0.00916479
0.00977692
0.0103903
0.0110031
0.0116136
0.0122199
0.0128199
0.0134117
0.0139933
0.0145624
0.0151167
0.0156539
0.0161714
0.0166665
0.0171365
0.0175783
0.0179887
0.0183646
0.0187024
0.0189983
0.0192487
0.0194491
0.0195893
0.0196045
0.0190839
0.0190839
0.000371256
0.000371256
-0.000150079
-0.000143423
-1.77896e-05
0.000162812
0.000388966
0.000656995
0.000963811
0.00130651
0.00168234
0.0020887
0.00252312
0.00298324
0.00346683
0.00397175
0.00449597
0.0050375
0.00559446
0.00616499
0.00674729
0.00733959
0.00794016
0.00854725
0.00915914
0.00977409
0.0103904
0.0110061
0.0116197
0.012229
0.0128323
0.0134275
0.0140125
0.0145852
0.0151433
0.0156843
0.0162059
0.0167052
0.0171795
0.0176257
0.0180408
0.0184212
0.0187636
0.0190642
0.019319
0.0195234
0.0196671
0.0196838
0.0191528
0.0191528
0.000276736
0.000276736
-0.000256375
-0.000248104
-0.000118607
6.64365e-05
0.000297312
0.000570217
0.000881981
0.00122964
0.00161041
0.00202166
0.00246089
0.00292576
0.00341403
0.00392356
0.00445232
0.00499836
0.00555977
0.00613473
0.00672144
0.00731816
0.00792315
0.00853469
0.00915108
0.00977058
0.0103915
0.011012
0.0116303
0.0122446
0.0128529
0.0134533
0.0140437
0.0146219
0.0151857
0.0157327
0.0162603
0.0167658
0.0172465
0.0176992
0.0181209
0.018508
0.018857
0.0191641
0.0194251
0.0196353
0.019784
0.019803
0.0192594
0.0192594
0.000151269
0.000151269
-0.00039557
-0.000385068
-0.000250529
-5.97208e-05
0.000177273
0.000456493
0.000774668
0.00112876
0.00151595
0.00193355
0.00237907
0.00285015
0.00334454
0.00386012
0.00439487
0.00494682
0.00551411
0.00609492
0.00668747
0.00729003
0.00790088
0.00851833
0.00914067
0.00976621
0.0103932
0.01102
0.0116447
0.0122654
0.0128804
0.0134877
0.0140851
0.0146706
0.0152418
0.0157964
0.0163319
0.0168455
0.0173345
0.0177956
0.0182258
0.0186216
0.0189792
0.0192946
0.0195637
0.0197815
0.0199366
0.0199586
0.0194005
0.0194005
-5.33592e-06
-5.33592e-06
-0.000567985
-0.000554536
-0.000413687
-0.000215719
2.88418e-05
0.000315856
0.000641933
0.00100396
0.00139904
0.00182448
0.00227775
0.00275649
0.00325845
0.00378151
0.00432365
0.00488295
0.00545753
0.00604559
0.00664539
0.0072552
0.00787333
0.00849811
0.00912785
0.00976088
0.0103955
0.01103
0.0116626
0.0122914
0.0129147
0.0135304
0.0141365
0.0147309
0.0153113
0.0158754
0.0164206
0.0169442
0.0174433
0.0179149
0.0183556
0.0187619
0.0191301
0.0194559
0.019735
0.0199621
0.0201253
0.0201513
0.0195763
0.0195763
-0.000193696
-0.000193696
-0.000774355
-0.000757118
-0.000608574
-0.00040196
-0.000148311
0.000148033
0.000483548
0.000855029
0.00125952
0.0016943
0.0021568
0.00264466
0.00315564
0.00368761
0.00423858
0.00480663
0.00538991
0.00598664
0.00659509
0.00721357
0.00784041
0.00847395
0.00911253
0.00975452
0.0103982
0.0110419
0.0116839
0.0123224
0.0129555
0.0135814
0.0141979
0.0148029
0.0153943
0.0159696
0.0165264
0.0170618
0.0175731
0.0180571
0.0185104
0.0189294
0.0193101
0.0196484
0.0199395
0.0201779
0.020351
0.0203821
0.0197878
0.0197878
-0.000414602
-0.000414602
-0.00101558
-0.000993562
-0.0008358
-0.000618944
-0.000354598
-4.73236e-05
0.000299216
0.00068172
0.00109717
0.0015428
0.00201604
0.0025145
0.00303595
0.00357829
0.00413951
0.00471774
0.00531113
0.00591795
0.00653647
0.00716503
0.007802
0.00844573
0.00909462
0.00974702
0.0104013
0.0110558
0.0117087
0.0123584
0.013003
0.0136406
0.0142691
0.0148866
0.0154907
0.0160791
0.0166493
0.0171986
0.017724
0.0182224
0.0186904
0.0191242
0.0195198
0.0198727
0.020178
0.0204298
0.0206147
0.0206521
0.020036
0.020036
-0.000669007
-0.000669007
-0.0012927
-0.00126474
-0.00109607
-0.000867249
-0.000590501
-0.000270617
8.85934e-05
0.000483733
0.000911724
0.00136976
0.00185525
0.0023658
0.0028992
0.00345335
0.00402628
0.0046161
0.00522104
0.00583935
0.00646937
0.00710944
0.00775796
0.00841334
0.00907398
0.00973828
0.0104046
0.0110714
0.0117369
0.0123993
0.013057
0.013708
0.0143503
0.0149819
0.0156006
0.016204
0.0167895
0.0173546
0.0178962
0.0184111
0.018896
0.0193468
0.0197595
0.0201293
0.0204512
0.0207186
0.0209175
0.0209629
0.0203222
0.0203222
-0.000958037
-0.000958037
-0.00160693
-0.00157163
-0.00139019
-0.00114753
-0.000856564
-0.000522308
-0.000148715
0.000260724
0.000702871
0.00117489
0.00167417
0.00219834
0.00274517
0.0033126
0.00389867
0.00450154
0.00511945
0.00575069
0.00639362
0.00704663
0.00770815
0.00837662
0.00905047
0.00972816
0.0104081
0.0110886
0.0117682
0.0124451
0.0131174
0.0137835
0.0144413
0.0150888
0.0157239
0.0163441
0.0169471
0.01753
0.0180899
0.0186235
0.0191274
0.0195977
0.0200298
0.0204191
0.02076
0.0210457
0.021261
0.021316
0.020648
0.020648
-0.001283
-0.001283
-0.00195962
-0.00191535
-0.00171905
-0.00146053
-0.0011534
-0.000802911
-0.000413152
1.23025e-05
0.000470267
0.000957873
0.00147252
0.00201183
0.0025736
0.00315579
0.00375647
0.00437383
0.00500614
0.00565174
0.00630903
0.00697642
0.00765239
0.0083354
0.00902395
0.0097165
0.0104115
0.0111074
0.0118027
0.0124955
0.0131842
0.0138671
0.0145422
0.0152074
0.0158607
0.0164998
0.017122
0.0177248
0.0183052
0.0188599
0.0193852
0.0198773
0.0203315
0.0207428
0.0211054
0.0214121
0.0216467
0.0217133
0.0210151
0.0210151
-0.00164538
-0.00164538
-0.00235231
-0.00229715
-0.00208365
-0.00180705
-0.00148168
-0.001113
-0.000705214
-0.000261965
0.000213521
0.000718366
0.00124997
0.00180597
0.0023842
0.00298264
0.0035994
0.00423271
0.00488088
0.00554229
0.00621537
0.00689859
0.00759046
0.0082895
0.00899422
0.00970315
0.0104148
0.0111276
0.0118401
0.0125506
0.0132573
0.0139587
0.0146528
0.0153376
0.0160111
0.0166708
0.0173145
0.0179394
0.0185425
0.0191205
0.0196698
0.0201862
0.0206651
0.0211013
0.0214886
0.0218194
0.0220762
0.0221569
0.0214257
0.0214257
-0.00204689
-0.00204689
-0.00278668
-0.00271838
-0.00248508
-0.00218798
-0.00184215
-0.0014532
-0.00102544
-0.000562562
-6.78005e-05
0.000455963
0.00100615
0.00158042
0.00217664
0.00279284
0.00342717
0.0040779
0.00474339
0.00542206
0.00611239
0.0068129
0.00752214
0.00823868
0.00896108
0.00968792
0.0104177
0.0111491
0.0118804
0.0126101
0.0133366
0.0140583
0.0147731
0.0154794
0.0161749
0.0168575
0.0175247
0.0181738
0.0188019
0.0194057
0.0199815
0.020525
0.0210316
0.0214957
0.0219109
0.022269
0.0225515
0.0226492
0.0218819
0.0218819
-0.00248944
-0.00248944
-0.00326461
-0.00318051
-0.00292452
-0.00260429
-0.0022356
-0.00182421
-0.00137444
-0.000890019
-0.000374181
0.000170221
0.000740639
0.00133478
0.00195055
0.00258603
0.00323943
0.00390906
0.00459334
0.00529075
0.0059998
0.00671908
0.00744718
0.00818271
0.00892431
0.00967058
0.0104201
0.0111715
0.0119233
0.012674
0.013422
0.0141656
0.0149032
0.0156328
0.0163524
0.0170598
0.0177527
0.0184283
0.0190839
0.019716
0.020321
0.0208945
0.0214317
0.0219269
0.0223735
0.0227628
0.0230749
0.0231927
0.0223864
0.0223864
-0.00297517
-0.00297517
-0.00378812
-0.00368517
-0.00340324
-0.00305702
-0.00266292
-0.00222675
-0.00175286
-0.00124492
-0.000706153
-0.000139357
0.000452975
0.00106861
0.00170551
0.00236181
0.00303579
0.00372583
0.00443039
0.00514801
0.00587727
0.00661681
0.00736527
0.00812132
0.00888365
0.00965092
0.0104218
0.0111949
0.0119688
0.0127422
0.0135134
0.0142808
0.0150429
0.0157977
0.0165434
0.0172778
0.0179986
0.0187032
0.0193886
0.0200517
0.0206887
0.0212952
0.0218664
0.0223963
0.022878
0.0233024
0.0236485
0.0237905
0.0229422
0.0229422
-0.00350649
-0.00350649
-0.00435944
-0.00423407
-0.00392263
-0.00354729
-0.00312503
-0.00266164
-0.0021614
-0.00162791
-0.00106431
-0.000473318
0.00014264
0.000781408
0.00144103
0.00211972
0.00281582
0.00352778
0.00425413
0.00499347
0.00574444
0.00650575
0.00727609
0.0080542
0.00883882
0.00962867
0.0104225
0.0112189
0.0120167
0.0128144
0.0136106
0.0144037
0.0151922
0.0159743
0.0167481
0.0175117
0.0182627
0.0189986
0.0197165
0.0204134
0.0210853
0.0217281
0.0223366
0.022905
0.0234259
0.0238901
0.024275
0.0244455
0.0235526
0.0235526
-0.00408606
-0.00408606
-0.00498095
-0.00482905
-0.00448413
-0.00407628
-0.00362294
-0.00312975
-0.00260084
-0.00203968
-0.00144929
-0.000832272
-0.000190947
0.000472629
0.0011566
0.00185925
0.00257903
0.00331444
0.0040641
0.00482668
0.0056009
0.00638551
0.00717928
0.00798101
0.0087895
0.00960354
0.0104219
0.0112434
0.0120667
0.0128905
0.0137135
0.0145342
0.015351
0.0161624
0.0169665
0.0177615
0.018545
0.0193148
0.0200679
0.0208014
0.0215115
0.0221939
0.0228435
0.0234544
0.0240191
0.0245279
0.024957
0.0251613
0.0242212
0.0242212
-0.00471685
-0.00471685
-0.00565519
-0.00547207
-0.0050893
-0.00464527
-0.00415771
-0.003632
-0.00307201
-0.002481
-0.00186181
-0.00121689
-0.000548431
0.00014165
0.000851602
0.00157983
0.00232484
0.00308527
0.0038598
0.00464717
0.00544618
0.00625565
0.00707443
0.00790138
0.00873536
0.00957523
0.0104199
0.0112681
0.0121186
0.0129704
0.013822
0.0146721
0.0155194
0.0163621
0.0171987
0.0180273
0.0188459
0.0196521
0.0204433
0.0212164
0.0219678
0.0226934
0.0233882
0.0240459
0.0246593
0.0252182
0.0256976
0.0259416
0.0249522
0.0249522
-0.00540213
-0.00540213
-0.00638489
-0.00616518
-0.00573975
-0.00525559
-0.0047305
-0.00416941
-0.00357582
-0.00295271
-0.00230266
-0.00162794
-0.000930532
-0.000212225
0.000525374
0.00128079
0.00205265
0.00283967
0.00364064
0.00445438
0.00527977
0.0061157
0.00696109
0.00781488
0.008676
0.00954339
0.010416
0.0112927
0.0121723
0.0130538
0.013936
0.0148176
0.0156972
0.0165734
0.0174447
0.0183094
0.0191655
0.0200108
0.0208429
0.0216589
0.0224552
0.0232278
0.0239718
0.0246812
0.0253485
0.0259635
0.0264999
0.0267903
0.0257501
0.0257501
-0.00614552
-0.00614552
-0.0071729
-0.00691051
-0.0064372
-0.00590866
-0.00534251
-0.00474304
-0.00411325
-0.00345572
-0.00277271
-0.00206624
-0.00133806
-0.000589778
0.000177157
0.000961411
0.00176174
0.00257697
0.00340598
0.0042477
0.00510108
0.0059651
0.00683876
0.00772106
0.00861102
0.00950765
0.0104099
0.0113169
0.0122275
0.0131407
0.0140553
0.0149703
0.0158844
0.0167964
0.0177047
0.0186079
0.0195041
0.0203914
0.0212674
0.0221295
0.0229743
0.023798
0.0245958
0.0253618
0.0260888
0.0267664
0.0273672
0.0277118
0.0266198
0.0266198
-0.00695102
-0.00695102
-0.00802223
-0.00771031
-0.00718344
-0.00660598
-0.00599505
-0.00535407
-0.00468538
-0.00399105
-0.00327294
-0.00253272
-0.00177192
-0.000991889
-0.000193904
0.000620864
0.00145131
0.00229639
0.00315509
0.00402643
0.00490946
0.00580325
0.00670687
0.00761941
0.00853995
0.00946759
0.0104014
0.0113405
0.0122839
0.0132307
0.0141798
0.0151303
0.0160811
0.017031
0.0179788
0.0189229
0.019862
0.0207942
0.0217173
0.0226289
0.0235261
0.0244051
0.0252615
0.0260897
0.0268825
0.0276298
0.0283031
0.0287105
0.0275671
0.0275671
-0.00782301
-0.00782301
-0.00893596
-0.00856684
-0.00798032
-0.00734912
-0.0066895
-0.00600376
-0.00529339
-0.00455981
-0.00380441
-0.00302844
-0.00223312
-0.00141955
-0.000588776
0.000258213
0.00112047
0.00199707
0.00288714
0.0037898
0.00470419
0.00562947
0.0065648
0.00750934
0.00846227
0.00942276
0.01039
0.0113631
0.0123413
0.0133237
0.0143094
0.0152976
0.0162873
0.0172774
0.018267
0.0192549
0.0202396
0.0212196
0.0221931
0.023158
0.0241115
0.0250504
0.0259705
0.0268666
0.0277319
0.0285566
0.0293113
0.0297914
0.0285981
0.0285981
-0.00876635
-0.00876635
-0.00991729
-0.00948244
-0.00882974
-0.00813974
-0.00742734
-0.00669346
-0.00593855
-0.00516325
-0.00436832
-0.00355457
-0.00272283
-0.00187389
-0.00100855
-0.000127604
0.000768181
0.00167804
0.0026012
0.00353692
0.00448444
0.005443
0.00641185
0.00739024
0.00837744
0.00937268
0.0103752
0.0113844
0.0123994
0.0134195
0.0144439
0.015472
0.0165029
0.0175358
0.0185698
0.0196039
0.0206372
0.0216682
0.0226956
0.0237175
0.0247316
0.0257351
0.0267243
0.0276946
0.0286396
0.0295499
0.0303956
0.0309593
0.0297194
0.0297194
-0.00978637
-0.00978637
-0.0109694
-0.0104595
-0.00973368
-0.00897956
-0.00821015
-0.00742467
-0.0066223
-0.00580273
-0.00496603
-0.00411243
-0.00324232
-0.00235616
-0.00145447
-0.000537789
0.000393293
0.00133817
0.00229622
0.00326681
0.00424928
0.00524298
0.00624724
0.00726141
0.00828481
0.00931681
0.0103567
0.011404
0.0124579
0.0135178
0.0145833
0.0156535
0.016728
0.0178061
0.0188872
0.0199705
0.0210553
0.0221407
0.0232255
0.0243083
0.0253875
0.0264607
0.0275248
0.0285758
0.0296082
0.030613
0.0315601
0.0322195
0.0309388
0.0309388
-0.010889
-0.010889
-0.0120957
-0.0115002
-0.0106941
-0.00987039
-0.00903961
-0.00819898
-0.00734618
-0.0064798
-0.00559904
-0.00470351
-0.00379309
-0.00286783
-0.00192794
-0.000973711
-5.51516e-06
0.000976216
0.001971
0.00297834
0.00399767
0.00502845
0.0060701
0.00712206
0.00818373
0.00925456
0.010334
0.0114215
0.0125165
0.0136186
0.0147273
0.0158422
0.0169628
0.0180887
0.0192196
0.020355
0.0214945
0.0226376
0.0237836
0.0249316
0.0260805
0.0272287
0.0283738
0.0295127
0.0306405
0.0317493
0.0328088
0.0335772
0.0322643
0.0322643
-0.0120806
-0.0120806
-0.0132991
-0.012607
-0.0117131
-0.0108141
-0.00991754
-0.00901816
-0.00811194
-0.00719616
-0.00626907
-0.00532951
-0.0043768
-0.00341054
-0.00243058
-0.00143693
-0.000429744
0.000590738
0.00162419
0.00267024
0.00372844
0.00479834
0.00587947
0.00697133
0.00807342
0.00918529
0.0103065
0.0114365
0.012575
0.0137216
0.0148761
0.0160381
0.0172074
0.0183839
0.0195675
0.020758
0.0219555
0.0231599
0.024371
0.0255885
0.0268121
0.0280409
0.0292734
0.0305075
0.0317395
0.0329622
0.0341458
0.035038
0.033705
0.033705
-0.0133683
-0.0133683
-0.0145829
-0.013782
-0.0127927
-0.0118127
-0.0108459
-0.00988413
-0.00892149
-0.00795375
-0.00697803
-0.00599234
-0.00499535
-0.00398615
-0.00296421
-0.00192923
-0.000881108
0.000180104
0.00125425
0.00234107
0.00344025
0.00455144
0.00567424
0.00680826
0.00795307
0.00910831
0.0102736
0.0114486
0.012633
0.0138267
0.0150295
0.0162413
0.0174621
0.018692
0.0199313
0.0211802
0.0224391
0.0237085
0.0249888
0.0262805
0.0275839
0.0288992
0.0302259
0.0315631
0.0329081
0.0342553
0.0355753
0.0366071
0.0352711
0.0352711
-0.0147602
-0.0147602
-0.0159499
-0.0150273
-0.0139348
-0.0128682
-0.0118266
-0.010799
-0.00977698
-0.00875473
-0.00772812
-0.0066942
-0.00565092
-0.00459682
-0.00353094
-0.00245264
-0.00136157
-0.000257552
0.000859405
0.00198919
0.0031316
0.00428637
0.0054532
0.00663177
0.00782176
0.00902285
0.0102348
0.0114573
0.0126904
0.0139338
0.0151876
0.016452
0.0177272
0.0190136
0.0203117
0.0216224
0.0229463
0.0242846
0.0256384
0.027009
0.0283977
0.0298056
0.0312337
0.032682
0.0341497
0.0356321
0.0371013
0.0382897
0.0369734
0.0369734
-0.0162649
-0.0162649
-0.0174027
-0.0163449
-0.0151415
-0.0139827
-0.0128621
-0.011765
-0.0106808
-0.00960153
-0.0085218
-0.00743757
-0.00634599
-0.00524501
-0.00413317
-0.00300951
-0.00187336
-0.000724362
0.000437663
0.00161274
0.00280077
0.00400159
0.00521497
0.00644068
0.00767846
0.0089281
0.0101894
0.0114623
0.0127467
0.0140427
0.0153505
0.0166705
0.0180032
0.0193492
0.0207096
0.0220855
0.0234783
0.0248896
0.0263215
0.027776
0.0292556
0.0307626
0.0322993
0.0338674
0.0354674
0.0370963
0.0387278
0.040091
0.0388241
0.0388241
-0.0178923
-0.0178923
-0.0189437
-0.0177362
-0.0164147
-0.0151583
-0.0139545
-0.0127848
-0.0116355
-0.0104969
-0.00936187
-0.00822529
-0.00708341
-0.00593352
-0.00477368
-0.0036025
-0.00241907
-0.00122277
-1.32771e-05
0.00120958
0.00244581
0.00369532
0.00495799
0.00623362
0.00752205
0.00882313
0.0101368
0.011463
0.0128018
0.0141535
0.0155185
0.0168973
0.0182907
0.0196998
0.021126
0.0225709
0.0240365
0.0255252
0.0270399
0.0285836
0.03016
0.0317728
0.0334258
0.0351223
0.0368646
0.0386514
0.0404583
0.0420157
0.0408367
0.0408367
-0.0196531
-0.0196531
-0.0205747
-0.0192028
-0.0177561
-0.0163973
-0.0151065
-0.013861
-0.0126441
-0.0114439
-0.0102515
-0.0090606
-0.00786643
-0.0066656
-0.00545561
-0.00423471
-0.00300164
-0.0017556
-0.000496053
0.00077727
0.00206448
0.00336559
0.0046805
0.0060091
0.00735128
0.00870697
0.0100762
0.0114589
0.0128555
0.0142662
0.0156917
0.0171328
0.0185906
0.0200664
0.0215622
0.0230801
0.0246227
0.0261934
0.0277957
0.0294342
0.0311135
0.0328391
0.0346162
0.0364501
0.0383448
0.0403008
0.0422962
0.0440678
0.0430258
0.0430258
-0.0215595
-0.0215595
-0.0222969
-0.0207456
-0.0191675
-0.0177019
-0.0163207
-0.0149967
-0.0137099
-0.012446
-0.0111944
-0.00994717
-0.00869876
-0.00744493
-0.00618263
-0.00490967
-0.0036245
-0.00232607
-0.0010137
0.00031301
0.00165425
0.00301009
0.0043805
0.00576541
0.00716476
0.00857853
0.0100068
0.0114497
0.0129076
0.014381
0.0158708
0.0173779
0.0189038
0.0204504
0.0220198
0.0236149
0.0252391
0.0268965
0.0285918
0.0303306
0.0321193
0.0339647
0.0358739
0.0378542
0.0399113
0.0420477
0.0442443
0.0462508
0.0454077
0.0454077
-0.0236254
-0.0236254
-0.0241109
-0.0223653
-0.0206504
-0.0190743
-0.0175998
-0.016195
-0.0148364
-0.0135071
-0.0121944
-0.0108892
-0.00958465
-0.00827578
-0.00695892
-0.00563147
-0.00429155
-0.00293791
-0.0015697
-0.000186428
0.00121218
0.00262623
0.00405573
0.00550063
0.00696092
0.00843661
0.00992783
0.0114348
0.0129581
0.0144982
0.0160563
0.0176336
0.0192319
0.0208533
0.0225008
0.0241777
0.0258882
0.0276374
0.0294311
0.0312763
0.0331808
0.0351532
0.0372026
0.0393382
0.0415676
0.043895
0.0463049
0.0485674
0.0480006
0.0480006
-0.0258663
-0.0258663
-0.0260167
-0.024062
-0.0222059
-0.0205166
-0.0189468
-0.0174595
-0.0160277
-0.0146314
-0.0132563
-0.0118914
-0.0105289
-0.00916299
-0.0077893
-0.00640481
-0.00500734
-0.00359543
-0.0021681
-0.000724765
0.000734893
0.002211
0.00370358
0.00521259
0.00673803
0.00827993
0.00983845
0.0114139
0.0130069
0.0146183
0.0162492
0.0179012
0.0195764
0.0212774
0.0230077
0.0247713
0.0265732
0.0284195
0.0303173
0.0322749
0.0343018
0.0364086
0.0386062
0.0409058
0.0433169
0.0458453
0.0484795
0.0510191
0.0508243
0.0508243
-0.0282998
-0.0282998
-0.0280129
-0.0258352
-0.0238352
-0.0220309
-0.0203647
-0.018794
-0.0172879
-0.0158239
-0.0143851
-0.0129592
-0.0115372
-0.0101122
-0.0086793
-0.00723511
-0.0057771
-0.00430362
-0.00281357
-0.00130631
0.000218495
0.00176096
0.00332108
0.00489881
0.00649412
0.00810704
0.00973776
0.0113867
0.0130544
0.0147419
0.0164506
0.0181824
0.0199395
0.0217253
0.0235435
0.025399
0.0272977
0.0292467
0.0312545
0.0333308
0.0354869
0.0377352
0.0400888
0.0425607
0.0451622
0.0479006
0.0507687
0.0536061
0.053901
0.053901
-0.0309462
-0.0309462
-0.0300976
-0.0276841
-0.0255388
-0.0236194
-0.0218566
-0.0202023
-0.0186219
-0.0170896
-0.0155866
-0.0140987
-0.0126156
-0.0111296
-0.00963528
-0.00812862
-0.00660688
-0.00506824
-0.00351151
-0.00193604
-0.00034153
0.00127211
0.00290481
0.00455647
0.00622698
0.00791638
0.00962482
0.0113527
0.0131008
0.0148701
0.0166622
0.0184793
0.020324
0.0222001
0.0241118
0.0260649
0.0280662
0.0301239
0.0322477
0.0344491
0.036741
0.0391379
0.0416547
0.0443065
0.0471063
0.0500623
0.0531723
0.0563268
0.0572554
0.0572554
-0.0338287
-0.0338287
-0.0322671
-0.029607
-0.0273171
-0.0252837
-0.0234255
-0.0216887
-0.0200346
-0.0184345
-0.0168671
-0.0153165
-0.0137712
-0.0122226
-0.0106645
-0.00909253
-0.00750367
-0.00589597
-0.00426822
-0.00261978
-0.000950422
0.000739836
0.00245082
0.00418231
0.00593413
0.0077062
0.00949866
0.0113119
0.0131467
0.0150041
0.016886
0.0187947
0.0207332
0.0227057
0.0247172
0.026774
0.028884
0.0310564
0.0333025
0.0356353
0.0380696
0.0406216
0.0433085
0.046147
0.0491514
0.052331
0.0556886
0.059178
0.0609146
0.0609146
-0.0369743
-0.0369743
-0.0345168
-0.0316017
-0.02917
-0.0270256
-0.0250746
-0.0232576
-0.0215316
-0.0198648
-0.0182336
-0.0166204
-0.0150122
-0.0133994
-0.0117753
-0.0101351
-0.00847554
-0.00679457
-0.00509099
-0.00336427
-0.00161429
0.000158762
0.00195453
0.00377263
0.00561272
0.0074746
0.0093583
0.0112641
0.0131929
0.0151457
0.0171246
0.0191319
0.0211713
0.023247
0.0253649
0.0275321
0.0297571
0.0320507
0.0344254
0.0368958
0.0394786
0.0421919
0.0450548
0.0480855
0.0512995
0.0547065
0.0583147
0.0621543
0.0649091
0.0649091
-0.0404142
-0.0404142
-0.0368402
-0.0336653
-0.031097
-0.0288464
-0.0268069
-0.0249133
-0.0231184
-0.0213874
-0.0196939
-0.0180187
-0.0163473
-0.0146693
-0.0129772
-0.0112658
-0.00953182
-0.00777302
-0.00598834
-0.00417737
-0.00234024
-0.000477373
0.00141063
0.00332313
0.00525954
0.00721945
0.00920272
0.0112096
0.0132407
0.0152972
0.0173812
0.0194953
0.0216432
0.0238299
0.0260615
0.028346
0.030693
0.0331143
0.0356238
0.0382378
0.0409746
0.0438545
0.0468981
0.0501251
0.0535515
0.0571874
0.0610462
0.0652475
0.0692726
0.0692726
-0.0441851
-0.0441851
-0.0392292
-0.0357943
-0.033097
-0.0307472
-0.0286252
-0.0266603
-0.0248011
-0.0230093
-0.0212563
-0.0195206
-0.0177865
-0.0160427
-0.0142809
-0.0124956
-0.0106832
-0.00884175
-0.00697014
-0.00506829
-0.00313661
-0.00117589
0.000812921
0.00282881
0.00487087
0.00693838
0.00903093
0.0111485
0.0132916
0.0154615
0.0176599
0.0198899
0.0221552
0.0244612
0.0268146
0.029224
0.0317
0.0342555
0.0369058
0.0396689
0.0425648
0.0456154
0.0488429
0.0522683
0.0559079
0.0597711
0.0638772
0.068447
0.0740428
0.0740428
-0.0483299
-0.0483299
-0.041674
-0.0379847
-0.0351687
-0.0327286
-0.0305323
-0.0285032
-0.0265858
-0.0247384
-0.0229297
-0.0211363
-0.0193411
-0.0175315
-0.0156987
-0.0138369
-0.0119423
-0.0100129
-0.00804796
-0.00604779
-0.00401319
-0.0019454
0.000154113
0.00228386
0.00444244
0.00662871
0.00884185
0.0110815
0.013348
0.0156422
0.0179659
0.020322
0.0227146
0.0251493
0.0276331
0.0301755
0.0327878
0.035484
0.0382809
0.0411979
0.0442567
0.0474807
0.0508937
0.0545173
0.058368
0.0624542
0.0668004
0.071739
0.0792618
0.0792618
-0.0529002
-0.0529002
-0.0441632
-0.0402329
-0.0373111
-0.0347921
-0.0325317
-0.0304477
-0.0284802
-0.026584
-0.0247252
-0.0228783
-0.0210245
-0.0191502
-0.0172458
-0.0153051
-0.0133243
-0.0113015
-0.00923639
-0.00712956
-0.00498247
-0.00279699
-0.000575251
0.00168059
0.00396848
0.00628665
0.00863373
0.0110088
0.0134118
0.0158433
0.0183048
0.020799
0.0233301
0.0259038
0.0285277
0.0312115
0.0339677
0.0368112
0.0397601
0.0428351
0.0460596
0.0494585
0.0530568
0.0568766
0.0609339
0.0652356
0.0698112
0.0751113
0.0849814
0.0849814
-0.0579721
-0.0579721
-0.0466988
-0.0425515
-0.0395406
-0.0369574
-0.0346463
-0.0325196
-0.0305128
-0.0285774
-0.0266762
-0.0247817
-0.0228732
-0.020936
-0.0189597
-0.0169377
-0.014866
-0.0127431
-0.0105691
-0.0083452
-0.00607362
-0.00375708
-0.0013986
0.000998751
0.00343205
0.00589865
0.00839638
0.0109237
0.0134797
0.0160645
0.0186793
0.0213266
0.0240103
0.0267363
0.0295125
0.0323492
0.0352596
0.0382599
0.0413692
0.04461
0.048007
0.0515865
0.0553743
0.0593928
0.0636568
0.0681709
0.0729682
0.0786179
0.0913308
0.0913308
-0.063872
-0.063872
-0.0495283
-0.0452114
-0.0421431
-0.0395253
-0.0371903
-0.035044
-0.0330164
-0.0310549
-0.0291192
-0.0271792
-0.0252128
-0.023204
-0.0211423
-0.0190209
-0.0168365
-0.0145883
-0.0122773
-0.00990609
-0.00747808
-0.00499731
-0.0024681
0.000105221
0.00271857
0.00536826
0.00805121
0.0107651
0.0135085
0.0162811
0.0190839
0.0219194
0.0247919
0.0277079
0.0306761
0.0337082
0.0368187
0.0400255
0.0433499
0.0468162
0.0504509
0.0542815
0.058334
0.0626291
0.0671775
0.0719766
0.0770565
0.0830891
0.0992477
0.0992477
-0.074187
-0.074187
-0.0562321
-0.0518998
-0.0488913
-0.0463221
-0.0440012
-0.0418228
-0.0397117
-0.0376144
-0.0354931
-0.0333221
-0.0310851
-0.0287726
-0.0263805
-0.0239085
-0.021359
-0.0187363
-0.0160459
-0.013294
-0.0104866
-0.00762969
-0.00472868
-0.00178818
0.00118816
0.00419781
0.00723951
0.0103134
0.0134211
0.016566
0.0197535
0.022991
0.0262883
0.0296577
0.0331148
0.036678
0.0403689
0.0442122
0.0482351
0.0524664
0.0569344
0.061664
0.0666726
0.0719638
0.0775196
0.0832952
0.0892683
0.0961348
0.116624
0.116624
-0.128052
-0.128052
-0.105232
-0.0996293
-0.0948638
-0.0901258
-0.0853273
-0.080462
-0.075543
-0.0705917
-0.0656316
-0.0606858
-0.0557748
-0.0509163
-0.0461242
-0.041409
-0.0367775
-0.0322328
-0.0277751
-0.023401
-0.0191042
-0.0148753
-0.0107024
-0.00657016
-0.00246074
0.00164686
0.00577681
0.0099566
0.0142174
0.0185943
0.0231266
0.0278583
0.0328382
0.0381202
0.043763
0.0498299
0.0563878
0.0635052
0.0712489
0.0796796
0.0888441
0.0987643
0.109423
0.12074
0.132549
0.144564
0.156395
0.168263
0.196419
0.196419
-0.497552
-0.497552
-0.425052
-0.365358
-0.31652
-0.275546
-0.240753
-0.210922
-0.18513
-0.162664
-0.142965
-0.125591
-0.110185
-0.0964567
-0.0841663
-0.073113
-0.0631261
-0.0540584
-0.0457806
-0.0381775
-0.0311442
-0.0245834
-0.0184029
-0.0125128
-0.006824
-0.0012451
0.00431951
0.00997252
0.0158266
0.0220076
0.0286586
0.0359439
0.0440544
0.0532122
0.0636774
0.0757544
0.0897982
0.106222
0.1255
0.148176
0.174858
0.206217
0.242971
0.285857
0.335592
0.392809
0.458033
0.532437
0.615919
0.615919
-0.497552
-0.497552
-0.425052
-0.365358
-0.31652
-0.275546
-0.240753
-0.210922
-0.18513
-0.162664
-0.142965
-0.125591
-0.110185
-0.0964567
-0.0841663
-0.073113
-0.0631261
-0.0540584
-0.0457806
-0.0381775
-0.0311442
-0.0245834
-0.0184029
-0.0125128
-0.006824
-0.0012451
0.00431951
0.00997252
0.0158266
0.0220076
0.0286586
0.0359439
0.0440544
0.0532122
0.0636774
0.0757544
0.0897982
0.106222
0.1255
0.148176
0.174858
0.206217
0.242971
0.285857
0.335592
0.392809
0.458033
0.532437
0.615919
0.615919
VECTORS velocity double
-8.67154e-05 8.67153e-05 0.0
8.67154e-05 -8.67153e-05 0.0
0.000312117 -0.000138686 0.0
0.000594018 -0.000143215 0.0
0.000877656 -0.000140423 0.0
0.00115437 -0.000136288 0.0
0.00142216 -0.000131509 0.0
0.0016799 -0.000126228 0.0
0.00192666 -0.000120529 0.0
0.00216167 -0.000114482 0.0
0.0023843 -0.000108147 0.0
0.00259402 -0.000101572 0.0
0.00279039 -9.47995e-05 0.0
0.00297305 -8.78637e-05 0.0
0.00314171 -8.07932e-05 0.0
0.00329611 -7.36112e-05 0.0
0.00343606 -6.6337e-05 0.0
0.00356138 -5.89857e-05 0.0
0.00367194 -5.15695e-05 0.0
0.00376761 -4.40979e-05 0.0
0.00384828 -3.65784e-05 0.0
0.00391388 -2.90163e-05 0.0
0.00396431 -2.1416e-05 0.0
0.00399951 -1.37804e-05 0.0
0.0040194 -6.11218e-06 0.0
0.00402392 1.58681e-06 0.0
0.00401302 9.31459e-06 0.0
0.00398664 1.70689e-05 0.0
0.00394472 2.48471e-05 0.0
0.00388723 3.26454e-05 0.0
0.00381413 4.04587e-05 0.0
0.00372539 4.82803e-05 0.0
0.00362101 5.61012e-05 0.0
0.00350099 6.39098e-05 0.0
0.00336539 7.16911e-05 0.0
0.00321428 7.94262e-05 0.0
0.00304776 8.70916e-05 0.0
0.00286601 9.46582e-05 0.0
0.00266926 0.000102091 0.0
0.00245782 0.000109345 0.0
0.00223211 0.000116371 0.0
0.00199263 0.000123106 0.0
0.00174005 0.000129476 0.0
0.00147518 0.000135396 0.0
0.00119902 0.000140759 0.0
0.000912858 0.000145403 0.0
0.000618869 0.000148586 0.0
0.000326105 0.000144177 0.0
9.0964e-05 9.0964e-05 0.0
-9.0964e-05 -9.0964e-05 0.0
8.67154e-05 -8.67153e-05 0.0
-8.67154e-05 8.67153e-05 0.0
-0.000312117 0.000138686 0.0
-0.000594018 0.000143215 0.0
-0.000877656 0.000140423 0.0
-0.00115437 0.000136288 0.0
-0.00142216 0.000131509 0.0
-0.0016799 0.000126228 0.0
-0.00192666 0.000120529 0.0
-0.00216167 0.000114482 0.0
-0.0023843 0.000108147 0.0
-0.00259402 0.000101572 0.0
-0.00279039 9.47995e-05 0.0
-0.00297305 8.78637e-05 0.0
-0.00314171 8.07932e-05 0.0
-0.00329611 7.36112e-05 0.0
-0.00343606 6.6337e-05 0.0
-0.00356138 5.89857e-05 0.0
-0.00367194 5.15695e-05 0.0
-0.00376761 4.40979e-05 0.0
-0.00384828 3.65784e-05 0.0
-0.00391388 2.90163e-05 0.0
-0.00396431 2.1416e-05 0.0
-0.00399951 1.37804e-05 0.0
-0.0040194 6.11218e-06 0.0
-0.00402392 -1.58681e-06 0.0
-0.00401302 -9.31459e-06 0.0
-0.00398664 -1.70689e-05 0.0
-0.00394472 -2.48471e-05 0.0
-0.00388723 -3.26454e-05 0.0
-0.00381413 -4.04587e-05 0.0
-0.00372539 -4.82803e-05 0.0
-0.00362101 -5.61012e-05 0.0
-0.00350099 -6.39098e-05 0.0
-0.00336539 -7.16911e-05 0.0
-0.00321428 -7.94262e-05 0.0
-0.00304776 -8.70916e-05 0.0
-0.00286601 -9.46582e-05 0.0
-0.00266926 -0.000102091 0.0
-0.00245782 -0.000109345 0.0
-0.00223211 -0.000116371 0.0
-0.00199263 -0.000123106 0.0
-0.00174005 -0.000129476 0.0
-0.00147518 -0.000135396 0.0
-0.00119902 -0.000140759 0.0
-0.000912858 -0.000145403 0.0
-0.000618869 -0.000148586 0.0
-0.000326105 -0.000144177 0.0
-9.0964e-05 -9.0964e-05 0.0
9.0964e-05 9.0964e-05 0.0
0.000130016 -0.000303446 0.0
-0.000130016 0.000303446 0.0
-0.000442768 0.000460109 0.0
-0.00081275 0.000473675 0.0
-0.00118406 0.00046491 0.0
-0.00154738 0.000451826 0.0
-0.00190016 0.000436551 0.0
-0.00224077 0.000419533 0.0
-0.00256784 0.000401051 0.0
-0.0028802 0.000381336 0.0
-0.00317687 0.000360584 0.0
-0.00345698 0.000338963 0.0
-0.00371981 0.000316613 0.0
-0.00396475 0.000293652 0.0
-0.00419126 0.000270181 0.0
-0.00439892 0.000246281 0.0
-0.00458733 0.000222023 0.0
-0.00475617 0.000197462 0.0
-0.00490516 0.000172645 0.0
-0.00503408 0.000147609 0.0
-0.00514272 0.000122385 0.0
-0.00523092 9.69979e-05 0.0
-0.00529852 7.1467e-05 0.0
-0.0053454 4.5809e-05 0.0
-0.00537146 2.00381e-05 0.0
-0.00537662 -5.83281e-06 0.0
-0.00536079 -3.17912e-05 0.0
-0.00532395 -5.78236e-05 0.0
-0.00526604 -8.39147e-05 0.0
-0.00518707 -0.000110046 0.0
-0.00508703 -0.000136195 0.0
-0.00496598 -0.000162332 0.0
-0.00482399 -0.000188422 0.0
-0.00466117 -0.000214421 0.0
-0.00447768 -0.000240273 0.0
-0.00427373 -0.00026591 0.0
-0.00404961 -0.000291249 0.0
-0.00380567 -0.000316188 0.0
-0.00354237 -0.000340607 0.0
-0.00326028 -0.000364358 0.0
-0.00296008 -0.00038727 0.0
-0.00264263 -0.000409136 0.0
-0.00230895 -0.000429715 0.0
-0.00196025 -0.000448723 0.0
-0.00159802 -0.000465822 0.0
-0.00122403 -0.000480488 0.0
-0.000841051 -0.00049047 0.0
-0.000458823 -0.000477284 0.0
-0.000134947 -0.000316875 0.0
0.000134947 0.000316875 0.0
0.000135883 -0.000569345 0.0
-0.000135883 0.000569345 0.0
-0.000461201 0.000832281 0.0
-0.000844501 0.000854785 0.0
-0.00122887 0.000839476 0.0
-0.00160484 0.000816552 0.0
-0.00196985 0.000789613 0.0
-0.00232221 0.000759442 0.0
-0.00266054 0.000726536 0.0
-0.00298363 0.000691309 0.0
-0.00329047 0.000654116 0.0
-0.00358019 0.000615259 0.0
-0.00385204 0.000574996 0.0
-0.00410538 0.000533547 0.0
-0.00433967 0.000491096 0.0
-0.00455445 0.0004478 0.0
-0.00474933 0.000403789 0.0
-0.00492396 0.000359172 0.0
-0.00507807 0.000314041 0.0
-0.00521141 0.000268471 0.0
-0.00532377 0.000222524 0.0
-0.00541497 0.000176254 0.0
-0.00548487 0.000129704 0.0
-0.00553332 8.29107e-05 0.0
-0.00556023 3.59086e-05 0.0
-0.00556551 -1.12716e-05 0.0
-0.00554908 -5.85994e-05 0.0
-0.0055109 -0.000106043 0.0
-0.00545094 -0.000153566 0.0
-0.00536918 -0.000201127 0.0
-0.00526565 -0.000248679 0.0
-0.00514039 -0.000296161 0.0
-0.00499347 -0.000343501 0.0
-0.00482502 -0.000390613 0.0
-0.00463521 -0.000437388 0.0
-0.00442426 -0.000483698 0.0
-0.00419245 -0.000529386 0.0
-0.00394018 -0.000574265 0.0
-0.00366789 -0.000618111 0.0
-0.00337618 -0.000660658 0.0
-0.00306575 -0.000701593 0.0
-0.00273747 -0.000740545 0.0
-0.00239238 -0.000777082 0.0
-0.00203173 -0.000810698 0.0
-0.00165702 -0.000840793 0.0
-0.00127007 -0.000866454 0.0
-0.000873686 -0.00088387 0.0
-0.000477757 -0.000862041 0.0
-0.000140965 -0.000592786 0.0
0.000140965 0.000592786 0.0
0.000137793 -0.000843021 0.0
-0.000137793 0.000843021 0.0
-0.000467949 0.00121408 0.0
-0.00085704 0.00124538 0.0
-0.00124694 0.00122315 0.0
-0.00162807 0.00118998 0.0
-0.00199784 0.00115096 0.0
-0.00235459 0.00110721 0.0
-0.00269694 0.00105944 0.0
-0.00302372 0.00100827 0.0
-0.00333392 0.000954199 0.0
-0.00362669 0.000897668 0.0
-0.00390131 0.000839055 0.0
-0.00415716 0.000778678 0.0
-0.00439371 0.000716807 0.0
-0.00461051 0.000653673 0.0
-0.00480719 0.000589468 0.0
-0.00498341 0.000524354 0.0
-0.00513891 0.000458467 0.0
-0.00527345 0.00039192 0.0
-0.00538682 0.000324808 0.0
-0.00547886 0.000257211 0.0
-0.00554942 0.000189197 0.0
-0.00559837 0.000120823 0.0
-0.00562561 5.21438e-05 0.0
-0.00563104 -1.67931e-05 0.0
-0.00561461 -8.59387e-05 0.0
-0.00557625 -0.000155242 0.0
-0.00551593 -0.000224649 0.0
-0.00543364 -0.000294094 0.0
-0.00532938 -0.000363504 0.0
-0.00520319 -0.000432788 0.0
-0.00505514 -0.00050184 0.0
-0.00488533 -0.000570527 0.0
-0.00469393 -0.000638692 0.0
-0.00448113 -0.000706145 0.0
-0.00424721 -0.000772657 0.0
-0.00399253 -0.000837954 0.0
-0.00371752 -0.00090171 0.0
-0.00342276 -0.00096354 0.0
-0.00310891 -0.00102299 0.0
-0.00277682 -0.00107952 0.0
-0.00242751 -0.00113251 0.0
-0.00206221 -0.00118122 0.0
-0.00168239 -0.0012248 0.0
-0.00128987 -0.00126192 0.0
-0.000887457 -0.0012872 0.0
-0.0004852 -0.0012569 0.0
-0.000143085 -0.000876836 0.0
0.000143085 0.000876836 0.0
0.000139989 -0.0011208 0.0
-0.000139989 0.0011208 0.0
-0.000475747 0.00160221 0.0
-0.000871568 0.00164216 0.0
-0.00126787 0.00161258 0.0
-0.00165489 0.00156871 0.0
-0.00203005 0.00151716 0.0
-0.0023917 0.00145941 0.0
-0.0027385 0.00139639 0.0
-0.00306929 0.0013289 0.0
-0.00338312 0.0012576 0.0
-0.00367915 0.00118307 0.0
-0.00395669 0.00110581 0.0
-0.00421515 0.00102623 0.0
-0.00445403 0.00094468 0.0
-0.00467289 0.000861469 0.0
-0.00487139 0.000776847 0.0
-0.00504922 0.000691027 0.0
-0.00520611 0.000604187 0.0
-0.00534185 0.000516477 0.0
-0.00545625 0.000428022 0.0
-0.00554914 0.000338928 0.0
-0.00562039 0.000249284 0.0
-0.00566987 0.000159168 0.0
-0.00569748 6.86499e-05 0.0
-0.00570314 -2.22049e-05 0.0
-0.00568677 -0.000113332 0.0
-0.00564831 -0.000204665 0.0
-0.00558773 -0.000296129 0.0
-0.005505 -0.000387641 0.0
-0.00540012 -0.000479101 0.0
-0.0052731 -0.000570394 0.0
-0.00512401 -0.000661376 0.0
-0.00495293 -0.000751877 0.0
-0.00475999 -0.000841689 0.0
-0.00454537 -0.000930564 0.0
-0.00430932 -0.0010182 0.0
-0.00405216 -0.00110425 0.0
-0.00377431 -0.00118827 0.0
-0.00347628 -0.00126977 0.0
-0.00315873 -0.00134816 0.0
-0.00282245 -0.00142272 0.0
-0.00246843 -0.00149264 0.0
-0.00209786 -0.00155696 0.0
-0.00171218 -0.00161455 0.0
-0.00131319 -0.00166369 0.0
-0.0009037 -0.00169734 0.0
-0.000493969 -0.00165875 0.0
-0.000145574 -0.0011655 0.0
0.000145574 0.0011655 0.0
0.000142879 -0.00140367 0.0
-0.000142879 0.00140367 0.0
-0.00048584 0.00199806 0.0
-0.00089017 0.00204646 0.0
-0.00129455 0.00200896 0.0
-0.001689 0.0019538 0.0
-0.00207093 0.00188916 0.0
-0.00243875 0.00181687 0.0
-0.00279113 0.0017381 0.0
-0.00312697 0.00165382 0.0
-0.00344535 0.00156487 0.0
-0.00374546 0.00147195 0.0
-0.00402666 0.00137567 0.0
-0.00428839 0.00127655 0.0
-0.00453017 0.00117502 0.0
-0.00475162 0.00107145 0.0
-0.0049524 0.000966147 0.0
-0.00513222 0.00085938 0.0
-0.00529086 0.000751364 0.0
-0.0054281 0.000642283 0.0
-0.00554378 0.000532289 0.0
-0.00563774 0.000421511 0.0
-0.00570985 0.000310058 0.0
-0.00576 0.000198024 0.0
-0.00578808 8.54943e-05 0.0
-0.00579402 -2.74521e-05 0.0
-0.00577774 -0.000140738 0.0
-0.00573917 -0.000254281 0.0
-0.00567827 -0.000367994 0.0
-0.00559501 -0.000481775 0.0
-0.00548935 -0.000595504 0.0
-0.00536132 -0.000709038 0.0
-0.00521094 -0.000822206 0.0
-0.00503827 -0.000934798 0.0
-0.00484342 -0.00104656 0.0
-0.00462653 -0.00115719 0.0
-0.00438783 -0.00126633 0.0
-0.00412758 -0.00137352 0.0
-0.00384617 -0.00147826 0.0
-0.00354406 -0.00157992 0.0
-0.00322186 -0.00167776 0.0
-0.00288033 -0.00177093 0.0
-0.00252038 -0.0018584 0.0
-0.00214317 -0.00193898 0.0
-0.00175011 -0.00201127 0.0
-0.00134295 -0.00207312 0.0
-0.000924518 -0.00211582 0.0
-0.00050532 -0.0020692 0.0
-0.000148846 -0.00145992 0.0
0.000148846 0.00145992 0.0
0.000146517 -0.00169307 0.0
-0.000146517 0.00169307 0.0
-0.000498402 0.00240351 0.0
-0.000913145 0.00246008 0.0
-0.00132738 0.00241395 0.0
-0.00173088 0.00234676 0.0
-0.00212107 0.00226832 0.0
-0.00249638 0.00218084 0.0
-0.00285555 0.00208569 0.0
-0.00319752 0.00198405 0.0
-0.00352141 0.00187691 0.0
-0.00382648 0.0017651 0.0
-0.00411211 0.00164936 0.0
-0.0043778 0.00153028 0.0
-0.00462311 0.00140838 0.0
-0.00484769 0.0012841 0.0
-0.00505123 0.00115781 0.0
-0.00523348 0.0010298 0.0
-0.00539423 0.000900332 0.0
-0.00553329 0.000769624 0.0
-0.00565052 0.00063785 0.0
-0.00574577 0.000505159 0.0
-0.00581892 0.000371677 0.0
-0.00586988 0.000237511 0.0
-0.00589855 0.000102758 0.0
-0.00590483 -3.24918e-05 0.0
-0.00588866 -0.000168152 0.0
-0.00584996 -0.00030413 0.0
-0.00578868 -0.000440326 0.0
-0.00570477 -0.000576623 0.0
-0.0055982 -0.000712885 0.0
-0.00546894 -0.000848949 0.0
-0.005317 -0.000984614 0.0
-0.00514242 -0.00111964 0.0
-0.00494526 -0.00125373 0.0
-0.00472564 -0.00138653 0.0
-0.00448372 -0.00151761 0.0
-0.00421974 -0.00164646 0.0
-0.00393402 -0.00177246 0.0
-0.00362697 -0.00189487 0.0
-0.00329914 -0.00201283 0.0
-0.00295122 -0.00212531 0.0
-0.00258407 -0.0022311 0.0
-0.0021988 -0.00232877 0.0
-0.00179674 -0.00241662 0.0
-0.00137961 -0.00249207 0.0
-0.00095025 -0.00254466 0.0
-0.00051945 -0.00249035 0.0
-0.000152961 -0.00176172 0.0
0.000152961 0.00176172 0.0
0.00015094 -0.00199052 0.0
-0.00015094 0.00199052 0.0
-0.000513554 0.00282055 0.0
-0.000940698 0.00288492 0.0
-0.00136663 0.00282927 0.0
-0.00178085 0.00274916 0.0
-0.0021808 0.00265607 0.0
-0.00256497 0.00255257 0.0
-0.00293214 0.0024403 0.0
-0.00328132 0.0023206 0.0
-0.0036117 0.00219462 0.0
-0.0039226 0.00206335 0.0
-0.00421344 0.0019276 0.0
-0.00448378 0.00178807 0.0
-0.00473323 0.00164535 0.0
-0.00496148 0.00149995 0.0
-0.00516826 0.00135227 0.0
-0.00535335 0.00120267 0.0
-0.00551657 0.00105143 0.0
-0.00565777 0.00089879 0.0
-0.00577682 0.000744951 0.0
-0.00587358 0.000590076 0.0
-0.00594797 0.000434304 0.0
-0.00599988 0.000277753 0.0
-0.00602923 0.000120526 0.0
-0.00603592 -3.72791e-05 0.0
-0.00601989 -0.000195569 0.0
-0.00598105 -0.000354247 0.0
-0.00591934 -0.000513202 0.0
-0.00583469 -0.00067231 0.0
-0.00572704 -0.000831421 0.0
-0.00559636 -0.000990355 0.0
-0.00544261 -0.00114889 0.0
-0.0052658 -0.00130675 0.0
-0.00506596 -0.00146362 0.0
-0.00484314 -0.00161908 0.0
-0.00459746 -0.00177266 0.0
-0.00432911 -0.00192375 0.0
-0.00403834 -0.00207167 0.0
-0.00372549 -0.00221556 0.0
-0.00339104 -0.00235443 0.0
-0.0030356 -0.00248708 0.0
-0.00265997 -0.0026121 0.0
-0.00226516 -0.00272785 0.0
-0.00185245 -0.00283231 0.0
-0.00142351 -0.00292245 0.0
-0.00098115 -0.00298599 0.0
-0.000536507 -0.00292446 0.0
-0.000157963 -0.00207265 0.0
0.000157963 0.00207265 0.0
0.00015619 -0.00229765 0.0
-0.00015619 0.00229765 0.0
-0.000531437 0.00325128 0.0
-0.000973066 0.00332297 0.0
-0.00141262 0.00325672 0.0
-0.00183928 0.0031626 0.0
-0.00225052 0.00305382 0.0
-0.00264491 0.00293336 0.0
-0.00302131 0.00280308 0.0
-0.00337881 0.0026645 0.0
-0.00371666 0.00251895 0.0
-0.00403424 0.00236751 0.0
-0.00433107 0.00221112 0.0
-0.00460675 0.00205056 0.0
-0.00486094 0.0018865 0.0
-0.00509339 0.00171949 0.0
-0.00530388 0.00154999 0.0
-0.00549222 0.00137839 0.0
-0.00565828 0.00120499 0.0
-0.00580192 0.00103007 0.0
-0.00592305 0.000853836 0.0
-0.00602155 0.000676464 0.0
-0.00609735 0.000498102 0.0
-0.00615036 0.000318873 0.0
-0.00618049 0.000138885 0.0
-0.00618767 -4.1765e-05 0.0
-0.00617181 -0.00022298 0.0
-0.00613282 -0.000404661 0.0
-0.00607063 -0.000586695 0.0
-0.00598514 -0.000768953 0.0
-0.00587629 -0.000951276 0.0
-0.005744 -0.00113347 0.0
-0.00558821 -0.00131531 0.0
-0.00540887 -0.00149648 0.0
-0.00520597 -0.00167664 0.0
-0.00497951 -0.00185534 0.0
-0.00472956 -0.00203203 0.0
-0.00445621 -0.00220608 0.0
-0.00415965 -0.00237668 0.0
-0.00384015 -0.0025429 0.0
-0.0034981 -0.0027036 0.0
-0.00313401 -0.00285743 0.0
-0.0027486 -0.0030028 0.0
-0.00234277 -0.00313779 0.0
-0.00191772 -0.00326012 0.0
-0.00147503 -0.00336627 0.0
-0.00101752 -0.00344205 0.0
-0.000556669 -0.0033739 0.0
-0.000163907 -0.00239452 0.0
0.000163907 0.00239452 0.0
0.000162322 -0.00261617 0.0
-0.000162322 0.00261617 0.0
-0.000552223 0.00369792 0.0
-0.00101053 0.00377627 0.0
-0.0014657 0.00369813 0.0
-0.00190658 0.00358872 0.0
-0.00233069 0.00346306 0.0
-0.0027367 0.00332452 0.0
-0.00312357 0.00317519 0.0
-0.00349048 0.00301679 0.0
-0.00383677 0.00285079 0.0
-0.00416191 0.00267839 0.0
-0.00446549 0.00250064 0.0
-0.00474717 0.0023184 0.0
-0.00500671 0.00213239 0.0
-0.00524388 0.00194323 0.0
-0.00545853 0.0017514 0.0
-0.00565053 0.00155733 0.0
-0.00581978 0.00136135 0.0
-0.00596617 0.00116375 0.0
-0.00608963 0.000964746 0.0
-0.00619009 0.000764524 0.0
-0.00626748 0.000563233 0.0
-0.00632173 0.000360998 0.0
-0.00635276 0.000157923 0.0
-0.00636049 -4.58963e-05 0.0
-0.00634484 -0.000250367 0.0
-0.0063057 -0.000455393 0.0
-0.00624299 -0.000660865 0.0
-0.00615661 -0.000866654 0.0
-0.00604643 -0.0010726 0.0
-0.00591236 -0.00127851 0.0
-0.0057543 -0.00148413 0.0
-0.00557216 -0.00168915 0.0
-0.00536585 -0.00189319 0.0
-0.00513533 -0.00209577 0.0
-0.00488058 -0.00229631 0.0
-0.00460163 -0.0024941 0.0
-0.00429857 -0.00268827 0.0
-0.00397159 -0.00287779 0.0
-0.00362095 -0.0030614 0.0
-0.00324708 -0.00323759 0.0
-0.00285056 -0.00340457 0.0
-0.0024322 -0.00356021 0.0
-0.00199307 -0.00370189 0.0
-0.00153465 -0.0038256 0.0
-0.00105971 -0.00391517 0.0
-0.000580152 -0.00384118 0.0
-0.00017086 -0.00272929 0.0
0.00017086 0.00272929 0.0
0.000169401 -0.00294789 0.0
-0.000169401 0.00294789 0.0
-0.000576116 0.00416281 0.0
-0.00105344 0.00424701 0.0
-0.00152631 0.00415543 0.0
-0.00198323 0.00402922 0.0
-0.00242184 0.00388528 0.0
-0.00284089 0.00372737 0.0
-0.00323948 0.00355781 0.0
-0.00361691 0.00337851 0.0
-0.00397261 0.00319106 0.0
-0.00430617 0.00299681 0.0
-0.00461725 0.00279688 0.0
-0.00490561 0.00259221 0.0
-0.00517106 0.00238358 0.0
-0.00541348 0.00217163 0.0
-0.00563275 0.00195691 0.0
-0.00582879 0.00173986 0.0
-0.00600156 0.00152083 0.0
-0.00615099 0.0013001 0.0
-0.00627704 0.00107791 0.0
-0.00637968 0.000854451 0.0
-0.00645884 0.000629857 0.0
-0.00651447 0.000404252 0.0
-0.0065465 0.000177733 0.0
-0.00655486 -4.96141e-05 0.0
-0.00653946 -0.000277706 0.0
-0.00650019 -0.000506455 0.0
-0.00643695 -0.000735762 0.0
-0.00634959 -0.000965505 0.0
-0.00623798 -0.00119553 0.0
-0.00610199 -0.00142564 0.0
-0.00594146 -0.00165558 0.0
-0.00575625 -0.00188505 0.0
-0.00554621 -0.00211363 0.0
-0.00531122 -0.00234083 0.0
-0.00505119 -0.00256603 0.0
-0.00476606 -0.00278847 0.0
-0.00445581 -0.00300721 0.0
-0.00412051 -0.00322114 0.0
-0.00376032 -0.00342888 0.0
-0.00337552 -0.00362877 0.0
-0.00296657 -0.00381885 0.0
-0.00253412 -0.00399673 0.0
-0.00207912 -0.0041595 0.0
-0.0016029 -0.00430263 0.0
-0.00110815 -0.00440783 0.0
-0.000607211 -0.00432902 0.0
-0.000178903 -0.00307905 0.0
0.000178903 0.00307905 0.0
0.000177503 -0.00329479 0.0
-0.000177503 0.00329479 0.0
-0.000603356 0.00464847 0.0
-0.00110215 0.00473747 0.0
-0.00159492 0.00463062 0.0
-0.00206981 0.00448584 0.0
-0.00252456 0.00432201 0.0
-0.00295811 0.00414325 0.0
-0.00336969 0.00395211 0.0
-0.00375874 0.00375068 0.0
-0.00412483 0.00354068 0.0
-0.00446765 0.00332356 0.0
-0.00478698 0.00310054 0.0
-0.00508267 0.0028726 0.0
-0.00535462 0.00264059 0.0
-0.00560277 0.00240518 0.0
-0.00582709 0.00216695 0.0
-0.00602756 0.00192634 0.0
-0.00620417 0.00168373 0.0
-0.00635693 0.00143939 0.0
-0.00648582 0.00119357 0.0
-0.00659083 0.000946437 0.0
-0.00667193 0.000698133 0.0
-0.00672909 0.000448763 0.0
-0.00676224 0.00019841 0.0
-0.00677132 -5.28535e-05 0.0
-0.00675623 -0.000304962 0.0
-0.00671685 -0.000557846 0.0
-0.00665305 -0.00081142 0.0
-0.00656467 -0.00106558 0.0
-0.00645156 -0.00132018 0.0
-0.00631351 -0.00157503 0.0
-0.00615033 -0.0018299 0.0
-0.00596181 -0.00208446 0.0
-0.00574775 -0.00233832 0.0
-0.00550792 -0.00259095 0.0
-0.00524216 -0.00284171 0.0
-0.00495027 -0.0030898 0.0
-0.00463216 -0.00333425 0.0
-0.00428773 -0.00357383 0.0
-0.00391703 -0.00380708 0.0
-0.00352017 -0.00403222 0.0
-0.00309744 -0.00424708 0.0
-0.00264933 -0.00444906 0.0
-0.0021766 -0.00463491 0.0
-0.00168041 -0.00479962 0.0
-0.00116333 -0.00492267 0.0
-0.000638146 -0.0048403 0.0
-0.000188133 -0.00344609 0.0
0.000188133 0.00344609 0.0
0.000186722 -0.00365902 0.0
-0.000186722 0.00365902 0.0
-0.000634222 0.0051576 0.0
-0.00115714 0.00525005 0.0
-0.00167211 0.00512578 0.0
-0.00216694 0.0049604 0.0
-0.00263955 0.00477481 0.0
-0.00308907 0.00457352 0.0
-0.00351493 0.00435928 0.0
-0.00391672 0.00413434 0.0
-0.00429416 0.00390055 0.0
-0.00464708 0.00365944 0.0
-0.00497539 0.0034123 0.0
-0.00527904 0.00316018 0.0
-0.00555804 0.00290396 0.0
-0.00581241 0.00264434 0.0
-0.0060422 0.00238191 0.0
-0.00624746 0.00211712 0.0
-0.00642824 0.00185035 0.0
-0.0065846 0.00158188 0.0
-0.00671656 0.00131193 0.0
-0.00682415 0.00104067 0.0
-0.00690736 0.000768218 0.0
-0.00696619 0.000494659 0.0
-0.00700058 0.000220056 0.0
-0.00701046 -5.55429e-05 0.0
-0.00699573 -0.000332094 0.0
-0.00695627 -0.000609553 0.0
-0.00689192 -0.000887858 0.0
-0.00680251 -0.00116693 0.0
-0.00668782 -0.00144664 0.0
-0.00654761 -0.00172683 0.0
-0.00638163 -0.00200726 0.0
-0.00618961 -0.00228764 0.0
-0.00597124 -0.00256757 0.0
-0.00572624 -0.00284652 0.0
-0.0054543 -0.00312384 0.0
-0.00515515 -0.00339871 0.0
-0.00482851 -0.0036701 0.0
-0.00447418 -0.00393673 0.0
-0.00409201 -0.00419706 0.0
-0.00368195 -0.00444917 0.0
-0.00324409 -0.00469073 0.0
-0.0027787 -0.00491891 0.0
-0.00228632 -0.00513018 0.0
-0.00176789 -0.00531898 0.0
-0.0012258 -0.00546248 0.0
-0.000673309 -0.00537816 0.0
-0.000198663 -0.00383288 0.0
0.000198663 0.00383288 0.0
0.000197162 -0.0040429 0.0
-0.000197162 0.0040429 0.0
-0.000669036 0.00569309 0.0
-0.00121888 0.00578732 0.0
-0.0017585 0.00564309 0.0
-0.00227534 0.00545476 0.0
-0.00276757 0.00524529 0.0
-0.00323458 0.00501956 0.0
-0.00367601 0.00478052 0.0
-0.00409164 0.00453053 0.0
-0.0044814 0.00427155 0.0
-0.00484526 0.00400521 0.0
-0.00518326 0.00373284 0.0
-0.00549549 0.00345553 0.0
-0.00578207 0.00317419 0.0
-0.00604313 0.00288954 0.0
-0.00627879 0.00260216 0.0
-0.00648918 0.00231252 0.0
-0.00667444 0.00202098 0.0
-0.00683465 0.00172781 0.0
-0.00696991 0.00143322 0.0
-0.00708027 0.00113734 0.0
-0.00716577 0.000840267 0.0
-0.0072264 0.000542067 0.0
-0.00726214 0.000242772 0.0
-0.00727292 -5.76031e-05 0.0
-0.00725863 -0.000359047 0.0
-0.00721914 -0.000661548 0.0
-0.00715427 -0.000965077 0.0
-0.00706381 -0.00126958 0.0
-0.0069475 -0.00157498 0.0
-0.00680506 -0.00188113 0.0
-0.00663616 -0.00218783 0.0
-0.00644046 -0.00249481 0.0
-0.00621756 -0.00280167 0.0
-0.00596707 -0.00310791 0.0
-0.00568858 -0.00341288 0.0
-0.00538165 -0.00371575 0.0
-0.00504588 -0.00401546 0.0
-0.00468089 -0.0043107 0.0
-0.00428632 -0.00459983 0.0
-0.00386193 -0.00488085 0.0
-0.00340756 -0.00515128 0.0
-0.00292324 -0.00540807 0.0
-0.00240922 -0.00564742 0.0
-0.00186616 -0.00586323 0.0
-0.00129622 -0.00603025 0.0
-0.000713106 -0.005946 0.0
-0.000210626 -0.00424217 0.0
0.000210626 0.00424217 0.0
0.00020895 -0.00444901 0.0
-0.00020895 0.00444901 0.0
-0.000708167 0.00625807 0.0
-0.00128797 0.006352 0.0
-0.0018548 0.00618486 0.0
-0.00239582 0.00597085 0.0
-0.00290949 0.0057351 0.0
-0.00339552 0.00548279 0.0
-0.00385383 0.00521702 0.0
-0.00428444 0.00494028 0.0
-0.00468746 0.00465459 0.0
-0.00506306 0.00436164 0.0
-0.00541146 0.0040628 0.0
-0.00573287 0.00375921 0.0
-0.00602755 0.00345176 0.0
-0.00629572 0.00314119 0.0
-0.00653764 0.00282808 0.0
-0.0067535 0.00251287 0.0
-0.0069435 0.0021959 0.0
-0.00710782 0.00187743 0.0
-0.00724659 0.00155763 0.0
-0.00735991 0.00123661 0.0
-0.00744785 0.00091443 0.0
-0.00751043 0.000591119 0.0
-0.00754764 0.000266668 0.0
-0.00755941 -5.89463e-05 0.0
-0.00754565 -0.000385755 0.0
-0.00750619 -0.000713786 0.0
-0.00744084 -0.00104306 0.0
-0.00734935 -0.00137356 0.0
-0.00723141 -0.00170525 0.0
-0.00708669 -0.00203803 0.0
-0.00691479 -0.00237174 0.0
-0.00671527 -0.00270613 0.0
-0.00648765 -0.00304086 0.0
-0.00623141 -0.00337544 0.0
-0.00594601 -0.00370925 0.0
-0.00563086 -0.00404145 0.0
-0.00528538 -0.004371 0.0
-0.00490899 -0.00469654 0.0
-0.00450112 -0.00501641 0.0
-0.00406127 -0.00532851 0.0
-0.00358902 -0.00563024 0.0
-0.00308407 -0.00591838 0.0
-0.00254635 -0.00618885 0.0
-0.00197615 -0.00643505 0.0
-0.00137533 -0.00662919 0.0
-0.000758002 -0.0065475 0.0
-0.000224178 -0.00467697 0.0
0.000224178 0.00467697 0.0
0.000222227 -0.00488019 0.0
-0.000222227 0.00488019 0.0
-0.000752036 0.00685592 0.0
-0.00136505 0.00694697 0.0
-0.00196183 0.00675348 0.0
-0.00252928 0.0065107 0.0
-0.00306627 0.00624592 0.0
-0.0035729 0.00596462 0.0
-0.0040494 0.00567 0.0
-0.00449609 0.0053646 0.0
-0.00491332 0.00505052 0.0
-0.00530147 0.00472946 0.0
-0.00566093 0.00440284 0.0
-0.0059921 0.00407176 0.0
-0.00629536 0.00373714 0.0
-0.00657108 0.0033997 0.0
-0.00681959 0.00305999 0.0
-0.00704122 0.00271844 0.0
-0.00723624 0.00237535 0.0
-0.00740489 0.00203095 0.0
-0.00754737 0.00168536 0.0
-0.00766382 0.00133865 0.0
-0.00775436 0.000990857 0.0
-0.00781903 0.000641943 0.0
-0.00785783 0.000291856 0.0
-0.00787071 -5.94755e-05 0.0
-0.00785757 -0.000412135 0.0
-0.00781822 -0.000766206 0.0
-0.00775246 -0.00112176 0.0
-0.00765998 -0.00147883 0.0
-0.00754044 -0.00183745 0.0
-0.00739342 -0.00219756 0.0
-0.00721847 -0.00255906 0.0
-0.00701505 -0.00292175 0.0
-0.00678256 -0.00328534 0.0
-0.00652036 -0.0036494 0.0
-0.00622774 -0.00401332 0.0
-0.00590397 -0.00437631 0.0
-0.00554824 -0.00473734 0.0
-0.00515977 -0.00509507 0.0
-0.00473772 -0.0054478 0.0
-0.0042813 -0.00579339 0.0
-0.00378977 -0.00612915 0.0
-0.00326246 -0.00645172 0.0
-0.0026989 -0.0067568 0.0
-0.00209892 -0.00703729 0.0
-0.00146395 -0.00726275 0.0
-0.000808533 -0.00718669 0.0
-0.000239497 -0.00514065 0.0
0.000239497 0.00514065 0.0
0.00023716 -0.00533958 0.0
-0.00023716 0.00533958 0.0
-0.000801121 0.0074903 0.0
-0.00145085 0.00757534 0.0
-0.00208046 0.00735149 0.0
-0.00267671 0.00707638 0.0
-0.00323897 0.0067795 0.0
-0.0037678 0.00646651 0.0
-0.00426383 0.00614065 0.0
-0.00472771 0.00580451 0.0
-0.00516008 0.00546019 0.0
-0.00556154 0.0051094 0.0
-0.00593272 0.00475354 0.0
-0.00627419 0.0043937 0.0
-0.00658649 0.00403077 0.0
-0.00687013 0.00366544 0.0
-0.00712558 0.00329823 0.0
-0.00735326 0.00292952 0.0
-0.00755354 0.00255957 0.0
-0.00772673 0.00218857 0.0
-0.0078731 0.00181658 0.0
-0.00799285 0.00144363 0.0
-0.00808613 0.00106969 0.0
-0.00815302 0.000694669 0.0
-0.00819354 0.000318455 0.0
-0.00820765 -5.90836e-05 0.0
-0.00819523 -0.000438094 0.0
-0.0081561 -0.000818723 0.0
-0.00809 -0.00120111 0.0
-0.00799661 -0.00158536 0.0
-0.00787552 -0.00197156 0.0
-0.00772625 -0.00235973 0.0
-0.00754825 -0.00274984 0.0
-0.00734088 -0.00314176 0.0
-0.00710343 -0.00353527 0.0
-0.0068351 -0.00393 0.0
-0.00653503 -0.0043254 0.0
-0.00620227 -0.00472076 0.0
-0.00583583 -0.00511507 0.0
-0.00543462 -0.00550703 0.0
-0.00499755 -0.00589496 0.0
-0.00452347 -0.00627672 0.0
-0.00401126 -0.00664957 0.0
-0.00345982 -0.00701005 0.0
-0.00286818 -0.00735368 0.0
-0.00223562 -0.00767294 0.0
-0.00156304 -0.00793464 0.0
-0.000865309 -0.00786795 0.0
-0.000256791 -0.00563694 0.0
0.000256791 0.00563694 0.0
0.000253938 -0.00583068 0.0
-0.000253938 0.00583068 0.0
-0.000855964 0.00816519 0.0
-0.00154618 0.0082404 0.0
-0.0022117 0.00798157 0.0
-0.00283922 0.00767008 0.0
-0.00342876 0.0073376 0.0
-0.00398143 0.0069899 0.0
-0.00449834 0.0066302 0.0
-0.00498052 0.00626102 0.0
-0.00542892 0.00588445 0.0
-0.00584445 0.00550215 0.0
-0.00622797 0.00511548 0.0
-0.00658024 0.0047255 0.0
-0.00690201 0.00433304 0.0
-0.00719393 0.00393874 0.0
-0.00745661 0.00354306 0.0
-0.00769059 0.00314634 0.0
-0.00789633 0.00274877 0.0
-0.00807425 0.00235048 0.0
-0.00822468 0.00195147 0.0
-0.00834788 0.0015517 0.0
-0.00844404 0.00115107 0.0
-0.00851329 0.000749427 0.0
-0.00855566 0.000346589 0.0
-0.00857111 -5.76524e-05 0.0
-0.00855954 -0.000463518 0.0
-0.00852074 -0.000871232 0.0
-0.00845443 -0.00128101 0.0
-0.00836023 -0.00169305 0.0
-0.00823768 -0.0021075 0.0
-0.00808623 -0.0025245 0.0
-0.00790524 -0.00294407 0.0
-0.00769394 -0.0033662 0.0
-0.00745149 -0.00379074 0.0
-0.00717694 -0.00421741 0.0
-0.00686924 -0.00464577 0.0
-0.00652722 -0.00507517 0.0
-0.00614963 -0.00550469 0.0
-0.0057351 -0.00593313 0.0
-0.0052822 -0.00635884 0.0
-0.00478939 -0.00677973 0.0
-0.0042551 -0.00719306 0.0
-0.00367772 -0.00759537 0.0
-0.00305567 -0.00798205 0.0
-0.00238758 -0.00834522 0.0
-0.00167366 -0.00864885 0.0
-0.000929023 -0.00859611 0.0
-0.000276298 -0.00617003 0.0
0.000276298 0.00617003 0.0
0.000272776 -0.00635739 0.0
-0.000272776 0.00635739 0.0
-0.000917175 0.00888491 0.0
-0.00165194 0.00894566 0.0
-0.00235664 0.00864652 0.0
-0.00301804 0.00829405 0.0
-0.00363694 0.00792207 0.0
-0.00421513 0.0075363 0.0
-0.00475426 0.00713984 0.0
-0.00525582 0.00673511 0.0
-0.00572115 0.00632409 0.0
-0.00615147 0.00590836 0.0
-0.0065479 0.00548921 0.0
-0.00691146 0.0050676 0.0
-0.00724307 0.00464431 0.0
-0.00754359 0.0042199 0.0
-0.00781376 0.00379475 0.0
-0.00805425 0.00336912 0.0
-0.00826565 0.00294314 0.0
-0.00844845 0.00251684 0.0
-0.00860308 0.00209016 0.0
-0.00872986 0.00166299 0.0
-0.00882904 0.00123512 0.0
-0.00890077 0.000806348 0.0
-0.00894512 0.000376387 0.0
-0.00896206 -5.50514e-05 0.0
-0.00895147 -0.000488276 0.0
-0.00891315 -0.000923602 0.0
-0.00884676 -0.00136134 0.0
-0.0087519 -0.00180178 0.0
-0.00862804 -0.00224518 0.0
-0.00847454 -0.00269177 0.0
-0.00829065 -0.00314169 0.0
-0.0080755 -0.00359503 0.0
-0.0078281 -0.00405176 0.0
-0.0075473 -0.00451173 0.0
-0.00723186 -0.0049746 0.0
-0.00688037 -0.00543985 0.0
-0.00649128 -0.00590669 0.0
-0.00606291 -0.00637402 0.0
-0.00559343 -0.00684033 0.0
-0.00508085 -0.00730362 0.0
-0.00452308 -0.00776124 0.0
-0.0039179 -0.00820975 0.0
-0.00326303 -0.00864458 0.0
-0.00255627 -0.00905754 0.0
-0.001797 -0.00940973 0.0
-0.00100046 -0.00937641 0.0
-0.000298292 -0.00674462 0.0
0.000298292 0.00674462 0.0
0.000293923 -0.00692409 0.0
-0.000293923 0.00692409 0.0
-0.000985441 0.00965412 0.0
-0.00176914 0.0096949 0.0
-0.00251648 0.00934933 0.0
-0.0032145 0.00895066 0.0
-0.00386491 0.00853477 0.0
-0.00447033 0.00810721 0.0
-0.00503305 0.00767079 0.0
-0.00555508 0.00722775 0.0
-0.00603819 0.00677989 0.0
-0.00648398 0.00632867 0.0
-0.00689387 0.00587522 0.0
-0.00726914 0.00542042 0.0
-0.00761094 0.00496492 0.0
-0.00792032 0.00450918 0.0
-0.0081982 0.0040535 0.0
-0.00844538 0.00359804 0.0
-0.00866258 0.00314282 0.0
-0.0088504 0.00268778 0.0
-0.00900935 0.00223279 0.0
-0.00913983 0.00177762 0.0
-0.00924214 0.00132198 0.0
-0.00931648 0.000865559 0.0
-0.00936293 0.000407984 0.0
-0.0093815 -5.11373e-05 0.0
-0.00937206 -0.000512216 0.0
-0.00933438 -0.000975673 0.0
-0.0092681 -0.00144193 0.0
-0.00917277 -0.00191138 0.0
-0.00904778 -0.00238442 0.0
-0.00889242 -0.00286139 0.0
-0.00870581 -0.00334256 0.0
-0.00848696 -0.00382816 0.0
-0.00823471 -0.0043183 0.0
-0.00794773 -0.00481297 0.0
-0.00762452 -0.005312 0.0
-0.00726343 -0.00581503 0.0
-0.00686258 -0.00632144 0.0
-0.00641992 -0.00683031 0.0
-0.00593316 -0.0073403 0.0
-0.00539981 -0.00784958 0.0
-0.00481716 -0.00835569 0.0
-0.00418229 -0.00885535 0.0
-0.00349206 -0.00934408 0.0
-0.00274331 -0.00981354 0.0
-0.00193439 -0.0102219 0.0
-0.00108051 -0.0102146 0.0
-0.000323085 -0.00736599 0.0
0.000323085 0.00736599 0.0
0.000317659 -0.00753567 0.0
-0.000317659 0.00753567 0.0
-0.00106153 0.0104779 0.0
-0.00189888 0.0104921 0.0
-0.00269257 0.0100931 0.0
-0.00343006 0.00964237 0.0
-0.00411423 0.00917765 0.0
-0.00474862 0.00870414 0.0
-0.00533629 0.00822425 0.0
-0.00587986 0.00773988 0.0
-0.00638159 0.0072526 0.0
-0.00684349 0.00676364 0.0
-0.00726733 0.00627397 0.0
-0.00765469 0.0057843 0.0
-0.00800697 0.00529514 0.0
-0.00832543 0.00480681 0.0
-0.00861118 0.0043195 0.0
-0.00886519 0.00383323 0.0
-0.0090883 0.00334793 0.0
-0.00928124 0.00286343 0.0
-0.0094446 0.00237946 0.0
-0.00957887 0.0018957 0.0
-0.00968442 0.00141175 0.0
-0.00976148 0.000927186 0.0
-0.00981018 0.000441521 0.0
-0.00983054 -4.57524e-05 0.0
-0.00982241 -0.000535163 0.0
-0.00978557 -0.00102725 0.0
-0.00971962 -0.00152257 0.0
-0.00962404 -0.00202165 0.0
-0.00949818 -0.00252501 0.0
-0.0093412 -0.00303314 0.0
-0.00915212 -0.00354648 0.0
-0.00892981 -0.00406541 0.0
-0.0086729 -0.00459021 0.0
-0.00837989 -0.00512106 0.0
-0.008049 -0.00565799 0.0
-0.00767828 -0.00620085 0.0
-0.0072655 -0.00674925 0.0
-0.00680816 -0.0073025 0.0
-0.0063035 -0.00785953 0.0
-0.00574842 -0.00841877 0.0
-0.00513951 -0.00897806 0.0
-0.004473 -0.00953437 0.0
-0.00374478 -0.0100835 0.0
-0.00295052 -0.0106171 0.0
-0.00208731 -0.0110905 0.0
-0.00117018 -0.0111171 0.0
-0.000351035 -0.00804011 0.0
0.000351035 0.00804011 0.0
0.000344304 -0.00819763 0.0
-0.000344304 0.00819763 0.0
-0.0011463 0.0113618 0.0
-0.0020424 0.0113417 0.0
-0.00288635 0.0108812 0.0
-0.00366634 0.0103717 0.0
-0.00438658 0.00985269 0.0
-0.00505174 0.00932864 0.0
-0.00566573 0.00880141 0.0
-0.00623187 0.00827243 0.0
-0.00675301 0.00774292 0.0
-0.00723162 0.00721383 0.0
-0.00766985 0.00668586 0.0
-0.00806963 0.00615954 0.0
-0.00843262 0.00563518 0.0
-0.00876034 0.00511294 0.0
-0.00905407 0.00459285 0.0
-0.00931499 0.0040748 0.0
-0.00954408 0.00355856 0.0
-0.00974218 0.00304384 0.0
-0.00991002 0.00253025 0.0
-0.0100482 0.00201732 0.0
-0.010157 0.00150454 0.0
-0.0102369 0.000991354 0.0
-0.010288 0.000477145 0.0
-0.0103103 -3.87239e-05 0.0
-0.0103037 -0.000556918 0.0
-0.0102679 -0.00107812 0.0
-0.0102026 -0.00160302 0.0
-0.010107 -0.00213231 0.0
-0.00998058 -0.00266666 0.0
-0.00982231 -0.00320674 0.0
-0.0096311 -0.00375317 0.0
-0.00940564 -0.00430651 0.0
-0.00914439 -0.00486726 0.0
-0.00884559 -0.00543583 0.0
-0.00850721 -0.00601249 0.0
-0.00812694 -0.00659735 0.0
-0.00770215 -0.00719032 0.0
-0.00722988 -0.00779103 0.0
-0.00670678 -0.00839876 0.0
-0.00612906 -0.00901233 0.0
-0.00549251 -0.00962996 0.0
-0.00479238 -0.0102491 0.0
-0.0040234 -0.010866 0.0
-0.00317988 -0.0114724 0.0
-0.00225741 -0.0120208 0.0
-0.00127058 -0.0120907 0.0
-0.00038255 -0.0087737 0.0
0.00038255 0.0087737 0.0
0.000374218 -0.00891616 0.0
-0.000374218 0.00891616 0.0
-0.00124071 0.0123118 0.0
-0.00220101 0.0122481 0.0
-0.0030994 0.0117171 0.0
-0.00392506 0.0111415 0.0
-0.00468379 0.010562 0.0
-0.00538153 0.00998228 0.0
-0.00602323 0.00940345 0.0
-0.00661298 0.00882629 0.0
-0.00715429 0.00825152 0.0
-0.00765014 0.0076797 0.0
-0.00810316 0.00711124 0.0
-0.00851561 0.00654638 0.0
-0.00888948 0.00598521 0.0
-0.00922654 0.00542768 0.0
-0.00952833 0.00487363 0.0
-0.00979618 0.00432278 0.0
-0.0100313 0.00377474 0.0
-0.0102345 0.00322906 0.0
-0.0104069 0.0026852 0.0
-0.0105489 0.00214254 0.0
-0.0106612 0.00160044 0.0
-0.010744 0.00105818 0.0
-0.0107976 0.000515011 0.0
-0.010822 -2.98623e-05 0.0
-0.0108172 -0.000577255 0.0
-0.0107827 -0.00112801 0.0
-0.0107182 -0.00168298 0.0
-0.0106231 -0.00224303 0.0
-0.0104965 -0.00280902 0.0
-0.0103373 -0.00338181 0.0
-0.0101444 -0.00396223 0.0
-0.00991619 -0.00455108 0.0
-0.00965101 -0.00514911 0.0
-0.00934681 -0.00575698 0.0
-0.00900124 -0.00637528 0.0
-0.00861163 -0.00700444 0.0
-0.00817489 -0.00764475 0.0
-0.00768752 -0.00829625 0.0
-0.00714552 -0.00895866 0.0
-0.00654432 -0.00963134 0.0
-0.00587877 -0.0103131 0.0
-0.00514298 -0.0110019 0.0
-0.00433035 -0.0116948 0.0
-0.00343358 -0.0123839 0.0
-0.0024465 -0.0130189 0.0
-0.00138299 -0.013143 0.0
-0.000418095 -0.00957434 0.0
0.000418095 0.00957434 0.0
0.000407812 -0.00969819 0.0
-0.000407812 0.00969819 0.0
-0.00134582 0.0133343 0.0
-0.0023762 0.0132163 0.0
-0.00333344 0.0126046 0.0
-0.0042081 0.0119543 0.0
-0.00500783 0.0113075 0.0
-0.00574004 0.0106666 0.0
-0.00641082 0.0100316 0.0
-0.00702519 0.00940231 0.0
-0.00758738 0.00877899 0.0
-0.00810098 0.00816168 0.0
-0.00856909 0.00755038 0.0
-0.0089944 0.00694499 0.0
-0.00937925 0.00634532 0.0
-0.00972569 0.00575107 0.0
-0.0100355 0.00516185 0.0
-0.0103103 0.00457717 0.0
-0.0105513 0.00399646 0.0
-0.0107597 0.00341908 0.0
-0.0109365 0.00284432 0.0
-0.0110825 0.00227141 0.0
-0.0111982 0.00169952 0.0
-0.011284 0.00112779 0.0
-0.0113403 0.000555277 0.0
-0.011367 -1.89608e-05 0.0
-0.0113641 -0.000595918 0.0
-0.0113313 -0.00117661 0.0
-0.0112681 -0.00176209 0.0
-0.0111737 -0.00235341 0.0
-0.0110474 -0.00295165 0.0
-0.0108878 -0.00355789 0.0
-0.0106937 -0.0041732 0.0
-0.0104633 -0.00479866 0.0
-0.0101948 -0.00543529 0.0
-0.00988566 -0.0060841 0.0
-0.00953336 -0.00674602 0.0
-0.00913475 -0.00742192 0.0
-0.00868625 -0.00811251 0.0
-0.00818375 -0.00881836 0.0
-0.00762249 -0.00953981 0.0
-0.00699704 -0.0102768 0.0
-0.00630113 -0.011029 0.0
-0.00552761 -0.0117953 0.0
-0.00466828 -0.0125734 0.0
-0.00371403 -0.0133563 0.0
-0.00265659 -0.014091 0.0
-0.0015088 -0.0142822 0.0
-0.000458197 -0.0104506 0.0
0.000458197 0.0104506 0.0
0.000445547 -0.0105515 0.0
-0.000445547 0.0105515 0.0
-0.00146281 0.0144362 0.0
-0.00256953 0.0142515 0.0
-0.00359032 0.0135474 0.0
-0.00451749 0.0128133 0.0
-0.00536084 0.0120917 0.0
-0.00612945 0.0113833 0.0
-0.00683071 0.0106869 0.0
-0.00747068 0.0100013 0.0
-0.00805441 0.00932591 0.0
-0.00858619 0.00866014 0.0
-0.00906964 0.00800349 0.0
-0.00950793 0.00735547 0.0
-0.00990377 0.00671553 0.0
-0.0102595 0.00608307 0.0
-0.0105773 0.00545743 0.0
-0.0108588 0.00483788 0.0
-0.0111057 0.00422363 0.0
-0.0113192 0.00361384 0.0
-0.0115004 0.00300759 0.0
-0.0116502 0.00240393 0.0
-0.0117694 0.00180185 0.0
-0.0118583 0.00120027 0.0
-0.0119174 0.000598108 0.0
-0.0119467 -5.79331e-06 0.0
-0.011946 -0.000612617 0.0
-0.0119152 -0.00122358 0.0
-0.0118536 -0.00183995 0.0
-0.0117605 -0.00246299 0.0
-0.0116349 -0.00309403 0.0
-0.0114756 -0.00373441 0.0
-0.0112809 -0.00438547 0.0
-0.0110491 -0.00504861 0.0
-0.0107778 -0.00572519 0.0
-0.0104644 -0.00641661 0.0
-0.010106 -0.00712424 0.0
-0.00969891 -0.00784941 0.0
-0.009239 -0.00859343 0.0
-0.00872146 -0.00935749 0.0
-0.00814072 -0.0101427 0.0
-0.0074903 -0.0109498 0.0
-0.00676271 -0.0117795 0.0
-0.00594931 -0.0126317 0.0
-0.0050401 -0.0135054 0.0
-0.00402385 -0.0143948 0.0
-0.00288987 -0.015244 0.0
-0.0016496 -0.0155173 0.0
-0.000503456 -0.0114123 0.0
0.000503456 0.0114123 0.0
0.000487945 -0.011485 0.0
-0.000487945 0.011485 0.0
-0.00159298 0.015625 0.0
-0.00278273 0.0153591 0.0
-0.00387202 0.0145499 0.0
-0.00485541 0.0137214 0.0
-0.00574511 0.0129166 0.0
-0.0065521 0.012134 0.0
-0.00728525 0.0113706 0.0
-0.00795179 0.0106241 0.0
-0.0085577 0.00989278 0.0
-0.00910801 0.00917535 0.0
-0.00960698 0.00847071 0.0
-0.0100583 0.00777783 0.0
-0.010465 0.00709577 0.0
-0.01083 0.00642356 0.0
-0.0111555 0.00576022 0.0
-0.0114436 0.00510476 0.0
-0.0116961 0.00445612 0.0
-0.0119145 0.00381322 0.0
-0.0121 0.00317493 0.0
-0.0122537 0.00254008 0.0
-0.0123763 0.00190744 0.0
-0.0124684 0.00127574 0.0
-0.0125304 0.000643675 0.0
-0.0125624 9.88629e-06 0.0
-0.0125643 -0.000627027 0.0
-0.0125358 -0.00126851 0.0
-0.0124763 -0.00191606 0.0
-0.0123851 -0.0025712 0.0
-0.0122609 -0.00323553 0.0
-0.0121025 -0.00391067 0.0
-0.0119081 -0.00459831 0.0
-0.0116755 -0.00530018 0.0
-0.0114024 -0.00601806 0.0
-0.0110856 -0.00675379 0.0
-0.0107219 -0.00750926 0.0
-0.010307 -0.00828639 0.0
-0.00983614 -0.00908718 0.0
-0.00930383 -0.0099136 0.0
-0.00870347 -0.0107677 0.0
-0.00802747 -0.0116513 0.0
-0.00726689 -0.0125662 0.0
-0.0064114 -0.0135139 0.0
-0.00544895 -0.0144949 0.0
-0.00436587 -0.0155047 0.0
-0.00314875 -0.0164852 0.0
-0.00180712 -0.016858 0.0
-0.00055455 -0.0124703 0.0
0.00055455 0.0124703 0.0
0.000535592 -0.0125086 0.0
-0.000535592 0.0125086 0.0
-0.00173777 0.0169087 0.0
-0.00301766 0.0165451 0.0
-0.00418068 0.0156162 0.0
-0.00522416 0.014682 0.0
-0.00616308 0.0137847 0.0
-0.00701051 0.0129204 0.0
-0.00777699 0.0120839 0.0
-0.00847105 0.0112714 0.0
-0.00909971 0.01048 0.0
-0.00966885 0.00970754 0.0
-0.0101834 0.00895206 0.0
-0.0106476 0.00821199 0.0
-0.0110651 0.00748587 0.0
-0.011439 0.00677232 0.0
-0.0117721 0.00607 0.0
-0.0120665 0.00537757 0.0
-0.0123244 0.00469371 0.0
-0.0125475 0.00401705 0.0
-0.0127371 0.00334622 0.0
-0.0128944 0.00267979 0.0
-0.0130204 0.00201631 0.0
-0.0131157 0.00135428 0.0
-0.0131807 0.000692153 0.0
-0.0132157 2.83459e-05 0.0
-0.0132205 -0.000638786 0.0
-0.0131948 -0.00131094 0.0
-0.013138 -0.00198987 0.0
-0.0130492 -0.0026774 0.0
-0.0129273 -0.00337541 0.0
-0.0127706 -0.00408588 0.0
-0.0125773 -0.00481084 0.0
-0.0123451 -0.00555245 0.0
-0.0120711 -0.00631296 0.0
-0.011752 -0.00709472 0.0
-0.0113838 -0.00790024 0.0
-0.010962 -0.00873216 0.0
-0.010481 -0.00959326 0.0
-0.00993428 -0.0104865 0.0
-0.00931434 -0.011415 0.0
-0.0086122 -0.0123821 0.0
-0.00781734 -0.0133909 0.0
-0.00691746 -0.0144446 0.0
-0.00589822 -0.0155459 0.0
-0.00474318 -0.0166918 0.0
-0.00343583 -0.0178225 0.0
-0.00198331 -0.0183148 0.0
-0.000612248 -0.0136371 0.0
0.000612248 0.0136371 0.0
0.000589152 -0.0136333 0.0
-0.000589152 0.0136333 0.0
-0.00189874 0.0182957 0.0
-0.0032763 0.0178156 0.0
-0.00451855 0.016751 0.0
-0.00562624 0.0156983 0.0
-0.00661736 0.0146984 0.0
-0.00750738 0.0137441 0.0
-0.00830865 0.0128279 0.0
-0.00903117 0.011944 0.0
-0.00968312 0.0110881 0.0
-0.0102713 0.0102568 0.0
-0.0108015 0.0094475 0.0
-0.0112785 0.00865776 0.0
-0.0117065 0.00788557 0.0
-0.012089 0.00712904 0.0
-0.0124291 0.00638642 0.0
-0.0127295 0.00565599 0.0
-0.0129924 0.0049361 0.0
-0.0132198 0.00422508 0.0
-0.0134132 0.00352126 0.0
-0.0135741 0.00282295 0.0
-0.0137034 0.00212843 0.0
-0.0138019 0.00143595 0.0
-0.0138701 0.00074372 0.0
-0.0139082 4.98768e-05 0.0
-0.0139163 -0.000647485 0.0
-0.0138939 -0.00135034 0.0
-0.0138404 -0.00206074 0.0
-0.0137548 -0.00278082 0.0
-0.013636 -0.00351281 0.0
-0.0134821 -0.00425905 0.0
-0.013291 -0.00502202 0.0
-0.0130602 -0.00580432 0.0
-0.0127866 -0.00660875 0.0
-0.0124663 -0.00743828 0.0
-0.012095 -0.00829613 0.0
-0.0116673 -0.00918578 0.0
-0.011177 -0.010111 0.0
-0.0106166 -0.0110759 0.0
-0.00997719 -0.012085 0.0
-0.00924845 -0.013143 0.0
-0.00841801 -0.0142552 0.0
-0.00747137 -0.0154268 0.0
-0.00639157 -0.0166627 0.0
-0.0051591 -0.0179625 0.0
-0.00375395 -0.0192644 0.0
-0.00218031 -0.0198991 0.0
-0.000677417 -0.0149268 0.0
0.000677417 0.0149268 0.0
0.000649368 -0.0148718 0.0
-0.000649368 0.0148718 0.0
-0.00207764 0.019795 0.0
-0.00356078 0.0191769 0.0
-0.00488804 0.0179592 0.0
-0.00606423 0.016774 0.0
-0.00711072 0.0156603 0.0
-0.00804556 0.0146071 0.0
-0.00888314 0.0136038 0.0
-0.00963506 0.0126425 0.0
-0.0103108 0.0117172 0.0
-0.0109182 0.0108233 0.0
-0.0114639 0.00995689 0.0
-0.0119534 0.00911486 0.0
-0.0123915 0.00829447 0.0
-0.0127821 0.00749328 0.0
-0.0131288 0.00670903 0.0
-0.0134347 0.00593958 0.0
-0.0137021 0.00518289 0.0
-0.0139334 0.00443696 0.0
-0.0141304 0.00369978 0.0
-0.0142945 0.00296938 0.0
-0.0144269 0.00224374 0.0
-0.0145286 0.00152083 0.0
-0.0146001 0.000798559 0.0
-0.0146417 7.47949e-05 0.0
-0.0146534 -0.000652669 0.0
-0.0146349 -0.00138612 0.0
-0.0145854 -0.00212793 0.0
-0.014504 -0.00288058 0.0
-0.0143892 -0.00364671 0.0
-0.0142391 -0.00442907 0.0
-0.0140516 -0.0052306 0.0
-0.0138237 -0.00605447 0.0
-0.0135518 -0.00690408 0.0
-0.0132319 -0.00778312 0.0
-0.0128589 -0.00869565 0.0
-0.0124267 -0.00964613 0.0
-0.0119281 -0.0106395 0.0
-0.0113547 -0.0116813 0.0
-0.0106962 -0.0127775 0.0
-0.00994048 -0.013935 0.0
-0.00907316 -0.015161 0.0
-0.00807726 -0.0164635 0.0
-0.00693291 -0.0178502 0.0
-0.00561718 -0.0193232 0.0
-0.00410617 -0.0208198 0.0
-0.0024005 -0.021623 0.0
-0.000751037 -0.0163552 0.0
0.000751037 0.0163552 0.0
0.000717078 -0.0162383 0.0
-0.000717078 0.0162383 0.0
-0.00227637 0.0214162 0.0
-0.00387337 0.0206359 0.0
-0.00529167 0.0192457 0.0
-0.00654088 0.0179129 0.0
-0.00764607 0.0166731 0.0
-0.00862809 0.0155111 0.0
-0.00950356 0.0144128 0.0
-0.0102858 0.0133677 0.0
-0.0109859 0.0123678 0.0
-0.0116126 0.0114069 0.0
-0.0121736 0.01048 0.0
-0.0126753 0.00958288 0.0
-0.0131229 0.00871209 0.0
-0.013521 0.00786449 0.0
-0.0138737 0.00703726 0.0
-0.0141844 0.00622779 0.0
-0.0144558 0.00543358 0.0
-0.0146905 0.00465225 0.0
-0.0148905 0.00388145 0.0
-0.0150575 0.00311886 0.0
-0.0151929 0.00236214 0.0
-0.0152978 0.00160893 0.0
-0.0153727 0.000856854 0.0
-0.015418 0.000103443 0.0
-0.0154338 -0.000653832 0.0
-0.0154197 -0.00141759 0.0
-0.015375 -0.00219059 0.0
-0.0152987 -0.00297569 0.0
-0.0151892 -0.00377595 0.0
-0.0150444 -0.00459461 0.0
-0.0148618 -0.00543516 0.0
-0.0146383 -0.00630136 0.0
-0.01437 -0.00719735 0.0
-0.0140521 -0.00812764 0.0
-0.013679 -0.00909726 0.0
-0.0132439 -0.0101118 0.0
-0.0127386 -0.0111777 0.0
-0.0121532 -0.0123019 0.0
-0.0114759 -0.0134926 0.0
-0.0106929 -0.0147587 0.0
-0.00978737 -0.0161102 0.0
-0.00873958 -0.017558 0.0
-0.00752642 -0.0191132 0.0
-0.00612121 -0.0207812 0.0
-0.00449579 -0.0224982 0.0
-0.00264649 -0.0234995 0.0
-0.000834216 -0.0179405 0.0
0.000834216 0.0179405 0.0
0.000793227 -0.0177486 0.0
-0.000793227 0.0177486 0.0
-0.00249702 0.023169 0.0
-0.00421649 0.0221996 0.0
-0.0057321 0.020616 0.0
-0.00705907 0.0191188 0.0
-0.00822647 0.0177397 0.0
-0.00925816 0.0164582 0.0
-0.0101732 0.0152562 0.0
-0.0109868 0.0141203 0.0
-0.0117116 0.0130401 0.0
-0.0123577 0.0120076 0.0
-0.0129338 0.0110164 0.0
-0.0134471 0.0100613 0.0
-0.0139036 0.00913778 0.0
-0.0143086 0.00824197 0.0
-0.0146665 0.0073704 0.0
-0.0149811 0.00651991 0.0
-0.0152558 0.00568753 0.0
-0.0154932 0.00487042 0.0
-0.0156957 0.00406583 0.0
-0.0158653 0.00327108 0.0
-0.0160034 0.00248346 0.0
-0.0161112 0.00170028 0.0
-0.0161896 0.000918789 0.0
-0.016239 0.000136192 0.0
-0.0162594 -0.000650406 0.0
-0.0162505 -0.00144401 0.0
-0.0162115 -0.00224776 0.0
-0.0161414 -0.00306497 0.0
-0.0160385 -0.00389918 0.0
-0.0159005 -0.00475416 0.0
-0.0157246 -0.00563401 0.0
-0.0155074 -0.00654321 0.0
-0.0152445 -0.0074867 0.0
-0.0149307 -0.00846996 0.0
-0.0145596 -0.00949916 0.0
-0.0141234 -0.0105813 0.0
-0.0136128 -0.0117242 0.0
-0.0130166 -0.012937 0.0
-0.0123213 -0.01423 0.0
-0.0115106 -0.0156149 0.0
-0.0105655 -0.0171047 0.0
-0.00946304 -0.0187138 0.0
-0.00817652 -0.0204571 0.0
-0.0066752 -0.0223438 0.0
-0.00492633 -0.0243099 0.0
-0.00292115 -0.0255423 0.0
-0.000928197 -0.0197029 0.0
0.000928197 0.0197029 0.0
0.000878877 -0.0194207 0.0
-0.000878877 0.0194207 0.0
-0.00274188 0.0250636 0.0
-0.00459267 0.0238752 0.0
-0.00621208 0.0220754 0.0
-0.00762179 0.0203961 0.0
-0.0088551 0.0188632 0.0
-0.00993913 0.0174504 0.0
-0.0108955 0.0161353 0.0
-0.0117416 0.0149009 0.0
-0.0124915 0.0137342 0.0
-0.0131571 0.0126251 0.0
-0.0137479 0.0115658 0.0
-0.0142722 0.0105495 0.0
-0.0147368 0.00957077 0.0
-0.0151477 0.00862486 0.0
-0.0155099 0.00770758 0.0
-0.0158276 0.00681512 0.0
-0.0161046 0.00594396 0.0
-0.016344 0.00509078 0.0
-0.0165484 0.00425238 0.0
-0.0167199 0.00342564 0.0
-0.0168604 0.00260749 0.0
-0.0169711 0.00179483 0.0
-0.0170531 0.000984546 0.0
-0.0171067 0.000173444 0.0
-0.0171322 -0.000641763 0.0
-0.0171293 -0.00146449 0.0
-0.0170972 -0.00229834 0.0
-0.0170346 -0.0031471 0.0
-0.0169397 -0.00401484 0.0
-0.0168103 -0.00490595 0.0
-0.0166431 -0.00582523 0.0
-0.0164344 -0.00677794 0.0
-0.0161792 -0.00776997 0.0
-0.0158718 -0.00880791 0.0
-0.0155049 -0.00989924 0.0
-0.0150698 -0.0110525 0.0
-0.0145558 -0.0122775 0.0
-0.0139502 -0.0135856 0.0
-0.0132374 -0.0149896 0.0
-0.012399 -0.0165043 0.0
-0.0114127 -0.0181466 0.0
-0.0102526 -0.0199346 0.0
-0.00888787 -0.0218876 0.0
-0.00728342 -0.0240191 0.0
-0.00540155 -0.0262654 0.0
-0.00322764 -0.0277659 0.0
-0.00103439 -0.0216655 0.0
0.00103439 0.0216655 0.0
0.000975228 -0.0212748 0.0
-0.000975228 0.0212748 0.0
-0.00301346 0.0271108 0.0
-0.00500464 0.02567 0.0
-0.0067345 0.0236298 0.0
-0.00823212 0.021749 0.0
-0.00953527 0.0200468 0.0
-0.0106745 0.0184901 0.0
-0.0116741 0.0170516 0.0
-0.0125537 0.0157103 0.0
-0.0133294 0.0144504 0.0
-0.0140144 0.0132594 0.0
-0.0146195 0.0121275 0.0
-0.0151541 0.0110467 0.0
-0.015626 0.0100101 0.0
-0.0160418 0.00901218 0.0
-0.0164071 0.00804778 0.0
-0.0167269 0.00711242 0.0
-0.0170051 0.00620195 0.0
-0.0172455 0.00531252 0.0
-0.0174509 0.00444042 0.0
-0.0176238 0.00358206 0.0
-0.0177662 0.00273394 0.0
-0.0178796 0.00189253 0.0
-0.0179652 0.0010543 0.0
-0.0180235 0.000215634 0.0
-0.0180547 -0.000627198 0.0
-0.0180586 -0.00147807 0.0
-0.0180344 -0.00234107 0.0
-0.0179808 -0.00322055 0.0
-0.0178959 -0.00412116 0.0
-0.017777 -0.00504798 0.0
-0.0176208 -0.00600658 0.0
-0.017423 -0.00700317 0.0
-0.0171782 -0.00804468 0.0
-0.0168798 -0.00913899 0.0
-0.0165197 -0.0102951 0.0
-0.0160881 -0.0115234 0.0
-0.0155728 -0.0128359 0.0
-0.0149593 -0.0142464 0.0
-0.0142299 -0.0157709 0.0
-0.0133634 -0.0174279 0.0
-0.0123346 -0.0192381 0.0
-0.0111135 -0.0212243 0.0
-0.00966534 -0.0234107 0.0
-0.00795029 -0.0258155 0.0
-0.00592544 -0.0283757 0.0
-0.00356943 -0.0301855 0.0
-0.00115436 -0.0238542 0.0
0.00115436 0.0238542 0.0
0.00108364 -0.0233337 0.0
-0.00108364 0.0233337 0.0
-0.00331452 0.029321 0.0
-0.00545523 0.0275917 0.0
-0.00730232 0.0252851 0.0
-0.00889323 0.0231822 0.0
-0.0102704 0.0212939 0.0
-0.0114679 0.0195797 0.0
-0.0125128 0.0180066 0.0
-0.0134273 0.0165494 0.0
-0.0142293 0.0151889 0.0
-0.0149336 0.0139101 0.0
-0.0155527 0.012701 0.0
-0.0160969 0.0115519 0.0
-0.0165749 0.0104548 0.0
-0.0169944 0.00940273 0.0
-0.0173616 0.00838977 0.0
-0.017682 0.00741061 0.0
-0.0179604 0.0064604 0.0
-0.0182006 0.00553466 0.0
-0.0184061 0.00462914 0.0
-0.0185795 0.00373973 0.0
-0.0187233 0.00286244 0.0
-0.0188391 0.00199327 0.0
-0.0189283 0.00112823 0.0
-0.0189915 0.000263233 0.0
-0.0190291 -0.00060593 0.0
-0.0190409 -0.00148365 0.0
-0.019026 -0.00237455 0.0
-0.0189831 -0.00328358 0.0
-0.0189101 -0.00421609 0.0
-0.0188041 -0.00517792 0.0
-0.0186614 -0.00617553 0.0
-0.0184773 -0.00721616 0.0
-0.0182458 -0.00830799 0.0
-0.0179595 -0.00946036 0.0
-0.0176092 -0.010684 0.0
-0.0171838 -0.0119915 0.0
-0.0166696 -0.0133973 0.0
-0.01605 -0.0149182 0.0
-0.0153048 -0.0165737 0.0
-0.0144099 -0.0183864 0.0
-0.0133367 -0.0203816 0.0
-0.0120511 -0.0225873 0.0
-0.010514 -0.0250329 0.0
-0.00868046 -0.0277418 0.0
-0.00650225 -0.0306524 0.0
-0.0039503 -0.0328167 0.0
-0.00128988 -0.0262984 0.0
0.00128988 0.0262984 0.0
0.00120564 -0.0256229 0.0
-0.00120564 0.0256229 0.0
-0.00364811 0.0317051 0.0
-0.00594745 0.0296476 0.0
-0.00791862 0.0270474 0.0
-0.00960839 0.0247006 0.0
-0.011064 0.0226082 0.0
-0.012323 0.0207218 0.0
-0.0134157 0.0190021 0.0
-0.0143664 0.0174192 0.0
-0.0151954 0.0159501 0.0
-0.0159192 0.014577 0.0
-0.0165517 0.0132856 0.0
-0.0171045 0.0120643 0.0
-0.0175876 0.0109035 0.0
-0.0180094 0.00979517 0.0
-0.018377 0.00873217 0.0
-0.0186966 0.00770832 0.0
-0.0189736 0.00671801 0.0
-0.0192124 0.00575605 0.0
-0.0194167 0.00481758 0.0
-0.0195899 0.00389791 0.0
-0.0197344 0.00299252 0.0
-0.0198522 0.00209688 0.0
-0.019945 0.00120649 0.0
-0.0200135 0.000316751 0.0
-0.0200582 -0.000577086 0.0
-0.020079 -0.00147997 0.0
-0.0200749 -0.00239715 0.0
-0.0200446 -0.00333423 0.0
-0.0199858 -0.00429733 0.0
-0.0198953 -0.00529316 0.0
-0.0197691 -0.00632918 0.0
-0.0196019 -0.00741383 0.0
-0.019387 -0.0085567 0.0
-0.0191161 -0.00976882 0.0
-0.018779 -0.011063 0.0
-0.0183629 -0.0124541 0.0
-0.0178523 -0.0139595 0.0
-0.0172284 -0.0155995 0.0
-0.0164683 -0.0173977 0.0
-0.0155447 -0.019381 0.0
-0.014425 -0.02158 0.0
-0.0130712 -0.0240283 0.0
-0.011439 -0.0267612 0.0
-0.00947872 -0.0298074 0.0
-0.00713641 -0.0331073 0.0
-0.0043744 -0.0356758 0.0
-0.00144296 -0.0290313 0.0
0.00144296 0.0290313 0.0
0.00134297 -0.0281715 0.0
-0.00134297 0.0281715 0.0
-0.00401759 0.0342736 0.0
-0.00648448 0.0318453 0.0
-0.00858655 0.0289229 0.0
-0.0103809 0.0263092 0.0
-0.0119195 0.0239938 0.0
-0.0132437 0.0219195 0.0
-0.0143866 0.0200401 0.0
-0.0153754 0.0183207 0.0
-0.0162322 0.0167344 0.0
-0.0169756 0.0152599 0.0
-0.0176211 0.0138806 0.0
-0.0181817 0.0125827 0.0
-0.0186685 0.011355 0.0
-0.0190911 0.010188 0.0
-0.0194574 0.00907336 0.0
-0.0197746 0.00800395 0.0
-0.0200485 0.00697325 0.0
-0.0202843 0.00597532 0.0
-0.0204862 0.00500458 0.0
-0.0206578 0.00405572 0.0
-0.0208022 0.0031236 0.0
-0.0209217 0.00220313 0.0
-0.021018 0.00128924 0.0
-0.0210922 0.000376741 0.0
-0.0211448 -0.000539692 0.0
-0.0211758 -0.00146564 0.0
-0.0211843 -0.00240703 0.0
-0.0211687 -0.00337024 0.0
-0.0211267 -0.00436223 0.0
-0.0210547 -0.00539068 0.0
-0.0209483 -0.00646424 0.0
-0.0208016 -0.00759268 0.0
-0.0206071 -0.00878721 0.0
-0.0203555 -0.0100608 0.0
-0.0200351 -0.0114286 0.0
-0.0196316 -0.0129081 0.0
-0.0191274 -0.0145202 0.0
-0.0185012 -0.016289 0.0
-0.017727 -0.0182424 0.0
-0.0167741 -0.0204127 0.0
-0.0156058 -0.0228362 0.0
-0.0141794 -0.0255524 0.0
-0.0124458 -0.0286029 0.0
-0.01035 -0.0320219 0.0
-0.00783259 -0.0357526 0.0
-0.00484625 -0.0387788 0.0
-0.00161582 -0.0320901 0.0
0.00161582 0.0320901 0.0
0.00149762 -0.0310121 0.0
-0.00149762 0.0310121 0.0
-0.00442669 0.0370367 0.0
-0.00706969 0.0341921 0.0
-0.00930936 0.0309179 0.0
-0.0112141 0.0280132 0.0
-0.0128406 0.0254549 0.0
-0.0142338 0.0231758 0.0
-0.0154299 0.0211229 0.0
-0.0164586 0.0192554 0.0
-0.0173444 0.0175423 0.0
-0.0181077 0.0159588 0.0
-0.0187658 0.0144853 0.0
-0.0193332 0.0131061 0.0
-0.0198224 0.0118078 0.0
-0.0202441 0.0105795 0.0
-0.0206074 0.00941154 0.0
-0.0209202 0.00829567 0.0
-0.0211891 0.00722439 0.0
-0.0214201 0.00619088 0.0
-0.0216179 0.00518879 0.0
-0.0217869 0.0042121 0.0
-0.0219302 0.00325498 0.0
-0.0220507 0.00231172 0.0
-0.0221504 0.0013766 0.0
-0.0222306 0.000443801 0.0
-0.0222921 -0.000492663 0.0
-0.0223347 -0.00143908 0.0
-0.0223576 -0.00240214 0.0
-0.0223593 -0.00338907 0.0
-0.022337 -0.00440779 0.0
-0.0222869 -0.00546713 0.0
-0.0222041 -0.00657701 0.0
-0.0220819 -0.00774878 0.0
-0.021912 -0.00899549 0.0
-0.0216838 -0.0103323 0.0
-0.0213842 -0.0117771 0.0
-0.0209968 -0.0133505 0.0
-0.0205019 -0.015077 0.0
-0.0198753 -0.0169851 0.0
-0.0190879 -0.0191079 0.0
-0.0181048 -0.0214832 0.0
-0.0168852 -0.0241536 0.0
-0.0153816 -0.0271651 0.0
-0.0135397 -0.0305656 0.0
-0.0112994 -0.0343953 0.0
-0.00859567 -0.0386003 0.0
-0.00537079 -0.0421423 0.0
-0.00181097 -0.0355169 0.0
0.00181097 0.0355169 0.0
0.00167185 -0.0341816 0.0
-0.00167185 0.0341816 0.0
-0.00487956 0.040004 0.0
-0.00770665 0.0366949 0.0
-0.0100904 0.0330385 0.0
-0.0121113 0.0298182 0.0
-0.0138309 0.0269959 0.0
-0.0152973 0.0244944 0.0
-0.0165498 0.0222529 0.0
-0.0176207 0.020225 0.0
-0.0185368 0.0183746 0.0
-0.0193205 0.0166735 0.0
-0.0199909 0.0150991 0.0
-0.0205643 0.0136331 0.0
-0.0210546 0.0122602 0.0
-0.0214737 0.0109678 0.0
-0.0218318 0.0097447 0.0
-0.022138 0.00858144 0.0
-0.0223999 0.00746944 0.0
-0.022624 0.00640091 0.0
-0.022816 0.00536864 0.0
-0.0229806 0.0043658 0.0
-0.0231218 0.00338582 0.0
-0.0232427 0.00242225 0.0
-0.0233456 0.00146869 0.0
-0.0234322 0.000518585 0.0
-0.0235035 -0.000434787 0.0
-0.0235593 -0.0013985 0.0
-0.0235989 -0.00238012 0.0
-0.0236206 -0.00338782 0.0
-0.0236213 -0.00443064 0.0
-0.0235969 -0.00551867 0.0
-0.0235419 -0.00666334 0.0
-0.0234487 -0.00787777 0.0
-0.023308 -0.00917713 0.0
-0.0231078 -0.0105791 0.0
-0.0228332 -0.0121045 0.0
-0.0224658 -0.0137777 0.0
-0.0219832 -0.0156272 0.0
-0.0213582 -0.0176865 0.0
-0.0205579 -0.0199942 0.0
-0.0195436 -0.0225943 0.0
-0.0182697 -0.025536 0.0
-0.0166837 -0.0288723 0.0
-0.0147262 -0.0326577 0.0
-0.0123319 -0.0369379 0.0
-0.00943073 -0.0416627 0.0
-0.0059534 -0.0457822 0.0
-0.00203121 -0.039359 0.0
0.00203121 0.039359 0.0
0.00186826 -0.0377217 0.0
-0.00186826 0.0377217 0.0
-0.00538085 0.0431842 0.0
-0.00839921 0.0393602 0.0
-0.0109331 0.035291 0.0
-0.0130761 0.0317297 0.0
-0.0148939 0.0286217 0.0
-0.016438 0.0258792 0.0
-0.0177506 0.0234333 0.0
-0.0188664 0.0212313 0.0
-0.0198144 0.0192324 0.0
-0.0206194 0.0174044 0.0
-0.0213022 0.0157215 0.0
-0.0218807 0.0141627 0.0
-0.0223706 0.0127107 0.0
-0.0227852 0.0113509 0.0
-0.0231361 0.0100706 0.0
-0.0234334 0.00885896 0.0
-0.0236857 0.00770615 0.0
-0.0239007 0.00660332 0.0
-0.0240848 0.0055423 0.0
-0.0242434 0.00451536 0.0
-0.024381 0.00351509 0.0
-0.0245014 0.00253425 0.0
-0.0246074 0.00156559 0.0
-0.0247009 0.000601798 0.0
-0.0247829 -0.000364712 0.0
-0.0248538 -0.00134191 0.0
-0.0249125 -0.00233833 0.0
-0.0249573 -0.00336326 0.0
-0.0249848 -0.00442699 0.0
-0.0249904 -0.00554106 0.0
-0.0249678 -0.00671863 0.0
-0.0249086 -0.00797484 0.0
-0.0248021 -0.00932728 0.0
-0.0246347 -0.0107965 0.0
-0.0243897 -0.0124067 0.0
-0.0240463 -0.0141863 0.0
-0.023579 -0.0161685 0.0
-0.0229573 -0.0183921 0.0
-0.0221444 -0.0209018 0.0
-0.0210973 -0.0237483 0.0
-0.0197654 -0.0269878 0.0
-0.0180913 -0.0306806 0.0
-0.0160106 -0.0348876 0.0
-0.0134528 -0.03966 0.0
-0.010343 -0.0449516 0.0
-0.00659992 -0.0497137 0.0
-0.00227967 -0.0436699 0.0
0.00227967 0.0436699 0.0
0.00208984 -0.0416798 0.0
-0.00208984 0.0416798 0.0
-0.00593583 0.0465847 0.0
-0.0091515 0.0421937 0.0
-0.0118412 0.0376811 0.0
-0.0141118 0.0337532 0.0
-0.0160332 0.0303374 0.0
-0.0176599 0.0273344 0.0
-0.0190366 0.0246673 0.0
-0.0202003 0.0222768 0.0
-0.0211825 0.0201171 0.0
-0.0220099 0.0181519 0.0
-0.0227052 0.0163521 0.0
-0.0232884 0.0146939 0.0
-0.0237766 0.0131577 0.0
-0.0241849 0.0117268 0.0
-0.0245262 0.0103869 0.0
-0.024812 0.00912571 0.0
-0.0250522 0.00793199 0.0
-0.0252555 0.00679574 0.0
-0.0254293 0.00570769 0.0
-0.0255798 0.00465911 0.0
-0.0257124 0.00364164 0.0
-0.0258314 0.0026471 0.0
-0.0259401 0.00166738 0.0
-0.0260408 0.000694212 0.0
-0.026135 -0.000280933 0.0
-0.0262228 -0.00126705 0.0
-0.0263034 -0.0022738 0.0
-0.0263747 -0.00331173 0.0
-0.0264332 -0.00439258 0.0
-0.0264735 -0.00552955 0.0
-0.0264884 -0.00673778 0.0
-0.0264686 -0.00803472 0.0
-0.0264018 -0.00944071 0.0
-0.0262726 -0.0109796 0.0
-0.026062 -0.0126793 0.0
-0.0257464 -0.0145727 0.0
-0.0252973 -0.0166984 0.0
-0.0246803 -0.0191008 0.0
-0.0238547 -0.0218314 0.0
-0.0227726 -0.0249479 0.0
-0.0213787 -0.0285139 0.0
-0.0196103 -0.0325969 0.0
-0.017398 -0.0372643 0.0
-0.014667 -0.042572 0.0
-0.011338 -0.0484783 0.0
-0.00731669 -0.0539513 0.0
-0.00255984 -0.0485094 0.0
0.00255984 0.0485094 0.0
0.00234005 -0.0461097 0.0
-0.00234005 0.0461097 0.0
-0.00655044 0.0502112 0.0
-0.00996805 0.0452005 0.0
-0.0128184 0.0402143 0.0
-0.015222 0.0358944 0.0
-0.0172525 0.032148 0.0
-0.0189667 0.0288647 0.0
-0.0204119 0.0259588 0.0
-0.0216273 0.0233644 0.0
-0.0226463 0.0210307 0.0
-0.0234976 0.018917 0.0
-0.0242062 0.0169909 0.0
-0.0247937 0.0152258 0.0
-0.0252792 0.0135995 0.0
-0.0256792 0.0120933 0.0
-0.0260086 0.0106911 0.0
-0.0262803 0.00937896 0.0
-0.0265055 0.00814422 0.0
-0.0266943 0.00697554 0.0
-0.0268551 0.00586246 0.0
-0.0269953 0.00479512 0.0
-0.0271211 0.00376408 0.0
-0.0272376 0.00276012 0.0
-0.0273487 0.00177409 0.0
-0.0274571 0.000796667 0.0
-0.0275646 -0.000181776 0.0
-0.0276716 -0.00117142 0.0
-0.0277771 -0.00218322 0.0
-0.027879 -0.00322918 0.0
-0.0279729 -0.0043227 0.0
-0.0280531 -0.00547893 0.0
-0.0281113 -0.00671524 0.0
-0.0281367 -0.00805174 0.0
-0.0281153 -0.00951188 0.0
-0.0280297 -0.0111231 0.0
-0.0278583 -0.0129178 0.0
-0.0275745 -0.0149337 0.0
-0.0271462 -0.0172149 0.0
-0.0265351 -0.0198124 0.0
-0.0256959 -0.0227846 0.0
-0.0245761 -0.0261967 0.0
-0.0231152 -0.0301199 0.0
-0.0212458 -0.0346288 0.0
-0.0188936 -0.039797 0.0
-0.0159797 -0.0456843 0.0
-0.0124211 -0.0522537 0.0
-0.00811061 -0.0585077 0.0
-0.00287563 -0.0539449 0.0
0.00287563 0.0539449 0.0
0.0026229 -0.0510726 0.0
-0.0026229 0.0510726 0.0
-0.00723151 0.0540673 0.0
-0.0108539 0.0483844 0.0
-0.0138687 0.0428955 0.0
-0.0164103 0.0381584 0.0
-0.0185551 0.0340591 0.0
-0.0203622 0.0304751 0.0
-0.0218807 0.027312 0.0
-0.0231518 0.0244976 0.0
-0.0242108 0.0219755 0.0
-0.0250884 0.0197011 0.0
-0.0258113 0.0176383 0.0
-0.0264032 0.0157578 0.0
-0.026885 0.0140347 0.0
-0.0272753 0.0124483 0.0
-0.0275904 0.0109806 0.0
-0.0278451 0.00961584 0.0
-0.0280524 0.00833983 0.0
-0.0282235 0.00713982 0.0
-0.0283685 0.00600399 0.0
-0.0284959 0.00492122 0.0
-0.0286129 0.00388085 0.0
-0.0287256 0.00287247 0.0
-0.0288385 0.00188572 0.0
-0.0289551 0.000910071 0.0
-0.0290774 -6.53938e-05 0.0
-0.029206 -0.00105223 0.0
-0.0293399 -0.0020629 0.0
-0.0294765 -0.00311112 0.0
-0.0296111 -0.0042122 0.0
-0.0297368 -0.00538352 0.0
-0.0298443 -0.00664503 0.0
-0.029921 -0.00801986 0.0
-0.0299511 -0.00953498 0.0
-0.0299148 -0.011222 0.0
-0.0297873 -0.0131179 0.0
-0.0295389 -0.0152659 0.0
-0.0291336 -0.0177163 0.0
-0.0285288 -0.0205269 0.0
-0.0276746 -0.0237634 0.0
-0.0265136 -0.0274988 0.0
-0.0249803 -0.0318118 0.0
-0.0230025 -0.0367842 0.0
-0.0205016 -0.0424947 0.0
-0.0173954 -0.0490066 0.0
-0.013598 -0.0562875 0.0
-0.00898901 -0.0633934 0.0
-0.00323132 -0.0600518 0.0
0.00323132 0.0600518 0.0
0.002943 -0.0566385 0.0
-0.002943 0.0566385 0.0
-0.00798663 0.0581536 0.0
-0.0118141 0.0517479 0.0
-0.0149961 0.0457288 0.0
-0.0176797 0.0405504 0.0
-0.0199436 0.0360758 0.0
-0.0218487 0.0321706 0.0
-0.0234454 0.0287317 0.0
-0.0247766 0.0256802 0.0
-0.0258792 0.0229546 0.0
-0.0267856 0.020506 0.0
-0.0275243 0.0182951 0.0
-0.028121 0.0162895 0.0
-0.0285984 0.0144621 0.0
-0.0289771 0.0127898 0.0
-0.0292756 0.0112527 0.0
-0.0295103 0.00983322 0.0
-0.0296962 0.00851553 0.0
-0.0298462 0.00728532 0.0
-0.029972 0.00612929 0.0
-0.0300836 0.00503489 0.0
-0.0301895 0.00399009 0.0
-0.0302967 0.00298309 0.0
-0.0304108 0.00200216 0.0
-0.0305359 0.00103532 0.0
-0.0306744 7.016e-05 0.0
-0.0308271 -0.000906495 0.0
-0.0309929 -0.00190889 0.0
-0.0311688 -0.0029527 0.0
-0.0313493 -0.0040555 0.0
-0.0315266 -0.00523724 0.0
-0.0316896 -0.00652082 0.0
-0.0318241 -0.0079328 0.0
-0.0319119 -0.0095041 0.0
-0.0319303 -0.0112709 0.0
-0.0318514 -0.0132753 0.0
-0.0316416 -0.0155666 0.0
-0.031261 -0.0182015 0.0
-0.0306624 -0.0212451 0.0
-0.0297912 -0.0247706 0.0
-0.0285849 -0.0288589 0.0
-0.0269734 -0.0335963 0.0
-0.0248799 -0.039071 0.0
-0.0222223 -0.0453665 0.0
-0.0189155 -0.0525478 0.0
-0.0148717 -0.0605874 0.0
-0.00995833 -0.0686158 0.0
-0.00363115 -0.0669143 0.0
0.00363115 0.0669143 0.0
0.00330417 -0.0628857 0.0
-0.00330417 0.0628857 0.0
-0.00881983 0.0624657 0.0
-0.0128466 0.05529 0.0
-0.016193 0.0487151 0.0
-0.0190178 0.0430724 0.0
-0.0214011 0.038201 0.0
-0.0234049 0.0339543 0.0
-0.0250806 0.0302205 0.0
-0.0264722 0.0269142 0.0
-0.0276179 0.0239689 0.0
-0.0285517 0.0213318 0.0
-0.0293037 0.0189602 0.0
-0.0299015 0.0168189 0.0
-0.0303699 0.0148785 0.0
-0.0307314 0.0131137 0.0
-0.0310068 0.0115027 0.0
-0.0312147 0.0100259 0.0
-0.031372 0.00866596 0.0
-0.0314938 0.00740677 0.0
-0.0315936 0.00623344 0.0
-0.0316831 0.00513182 0.0
-0.0317724 0.00408829 0.0
-0.0318697 0.00308949 0.0
-0.0319819 0.00212202 0.0
-0.0321136 0.00117226 0.0
-0.0322678 0.000225987 0.0
-0.0324456 -0.000731874 0.0
-0.0326456 -0.00171766 0.0
-0.0328643 -0.00274939 0.0
-0.0330953 -0.00384724 0.0
-0.0333295 -0.00503411 0.0
-0.0335541 -0.00633631 0.0
-0.0337526 -0.00778424 0.0
-0.0339043 -0.00941324 0.0
-0.0339832 -0.0112645 0.0
-0.033958 -0.0133858 0.0
-0.0337913 -0.0158326 0.0
-0.0334387 -0.0186687 0.0
-0.0328485 -0.0219666 0.0
-0.0319615 -0.0258074 0.0
-0.0307105 -0.0302795 0.0
-0.0290211 -0.0354766 0.0
-0.0268125 -0.0414928 0.0
-0.0239996 -0.0484152 0.0
-0.0204957 -0.0563097 0.0
-0.0162123 -0.0651527 0.0
-0.0110052 -0.074171 0.0
-0.00407298 -0.0746184 0.0
0.00407298 0.0746184 0.0
0.00368614 -0.069876 0.0
-0.00368614 0.069876 0.0
-0.0096608 0.0669657 0.0
-0.0138215 0.0589775 0.0
-0.0172699 0.0518225 0.0
-0.0201733 0.0456931 0.0
-0.0226127 0.0404032 0.0
-0.024651 0.0357942 0.0
-0.0263406 0.0317459 0.0
-0.0277267 0.0281665 0.0
-0.0288493 0.0249849 0.0
-0.0297442 0.0221444 0.0
-0.0304439 0.0195993 0.0
-0.030978 0.0173118 0.0
-0.0313742 0.0152501 0.0
-0.0316575 0.013387 0.0
-0.0318511 0.0116985 0.0
-0.0319765 0.0101634 0.0
-0.0320529 0.00876224 0.0
-0.0320979 0.0074773 0.0
-0.0321271 0.00629183 0.0
-0.032154 0.00518989 0.0
-0.0321906 0.00415604 0.0
-0.0322465 0.00317505 0.0
-0.0323296 0.00223164 0.0
-0.0324454 0.00131017 0.0
-0.0325974 0.000394341 0.0
-0.0327867 -0.000533187 0.0
-0.0330118 -0.0014912 0.0
-0.0332686 -0.00250042 0.0
-0.0335498 -0.003584 0.0
-0.0338447 -0.00476823 0.0
-0.0341391 -0.00608317 0.0
-0.0344145 -0.0075635 0.0
-0.0346475 -0.00924935 0.0
-0.0348096 -0.0111872 0.0
-0.0348667 -0.013431 0.0
-0.0347779 -0.0160428 0.0
-0.0344957 -0.0190933 0.0
-0.0339651 -0.0226628 0.0
-0.0331236 -0.0268398 0.0
-0.0319011 -0.0317206 0.0
-0.0302205 -0.0374056 0.0
-0.0279989 -0.0439941 0.0
-0.0251497 -0.0515761 0.0
-0.0215855 -0.0602169 0.0
-0.0172169 -0.0698975 0.0
-0.0118883 -0.079962 0.0
-0.00447822 -0.0831696 0.0
0.00447822 0.0831696 0.0
0.00373135 -0.0772935 0.0
-0.00373135 0.0772935 0.0
-0.00941986 0.0712114 0.0
-0.0128944 0.0623671 0.0
-0.0156149 0.0546018 0.0
-0.0177567 0.0479589 0.0
-0.0194083 0.0422284 0.0
-0.0206411 0.0372401 0.0
-0.0215176 0.0328659 0.0
-0.0220927 0.0290078 0.0
-0.0224158 0.0255894 0.0
-0.0225312 0.0225502 0.0
-0.0224788 0.0198408 0.0
-0.0222947 0.0174203 0.0
-0.0220112 0.0152543 0.0
-0.0216578 0.0133126 0.0
-0.0212603 0.0115691 0.0
-0.0208423 0.01 0.0
-0.0204241 0.00858385 0.0
-0.020024 0.00730054 0.0
-0.0196575 0.00613126 0.0
-0.0193381 0.00505801 0.0
-0.0190769 0.0040633 0.0
-0.0188831 0.00312987 0.0
-0.0187636 0.00224038 0.0
-0.0187234 0.0013771 0.0
-0.0187656 0.000521566 0.0
-0.0188908 -0.00034587 0.0
-0.0190978 -0.00124644 0.0
-0.0193827 -0.00220353 0.0
-0.0197392 -0.00324324 0.0
-0.0201581 -0.00439509 0.0
-0.0206272 -0.00569279 0.0
-0.0211307 -0.00717508 0.0
-0.0216488 -0.00888666 0.0
-0.0221574 -0.0108791 0.0
-0.0226275 -0.013212 0.0
-0.0230244 -0.0159536 0.0
-0.0233076 -0.0191816 0.0
-0.0234295 -0.0229832 0.0
-0.0233357 -0.0274547 0.0
-0.022964 -0.0327 0.0
-0.0222441 -0.0388266 0.0
-0.0210984 -0.0459403 0.0
-0.019442 -0.0541354 0.0
-0.0171844 -0.0634793 0.0
-0.0142252 -0.0739628 0.0
-0.0103786 -0.0850719 0.0
-0.00410027 -0.0917481 0.0
0.00410027 0.0917481 0.0
-0.000486825 -0.080538 0.0
0.000486825 0.080538 0.0
0.00360966 0.0705325 0.0
0.00920427 0.0609258 0.0
0.0152681 0.0526997 0.0
0.0215342 0.0457368 0.0
0.0278426 0.0397937 0.0
0.0340708 0.0346795 0.0
0.0401244 0.0302493 0.0
0.0459327 0.0263912 0.0
0.0514445 0.0230174 0.0
0.0566244 0.0200577 0.0
0.06145 0.0174552 0.0
0.0659091 0.0151626 0.0
0.0699976 0.0131401 0.0
0.0737171 0.0113538 0.0
0.0770738 0.00977387 0.0
0.0800768 0.00837419 0.0
0.0827371 0.00713119 0.0
0.0850668 0.0060234 0.0
0.0870778 0.00503093 0.0
0.0887817 0.0041351 0.0
0.0901887 0.00331803 0.0
0.0913076 0.00256234 0.0
0.0921453 0.00185075 0.0
0.0927061 0.00116578 0.0
0.0929918 0.000489309 0.0
0.0930013 -0.000197852 0.0
0.0927302 -0.000916435 0.0
0.0921709 -0.00168929 0.0
0.0913119 -0.00254202 0.0
0.0901382 -0.0035037 0.0
0.0886309 -0.00460772 0.0
0.0867669 -0.00589268 0.0
0.0845194 -0.00740345 0.0
0.0818578 -0.00919217 0.0
0.0787483 -0.0113195 0.0
0.0751544 -0.0138554 0.0
0.0710385 -0.0168807 0.0
0.0663631 -0.0204868 0.0
0.0610945 -0.0247762 0.0
0.0552056 -0.0298615 0.0
0.0486828 -0.0358622 0.0
0.0415328 -0.0429005 0.0
0.0337939 -0.0510927 0.0
0.0255509 -0.0605366 0.0
0.0169613 -0.0712752 0.0
0.0083663 -0.0830111 0.0
0.0020637 -0.0937847 0.0
-0.0020637 0.0937847 0.0
-0.0400256 -0.0400256 0.0
0.0400256 0.0400256 0.0
0.113999 0.0339483 0.0
0.176931 0.0289836 0.0
0.230712 0.0247972 0.0
0.276797 0.021288 0.0
0.316408 0.0183231 0.0
0.350531 0.0157994 0.0
0.379969 0.0136381 0.0
0.405385 0.0117779 0.0
0.427333 0.0101705 0.0
0.446281 0.00877713 0.0
0.462624 0.00756653 0.0
0.476704 0.0065128 0.0
0.488811 0.00559435 0.0
0.499198 0.00479287 0.0
0.508083 0.00409262 0.0
0.515656 0.0034799 0.0
0.522078 0.0029426 0.0
0.527491 0.00246986 0.0
0.532013 0.0020518 0.0
0.535744 0.0016793 0.0
0.538767 0.00134376 0.0
0.541147 0.00103695 0.0
0.542935 0.000750766 0.0
0.544163 0.000477099 0.0
0.544848 0.000207585 0.0
0.544989 -6.66017e-05 0.0
0.544567 -0.000355007 0.0
0.543544 -0.000668178 0.0
0.541858 -0.00101799 0.0
0.539422 -0.00141803 0.0
0.53612 -0.00188399 0.0
0.531802 -0.0024342 0.0
0.526277 -0.00309011 0.0
0.51931 -0.00387691 0.0
0.510609 -0.00482415 0.0
0.499819 -0.00596637 0.0
0.486509 -0.0073437 0.0
0.470162 -0.00900235 0.0
0.450165 -0.0109948 0.0
0.425791 -0.0133796 0.0
0.39619 -0.0162208 0.0
0.360384 -0.0195855 0.0
0.317257 -0.0235416 0.0
0.265564 -0.0281515 0.0
0.203953 -0.0334596 0.0
0.131107 -0.0393861 0.0
0.0458605 -0.0458605 0.0
-0.0458605 0.0458605 0.0
-1.95997 0.0400256 0.0
1.95997 -0.0400256 0.0
1.886 -0.0339483 0.0
1.82307 -0.0289836 0.0
1.76929 -0.0247972 0.0
1.7232 -0.021288 0.0
1.68359 -0.0183231 0.0
1.64947 -0.0157994 0.0
1.62003 -0.0136381 0.0
1.59462 -0.0117779 0.0
1.57267 -0.0101705 0.0
1.55372 -0.00877713 0.0
1.53738 -0.00756653 0.0
1.5233 -0.0065128 0.0
1.51119 -0.00559435 0.0
1.5008 -0.00479287 0.0
1.49192 -0.00409262 0.0
1.48434 -0.0034799 0.0
1.47792 -0.0029426 0.0
1.47251 -0.00246986 0.0
1.46799 -0.0020518 0.0
1.46426 -0.0016793 0.0
1.46123 -0.00134376 0.0
1.45885 -0.00103695 0.0
1.45706 -0.000750766 0.0
1.45584 -0.000477099 0.0
1.45515 -0.000207585 0.0
1.45501 6.66017e-05 0.0
1.45543 0.000355007 0.0
1.45646 0.000668178 0.0
1.45814 0.00101799 0.0
1.46058 0.00141803 0.0
1.46388 0.00188399 0.0
1.4682 0.0024342 0.0
1.47372 0.00309011 0.0
1.48069 0.00387691 0.0
1.48939 0.00482415 0.0
1.50018 0.00596637 0.0
1.51349 0.0073437 0.0
1.52984 0.00900235 0.0
1.54983 0.0109948 0.0
1.57421 0.0133796 0.0
1.60381 0.0162208 0.0
1.63962 0.0195855 0.0
1.68274 0.0235416 0.0
1.73444 0.0281515 0.0
1.79605 0.0334596 0.0
1.86889 0.0393861 0.0
1.95414 0.0458605 0.0
-1.95414 -0.0458605 0.0
