# vtk DataFile Version 3.0
DroneCFD Output
ASCII
DATASET STRUCTURED_POINTS
DIMENSIONS 50 50 1
ORIGIN 0 0 0
SPACING 0.02 0.02 1
POINT_DATA 2500
SCALARS pressure double 1
LOOKUP_TABLE default
0
0
-0.0010065
-0.00113109
-0.000996179
-0.000780534
-0.000519592
-0.000221664
0.000109076
0.000469302
0.000856113
0.00126695
0.00169953
0.00215182
0.002622
0.00310842
0.00360957
0.00412407
0.00465067
0.00518816
0.00573543
0.0062914
0.00685505
0.00742535
0.00800131
0.00858192
0.00916615
0.00975293
0.0103412
0.0109297
0.0115172
0.0121023
0.0126837
0.0132596
0.0138282
0.0143877
0.0149357
0.0154698
0.0159872
0.0164847
0.0169587
0.0174053
0.0178197
0.0181966
0.0185295
0.0188069
0.018988
0.0188788
0.0178046
0.0178046
0
0
-0.0010065
-0.00113109
-0.000996179
-0.000780534
-0.000519592
-0.000221664
0.000109076
0.000469302
0.000856113
0.00126695
0.00169953
0.00215182
0.002622
0.00310842
0.00360957
0.00412407
0.00465067
0.00518816
0.00573543
0.0062914
0.00685505
0.00742535
0.00800131
0.00858192
0.00916615
0.00975293
0.0103412
0.0109297
0.0115172
0.0121023
0.0126837
0.0132596
0.0138282
0.0143877
0.0149357
0.0154698
0.0159872
0.0164847
0.0169587
0.0174053
0.0178197
0.0181966
0.0185295
0.0188069
0.018988
0.0188788
0.0178046
0.0178046
0.000751102
0.000751102
-0.000262805
-0.000387467
-0.00025645
-5.02308e-05
0.000196078
0.000474783
0.000782295
0.0011158
0.00147285
0.00185129
0.00224917
0.00266477
0.00309652
0.00354302
0.00400295
0.00447513
0.00495843
0.00545181
0.00595427
0.00646485
0.00698262
0.00750666
0.00803606
0.00856989
0.00910722
0.00964707
0.0101884
0.0107302
0.0112713
0.0118104
0.0123462
0.0128773
0.0134021
0.0139187
0.0144252
0.0149194
0.0153988
0.0158607
0.0163018
0.0167185
0.0171069
0.0174621
0.0177783
0.0180448
0.018221
0.018111
0.0170278
0.0170278
0.000878505
0.000878505
-0.000151238
-0.000276204
-0.000144011
6.26705e-05
0.000308472
0.000585734
0.000890932
0.00122132
0.00157451
0.00194841
0.00234113
0.00275102
0.00317656
0.00361639
0.00406927
0.00453404
0.00500964
0.00549506
0.00598935
0.00649161
0.00700092
0.00751643
0.00803725
0.00856252
0.00909131
0.00962271
0.0101557
0.0106894
0.0112225
0.0117539
0.0122824
0.0128065
0.0133247
0.0138352
0.0143362
0.0148254
0.0153005
0.0157588
0.0161971
0.0166119
0.0169993
0.0173544
0.0176715
0.0179399
0.0181185
0.0180086
0.0169072
0.0169072
0.000865384
0.000865384
-0.000183919
-0.000307658
-0.000171191
3.95799e-05
0.000288898
0.000569133
0.000876826
0.00120929
0.00156419
0.00193946
0.00233328
0.002744
0.00317017
0.00361043
0.00406358
0.00452849
0.00500412
0.00548949
0.00598367
0.00648577
0.00699491
0.00751024
0.00803092
0.00855608
0.00908484
0.00961629
0.0101495
0.0106834
0.011217
0.0117491
0.0122785
0.0128037
0.0133232
0.0138354
0.0143384
0.0148301
0.0153081
0.0157696
0.0162117
0.0166309
0.017023
0.0173836
0.0177067
0.0179816
0.0181665
0.0180586
0.0169342
0.0169342
0.000813213
0.000813213
-0.000259066
-0.000380729
-0.000238061
-2.1222e-05
0.000233516
0.000518564
0.000830545
0.00116684
0.00152519
0.00190358
0.00230022
0.00271353
0.00314206
0.00358451
0.00403971
0.00450655
0.00498401
0.00547115
0.00596706
0.00647086
0.00698171
0.00749878
0.00802123
0.00854823
0.00907892
0.00961241
0.0101478
0.0106841
0.0112202
0.011755
0.0122873
0.0128158
0.013339
0.0138551
0.0143624
0.0148588
0.015342
0.0158093
0.0162576
0.0166837
0.0170833
0.0174521
0.017784
0.0180681
0.018262
0.0181572
0.0170054
0.0170054
0.000737489
0.000737489
-0.000361297
-0.000480055
-0.000329393
-0.000104736
0.000157016
0.000448331
0.000765939
0.00110732
0.00147028
0.00185288
0.00225339
0.00267027
0.00310214
0.00354772
0.00400587
0.00447553
0.00495571
0.00544549
0.005944
0.00645038
0.00696382
0.00748351
0.00800864
0.0085384
0.00907197
0.00960849
0.010147
0.0106867
0.0112264
0.0117652
0.0123017
0.0128347
0.0133627
0.0138842
0.0143973
0.0149001
0.0153901
0.0158649
0.0163215
0.0167565
0.0171659
0.0175451
0.0178884
0.0181845
0.0183898
0.0182893
0.0171055
0.0171055
0.000639936
0.000639936
-0.000489031
-0.000603938
-0.000443431
-0.000209187
6.11653e-05
0.000360172
0.000684701
0.00103235
0.00140102
0.00178885
0.00219418
0.00261554
0.00305159
0.00350112
0.00396302
0.00443628
0.00491994
0.00541312
0.00591497
0.00642468
0.00694146
0.00746454
0.00799313
0.00852646
0.00906373
0.00960411
0.0101467
0.0106907
0.011235
0.0117787
0.0123204
0.0128591
0.0133933
0.0139214
0.0144417
0.0149523
0.0154509
0.015935
0.0164017
0.0168477
0.017269
0.0176612
0.0180183
0.0183292
0.0185487
0.0184537
0.017233
0.017233
0.000520444
0.000520444
-0.000642502
-0.000752456
-0.000580154
-0.000334494
-5.39196e-05
0.000254225
0.000586976
0.000942073
0.00131754
0.0017116
0.00212271
0.00254944
0.00299052
0.00344481
0.00391124
0.00438885
0.00487674
0.00537405
0.00587998
0.00639374
0.0069146
0.0074418
0.00797462
0.00851229
0.00905406
0.00959915
0.0101467
0.0106959
0.0112458
0.0117953
0.0123434
0.0128889
0.0134304
0.0139665
0.0144954
0.0150154
0.0155242
0.0160193
0.0164981
0.0169571
0.0173927
0.0178002
0.0181739
0.0185023
0.0187388
0.0186509
0.0173883
0.0173883
0.00037861
0.00037861
-0.000822199
-0.000925916
-0.000739753
-0.000480776
-0.000188312
0.000130445
0.000472737
0.000836476
0.00121982
0.00162114
0.00203894
0.00247192
0.00291888
0.00337872
0.00385046
0.00433318
0.00482603
0.00532819
0.00583892
0.00635747
0.00688313
0.00741521
0.00795299
0.00849579
0.00904286
0.00959348
0.0101469
0.0107022
0.0112585
0.011815
0.0123705
0.0129239
0.013474
0.0140193
0.0145583
0.0150891
0.0156097
0.0161178
0.0166105
0.0170848
0.0175369
0.0179624
0.0183555
0.0187044
0.0189609
0.0188818
0.017572
0.017572
0.000213901
0.000213901
-0.0010287
-0.00112469
-0.000922466
-0.000648192
-0.000342119
-1.12441e-05
0.000341926
0.00071551
0.00110784
0.0015174
0.00194285
0.00238295
0.00283661
0.0033028
0.00378062
0.00426919
0.00476772
0.00527546
0.00579171
0.00631576
0.00684695
0.00738463
0.00792814
0.00847682
0.00903
0.00958697
0.010147
0.0107093
0.0112731
0.0118375
0.0124015
0.0129641
0.0135239
0.0140798
0.0146303
0.0151735
0.0157076
0.0162304
0.0167391
0.0172309
0.0177019
0.018148
0.0185634
0.018936
0.0192158
0.0191475
0.0177851
0.0177851
2.56627e-05
2.56627e-05
-0.00126266
-0.00134919
-0.00112857
-0.000836926
-0.000515469
-0.000170935
0.000194471
0.000579112
0.000981512
0.00140033
0.00183434
0.00228245
0.00274363
0.00321696
0.0037016
0.00419676
0.00470171
0.00521574
0.00573821
0.00626848
0.00680592
0.00734994
0.00789993
0.00845526
0.00901533
0.00957948
0.010147
0.0107173
0.0112895
0.0118628
0.0124364
0.0130091
0.01358
0.0141478
0.0147111
0.0152684
0.0158177
0.0163571
0.0168839
0.0173953
0.0178879
0.0183573
0.018798
0.0191977
0.0195042
0.0194489
0.0180286
0.0180286
-0.000186885
-0.000186885
-0.00152479
-0.00159986
-0.00135835
-0.00104718
-0.00070851
-0.00034874
3.02808e-05
0.000427201
0.000840777
0.00126985
0.00171336
0.00217032
0.00263984
0.00312109
0.00361331
0.00411579
0.00462786
0.0051489
0.0056783
0.00621549
0.0067599
0.00731098
0.00786818
0.00843094
0.00899869
0.00957084
0.0101468
0.0107259
0.0113074
0.0118907
0.0124748
0.013059
0.0136421
0.0142232
0.0148008
0.0153737
0.01594
0.0164978
0.0170448
0.0175783
0.0180949
0.0185907
0.0190599
0.0194902
0.0198272
0.0197875
0.0183038
0.0183038
-0.000424656
-0.000424656
-0.00181589
-0.0018772
-0.00161213
-0.00127919
-0.000921407
-0.000544786
-0.000150751
0.000259682
0.000685534
0.00112586
0.00157978
0.00204646
0.00252513
0.00301506
0.0035156
0.00402612
0.00454603
0.00507477
0.0056118
0.00615661
0.0067087
0.00726757
0.00783273
0.00840367
0.00897989
0.00956086
0.010146
0.0107349
0.0113267
0.0119209
0.0125168
0.0131134
0.0137101
0.0143057
0.0148992
0.0154892
0.0160743
0.0166525
0.0172219
0.0177799
0.0183233
0.0188484
0.0193495
0.0198142
0.0201856
0.0201646
0.018612
0.018612
-0.000688709
-0.000688709
-0.0021368
-0.00218172
-0.00189027
-0.00153319
-0.00115435
-0.000759222
-0.000348752
7.64355e-05
0.000515669
0.000968251
0.0014335
0.00191074
0.00239935
0.00289873
0.00340832
0.00392759
0.00445604
0.00499317
0.00553853
0.00609167
0.00665215
0.00721952
0.00779337
0.00837326
0.00895873
0.00954935
0.0101446
0.0107441
0.0113472
0.0119533
0.0125619
0.0131723
0.0137838
0.0143953
0.0150061
0.015615
0.0162205
0.0168213
0.0174153
0.0180003
0.0185733
0.0191308
0.0196674
0.0201705
0.0205807
0.0205817
0.0189549
0.0189549
-0.00098026
-0.00098026
-0.00248843
-0.00251395
-0.0021931
-0.00180945
-0.00140753
-0.000992215
-0.00056387
-0.000122676
0.000331042
0.000796869
0.00127434
0.00176299
0.00226233
0.00277191
0.00329128
0.00382001
0.00435768
0.0049039
0.00545828
0.00602044
0.00659001
0.00716661
0.00774989
0.00833948
0.008935
0.00953608
0.0101423
0.0107533
0.0113686
0.0119877
0.0126102
0.0132354
0.0138629
0.0144918
0.0151214
0.0157507
0.0163787
0.017004
0.0176249
0.0182395
0.0188452
0.0194384
0.0200143
0.0205599
0.0210135
0.0210405
0.0193344
0.0193344
-0.0013007
-0.0013007
-0.00287175
-0.00287444
-0.00252102
-0.00210824
-0.00168118
-0.00124395
-0.000796274
-0.000337818
0.000131489
0.000611547
0.00110215
0.00160302
0.00211388
0.0026344
0.00316426
0.00370314
0.00425074
0.00480673
0.00537081
0.00594268
0.00652204
0.0071086
0.00770205
0.0083021
0.00890845
0.00952081
0.0101389
0.0107623
0.0113907
0.0120238
0.0126613
0.0133026
0.0139473
0.014595
0.0152449
0.0158965
0.0165487
0.0172007
0.017851
0.0184979
0.0191391
0.0197717
0.0203907
0.0209834
0.0214853
0.0215428
0.0197526
0.0197526
-0.0016516
-0.0016516
-0.00328776
-0.00326374
-0.00287438
-0.00242986
-0.00197553
-0.00151464
-0.00104616
-0.000569182
-8.31845e-05
0.000412083
0.000916698
0.00143063
0.00195376
0.00248595
0.00302701
0.00357674
0.00413494
0.00470138
0.00527585
0.00585812
0.00644798
0.0070452
0.00764956
0.00826084
0.00887882
0.00950328
0.010134
0.0107708
0.0114133
0.0120615
0.012715
0.0133735
0.0140369
0.0147047
0.0153765
0.016052
0.0167305
0.0174113
0.0180934
0.0187754
0.0194555
0.020131
0.0207974
0.0214418
0.0219972
0.0220902
0.0202119
0.0202119
-0.00203475
-0.00203475
-0.00373751
-0.00368242
-0.00325358
-0.0027746
-0.00229085
-0.00180453
-0.00131376
-0.000816991
-0.000313208
0.00019824
0.000717745
0.00124553
0.0017817
0.00232628
0.00287924
0.00344051
0.00400998
0.00458755
0.00517309
0.00576646
0.00636752
0.00697613
0.00759214
0.00821541
0.00884582
0.00948323
0.0101275
0.0107785
0.0114362
0.0121004
0.0127711
0.0134481
0.0141313
0.0148207
0.0155161
0.0162173
0.016924
0.0176359
0.0183524
0.0190725
0.0197947
0.0205169
0.021235
0.021936
0.0225507
0.0226848
0.0207149
0.0207149
-0.00245218
-0.00245218
-0.00422208
-0.00413102
-0.003659
-0.00314279
-0.00262741
-0.00211386
-0.00159932
-0.0010815
-0.000558848
-3.0261e-05
0.000505
0.00104744
0.00159739
0.00215508
0.00272062
0.0032941
0.00387553
0.0044649
0.00506219
0.00566735
0.00628032
0.00690105
0.00752946
0.00816551
0.00880915
0.00946034
0.0101191
0.0107853
0.011459
0.0121404
0.0128293
0.013526
0.0142305
0.0149429
0.0156634
0.0163922
0.0171292
0.0178745
0.018628
0.0193892
0.0201571
0.02093
0.0217043
0.0224671
0.0231468
0.0233285
0.0212646
0.0212646
-0.00290618
-0.00290618
-0.00474256
-0.00461004
-0.004091
-0.00353474
-0.0029855
-0.00244293
-0.00190312
-0.00136302
-0.000820414
-0.000273742
0.000278123
0.000835996
0.00140047
0.00197196
0.00255077
0.00313713
0.00373119
0.00433304
0.00494277
0.00556042
0.00618602
0.00681959
0.00746117
0.00811079
0.00876848
0.00943431
0.0101084
0.0107907
0.0114816
0.0121811
0.0128895
0.0136071
0.0143342
0.0150712
0.0158185
0.0165766
0.017346
0.0181272
0.0189204
0.0197258
0.020543
0.0213707
0.0222059
0.023036
0.0237871
0.0240235
0.0218643
0.0218643
-0.00339934
-0.00339934
-0.00530006
-0.00511999
-0.00454995
-0.00395077
-0.00336546
-0.00279206
-0.00222551
-0.00166187
-0.00109826
-0.000532579
3.67252e-05
0.000610799
0.00119051
0.00177649
0.00236926
0.00296917
0.00357652
0.00419154
0.00481439
0.00544524
0.00608419
0.00673137
0.00738689
0.00805088
0.00872346
0.0094048
0.0100951
0.0107946
0.0115036
0.0122223
0.0129514
0.0136911
0.0144422
0.0152053
0.0159811
0.0167706
0.0175746
0.018394
0.0192298
0.0200826
0.0209528
0.0218397
0.0227407
0.0236435
0.0244725
0.0247716
0.0225179
0.0225179
-0.00393457
-0.00393457
-0.00589569
-0.0056613
-0.00503617
-0.00439121
-0.0037676
-0.00316159
-0.00256685
-0.00197846
-0.00139281
-0.000807203
-0.000219646
0.00037138
0.000967032
0.0015682
0.00217558
0.00278972
0.00341104
0.0040399
0.00467658
0.00532134
0.00597439
0.00663594
0.0073062
0.00798537
0.0086737
0.00937145
0.0100789
0.0107965
0.0115247
0.0122638
0.0130147
0.013778
0.0145544
0.0153452
0.0161513
0.016974
0.0178148
0.0186751
0.0195564
0.02046
0.021387
0.0223374
0.0233093
0.0242907
0.0252045
0.0255751
0.0232295
0.0232295
-0.0045152
-0.0045152
-0.00653054
-0.00623436
-0.00554997
-0.0048564
-0.00419228
-0.00355192
-0.00292756
-0.00231323
-0.00170452
-0.00109811
-0.000491509
0.000117202
0.000729495
0.00134652
0.00196918
0.00259821
0.00323418
0.00387758
0.0045288
0.00518821
0.00585612
0.00653282
0.00721863
0.00791385
0.00861881
0.0093339
0.0100595
0.0107963
0.0115446
0.0123054
0.0130793
0.0138673
0.0146707
0.0154907
0.0163289
0.0171869
0.0180667
0.0189705
0.0199003
0.0208582
0.021846
0.0228645
0.0239125
0.0249783
0.0259839
0.0264359
0.0240038
0.0240038
-0.00514497
-0.00514497
-0.00720566
-0.00683948
-0.00609163
-0.00534664
-0.00463988
-0.00396346
-0.00330809
-0.00266668
-0.00203394
-0.00140587
-0.000779456
-0.000152348
0.000477267
0.00111081
0.00174942
0.00239401
0.00304531
0.00370395
0.00437045
0.00504526
0.00572881
0.00642149
0.00712369
0.00783583
0.00855835
0.00929173
0.0100365
0.0107934
0.0115632
0.0123466
0.0131449
0.0139592
0.0147909
0.0156418
0.0165139
0.0174093
0.0183306
0.0192805
0.0202619
0.0212776
0.0223303
0.0234215
0.0245508
0.0257072
0.0268118
0.027356
0.0248461
0.0248461
-0.00582814
-0.00582814
-0.00792205
-0.0074769
-0.00666139
-0.00586226
-0.0051108
-0.00439667
-0.00370897
-0.00303938
-0.00238167
-0.00173114
-0.00108417
-0.000437969
0.000209632
0.000860356
0.00151558
0.0021764
0.00284373
0.00351833
0.00420085
0.00489185
0.00559185
0.00630136
0.00702085
0.00775084
0.00849187
0.00924456
0.0100096
0.0107878
0.01158
0.0123875
0.0132114
0.0140533
0.014915
0.0157985
0.0167064
0.0176414
0.0186065
0.0196053
0.0206415
0.0217187
0.0228403
0.024009
0.025225
0.0264779
0.0276891
0.0283373
0.0257624
0.0257624
-0.00656955
-0.00656955
-0.00868065
-0.00814675
-0.00725942
-0.00640356
-0.00560544
-0.00485206
-0.00413077
-0.00343197
-0.00274842
-0.00207464
-0.00140641
-0.000740456
-7.42185e-05
0.000594333
0.00126682
0.00194456
0.00262863
0.00331994
0.00401926
0.00472726
0.00544458
0.0061718
0.00690951
0.00765832
0.00841888
0.00919193
0.00997829
0.0107789
0.0115949
0.0124276
0.0132786
0.0141496
0.0150428
0.0159608
0.0169065
0.0178832
0.0188947
0.0199453
0.0210394
0.0221817
0.0233766
0.0246276
0.0259356
0.0272911
0.0286163
0.0293815
0.0267591
0.0267591
-0.00737469
-0.00737469
-0.0094823
-0.00884908
-0.00788586
-0.00697085
-0.00612424
-0.00533017
-0.00457414
-0.00384517
-0.00313496
-0.00243721
-0.00174705
-0.00106071
-0.000375203
0.000311816
0.00100224
0.00169759
0.00239913
0.00310792
0.00382485
0.00455071
0.00528624
0.00603212
0.00678904
0.0075577
0.00833888
0.00913341
0.00994226
0.0107666
0.0116076
0.0124669
0.0133464
0.0142481
0.0151746
0.0161288
0.0171143
0.018135
0.0191954
0.0203006
0.021456
0.0226673
0.0239396
0.0252776
0.026683
0.028147
0.0295938
0.0304902
0.0278439
0.0278439
-0.00824983
-0.00824983
-0.0103277
-0.00958378
-0.0085408
-0.00756441
-0.00666766
-0.0058316
-0.00503979
-0.00427978
-0.00354217
-0.00281979
-0.00210708
-0.00139974
-0.000694356
1.17634e-05
0.000720782
0.00143445
0.00215422
0.00288129
0.00361668
0.00436132
0.00511602
0.00588157
0.00665875
0.00744837
0.00825131
0.00906853
0.00990113
0.0107504
0.0116179
0.0125053
0.0134147
0.0143487
0.0153102
0.0163027
0.0173301
0.0183971
0.0195091
0.0206719
0.0218919
0.0231758
0.0245298
0.0259596
0.0274676
0.029046
0.0306218
0.0316646
0.0290251
0.0290251
-0.00920214
-0.00920214
-0.0112175
-0.0103507
-0.00922425
-0.0081845
-0.00723617
-0.006357
-0.00552849
-0.00473669
-0.00397103
-0.00322342
-0.0024876
-0.00175869
-0.00103284
-0.000306996
0.000421291
0.00115401
0.00189278
0.00263897
0.00339374
0.00415811
0.004933
0.0057193
0.00651789
0.00732966
0.0081556
0.0089968
0.00985451
0.0107302
0.0116255
0.0125425
0.0134836
0.0144517
0.01545
0.0164826
0.0175541
0.0186699
0.0198361
0.0210595
0.0223475
0.0237077
0.0251477
0.0266738
0.0282895
0.0299879
0.0317001
0.0329057
0.0303122
0.0303122
-0.0102398
-0.0102398
-0.0121521
-0.0111494
-0.00993617
-0.00883139
-0.00783027
-0.00690705
-0.00604109
-0.00521688
-0.00442262
-0.00364927
-0.00288983
-0.00213883
-0.00139196
-0.000645776
0.000102455
0.000854958
0.00161355
0.00237976
0.00315487
0.00394
0.0047362
0.00554443
0.00636565
0.00720086
0.00805116
0.00891775
0.00980202
0.0107056
0.0116304
0.0125787
0.0135531
0.014557
0.0155941
0.016669
0.0177869
0.0189539
0.020177
0.021464
0.0228233
0.0242637
0.0257937
0.0274207
0.0291489
0.0309725
0.0328279
0.0342139
0.0317157
0.0317157
-0.0113722
-0.0113722
-0.0131317
-0.0119794
-0.0106765
-0.00950532
-0.00845049
-0.0074825
-0.00657854
-0.00572143
-0.00489815
-0.00409865
-0.00331516
-0.0025416
-0.00177316
-0.00100604
-0.000237185
0.000535874
0.00131515
0.00210232
0.00289879
0.00370582
0.00452452
0.00535594
0.00620115
0.00706122
0.00793735
0.00883087
0.00974329
0.0106764
0.0116324
0.0126137
0.0136234
0.014665
0.015743
0.0168623
0.0180289
0.0192496
0.0205324
0.021886
0.0233199
0.0248441
0.0264681
0.0282002
0.0300455
0.0319993
0.0340045
0.0355893
0.0332478
0.0332478
-0.0126102
-0.0126102
-0.0141563
-0.0128402
-0.011445
-0.0102065
-0.00909737
-0.00808417
-0.00714184
-0.00625154
-0.00539894
-0.00457299
-0.0037651
-0.00296856
-0.00217807
-0.00138942
-0.000599252
0.000195157
0.000996015
0.00180515
0.00262412
0.00345424
0.00429675
0.00515277
0.00602344
0.00690993
0.00781351
0.00873563
0.00967795
0.0106424
0.0116314
0.0126477
0.0136946
0.0147761
0.015897
0.017063
0.0182807
0.0195578
0.0209031
0.0223263
0.0238381
0.0254495
0.0271713
0.0290125
0.0309789
0.0330671
0.0352282
0.0370315
0.034922
0.034922
-0.0139662
-0.0139662
-0.0152256
-0.013731
-0.0122414
-0.0109352
-0.00977149
-0.00871291
-0.00773209
-0.0068085
-0.00592646
-0.00507387
-0.00424133
-0.00342147
-0.00260847
-0.00179773
-0.000985547
-0.000168965
0.000654429
0.00148662
0.00232927
0.00318383
0.00405158
0.00493374
0.0058315
0.00674611
0.00767894
0.00863153
0.00960566
0.0106035
0.0116275
0.0126808
0.013767
0.0148906
0.0160569
0.0172719
0.0185433
0.0198793
0.0212898
0.0227856
0.0243785
0.0260805
0.0279034
0.0298574
0.0319486
0.0341749
0.036497
0.038539
0.0367535
0.0367535
-0.0154544
-0.0154544
-0.016339
-0.0146508
-0.0130657
-0.0116917
-0.0104735
-0.00936965
-0.0083505
-0.00739372
-0.00648228
-0.00560302
-0.00474568
-0.00390224
-0.00306634
-0.00223295
-0.00139806
-0.000558449
0.000288492
0.0011449
0.00201255
0.00289298
0.00378756
0.00469755
0.00562421
0.00656885
0.00753291
0.00851802
0.0095261
0.0105594
0.0116207
0.0127133
0.0138412
0.0150093
0.0162232
0.0174899
0.0188173
0.020215
0.0216935
0.0232648
0.0249417
0.0267374
0.0286647
0.0307345
0.0329535
0.0353208
0.0378085
0.04011
0.0387596
0.0387596
-0.0170916
-0.0170916
-0.0174955
-0.0155988
-0.0139174
-0.0124761
-0.0112039
-0.0100554
-0.00899834
-0.00800872
-0.00706813
-0.00616232
-0.00528018
-0.00441298
-0.00355383
-0.00269728
-0.00183898
-0.00097545
-0.000103891
0.000777984
0.00167207
0.00257997
0.00350311
0.00444281
0.00540038
0.00637716
0.00737466
0.00839459
0.00943896
0.0105102
0.0116112
0.0127456
0.0139177
0.0151327
0.0163969
0.0177177
0.019104
0.020566
0.0221152
0.0237647
0.0255284
0.0274206
0.0294551
0.0316432
0.0339923
0.0365027
0.0391594
0.0417415
0.0409598
0.0409598
-0.0188968
-0.0188968
-0.0186937
-0.0165739
-0.0147963
-0.0132887
-0.0119636
-0.0107712
-0.00967699
-0.00865514
-0.00768587
-0.00675382
-0.00584699
-0.00495597
-0.0040733
-0.00319311
-0.0023107
-0.00142233
-0.000525011
0.000383685
0.00130575
0.00224287
0.0031965
0.00416801
0.00515871
0.00617
0.0072034
0.00826069
0.00934396
0.0104558
0.0115992
0.0127781
0.0139971
0.0152618
0.0165789
0.0179567
0.0194045
0.0209334
0.022556
0.0242864
0.0261394
0.0281305
0.0302743
0.0325828
0.0350634
0.0377179
0.0405459
0.0434294
0.0433761
0.0433761
-0.0208924
-0.0208924
-0.0199316
-0.0175749
-0.0157022
-0.01413
-0.0127533
-0.0115183
-0.010388
-0.00933477
-0.00833751
-0.00737971
-0.00644849
-0.00553369
-0.00462732
-0.00372304
-0.00281582
-0.00190166
-0.000977372
-4.03948e-05
0.000911354
0.00187961
0.00286587
0.0038715
0.00489782
0.00594624
0.00701829
0.00811577
0.00924085
0.0103962
0.011585
0.0128114
0.0140802
0.0153975
0.0167705
0.0182079
0.01972
0.0213185
0.0230171
0.0248307
0.0267753
0.0288673
0.031122
0.033552
0.0361648
0.0389633
0.0419634
0.0451684
0.0460333
0.0460333
-0.0231043
-0.0231043
-0.0212068
-0.0186008
-0.0166349
-0.0150002
-0.0135739
-0.0122979
-0.0111328
-0.0100495
-0.00902521
-0.00804237
-0.0070872
-0.00614881
-0.00521864
-0.00428989
-0.00335717
-0.00241623
-0.00146369
-0.000496853
0.000486433
0.00148794
0.00250919
0.00355151
0.00461623
0.0057047
0.00681845
0.00795929
0.0091294
0.0103315
0.011569
0.0128461
0.014168
0.015541
0.0169729
0.0184729
0.0200519
0.0217227
0.0234995
0.0253985
0.0274366
0.0296309
0.0319976
0.0345494
0.037294
0.0402352
0.0434067
0.0469519
0.0489593
0.0489593
-0.0255627
-0.0255627
-0.022516
-0.0196506
-0.0175943
-0.0158999
-0.0144264
-0.0131113
-0.0119134
-0.0108014
-0.00975125
-0.00874431
-0.00776583
-0.00680419
-0.00585022
-0.00489666
-0.00393778
-0.00296904
-0.00198688
-0.000988494
2.83483e-05
0.00106544
0.00212426
0.00320614
0.00431232
0.0054441
0.00660296
0.00779066
0.00900939
0.0102619
0.0115516
0.012883
0.0142613
0.0156934
0.0171874
0.0187529
0.0204018
0.0221472
0.0240046
0.0259908
0.0281237
0.0304213
0.0329001
0.0355732
0.0384479
0.0415294
0.04487
0.0487715
0.0521855
0.0521855
-0.028303
-0.028303
-0.0238553
-0.0207234
-0.0185807
-0.0168298
-0.0153118
-0.0139602
-0.0127314
-0.0115925
-0.0105181
-0.00948823
-0.00848727
-0.00750286
-0.00652521
-0.00554659
-0.00456088
-0.0035633
-0.00255009
-0.00151833
-0.000465734
0.000609476
0.00170875
0.00283334
0.00398439
0.0051631
0.00637084
0.0076093
0.00888059
0.0101875
0.0115334
0.0129228
0.0143614
0.0158561
0.0174155
0.0190497
0.0207711
0.0225937
0.0245335
0.0266084
0.028837
0.031238
0.0338283
0.0366212
0.0396234
0.0428412
0.0463465
0.0506171
0.0557472
0.0557472
-0.0313668
-0.0313668
-0.0252197
-0.0218186
-0.0195944
-0.017791
-0.0162316
-0.0148464
-0.0135892
-0.0124255
-0.0113285
-0.010277
-0.00925464
-0.00824811
-0.00724702
-0.00624315
-0.00523001
-0.00420252
-0.00315675
-0.00208966
-0.000998941
0.000117165
0.00126004
0.0024308
0.00363048
0.00486011
0.00612092
0.00741443
0.00874266
0.0101083
0.0115147
0.0129665
0.0144693
0.0160304
0.0176586
0.0193647
0.0211613
0.0230633
0.0250874
0.0272521
0.0295767
0.0320806
0.0347811
0.037691
0.0408168
0.0441655
0.0478293
0.0524771
0.0596844
0.0596844
-0.0348035
-0.0348035
-0.026604
-0.0229367
-0.020637
-0.0187853
-0.0171884
-0.0157726
-0.0144898
-0.0133038
-0.0121862
-0.0111149
-0.0100724
-0.00904457
-0.00802046
-0.00699127
-0.00595013
-0.00489167
-0.00381175
-0.00270727
-0.00157587
-0.000415846
0.000774066
0.00199484
0.0032473
0.00453229
0.00585081
0.00720417
0.00859419
0.0100234
0.0114951
0.0130139
0.0145854
0.0162171
0.0179181
0.0196994
0.0215742
0.0235579
0.025668
0.0279235
0.0303444
0.0329505
0.0357591
0.0387831
0.0420279
0.0455012
0.0493157
0.0543423
0.0640469
0.0640469
-0.0386786
-0.0386786
-0.028009
-0.0240869
-0.021719
-0.0198244
-0.0181945
-0.0167523
-0.0154477
-0.0142426
-0.0131074
-0.0120187
-0.0109579
-0.00991019
-0.00886384
-0.00780955
-0.00673998
-0.00564947
-0.00453369
-0.00338943
-0.00221435
-0.0010068
0.000234319
0.00150979
0.00282018
0.00416605
0.00554812
0.00696742
0.00842552
0.00992468
0.0114681
0.0130603
0.0147068
0.0164153
0.018195
0.0200574
0.022016
0.0240867
0.0262876
0.0286383
0.0311593
0.0338707
0.0367898
0.0399288
0.043292
0.0468876
0.0508472
0.0562492
0.0689387
0.0689387
-0.04315
-0.04315
-0.0295185
-0.0253667
-0.0229437
-0.0210173
-0.0193649
-0.0179062
-0.0165888
-0.0153728
-0.014227
-0.0131266
-0.012052
-0.0109874
-0.00992017
-0.00884053
-0.00774069
-0.00661465
-0.00545794
-0.00426729
-0.00304043
-0.00177587
-0.000472726
0.000869467
0.00225096
0.00367197
0.00513284
0.0066343
0.00817762
0.00976487
0.0113991
0.0130848
0.0148277
0.0166356
0.0185181
0.0204872
0.0225572
0.0247445
0.027068
0.0295478
0.0322049
0.0350593
0.0381277
0.0414206
0.0449397
0.0486909
0.0528208
0.0586087
0.0748547
0.0748547
-0.0491617
-0.0491617
-0.0320095
-0.0276948
-0.0252662
-0.0233571
-0.0217294
-0.0202969
-0.0190027
-0.0178038
-0.0166662
-0.0155632
-0.0144738
-0.0133813
-0.0122728
-0.0111381
-0.00996964
-0.00876186
-0.00751077
-0.00621376
-0.00486924
-0.00347649
-0.00203532
-0.000545898
0.000991471
0.00257658
0.00420955
0.00589103
0.00762246
0.00940633
0.0112464
0.0131479
0.015118
0.0171658
0.0193027
0.0215424
0.023901
0.0263967
0.0290496
0.0318807
0.0349104
0.0381567
0.0416319
0.0453393
0.0492694
0.053414
0.0579177
0.0642258
0.0847337
0.0847337
-0.0638126
-0.0638126
-0.0426171
-0.0383447
-0.0360785
-0.0343184
-0.0327937
-0.031402
-0.0300786
-0.0287772
-0.027465
-0.026119
-0.0247233
-0.0232676
-0.0217456
-0.020154
-0.0184916
-0.0167588
-0.0149566
-0.0130868
-0.0111512
-0.00915141
-0.00708857
-0.0049632
-0.0027749
-0.000522134
0.00179792
0.00418961
0.00665899
0.009214
0.0118647
0.0146233
0.0175045
0.0205254
0.0237053
0.0270658
0.0306299
0.0344215
0.0384638
0.0427772
0.0473762
0.0522654
0.0574338
0.062848
0.0684464
0.0741512
0.08003
0.0875761
0.113353
0.113353
-0.132548
-0.132548
-0.10601
-0.100363
-0.0962411
-0.092191
-0.0880413
-0.083787
-0.0794481
-0.0750496
-0.0706161
-0.0661697
-0.061729
-0.0573089
-0.0529205
-0.0485711
-0.0442644
-0.0400009
-0.0357778
-0.0315892
-0.0274261
-0.0232762
-0.0191242
-0.0149515
-0.0107359
-0.00645165
-0.00206913
0.00244543
0.00713013
0.0120276
0.0171852
0.0226552
0.0284941
0.0347631
0.0415267
0.0488515
0.0568043
0.0654485
0.0748396
0.0850181
0.0960003
0.107765
0.120235
0.133258
0.146575
0.159812
0.17261
0.185953
0.220413
0.220413
-0.498659
-0.498659
-0.422412
-0.363069
-0.315453
-0.275836
-0.242392
-0.213866
-0.189316
-0.168013
-0.149389
-0.132992
-0.11846
-0.105497
-0.0938625
-0.0833546
-0.0738037
-0.0650651
-0.0570127
-0.0495351
-0.0425315
-0.0359086
-0.0295776
-0.0234514
-0.0174425
-0.0114599
-0.00540714
0.000820974
0.00734111
0.0142848
0.0218021
0.0300659
0.0392761
0.0496652
0.0615036
0.0751052
0.0908332
0.109105
0.130397
0.155243
0.184234
0.218009
0.257232
0.302562
0.354611
0.413887
0.480882
0.557465
0.648015
0.648015
-0.498659
-0.498659
-0.422412
-0.363069
-0.315453
-0.275836
-0.242392
-0.213866
-0.189316
-0.168013
-0.149389
-0.132992
-0.11846
-0.105497
-0.0938625
-0.0833546
-0.0738037
-0.0650651
-0.0570127
-0.0495351
-0.0425315
-0.0359086
-0.0295776
-0.0234514
-0.0174425
-0.0114599
-0.00540714
0.000820974
0.00734111
0.0142848
0.0218021
0.0300659
0.0392761
0.0496652
0.0615036
0.0751052
0.0908332
0.109105
0.130397
0.155243
0.184234
0.218009
0.257232
0.302562
0.354611
0.413887
0.480882
0.557465
0.648015
0.648015
VECTORS velocity double
-7.13675e-05 7.13674e-05 0.0
7.13675e-05 -7.13674e-05 0.0
0.000315506 -0.000172771 0.0
0.000677048 -0.000188771 0.0
0.00104934 -0.000183524 0.0
0.00140754 -0.000174673 0.0
0.00174758 -0.000165363 0.0
0.00206898 -0.000156046 0.0
0.00237183 -0.000146797 0.0
0.00265627 -0.000137642 0.0
0.00292251 -0.000128597 0.0
0.00317077 -0.000119668 0.0
0.0034013 -0.000110857 0.0
0.00361432 -0.000102162 0.0
0.00381005 -9.3575e-05 0.0
0.00398872 -8.50885e-05 0.0
0.0041505 -7.66909e-05 0.0
0.00429556 -6.83691e-05 0.0
0.00442403 -6.01088e-05 0.0
0.00453604 -5.18945e-05 0.0
0.00463164 -4.37096e-05 0.0
0.00471089 -3.5537e-05 0.0
0.00477378 -2.73588e-05 0.0
0.0048203 -1.91564e-05 0.0
0.00485037 -1.09109e-05 0.0
0.00486388 -2.60288e-06 0.0
0.00486069 5.78752e-06 0.0
0.00484063 1.42804e-05 0.0
0.00480345 2.28962e-05 0.0
0.0047489 3.16552e-05 0.0
0.00467667 4.05781e-05 0.0
0.0045864 4.96849e-05 0.0
0.00447772 5.89954e-05 0.0
0.0043502 6.85284e-05 0.0
0.00420337 7.83014e-05 0.0
0.00403674 8.83298e-05 0.0
0.00384978 9.86261e-05 0.0
0.00364196 0.000109199 0.0
0.00341271 0.000120052 0.0
0.00316147 0.00013118 0.0
0.00288773 0.000142569 0.0
0.00259096 0.000154192 0.0
0.00227077 0.000166004 0.0
0.00192683 0.00017793 0.0
0.00155908 0.000189824 0.0
0.00116816 0.000201092 0.0
0.00075887 0.000208203 0.0
0.00035856 0.000192107 0.0
8.32263e-05 8.32262e-05 0.0
-8.32263e-05 -8.32262e-05 0.0
7.13675e-05 -7.13674e-05 0.0
-7.13675e-05 7.13674e-05 0.0
-0.000315506 0.000172771 0.0
-0.000677048 0.000188771 0.0
-0.00104934 0.000183524 0.0
-0.00140754 0.000174673 0.0
-0.00174758 0.000165363 0.0
-0.00206898 0.000156046 0.0
-0.00237183 0.000146797 0.0
-0.00265627 0.000137642 0.0
-0.00292251 0.000128597 0.0
-0.00317077 0.000119668 0.0
-0.0034013 0.000110857 0.0
-0.00361432 0.000102162 0.0
-0.00381005 9.3575e-05 0.0
-0.00398872 8.50885e-05 0.0
-0.0041505 7.66909e-05 0.0
-0.00429556 6.83691e-05 0.0
-0.00442403 6.01088e-05 0.0
-0.00453604 5.18945e-05 0.0
-0.00463164 4.37096e-05 0.0
-0.00471089 3.5537e-05 0.0
-0.00477378 2.73588e-05 0.0
-0.0048203 1.91564e-05 0.0
-0.00485037 1.09109e-05 0.0
-0.00486388 2.60288e-06 0.0
-0.00486069 -5.78752e-06 0.0
-0.00484063 -1.42804e-05 0.0
-0.00480345 -2.28962e-05 0.0
-0.0047489 -3.16552e-05 0.0
-0.00467667 -4.05781e-05 0.0
-0.0045864 -4.96849e-05 0.0
-0.00447772 -5.89954e-05 0.0
-0.0043502 -6.85284e-05 0.0
-0.00420337 -7.83014e-05 0.0
-0.00403674 -8.83298e-05 0.0
-0.00384978 -9.86261e-05 0.0
-0.00364196 -0.000109199 0.0
-0.00341271 -0.000120052 0.0
-0.00316147 -0.00013118 0.0
-0.00288773 -0.000142569 0.0
-0.00259096 -0.000154192 0.0
-0.00227077 -0.000166004 0.0
-0.00192683 -0.00017793 0.0
-0.00155908 -0.000189824 0.0
-0.00116816 -0.000201092 0.0
-0.00075887 -0.000208203 0.0
-0.00035856 -0.000192107 0.0
-8.32263e-05 -8.32262e-05 0.0
8.32263e-05 8.32262e-05 0.0
0.000146823 -0.000289558 0.0
-0.000146823 0.000289558 0.0
-0.000543379 0.000595274 0.0
-0.00105892 0.000643347 0.0
-0.00158461 0.000626938 0.0
-0.0020943 0.000599145 0.0
-0.00258287 0.000569493 0.0
-0.00304894 0.000539397 0.0
-0.00349179 0.000509136 0.0
-0.00391088 0.000478837 0.0
-0.00430582 0.000448585 0.0
-0.00467631 0.000418436 0.0
-0.00502213 0.000388428 0.0
-0.0053431 0.000358582 0.0
-0.00563911 0.000328902 0.0
-0.00591007 0.000299383 0.0
-0.0061559 0.000270009 0.0
-0.00637655 0.000240759 0.0
-0.00657196 0.000211603 0.0
-0.00674206 0.000182508 0.0
-0.0068868 0.000153436 0.0
-0.00700608 0.000124344 0.0
-0.00709982 9.51879e-05 0.0
-0.0071679 6.59214e-05 0.0
-0.00721018 3.64951e-05 0.0
-0.00722651 6.85846e-06 0.0
-0.0072167 -2.30402e-05 0.0
-0.00718054 -5.32535e-05 0.0
-0.00711781 -8.38341e-05 0.0
-0.00702824 -0.000114834 0.0
-0.00691157 -0.000146306 0.0
-0.00676749 -0.000178299 0.0
-0.00659569 -0.000210859 0.0
-0.00639585 -0.000244028 0.0
-0.00616764 -0.000277843 0.0
-0.00591073 -0.000312332 0.0
-0.0056248 -0.000347509 0.0
-0.00530956 -0.000383376 0.0
-0.00496477 -0.000419913 0.0
-0.00459025 -0.000457074 0.0
-0.0041859 -0.000494777 0.0
-0.00375174 -0.000532897 0.0
-0.00328799 -0.000571246 0.0
-0.00279507 -0.000609547 0.0
-0.00227374 -0.000647289 0.0
-0.00172567 -0.000682616 0.0
-0.00115681 -0.000704827 0.0
-0.00059604 -0.000656563 0.0
-0.000161846 -0.000328298 0.0
0.000161846 0.000328298 0.0
0.000161323 -0.000597705 0.0
-0.000161323 0.000597705 0.0
-0.000588473 0.00111083 0.0
-0.001136 0.00119085 0.0
-0.00169305 0.00116217 0.0
-0.00223316 0.00111371 0.0
-0.00275115 0.00106148 0.0
-0.0032456 0.00100793 0.0
-0.00371572 0.000953578 0.0
-0.00416093 0.000898701 0.0
-0.00458076 0.000843494 0.0
-0.00497485 0.000788101 0.0
-0.0053429 0.000732628 0.0
-0.00568469 0.000677145 0.0
-0.00600004 0.000621696 0.0
-0.00628879 0.000566304 0.0
-0.00655084 0.000510969 0.0
-0.00678607 0.000455678 0.0
-0.00699439 0.000400405 0.0
-0.00717569 0.000345113 0.0
-0.00732988 0.000289756 0.0
-0.00745685 0.000234279 0.0
-0.00755648 0.000178624 0.0
-0.00762864 0.000122725 0.0
-0.00767318 6.65137e-05 0.0
-0.00768993 9.91874e-06 0.0
-0.00767871 -4.71338e-05 0.0
-0.00763931 -0.000104719 0.0
-0.0075715 -0.00016291 0.0
-0.00747505 -0.000221782 0.0
-0.00734967 -0.000281404 0.0
-0.00719511 -0.000341843 0.0
-0.00701107 -0.000403156 0.0
-0.00679724 -0.000465394 0.0
-0.00655334 -0.000528591 0.0
-0.00627907 -0.000592767 0.0
-0.00597416 -0.000657918 0.0
-0.00563835 -0.000724008 0.0
-0.00527145 -0.000790966 0.0
-0.00487333 -0.000858668 0.0
-0.00444394 -0.000926928 0.0
-0.00398336 -0.000995476 0.0
-0.00349184 -0.00106394 0.0
-0.00296986 -0.00113177 0.0
-0.00241821 -0.00119804 0.0
-0.0018386 -0.00125955 0.0
-0.00123708 -0.00129828 0.0
-0.000642863 -0.00121809 0.0
-0.00017684 -0.000666984 0.0
0.00017684 0.000666984 0.0
0.000164753 -0.00092378 0.0
-0.000164753 0.00092378 0.0
-0.000600723 0.00164788 0.0
-0.00115889 0.00175951 0.0
-0.00172599 0.00171767 0.0
-0.0022753 0.00164763 0.0
-0.0028017 0.00157195 0.0
-0.00330387 0.00149407 0.0
-0.00378109 0.00141478 0.0
-0.00423283 0.00133446 0.0
-0.00465869 0.00125342 0.0
-0.00505832 0.00117189 0.0
-0.00543148 0.00109004 0.0
-0.00577795 0.00100799 0.0
-0.00609758 0.000925824 0.0
-0.00639023 0.000843587 0.0
-0.0066558 0.0007613 0.0
-0.00689418 0.000678961 0.0
-0.00710529 0.000596547 0.0
-0.00728904 0.000514019 0.0
-0.00744533 0.000431325 0.0
-0.00757405 0.000348401 0.0
-0.00767509 0.000265175 0.0
-0.00774832 0.000181564 0.0
-0.00779359 9.74838e-05 0.0
-0.00781073 1.28424e-05 0.0
-0.00779955 -7.2454e-05 0.0
-0.00775985 -0.000158501 0.0
-0.00769139 -0.000245392 0.0
-0.00759393 -0.000333221 0.0
-0.00746719 -0.000422076 0.0
-0.00731089 -0.000512036 0.0
-0.00712473 -0.000603173 0.0
-0.00690839 -0.000695541 0.0
-0.00666156 -0.000789175 0.0
-0.00638392 -0.000884087 0.0
-0.00607518 -0.000980251 0.0
-0.00573506 -0.0010776 0.0
-0.00536332 -0.00117601 0.0
-0.00495978 -0.00127529 0.0
-0.00452434 -0.00137514 0.0
-0.00405702 -0.00147516 0.0
-0.00355799 -0.0015748 0.0
-0.00302763 -0.00167326 0.0
-0.00246664 -0.00176918 0.0
-0.00187661 -0.00185804 0.0
-0.00126352 -0.00191441 0.0
-0.000656986 -0.00180271 0.0
-0.000180777 -0.0010246 0.0
0.000180777 0.0010246 0.0
0.000167319 -0.00125585 0.0
-0.000167319 0.00125585 0.0
-0.00061073 0.00219519 0.0
-0.00117847 0.0023381 0.0
-0.0017544 0.00228211 0.0
-0.00231146 0.00218956 0.0
-0.00284464 0.00208961 0.0
-0.00335277 0.00198671 0.0
-0.00383525 0.00188185 0.0
-0.00429166 0.00177554 0.0
-0.00472166 0.00166819 0.0
-0.00512499 0.00156008 0.0
-0.00550143 0.00145145 0.0
-0.00585085 0.00134247 0.0
-0.00617311 0.00123324 0.0
-0.00646811 0.00112383 0.0
-0.00673579 0.00101429 0.0
-0.00697605 0.000904617 0.0
-0.00718883 0.000794786 0.0
-0.00737406 0.000684757 0.0
-0.00753166 0.000574469 0.0
-0.00766153 0.000463846 0.0
-0.00776356 0.0003528 0.0
-0.00783762 0.000241233 0.0
-0.00788358 0.000129039 0.0
-0.00790125 1.61054e-05 0.0
-0.00789046 -9.76834e-05 0.0
-0.00785099 -0.000212445 0.0
-0.0077826 -0.000328297 0.0
-0.00768502 -0.000445353 0.0
-0.00755798 -0.000563722 0.0
-0.00740117 -0.000683502 0.0
-0.00721427 -0.000804777 0.0
-0.00699693 -0.000927614 0.0
-0.00674881 -0.00105205 0.0
-0.00646956 -0.0011781 0.0
-0.00615882 -0.00130572 0.0
-0.00581627 -0.00143481 0.0
-0.00544159 -0.00156521 0.0
-0.00503455 -0.00169667 0.0
-0.00459493 -0.0018288 0.0
-0.00412267 -0.00196108 0.0
-0.0036178 -0.00209278 0.0
-0.00308056 -0.00222287 0.0
-0.00251151 -0.00234961 0.0
-0.00191204 -0.00246712 0.0
-0.00128803 -0.00254243 0.0
-0.000669618 -0.00239963 0.0
-0.000184063 -0.00138944 0.0
0.000184063 0.00138944 0.0
0.000170603 -0.00159377 0.0
-0.000170603 0.00159377 0.0
-0.000623253 0.00275333 0.0
-0.00120265 0.0029271 0.0
-0.0017893 0.00285569 0.0
-0.00235572 0.00273944 0.0
-0.00289704 0.00261423 0.0
-0.00341229 0.00248546 0.0
-0.00390101 0.00235431 0.0
-0.00436292 0.0022214 0.0
-0.00479778 0.00208719 0.0
-0.00520541 0.00195204 0.0
-0.00558568 0.00181622 0.0
-0.00593849 0.00167993 0.0
-0.00626378 0.00154332 0.0
-0.00656149 0.00140647 0.0
-0.00683158 0.00126942 0.0
-0.007074 0.00113218 0.0
-0.00728871 0.00099472 0.0
-0.00747565 0.000856998 0.0
-0.00763477 0.000718938 0.0
-0.00776598 0.000580449 0.0
-0.00786918 0.000441425 0.0
-0.00794425 0.000301746 0.0
-0.00799105 0.000161285 0.0
-0.00800942 1.9905e-05 0.0
-0.00799916 -0.000122535 0.0
-0.00796005 -0.000266178 0.0
-0.00789184 -0.000411167 0.0
-0.00779425 -0.000557641 0.0
-0.00766699 -0.000705734 0.0
-0.00750973 -0.000855567 0.0
-0.0073221 -0.00100724 0.0
-0.00710374 -0.00116085 0.0
-0.00685425 -0.00131643 0.0
-0.00657324 -0.00147399 0.0
-0.00626028 -0.00163351 0.0
-0.00591498 -0.00179486 0.0
-0.00553695 -0.00195786 0.0
-0.00512584 -0.00212219 0.0
-0.00468133 -0.00228741 0.0
-0.0042032 -0.00245287 0.0
-0.00369135 -0.00261771 0.0
-0.00314584 -0.0027807 0.0
-0.00256699 -0.0029397 0.0
-0.001956 -0.0030875 0.0
-0.00131861 -0.00318344 0.0
-0.00068555 -0.0030101 0.0
-0.000188289 -0.00176179 0.0
0.000188289 0.00176179 0.0
0.000174824 -0.0019392 0.0
-0.000174824 0.0019392 0.0
-0.000638963 0.00332469 0.0
-0.00123258 0.00352875 0.0
-0.00183225 0.00344037 0.0
-0.00241003 0.00329897 0.0
-0.00296124 0.00314725 0.0
-0.00348512 0.00299156 0.0
-0.00398143 0.00283324 0.0
-0.00445001 0.00267296 0.0
-0.00489076 0.00251124 0.0
-0.00530361 0.00234847 0.0
-0.00568852 0.00218497 0.0
-0.00604547 0.00202095 0.0
-0.00637444 0.00185657 0.0
-0.00667544 0.00169193 0.0
-0.00694846 0.00152707 0.0
-0.0071935 0.00136199 0.0
-0.00741055 0.00119666 0.0
-0.00759958 0.00103103 0.0
-0.00776054 0.000864989 0.0
-0.00789338 0.000698442 0.0
-0.007998 0.000531256 0.0
-0.0080743 0.00036329 0.0
-0.00812215 0.000194387 0.0
-0.00814136 2.4385e-05 0.0
-0.00813175 -0.000146887 0.0
-0.00809309 -0.000319601 0.0
-0.00802511 -0.00049393 0.0
-0.00792752 -0.000670046 0.0
-0.00780001 -0.000848108 0.0
-0.0076422 -0.00102827 0.0
-0.00745371 -0.00121066 0.0
-0.00723412 -0.00139538 0.0
-0.00698299 -0.00158251 0.0
-0.00669985 -0.00177207 0.0
-0.00638422 -0.00196402 0.0
-0.00603561 -0.00215826 0.0
-0.00565352 -0.00235458 0.0
-0.00523747 -0.00255263 0.0
-0.00478703 -0.00275192 0.0
-0.0043018 -0.00295172 0.0
-0.00378148 -0.00315104 0.0
-0.0032259 -0.00334847 0.0
-0.00263515 -0.00354153 0.0
-0.00201013 -0.00372167 0.0
-0.00135643 -0.00384035 0.0
-0.000705487 -0.00363719 0.0
-0.000193683 -0.00214376 0.0
0.000193683 0.00214376 0.0
0.000180038 -0.00229406 0.0
-0.000180038 0.00229406 0.0
-0.000658042 0.00391197 0.0
-0.00126854 0.00414559 0.0
-0.00188365 0.00403832 0.0
-0.00247487 0.00387002 0.0
-0.00303778 0.00369031 0.0
-0.00357186 0.00350646 0.0
-0.00407712 0.0033199 0.0
-0.00455359 0.00313134 0.0
-0.00500131 0.00294132 0.0
-0.00542034 0.00275026 0.0
-0.00581073 0.00255848 0.0
-0.00617256 0.00236621 0.0
-0.00650589 0.00217361 0.0
-0.00681077 0.00198077 0.0
-0.00708726 0.00178774 0.0
-0.00733541 0.0015945 0.0
-0.00755522 0.00140101 0.0
-0.00774672 0.0012072 0.0
-0.00790987 0.00101294 0.0
-0.00804464 0.000818102 0.0
-0.00815096 0.000622537 0.0
-0.00822872 0.000426072 0.0
-0.00827779 0.00022852 0.0
-0.00829801 2.96861e-05 0.0
-0.00828918 -0.000170633 0.0
-0.00825105 -0.000372645 0.0
-0.00818336 -0.000576558 0.0
-0.00808578 -0.000782578 0.0
-0.00795797 -0.000990904 0.0
-0.00779953 -0.00120172 0.0
-0.00761004 -0.00141519 0.0
-0.00738902 -0.00163146 0.0
-0.00713596 -0.00185062 0.0
-0.00685033 -0.00207273 0.0
-0.00653156 -0.00229777 0.0
-0.00617904 -0.00252565 0.0
-0.00579218 -0.00275616 0.0
-0.00537033 -0.00298895 0.0
-0.00491289 -0.00322348 0.0
-0.00441928 -0.003459 0.0
-0.00388895 -0.00369441 0.0
-0.00332147 -0.00392815 0.0
-0.00271662 -0.00415745 0.0
-0.00207497 -0.00437241 0.0
-0.0014019 -0.00451638 0.0
-0.000729668 -0.00428434 0.0
-0.000200317 -0.00253776 0.0
0.000200317 0.00253776 0.0
0.000186293 -0.00266039 0.0
-0.000186293 0.00266039 0.0
-0.000680646 0.00451799 0.0
-0.0013108 0.00478021 0.0
-0.00194381 0.00465181 0.0
-0.00255061 0.00445454 0.0
-0.00312704 0.00424512 0.0
-0.00367293 0.00403164 0.0
-0.00418854 0.00381559 0.0
-0.00467411 0.00359769 0.0
-0.00512987 0.00337846 0.0
-0.00555603 0.00315831 0.0
-0.00595275 0.00293755 0.0
-0.00632021 0.00271642 0.0
-0.00665856 0.00249507 0.0
-0.00696793 0.00227356 0.0
-0.00724843 0.00205194 0.0
-0.00750016 0.00183017 0.0
-0.00772317 0.00160818 0.0
-0.00791752 0.00138587 0.0
-0.0080832 0.0011631 0.0
-0.00822021 0.000939714 0.0
-0.00832849 0.000715517 0.0
-0.00840794 0.000490307 0.0
-0.00845845 0.000263864 0.0
-0.00847984 3.59553e-05 0.0
-0.00847191 -0.000193662 0.0
-0.00843442 -0.000425234 0.0
-0.00836707 -0.000659013 0.0
-0.00826953 -0.000895245 0.0
-0.0081414 -0.00113417 0.0
-0.00798226 -0.00137602 0.0
-0.00779164 -0.00162101 0.0
-0.00756899 -0.00186931 0.0
-0.00731374 -0.00212107 0.0
-0.00702528 -0.00237637 0.0
-0.00670291 -0.00263526 0.0
-0.00634593 -0.00289765 0.0
-0.00595358 -0.00316337 0.0
-0.00552507 -0.00343209 0.0
-0.00505958 -0.00370327 0.0
-0.00455629 -0.00397612 0.0
-0.0040144 -0.00424951 0.0
-0.00343315 -0.00452178 0.0
-0.00281196 -0.00478987 0.0
-0.00215101 -0.00504259 0.0
-0.0014554 -0.00521487 0.0
-0.000758318 -0.00495517 0.0
-0.000208261 -0.00294634 0.0
0.000208261 0.00294634 0.0
0.000193651 -0.00304034 0.0
-0.000193651 0.00304034 0.0
-0.000706958 0.00514571 0.0
-0.00135964 0.00543533 0.0
-0.0020131 0.00528317 0.0
-0.00263765 0.00505454 0.0
-0.00322948 0.00481338 0.0
-0.00378878 0.00456857 0.0
-0.00431614 0.00432162 0.0
-0.00481205 0.00407315 0.0
-0.00527693 0.00382365 0.0
-0.00571116 0.0035735 0.0
-0.00611505 0.00332298 0.0
-0.0064889 0.0030723 0.0
-0.00683294 0.00282158 0.0
-0.00714738 0.00257087 0.0
-0.00743243 0.00232018 0.0
-0.00768821 0.00206944 0.0
-0.00791485 0.00181856 0.0
-0.00811243 0.00156741 0.0
-0.00828099 0.00131581 0.0
-0.00842054 0.00106356 0.0
-0.00853105 0.000810446 0.0
-0.00861243 0.000556215 0.0
-0.00866457 0.000300607 0.0
-0.00868732 4.33474e-05 0.0
-0.00868044 -0.000215851 0.0
-0.0086437 -0.000477282 0.0
-0.00857677 -0.000741245 0.0
-0.00847929 -0.00100804 0.0
-0.00835084 -0.00127795 0.0
-0.00819095 -0.00155127 0.0
-0.00799909 -0.00182826 0.0
-0.00777465 -0.00210915 0.0
-0.00751697 -0.00239415 0.0
-0.00722534 -0.0026834 0.0
-0.00689896 -0.00297698 0.0
-0.00653697 -0.00327489 0.0
-0.00613845 -0.003577 0.0
-0.00570242 -0.00388301 0.0
-0.00522783 -0.00419243 0.0
-0.00471359 -0.00450449 0.0
-0.00415857 -0.00481805 0.0
-0.00356165 -0.0051314 0.0
-0.00292181 -0.00544127 0.0
-0.00223879 -0.00573516 0.0
-0.00151737 -0.00593932 0.0
-0.000791701 -0.00565348 0.0
-0.000217598 -0.0033722 0.0
0.000217598 0.0033722 0.0
0.000202181 -0.00343617 0.0
-0.000202181 0.00343617 0.0
-0.000737192 0.0057982 0.0
-0.00141539 0.00611372 0.0
-0.00209192 0.00593476 0.0
-0.00273645 0.00567204 0.0
-0.00334558 0.00539684 0.0
-0.00391995 0.00511878 0.0
-0.00446047 0.00483928 0.0
-0.00496794 0.00455886 0.0
-0.00544303 0.00427791 0.0
-0.00588628 0.00399673 0.0
-0.00629819 0.00371555 0.0
-0.00667915 0.00343454 0.0
-0.00702954 0.00315377 0.0
-0.00734966 0.00287325 0.0
-0.00763977 0.00259295 0.0
-0.00790009 0.00231277 0.0
-0.00813078 0.00203257 0.0
-0.00833197 0.00175218 0.0
-0.00850375 0.00147138 0.0
-0.00864615 0.00118994 0.0
-0.00875916 0.000907582 0.0
-0.00884272 0.00062402 0.0
-0.00889671 0.000338943 0.0
-0.00892099 5.20267e-05 0.0
-0.00891532 -0.000237068 0.0
-0.00887944 -0.000528688 0.0
-0.00881303 -0.000823189 0.0
-0.00871567 -0.00112093 0.0
-0.00858692 -0.00142226 0.0
-0.00842625 -0.00172752 0.0
-0.00823306 -0.00203706 0.0
-0.00800668 -0.00235117 0.0
-0.00774637 -0.00267012 0.0
-0.00745127 -0.00299415 0.0
-0.00712047 -0.00332341 0.0
-0.00675296 -0.00365797 0.0
-0.00634762 -0.00399778 0.0
-0.00590324 -0.00434264 0.0
-0.00541851 -0.00469212 0.0
-0.00489202 -0.00504553 0.0
-0.00432229 -0.00540176 0.0
-0.00370776 -0.00575914 0.0
-0.00304692 -0.00611421 0.0
-0.00233896 -0.0064532 0.0
-0.00158829 -0.00669337 0.0
-0.00083013 -0.00638325 0.0
-0.000228429 -0.00381823 0.0
0.000228429 0.00381823 0.0
0.000211969 -0.00385032 0.0
-0.000211969 0.00385032 0.0
-0.000771596 0.00647868 0.0
-0.00147844 0.00681827 0.0
-0.00218075 0.00660904 0.0
-0.00284755 0.0063091 0.0
-0.00347593 0.00599727 0.0
-0.00406701 0.0056838 0.0
-0.00462213 0.00536992 0.0
-0.00514241 0.00505598 0.0
-0.00562878 0.00474224 0.0
-0.00608201 0.00442888 0.0
-0.00650276 0.00411605 0.0
-0.00689159 0.00380384 0.0
-0.00724899 0.00349225 0.0
-0.00757536 0.00318126 0.0
-0.00787106 0.00287075 0.0
-0.00813638 0.00256059 0.0
-0.00837154 0.0022506 0.0
-0.00857673 0.00194053 0.0
-0.00875207 0.00163014 0.0
-0.00889763 0.00131913 0.0
-0.00901341 0.00100719 0.0
-0.00909939 0.000693954 0.0
-0.00915547 0.000379076 0.0
-0.00918147 6.21686e-05 0.0
-0.00917718 -0.000257165 0.0
-0.00914231 -0.000579336 0.0
-0.00907651 -0.000904762 0.0
-0.00897935 -0.00123387 0.0
-0.00885033 -0.00156708 0.0
-0.00868888 -0.00190482 0.0
-0.00849431 -0.00224751 0.0
-0.00826589 -0.00259552 0.0
-0.00800274 -0.00294923 0.0
-0.00770392 -0.00330896 0.0
-0.00736834 -0.00367497 0.0
-0.00699481 -0.00404745 0.0
-0.006582 -0.00442645 0.0
-0.00612846 -0.0048119 0.0
-0.00563256 -0.00520349 0.0
-0.00509254 -0.00560066 0.0
-0.00450649 -0.00600241 0.0
-0.00387237 -0.00640714 0.0
-0.0031881 -0.00681131 0.0
-0.00245225 -0.00719991 0.0
-0.00166875 -0.00748083 0.0
-0.000873965 -0.00714874 0.0
-0.000240873 -0.00428753 0.0
0.000240873 0.00428753 0.0
0.000223113 -0.0042854 0.0
-0.000223113 0.0042854 0.0
-0.000810456 0.00719057 0.0
-0.00154921 0.00755198 0.0
-0.0022801 0.00730852 0.0
-0.00297153 0.00696787 0.0
-0.00362113 0.00661648 0.0
-0.00423062 0.00626515 0.0
-0.0048018 0.00591486 0.0
-0.00533614 0.00556567 0.0
-0.00583488 0.00521765 0.0
-0.00629903 0.00487084 0.0
-0.00672946 0.00452526 0.0
-0.00712689 0.00418089 0.0
-0.00749194 0.00383765 0.0
-0.00782515 0.00349544 0.0
-0.00812696 0.00315408 0.0
-0.00839774 0.00281336 0.0
-0.00863779 0.00247305 0.0
-0.00884735 0.00213284 0.0
-0.0090266 0.00179242 0.0
-0.00917562 0.00145144 0.0
-0.00929447 0.00110952 0.0
-0.00938313 0.000766256 0.0
-0.00944151 0.000421218 0.0
-0.00946944 7.39606e-05 0.0
-0.00946671 -0.000275982 0.0
-0.009433 -0.00062909 0.0
-0.00936795 -0.000985859 0.0
-0.00927109 -0.00134679 0.0
-0.00914187 -0.0017124 0.0
-0.00897965 -0.00208319 0.0
-0.00878369 -0.00245967 0.0
-0.00855313 -0.00284234 0.0
-0.00828701 -0.00323168 0.0
-0.00798422 -0.00362813 0.0
-0.00764353 -0.00403208 0.0
-0.00726353 -0.00444387 0.0
-0.00684266 -0.00486371 0.0
-0.00637916 -0.00529168 0.0
-0.00587107 -0.00572769 0.0
-0.00531623 -0.00617132 0.0
-0.00471225 -0.00662179 0.0
-0.00405651 -0.00707763 0.0
-0.0033463 -0.00753531 0.0
-0.00257946 -0.00797861 0.0
-0.0017594 -0.00830569 0.0
-0.000923619 -0.00795444 0.0
-0.000255068 -0.00478347 0.0
0.000255068 0.00478347 0.0
0.000235728 -0.00474424 0.0
-0.000235728 0.00474424 0.0
-0.000854093 0.00793744 0.0
-0.00162818 0.00831796 0.0
-0.00239055 0.0080358 0.0
-0.00310903 0.0076505 0.0
-0.0037819 0.00725632 0.0
-0.00441152 0.00686443 0.0
-0.00500022 0.00647544 0.0
-0.00554988 0.0060891 0.0
-0.00606208 0.00570517 0.0
-0.0065381 0.00532351 0.0
-0.00697904 0.00494396 0.0
-0.0073858 0.00456638 0.0
-0.00775915 0.00419058 0.0
-0.00809977 0.00381634 0.0
-0.0084082 0.00344341 0.0
-0.0086849 0.00307151 0.0
-0.00893026 0.00270031 0.0
-0.00914457 0.00232945 0.0
-0.00932806 0.00195854 0.0
-0.00948087 0.00158716 0.0
-0.00960307 0.00121486 0.0
-0.00969467 0.000841173 0.0
-0.00975559 0.000465594 0.0
-0.00978567 8.76039e-05 0.0
-0.00978469 -0.00029334 0.0
-0.00975233 -0.0006778 0.0
-0.00968818 -0.00106635 0.0
-0.00959174 -0.0014596 0.0
-0.00946241 -0.00185814 0.0
-0.00929948 -0.00226259 0.0
-0.00910213 -0.00267358 0.0
-0.0088694 -0.00309172 0.0
-0.00860019 -0.00351763 0.0
-0.00829325 -0.00395191 0.0
-0.00794715 -0.0043951 0.0
-0.00756025 -0.00484774 0.0
-0.00713074 -0.00531023 0.0
-0.00665651 -0.00578289 0.0
-0.00613524 -0.00626584 0.0
-0.00556429 -0.00675895 0.0
-0.00494072 -0.0072617 0.0
-0.00426129 -0.00777287 0.0
-0.00352254 -0.00828903 0.0
-0.00272151 -0.00879276 0.0
-0.00186095 -0.00917216 0.0
-0.000979559 -0.00880514 0.0
-0.000271174 -0.00530972 0.0
0.000271174 0.00530972 0.0
0.000249945 -0.00522991 0.0
-0.000249945 0.00522991 0.0
-0.000902871 0.00872306 0.0
-0.00171588 0.00911943 0.0
-0.00251274 0.00879356 0.0
-0.00326076 0.00835926 0.0
-0.00395898 0.00791866 0.0
-0.0046105 0.00748322 0.0
-0.0052182 0.00705304 0.0
-0.00578446 0.00662742 0.0
-0.00631122 0.0062058 0.0
-0.00680007 0.00578775 0.0
-0.00725233 0.00537292 0.0
-0.00766914 0.00496099 0.0
-0.00805144 0.00455162 0.0
-0.00840003 0.0041445 0.0
-0.00871559 0.00373924 0.0
-0.00899867 0.00333547 0.0
-0.00924975 0.00293278 0.0
-0.00946918 0.00253072 0.0
-0.00965726 0.00212882 0.0
-0.00981417 0.00172659 0.0
-0.00994001 0.00132348 0.0
-0.0100348 0.000918962 0.0
-0.0100985 0.00051244 0.0
-0.010131 0.000103315 0.0
-0.010132 -0.000309043 0.0
-0.0101012 -0.000725288 0.0
-0.0100381 -0.00114609 0.0
-0.00994223 -0.00157216 0.0
-0.00981291 -0.00200421 0.0
-0.00964937 -0.00244298 0.0
-0.00945068 -0.00288922 0.0
-0.00921578 -0.00334371 0.0
-0.00894341 -0.00380721 0.0
-0.00863216 -0.00428051 0.0
-0.0082804 -0.00476437 0.0
-0.00788623 -0.00525953 0.0
-0.00744753 -0.00576666 0.0
-0.00696184 -0.00628637 0.0
-0.00642639 -0.00681908 0.0
-0.00583802 -0.00736503 0.0
-0.00519319 -0.00792403 0.0
-0.00448794 -0.00849523 0.0
-0.00371797 -0.00907539 0.0
-0.00287939 -0.009646 0.0
-0.00197421 -0.0100847 0.0
-0.00104232 -0.00970591 0.0
-0.000289374 -0.00587026 0.0
0.000289374 0.00587026 0.0
0.000265913 -0.00574577 0.0
-0.000265913 0.00574577 0.0
-0.000957197 0.00955141 0.0
-0.00181288 0.00995976 0.0
-0.00264735 0.00958456 0.0
-0.00342749 0.00909642 0.0
-0.00415321 0.00860544 0.0
-0.00482841 0.00812316 0.0
-0.00545664 0.00764904 0.0
-0.00604079 0.00718184 0.0
-0.00658321 0.00672056 0.0
-0.00708583 0.00626445 0.0
-0.00755025 0.00581291 0.0
-0.00797783 0.00536539 0.0
-0.00836971 0.00492139 0.0
-0.00872683 0.00448044 0.0
-0.00905002 0.00404203 0.0
-0.00933993 0.00360568 0.0
-0.00959713 0.00317085 0.0
-0.00982207 0.00273702 0.0
-0.0100151 0.00230361 0.0
-0.0101764 0.00187003 0.0
-0.0103062 0.00143567 0.0
-0.0104045 0.000999888 0.0
-0.0104713 0.000562006 0.0
-0.0105064 0.000121328 0.0
-0.0105096 -0.000322873 0.0
-0.0104805 -0.000771354 0.0
-0.0104187 -0.0012249 0.0
-0.0103236 -0.00168433 0.0
-0.0101945 -0.0021505 0.0
-0.0100304 -0.00262427 0.0
-0.00983048 -0.00310656 0.0
-0.00959344 -0.00359832 0.0
-0.0093179 -0.00410051 0.0
-0.00900225 -0.00461412 0.0
-0.00864461 -0.00514017 0.0
-0.00824283 -0.00567967 0.0
-0.00779443 -0.00623362 0.0
-0.00729657 -0.00680296 0.0
-0.00674596 -0.00738855 0.0
-0.00613888 -0.00799101 0.0
-0.00547109 -0.00861066 0.0
-0.00473781 -0.00924712 0.0
-0.00393383 -0.00989747 0.0
-0.0030542 -0.0105421 0.0
-0.00210007 -0.0110478 0.0
-0.00111248 -0.0106622 0.0
-0.000309879 -0.00646952 0.0
0.000309879 0.00646952 0.0
0.000283804 -0.00629549 0.0
-0.000283804 0.00629549 0.0
-0.00101753 0.0104267 0.0
-0.00191982 0.0108424 0.0
-0.00279514 0.0104117 0.0
-0.00361005 0.00986437 0.0
-0.00436547 0.00931862 0.0
-0.00506619 0.0087859 0.0
-0.0057165 0.00826484 0.0
-0.00631984 0.00775353 0.0
-0.00687903 0.00725047 0.0
-0.00739638 0.0067545 0.0
-0.00787379 0.0062647 0.0
-0.00831286 0.00578026 0.0
-0.00871494 0.00530048 0.0
-0.00908115 0.0048247 0.0
-0.00941246 0.00435227 0.0
-0.00970965 0.00388255 0.0
-0.00997338 0.00341491 0.0
-0.0102042 0.00294869 0.0
-0.0104025 0.00248322 0.0
-0.0105685 0.0020178 0.0
-0.0107026 0.00155172 0.0
-0.0108046 0.00108423 0.0
-0.0108748 0.000614557 0.0
-0.0109128 0.000141896 0.0
-0.0109184 -0.00033459 0.0
-0.0108914 -0.000815773 0.0
-0.0108311 -0.00130256 0.0
-0.0107369 -0.00179591 0.0
-0.0106082 -0.00229682 0.0
-0.0104438 -0.00280632 0.0
-0.0102428 -0.0033255 0.0
-0.0100037 -0.00385551 0.0
-0.00972502 -0.00439754 0.0
-0.0094049 -0.00495285 0.0
-0.00904124 -0.00552274 0.0
-0.00863156 -0.00610856 0.0
-0.008173 -0.00671168 0.0
-0.00766227 -0.0073335 0.0
-0.00709554 -0.00797534 0.0
-0.00646844 -0.0086384 0.0
-0.00577594 -0.00932356 0.0
-0.00501238 -0.0100311 0.0
-0.00417148 -0.0107584 0.0
-0.00324715 -0.0114851 0.0
-0.00223952 -0.0120666 0.0
-0.00119073 -0.0116798 0.0
-0.000332928 -0.00711233 0.0
0.000332928 0.00711233 0.0
0.000303808 -0.0068831 0.0
-0.000303808 0.0068831 0.0
-0.00108436 0.0113534 0.0
-0.0020374 0.0117711 0.0
-0.00295691 0.0112778 0.0
-0.00380934 0.0106655 0.0
-0.00459671 0.0100602 0.0
-0.00532485 0.00947313 0.0
-0.0059988 0.00890187 0.0
-0.00662267 0.00834372 0.0
-0.00719976 0.00779657 0.0
-0.0077328 0.00725878 0.0
-0.00822401 0.00672904 0.0
-0.00867529 0.00620626 0.0
-0.00908819 0.00568946 0.0
-0.00946404 0.00517778 0.0
-0.00980396 0.0046704 0.0
-0.0101089 0.00416652 0.0
-0.0103795 0.00366535 0.0
-0.0106166 0.00316611 0.0
-0.0108205 0.002668 0.0
-0.0109916 0.00217022 0.0
-0.0111302 0.00167193 0.0
-0.0112364 0.00117228 0.0
-0.0113101 0.000670373 0.0
-0.0113513 0.000165291 0.0
-0.0113597 -0.000343928 0.0
-0.0113349 -0.000858286 0.0
-0.0112764 -0.00137884 0.0
-0.0111835 -0.00190668 0.0
-0.0110554 -0.00244297 0.0
-0.0108909 -0.00298895 0.0
-0.010689 -0.00354589 0.0
-0.010448 -0.00411519 0.0
-0.0101662 -0.0046983 0.0
-0.00984167 -0.00529678 0.0
-0.00947187 -0.00591227 0.0
-0.00905405 -0.00654653 0.0
-0.00858491 -0.0072014 0.0
-0.00806065 -0.00787878 0.0
-0.00747686 -0.00858059 0.0
-0.00682841 -0.0093087 0.0
-0.00610943 -0.0100647 0.0
-0.00531325 -0.0108496 0.0
-0.00443241 -0.0116616 0.0
-0.00345955 -0.0124792 0.0
-0.00239362 -0.0131462 0.0
-0.00127779 -0.0127649 0.0
-0.000358793 -0.00780405 0.0
0.000358793 0.00780405 0.0
0.000326145 -0.00751306 0.0
-0.000326145 0.00751306 0.0
-0.00115827 0.0123361 0.0
-0.00216636 0.0127495 0.0
-0.00313355 0.0121861 0.0
-0.00402632 0.0115024 0.0
-0.00484798 0.0108324 0.0
-0.00560546 0.0101866 0.0
-0.00630468 0.00956158 0.0
-0.00695042 0.00895363 0.0
-0.00754655 0.00835989 0.0
-0.00809624 0.00777817 0.0
-0.00860208 0.00720671 0.0
-0.00906627 0.00664405 0.0
-0.00949062 0.00608892 0.0
-0.00987666 0.00554022 0.0
-0.0102257 0.0049969 0.0
-0.0105387 0.00445798 0.0
-0.0108167 0.00392253 0.0
-0.0110604 0.00338961 0.0
-0.0112702 0.00285828 0.0
-0.0114468 0.0023276 0.0
-0.0115902 0.00179661 0.0
-0.0117008 0.00126434 0.0
-0.0117785 0.000729755 0.0
-0.0118232 0.00019181 0.0
-0.0118347 -0.000350594 0.0
-0.0118125 -0.000898606 0.0
-0.011756 -0.00145343 0.0
-0.0116647 -0.00201635 0.0
-0.0115374 -0.0025887 0.0
-0.0113732 -0.00317192 0.0
-0.0111705 -0.00376754 0.0
-0.0109278 -0.00437721 0.0
-0.0106432 -0.0050027 0.0
-0.0103142 -0.00564591 0.0
-0.00993825 -0.0063089 0.0
-0.00951208 -0.00699389 0.0
-0.00903198 -0.00770327 0.0
-0.00849358 -0.00843957 0.0
-0.00789177 -0.00920541 0.0
-0.00722064 -0.0100035 0.0
-0.00647336 -0.0108362 0.0
-0.00564212 -0.0117056 0.0
-0.0047182 -0.0126104 0.0
-0.0036928 -0.0135286 0.0
-0.00256356 -0.0142919 0.0
-0.0013745 -0.013924 0.0
-0.000387781 -0.00855062 0.0
0.000387781 0.00855062 0.0
0.00035106 -0.00819026 0.0
-0.00035106 0.00819026 0.0
-0.00123986 0.0133798 0.0
-0.00230754 0.0137816 0.0
-0.00332598 0.0131397 0.0
-0.004262 0.0123777 0.0
-0.00512036 0.0116372 0.0
-0.00590916 0.0109281 0.0
-0.0066353 0.0102455 0.0
-0.00730429 0.00958449 0.0
-0.00792063 0.00894149 0.0
-0.00848794 0.00831358 0.0
-0.00900926 0.00769847 0.0
-0.00948707 0.00709429 0.0
-0.00992348 0.00649944 0.0
-0.0103202 0.0059125 0.0
-0.0106788 0.00533221 0.0
-0.0110005 0.00475737 0.0
-0.0112862 0.00418685 0.0
-0.0115368 0.00361956 0.0
-0.011753 0.00305439 0.0
-0.0119353 0.00249027 0.0
-0.012084 0.00192609 0.0
-0.0121993 0.00136073 0.0
-0.0122812 0.000793023 0.0
-0.0123298 0.000221775 0.0
-0.0123446 -0.000354265 0.0
-0.0123253 -0.000936406 0.0
-0.0122713 -0.00152603 0.0
-0.0121819 -0.0021246 0.0
-0.0120559 -0.00273368 0.0
-0.0118921 -0.00335494 0.0
-0.0116891 -0.00399019 0.0
-0.011445 -0.00464136 0.0
-0.0111576 -0.0053106 0.0
-0.0108244 -0.0060002 0.0
-0.0104422 -0.00671271 0.0
-0.0100076 -0.00745089 0.0
-0.0095162 -0.00821777 0.0
-0.00896304 -0.00901662 0.0
-0.00834229 -0.00985092 0.0
-0.00764713 -0.0107243 0.0
-0.00686967 -0.0116402 0.0
-0.00600087 -0.0126016 0.0
-0.00503059 -0.0136085 0.0
-0.00394845 -0.014638 0.0
-0.00275061 -0.0155095 0.0
-0.00148177 -0.0151643 0.0
-0.000420241 -0.00935864 0.0
0.000420241 0.00935864 0.0
0.000378829 -0.00892015 0.0
-0.000378829 0.00892015 0.0
-0.00132982 0.0144897 0.0
-0.0024618 0.0148713 0.0
-0.00353521 0.0141418 0.0
-0.0045175 0.0132939 0.0
-0.00541502 0.0124768 0.0
-0.00623719 0.0116994 0.0
-0.00699194 0.010955 0.0
-0.0076856 0.0102376 0.0
-0.00832331 0.00954243 0.0
-0.00890925 0.00886589 0.0
-0.00944687 0.00820509 0.0
-0.00993903 0.00755765 0.0
-0.0103881 0.00692158 0.0
-0.0107961 0.00629515 0.0
-0.0111648 0.00567679 0.0
-0.0114954 0.00506509 0.0
-0.0117893 0.00445869 0.0
-0.0120472 0.00385632 0.0
-0.0122701 0.0032567 0.0
-0.0124584 0.00265858 0.0
-0.0126127 0.0020607 0.0
-0.0127331 0.00146179 0.0
-0.0128196 0.000860519 0.0
-0.0128724 0.000255535 0.0
-0.012891 -0.000354582 0.0
-0.012875 -0.000971322 0.0
-0.0128238 -0.00159626 0.0
-0.0127366 -0.00223108 0.0
-0.0126123 -0.00287757 0.0
-0.0124494 -0.00353768 0.0
-0.0122464 -0.00421351 0.0
-0.0120012 -0.00490737 0.0
-0.0117114 -0.00562178 0.0
-0.0113741 -0.00635953 0.0
-0.0109859 -0.0071237 0.0
-0.0105427 -0.00791772 0.0
-0.0100397 -0.00874534 0.0
-0.00947121 -0.00961069 0.0
-0.00883059 -0.0105182 0.0
-0.00811002 -0.0114727 0.0
-0.00730045 -0.0124788 0.0
-0.00639147 -0.0135408 0.0
-0.0053714 -0.0146597 0.0
-0.00422813 -0.0158122 0.0
-0.00295616 -0.0168051 0.0
-0.00160063 -0.016493 0.0
-0.000456568 -0.0102355 0.0
0.000456568 0.0102355 0.0
0.000409766 -0.00970874 0.0
-0.000409766 0.00970874 0.0
-0.00142891 0.0156712 0.0
-0.0026301 0.016023 0.0
-0.0037623 0.0151958 0.0
-0.00479395 0.0142538 0.0
-0.00573318 0.0133536 0.0
-0.00659084 0.0125024 0.0
-0.00737594 0.0116918 0.0
-0.00809571 0.0109142 0.0
-0.00875601 0.0101638 0.0
-0.00936158 0.00943604 0.0
-0.00991636 0.00872734 0.0
-0.0104236 0.00803479 0.0
-0.010886 0.00735593 0.0
-0.0113058 0.00668865 0.0
-0.011685 0.00603109 0.0
-0.0120251 0.00538154 0.0
-0.0123274 0.00473842 0.0
-0.0125931 0.00410024 0.0
-0.012823 0.00346553 0.0
-0.0130178 0.00283286 0.0
-0.0131779 0.00220079 0.0
-0.0133037 0.00156787 0.0
-0.0133953 0.000932609 0.0
-0.0134526 0.000293471 0.0
-0.0134753 -0.000351151 0.0
-0.0134631 -0.00100295 0.0
-0.0134152 -0.0016637 0.0
-0.0133307 -0.00233534 0.0
-0.0132085 -0.00301993 0.0
-0.0130469 -0.0037197 0.0
-0.0128443 -0.00443711 0.0
-0.0125984 -0.00517487 0.0
-0.0123066 -0.00593596 0.0
-0.0119655 -0.00672372 0.0
-0.0115713 -0.00754185 0.0
-0.0111196 -0.00839452 0.0
-0.0106047 -0.00928635 0.0
-0.0100204 -0.0102225 0.0
-0.00935899 -0.0112085 0.0
-0.00861161 -0.0122504 0.0
-0.00776792 -0.0133543 0.0
-0.00681605 -0.0145261 0.0
-0.00574261 -0.015768 0.0
-0.00453361 -0.0170563 0.0
-0.00318173 -0.0181849 0.0
-0.00173218 -0.0179183 0.0
-0.000497207 -0.0111892 0.0
0.000497207 0.0111892 0.0
0.00044422 -0.0105627 0.0
-0.00044422 0.0105627 0.0
-0.00153796 0.0169301 0.0
-0.00281347 0.0172408 0.0
-0.00400839 0.0163051 0.0
-0.00509258 0.0152603 0.0
-0.00607615 0.0142699 0.0
-0.00697146 0.0133391 0.0
-0.00778871 0.0124575 0.0
-0.0085361 0.0116157 0.0
-0.00922022 0.0108067 0.0
-0.00984647 0.0100249 0.0
-0.0104193 0.00926601 0.0
-0.0109423 0.00852637 0.0
-0.0114186 0.00780305 0.0
-0.0118508 0.00709352 0.0
-0.0122409 0.00639554 0.0
-0.0125909 0.00570713 0.0
-0.0129021 0.00502643 0.0
-0.0131759 0.0043517 0.0
-0.0134132 0.00368126 0.0
-0.0136148 0.00301348 0.0
-0.0137812 0.00234672 0.0
-0.0139128 0.00167935 0.0
-0.0140098 0.00100969 0.0
-0.0140721 0.000335995 0.0
-0.0140994 -0.000343539 0.0
-0.0140914 -0.00103082 0.0
-0.0140473 -0.00172788 0.0
-0.013966 -0.00243691 0.0
-0.0138464 -0.00316026 0.0
-0.0136867 -0.00390052 0.0
-0.0134851 -0.00466054 0.0
-0.013239 -0.00544345 0.0
-0.0129454 -0.0062528 0.0
-0.0126009 -0.00709251 0.0
-0.012201 -0.00796705 0.0
-0.0117407 -0.0088814 0.0
-0.0112138 -0.00984119 0.0
-0.0106131 -0.0108527 0.0
-0.00992999 -0.0119228 0.0
-0.00915434 -0.0130591 0.0
-0.00827447 -0.0142692 0.0
-0.00727687 -0.0155607 0.0
-0.0061463 -0.0169374 0.0
-0.00486679 -0.0183754 0.0
-0.00342893 -0.0196556 0.0
-0.00187769 -0.0194485 0.0
-0.00054266 -0.0122291 0.0
0.00054266 0.0122291 0.0
0.000482589 -0.0114895 0.0
-0.000482589 0.0114895 0.0
-0.0016579 0.0182724 0.0
-0.00301302 0.0185292 0.0
-0.00427467 0.0174733 0.0
-0.00541467 0.0163164 0.0
-0.00644529 0.0152281 0.0
-0.00738049 0.0142115 0.0
-0.00823177 0.0132537 0.0
-0.0090083 0.0123435 0.0
-0.00971753 0.0114723 0.0
-0.0103655 0.0106336 0.0
-0.0109572 0.0098219 0.0
-0.0114968 0.00903307 0.0
-0.0119877 0.00826352 0.0
-0.0124327 0.00751025 0.0
-0.0128343 0.00677062 0.0
-0.0131946 0.00604228 0.0
-0.0135152 0.00532309 0.0
-0.0137974 0.00461105 0.0
-0.0140425 0.00390424 0.0
-0.0142512 0.0032008 0.0
-0.0144243 0.00249889 0.0
-0.0145621 0.00179664 0.0
-0.0146649 0.00109218 0.0
-0.0147327 0.00038356 0.0
-0.0147651 -0.000331266 0.0
-0.0147618 -0.00105444 0.0
-0.0147219 -0.00178827 0.0
-0.0146445 -0.00253523 0.0
-0.0145281 -0.00329802 0.0
-0.0143709 -0.00407959 0.0
-0.0141708 -0.00488323 0.0
-0.013925 -0.00571261 0.0
-0.0136304 -0.00657185 0.0
-0.0132828 -0.00746559 0.0
-0.0128775 -0.00839911 0.0
-0.0124087 -0.00937839 0.0
-0.0118696 -0.0104102 0.0
-0.011252 -0.011502 0.0
-0.0105462 -0.0126624 0.0
-0.00974082 -0.0139005 0.0
-0.0088226 -0.0152259 0.0
-0.0077763 -0.0166479 0.0
-0.00658471 -0.0181723 0.0
-0.00522967 -0.019775 0.0
-0.00369954 -0.0212239 0.0
-0.00203853 -0.0210924 0.0
-0.000593493 -0.0133652 0.0
0.000593493 0.0133652 0.0
0.000525316 -0.0124974 0.0
-0.000525316 0.0124974 0.0
-0.00178973 0.0197042 0.0
-0.00322991 0.0198927 0.0
-0.00456241 0.0187039 0.0
-0.00576159 0.0174249 0.0
-0.00684203 0.0162306 0.0
-0.00781945 0.0151216 0.0
-0.00870667 0.0140821 0.0
-0.00951396 0.0130989 0.0
-0.0102496 0.0121618 0.0
-0.0109204 0.0112629 0.0
-0.011532 0.0103958 0.0
-0.0120889 0.00955559 0.0
-0.0125949 0.00873795 0.0
-0.0130534 0.00793936 0.0
-0.013467 0.00715675 0.0
-0.013838 0.00638739 0.0
-0.0141683 0.0056288 0.0
-0.0144594 0.00487868 0.0
-0.0147126 0.00413486 0.0
-0.0149289 0.00339522 0.0
-0.015109 0.00265768 0.0
-0.0152535 0.00192016 0.0
-0.0153626 0.00118055 0.0
-0.0154363 0.000436656 0.0
-0.0154744 -0.000313805 0.0
-0.0154763 -0.00107325 0.0
-0.0154414 -0.00184428 0.0
-0.0153684 -0.00262969 0.0
-0.0152558 -0.00343255 0.0
-0.0151018 -0.00425625 0.0
-0.0149039 -0.00510457 0.0
-0.0146592 -0.00598176 0.0
-0.0143639 -0.0068926 0.0
-0.0140138 -0.00784255 0.0
-0.0136034 -0.00883782 0.0
-0.0131264 -0.00988549 0.0
-0.0125749 -0.0109936 0.0
-0.0119399 -0.0121712 0.0
-0.0112105 -0.0134285 0.0
-0.0103738 -0.0147765 0.0
-0.00941499 -0.0162269 0.0
-0.00831688 -0.0177913 0.0
-0.00706018 -0.0194772 0.0
-0.00562439 -0.0212609 0.0
-0.00399544 -0.0228971 0.0
-0.00221621 -0.0228594 0.0
-0.000650348 -0.0146091 0.0
0.000650348 0.0146091 0.0
0.000572906 -0.0135957 0.0
-0.000572906 0.0135957 0.0
-0.00193458 0.0212321 0.0
-0.00346544 0.0213358 0.0
-0.00487297 0.0200008 0.0
-0.00613474 0.018589 0.0
-0.00726788 0.0172801 0.0
-0.00828992 0.0160715 0.0
-0.00921508 0.0149445 0.0
-0.0100548 0.0138835 0.0
-0.0108183 0.0128764 0.0
-0.0115131 0.0119139 0.0
-0.0121454 0.0109887 0.0
-0.0127204 0.0100946 0.0
-0.0132423 0.00922693 0.0
-0.0137149 0.00838138 0.0
-0.0141409 0.00755442 0.0
-0.0145231 0.00674289 0.0
-0.0148635 0.00594395 0.0
-0.0151638 0.00515498 0.0
-0.0154256 0.0043735 0.0
-0.0156498 0.00359712 0.0
-0.0158375 0.00282353 0.0
-0.015989 0.00205037 0.0
-0.0161049 0.00127528 0.0
-0.0161851 0.00049582 0.0
-0.0162294 -0.000290577 0.0
-0.0162373 -0.00108662 0.0
-0.0162079 -0.00189524 0.0
-0.0161401 -0.00271958 0.0
-0.0160321 -0.00356314 0.0
-0.015882 -0.00442979 0.0
-0.0156871 -0.00532385 0.0
-0.0154441 -0.00625022 0.0
-0.015149 -0.00721446 0.0
-0.0147969 -0.00822292 0.0
-0.0143819 -0.00928288 0.0
-0.0138967 -0.0104027 0.0
-0.0133328 -0.0115918 0.0
-0.0126799 -0.012861 0.0
-0.0119258 -0.0142223 0.0
-0.0110562 -0.015689 0.0
-0.0100544 -0.017275 0.0
-0.00890127 -0.0189944 0.0
-0.00757518 -0.0208569 0.0
-0.00605323 -0.022839 0.0
-0.00431867 -0.0246825 0.0
-0.00241242 -0.0247595 0.0
-0.000713943 -0.0159734 0.0
0.000713943 0.0159734 0.0
0.000625924 -0.0147945 0.0
-0.000625924 0.0147945 0.0
-0.00209369 0.0228627 0.0
-0.00372096 0.0228633 0.0
-0.00520776 0.0213676 0.0
-0.00653562 0.0198118 0.0
-0.0077244 0.0183792 0.0
-0.00879353 0.0170636 0.0
-0.00975871 0.0158428 0.0
-0.0106326 0.0146987 0.0
-0.0114253 0.0136174 0.0
-0.0121453 0.0125877 0.0
-0.0127994 0.0116013 0.0
-0.0133934 0.010651 0.0
-0.0139319 0.00973109 0.0
-0.014419 0.00883685 0.0
-0.0148581 0.00796409 0.0
-0.0152519 0.00710921 0.0
-0.0156029 0.00626896 0.0
-0.0159129 0.00544034 0.0
-0.0161836 0.00462056 0.0
-0.0164162 0.00380695 0.0
-0.0166118 0.00299689 0.0
-0.016771 0.00218776 0.0
-0.0168941 0.00137692 0.0
-0.0169814 0.000561638 0.0
-0.0170325 -0.000260945 0.0
-0.017047 -0.00109387 0.0
-0.017024 -0.00194041 0.0
-0.0169621 -0.00280414 0.0
-0.0168596 -0.003689 0.0
-0.0167143 -0.00459938 0.0
-0.0165232 -0.00554026 0.0
-0.0162828 -0.00651724 0.0
-0.0159886 -0.00753675 0.0
-0.0156351 -0.00860616 0.0
-0.0152159 -0.00973393 0.0
-0.0147228 -0.0109298 0.0
-0.0141464 -0.0122049 0.0
-0.0134751 -0.013572 0.0
-0.0126953 -0.0150451 0.0
-0.0117911 -0.01664 0.0
-0.0107439 -0.0183731 0.0
-0.00953225 -0.0202611 0.0
-0.00813233 -0.0223162 0.0
-0.00651858 -0.0245154 0.0
-0.00467142 -0.0265878 0.0
-0.002629 -0.0268028 0.0
-0.000785092 -0.0174724 0.0
0.000785092 0.0174724 0.0
0.000685009 -0.0161054 0.0
-0.000685009 0.0161054 0.0
-0.00226844 0.0246029 0.0
-0.00399796 0.0244799 0.0
-0.00556829 0.0228082 0.0
-0.00696579 0.0210966 0.0
-0.00821323 0.0195307 0.0
-0.00933201 0.0181 0.0
-0.0103394 0.0167789 0.0
-0.0112492 0.0155463 0.0
-0.0120728 0.0143861 0.0
-0.0128192 0.0132855 0.0
-0.0134962 0.0122346 0.0
-0.01411 0.0112253 0.0
-0.0146658 0.0102511 0.0
-0.0151682 0.00930632 0.0
-0.0156208 0.00838628 0.0
-0.0160268 0.00748681 0.0
-0.0163887 0.00660424 0.0
-0.0167088 0.00573519 0.0
-0.0169889 0.00487649 0.0
-0.0172304 0.00402516 0.0
-0.0174344 0.00317825 0.0
-0.0176017 0.00233287 0.0
-0.0177328 0.00148605 0.0
-0.0178277 0.00063475 0.0
-0.0178864 -0.000224209 0.0
-0.0179083 -0.00109423 0.0
-0.0178924 -0.00197899 0.0
-0.0178374 -0.00288249 0.0
-0.0177413 -0.00380921 0.0
-0.0176016 -0.00476413 0.0
-0.0174153 -0.00575291 0.0
-0.0171784 -0.00678197 0.0
-0.0168859 -0.00785872 0.0
-0.0165318 -0.00899166 0.0
-0.0161089 -0.0101906 0.0
-0.0156083 -0.0114669 0.0
-0.0150192 -0.0128334 0.0
-0.0143289 -0.0143051 0.0
-0.0135223 -0.0158984 0.0
-0.0125817 -0.0176316 0.0
-0.0114864 -0.0195241 0.0
-0.0102127 -0.0215954 0.0
-0.00873435 -0.0238602 0.0
-0.007023 -0.0262965 0.0
-0.00505605 -0.0286209 0.0
-0.002868 -0.0290002 0.0
-0.000864711 -0.0191222 0.0
0.000864711 0.0191222 0.0
0.000750885 -0.0175413 0.0
-0.000750885 0.0175413 0.0
-0.00246033 0.0264599 0.0
-0.00429802 0.0261901 0.0
-0.00595616 0.0243264 0.0
-0.00742689 0.0224466 0.0
-0.00873607 0.0207373 0.0
-0.00990714 0.0191833 0.0
-0.010959 0.0177549 0.0
-0.0119067 0.016428 0.0
-0.0127627 0.0151839 0.0
-0.0135369 0.0140083 0.0
-0.0142379 0.0128897 0.0
-0.0148724 0.0118186 0.0
-0.0154464 0.0107877 0.0
-0.0159647 0.00979042 0.0
-0.0164314 0.00882149 0.0
-0.01685 0.00787617 0.0
-0.0172235 0.00695027 0.0
-0.0175542 0.00603997 0.0
-0.0178441 0.00514174 0.0
-0.0180949 0.00425223 0.0
-0.0183079 0.00336815 0.0
-0.0184839 0.00248626 0.0
-0.0186235 0.00160329 0.0
-0.0187269 0.000715857 0.0
-0.0187939 -0.000179601 0.0
-0.018824 -0.00108687 0.0
-0.0188161 -0.00201007 0.0
-0.0187689 -0.00295371 0.0
-0.0186802 -0.00392281 0.0
-0.0185473 -0.00492304 0.0
-0.0183668 -0.00596081 0.0
-0.0181343 -0.00704349 0.0
-0.0178445 -0.00817954 0.0
-0.0174906 -0.00937875 0.0
-0.0170646 -0.0106524 0.0
-0.0165566 -0.0120137 0.0
-0.0159547 -0.0134775 0.0
-0.0152449 -0.0150611 0.0
-0.0144103 -0.0167835 0.0
-0.0134314 -0.018666 0.0
-0.0122852 -0.0207311 0.0
-0.0109458 -0.0230014 0.0
-0.00938409 -0.0254943 0.0
-0.00756915 -0.0281887 0.0
-0.00547507 -0.0307897 0.0
-0.00313168 -0.0313628 0.0
-0.00095383 -0.0209408 0.0
0.00095383 0.0209408 0.0
0.000824371 -0.0191166 0.0
-0.000824371 0.0191166 0.0
-0.00267105 0.0284408 0.0
-0.00462285 0.0279987 0.0
-0.00637304 0.0259261 0.0
-0.00792061 0.0238652 0.0
-0.00929468 0.0220019 0.0
-0.0105208 0.0203158 0.0
-0.0116194 0.0187728 0.0
-0.012607 0.0173454 0.0
-0.0134971 0.0160125 0.0
-0.0143007 0.0147576 0.0
-0.0150268 0.0135675 0.0
-0.0156832 0.0124317 0.0
-0.0162761 0.0113415 0.0
-0.0168111 0.0102898 0.0
-0.0172926 0.00927032 0.0
-0.0177244 0.00827781 0.0
-0.0181099 0.00730751 0.0
-0.0184516 0.00635517 0.0
-0.0187519 0.00541681 0.0
-0.0190126 0.00448868 0.0
-0.0192351 0.00356713 0.0
-0.0194204 0.00264858 0.0
-0.0195692 0.00172936 0.0
-0.0196818 0.000805726 0.0
-0.0197579 -0.000126279 0.0
-0.0197972 -0.00107088 0.0
-0.0197984 -0.00203268 0.0
-0.01976 -0.00301673 0.0
-0.0196798 -0.00402871 0.0
-0.0195548 -0.005075 0.0
-0.0193812 -0.0061629 0.0
-0.0191543 -0.00730079 0.0
-0.0188681 -0.00849833 0.0
-0.0185152 -0.00976674 0.0
-0.0180867 -0.011119 0.0
-0.0175716 -0.0125702 0.0
-0.0169569 -0.0141376 0.0
-0.0162268 -0.0158408 0.0
-0.015363 -0.0177021 0.0
-0.0143436 -0.0197458 0.0
-0.0131436 -0.0219976 0.0
-0.0117345 -0.0244835 0.0
-0.0100845 -0.0272239 0.0
-0.00815986 -0.0301987 0.0
-0.00593117 -0.0331025 0.0
-0.00342251 -0.0339021 0.0
-0.00105361 -0.0229482 0.0
0.00105361 0.0229482 0.0
0.000906394 -0.0208473 0.0
-0.000906394 0.0208473 0.0
-0.0029025 0.0305528 0.0
-0.00497431 0.0299103 0.0
-0.00682074 0.0276111 0.0
-0.00844877 0.0253557 0.0
-0.00989093 0.0233276 0.0
-0.0111749 0.0215002 0.0
-0.0123228 0.0198349 0.0
-0.0133524 0.0183006 0.0
-0.0142784 0.0168734 0.0
-0.0151128 0.0155346 0.0
-0.0158655 0.0142693 0.0
-0.0165447 0.0130655 0.0
-0.0171576 0.0119135 0.0
-0.01771 0.0108051 0.0
-0.018207 0.00973339 0.0
-0.0186527 0.00869229 0.0
-0.0190507 0.00767653 0.0
-0.0194041 0.00668132 0.0
-0.0197154 0.00570223 0.0
-0.0199865 0.00473509 0.0
-0.0202191 0.00377584 0.0
-0.0204145 0.00282049 0.0
-0.0205732 0.001865 0.0
-0.0206958 0.000905195 0.0
-0.020782 -6.33201e-05 0.0
-0.0208314 -0.00104525 0.0
-0.0208428 -0.00204573 0.0
-0.0208144 -0.00307044 0.0
-0.0207439 -0.00412574 0.0
-0.020628 -0.00521885 0.0
-0.0204626 -0.00635802 0.0
-0.0202424 -0.00755278 0.0
-0.0199608 -0.00881413 0.0
-0.0196098 -0.0101549 0.0
-0.0191793 -0.0115899 0.0
-0.0186574 -0.0131363 0.0
-0.0180296 -0.014814 0.0
-0.0172786 -0.0166454 0.0
-0.0163841 -0.018656 0.0
-0.0153221 -0.0208733 0.0
-0.0140652 -0.0233269 0.0
-0.0125822 -0.0260462 0.0
-0.0108388 -0.0290546 0.0
-0.00879807 -0.0323333 0.0
-0.00642725 -0.0355674 0.0
-0.00374324 -0.0366299 0.0
-0.00116536 -0.0251672 0.0
0.00116536 0.0251672 0.0
0.000998009 -0.0227517 0.0
-0.000998009 0.0227517 0.0
-0.00315675 0.0328032 0.0
-0.0053544 0.0319294 0.0
-0.00730117 0.0293853 0.0
-0.00901325 0.0269217 0.0
-0.0105267 0.0247173 0.0
-0.0118714 0.0227391 0.0
-0.0130711 0.0209435 0.0
-0.014145 0.0192956 0.0
-0.0151089 0.0177684 0.0
-0.0159758 0.0163409 0.0
-0.0167564 0.0149963 0.0
-0.0174598 0.0137212 0.0
-0.0180937 0.0125046 0.0
-0.0186645 0.0113373 0.0
-0.0191777 0.0102114 0.0
-0.0196379 0.00912025 0.0
-0.0200492 0.0080579 0.0
-0.0204149 0.007019 0.0
-0.0207377 0.00599861 0.0
-0.0210199 0.00499209 0.0
-0.0212634 0.00399496 0.0
-0.0214695 0.00300277 0.0
-0.021639 0.00201106 0.0
-0.0217725 0.00101519 0.0
-0.0218699 1.02834e-05 0.0
-0.0219305 -0.00100889 0.0
-0.0219531 -0.00204807 0.0
-0.021936 -0.0031136 0.0
-0.0218765 -0.00421264 0.0
-0.021771 -0.00535331 0.0
-0.0216151 -0.00654495 0.0
-0.0214028 -0.00779833 0.0
-0.021127 -0.00912596 0.0
-0.0207787 -0.0105424 0.0
-0.0203469 -0.0120646 0.0
-0.0198184 -0.013712 0.0
-0.0191772 -0.0155073 0.0
-0.0184044 -0.017476 0.0
-0.0174775 -0.0196469 0.0
-0.0163705 -0.0220514 0.0
-0.0150533 -0.0247228 0.0
-0.0134923 -0.0276942 0.0
-0.01165 -0.0309923 0.0
-0.00948691 -0.0345995 0.0
-0.00696639 -0.0381926 0.0
-0.00409689 -0.0395582 0.0
-0.00129055 -0.0276231 0.0
0.00129055 0.0276231 0.0
0.00110042 -0.0248502 0.0
-0.00110042 0.0248502 0.0
-0.00343616 0.0351993 0.0
-0.00576532 0.0340601 0.0
-0.00781637 0.0312523 0.0
-0.00961605 0.0285664 0.0
-0.0112041 0.0261741 0.0
-0.0126125 0.0240354 0.0
-0.0138667 0.0221011 0.0
-0.0149872 0.0203325 0.0
-0.0159911 0.0186993 0.0
-0.0168922 0.017178 0.0
-0.0177024 0.0157499 0.0
-0.0184313 0.0144 0.0
-0.0190873 0.0131158 0.0
-0.0196775 0.0118871 0.0
-0.0202078 0.0107051 0.0
-0.0206834 0.0095624 0.0
-0.0211087 0.00845231 0.0
-0.0214873 0.00736887 0.0
-0.0218224 0.00630662 0.0
-0.0221165 0.00526041 0.0
-0.0223716 0.00422525 0.0
-0.0225893 0.00319625 0.0
-0.0227706 0.00216844 0.0
-0.022916 0.00113671 0.0
-0.0230255 9.56326e-05 0.0
-0.0230985 -0.000960612 0.0
-0.0231338 -0.00203841 0.0
-0.0231293 -0.00314488 0.0
-0.0230821 -0.00428804 0.0
-0.0229885 -0.00547703 0.0
-0.0228433 -0.00672237 0.0
-0.0226402 -0.00803625 0.0
-0.0223713 -0.00943283 0.0
-0.0220265 -0.0109286 0.0
-0.021594 -0.0125427 0.0
-0.021059 -0.0142973 0.0
-0.0204041 -0.016218 0.0
-0.0196084 -0.0183338 0.0
-0.0186474 -0.020677 0.0
-0.0174927 -0.0232831 0.0
-0.0161118 -0.0261892 0.0
-0.0144681 -0.0294325 0.0
-0.0125216 -0.0330428 0.0
-0.0102296 -0.037004 0.0
-0.0075519 -0.0409863 0.0
-0.0044868 -0.0426991 0.0
-0.00143084 -0.0303445 0.0
0.00143084 0.0303445 0.0
0.00121498 -0.0271656 0.0
-0.00121498 0.0271656 0.0
-0.00374334 0.037748 0.0
-0.00620947 0.0363067 0.0
-0.00836855 0.0332159 0.0
-0.0102593 0.0302933 0.0
-0.0119252 0.0277012 0.0
-0.0134003 0.0253918 0.0
-0.0147117 0.0233103 0.0
-0.0158814 0.0214135 0.0
-0.0169274 0.0196681 0.0
-0.0178649 0.0180477 0.0
-0.0187063 0.0165317 0.0
-0.0194622 0.0151031 0.0
-0.0201417 0.0137482 0.0
-0.0207524 0.0124555 0.0
-0.0213009 0.0112155 0.0
-0.0217928 0.0100196 0.0
-0.0222329 0.00886052 0.0
-0.0226253 0.0077317 0.0
-0.0229735 0.00662703 0.0
-0.0232802 0.00554082 0.0
-0.0235478 0.00446756 0.0
-0.023778 0.00340184 0.0
-0.0239721 0.00233817 0.0
-0.0241305 0.00127086 0.0
-0.0242535 0.000193927 0.0
-0.0243402 -0.000899124 0.0
-0.0243894 -0.00201541 0.0
-0.024399 -0.00316288 0.0
-0.0243656 -0.00435052 0.0
-0.0242853 -0.0055886 0.0
-0.0241523 -0.00688896 0.0
-0.0239597 -0.00826535 0.0
-0.0236986 -0.00973373 0.0
-0.0233583 -0.0113127 0.0
-0.0229255 -0.013024 0.0
-0.022384 -0.0148925 0.0
-0.0217148 -0.0169471 0.0
-0.0208949 -0.0192203 0.0
-0.0198979 -0.0217485 0.0
-0.0186927 -0.0245714 0.0
-0.0172443 -0.0277303 0.0
-0.0155133 -0.0312662 0.0
-0.0134569 -0.0352122 0.0
-0.0110296 -0.0395538 0.0
-0.00818731 -0.0439565 0.0
-0.00491664 -0.0460647 0.0
-0.00158809 -0.0333634 0.0
0.00158809 0.0333634 0.0
0.00134327 -0.0297238 0.0
-0.00134327 0.0297238 0.0
-0.00408128 0.0404561 0.0
-0.00668946 0.0386729 0.0
-0.00896009 0.0352794 0.0
-0.0109452 0.0321057 0.0
-0.0126922 0.0293017 0.0
-0.0142371 0.0268112 0.0
-0.0156085 0.0245737 0.0
-0.01683 0.0225413 0.0
-0.0179206 0.0206771 0.0
-0.0188965 0.0189521 0.0
-0.019771 0.0173433 0.0
-0.0205557 0.015832 0.0
-0.0212601 0.0144031 0.0
-0.0218927 0.0130439 0.0
-0.0224605 0.0117435 0.0
-0.0229698 0.0104927 0.0
-0.0234258 0.00928345 0.0
-0.0238329 0.00810835 0.0
-0.0241951 0.00696071 0.0
-0.0245155 0.00583424 0.0
-0.0247966 0.00472287 0.0
-0.0250404 0.00362059 0.0
-0.0252483 0.00252135 0.0
-0.025421 0.00141887 0.0
-0.0255587 0.000306471 0.0
-0.0256605 -0.00082304 0.0
-0.0257252 -0.0019776 0.0
-0.0257503 -0.00316609 0.0
-0.0257323 -0.00439856 0.0
-0.0256667 -0.00568655 0.0
-0.0255474 -0.00704335 0.0
-0.0253665 -0.00848442 0.0
-0.0251145 -0.0100277 0.0
-0.0247793 -0.0116942 0.0
-0.0243465 -0.0135082 0.0
-0.0237984 -0.0154978 0.0
-0.023114 -0.0176953 0.0
-0.0222686 -0.0201372 0.0
-0.0212333 -0.022864 0.0
-0.0199745 -0.0259197 0.0
-0.0184546 -0.0293502 0.0
-0.0166315 -0.0332004 0.0
-0.0144594 -0.0375065 0.0
-0.0118905 -0.0422557 0.0
-0.00887638 -0.0471109 0.0
-0.00539046 -0.0496668 0.0
-0.00176439 -0.0367159 0.0
0.00176439 0.0367159 0.0
0.00148708 -0.0325542 0.0
-0.00148708 0.0325542 0.0
-0.0044533 0.04333 0.0
-0.00720821 0.0411621 0.0
-0.0095936 0.0374462 0.0
-0.0116763 0.0340068 0.0
-0.0135075 0.0309787 0.0
-0.0151252 0.0282968 0.0
-0.0165597 0.0258941 0.0
-0.0178357 0.0237182 0.0
-0.0189734 0.0217285 0.0
-0.0199901 0.0198931 0.0
-0.0208999 0.0181866 0.0
-0.0217152 0.0165886 0.0
-0.0224463 0.0150822 0.0
-0.0231022 0.0136534 0.0
-0.0236908 0.0122904 0.0
-0.0242187 0.010983 0.0
-0.0246917 0.00972214 0.0
-0.0251147 0.00849984 0.0
-0.025492 0.00730869 0.0
-0.0258271 0.00614172 0.0
-0.0261228 0.00499225 0.0
-0.0263815 0.00385366 0.0
-0.0266045 0.00271924 0.0
-0.0267929 0.00158205 0.0
-0.0269466 0.000434677 0.0
-0.0270651 -0.000730872 0.0
-0.0271468 -0.00192344 0.0
-0.027189 -0.00315294 0.0
-0.027188 -0.00443063 0.0
-0.0271387 -0.0057694 0.0
-0.0270344 -0.00718419 0.0
-0.0268665 -0.0086923 0.0
-0.0266245 -0.0103139 0.0
-0.0262951 -0.0120725 0.0
-0.0258624 -0.0139954 0.0
-0.0253073 -0.0161139 0.0
-0.0246069 -0.0184641 0.0
-0.0237342 -0.0210866 0.0
-0.0226579 -0.0240263 0.0
-0.0213422 -0.0273319 0.0
-0.0197466 -0.0310536 0.0
-0.0178263 -0.0352405 0.0
-0.0155329 -0.0399318 0.0
-0.0128159 -0.0451164 0.0
-0.00962315 -0.0504571 0.0
-0.00591271 -0.0535171 0.0
-0.00196207 -0.0404424 0.0
0.00196207 0.0404424 0.0
0.00164847 -0.0356897 0.0
-0.00164847 0.0356897 0.0
-0.0048632 0.0463754 0.0
-0.00776896 0.0437774 0.0
-0.0102719 0.0397192 0.0
-0.0124552 0.0359997 0.0
-0.0143737 0.0327354 0.0
-0.0160673 0.0298514 0.0
-0.0175678 0.0272745 0.0
-0.0189012 0.0249472 0.0
-0.0200888 0.022825 0.0
-0.0211487 0.0208732 0.0
-0.0220962 0.0190638 0.0
-0.0229442 0.0173746 0.0
-0.0237039 0.015787 0.0
-0.024385 0.0142857 0.0
-0.024996 0.0128576 0.0
-0.025544 0.0114916 0.0
-0.0260354 0.0101778 0.0
-0.0264756 0.00890739 0.0
-0.0268693 0.00767215 0.0
-0.0272204 0.00646446 0.0
-0.0275321 0.00527696 0.0
-0.0278069 0.00410235 0.0
-0.0280465 0.00293321 0.0
-0.0282519 0.00176185 0.0
-0.0284234 0.000580072 0.0
-0.0285601 -0.000621034 0.0
-0.0286604 -0.00185131 0.0
-0.0287214 -0.00312182 0.0
-0.028739 -0.00444513 0.0
-0.0287076 -0.00583568 0.0
-0.0286197 -0.00731015 0.0
-0.0284659 -0.00888795 0.0
-0.0282347 -0.0105916 0.0
-0.0279115 -0.0124474 0.0
-0.027479 -0.0144857 0.0
-0.0269162 -0.0167415 0.0
-0.0261983 -0.0192548 0.0
-0.0252962 -0.0220706 0.0
-0.0241763 -0.0252385 0.0
-0.0228 -0.0288117 0.0
-0.0211242 -0.0328452 0.0
-0.0191015 -0.0373919 0.0
-0.016681 -0.0424941 0.0
-0.0138098 -0.0481423 0.0
-0.0104319 -0.0540018 0.0
-0.00648832 -0.0576264 0.0
-0.00218378 -0.0445882 0.0
0.00218378 0.0445882 0.0
0.00182981 -0.039168 0.0
-0.00182981 0.039168 0.0
-0.0053153 0.0495973 0.0
-0.00837531 0.0465213 0.0
-0.0109982 0.0421013 0.0
-0.0132848 0.0380875 0.0
-0.0152934 0.0345747 0.0
-0.017066 0.0314783 0.0
-0.0186356 0.0287178 0.0
-0.0200294 0.0262309 0.0
-0.0212698 0.0239693 0.0
-0.0223757 0.0218948 0.0
-0.0233634 0.0199773 0.0
-0.0242465 0.0181923 0.0
-0.0250371 0.0165196 0.0
-0.0257455 0.0149425 0.0
-0.0263806 0.0134468 0.0
-0.0269505 0.0120203 0.0
-0.027462 0.010652 0.0
-0.027921 0.00933242 0.0
-0.0283326 0.00805249 0.0
-0.0287013 0.00680387 0.0
-0.0290305 0.00557843 0.0
-0.0293229 0.00436813 0.0
-0.0295807 0.00316479 0.0
-0.0298049 0.00195988 0.0
-0.0299957 0.000744296 0.0
-0.0301523 -0.000491849 0.0
-0.030273 -0.00175952 0.0
-0.0303545 -0.00307106 0.0
-0.0303923 -0.00444049 0.0
-0.0303802 -0.00588393 0.0
-0.03031 -0.00742003 0.0
-0.0301713 -0.00907042 0.0
-0.0299515 -0.0108602 0.0
-0.0296347 -0.0128187 0.0
-0.0292019 -0.0149796 0.0
-0.0286305 -0.0173818 0.0
-0.0278935 -0.0200694 0.0
-0.0269596 -0.023092 0.0
-0.0257928 -0.0265039 0.0
-0.0243519 -0.0303634 0.0
-0.0225912 -0.0347299 0.0
-0.0204609 -0.0396603 0.0
-0.0179076 -0.0451995 0.0
-0.0148762 -0.0513396 0.0
-0.0113072 -0.0577514 0.0
-0.00712266 -0.0620049 0.0
-0.00243244 -0.0492044 0.0
0.00243244 0.0492044 0.0
0.00203385 -0.0430317 0.0
-0.00203385 0.0430317 0.0
-0.00581452 0.0529998 0.0
-0.00903132 0.0493956 0.0
-0.0117761 0.0445947 0.0
-0.0141682 0.0402727 0.0
-0.0162698 0.0364998 0.0
-0.0181243 0.0331803 0.0
-0.019766 0.0302272 0.0
-0.0212233 0.0275726 0.0
-0.0225195 0.0251642 0.0
-0.0236745 0.0229608 0.0
-0.0247052 0.0209297 0.0
-0.0256262 0.0190441 0.0
-0.0264502 0.0172823 0.0
-0.0271881 0.0156261 0.0
-0.0278498 0.0140601 0.0
-0.0284436 0.0125708 0.0
-0.0289772 0.0111465 0.0
-0.0294568 0.00977662 0.0
-0.0298883 0.00845139 0.0
-0.0302762 0.00716159 0.0
-0.0306247 0.00589831 0.0
-0.0309366 0.00465269 0.0
-0.0312143 0.00341568 0.0
-0.031459 0.00217785 0.0
-0.031671 0.000929106 0.0
-0.0318494 -0.000341558 0.0
-0.0319922 -0.00164635 0.0
-0.0320959 -0.00299901 0.0
-0.0321555 -0.00441518 0.0
-0.032164 -0.00591284 0.0
-0.0321126 -0.00751276 0.0
-0.0319899 -0.00923901 0.0
-0.0317818 -0.0111195 0.0
-0.0314713 -0.0131868 0.0
-0.0310375 -0.0154781 0.0
-0.030456 -0.0180363 0.0
-0.0296978 -0.0209101 0.0
-0.0287292 -0.0241537 0.0
-0.0275118 -0.0278265 0.0
-0.0260021 -0.0319915 0.0
-0.0241517 -0.0367129 0.0
-0.0219082 -0.0420511 0.0
-0.0192166 -0.0480536 0.0
-0.0160195 -0.0547139 0.0
-0.012254 -0.0617116 0.0
-0.00782165 -0.0666617 0.0
-0.00271134 -0.0543482 0.0
0.00271134 0.0543482 0.0
0.00226377 -0.0473293 0.0
-0.00226377 0.0473293 0.0
-0.00636655 0.0565857 0.0
-0.00974159 0.0524016 0.0
-0.0126095 0.0472013 0.0
-0.0151091 0.0425578 0.0
-0.0173061 0.0385132 0.0
-0.0192453 0.0349606 0.0
-0.0209623 0.0318056 0.0
-0.0224862 0.0289753 0.0
-0.0238414 0.026413 0.0
-0.0250487 0.0240743 0.0
-0.0261256 0.0219238 0.0
-0.0270875 0.0199328 0.0
-0.0279477 0.0180778 0.0
-0.0287181 0.016339 0.0
-0.0294088 0.0146997 0.0
-0.0300291 0.0131454 0.0
-0.030587 0.0116633 0.0
-0.0310896 0.010242 0.0
-0.031543 0.00887079 0.0
-0.0319524 0.00753954 0.0
-0.0323221 0.0062385 0.0
-0.0326556 0.0049579 0.0
-0.0329552 0.00368777 0.0
-0.0332224 0.00241766 0.0
-0.0334575 0.00113637 0.0
-0.0336596 -0.000168339 0.0
-0.0338263 -0.00151005 0.0
-0.0339538 -0.00290405 0.0
-0.0340366 -0.00436778 0.0
-0.0340671 -0.00592123 0.0
-0.0340354 -0.00758749 0.0
-0.0339291 -0.00939329 0.0
-0.0337328 -0.0113696 0.0
-0.0334279 -0.0135522 0.0
-0.032992 -0.0159823 0.0
-0.0323985 -0.0187071 0.0
-0.0316164 -0.0217796 0.0
-0.0306098 -0.0252592 0.0
-0.0293379 -0.0292103 0.0
-0.0277546 -0.0337008 0.0
-0.0258093 -0.0387993 0.0
-0.0234474 -0.04457 0.0
-0.0206119 -0.051062 0.0
-0.0172439 -0.0582705 0.0
-0.0132774 -0.065887 0.0
-0.00859178 -0.0716042 0.0
-0.00302413 -0.0600837 0.0
0.00302413 0.0600837 0.0
0.00252326 -0.0521163 0.0
-0.00252326 0.0521163 0.0
-0.00697788 0.060356 0.0
-0.0105114 0.0555397 0.0
-0.0135029 0.0499226 0.0
-0.0161115 0.0449449 0.0
-0.018406 0.0406175 0.0
-0.0204325 0.0368219 0.0
-0.0222276 0.0334564 0.0
-0.0238215 0.0304423 0.0
-0.0252391 0.0277189 0.0
-0.0265021 0.0252385 0.0
-0.0276286 0.022963 0.0
-0.0286348 0.0208617 0.0
-0.0295346 0.018909 0.0
-0.0303405 0.0170839 0.0
-0.0310633 0.0153683 0.0
-0.031713 0.0137467 0.0
-0.0322981 0.0122051 0.0
-0.0328263 0.0107311 0.0
-0.0333042 0.00931303 0.0
-0.0337375 0.00793998 0.0
-0.0341309 0.00660119 0.0
-0.0344881 0.00528592 0.0
-0.0348119 0.00398316 0.0
-0.0351037 0.00268134 0.0
-0.035364 0.00136804 0.0
-0.0355916 2.9659e-05 0.0
-0.035784 -0.00134891 0.0
-0.035937 -0.00278468 0.0
-0.0360443 -0.00429704 0.0
-0.0360976 -0.00590818 0.0
-0.0360862 -0.00764372 0.0
-0.0359963 -0.00953323 0.0
-0.0358114 -0.0116109 0.0
-0.035511 -0.0139161 0.0
-0.0350711 -0.0164942 0.0
-0.0344632 -0.0193966 0.0
-0.0336541 -0.0226813 0.0
-0.0326057 -0.0264125 0.0
-0.0312747 -0.0306599 0.0
-0.0296129 -0.0354963 0.0
-0.0275674 -0.0409946 0.0
-0.0250817 -0.0472222 0.0
-0.0220972 -0.0542299 0.0
-0.0185538 -0.0620139 0.0
-0.0143826 -0.0702814 0.0
-0.00943996 -0.076838 0.0
-0.00337482 -0.0664826 0.0
0.00337482 0.0664826 0.0
0.0028166 -0.0574562 0.0
-0.0028166 0.0574562 0.0
-0.0076559 0.0643101 0.0
-0.0113463 0.0588095 0.0
-0.0144611 0.0527591 0.0
-0.0171795 0.0474354 0.0
-0.0195729 0.0428149 0.0
-0.0216889 0.038767 0.0
-0.0235649 0.0351824 0.0
-0.0252316 0.0319769 0.0
-0.026715 0.0290854 0.0
-0.028037 0.026457 0.0
-0.0292166 0.0240508 0.0
-0.0302706 0.021834 0.0
-0.0312134 0.0197793 0.0
-0.0320582 0.0178642 0.0
-0.0328165 0.0160692 0.0
-0.0334987 0.0143776 0.0
-0.0341141 0.0127745 0.0
-0.0346707 0.0112464 0.0
-0.0351758 0.00978069 0.0
-0.0356356 0.00836538 0.0
-0.0360552 0.00698876 0.0
-0.0364386 0.00563902 0.0
-0.0367888 0.00430401 0.0
-0.0371074 0.00297094 0.0
-0.0373947 0.00162603 0.0
-0.0376496 0.000254171 0.0
-0.0378692 -0.00116142 0.0
-0.0380487 -0.00263966 0.0
-0.0381814 -0.00420204 0.0
-0.0382581 -0.00587319 0.0
-0.0382669 -0.00768141 0.0
-0.0381929 -0.00965933 0.0
-0.0380181 -0.0118446 0.0
-0.0377206 -0.0142803 0.0
-0.0372743 -0.0170161 0.0
-0.0366489 -0.020108 0.0
-0.0358091 -0.0236188 0.0
-0.0347145 -0.027618 0.0
-0.0333198 -0.0321801 0.0
-0.0315746 -0.0373831 0.0
-0.029424 -0.0433039 0.0
-0.0268098 -0.0500127 0.0
-0.0236722 -0.0575615 0.0
-0.0199504 -0.0659474 0.0
-0.0155728 -0.0748968 0.0
-0.0103723 -0.0823659 0.0
-0.00376737 -0.0736248 0.0
0.00376737 0.0736248 0.0
0.00314801 -0.0634208 0.0
-0.00314801 0.0634208 0.0
-0.00840687 0.0684436 0.0
-0.012249 0.0622085 0.0
-0.015484 0.0557099 0.0
-0.0183101 0.0500292 0.0
-0.0208015 0.045106 0.0
-0.0230065 0.040797 0.0
-0.0249634 0.0369852 0.0
-0.0267035 0.0335809 0.0
-0.0282533 0.0305146 0.0
-0.0296354 0.0277319 0.0
-0.0308692 0.0251894 0.0
-0.031972 0.0228521 0.0
-0.0329589 0.020691 0.0
-0.0338435 0.018682 0.0
-0.0346381 0.0168044 0.0
-0.0353536 0.0150402 0.0
-0.0359997 0.0133735 0.0
-0.0365853 0.0117897 0.0
-0.037118 0.0102753 0.0
-0.0376045 0.00881713 0.0
-0.0380504 0.00740246 0.0
-0.03846 0.00601834 0.0
-0.0388365 0.00465135 0.0
-0.0391817 0.00328735 0.0
-0.0394958 0.00191107 0.0
-0.0397775 0.000505741 0.0
-0.0400236 -0.000947262 0.0
-0.040229 -0.00246892 0.0
-0.040386 -0.00408304 0.0
-0.0404848 -0.00581684 0.0
-0.0405122 -0.00770153 0.0
-0.0404524 -0.00977299 0.0
-0.0402856 -0.0120724 0.0
-0.0399886 -0.0146471 0.0
-0.0395334 -0.0175508 0.0
-0.0388879 -0.0208443 0.0
-0.0380148 -0.0245955 0.0
-0.0368718 -0.0288789 0.0
-0.0354115 -0.0337742 0.0
-0.0335818 -0.039364 0.0
-0.0313262 -0.0457292 0.0
-0.0285853 -0.0529425 0.0
-0.0252982 -0.0610565 0.0
-0.0214038 -0.0700687 0.0
-0.0168284 -0.0797284 0.0
-0.0113814 -0.0881818 0.0
-0.00420147 -0.0815937 0.0
0.00420147 0.0815937 0.0
0.00351412 -0.0700829 0.0
-0.00351412 0.0700829 0.0
-0.00921284 0.0727391 0.0
-0.0131799 0.0657223 0.0
-0.0165104 0.0587615 0.0
-0.0194202 0.0527135 0.0
-0.0219854 0.0474782 0.0
-0.0242551 0.0428995 0.0
-0.0262682 0.0388526 0.0
-0.0280565 0.035242 0.0
-0.0296472 0.0319939 0.0
-0.0310633 0.0290507 0.0
-0.032325 0.0263662 0.0
-0.0334502 0.0239032 0.0
-0.0344545 0.0216312 0.0
-0.0353525 0.0195244 0.0
-0.0361569 0.0175609 0.0
-0.0368794 0.0157216 0.0
-0.0375307 0.0139895 0.0
-0.0381202 0.0123488 0.0
-0.0386562 0.010785 0.0
-0.0391461 0.00928383 0.0
-0.0395959 0.00783143 0.0
-0.0400105 0.00641354 0.0
-0.0403933 0.00501545 0.0
-0.0407464 0.0036215 0.0
-0.0410701 0.00221478 0.0
-0.0413631 0.000776752 0.0
-0.041622 -0.000713245 0.0
-0.0418412 -0.00227842 0.0
-0.0420126 -0.00394506 0.0
-0.0421256 -0.00574315 0.0
-0.0421663 -0.00770698 0.0
-0.0421179 -0.00987582 0.0
-0.0419596 -0.0122947 0.0
-0.0416667 -0.0150148 0.0
-0.0412104 -0.0180945 0.0
-0.040557 -0.0215994 0.0
-0.0396681 -0.0256024 0.0
-0.0385002 -0.0301829 0.0
-0.0370046 -0.0354259 0.0
-0.0351283 -0.0414183 0.0
-0.0328139 -0.0482449 0.0
-0.0300015 -0.0559803 0.0
-0.02663 -0.0646773 0.0
-0.0226379 -0.0743342 0.0
-0.0179495 -0.0847266 0.0
-0.01235 -0.0942301 0.0
-0.00464008 -0.0904352 0.0
0.00464008 0.0904352 0.0
0.00383225 -0.0774293 0.0
-0.00383225 0.0774293 0.0
-0.00981483 0.077074 0.0
-0.0136913 0.0692309 0.0
-0.0168996 0.0617917 0.0
-0.019669 0.0553626 0.0
-0.022077 0.0498023 0.0
-0.0241738 0.044942 0.0
-0.0259997 0.0406491 0.0
-0.0275883 0.0368225 0.0
-0.0289687 0.0333845 0.0
-0.0301663 0.0302738 0.0
-0.0312036 0.027442 0.0
-0.0321007 0.0248496 0.0
-0.0328759 0.0224644 0.0
-0.0335458 0.0202591 0.0
-0.0341257 0.0182105 0.0
-0.0346293 0.0162983 0.0
-0.0350693 0.0145041 0.0
-0.035457 0.0128113 0.0
-0.0358025 0.011204 0.0
-0.0361147 0.0096668 0.0
-0.0364009 0.00818447 0.0
-0.0366673 0.00674144 0.0
-0.0369184 0.00532149 0.0
-0.0371572 0.00390735 0.0
-0.0373849 0.00248038 0.0
-0.0376008 0.00102009 0.0
-0.0378022 -0.000496277 0.0
-0.0379842 -0.00209425 0.0
-0.0381393 -0.00380268 0.0
-0.0382576 -0.00565435 0.0
-0.0383259 -0.00768665 0.0
-0.0383283 -0.00994225 0.0
-0.038245 -0.0124698 0.0
-0.0380526 -0.0153248 0.0
-0.0377237 -0.0185698 0.0
-0.0372262 -0.022275 0.0
-0.0365237 -0.0265183 0.0
-0.0355745 -0.0313842 0.0
-0.0343323 -0.0369624 0.0
-0.0327458 -0.0433447 0.0
-0.0307594 -0.0506193 0.0
-0.0283139 -0.0588637 0.0
-0.0253483 -0.0681312 0.0
-0.0217991 -0.0784217 0.0
-0.0175843 -0.0895424 0.0
-0.01246 -0.100138 0.0
-0.00481092 -0.0998862 0.0
0.00481092 0.0998862 0.0
0.00338549 -0.084647 0.0
-0.00338549 0.084647 0.0
-0.00804389 0.0804973 0.0
-0.0101354 0.0717757 0.0
-0.0115067 0.0638264 0.0
-0.0123988 0.0569893 0.0
-0.0128979 0.0510827 0.0
-0.0130661 0.0459265 0.0
-0.0129572 0.0413814 0.0
-0.0126194 0.037341 0.0
-0.0120961 0.0337231 0.0
-0.0114264 0.030463 0.0
-0.0106454 0.027509 0.0
-0.00978473 0.024819 0.0
-0.00887275 0.0223582 0.0
-0.0079347 0.0200972 0.0
-0.00699305 0.0180106 0.0
-0.00606768 0.0160764 0.0
-0.00517609 0.0142744 0.0
-0.00433358 0.0125862 0.0
-0.00355342 0.0109944 0.0
-0.00284703 0.0094821 0.0
-0.00222412 0.00803248 0.0
-0.00169278 0.00662849 0.0
-0.00125964 0.00525241 0.0
-0.000929898 0.00388548 0.0
-0.000707427 0.00250747 0.0
-0.000594782 0.00109627 0.0
-0.000593222 -0.000372598 0.0
-0.000702683 -0.0019265 0.0
-0.000921722 -0.00359626 0.0
-0.00124743 -0.00541683 0.0
-0.00167527 -0.00742796 0.0
-0.00219891 -0.00967495 0.0
-0.00280994 -0.0122094 0.0
-0.00349758 -0.01509 0.0
-0.00424819 -0.0183829 0.0
-0.00504481 -0.0221626 0.0
-0.00586649 -0.0265115 0.0
-0.00668751 -0.0315191 0.0
-0.00747648 -0.0372807 0.0
-0.00819531 -0.043894 0.0
-0.00879807 -0.0514537 0.0
-0.00922986 -0.060043 0.0
-0.00942555 -0.0697218 0.0
-0.00930667 -0.0804992 0.0
-0.00876006 -0.0922263 0.0
-0.00747621 -0.103862 0.0
-0.00329504 -0.107992 0.0
0.00329504 0.107992 0.0
-0.00238978 -0.0856427 0.0
0.00238978 0.0856427 0.0
0.00969539 0.0768543 0.0
0.0198552 0.0673504 0.0
0.0304271 0.0590511 0.0
0.0410701 0.0520136 0.0
0.0516206 0.046007 0.0
0.0619595 0.0408314 0.0
0.0719943 0.0363329 0.0
0.0816532 0.0323928 0.0
0.0908826 0.0289187 0.0
0.0996431 0.0258372 0.0
0.107907 0.0230895 0.0
0.115658 0.0206274 0.0
0.122884 0.0184113 0.0
0.129583 0.0164077 0.0
0.135753 0.0145881 0.0
0.141399 0.0129278 0.0
0.146525 0.0114048 0.0
0.151139 0.00999933 0.0
0.155247 0.00869306 0.0
0.158856 0.00746866 0.0
0.16197 0.00630932 0.0
0.164591 0.00519833 0.0
0.166722 0.00411865 0.0
0.168359 0.00305251 0.0
0.169496 0.00198099 0.0
0.170123 0.000883548 0.0
0.170224 -0.000262484 0.0
0.169779 -0.00148244 0.0
0.168763 -0.00280497 0.0
0.167143 -0.00426271 0.0
0.164882 -0.00589306 0.0
0.161935 -0.00773904 0.0
0.158251 -0.00985019 0.0
0.153773 -0.0122835 0.0
0.148438 -0.0151043 0.0
0.14218 -0.0183868 0.0
0.13493 -0.0222151 0.0
0.126618 -0.0266824 0.0
0.11718 -0.0318905 0.0
0.106562 -0.0379476 0.0
0.0947288 -0.044964 0.0
0.0816734 -0.0530455 0.0
0.0674333 -0.0622834 0.0
0.0521107 -0.0727338 0.0
0.0359189 -0.0843465 0.0
0.0193853 -0.0964923 0.0
0.00556456 -0.105723 0.0
-0.00556456 0.105723 0.0
-0.0416265 -0.0416265 0.0
0.0416265 0.0416265 0.0
0.119222 0.0359693 0.0
0.186245 0.0310532 0.0
0.244159 0.0268616 0.0
0.29437 0.0233493 0.0
0.338105 0.0203858 0.0
0.376355 0.0178639 0.0
0.40992 0.0157009 0.0
0.439453 0.0138325 0.0
0.465494 0.0122086 0.0
0.488492 0.0107891 0.0
0.508823 0.00954206 0.0
0.526807 0.00844118 0.0
0.542713 0.00746496 0.0
0.556773 0.00659541 0.0
0.569186 0.00581735 0.0
0.580121 0.00511774 0.0
0.589724 0.00448526 0.0
0.598119 0.00390982 0.0
0.605411 0.00338232 0.0
0.611688 0.00289433 0.0
0.61702 0.00243783 0.0
0.621463 0.00200502 0.0
0.625056 0.00158809 0.0
0.627823 0.001179 0.0
0.629771 0.000769265 0.0
0.63089 0.000349726 0.0
0.63115 -8.97186e-05 0.0
0.6305 -0.000560392 0.0
0.628865 -0.00107516 0.0
0.626141 -0.00164882 0.0
0.622193 -0.00229846 0.0
0.616851 -0.00304399 0.0
0.609898 -0.00390858 0.0
0.60107 -0.00491924 0.0
0.590044 -0.00610737 0.0
0.576427 -0.00750925 0.0
0.559751 -0.00916649 0.0
0.539459 -0.0111263 0.0
0.514891 -0.0134413 0.0
0.485281 -0.0161689 0.0
0.449742 -0.0193702 0.0
0.407265 -0.0231069 0.0
0.35672 -0.0274375 0.0
0.296873 -0.0324098 0.0
0.226429 -0.0380345 0.0
0.144276 -0.0441181 0.0
0.050079 -0.050079 0.0
-0.050079 0.050079 0.0
-1.95837 0.0416265 0.0
1.95837 -0.0416265 0.0
1.88078 -0.0359693 0.0
1.81376 -0.0310532 0.0
1.75584 -0.0268616 0.0
1.70563 -0.0233493 0.0
1.66189 -0.0203858 0.0
1.62364 -0.0178639 0.0
1.59008 -0.0157009 0.0
1.56055 -0.0138325 0.0
1.53451 -0.0122086 0.0
1.51151 -0.0107891 0.0
1.49118 -0.00954206 0.0
1.47319 -0.00844118 0.0
1.45729 -0.00746496 0.0
1.44323 -0.00659541 0.0
1.43081 -0.00581735 0.0
1.41988 -0.00511774 0.0
1.41028 -0.00448526 0.0
1.40188 -0.00390982 0.0
1.39459 -0.00338232 0.0
1.38831 -0.00289433 0.0
1.38298 -0.00243783 0.0
1.37854 -0.00200502 0.0
1.37494 -0.00158809 0.0
1.37218 -0.001179 0.0
1.37023 -0.000769265 0.0
1.36911 -0.000349726 0.0
1.36885 8.97186e-05 0.0
1.3695 0.000560392 0.0
1.37114 0.00107516 0.0
1.37386 0.00164882 0.0
1.37781 0.00229846 0.0
1.38315 0.00304399 0.0
1.3901 0.00390858 0.0
1.39893 0.00491924 0.0
1.40996 0.00610737 0.0
1.42357 0.00750925 0.0
1.44025 0.00916649 0.0
1.46054 0.0111263 0.0
1.48511 0.0134413 0.0
1.51472 0.0161689 0.0
1.55026 0.0193702 0.0
1.59274 0.0231069 0.0
1.64328 0.0274375 0.0
1.70313 0.0324098 0.0
1.77357 0.0380345 0.0
1.85572 0.0441181 0.0
1.94992 0.050079 0.0
-1.94992 -0.050079 0.0
