# vtk DataFile Version 3.0
DroneCFD Output
ASCII
DATASET STRUCTURED_POINTS
DIMENSIONS 50 50 1
ORIGIN 0 0 0
SPACING 0.02 0.02 1
POINT_DATA 2500
SCALARS pressure double 1
LOOKUP_TABLE default
0
0
-0.00195773
-0.00249823
-0.00235916
-0.00200686
-0.00160144
-0.00118217
-0.000756074
-0.000323765
0.000114993
0.000560403
0.00101257
0.00147156
0.00193739
0.00241011
0.00288978
0.00337647
0.00387028
0.00437135
0.00487984
0.00539592
0.00591981
0.00645173
0.00699193
0.00754067
0.00809823
0.00866489
0.00924095
0.00982669
0.0104224
0.0110283
0.0116448
0.0122719
0.0129098
0.0135587
0.0142184
0.0148886
0.0155688
0.0162582
0.0169552
0.0176575
0.0183616
0.0190603
0.0197348
0.0203205
0.0205993
0.0199767
0.0175213
0.0175213
0
0
-0.00195773
-0.00249823
-0.00235916
-0.00200686
-0.00160144
-0.00118217
-0.000756074
-0.000323765
0.000114993
0.000560403
0.00101257
0.00147156
0.00193739
0.00241011
0.00288978
0.00337647
0.00387028
0.00437135
0.00487984
0.00539592
0.00591981
0.00645173
0.00699193
0.00754067
0.00809823
0.00866489
0.00924095
0.00982669
0.0104224
0.0110283
0.0116448
0.0122719
0.0129098
0.0135587
0.0142184
0.0148886
0.0155688
0.0162582
0.0169552
0.0176575
0.0183616
0.0190603
0.0197348
0.0203205
0.0205993
0.0199767
0.0175213
0.0175213
0.00130804
0.00130804
-0.000660309
-0.00119911
-0.00106665
-0.000732631
-0.000356031
2.57809e-05
0.00040751
0.000789951
0.00117446
0.00156213
0.00195377
0.00234997
0.0027512
0.00315782
0.00357014
0.0039884
0.00441285
0.00484369
0.00528114
0.00572539
0.00617665
0.00663513
0.00710104
0.0075746
0.00805606
0.00854564
0.00904362
0.00955025
0.0100658
0.0105907
0.011125
0.0116693
0.0122238
0.0127889
0.0133647
0.0139518
0.01455
0.0151595
0.01578
0.0164105
0.0170493
0.0176917
0.0183213
0.0188764
0.0191405
0.0185147
0.0160423
0.0160423
0.001697
0.001697
-0.000297854
-0.000838648
-0.000707235
-0.000376564
-5.7679e-06
0.000368033
0.000739764
0.00111041
0.00148149
0.00185424
0.00222963
0.00260838
0.00299107
0.00337819
0.00377013
0.00416725
0.00456987
0.00497829
0.0053928
0.00581368
0.0062412
0.00667565
0.0071173
0.00756646
0.00802342
0.00848851
0.00896207
0.00944444
0.00993602
0.0104372
0.0109484
0.0114701
0.0120027
0.0125467
0.0131026
0.0136709
0.0142518
0.0148456
0.0154522
0.0160709
0.0167002
0.0173355
0.0179608
0.0185143
0.0187786
0.0181496
0.0156414
0.0156414
0.00178845
0.00178845
-0.000237427
-0.000777144
-0.0006412
-0.000307289
6.52084e-05
0.000439457
0.000810607
0.0011798
0.00154867
0.00191858
0.00229055
0.00266538
0.00304372
0.0034261
0.00381297
0.00420474
0.00460176
0.00500438
0.00541292
0.00582769
0.00624902
0.00667721
0.00711258
0.00755547
0.00800622
0.00846519
0.00893275
0.00940932
0.00989532
0.0103912
0.0108974
0.0114146
0.0119431
0.0124837
0.0130367
0.0136029
0.0141826
0.0147761
0.0153834
0.0160042
0.0166369
0.0172771
0.0179087
0.01847
0.0187422
0.0181136
0.0155618
0.0155618
0.00179289
0.00179289
-0.000267451
-0.000804495
-0.000661003
-0.000320826
5.6341e-05
0.000434033
0.000807681
0.00117861
0.00154862
0.00191916
0.00229134
0.00266604
0.00304397
0.0034257
0.00381174
0.00420251
0.00459842
0.00499982
0.00540708
0.00582053
0.0062405
0.00666734
0.0071014
0.00754302
0.00799258
0.00845047
0.00891709
0.00939288
0.00987831
0.0103739
0.0108801
0.0113976
0.011927
0.0124688
0.0130238
0.0135925
0.0141756
0.0147735
0.0153863
0.0160137
0.0166544
0.0173041
0.0179468
0.0185205
0.0188049
0.0181782
0.0155759
0.0155759
0.00176757
0.00176757
-0.000330589
-0.000863678
-0.000710335
-0.000361865
2.16978e-05
0.000404355
0.000781885
0.00115585
0.00152821
0.00190055
0.00227409
0.0026498
0.00302845
0.00341067
0.003797
0.00418793
0.00458388
0.00498525
0.00539242
0.00580575
0.0062256
0.00665234
0.00708634
0.00752798
0.00797765
0.00843577
0.00890278
0.00937917
0.00986543
0.0103621
0.0108698
0.0113892
0.0119209
0.0124657
0.0130244
0.0135976
0.0141861
0.0147905
0.0154111
0.0160477
0.0166992
0.0173613
0.0180184
0.0186082
0.0189083
0.0182847
0.015625
0.015625
0.00172566
0.00172566
-0.000413733
-0.000941499
-0.000776139
-0.00041759
-2.6212e-05
0.000362574
0.000744961
0.00112279
0.00149822
0.001873
0.00224847
0.00262569
0.00300552
0.00338865
0.0037757
0.00416717
0.00456354
0.00496525
0.0053727
0.00578628
0.00620639
0.00663342
0.00706776
0.00750983
0.00796004
0.00841886
0.00888677
0.00936428
0.00985195
0.0103504
0.0108603
0.0113823
0.0119173
0.012466
0.0130294
0.0136083
0.0142037
0.0148162
0.0154464
0.0160943
0.016759
0.0174364
0.0181109
0.0187201
0.0190392
0.0184202
0.0156961
0.0156961
0.00166967
0.00166967
-0.000514418
-0.00103529
-0.000855738
-0.000485381
-8.48427e-05
0.00031115
0.000699275
0.00108169
0.00146081
0.00183853
0.00221636
0.00259547
0.0029768
0.00336115
0.00374916
0.00414141
0.00453843
0.00494068
0.00534861
0.00576265
0.00618322
0.00661075
0.00704566
0.00748839
0.00793942
0.00839923
0.00886834
0.00934734
0.00983683
0.0103375
0.0108501
0.0113754
0.0119143
0.0124678
0.013037
0.0136227
0.0142262
0.0148484
0.01549
0.0161512
0.0168314
0.0175268
0.0182217
0.0188536
0.0191953
0.0185824
0.0157871
0.0157871
0.00159982
0.00159982
-0.00063238
-0.00114455
-0.000948568
-0.000564689
-0.000153678
0.000250569
0.000645285
0.001033
0.00141637
0.00179752
0.00217812
0.00255946
0.00294259
0.0033284
0.0037176
0.00411083
0.00450868
0.00491165
0.00532023
0.0057349
0.0061561
0.0065843
0.00701997
0.00746358
0.00791565
0.0083767
0.00884732
0.00932814
0.00981983
0.0103232
0.010839
0.0113682
0.0119117
0.0124708
0.0130466
0.0136404
0.0142533
0.0148866
0.0155414
0.016218
0.016916
0.0176319
0.0183502
0.0190082
0.019376
0.0187712
0.0158977
0.0158977
0.00151583
0.00151583
-0.000767762
-0.00126911
-0.00105442
-0.000655327
-0.000232551
0.000180975
0.000583113
0.000976798
0.00136499
0.00175005
0.0021338
0.0025177
0.00290292
0.00329043
0.00368103
0.00407544
0.00447429
0.00487814
0.00528753
0.00570298
0.00612498
0.00655403
0.00699063
0.00743532
0.00788864
0.00835119
0.0088236
0.00930655
0.00980083
0.0103073
0.0108268
0.0113604
0.0119094
0.0124749
0.0130583
0.0136611
0.0142847
0.0149307
0.0156003
0.0162943
0.0170125
0.0177515
0.0184962
0.0191837
0.0195812
0.018987
0.0160284
0.0160284
0.00141727
0.00141727
-0.000920788
-0.0014089
-0.00117315
-0.000757149
-0.000321344
0.000102463
0.000512836
0.000913162
0.00130672
0.00169613
0.00208343
0.00247021
0.00285779
0.00324723
0.00363944
0.00403521
0.00443522
0.00484011
0.00525047
0.00566684
0.00608979
0.00651984
0.00695756
0.00740352
0.00785831
0.00832259
0.00879706
0.00928248
0.0097797
0.0102897
0.0108134
0.0113521
0.0119071
0.0124798
0.0130717
0.0136847
0.0143204
0.0149805
0.0156667
0.0163801
0.0171207
0.0178855
0.0186594
0.0193797
0.0198107
0.0192299
0.0161799
0.0161799
0.00130354
0.00130354
-0.00109171
-0.00156381
-0.00130457
-0.000870002
-0.000419934
1.51293e-05
0.000434529
0.000842141
0.00124161
0.00163581
0.00202701
0.00241698
0.00280718
0.00319878
0.0035928
0.00399009
0.00439143
0.00479751
0.00520897
0.00562642
0.00605046
0.00648168
0.00692067
0.00736808
0.00782456
0.00829081
0.00876761
0.0092558
0.00975633
0.0102702
0.0107987
0.011343
0.0119047
0.0124854
0.0130868
0.013711
0.01436
0.0150358
0.0157403
0.016475
0.0172403
0.0180335
0.0188397
0.0195961
0.0200645
0.0195005
0.016353
0.016353
0.00117394
0.00117394
-0.00128082
-0.00173372
-0.0014485
-0.000993721
-0.000528188
-8.09222e-05
0.000348268
0.000763793
0.00116968
0.0015691
0.00196456
0.00235802
0.00275107
0.00314505
0.00354106
0.00394005
0.00434287
0.00475028
0.00516298
0.00558164
0.00600691
0.00643943
0.00687987
0.00732891
0.00778727
0.00825572
0.00873512
0.00922639
0.00973058
0.0102489
0.0107825
0.0113331
0.0119021
0.0124916
0.0131034
0.01374
0.0144035
0.0150964
0.015821
0.016579
0.0173712
0.0181953
0.0190366
0.0198325
0.0203423
0.0197991
0.0165486
0.0165486
0.0010276
0.0010276
-0.00148839
-0.0019185
-0.00160474
-0.00112813
-0.000645963
-0.000185581
0.000254139
0.000678178
0.00109098
0.00149603
0.00189608
0.0022933
0.00268947
0.00308602
0.00348419
0.00388503
0.00428947
0.00469834
0.0051124
0.0055324
0.00595904
0.00639302
0.00683505
0.00728589
0.00774633
0.0082172
0.00869945
0.00919411
0.00970231
0.0102254
0.0107647
0.011322
0.0118991
0.0124981
0.0131214
0.0137713
0.0144506
0.0151621
0.0159084
0.0166917
0.0175131
0.0183706
0.0192499
0.0200885
0.0206439
0.020126
0.0167679
0.0167679
0.000863496
0.000863496
-0.00171477
-0.00211799
-0.00177305
-0.00127302
-0.000773102
-0.000298728
0.000152229
0.00058536
0.00100554
0.00141661
0.00182158
0.00222283
0.00262232
0.00302165
0.00342215
0.00382498
0.00423117
0.00464162
0.00505717
0.00547863
0.00590676
0.00634232
0.0067861
0.00723891
0.00770161
0.00817513
0.00866049
0.00915882
0.00967138
0.0101996
0.0107451
0.0113098
0.0118956
0.0125049
0.0131404
0.0138048
0.0145012
0.0152328
0.0160024
0.0168129
0.0176657
0.018559
0.019479
0.0203637
0.020969
0.0204817
0.0170123
0.0170123
0.00068043
0.00068043
-0.00196028
-0.00233202
-0.00195318
-0.00142818
-0.000909439
-0.000420236
4.26316e-05
0.000485403
0.000913417
0.00133087
0.00174105
0.0021466
0.00254962
0.00295189
0.00335487
0.00375984
0.00416789
0.00458004
0.00499719
0.00542022
0.00584995
0.00628723
0.0067329
0.00718784
0.00765298
0.00812936
0.00861807
0.00912036
0.00963763
0.0101714
0.0107236
0.0112961
0.0118913
0.0125117
0.0131604
0.0138403
0.014555
0.015308
0.0161027
0.0169422
0.0178285
0.0187601
0.0197236
0.0206576
0.0213172
0.0208666
0.0172833
0.0172833
0.000476996
0.000476996
-0.0022253
-0.00256039
-0.00214485
-0.00159339
-0.00105479
-0.000549969
-7.45528e-05
0.000378377
0.000814646
0.00123883
0.00165451
0.00206457
0.00247133
0.0028767
0.00328231
0.00368952
0.00409956
0.00451351
0.00493236
0.00535706
0.00578852
0.00622763
0.00667531
0.00713253
0.00760031
0.00807974
0.00857204
0.00907858
0.00960087
0.0101407
0.0106999
0.0112809
0.011886
0.0125184
0.013181
0.0138775
0.0146117
0.0153876
0.0162089
0.0170794
0.0180012
0.0189734
0.0199831
0.0209696
0.0216881
0.021281
0.0175829
0.0175829
0.000251564
0.000251564
-0.0025102
-0.00280285
-0.00234777
-0.00176839
-0.00120897
-0.000687784
-0.00019922
0.000264353
0.000709272
0.0011405
0.00156195
0.00197674
0.00238741
0.00279604
0.00320439
0.00361397
0.00402609
0.00444193
0.00486258
0.00528905
0.00572232
0.00616338
0.00661321
0.00707286
0.00754342
0.00802611
0.00852224
0.0090333
0.00956095
0.0101071
0.0106739
0.0112638
0.0118796
0.0125246
0.0132021
0.0139162
0.0146711
0.0154712
0.0163208
0.0172239
0.0181833
0.0191985
0.0202568
0.0212989
0.022081
0.0217254
0.0179132
0.0179132
2.25017e-06
2.25017e-06
-0.00281537
-0.00305916
-0.00256162
-0.00195292
-0.00137178
-0.000833528
-0.000331261
0.000143405
0.000597337
0.00103591
0.00146337
0.00188308
0.00229782
0.00270984
0.00312105
0.00353309
0.00394738
0.0043652
0.00478772
0.00521605
0.00565124
0.00609434
0.00654644
0.00700866
0.00748218
0.00796832
0.0084685
0.00898435
0.00951768
0.0100706
0.0106454
0.0112448
0.0118718
0.0125301
0.0132234
0.0139561
0.0147328
0.0155584
0.0164378
0.0173754
0.0183744
0.0194346
0.0205441
0.0216449
0.0224953
0.0221999
0.0182766
0.0182766
-0.000273118
-0.000273118
-0.00314122
-0.003329
-0.00278604
-0.00214669
-0.00154299
-0.000987041
-0.000470561
1.56098e-05
0.000478887
0.000925074
0.00135875
0.00178357
0.00220251
0.00261804
0.00303221
0.00344679
0.00386333
0.00428321
0.00470768
0.00513794
0.00557513
0.00602039
0.00647487
0.00693978
0.00741642
0.00790619
0.00841065
0.00893155
0.00947086
0.0100308
0.0106141
0.0112235
0.0118624
0.0125347
0.0132446
0.0139969
0.0147965
0.015649
0.0165596
0.0175333
0.0185737
0.019681
0.020844
0.0220064
0.0229301
0.0227049
0.0186762
0.0186762
-0.000577039
-0.000577039
-0.00348818
-0.00361205
-0.00302067
-0.00234941
-0.00172238
-0.00114816
-0.000617
-0.000118954
0.000353966
0.000808004
0.00124809
0.00167816
0.00210144
0.00252057
0.00293779
0.00335499
0.00377384
0.00419583
0.00462232
0.00505459
0.00549386
0.00594135
0.00639832
0.00686606
0.00734596
0.00783955
0.0083485
0.0088747
0.00942031
0.00998775
0.0105798
0.0111997
0.0118512
0.0125382
0.0132655
0.0140382
0.0148619
0.0157425
0.0166857
0.017697
0.0187806
0.019937
0.0211557
0.0223825
0.0233846
0.0232405
0.019115
0.019115
-0.000912384
-0.000912384
-0.00385667
-0.00390793
-0.00326509
-0.00256077
-0.00190972
-0.0013167
-0.000770454
-0.000260205
0.00022262
0.000684717
0.00113138
0.00156684
0.00199455
0.00241737
0.0028377
0.00325758
0.0036788
0.00410296
0.00453152
0.00496585
0.00540727
0.00585709
0.00631664
0.00678733
0.00727064
0.00776821
0.00828186
0.00881362
0.00936581
0.00994106
0.0105424
0.0111733
0.0118377
0.0125402
0.0132856
0.0140797
0.0149285
0.0158383
0.0168155
0.017866
0.0189944
0.0202017
0.0214781
0.022772
0.0238574
0.0238068
0.019597
0.019597
-0.00128245
-0.00128245
-0.00424712
-0.00421623
-0.0035189
-0.00278043
-0.00210475
-0.00149248
-0.000930795
-0.000408059
8.48947e-05
0.000555226
0.0010086
0.00144955
0.00188178
0.00230836
0.00273185
0.00315445
0.00357808
0.00400446
0.00443514
0.00487159
0.00531522
0.00576744
0.00622967
0.00670342
0.00719028
0.007692
0.00821055
0.0087481
0.00930716
0.00989056
0.0105016
0.0111439
0.0118219
0.0125404
0.0133048
0.0141211
0.0149959
0.0159361
0.0169484
0.0180395
0.0192141
0.020474
0.02181
0.0231735
0.0243474
0.0244038
0.0201265
0.0201265
-0.00169102
-0.00169102
-0.00465993
-0.0045365
-0.00378164
-0.00300805
-0.00230721
-0.00167532
-0.00109789
-0.000562432
-5.9165e-05
0.000419543
0.000879734
0.00132626
0.00176308
0.00219346
0.00262015
0.0030455
0.00347158
0.00390019
0.00433303
0.00477164
0.00521755
0.00567224
0.00613724
0.00661415
0.00710469
0.00761073
0.00813436
0.00867794
0.00924414
0.00983601
0.0104571
0.0111113
0.0118034
0.0125385
0.0133225
0.0141619
0.0150636
0.0160351
0.0170838
0.0182166
0.019439
0.0207528
0.0221501
0.0235855
0.0248531
0.0250314
0.0207082
0.0207082
-0.00214242
-0.00214242
-0.00509552
-0.00486822
-0.00405285
-0.00324327
-0.00251685
-0.00186502
-0.00127161
-0.000723237
-0.000209513
0.00027768
0.000744771
0.00119693
0.00163837
0.00207258
0.00250249
0.00293062
0.00335915
0.00379004
0.00422505
0.00466587
0.00511409
0.00557132
0.00603917
0.00651935
0.00701369
0.0075242
0.00805311
0.00860293
0.00917653
0.00977718
0.0104087
0.0110753
0.0117819
0.0125342
0.0133384
0.0142015
0.0151311
0.0161349
0.0172209
0.0183966
0.0196678
0.0210369
0.0224968
0.0240062
0.0253726
0.0256891
0.021348
0.021348
-0.00264164
-0.00264164
-0.00555425
-0.00521086
-0.00433204
-0.00348573
-0.00273339
-0.00206138
-0.00145181
-0.000890387
-0.000366104
0.000129647
0.000603688
0.00106151
0.00150759
0.00194564
0.00237878
0.00280969
0.00324068
0.00367384
0.00411106
0.00455411
0.00500469
0.00546451
0.00593528
0.00641883
0.0069171
0.00743222
0.00796657
0.00852285
0.0091041
0.00971383
0.0103561
0.0110354
0.0117571
0.0125271
0.0133521
0.0142397
0.0151977
0.0162346
0.0173589
0.0185784
0.0198995
0.0213249
0.0228486
0.0244338
0.0259039
0.0263765
0.0220523
0.0220523
-0.00319438
-0.00319438
-0.00603647
-0.00556381
-0.0046187
-0.00373506
-0.00295656
-0.00226421
-0.00163835
-0.00106379
-0.000528892
-2.4546e-05
0.000456464
0.000919953
0.00137067
0.00181255
0.00224892
0.00268259
0.00311604
0.00355148
0.00399091
0.00443621
0.00488919
0.00535165
0.00582541
0.00631241
0.00681471
0.00733459
0.00787456
0.00843748
0.00902662
0.00964569
0.010299
0.0109914
0.0117285
0.0125167
0.0133631
0.0142757
0.0152628
0.0163335
0.0174968
0.0187609
0.0201326
0.0216152
0.0232036
0.0248661
0.0264449
0.0270926
0.0228282
0.0228282
-0.00380718
-0.00380718
-0.00654246
-0.00592644
-0.00491234
-0.00399089
-0.00318608
-0.00247331
-0.0018311
-0.00124337
-0.000697834
-0.000184891
0.000303077
0.000772216
0.00122755
0.00167324
0.00211279
0.00254921
0.0029851
0.00342281
0.00386445
0.00431202
0.00476742
0.00523256
0.00570938
0.00619992
0.00670636
0.00723111
0.00777684
0.0083466
0.00894383
0.0095725
0.0102371
0.0109429
0.0116959
0.0125027
0.0133709
0.0143089
0.0153257
0.0164308
0.0176336
0.0189429
0.0203658
0.0219061
0.0235598
0.0253008
0.026993
0.0278365
0.0236843
0.0236843
-0.00448757
-0.00448757
-0.00707242
-0.00629806
-0.00521242
-0.00425283
-0.00342167
-0.00268847
-0.00202993
-0.00142904
-0.000872888
-0.000351382
0.000143505
0.000618249
0.00107815
0.0015276
0.0019703
0.00240943
0.00284774
0.0032877
0.00373154
0.00418138
0.00463923
0.00510709
0.00558702
0.00608116
0.00659183
0.00712157
0.00767322
0.00824997
0.00885549
0.00949396
0.0101702
0.0108897
0.0116587
0.0124845
0.0133749
0.0143387
0.0153856
0.0165254
0.0177682
0.019123
0.0205975
0.0221956
0.023915
0.0257353
0.0275453
0.0286065
0.02463
0.02463
-0.00524419
-0.00524419
-0.00762646
-0.00667793
-0.00551843
-0.00452053
-0.00366308
-0.00290952
-0.00223469
-0.00162071
-0.00105401
-0.000524013
-2.2276e-05
0.000458005
0.000922406
0.00137556
0.00182135
0.00226314
0.00270383
0.00314601
0.00359204
0.00404415
0.00450445
0.00497506
0.00545815
0.00595596
0.00647095
0.00700578
0.00756345
0.00814735
0.00876132
0.00940979
0.0100978
0.0108312
0.0116166
0.0124615
0.0133744
0.0143644
0.0154416
0.0166164
0.0178992
0.0192998
0.0208258
0.0224818
0.0242667
0.0261668
0.0280987
0.0294009
0.0256761
0.0256761
-0.00608697
-0.00608697
-0.00820454
-0.00706527
-0.00582985
-0.00479364
-0.00391005
-0.00313626
-0.00244528
-0.00181831
-0.00124118
-0.000702781
-0.000194291
0.000291437
0.000760254
0.00121702
0.00166585
0.00211023
0.00255325
0.00299761
0.00344581
0.00390018
0.00436294
0.00483633
0.0053226
0.00582414
0.00634351
0.00688352
0.00744733
0.00803848
0.00866104
0.00931965
0.0100196
0.0107671
0.0115691
0.0124333
0.0133687
0.014385
0.0154926
0.0167025
0.0180254
0.0194715
0.0210489
0.0227623
0.0246122
0.0265921
0.0286496
0.0302173
0.026835
0.026835
-0.00702735
-0.00702735
-0.00880647
-0.00745929
-0.0061462
-0.00507182
-0.00416234
-0.00336853
-0.00266157
-0.00202178
-0.00143435
-0.000887689
-0.000372565
0.000118497
0.000591629
0.00105193
0.00150369
0.00195061
0.00239589
0.0028424
0.00329273
0.00374934
0.00421456
0.00469073
0.00518021
0.00568551
0.00620932
0.00675458
0.00732459
0.0079231
0.00855434
0.0092232
0.00993525
0.0106969
0.0115155
0.0123992
0.0133572
0.0143998
0.0155377
0.0167824
0.0181452
0.0196364
0.0212645
0.0230347
0.0249487
0.0270079
0.0291941
0.0310526
0.0281204
0.0281204
-0.00807852
-0.00807852
-0.00943183
-0.00785914
-0.006467
-0.00535477
-0.00441975
-0.00360619
-0.00288349
-0.00223107
-0.00163351
-0.00107874
-0.000557129
-6.0861e-05
0.000416469
0.000880193
0.00133481
0.00178418
0.00223166
0.00268025
0.00313268
0.0035915
0.00405916
0.00453811
0.00503082
0.00553991
0.00606818
0.00661873
0.00719501
0.00780091
0.00844089
0.00912005
0.00984421
0.0106201
0.0114552
0.0123583
0.0133389
0.0144075
0.0155756
0.0168548
0.0182568
0.0197925
0.0214704
0.0232961
0.025273
0.0274106
0.029728
0.0319032
0.0295482
0.0295482
-0.0092557
-0.0092557
-0.01008
-0.00826397
-0.00679183
-0.00564223
-0.00468209
-0.00384912
-0.00311094
-0.00244613
-0.00183865
-0.00127596
-0.000748014
-0.000246685
0.000234714
0.000701748
0.00115911
0.00161084
0.00206045
0.00251106
0.00296554
0.00342653
0.00389662
0.00437833
0.00487426
0.00538714
0.0059199
0.00647575
0.0070583
0.00767162
0.00832034
0.00900978
0.00974601
0.010536
0.0113877
0.0123099
0.0133128
0.0144072
0.0156048
0.0169179
0.0183584
0.0199375
0.021664
0.0235437
0.0255818
0.0277962
0.0302465
0.0327648
0.0311363
0.0311363
-0.0105765
-0.0105765
-0.0107498
-0.00867292
-0.00712032
-0.00593399
-0.00494923
-0.00409724
-0.0033439
-0.00266695
-0.00204978
-0.00147936
-0.000945261
-0.000439024
4.63073e-05
0.000516529
0.000976539
0.00143054
0.00188219
0.00233476
0.00279122
0.00325434
0.00372681
0.00421126
0.00471039
0.00522704
0.00576426
0.00632539
0.00691419
0.00753488
0.00819229
0.00889193
0.00964011
0.0104441
0.011312
0.0122532
0.0132779
0.0143975
0.015624
0.01697
0.0184479
0.020069
0.0218424
0.0237743
0.0258712
0.0281604
0.0307445
0.0336319
0.0329048
0.0329048
-0.0120612
-0.0120612
-0.01144
-0.00908514
-0.00745218
-0.00622992
-0.00522111
-0.00435052
-0.00358235
-0.00289356
-0.00226694
-0.00168899
-0.00114892
-0.000637934
-0.000148811
0.000324475
0.000787017
0.00124319
0.0016968
0.00215125
0.00260962
0.00307482
0.00354961
0.00403675
0.00453903
0.00505941
0.00560103
0.00616739
0.00676236
0.00739033
0.0080563
0.00876597
0.00952589
0.0103435
0.0112274
0.0121869
0.0132329
0.0143769
0.0156314
0.0170092
0.0185231
0.0201845
0.0220028
0.0239843
0.0261374
0.0284987
0.0312163
0.0344982
0.0348764
0.0348764
-0.0137336
-0.0137336
-0.0121485
-0.00949985
-0.0077872
-0.00652997
-0.00549772
-0.00460898
-0.00382635
-0.00312601
-0.00249018
-0.00190493
-0.00135906
-0.000843481
-0.000350704
0.000125523
0.000590489
0.00104873
0.00150421
0.00196046
0.00242068
0.00288787
0.00336492
0.00385467
0.00436003
0.00488405
0.00542999
0.00600146
0.00660247
0.00723755
0.00791187
0.00863132
0.00940264
0.0102335
0.0111328
0.0121101
0.0131765
0.014344
0.0156252
0.0170333
0.0185814
0.020281
0.0221416
0.02417
0.0263762
0.0288061
0.0316559
0.0353559
0.0370766
0.0370766
-0.015621
-0.015621
-0.0128729
-0.00991631
-0.00812534
-0.00683419
-0.00577916
-0.00487275
-0.00407602
-0.00336441
-0.00271963
-0.00212726
-0.00157577
-0.00105575
-0.000559455
-8.04014e-05
0.000386882
0.0008471
0.00130436
0.00176231
0.00222429
0.0026934
0.00317261
0.00366488
0.00417321
0.00470074
0.00525086
0.00582727
0.00643411
0.00707606
0.00775843
0.00848728
0.00926956
0.0101132
0.0110271
0.0120214
0.0131072
0.0142968
0.0156033
0.01704
0.01862
0.0203554
0.0222555
0.0243275
0.0265829
0.0290775
0.0320568
0.036196
0.0395341
0.0395341
-0.0177556
-0.0177556
-0.0136097
-0.010334
-0.00846671
-0.00714282
-0.00606569
-0.00514207
-0.0043316
-0.00360902
-0.0029555
-0.00235622
-0.00179926
-0.00127494
-0.000775233
-0.000293462
0.000176041
0.000638139
0.00109708
0.00155665
0.00202029
0.00249119
0.00297245
0.00346711
0.00397825
0.00450913
0.00506322
0.00564433
0.00625673
0.00690521
0.00759523
0.00833301
0.00912566
0.00998128
0.010909
0.0119192
0.0130232
0.0142336
0.0155635
0.0170266
0.0186363
0.0204045
0.0223408
0.0244526
0.0267531
0.0293076
0.0324121
0.037008
0.0422814
0.0422814
-0.020175
-0.020175
-0.0143551
-0.0107527
-0.00881193
-0.00745659
-0.00635805
-0.00541769
-0.00459385
-0.00386058
-0.00319856
-0.00259254
-0.00203028
-0.00150178
-0.000998799
-0.000514425
-4.28159e-05
0.000421051
0.000881563
0.00134262
0.00180778
0.00228035
0.00276351
0.00326037
0.00377414
0.00430814
0.00486595
0.00545148
0.0060691
0.00672372
0.00742092
0.00816708
0.00896944
0.00983629
0.0107769
0.0118019
0.0129228
0.0141523
0.0155038
0.0169911
0.0186277
0.0204258
0.0223949
0.0245425
0.0268837
0.0294931
0.0327172
0.0377822
0.0453571
0.0453571
-0.0229255
-0.0229255
-0.015106
-0.0111747
-0.00916415
-0.00777883
-0.00665971
-0.00570322
-0.0048665
-0.00412297
-0.00345282
-0.00284041
-0.00227316
-0.00174078
-0.00123478
-0.000748063
-0.000274592
0.000190808
0.000652663
0.001115
0.00158148
0.00205551
0.00254036
0.00303926
0.00355548
0.00409244
0.00465381
0.00524361
0.0058663
0.00652691
0.00723115
0.00798551
0.00879739
0.00967522
0.0106285
0.0116679
0.0128051
0.014053
0.0154253
0.0169357
0.0185979
0.0204241
0.0224239
0.0246048
0.0269834
0.0296434
0.0329812
0.0385221
0.0488196
0.0488196
-0.0260748
-0.0260748
-0.0158722
-0.0116173
-0.00954203
-0.00812911
-0.00699113
-0.0060201
-0.00517201
-0.00441966
-0.00374277
-0.00312529
-0.00255429
-0.00201919
-0.00151126
-0.00102317
-0.000548685
-8.24717e-05
0.000380152
0.000843349
0.00131091
0.00178636
0.00227309
0.00277442
0.00329374
0.00383459
0.00440074
0.00499634
0.00562598
0.00629482
0.00700871
0.00777431
0.00859918
0.00949192
0.0104622
0.0115208
0.0126798
0.013952
0.0153512
0.0168914
0.0185861
0.0204475
0.0224848
0.0247055
0.0271271
0.0298414
0.0332922
0.0393117
0.0528161
0.0528161
-0.0297836
-0.0297836
-0.0167474
-0.012186
-0.0100557
-0.008622
-0.00747169
-0.00649265
-0.00563969
-0.00488487
-0.0042073
-0.00359042
-0.00302086
-0.00248763
-0.00198165
-0.00149527
-0.00102199
-0.000556217
-9.3025e-05
0.000371964
0.000842744
0.00132304
0.00181643
0.00232643
0.00285663
0.00341075
0.0039928
0.00460713
0.00525857
0.00595256
0.00669521
0.00749348
0.00835524
0.00928938
0.0103059
0.0114159
0.0126316
0.0139661
0.0154331
0.0170466
0.0188197
0.0207638
0.022887
0.0251954
0.0277055
0.0305142
0.0341067
0.0406191
0.0578894
0.0578894
-0.0346711
-0.0346711
-0.0182802
-0.0134536
-0.0112953
-0.00986681
-0.00873087
-0.00777066
-0.00693884
-0.0062059
-0.00554961
-0.00495223
-0.00439936
-0.00387916
-0.00338173
-0.00289876
-0.00242314
-0.00194874
-0.00147016
-0.000982595
-0.000481647
3.6789e-05
0.000576656
0.00114185
0.00173634
0.00236425
0.00303003
0.00373851
0.00449505
0.00530565
0.00617704
0.00711684
0.00813359
0.00923685
0.0104372
0.0117463
0.0131767
0.0147415
0.016454
0.018327
0.0203719
0.0225969
0.0250059
0.0275989
0.0303853
0.0334578
0.0373286
0.0444132
0.0661047
0.0661047
-0.0434346
-0.0434346
-0.0231196
-0.0181284
-0.0160267
-0.0146893
-0.0136513
-0.012786
-0.01204
-0.0113788
-0.0107764
-0.0102121
-0.0096691
-0.00913372
-0.00859473
-0.00804283
-0.0074702
-0.00687024
-0.00623722
-0.00556611
-0.00485235
-0.00409165
-0.00327987
-0.00241281
-0.00148611
-0.000495095
0.000565367
0.00170098
0.00291815
0.00422407
0.00562685
0.00713556
0.00876023
0.0105119
0.0124023
0.014444
0.0166497
0.0190316
0.0216008
0.0243656
0.0273302
0.030492
0.0338397
0.0373527
0.0410141
0.0448879
0.0494778
0.0574169
0.0843115
0.0843115
-0.0666452
-0.0666452
-0.0418864
-0.0369137
-0.034997
-0.0338323
-0.0329101
-0.0320839
-0.0312893
-0.030487
-0.0296496
-0.0287577
-0.0277979
-0.0267606
-0.0256392
-0.024429
-0.0231266
-0.0217296
-0.0202353
-0.0186414
-0.016945
-0.0151427
-0.0132302
-0.0112025
-0.00905323
-0.00677504
-0.00435922
-0.00179572
0.000926861
0.00382134
0.00690186
0.0101837
0.0136833
0.0174174
0.0214031
0.0256564
0.0301917
0.0350196
0.0401449
0.0455639
0.0512602
0.0572005
0.0633289
0.069564
0.075809
0.0820284
0.0886224
0.0982881
0.131357
0.131357
-0.144066
-0.144066
-0.113574
-0.107101
-0.103236
-0.0996995
-0.0960767
-0.0923174
-0.0884405
-0.0844747
-0.0804464
-0.0763771
-0.0722829
-0.0681749
-0.0640591
-0.0599372
-0.0558069
-0.0516619
-0.0474927
-0.0432862
-0.039026
-0.0346926
-0.0302632
-0.0257117
-0.0210083
-0.01612
-0.0110096
-0.0056365
4.41827e-05
0.00608111
0.0125268
0.0194371
0.0268709
0.0348888
0.0435515
0.0529178
0.0630413
0.0739655
0.0857181
0.0983022
0.111686
0.125787
0.140458
0.155464
0.170475
0.185117
0.199325
0.215276
0.257714
0.257714
-0.497733
-0.497733
-0.417473
-0.35749
-0.310458
-0.271764
-0.239298
-0.211738
-0.188125
-0.167727
-0.149973
-0.134409
-0.120669
-0.108456
-0.0975249
-0.0876707
-0.0787202
-0.0705248
-0.0629549
-0.0558952
-0.0492414
-0.0428964
-0.0367681
-0.0307662
-0.0247999
-0.0187757
-0.0125941
-0.00614772
0.000682248
0.00802908
0.0160442
0.0249012
0.0348004
0.0459737
0.0586896
0.0732591
0.0900407
0.109445
0.131936
0.158035
0.188312
0.223376
0.263857
0.310368
0.363479
0.423719
0.491868
0.570977
0.669713
0.669713
-0.497733
-0.497733
-0.417473
-0.35749
-0.310458
-0.271764
-0.239298
-0.211738
-0.188125
-0.167727
-0.149973
-0.134409
-0.120669
-0.108456
-0.0975249
-0.0876707
-0.0787202
-0.0705248
-0.0629549
-0.0558952
-0.0492414
-0.0428964
-0.0367681
-0.0307662
-0.0247999
-0.0187757
-0.0125941
-0.00614772
0.000682248
0.00802908
0.0160442
0.0249012
0.0348004
0.0459737
0.0586896
0.0732591
0.0900407
0.109445
0.131936
0.158035
0.188312
0.223376
0.263857
0.310368
0.363479
0.423719
0.491868
0.570977
0.669713
0.669713
VECTORS velocity double
-2.30149e-05 2.30148e-05 0.0
2.30149e-05 -2.30148e-05 0.0
0.000263745 -0.000217715 0.0
0.00075489 -0.00027343 0.0
0.00129493 -0.000266614 0.0
0.00180524 -0.000243694 0.0
0.00226894 -0.000220006 0.0
0.00268776 -0.000198813 0.0
0.00306683 -0.000180254 0.0
0.00341101 -0.000163928 0.0
0.00372438 -0.000149435 0.0
0.00401025 -0.000136444 0.0
0.00427139 -0.00012469 0.0
0.00451004 -0.000113958 0.0
0.00472807 -0.000104071 0.0
0.00492702 -9.48829e-05 0.0
0.00510817 -8.62681e-05 0.0
0.00527256 -7.81202e-05 0.0
0.00542103 -7.03457e-05 0.0
0.00555423 -6.28617e-05 0.0
0.00567269 -5.55927e-05 0.0
0.00577675 -4.84687e-05 0.0
0.00586664 -4.1423e-05 0.0
0.00594245 -3.43908e-05 0.0
0.00600415 -2.73069e-05 0.0
0.00605156 -2.01049e-05 0.0
0.00608438 -1.27147e-05 0.0
0.00610216 -5.06148e-06 0.0
0.00610428 2.93688e-06 0.0
0.00608998 1.13714e-05 0.0
0.00605826 2.03448e-05 0.0
0.00600794 2.99739e-05 0.0
0.00593757 4.03927e-05 0.0
0.00584543 5.17561e-05 0.0
0.00572943 6.42435e-05 0.0
0.00558712 7.80626e-05 0.0
0.0054156 9.34543e-05 0.0
0.00521145 0.000110696 0.0
0.00497065 0.000130104 0.0
0.00468851 0.00015204 0.0
0.00435957 0.000176902 0.0
0.00397754 0.000205123 0.0
0.00353529 0.000237128 0.0
0.00302501 0.000273157 0.0
0.00243943 0.000312421 0.0
0.0017773 0.000349706 0.0
0.00106321 0.000364378 0.0
0.00040142 0.000297416 0.0
5.20019e-05 5.20019e-05 0.0
-5.20019e-05 -5.20019e-05 0.0
2.30149e-05 -2.30148e-05 0.0
-2.30149e-05 2.30148e-05 0.0
-0.000263745 0.000217715 0.0
-0.00075489 0.00027343 0.0
-0.00129493 0.000266614 0.0
-0.00180524 0.000243694 0.0
-0.00226894 0.000220006 0.0
-0.00268776 0.000198813 0.0
-0.00306683 0.000180254 0.0
-0.00341101 0.000163928 0.0
-0.00372438 0.000149435 0.0
-0.00401025 0.000136444 0.0
-0.00427139 0.00012469 0.0
-0.00451004 0.000113958 0.0
-0.00472807 0.000104071 0.0
-0.00492702 9.48829e-05 0.0
-0.00510817 8.62681e-05 0.0
-0.00527256 7.81202e-05 0.0
-0.00542103 7.03457e-05 0.0
-0.00555423 6.28617e-05 0.0
-0.00567269 5.55927e-05 0.0
-0.00577675 4.84687e-05 0.0
-0.00586664 4.1423e-05 0.0
-0.00594245 3.43908e-05 0.0
-0.00600415 2.73069e-05 0.0
-0.00605156 2.01049e-05 0.0
-0.00608438 1.27147e-05 0.0
-0.00610216 5.06148e-06 0.0
-0.00610428 -2.93688e-06 0.0
-0.00608998 -1.13714e-05 0.0
-0.00605826 -2.03448e-05 0.0
-0.00600794 -2.99739e-05 0.0
-0.00593757 -4.03927e-05 0.0
-0.00584543 -5.17561e-05 0.0
-0.00572943 -6.42435e-05 0.0
-0.00558712 -7.80626e-05 0.0
-0.0054156 -9.34543e-05 0.0
-0.00521145 -0.000110696 0.0
-0.00497065 -0.000130104 0.0
-0.00468851 -0.00015204 0.0
-0.00435957 -0.000176902 0.0
-0.00397754 -0.000205123 0.0
-0.00353529 -0.000237128 0.0
-0.00302501 -0.000273157 0.0
-0.00243943 -0.000312421 0.0
-0.0017773 -0.000349706 0.0
-0.00106321 -0.000364378 0.0
-0.00040142 -0.000297416 0.0
-5.20019e-05 -5.20019e-05 0.0
5.20019e-05 5.20019e-05 0.0
0.000152107 -0.000198137 0.0
-0.000152107 0.000198137 0.0
-0.000653834 0.00078505 0.0
-0.00140921 0.000952613 0.0
-0.00221288 0.000931146 0.0
-0.00298356 0.000860149 0.0
-0.00370217 0.000785861 0.0
-0.00436865 0.000718263 0.0
-0.00498672 0.000657937 0.0
-0.0055601 0.000603809 0.0
-0.00609196 0.00055478 0.0
-0.00658492 0.000509939 0.0
-0.00704115 0.000468556 0.0
-0.00746244 0.000430035 0.0
-0.00785031 0.000393885 0.0
-0.00820597 0.000359693 0.0
-0.00853047 0.000327108 0.0
-0.00882463 0.000295825 0.0
-0.0090891 0.000265576 0.0
-0.00932438 0.000236118 0.0
-0.00953081 0.000207228 0.0
-0.00970862 0.000178697 0.0
-0.00985786 0.000150324 0.0
-0.00997846 0.000121912 0.0
-0.0100702 9.32593e-05 0.0
-0.0101328 6.41631e-05 0.0
-0.0101658 3.44077e-05 0.0
-0.0101684 3.7627e-06 0.0
-0.0101399 -2.80226e-05 0.0
-0.0100792 -6.12253e-05 0.0
-0.0099853 -9.61553e-05 0.0
-0.00985662 -0.000133163 0.0
-0.00969154 -0.000172645 0.0
-0.00948814 -0.00021506 0.0
-0.00924415 -0.00026093 0.0
-0.00895697 -0.000310855 0.0
-0.00862362 -0.000365527 0.0
-0.00824066 -0.000425732 0.0
-0.00780417 -0.000492362 0.0
-0.00730968 -0.000566414 0.0
-0.00675217 -0.000648984 0.0
-0.006126 -0.000741232 0.0
-0.00542501 -0.000844266 0.0
-0.00464273 -0.000958582 0.0
-0.00377375 -0.00108155 0.0
-0.00281924 -0.00119721 0.0
-0.00180693 -0.00124327 0.0
-0.000844938 -0.00104231 0.0
-0.00019873 -0.000302734 0.0
0.00019873 0.000302734 0.0
0.000189661 -0.000539905 0.0
-0.000189661 0.000539905 0.0
-0.000769084 0.00152443 0.0
-0.00160429 0.00180381 0.0
-0.00248646 0.0017658 0.0
-0.00333379 0.0016435 0.0
-0.00412697 0.00151431 0.0
-0.00486578 0.00139511 0.0
-0.00555369 0.00128707 0.0
-0.00619424 0.0011886 0.0
-0.00679036 0.00109798 0.0
-0.00734446 0.00101381 0.0
-0.00785852 0.000934971 0.0
-0.00833414 0.000860539 0.0
-0.00877265 0.000789753 0.0
-0.00917513 0.000721972 0.0
-0.00954245 0.000656648 0.0
-0.00987531 0.000593299 0.0
-0.0101742 0.000531499 0.0
-0.0104396 0.00047086 0.0
-0.0106717 0.00041102 0.0
-0.0108707 0.000351638 0.0
-0.0110364 0.000292383 0.0
-0.0111689 0.000232925 0.0
-0.0112678 0.000172934 0.0
-0.0113328 0.000112067 0.0
-0.0113633 4.99628e-05 0.0
-0.0113587 -1.37634e-05 0.0
-0.0113182 -7.95306e-05 0.0
-0.0112407 -0.0001478 0.0
-0.0111252 -0.000219083 0.0
-0.0109701 -0.000293959 0.0
-0.010774 -0.000373078 0.0
-0.0105348 -0.000457182 0.0
-0.0102505 -0.000547117 0.0
-0.0099185 -0.000643849 0.0
-0.00953591 -0.000748476 0.0
-0.00909941 -0.000862243 0.0
-0.00860521 -0.000986547 0.0
-0.00804899 -0.00112294 0.0
-0.00742587 -0.00127309 0.0
-0.00673041 -0.00143876 0.0
-0.00595661 -0.00162154 0.0
-0.00509821 -0.00182198 0.0
-0.00414999 -0.00203534 0.0
-0.00311337 -0.00223455 0.0
-0.00201639 -0.00231522 0.0
-0.000968105 -0.00198064 0.0
-0.000238626 -0.000740089 0.0
0.000238626 0.000740089 0.0
0.000199773 -0.00092934 0.0
-0.000199773 0.00092934 0.0
-0.000802493 0.00231714 0.0
-0.00166377 0.00270759 0.0
-0.00257101 0.00265143 0.0
-0.003442 0.00247617 0.0
-0.00425757 0.00229039 0.0
-0.00501759 0.00211784 0.0
-0.00572562 0.00196028 0.0
-0.00638522 0.00181553 0.0
-0.00699936 0.0016813 0.0
-0.00757045 0.00155568 0.0
-0.00810046 0.00143716 0.0
-0.00859099 0.0013245 0.0
-0.00904335 0.00121666 0.0
-0.00945859 0.00111279 0.0
-0.00983758 0.00101214 0.0
-0.010181 0.000914071 0.0
-0.0104893 0.000817997 0.0
-0.010763 0.000723392 0.0
-0.0110022 0.000629765 0.0
-0.011207 0.000536649 0.0
-0.0113774 0.000443588 0.0
-0.0115134 0.000350131 0.0
-0.0116146 0.00025582 0.0
-0.0116806 0.000160181 0.0
-0.0117109 6.27144e-05 0.0
-0.0117049 -3.71133e-05 0.0
-0.0116617 -0.000139883 0.0
-0.0115804 -0.000246232 0.0
-0.0114597 -0.000356872 0.0
-0.0112983 -0.0004726 0.0
-0.0110946 -0.000594316 0.0
-0.0108467 -0.000723042 0.0
-0.0105523 -0.000859942 0.0
-0.010209 -0.00100634 0.0
-0.00981383 -0.00116375 0.0
-0.00936345 -0.00133385 0.0
-0.00885402 -0.00151857 0.0
-0.00828117 -0.00171999 0.0
-0.00763995 -0.00194037 0.0
-0.00692481 -0.00218207 0.0
-0.00612965 -0.00244719 0.0
-0.00524808 -0.00273631 0.0
-0.00427473 -0.00304258 0.0
-0.00321087 -0.00332779 0.0
-0.00208453 -0.00344529 0.0
-0.00100565 -0.00297775 0.0
-0.000249695 -0.00122841 0.0
0.000249695 0.00122841 0.0
0.000203646 -0.00133276 0.0
-0.000203646 0.00133276 0.0
-0.000817542 0.00313033 0.0
-0.00169311 0.00363124 0.0
-0.00261349 0.0035554 0.0
-0.00349607 0.00332578 0.0
-0.00432193 0.00308222 0.0
-0.00509117 0.00285528 0.0
-0.00580752 0.00264724 0.0
-0.00647468 0.00245534 0.0
-0.00709572 0.00227667 0.0
-0.00767312 0.00210881 0.0
-0.00820893 0.00194985 0.0
-0.00870478 0.0017982 0.0
-0.00916203 0.00165257 0.0
-0.00958177 0.00151187 0.0
-0.00996488 0.00137516 0.0
-0.0103121 0.00124163 0.0
-0.0106238 0.00111054 0.0
-0.0109006 0.000981232 0.0
-0.0111425 0.000853072 0.0
-0.0113498 0.000725471 0.0
-0.0115225 0.000597851 0.0
-0.0116603 0.000469637 0.0
-0.011763 0.000340246 0.0
-0.0118303 0.000209071 0.0
-0.0118616 7.54756e-05 0.0
-0.0118563 -6.12241e-05 0.0
-0.0118135 -0.000201771 0.0
-0.0117322 -0.000346983 0.0
-0.0116112 -0.000497771 0.0
-0.0114491 -0.000655155 0.0
-0.0112443 -0.00082029 0.0
-0.0109949 -0.000994484 0.0
-0.0106985 -0.00117923 0.0
-0.0103526 -0.00137622 0.0
-0.0099543 -0.00158738 0.0
-0.00950002 -0.00181488 0.0
-0.00898585 -0.00206114 0.0
-0.00840727 -0.00232884 0.0
-0.00775917 -0.00262085 0.0
-0.00703578 -0.00294012 0.0
-0.00623078 -0.0032893 0.0
-0.00533753 -0.00366903 0.0
-0.00435037 -0.00407036 0.0
-0.00327029 -0.00444395 0.0
-0.00212524 -0.00460052 0.0
-0.00102617 -0.00400048 0.0
-0.000254854 -0.00173296 0.0
0.000254854 0.00173296 0.0
0.000207039 -0.00174344 0.0
-0.000207039 0.00174344 0.0
-0.000831496 0.003958 0.0
-0.00172098 0.00456862 0.0
-0.00265384 0.00447126 0.0
-0.00354705 0.0041857 0.0
-0.00438198 0.00388309 0.0
-0.00515905 0.00360071 0.0
-0.00588223 0.00334133 0.0
-0.00655539 0.00310156 0.0
-0.00718173 0.00287783 0.0
-0.00776388 0.0026672 0.0
-0.00830394 0.00246732 0.0
-0.00880365 0.00227628 0.0
-0.00926441 0.00209249 0.0
-0.00968737 0.00191464 0.0
-0.0100735 0.00174158 0.0
-0.0104234 0.00157232 0.0
-0.0107377 0.00140596 0.0
-0.0110169 0.0012417 0.0
-0.0112611 0.00107879 0.0
-0.0114705 0.000916484 0.0
-0.0116451 0.000754096 0.0
-0.0117848 0.00059092 0.0
-0.0118894 0.000426244 0.0
-0.0119583 0.000259329 0.0
-0.0119912 8.93951e-05 0.0
-0.0119873 -8.4395e-05 0.0
-0.0119458 -0.000262951 0.0
-0.0118656 -0.000447276 0.0
-0.0117456 -0.000638486 0.0
-0.0115842 -0.000837834 0.0
-0.0113799 -0.00104674 0.0
-0.0111306 -0.00126681 0.0
-0.010834 -0.00149987 0.0
-0.0104874 -0.00174801 0.0
-0.0100878 -0.00201358 0.0
-0.00963147 -0.00229926 0.0
-0.00911437 -0.00260802 0.0
-0.00853177 -0.00294313 0.0
-0.00787832 -0.00330811 0.0
-0.00714803 -0.00370655 0.0
-0.00633424 -0.00414166 0.0
-0.00542997 -0.00461419 0.0
-0.00442922 -0.00511311 0.0
-0.00333261 -0.00557789 0.0
-0.00216792 -0.00577631 0.0
-0.00104737 -0.0050443 0.0
-0.000260008 -0.00224782 0.0
0.000260008 0.00224782 0.0
0.000211295 -0.00216178 0.0
-0.000211295 0.00216178 0.0
-0.000848386 0.00480122 0.0
-0.00175408 0.00552058 0.0
-0.00270139 0.00539949 0.0
-0.0036068 0.00505609 0.0
-0.00445209 0.00469292 0.0
-0.00523805 0.00435391 0.0
-0.00596894 0.0040422 0.0
-0.00664882 0.00375374 0.0
-0.0072811 0.00348427 0.0
-0.0078685 0.00323031 0.0
-0.00841328 0.00298905 0.0
-0.00891724 0.00275822 0.0
-0.00938187 0.00253595 0.0
-0.00980838 0.00232066 0.0
-0.0101977 0.002111 0.0
-0.0105507 0.00190581 0.0
-0.0108679 0.00170401 0.0
-0.0111498 0.00150465 0.0
-0.0113965 0.00130684 0.0
-0.0116084 0.00110972 0.0
-0.0117854 0.000912454 0.0
-0.0119273 0.000714214 0.0
-0.012034 0.000514154 0.0
-0.012105 0.000311396 0.0
-0.0121398 0.000105014 0.0
-0.0121378 -0.000105988 0.0
-0.012098 -0.000322692 0.0
-0.0120194 -0.000546295 0.0
-0.0119007 -0.000778127 0.0
-0.0117406 -0.00101968 0.0
-0.0115371 -0.00127266 0.0
-0.0112883 -0.00153898 0.0
-0.0109918 -0.00182082 0.0
-0.0106448 -0.00212068 0.0
-0.0102439 -0.00244139 0.0
-0.00978555 -0.00278614 0.0
-0.00926534 -0.00315847 0.0
-0.00867834 -0.00356229 0.0
-0.00801892 -0.00400181 0.0
-0.00728076 -0.00448131 0.0
-0.00645684 -0.0050046 0.0
-0.00553979 -0.00557257 0.0
-0.00452315 -0.00617212 0.0
-0.00340712 -0.00673153 0.0
-0.00221929 -0.00697519 0.0
-0.0010733 -0.00611195 0.0
-0.000266503 -0.00277433 0.0
0.000266503 0.00277433 0.0
0.000216704 -0.00258978 0.0
-0.000216704 0.00258978 0.0
-0.000869086 0.00566269 0.0
-0.00179384 0.00648955 0.0
-0.00275809 0.00634208 0.0
-0.0036778 0.00593862 0.0
-0.00453525 0.00551313 0.0
-0.00533166 0.00511607 0.0
-0.0060716 0.00475087 0.0
-0.00675941 0.00441276 0.0
-0.00739867 0.00409678 0.0
-0.00799228 0.00379883 0.0
-0.00854261 0.00351564 0.0
-0.0090516 0.00324457 0.0
-0.0095208 0.00298343 0.0
-0.00995151 0.00273039 0.0
-0.0103448 0.00248388 0.0
-0.0107014 0.00224252 0.0
-0.0110219 0.00200509 0.0
-0.011307 0.00177047 0.0
-0.0115568 0.00153763 0.0
-0.0117716 0.00130557 0.0
-0.0119513 0.00107331 0.0
-0.0120959 0.000839907 0.0
-0.0122052 0.000604363 0.0
-0.0122786 0.00036566 0.0
-0.0123158 0.000122719 0.0
-0.0123159 -0.00012562 0.0
-0.0122782 -0.000380621 0.0
-0.0122014 -0.000643681 0.0
-0.0120845 -0.000916357 0.0
-0.0119257 -0.0012004 0.0
-0.0117233 -0.0014978 0.0
-0.0114751 -0.00181079 0.0
-0.0111787 -0.00214197 0.0
-0.010831 -0.00249424 0.0
-0.0104288 -0.00287092 0.0
-0.00996799 -0.00327576 0.0
-0.00944411 -0.00371294 0.0
-0.0088519 -0.00418703 0.0
-0.00818543 -0.00470297 0.0
-0.00743798 -0.00526577 0.0
-0.00660213 -0.0058799 0.0
-0.00567002 -0.00654643 0.0
-0.00463471 -0.00725022 0.0
-0.00349585 -0.00790832 0.0
-0.00228082 -0.00820126 0.0
-0.00110486 -0.00720783 0.0
-0.000274638 -0.00331547 0.0
0.000274638 0.00331547 0.0
0.000223351 -0.00302983 0.0
-0.000223351 0.00302983 0.0
-0.000893848 0.00654552 0.0
-0.00184066 0.00747828 0.0
-0.00282443 0.00730137 0.0
-0.00376065 0.00683527 0.0
-0.00463214 0.00634543 0.0
-0.00544064 0.00588867 0.0
-0.00619109 0.00546865 0.0
-0.0068881 0.0050798 0.0
-0.00753548 0.00471638 0.0
-0.00813633 0.00437368 0.0
-0.00869316 0.00404794 0.0
-0.00920801 0.0037361 0.0
-0.00968256 0.00343566 0.0
-0.0101182 0.00314449 0.0
-0.010516 0.0028608 0.0
-0.0108768 0.00258302 0.0
-0.0112014 0.00230974 0.0
-0.0114902 0.00203967 0.0
-0.0117435 0.00177163 0.0
-0.0119617 0.00150448 0.0
-0.0121447 0.00123712 0.0
-0.0122924 0.000968422 0.0
-0.0124046 0.000697275 0.0
-0.0124809 0.000422505 0.0
-0.0125207 0.000142874 0.0
-0.0125234 -0.000142952 0.0
-0.012488 -0.000436427 0.0
-0.0124135 -0.000739158 0.0
-0.0122984 -0.00105294 0.0
-0.0121412 -0.0013798 0.0
-0.01194 -0.00172202 0.0
-0.0116925 -0.00208222 0.0
-0.0113961 -0.00246336 0.0
-0.0110477 -0.00286883 0.0
-0.0106438 -0.00330248 0.0
-0.0101802 -0.00376864 0.0
-0.00965198 -0.00427215 0.0
-0.00905369 -0.00481832 0.0
-0.00837898 -0.00541286 0.0
-0.00762074 -0.00606157 0.0
-0.00677105 -0.00676964 0.0
-0.00582152 -0.00753833 0.0
-0.00476461 -0.00835054 0.0
-0.00359943 -0.00911204 0.0
-0.00235303 -0.00945898 0.0
-0.00114237 -0.00833673 0.0
-0.000284525 -0.00387463 0.0
0.000284525 0.00387463 0.0
0.000231294 -0.00348447 0.0
-0.000231294 0.00348447 0.0
-0.000922834 0.00745291 0.0
-0.00189475 0.00848961 0.0
-0.00290066 0.00827972 0.0
-0.0038556 0.00774807 0.0
-0.00474306 0.00719159 0.0
-0.00556532 0.00667328 0.0
-0.00632775 0.00619691 0.0
-0.00703527 0.00575607 0.0
-0.00769196 0.00534418 0.0
-0.00830109 0.00495587 0.0
-0.00886536 0.00458685 0.0
-0.00938694 0.00423364 0.0
-0.00986764 0.00389337 0.0
-0.0103089 0.00356366 0.0
-0.0107119 0.00324244 0.0
-0.0110776 0.00292793 0.0
-0.0114068 0.00261853 0.0
-0.0116999 0.00231279 0.0
-0.0119573 0.00200937 0.0
-0.0121794 0.00170696 0.0
-0.0123661 0.00140432 0.0
-0.0125174 0.0011002 0.0
-0.012633 0.000793306 0.0
-0.0127125 0.000482325 0.0
-0.0127555 0.000165846 0.0
-0.012761 -0.000157644 0.0
-0.0127284 -0.000489801 0.0
-0.0126562 -0.000832457 0.0
-0.0125433 -0.00118766 0.0
-0.0123879 -0.00155771 0.0
-0.012188 -0.00194525 0.0
-0.0119412 -0.00235324 0.0
-0.0116449 -0.00278509 0.0
-0.0112957 -0.00324468 0.0
-0.0108898 -0.00373643 0.0
-0.0104228 -0.0042653 0.0
-0.00988962 -0.00483686 0.0
-0.00928434 -0.00545719 0.0
-0.00860021 -0.00613282 0.0
-0.00782963 -0.00687043 0.0
-0.00696415 -0.00767595 0.0
-0.00599478 -0.00855092 0.0
-0.00491334 -0.0094763 0.0
-0.00371828 -0.0103465 0.0
-0.00243627 -0.0107529 0.0
-0.0011861 -0.00950364 0.0
-0.000296253 -0.00445541 0.0
0.000296253 0.00445541 0.0
0.000240598 -0.00395637 0.0
-0.000240598 0.00395637 0.0
-0.000956218 0.00838818 0.0
-0.00195635 0.00952639 0.0
-0.00298704 0.00927954 0.0
-0.00396293 0.00867907 0.0
-0.00486827 0.00805338 0.0
-0.00570599 0.00747146 0.0
-0.00648188 0.00693706 0.0
-0.00720125 0.00644281 0.0
-0.00786842 0.00598128 0.0
-0.00848691 0.00554639 0.0
-0.00905959 0.00513327 0.0
-0.0095888 0.00473801 0.0
-0.0100765 0.00435735 0.0
-0.0105241 0.0039886 0.0
-0.0109331 0.00362944 0.0
-0.0113043 0.00327785 0.0
-0.0116386 0.00293205 0.0
-0.0119366 0.00259038 0.0
-0.0121987 0.00225135 0.0
-0.0124252 0.00191349 0.0
-0.0126161 0.00157541 0.0
-0.0127714 0.00123568 0.0
-0.0128908 0.000892884 0.0
-0.012974 0.000545523 0.0
-0.0130205 0.000192015 0.0
-0.0130294 -0.000169345 0.0
-0.0129997 -0.000540426 0.0
-0.0129304 -0.000923296 0.0
-0.0128198 -0.00132027 0.0
-0.0126664 -0.00173397 0.0
-0.0124679 -0.00216735 0.0
-0.012222 -0.00262382 0.0
-0.0119256 -0.00310723 0.0
-0.0115754 -0.003622 0.0
-0.0111673 -0.00417314 0.0
-0.0106965 -0.00476632 0.0
-0.0101577 -0.00540785 0.0
-0.00954448 -0.00610468 0.0
-0.00884971 -0.00686423 0.0
-0.00806523 -0.00769408 0.0
-0.00718199 -0.00860101 0.0
-0.00619033 -0.00958688 0.0
-0.00508138 -0.0106307 0.0
-0.00385284 -0.0116157 0.0
-0.00253095 -0.0120876 0.0
-0.00123633 -0.0107137 0.0
-0.00030993 -0.00506159 0.0
0.00030993 0.00506159 0.0
0.000251344 -0.00444831 0.0
-0.000251344 0.00444831 0.0
-0.000994206 0.00935472 0.0
-0.00202572 0.0105915 0.0
-0.00308384 0.0103032 0.0
-0.00408291 0.00963035 0.0
-0.00500808 0.00893262 0.0
-0.00586294 0.0082848 0.0
-0.00665382 0.00769049 0.0
-0.00738637 0.00714129 0.0
-0.00806523 0.00662883 0.0
-0.00869417 0.00614627 0.0
-0.00927626 0.00568816 0.0
-0.009814 0.00525007 0.0
-0.0103094 0.00482839 0.0
-0.0107643 0.00442006 0.0
-0.0111798 0.0040225 0.0
-0.0115573 0.00363344 0.0
-0.0118974 0.00325089 0.0
-0.0122009 0.00287301 0.0
-0.0124682 0.00249812 0.0
-0.0126996 0.00212459 0.0
-0.0128952 0.00175086 0.0
-0.013055 0.00137534 0.0
-0.0131788 0.000996454 0.0
-0.0132661 0.000612521 0.0
-0.0133165 0.000221776 0.0
-0.013329 -0.000177691 0.0
-0.0133028 -0.00058797 0.0
-0.0132365 -0.00101138 0.0
-0.0131287 -0.00145054 0.0
-0.0129774 -0.00190837 0.0
-0.0127806 -0.00238823 0.0
-0.0125355 -0.00289394 0.0
-0.0122391 -0.00342986 0.0
-0.0118877 -0.00400099 0.0
-0.011477 -0.00461298 0.0
-0.011002 -0.00527224 0.0
-0.0104569 -0.00598592 0.0
-0.00983481 -0.00676187 0.0
-0.00912815 -0.00760847 0.0
-0.00832817 -0.00853431 0.0
-0.00742516 -0.00954703 0.0
-0.00640875 -0.0106489 0.0
-0.00526927 -0.0118171 0.0
-0.00400363 -0.0129235 0.0
-0.00263751 -0.0134679 0.0
-0.00129339 -0.0119722 0.0
-0.00032568 -0.0056972 0.0
0.00032568 0.0056972 0.0
0.000263623 -0.00496327 0.0
-0.000263623 0.00496327 0.0
-0.00103703 0.010356 0.0
-0.00210317 0.0116879 0.0
-0.00319137 0.0113532 0.0
-0.00421587 0.010604 0.0
-0.00516281 0.00983112 0.0
-0.00603655 0.00911491 0.0
-0.00684393 0.00845864 0.0
-0.00759103 0.00785279 0.0
-0.00828281 0.00728798 0.0
-0.00892331 0.00675657 0.0
-0.00951582 0.00625246 0.0
-0.010063 0.00577071 0.0
-0.0105671 0.00530728 0.0
-0.0110299 0.00485878 0.0
-0.0114528 0.0044223 0.0
-0.0118371 0.00399535 0.0
-0.0121837 0.00357568 0.0
-0.0124933 0.00316127 0.0
-0.0127664 0.00275024 0.0
-0.0130033 0.00234079 0.0
-0.0132042 0.00193118 0.0
-0.013369 0.00151967 0.0
-0.0134976 0.00110447 0.0
-0.0135895 0.000683754 0.0
-0.0136442 0.000255538 0.0
-0.0136608 -0.000182298 0.0
-0.0136383 -0.000632086 0.0
-0.0135754 -0.00109642 0.0
-0.0134706 -0.0015782 0.0
-0.0133218 -0.00208073 0.0
-0.0131267 -0.00260776 0.0
-0.0128826 -0.00316358 0.0
-0.0125862 -0.00375308 0.0
-0.0122335 -0.00438187 0.0
-0.0118199 -0.00505633 0.0
-0.0113402 -0.00578365 0.0
-0.010788 -0.00657188 0.0
-0.0101561 -0.00742984 0.0
-0.00943627 -0.00836697 0.0
-0.00861916 -0.0093929 0.0
-0.00769435 -0.0105163 0.0
-0.00665066 -0.0117398 0.0
-0.0054776 -0.0130388 0.0
-0.0041712 -0.0142738 0.0
-0.00275647 -0.0148984 0.0
-0.00135768 -0.0132846 0.0
-0.000343653 -0.00636654 0.0
0.000343653 0.00636654 0.0
0.000277546 -0.00550444 0.0
-0.000277546 0.00550444 0.0
-0.00108498 0.0113957 0.0
-0.00218902 0.0128184 0.0
-0.00330998 0.0124319 0.0
-0.00436217 0.011602 0.0
-0.00533284 0.0107507 0.0
-0.00622719 0.00996341 0.0
-0.00705262 0.00924296 0.0
-0.00781566 0.00857861 0.0
-0.00852161 0.0079599 0.0
-0.00917481 0.00737834 0.0
-0.00977877 0.00682714 0.0
-0.0103364 0.00630082 0.0
-0.01085 0.00579487 0.0
-0.0113215 0.00530553 0.0
-0.0117526 0.00482959 0.0
-0.0121445 0.00436426 0.0
-0.0124982 0.00390707 0.0
-0.0128145 0.00345577 0.0
-0.013094 0.00300829 0.0
-0.013337 0.00256264 0.0
-0.0135437 0.00211691 0.0
-0.013714 0.00166916 0.0
-0.0138479 0.00121743 0.0
-0.0139449 0.000759678 0.0
-0.0140043 0.00029373 0.0
-0.0140254 -0.000182771 0.0
-0.0140071 -0.000672412 0.0
-0.013948 -0.00117807 0.0
-0.0138464 -0.00170299 0.0
-0.0137003 -0.00225085 0.0
-0.0135072 -0.00282581 0.0
-0.0132641 -0.00343269 0.0
-0.0129676 -0.00407695 0.0
-0.0126134 -0.00476486 0.0
-0.0121968 -0.00550357 0.0
-0.0117118 -0.00630114 0.0
-0.0111518 -0.00716656 0.0
-0.0105091 -0.00810972 0.0
-0.00977487 -0.00914117 0.0
-0.00893898 -0.0102717 0.0
-0.00799028 -0.011511 0.0
-0.00691677 -0.0128623 0.0
-0.00570705 -0.0142991 0.0
-0.00435618 -0.0156708 0.0
-0.0028884 -0.0163839 0.0
-0.00142964 -0.0146566 0.0
-0.00036402 -0.00707421 0.0
0.00036402 0.00707421 0.0
0.000293239 -0.00607523 0.0
-0.000293239 0.00607523 0.0
-0.00113834 0.0124774 0.0
-0.00228366 0.013986 0.0
-0.00344008 0.0135416 0.0
-0.00452221 0.0126265 0.0
-0.00551859 0.0116932 0.0
-0.00643529 0.0108319 0.0
-0.00728035 0.0100449 0.0
-0.00806073 0.00932007 0.0
-0.00878214 0.0086458 0.0
-0.0094492 0.00801269 0.0
-0.0100657 0.00741322 0.0
-0.0106347 0.00684133 0.0
-0.0111587 0.00629201 0.0
-0.0116399 0.00576112 0.0
-0.0120799 0.00524509 0.0
-0.0124801 0.00474086 0.0
-0.0128416 0.0042457 0.0
-0.0131653 0.00375713 0.0
-0.0134518 0.00327287 0.0
-0.0137015 0.00279072 0.0
-0.0139145 0.00230858 0.0
-0.014091 0.00182433 0.0
-0.0142307 0.00133581 0.0
-0.0143332 0.000840768 0.0
-0.0143979 0.0003368 0.0
-0.0144239 -0.000178691 0.0
-0.0144102 -0.000708568 0.0
-0.0143552 -0.00125602 0.0
-0.0142572 -0.00182464 0.0
-0.014114 -0.0024185 0.0
-0.013923 -0.00304225 0.0
-0.0136811 -0.00370124 0.0
-0.0133845 -0.00440155 0.0
-0.0130287 -0.00515019 0.0
-0.0126085 -0.00595511 0.0
-0.0121178 -0.00682531 0.0
-0.0115494 -0.00777081 0.0
-0.0108949 -0.00880264 0.0
-0.0101448 -0.00993256 0.0
-0.00928845 -0.0111726 0.0
-0.00831375 -0.0125335 0.0
-0.00720783 -0.0140192 0.0
-0.00595832 -0.0156014 0.0
-0.00455926 -0.0171184 0.0
-0.00303393 -0.0179294 0.0
-0.00150977 -0.016094 0.0
-0.00038698 -0.00782521 0.0
0.00038698 0.00782521 0.0
0.000310849 -0.00667932 0.0
-0.000310849 0.00667932 0.0
-0.00119749 0.0136051 0.0
-0.00238751 0.0151936 0.0
-0.00358209 0.0146849 0.0
-0.00469643 0.0136797 0.0
-0.00572051 0.0126605 0.0
-0.00666134 0.0117222 0.0
-0.00752761 0.010866 0.0
-0.00832678 0.0100785 0.0
-0.00906495 0.00934691 0.0
-0.00974705 0.00866075 0.0
-0.0103771 0.00801173 0.0
-0.0109585 0.00739318 0.0
-0.0114939 0.00679959 0.0
-0.0119856 0.00622636 0.0
-0.0124353 0.00566959 0.0
-0.0128446 0.0051259 0.0
-0.0132147 0.00459228 0.0
-0.0135465 0.00406602 0.0
-0.0138406 0.00354459 0.0
-0.0140976 0.00302563 0.0
-0.0143176 0.00250678 0.0
-0.0145008 0.00198575 0.0
-0.0146468 0.00146015 0.0
-0.0147554 0.000927522 0.0
-0.0148259 0.000385217 0.0
-0.0148573 -0.000169625 0.0
-0.0148485 -0.000740158 0.0
-0.014798 -0.0013299 0.0
-0.014704 -0.00194283 0.0
-0.014564 -0.00258346 0.0
-0.0143753 -0.00325694 0.0
-0.0141346 -0.00396918 0.0
-0.0138379 -0.00472698 0.0
-0.0134803 -0.00553809 0.0
-0.0130563 -0.00641136 0.0
-0.0125593 -0.00735678 0.0
-0.0119816 -0.00838551 0.0
-0.0113143 -0.00950978 0.0
-0.0105471 -0.0107426 0.0
-0.00966849 -0.0120975 0.0
-0.00866563 -0.0135862 0.0
-0.00752467 -0.0152133 0.0
-0.00623221 -0.0169492 0.0
-0.00478118 -0.0186207 0.0
-0.00319378 -0.0195398 0.0
-0.00159863 -0.0176029 0.0
-0.000412763 -0.00862495 0.0
0.000412763 0.00862495 0.0
0.000330543 -0.00732071 0.0
-0.000330543 0.00732071 0.0
-0.00126281 0.0147826 0.0
-0.00250105 0.0164444 0.0
-0.00373649 0.0158642 0.0
-0.00488532 0.0147636 0.0
-0.00593909 0.0136545 0.0
-0.00690584 0.0126358 0.0
-0.00779494 0.0117078 0.0
-0.00861437 0.0108554 0.0
-0.00937064 0.0100645 0.0
-0.010069 0.00932365 0.0
-0.0107138 0.00862374 0.0
-0.0113087 0.00795737 0.0
-0.0118564 0.00731851 0.0
-0.0123594 0.00670212 0.0
-0.0128197 0.00610389 0.0
-0.0132389 0.00552012 0.0
-0.0136183 0.00494752 0.0
-0.0139589 0.00438311 0.0
-0.0142614 0.00382413 0.0
-0.0145263 0.00326798 0.0
-0.0147539 0.00271211 0.0
-0.0149443 0.00215398 0.0
-0.0150974 0.001591 0.0
-0.0152126 0.00102046 0.0
-0.0152893 0.00043947 0.0
-0.0153266 -0.000155117 0.0
-0.0153233 -0.000766767 0.0
-0.0152777 -0.00139936 0.0
-0.0151879 -0.00205727 0.0
-0.0150514 -0.00274549 0.0
-0.0148652 -0.00346972 0.0
-0.0146258 -0.00423649 0.0
-0.0143289 -0.00505333 0.0
-0.0139694 -0.00592881 0.0
-0.0135413 -0.00687276 0.0
-0.0130375 -0.00789622 0.0
-0.0124497 -0.00901157 0.0
-0.0117684 -0.0102323 0.0
-0.0109826 -0.011573 0.0
-0.0100801 -0.0130483 0.0
-0.00904684 -0.0146714 0.0
-0.00786817 -0.0164477 0.0
-0.00652957 -0.0183459 0.0
-0.00502277 -0.0201819 0.0
-0.00336872 -0.0212201 0.0
-0.00169686 -0.0191896 0.0
-0.000441629 -0.00947934 0.0
0.000441629 0.00947934 0.0
0.000352511 -0.00800376 0.0
-0.000352511 0.00800376 0.0
-0.00133477 0.0160141 0.0
-0.00262479 0.0177411 0.0
-0.00390382 0.0170819 0.0
-0.00508941 0.0158803 0.0
-0.00617489 0.014677 0.0
-0.00716938 0.0135745 0.0
-0.00808295 0.0125717 0.0
-0.00892414 0.011652 0.0
-0.00969987 0.0107998 0.0
-0.0104158 0.0100026 0.0
-0.0110765 0.00925033 0.0
-0.0116858 0.00853491 0.0
-0.0122469 0.00784974 0.0
-0.0127622 0.00718928 0.0
-0.013234 0.00654883 0.0
-0.013664 0.00592433 0.0
-0.0140534 0.00531218 0.0
-0.0144036 0.00470912 0.0
-0.0147151 0.00411216 0.0
-0.0149887 0.00351844 0.0
-0.0152246 0.00292518 0.0
-0.0154229 0.00232962 0.0
-0.0155834 0.00172892 0.0
-0.0157058 0.00112013 0.0
-0.0157894 0.000500073 0.0
-0.0158331 -0.000134689 0.0
-0.0158356 -0.000787963 0.0
-0.0157954 -0.00146401 0.0
-0.0157102 -0.00216765 0.0
-0.0155774 -0.00290437 0.0
-0.015394 -0.00368045 0.0
-0.015156 -0.00450313 0.0
-0.0148589 -0.00538068 0.0
-0.0144973 -0.00632261 0.0
-0.0140646 -0.00733974 0.0
-0.0135534 -0.00844431 0.0
-0.0129547 -0.00964994 0.0
-0.0122583 -0.0109716 0.0
-0.0114526 -0.0124252 0.0
-0.0105242 -0.014027 0.0
-0.00945838 -0.0157917 0.0
-0.00823928 -0.0177252 0.0
-0.0068513 -0.019795 0.0
-0.00528492 -0.021806 0.0
-0.0035596 -0.0229754 0.0
-0.00180516 -0.0208606 0.0
-0.000473873 -0.0103948 0.0
0.000473873 0.0103948 0.0
0.000376971 -0.00873324 0.0
-0.000376971 0.00873324 0.0
-0.00141385 0.0173037 0.0
-0.00275932 0.019087 0.0
-0.00408467 0.0183405 0.0
-0.0053093 0.017032 0.0
-0.00642851 0.01573 0.0
-0.00745257 0.01454 0.0
-0.00839229 0.0134595 0.0
-0.00925675 0.0124699 0.0
-0.0100534 0.0115543 0.0
-0.0107881 0.0106988 0.0
-0.0114659 0.00989265 0.0
-0.0120909 0.00912687 0.0
-0.0126663 0.00839427 0.0
-0.013195 0.00768878 0.0
-0.0136792 0.00700529 0.0
-0.0141207 0.00633935 0.0
-0.0145211 0.00568704 0.0
-0.0148815 0.00504482 0.0
-0.0152029 0.0044094 0.0
-0.0154859 0.00377769 0.0
-0.0157307 0.00314667 0.0
-0.0159376 0.00251331 0.0
-0.0161063 0.00187453 0.0
-0.0162365 0.0012271 0.0
-0.0163274 0.000567563 0.0
-0.016378 -0.000107845 0.0
-0.016387 -0.000803295 0.0
-0.0163525 -0.00152346 0.0
-0.0162722 -0.00227363 0.0
-0.0161435 -0.00305983 0.0
-0.015963 -0.00388899 0.0
-0.0157265 -0.00476906 0.0
-0.0154292 -0.00570917 0.0
-0.0150652 -0.00671977 0.0
-0.0146276 -0.00781281 0.0
-0.0141083 -0.00900175 0.0
-0.0134979 -0.0103016 0.0
-0.0127854 -0.0117288 0.0
-0.0119581 -0.013301 0.0
-0.011002 -0.0150358 0.0
-0.00990131 -0.0169495 0.0
-0.00863902 -0.0190489 0.0
-0.00719841 -0.0212999 0.0
-0.0055686 -0.0234972 0.0
-0.00376736 -0.0248107 0.0
-0.00192435 -0.0226227 0.0
-0.000509833 -0.0113786 0.0
0.000509833 0.0113786 0.0
0.000404168 -0.00951438 0.0
-0.000404168 0.00951438 0.0
-0.00150063 0.0186559 0.0
-0.00290528 0.0204849 0.0
-0.00427965 0.0196423 0.0
-0.0055456 0.0182208 0.0
-0.00670059 0.0168154 0.0
-0.00775607 0.0155341 0.0
-0.00872364 0.0143727 0.0
-0.00961296 0.0133105 0.0
-0.0104319 0.0123292 0.0
-0.0111868 0.0114136 0.0
-0.011883 0.0105519 0.0
-0.0125248 0.00973435 0.0
-0.0131156 0.00895312 0.0
-0.0136586 0.00820159 0.0
-0.0141562 0.00747418 0.0
-0.0146102 0.00676605 0.0
-0.0150224 0.00607294 0.0
-0.015394 0.00539098 0.0
-0.015726 0.00471661 0.0
-0.0160191 0.00404647 0.0
-0.0162736 0.00337726 0.0
-0.0164897 0.0027057 0.0
-0.0166673 0.00202845 0.0
-0.0168059 0.00134197 0.0
-0.0169048 0.000642505 0.0
-0.0169629 -7.40649e-05 0.0
-0.0169787 -0.000812294 0.0
-0.0169504 -0.0015773 0.0
-0.0168756 -0.00237487 0.0
-0.0167512 -0.00321164 0.0
-0.0165738 -0.0040952 0.0
-0.0163388 -0.00503427 0.0
-0.0160412 -0.00603891 0.0
-0.0156746 -0.0071206 0.0
-0.0152317 -0.00829246 0.0
-0.0147038 -0.00956929 0.0
-0.0140807 -0.0109676 0.0
-0.0133507 -0.0125054 0.0
-0.0125004 -0.0142019 0.0
-0.0115147 -0.0160767 0.0
-0.0103767 -0.0181473 0.0
-0.00906847 -0.0204216 0.0
-0.00757194 -0.0228643 0.0
-0.00587484 -0.0252597 0.0
-0.00399302 -0.0267313 0.0
-0.00205528 -0.0244829 0.0
-0.000549889 -0.0124383 0.0
0.000549889 0.0124383 0.0
0.000434381 -0.0103529 0.0
-0.000434381 0.0103529 0.0
-0.00159573 0.0200752 0.0
-0.00306336 0.021938 0.0
-0.00448949 0.0209897 0.0
-0.00579904 0.0194488 0.0
-0.00699185 0.0179352 0.0
-0.00808063 0.0165586 0.0
-0.00907778 0.0153129 0.0
-0.00999356 0.0141754 0.0
-0.0108363 0.013126 0.0
-0.0116128 0.0121483 0.0
-0.0123286 0.0112293 0.0
-0.0129884 0.0103585 0.0
-0.0135959 0.00952737 0.0
-0.0141543 0.00872872 0.0
-0.0146662 0.00795647 0.0
-0.0151337 0.00720536 0.0
-0.0155586 0.00647074 0.0
-0.0159423 0.00574844 0.0
-0.0162857 0.00503459 0.0
-0.0165897 0.00432553 0.0
-0.0168547 0.00361769 0.0
-0.0170808 0.00290751 0.0
-0.0172679 0.00219135 0.0
-0.0174156 0.00146538 0.0
-0.0175231 0.000725485 0.0
-0.0175893 -3.2807e-05 0.0
-0.0176125 -0.000814473 0.0
-0.0175909 -0.0016251 0.0
-0.0175217 -0.00247104 0.0
-0.017402 -0.00335954 0.0
-0.0172278 -0.00429892 0.0
-0.0169945 -0.00529876 0.0
-0.0166965 -0.00637006 0.0
-0.0163271 -0.00752543 0.0
-0.0158784 -0.00877925 0.0
-0.0153411 -0.0101477 0.0
-0.0147044 -0.011649 0.0
-0.0139557 -0.0133027 0.0
-0.0130808 -0.0151299 0.0
-0.0120634 -0.0171518 0.0
-0.0108858 -0.0193877 0.0
-0.00952877 -0.0218465 0.0
-0.00797301 -0.0244917 0.0
-0.00620477 -0.0270977 0.0
-0.0042377 -0.0287422 0.0
-0.00219896 -0.0264485 0.0
-0.000594472 -0.0135826 0.0
0.000594472 0.0135826 0.0
0.000467927 -0.0112552 0.0
-0.000467927 0.0112552 0.0
-0.00169987 0.0215662 0.0
-0.00323436 0.0234491 0.0
-0.00471494 0.0223853 0.0
-0.00607036 0.0207182 0.0
-0.00730305 0.0190913 0.0
-0.00842704 0.0176153 0.0
-0.00945554 0.0162818 0.0
-0.0103994 0.0150661 0.0
-0.0112675 0.0139461 0.0
-0.012067 0.0129041 0.0
-0.0128038 0.011926 0.0
-0.0134829 0.0110005 0.0
-0.0141082 0.0101182 0.0
-0.0146831 0.00927126 0.0
-0.0152104 0.00845318 0.0
-0.0156925 0.00765823 0.0
-0.0161311 0.00688137 0.0
-0.0165277 0.00611809 0.0
-0.0168835 0.00536418 0.0
-0.0171992 0.00461569 0.0
-0.0174755 0.00386874 0.0
-0.0177124 0.00311947 0.0
-0.0179098 0.00236394 0.0
-0.0180673 0.00159798 0.0
-0.018184 0.00081712 0.0
-0.0182588 1.64912e-05 0.0
-0.01829 -0.000809333 0.0
-0.0182755 -0.00166645 0.0
-0.0182125 -0.0025618 0.0
-0.0180977 -0.0035033 0.0
-0.017927 -0.00450005 0.0
-0.0176954 -0.00556254 0.0
-0.0173968 -0.0067028 0.0
-0.0170243 -0.00793464 0.0
-0.0165693 -0.00927378 0.0
-0.0160219 -0.010738 0.0
-0.0153705 -0.0123469 0.0
-0.0146018 -0.0141222 0.0
-0.0137005 -0.0160866 0.0
-0.0126496 -0.0182634 0.0
-0.0114299 -0.0206734 0.0
-0.0100212 -0.0233267 0.0
-0.00840284 -0.0261856 0.0
-0.0065596 -0.0290152 0.0
-0.00450262 -0.0308488 0.0
-0.00235648 -0.0285268 0.0
-0.000644067 -0.0148212 0.0
0.000644067 0.0148212 0.0
0.000505163 -0.0122283 0.0
-0.000505163 0.0122283 0.0
-0.00181383 0.0231337 0.0
-0.00341912 0.0250214 0.0
-0.00495685 0.0238313 0.0
-0.0063604 0.0220311 0.0
-0.00763505 0.0202857 0.0
-0.00879618 0.0187061 0.0
-0.00985783 0.0172813 0.0
-0.0108315 0.0159842 0.0
-0.0117265 0.0147911 0.0
-0.0125505 0.0136826 0.0
-0.0133097 0.0126436 0.0
-0.0140093 0.0116616 0.0
-0.0146537 0.0107267 0.0
-0.0152463 0.00983032 0.0
-0.0157902 0.00896537 0.0
-0.0162879 0.00812568 0.0
-0.0167412 0.00730581 0.0
-0.0171517 0.00650086 0.0
-0.0175208 0.00570628 0.0
-0.0178493 0.00491779 0.0
-0.0181376 0.00413121 0.0
-0.0183861 0.00334236 0.0
-0.0185946 0.00254695 0.0
-0.0187626 0.00174046 0.0
-0.0188892 0.00091805 0.0
-0.0189733 7.44131e-05 0.0
-0.019013 -0.000796355 0.0
-0.0190061 -0.0017009 0.0
-0.0189496 -0.00264679 0.0
-0.01884 -0.00364267 0.0
-0.018673 -0.00469847 0.0
-0.018443 -0.00582565 0.0
-0.0181439 -0.00703735 0.0
-0.0177679 -0.00834864 0.0
-0.017306 -0.00977668 0.0
-0.0167477 -0.0113408 0.0
-0.0160806 -0.0130625 0.0
-0.0152904 -0.0149653 0.0
-0.0143611 -0.017074 0.0
-0.0132744 -0.0194136 0.0
-0.0120102 -0.022007 0.0
-0.0105469 -0.0248652 0.0
-0.0088627 -0.0279497 0.0
-0.00694064 -0.0310165 0.0
-0.00478911 -0.033056 0.0
-0.00252905 -0.0307258 0.0
-0.000699224 -0.0161645 0.0
0.000699224 0.0161645 0.0
0.000546494 -0.01328 0.0
-0.000546494 0.01328 0.0
-0.0019385 0.0247827 0.0
-0.0036186 0.0266577 0.0
-0.00521614 0.0253302 0.0
-0.00667009 0.0233898 0.0
-0.00798877 0.0215204 0.0
-0.00918898 0.0198327 0.0
-0.0102856 0.0183129 0.0
-0.0112908 0.0169314 0.0
-0.0122144 0.0156625 0.0
-0.0130644 0.0144852 0.0
-0.0138474 0.0133833 0.0
-0.0145691 0.0123432 0.0
-0.0152338 0.0113542 0.0
-0.0158454 0.0104071 0.0
-0.0164071 0.00949419 0.0
-0.0169214 0.00860881 0.0
-0.0173905 0.00774509 0.0
-0.0178161 0.00689773 0.0
-0.0181994 0.00606183 0.0
-0.0185415 0.00523276 0.0
-0.0188429 0.00440598 0.0
-0.0191038 0.003577 0.0
-0.0193242 0.00274115 0.0
-0.0195035 0.00189355 0.0
-0.0196408 0.00102894 0.0
-0.0197348 0.000141562 0.0
-0.0197836 -0.000775012 0.0
-0.0197847 -0.00172801 0.0
-0.0197352 -0.00272568 0.0
-0.0196311 -0.00377743 0.0
-0.0194678 -0.0048941 0.0
-0.0192396 -0.00608816 0.0
-0.0189396 -0.00737395 0.0
-0.0185597 -0.00876789 0.0
-0.0180904 -0.0102887 0.0
-0.0175202 -0.0119573 0.0
-0.0168362 -0.0137972 0.0
-0.0160233 -0.0158338 0.0
-0.0150641 -0.018094 0.0
-0.0139395 -0.0206049 0.0
-0.0126282 -0.0233912 0.0
-0.0111074 -0.0264651 0.0
-0.00935397 -0.0297874 0.0
-0.00734928 -0.0331055 0.0
-0.00509861 -0.0353691 0.0
-0.00271803 -0.0330533 0.0
-0.00076056 -0.0176242 0.0
0.00076056 0.0176242 0.0
0.000592382 -0.0144189 0.0
-0.000592382 0.0144189 0.0
-0.00207487 0.0265183 0.0
-0.00383384 0.0283612 0.0
-0.00549383 0.0268843 0.0
-0.00700042 0.0247962 0.0
-0.00836521 0.0227974 0.0
-0.00960648 0.0209972 0.0
-0.01074 0.0193786 0.0
-0.0117784 0.0179094 0.0
-0.0127323 0.0165619 0.0
-0.0136099 0.0153135 0.0
-0.0144183 0.0141465 0.0
-0.0151634 0.0130466 0.0
-0.0158499 0.012002 0.0
-0.0164818 0.0110028 0.0
-0.0170625 0.0100408 0.0
-0.0175947 0.00910876 0.0
-0.0180808 0.00820031 0.0
-0.0185225 0.00730976 0.0
-0.0189212 0.00643184 0.0
-0.0192779 0.00556153 0.0
-0.0195933 0.00469396 0.0
-0.0198676 0.00382425 0.0
-0.0201007 0.00294736 0.0
-0.020292 0.00205801 0.0
-0.0204407 0.00115049 0.0
-0.0205453 0.000218558 0.0
-0.0206037 -0.000744766 0.0
-0.0206135 -0.00174734 0.0
-0.0205713 -0.00279813 0.0
-0.0204729 -0.00390738 0.0
-0.0203135 -0.00508688 0.0
-0.0200869 -0.0063502 0.0
-0.0197859 -0.00771293 0.0
-0.0194017 -0.00919293 0.0
-0.0189242 -0.0108105 0.0
-0.0183414 -0.0125884 0.0
-0.0176393 -0.0145522 0.0
-0.0168019 -0.0167292 0.0
-0.015811 -0.0191485 0.0
-0.0146464 -0.0218396 0.0
-0.0132854 -0.0248288 0.0
-0.0117041 -0.0281296 0.0
-0.00987811 -0.0317022 0.0
-0.00778703 -0.0352865 0.0
-0.00543269 -0.0377932 0.0
-0.00292491 -0.0355176 0.0
-0.000828774 -0.0192136 0.0
0.000828774 0.0192136 0.0
0.000643347 -0.0156546 0.0
-0.000643347 0.0156546 0.0
-0.00222406 0.0283458 0.0
-0.004066 0.0301346 0.0
-0.00579105 0.0284959 0.0
-0.0073525 0.0262526 0.0
-0.0087655 0.0241188 0.0
-0.0100498 0.0222014 0.0
-0.0112221 0.0204801 0.0
-0.0122957 0.01892 0.0
-0.0132815 0.0174909 0.0
-0.0141884 0.016169 0.0
-0.0150238 0.0149349 0.0
-0.0157938 0.0137733 0.0
-0.0165035 0.0126715 0.0
-0.0171571 0.0116189 0.0
-0.0177582 0.0106065 0.0
-0.0183096 0.00962674 0.0
-0.0188139 0.00867263 0.0
-0.0192728 0.00773807 0.0
-0.019688 0.00681737 0.0
-0.0200604 0.00590514 0.0
-0.0203908 0.00499611 0.0
-0.0206794 0.00408502 0.0
-0.0209262 0.00316643 0.0
-0.0211305 0.00223462 0.0
-0.0212913 0.00128342 0.0
-0.0214072 0.00030604 0.0
-0.0214759 -0.000705071 0.0
-0.0214947 -0.00175845 0.0
-0.0214601 -0.00286383 0.0
-0.0213678 -0.00403234 0.0
-0.0212124 -0.00527679 0.0
-0.0209873 -0.00661191 0.0
-0.0206849 -0.00805464 0.0
-0.020296 -0.00962433 0.0
-0.0198096 -0.011343 0.0
-0.019213 -0.0132354 0.0
-0.0184915 -0.0153289 0.0
-0.0176281 -0.0176532 0.0
-0.0166036 -0.0202398 0.0
-0.0153965 -0.0231201 0.0
-0.0139832 -0.0263225 0.0
-0.0123385 -0.0298619 0.0
-0.0104367 -0.0336978 0.0
-0.00825551 -0.0375632 0.0
-0.00579308 -0.0403333 0.0
-0.00315137 -0.038127 0.0
-0.00090465 -0.020947 0.0
0.00090465 0.020947 0.0
0.000699982 -0.0169979 0.0
-0.000699982 0.0169979 0.0
-0.0023873 0.0302705 0.0
-0.00431635 0.0319809 0.0
-0.00610903 0.0301674 0.0
-0.00772755 0.0277612 0.0
-0.00919085 0.0254866 0.0
-0.0105202 0.0234473 0.0
-0.0117332 0.0216194 0.0
-0.0128438 0.0199649 0.0
-0.0138634 0.0184515 0.0
-0.0148014 0.0170533 0.0
-0.0156654 0.01575 0.0
-0.016462 0.0145248 0.0
-0.0171964 0.0133641 0.0
-0.0178732 0.0122566 0.0
-0.018496 0.0111927 0.0
-0.019068 0.010164 0.0
-0.0195918 0.00916329 0.0
-0.0200692 0.00818383 0.0
-0.020502 0.00721956 0.0
-0.0208913 0.00626466 0.0
-0.0212378 0.00531346 0.0
-0.0215418 0.00436028 0.0
-0.0218031 0.00339926 0.0
-0.0220212 0.00242421 0.0
-0.022195 0.00142846 0.0
-0.0223228 0.000404657 0.0
-0.0224024 -0.000655381 0.0
-0.0224308 -0.00176091 0.0
-0.0224043 -0.00292248 0.0
-0.0223181 -0.00415217 0.0
-0.0221667 -0.00546385 0.0
-0.021943 -0.00687352 0.0
-0.021639 -0.0083995 0.0
-0.0212446 -0.0100628 0.0
-0.0207485 -0.0118871 0.0
-0.020137 -0.0138993 0.0
-0.0193947 -0.0161288 0.0
-0.0185036 -0.0186078 0.0
-0.0174434 -0.0213699 0.0
-0.0161916 -0.0244489 0.0
-0.0147234 -0.0278752 0.0
-0.0130123 -0.031665 0.0
-0.0110314 -0.0357774 0.0
-0.00875649 -0.0399396 0.0
-0.00618162 -0.0429942 0.0
-0.00339924 -0.0408902 0.0
-0.000989074 -0.0228407 0.0
0.000989074 0.0228407 0.0
0.00076296 -0.0184609 0.0
-0.00076296 0.0184609 0.0
-0.00256601 0.0322979 0.0
-0.00458634 0.0339028 0.0
-0.00644913 0.0319009 0.0
-0.00812691 0.0293239 0.0
-0.00964261 0.0269028 0.0
-0.0110191 0.024737 0.0
-0.0122748 0.0227983 0.0
-0.0134243 0.021046 0.0
-0.0144795 0.0194452 0.0
-0.0154503 0.0179684 0.0
-0.0163448 0.0165934 0.0
-0.0171696 0.0153027 0.0
-0.0179303 0.0140814 0.0
-0.0186318 0.0129176 0.0
-0.019278 0.0118007 0.0
-0.019872 0.010722 0.0
-0.0204166 0.00967361 0.0
-0.0209139 0.00864831 0.0
-0.0213656 0.0076396 0.0
-0.021773 0.00664122 0.0
-0.0221367 0.00564707 0.0
-0.0224571 0.00465103 0.0
-0.022734 0.00364678 0.0
-0.0229668 0.00262763 0.0
-0.0231544 0.00158637 0.0
-0.0232949 0.000515069 0.0
-0.0233859 -0.000595151 0.0
-0.0234244 -0.00175431 0.0
-0.0234062 -0.00297381 0.0
-0.0233264 -0.00426675 0.0
-0.023179 -0.00564815 0.0
-0.0229565 -0.0071353 0.0
-0.0226503 -0.00874803 0.0
-0.0222499 -0.010509 0.0
-0.0217431 -0.0124439 0.0
-0.0211156 -0.0145815 0.0
-0.020351 -0.0169536 0.0
-0.0194303 -0.0195948 0.0
-0.0183324 -0.022541 0.0
-0.0170335 -0.0258285 0.0
-0.0155076 -0.0294897 0.0
-0.0137272 -0.033542 0.0
-0.0116639 -0.0379446 0.0
-0.00929183 -0.0424193 0.0
-0.00660037 -0.0457807 0.0
-0.0036706 -0.0438158 0.0
-0.00108304 -0.0249128 0.0
0.00108304 0.0249128 0.0
0.000833048 -0.0200569 0.0
-0.000833048 0.0200569 0.0
-0.00276176 0.0344337 0.0
-0.00487752 0.0359032 0.0
-0.00681289 0.0336987 0.0
-0.00855206 0.0309431 0.0
-0.0101223 0.0283696 0.0
-0.011548 0.0260724 0.0
-0.0128483 0.024019 0.0
-0.0140387 0.0221652 0.0
-0.0151316 0.020474 0.0
-0.0161371 0.0189158 0.0
-0.0170637 0.017467 0.0
-0.0179185 0.0161087 0.0
-0.0187073 0.0148251 0.0
-0.0194352 0.0136033 0.0
-0.0201062 0.0124322 0.0
-0.0207238 0.0113022 0.0
-0.0212907 0.010205 0.0
-0.0218093 0.00913285 0.0
-0.0222813 0.00807878 0.0
-0.022708 0.00703605 0.0
-0.0230901 0.0059981 0.0
-0.023428 0.00495834 0.0
-0.0237216 0.00390997 0.0
-0.0239701 0.00284576 0.0
-0.0241723 0.00175795 0.0
-0.0243262 0.000637942 0.0
-0.0244293 -0.000523844 0.0
-0.0244783 -0.00173824 0.0
-0.0244687 -0.00301759 0.0
-0.0243954 -0.00437604 0.0
-0.0242519 -0.00582983 0.0
-0.0240304 -0.00739762 0.0
-0.0237215 -0.00910081 0.0
-0.0233143 -0.0109638 0.0
-0.0227958 -0.0130143 0.0
-0.0221509 -0.0152833 0.0
-0.0213624 -0.0178049 0.0
-0.0204104 -0.0206161 0.0
-0.0192725 -0.0237555 0.0
-0.017924 -0.0272615 0.0
-0.0163378 -0.0311688 0.0
-0.014485 -0.0354961 0.0
-0.0123363 -0.0402026 0.0
-0.00986359 -0.0450061 0.0
-0.00705153 -0.0486975 0.0
-0.0039677 -0.0469126 0.0
-0.00118767 -0.0271836 0.0
0.00118767 0.0271836 0.0
0.000911118 -0.021801 0.0
-0.000911118 0.021801 0.0
-0.00297632 0.0366834 0.0
-0.00519167 0.0379846 0.0
-0.00720197 0.035563 0.0
-0.00900468 0.0326207 0.0
-0.0106315 0.029889 0.0
-0.0121084 0.0274556 0.0
-0.0134556 0.0252833 0.0
-0.0146889 0.0233246 0.0
-0.0158213 0.0215399 0.0
-0.0168634 0.0198976 0.0
-0.0178242 0.0183726 0.0
-0.0187108 0.0169446 0.0
-0.0195296 0.0155968 0.0
-0.0202855 0.0143154 0.0
-0.0209831 0.0130886 0.0
-0.0216258 0.0119061 0.0
-0.0222167 0.0107589 0.0
-0.022758 0.00963887 0.0
-0.0232517 0.00853844 0.0
-0.0236991 0.00745041 0.0
-0.0241009 0.00636773 0.0
-0.0244576 0.00528332 0.0
-0.0247689 0.00418984 0.0
-0.025034 0.00307953 0.0
-0.0252517 0.00194398 0.0
-0.0254198 0.000773942 0.0
-0.0255355 -0.000440938 0.0
-0.0255954 -0.00171235 0.0
-0.0255948 -0.00305364 0.0
-0.025528 -0.00448004 0.0
-0.0253883 -0.00600909 0.0
-0.0251673 -0.0076609 0.0
-0.0248551 -0.00945853 0.0
-0.0244402 -0.0114282 0.0
-0.0239089 -0.0135998 0.0
-0.0232453 -0.0160063 0.0
-0.0224311 -0.0186846 0.0
-0.0214457 -0.0216739 0.0
-0.0202657 -0.0250156 0.0
-0.0188651 -0.0287505 0.0
-0.0172158 -0.0329153 0.0
-0.0152878 -0.0375302 0.0
-0.0130505 -0.0425546 0.0
-0.010474 -0.0477034 0.0
-0.00753751 -0.0517487 0.0
-0.00429308 -0.0501896 0.0
-0.00130423 -0.0296755 0.0
0.00130423 0.0296755 0.0
0.000998168 -0.0237103 0.0
-0.000998168 0.0237103 0.0
-0.0032117 0.0390529 0.0
-0.00553075 0.0401495 0.0
-0.00761827 0.0374959 0.0
-0.0094866 0.0343588 0.0
-0.0111721 0.0314632 0.0
-0.0127024 0.0288887 0.0
-0.0140984 0.0265933 0.0
-0.0153767 0.0245262 0.0
-0.0165508 0.0226448 0.0
-0.0176316 0.0209157 0.0
-0.0186284 0.0193121 0.0
-0.0195489 0.0178122 0.0
-0.0203994 0.0163984 0.0
-0.0211853 0.0150558 0.0
-0.0219112 0.0137717 0.0
-0.0225809 0.0125353 0.0
-0.0231973 0.0113369 0.0
-0.023763 0.0101679 0.0
-0.0242799 0.00902002 0.0
-0.0247494 0.00788566 0.0
-0.0251723 0.00675724 0.0
-0.0255489 0.00562713 0.0
-0.025879 0.00448745 0.0
-0.0261618 0.00332985 0.0
-0.0263958 0.00214527 0.0
-0.0265788 0.00092373 0.0
-0.0267078 -0.000345929 0.0
-0.026779 -0.00167632 0.0
-0.0267875 -0.0030818 0.0
-0.0267273 -0.00457882 0.0
-0.0265911 -0.00618624 0.0
-0.0263702 -0.00792571 0.0
-0.026054 -0.00982199 0.0
-0.0256304 -0.0119033 0.0
-0.025085 -0.0142015 0.0
-0.0244011 -0.0167521 0.0
-0.0235595 -0.0195944 0.0
-0.0225387 -0.0227704 0.0
-0.0213141 -0.0263238 0.0
-0.0198588 -0.0302982 0.0
-0.0181437 -0.0347321 0.0
-0.0161376 -0.0396474 0.0
-0.0138088 -0.0450036 0.0
-0.0111253 -0.0505143 0.0
-0.00806094 -0.0549386 0.0
-0.00464955 -0.0536555 0.0
-0.00143413 -0.0324138 0.0
0.00143413 0.0324138 0.0
0.00109534 -0.0258038 0.0
-0.00109534 0.0258038 0.0
-0.00347018 0.0415478 0.0
-0.00589695 0.0424005 0.0
-0.00806389 0.0394994 0.0
-0.00999988 0.0361596 0.0
-0.0117462 0.0330941 0.0
-0.0133319 0.0303738 0.0
-0.014779 0.0279513 0.0
-0.0161044 0.025772 0.0
-0.0173222 0.0237908 0.0
-0.0184438 0.0219721 0.0
-0.0194788 0.0202874 0.0
-0.0204351 0.0187136 0.0
-0.0213194 0.0172318 0.0
-0.0221372 0.0158262 0.0
-0.0228934 0.0144833 0.0
-0.0235917 0.0131916 0.0
-0.0242355 0.0119408 0.0
-0.0248272 0.0107215 0.0
-0.025369 0.00952504 0.0
-0.0258621 0.00834323 0.0
-0.0263074 0.00716793 0.0
-0.0267053 0.00599098 0.0
-0.0270555 0.0048039 0.0
-0.027357 0.0035977 0.0
-0.0276082 0.00236263 0.0
-0.0278068 0.00108795 0.0
-0.0279496 -0.000238349 0.0
-0.0280325 -0.00162985 0.0
-0.0280502 -0.00310202 0.0
-0.0279965 -0.00467254 0.0
-0.0278635 -0.00636168 0.0
-0.0276421 -0.00819267 0.0
-0.0273211 -0.0101921 0.0
-0.0268877 -0.0123902 0.0
-0.0263268 -0.014821 0.0
-0.0256209 -0.0175225 0.0
-0.02475 -0.0205365 0.0
-0.0236914 -0.0239077 0.0
-0.0224199 -0.0276826 0.0
-0.0209074 -0.0319072 0.0
-0.0191237 -0.036622 0.0
-0.0170367 -0.0418505 0.0
-0.0146135 -0.0475526 0.0
-0.0118202 -0.0534419 0.0
-0.00862469 -0.0582709 0.0
-0.00504022 -0.0573191 0.0
-0.00157897 -0.0354269 0.0
0.00157897 0.0354269 0.0
0.00120393 -0.0281031 0.0
-0.00120393 0.0281031 0.0
-0.00375432 0.0441737 0.0
-0.00629274 0.0447397 0.0
-0.00854118 0.0415755 0.0
-0.0105468 0.0380251 0.0
-0.012356 0.034784 0.0
-0.0139994 0.0319131 0.0
-0.0154996 0.0293592 0.0
-0.0168743 0.0270642 0.0
-0.0181381 0.0249801 0.0
-0.0193027 0.0230691 0.0
-0.020378 0.0213008 0.0
-0.0213723 0.0196508 0.0
-0.0222924 0.018099 0.0
-0.0231442 0.0166287 0.0
-0.0239326 0.0152254 0.0
-0.0246616 0.0138769 0.0
-0.0253346 0.0125722 0.0
-0.0259542 0.0113014 0.0
-0.0265224 0.0100551 0.0
-0.0270407 0.0088246 0.0
-0.02751 0.00760121 0.0
-0.0279305 0.00637614 0.0
-0.0283019 0.00514031 0.0
-0.0286232 0.00388404 0.0
-0.0288925 0.00259687 0.0
-0.0291075 0.00126724 0.0
-0.0292646 -0.000117763 0.0
-0.0293594 -0.00157274 0.0
-0.0293865 -0.00311431 0.0
-0.029339 -0.00476144 0.0
-0.0292089 -0.0065359 0.0
-0.0289862 -0.00846258 0.0
-0.0286594 -0.0105699 0.0
-0.028215 -0.0128902 0.0
-0.027637 -0.0154598 0.0
-0.0269073 -0.0183193 0.0
-0.026005 -0.0215129 0.0
-0.0249065 -0.0250883 0.0
-0.0235856 -0.0290945 0.0
-0.0220132 -0.0335801 0.0
-0.0201582 -0.0385878 0.0
-0.0179875 -0.0441423 0.0
-0.0154672 -0.0502044 0.0
-0.0125615 -0.056489 0.0
-0.00923188 -0.061749 0.0
-0.00546853 -0.0611888 0.0
-0.00174054 -0.0387465 0.0
0.00174054 0.0387465 0.0
0.00132544 -0.0306325 0.0
-0.00132544 0.0306325 0.0
-0.00406704 0.0469364 0.0
-0.00672088 0.0471693 0.0
-0.00905279 0.0437262 0.0
-0.0111301 0.0399573 0.0
-0.0130041 0.036535 0.0
-0.0147073 0.0335086 0.0
-0.0162629 0.0308194 0.0
-0.0176892 0.0284051 0.0
-0.0190011 0.0262149 0.0
-0.020211 0.0242087 0.0
-0.0213289 0.0223543 0.0
-0.0223634 0.020626 0.0
-0.0233216 0.0190022 0.0
-0.0242096 0.0174653 0.0
-0.0250323 0.016 0.0
-0.025794 0.0145931 0.0
-0.0264982 0.0132331 0.0
-0.0271474 0.0119093 0.0
-0.0277439 0.0106119 0.0
-0.0282891 0.00933137 0.0
-0.0287839 0.00805851 0.0
-0.0292285 0.00678392 0.0
-0.0296223 0.00549782 0.0
-0.0299644 0.00418986 0.0
-0.0302528 0.00284879 0.0
-0.0304847 0.00146219 0.0
-0.0306566 1.62093e-05 0.0
-0.0307636 -0.00150483 0.0
-0.0308 -0.00311875 0.0
-0.0307586 -0.00484589 0.0
-0.0306307 -0.00670954 0.0
-0.0304059 -0.00873633 0.0
-0.0300723 -0.0109566 0.0
-0.0296153 -0.0134049 0.0
-0.0290187 -0.0161198 0.0
-0.0282632 -0.0191445 0.0
-0.0273273 -0.0225259 0.0
-0.0261865 -0.0263145 0.0
-0.0248136 -0.0305622 0.0
-0.0231787 -0.0353198 0.0
-0.0212496 -0.0406322 0.0
-0.0189927 -0.0465255 0.0
-0.0163727 -0.0529615 0.0
-0.0133522 -0.059658 0.0
-0.00988591 -0.0653759 0.0
-0.00593831 -0.0652728 0.0
-0.00192085 -0.0424079 0.0
0.00192085 0.0424079 0.0
0.00146159 -0.0334195 0.0
-0.00146159 0.0334195 0.0
-0.00441167 0.049841 0.0
-0.00718448 0.0496914 0.0
-0.00960171 0.0459534 0.0
-0.0117525 0.0419583 0.0
-0.0136935 0.0383491 0.0
-0.0154586 0.0351628 0.0
-0.0170718 0.0323341 0.0
-0.018552 0.029797 0.0
-0.0199145 0.0274975 0.0
-0.0211719 0.0253933 0.0
-0.0223347 0.0234504 0.0
-0.0234118 0.0216414 0.0
-0.0244104 0.0199436 0.0
-0.0253367 0.0183382 0.0
-0.0261961 0.0168091 0.0
-0.0269927 0.0153423 0.0
-0.02773 0.0139254 0.0
-0.028411 0.0125472 0.0
-0.0290376 0.0111971 0.0
-0.0296115 0.00986516 0.0
-0.0301333 0.00854135 0.0
-0.0306033 0.00721565 0.0
-0.031021 0.00587762 0.0
-0.031385 0.00451614 0.0
-0.0316933 0.00311916 0.0
-0.0319429 0.00167337 0.0
-0.0321299 0.000163889 0.0
-0.0322493 -0.00142606 0.0
-0.0322949 -0.00311555 0.0
-0.032259 -0.00492636 0.0
-0.0321327 -0.00688336 0.0
-0.0319049 -0.00901497 0.0
-0.031563 -0.0113536 0.0
-0.0310921 -0.0139358 0.0
-0.0304749 -0.0168028 0.0
-0.0296916 -0.0200002 0.0
-0.0287198 -0.0235779 0.0
-0.0275342 -0.027589 0.0
-0.0261067 -0.0320882 0.0
-0.0244065 -0.0371289 0.0
-0.0224008 -0.0427579 0.0
-0.0200549 -0.0490027 0.0
-0.0173329 -0.0558264 0.0
-0.0141955 -0.0629511 0.0
-0.0105905 -0.0691542 0.0
-0.00645378 -0.0695789 0.0
-0.00212215 -0.0464508 0.0
0.00212215 0.0464508 0.0
0.00161436 -0.0364954 0.0
-0.00161436 0.0364954 0.0
-0.004792 0.0528928 0.0
-0.00768708 0.0523075 0.0
-0.0101913 0.0482587 0.0
-0.0124175 0.0440299 0.0
-0.0144275 0.0402285 0.0
-0.0162566 0.0368776 0.0
-0.0179297 0.0339056 0.0
-0.0194661 0.0312421 0.0
-0.0208815 0.0288303 0.0
-0.0221889 0.0266254 0.0
-0.0233991 0.0245914 0.0
-0.0245211 0.0226995 0.0
-0.0255626 0.0209256 0.0
-0.0265297 0.0192498 0.0
-0.0274279 0.0176551 0.0
-0.0282616 0.0161266 0.0
-0.0290344 0.0146513 0.0
-0.0297491 0.013217 0.0
-0.0304079 0.0118127 0.0
-0.0310122 0.0104277 0.0
-0.0315628 0.00905126 0.0
-0.0320598 0.00767272 0.0
-0.0325024 0.00628088 0.0
-0.0328894 0.00486386 0.0
-0.0332185 0.00340874 0.0
-0.0334863 0.00190127 0.0
-0.0336889 0.000325522 0.0
-0.0338207 -0.00133645 0.0
-0.0338752 -0.00310503 0.0
-0.0338445 -0.00500346 0.0
-0.0337188 -0.00705827 0.0
-0.0334869 -0.00929972 0.0
-0.0331354 -0.0117622 0.0
-0.0326487 -0.0144847 0.0
-0.0320089 -0.0175108 0.0
-0.0311956 -0.0208888 0.0
-0.0301854 -0.0246713 0.0
-0.0289524 -0.0289143 0.0
-0.0274676 -0.0336752 0.0
-0.0256995 -0.03901 0.0
-0.0236146 -0.0449674 0.0
-0.0211774 -0.0515762 0.0
-0.0183513 -0.058801 0.0
-0.0150951 -0.0663701 0.0
-0.0113496 -0.0730857 0.0
-0.00701961 -0.0741141 0.0
-0.00234694 -0.0509199 0.0
0.00234694 0.0509199 0.0
0.00178605 -0.0398958 0.0
-0.00178605 0.0398958 0.0
-0.00521237 0.0560963 0.0
-0.00823265 0.0550193 0.0
-0.0108255 0.050644 0.0
-0.0131288 0.0461741 0.0
-0.0152098 0.0421752 0.0
-0.0171052 0.0386553 0.0
-0.0188404 0.0355361 0.0
-0.0204353 0.0327429 0.0
-0.0219061 0.0302157 0.0
-0.023266 0.0279073 0.0
-0.0245261 0.0257798 0.0
-0.0256956 0.0238026 0.0
-0.0267823 0.0219505 0.0
-0.0277928 0.0202024 0.0
-0.0287323 0.0185402 0.0
-0.0296055 0.0169483 0.0
-0.030416 0.0154128 0.0
-0.0311666 0.0139208 0.0
-0.0318595 0.0124606 0.0
-0.0324961 0.0110207 0.0
-0.0330772 0.00958985 0.0
-0.0336026 0.00815653 0.0
-0.0340717 0.00670881 0.0
-0.0344827 0.00523398 0.0
-0.0348333 0.00371823 0.0
-0.03512 0.00214633 0.0
-0.0353383 0.000501262 0.0
-0.0354825 -0.00123614 0.0
-0.0355456 -0.00308763 0.0
-0.0355193 -0.00507796 0.0
-0.0353934 -0.00723535 0.0
-0.035156 -0.00959198 0.0
-0.0347931 -0.0121843 0.0
-0.0342888 -0.0150537 0.0
-0.0336243 -0.0182461 0.0
-0.0327784 -0.0218126 0.0
-0.0317274 -0.0258087 0.0
-0.0304442 -0.0302931 0.0
-0.0288994 -0.035326 0.0
-0.0270608 -0.0409658 0.0
-0.0248941 -0.0472633 0.0
-0.0223633 -0.0542483 0.0
-0.0194311 -0.0618872 0.0
-0.0160548 -0.0699164 0.0
-0.0121677 -0.0771719 0.0
-0.00764097 -0.0788847 0.0
-0.00259806 -0.0558649 0.0
0.00259806 0.0558649 0.0
0.00197928 -0.0436612 0.0
-0.00197928 0.0436612 0.0
-0.00567775 0.0594558 0.0
-0.00882573 0.0578281 0.0
-0.0115085 0.0531108 0.0
-0.0138907 0.0483929 0.0
-0.0160447 0.0441914 0.0
-0.0180084 0.0404983 0.0
-0.0198081 0.037228 0.0
-0.0214639 0.0343018 0.0
-0.0229926 0.0316562 0.0
-0.0244075 0.0292416 0.0
-0.0257201 0.0270181 0.0
-0.0269398 0.0249535 0.0
-0.0280744 0.0230211 0.0
-0.0291307 0.0211986 0.0
-0.0301141 0.019467 0.0
-0.0310292 0.0178099 0.0
-0.0318798 0.0162122 0.0
-0.0326685 0.0146608 0.0
-0.0333977 0.0131427 0.0
-0.0340685 0.0116461 0.0
-0.0346818 0.0101587 0.0
-0.0352372 0.00866849 0.0
-0.0357339 0.00716258 0.0
-0.03617 0.00562742 0.0
-0.0365429 0.00404829 0.0
-0.0368489 0.00240892 0.0
-0.0370831 0.000691159 0.0
-0.0372395 -0.00112541 0.0
-0.0373108 -0.00306395 0.0
-0.037288 -0.00515078 0.0
-0.0371606 -0.00741586 0.0
-0.0369162 -0.0098933 0.0
-0.0365402 -0.0126218 0.0
-0.0360161 -0.0156448 0.0
-0.0353245 -0.0190111 0.0
-0.0344436 -0.0227743 0.0
-0.0333489 -0.0269928 0.0
-0.0320129 -0.0317281 0.0
-0.0304054 -0.0370433 0.0
-0.0284936 -0.042999 0.0
-0.0262427 -0.0496478 0.0
-0.0236162 -0.0570209 0.0
-0.0205763 -0.0650866 0.0
-0.0170787 -0.073591 0.0
-0.0130495 -0.0814135 0.0
-0.00832351 -0.0838958 0.0
-0.00287864 -0.0613416 0.0
0.00287864 0.0613416 0.0
0.00219715 -0.0478376 0.0
-0.00219715 0.0478376 0.0
-0.00619386 0.0629745 0.0
-0.00947149 0.0607349 0.0
-0.0122454 0.0556606 0.0
-0.0147081 0.050688 0.0
-0.0169369 0.0462791 0.0
-0.0189712 0.0424086 0.0
-0.0208375 0.0389838 0.0
-0.0225568 0.0359212 0.0
-0.0241458 0.0331544 0.0
-0.0256184 0.030631 0.0
-0.0269861 0.0283091 0.0
-0.0282585 0.0261547 0.0
-0.0294438 0.0241398 0.0
-0.0305485 0.0222409 0.0
-0.0315784 0.020438 0.0
-0.032538 0.0187136 0.0
-0.033431 0.017052 0.0
-0.0342602 0.015439 0.0
-0.0350277 0.0138612 0.0
-0.0357348 0.0123056 0.0
-0.036382 0.0107596 0.0
-0.0369689 0.00921001 0.0
-0.0374945 0.00764332 0.0
-0.0379567 0.00604504 0.0
-0.0383526 0.00439947 0.0
-0.0386781 0.00268927 0.0
-0.0389282 0.000895125 0.0
-0.0390965 -0.00100469 0.0
-0.0391752 -0.00303477 0.0
-0.0391549 -0.00522304 0.0
-0.0390246 -0.00760125 0.0
-0.0387715 -0.0102055 0.0
-0.0383804 -0.0130765 0.0
-0.0378342 -0.0162604 0.0
-0.037113 -0.0198082 0.0
-0.0361944 -0.0237766 0.0
-0.0350532 -0.0282264 0.0
-0.0336615 -0.0332222 0.0
-0.0319885 -0.0388297 0.0
-0.0300009 -0.0451119 0.0
-0.0276635 -0.0521232 0.0
-0.0249396 -0.0598959 0.0
-0.0217907 -0.0684004 0.0
-0.0181711 -0.0773945 0.0
-0.0139998 -0.0858106 0.0
-0.00907335 -0.0891511 0.0
-0.00319212 -0.0674124 0.0
0.00319212 0.0674124 0.0
0.00244317 -0.0524779 0.0
-0.00244317 0.0524779 0.0
-0.00676721 0.066655 0.0
-0.0101757 0.0637406 0.0
-0.0130417 0.0582948 0.0
-0.0155864 0.0530611 0.0
-0.0178918 0.0484402 0.0
-0.0199986 0.0443884 0.0
-0.0219338 0.0408056 0.0
-0.0237188 0.0376036 0.0
-0.0253706 0.0347128 0.0
-0.0269033 0.032078 0.0
-0.0283287 0.0296552 0.0
-0.0296566 0.0274088 0.0
-0.0308951 0.0253093 0.0
-0.0320509 0.023332 0.0
-0.0331298 0.0214557 0.0
-0.0341363 0.019662 0.0
-0.035074 0.0179344 0.0
-0.0359459 0.0162577 0.0
-0.0367538 0.0146179 0.0
-0.0374989 0.0130011 0.0
-0.0381815 0.0113939 0.0
-0.0388013 0.00978236 0.0
-0.0393568 0.00815204 0.0
-0.0398458 0.00648754 0.0
-0.0402651 0.00477214 0.0
-0.0406103 0.00298741 0.0
-0.040876 0.00111284 0.0
-0.0410555 -0.000874644 0.0
-0.0411406 -0.00300111 0.0
-0.0411214 -0.00529613 0.0
-0.0409866 -0.00779325 0.0
-0.0407227 -0.0105306 0.0
-0.0403142 -0.013551 0.0
-0.0397433 -0.016903 0.0
-0.0389897 -0.0206404 0.0
-0.0380306 -0.0248222 0.0
-0.0368401 -0.0295124 0.0
-0.0353899 -0.0347782 0.0
-0.0336488 -0.0406879 0.0
-0.0315832 -0.0473069 0.0
-0.0291574 -0.0546913 0.0
-0.0263347 -0.0628745 0.0
-0.0230762 -0.0718292 0.0
-0.019335 -0.0813265 0.0
-0.0150228 -0.0903619 0.0
-0.00989646 -0.0946525 0.0
-0.00354208 -0.0741466 0.0
0.00354208 0.0741466 0.0
0.0027213 -0.0576424 0.0
-0.0027213 0.0576424 0.0
-0.00740472 0.0704979 0.0
-0.0109439 0.0668453 0.0
-0.0139022 0.0610144 0.0
-0.0165297 0.0555137 0.0
-0.0189129 0.0506764 0.0
-0.0210935 0.0464396 0.0
-0.0230991 0.0426954 0.0
-0.0249514 0.0393511 0.0
-0.0266677 0.0363334 0.0
-0.0282624 0.0335847 0.0
-0.0297473 0.0310588 0.0
-0.0311324 0.0287182 0.0
-0.0324258 0.0265319 0.0
-0.0336345 0.024474 0.0
-0.034764 0.0225221 0.0
-0.0358189 0.020657 0.0
-0.0368028 0.0188611 0.0
-0.0377185 0.0171185 0.0
-0.0385677 0.0154142 0.0
-0.0393516 0.0137337 0.0
-0.0400702 0.0120626 0.0
-0.040723 0.0103862 0.0
-0.0413084 0.00868907 0.0
-0.0418238 0.00695493 0.0
-0.0422657 0.00516599 0.0
-0.0426296 0.00330271 0.0
-0.0429097 0.00134332 0.0
-0.0430987 -0.000736606 0.0
-0.0431882 -0.00296464 0.0
-0.0431679 -0.005372 0.0
-0.043026 -0.00799408 0.0
-0.0427487 -0.010871 0.0
-0.04232 -0.0140479 0.0
-0.0417216 -0.0175755 0.0
-0.0409329 -0.0215102 0.0
-0.0399305 -0.0259139 0.0
-0.0386884 -0.0308532 0.0
-0.0371778 -0.0363981 0.0
-0.0353672 -0.0426196 0.0
-0.0332228 -0.0495852 0.0
-0.030709 -0.0573526 0.0
-0.0277886 -0.0659563 0.0
-0.0244228 -0.0753716 0.0
-0.0205635 -0.0853847 0.0
-0.0161156 -0.0950638 0.0
-0.0107949 -0.100398 0.0
-0.00393101 -0.0816197 0.0
0.00393101 0.0816197 0.0
0.00303474 -0.0633984 0.0
-0.00303474 0.0633984 0.0
-0.00811025 0.0745008 0.0
-0.0117755 0.0700469 0.0
-0.0148225 0.063818 0.0
-0.0175297 0.0580446 0.0
-0.0199878 0.0529867 0.0
-0.0222393 0.0485613 0.0
-0.0243125 0.0446525 0.0
-0.0262291 0.0411629 0.0
-0.0280069 0.0380157 0.0
-0.0296603 0.0351505 0.0
-0.0312014 0.032519 0.0
-0.0326401 0.0300818 0.0
-0.0339848 0.0278064 0.0
-0.0352423 0.0256656 0.0
-0.0364182 0.0236359 0.0
-0.0375171 0.021697 0.0
-0.0385425 0.0198304 0.0
-0.039497 0.0180194 0.0
-0.0403825 0.016248 0.0
-0.0411998 0.014501 0.0
-0.0419488 0.0127631 0.0
-0.0426289 0.0110186 0.0
-0.0432382 0.0092513 0.0
-0.0437739 0.00744389 0.0
-0.0442324 0.00557751 0.0
-0.0446088 0.00363147 0.0
-0.044897 0.00158275 0.0
-0.0450896 -0.000594447 0.0
-0.0451777 -0.00292922 0.0
-0.0451509 -0.00545445 0.0
-0.044997 -0.00820738 0.0
-0.0447019 -0.0112301 0.0
-0.0442494 -0.01457 0.0
-0.0436211 -0.0182801 0.0
-0.0427959 -0.0224194 0.0
-0.0417505 -0.0270525 0.0
-0.0404586 -0.0322486 0.0
-0.0388915 -0.0380806 0.0
-0.0370175 -0.0446218 0.0
-0.0348029 -0.051942 0.0
-0.0322122 -0.0601005 0.0
-0.0292084 -0.0691326 0.0
-0.0257526 -0.0790168 0.0
-0.0217955 -0.0895559 0.0
-0.0172355 -0.0999006 0.0
-0.0117468 -0.10637 0.0
-0.00435356 -0.0899043 0.0
0.00435356 0.0899043 0.0
0.00337891 -0.0698121 0.0
-0.00337891 0.0698121 0.0
-0.00886304 0.0786468 0.0
-0.0126272 0.0733304 0.0
-0.0157371 0.0666913 0.0
-0.018498 0.0606394 0.0
-0.0210043 0.0553564 0.0
-0.0232992 0.0507381 0.0
-0.0254112 0.0466609 0.0
-0.0273626 0.0430224 0.0
-0.0291711 0.0397424 0.0
-0.0308515 0.0367577 0.0
-0.0324161 0.0340175 0.0
-0.0338749 0.0314808 0.0
-0.0352364 0.0291135 0.0
-0.0365075 0.0268871 0.0
-0.0376942 0.024777 0.0
-0.038801 0.0227616 0.0
-0.0398315 0.0208217 0.0
-0.0407885 0.0189396 0.0
-0.0416739 0.0170986 0.0
-0.0424886 0.0152824 0.0
-0.0432327 0.0134749 0.0
-0.0439055 0.0116596 0.0
-0.0445052 0.00981932 0.0
-0.0450293 0.00793574 0.0
-0.0454741 0.00598894 0.0
-0.0458348 0.0039571 0.0
-0.0461054 0.00181592 0.0
-0.0462787 -0.000461752 0.0
-0.046346 -0.00290652 0.0
-0.046297 -0.00555292 0.0
-0.0461198 -0.00843998 0.0
-0.0458006 -0.0116118 0.0
-0.0453235 -0.0151178 0.0
-0.0446705 -0.0190136 0.0
-0.0438212 -0.0233605 0.0
-0.0427525 -0.0282255 0.0
-0.041439 -0.0336809 0.0
-0.0398525 -0.039802 0.0
-0.0379621 -0.0466647 0.0
-0.0357346 -0.0543411 0.0
-0.0331351 -0.0628917 0.0
-0.0301269 -0.0723534 0.0
-0.026671 -0.0827078 0.0
-0.0227167 -0.0937764 0.0
-0.018155 -0.104802 0.0
-0.0126182 -0.112494 0.0
-0.00476688 -0.0990247 0.0
0.00476688 0.0990247 0.0
0.00370398 -0.076895 0.0
-0.00370398 0.076895 0.0
-0.00950473 0.0828488 0.0
-0.0132232 0.0766111 0.0
-0.0162509 0.0695483 0.0
-0.0189172 0.0632096 0.0
-0.0213187 0.057694 0.0
-0.0234992 0.0528759 0.0
-0.0254876 0.0486236 0.0
-0.0273063 0.0448299 0.0
-0.028974 0.0414112 0.0
-0.030506 0.0383014 0.0
-0.0319153 0.0354477 0.0
-0.033213 0.0328071 0.0
-0.0344085 0.0303442 0.0
-0.0355098 0.0280289 0.0
-0.0365238 0.0258357 0.0
-0.0374562 0.023742 0.0
-0.0383121 0.0217276 0.0
-0.0390952 0.0197739 0.0
-0.0398087 0.0178632 0.0
-0.0404548 0.0159786 0.0
-0.0410351 0.0141031 0.0
-0.0415501 0.0122192 0.0
-0.0419996 0.0103089 0.0
-0.0423823 0.00835294 0.0
-0.0426961 0.00633032 0.0
-0.0429378 0.00421809 0.0
-0.043103 0.0019908 0.0
-0.0431863 -0.000380054 0.0
-0.0431807 -0.00292649 0.0
-0.043078 -0.00568461 0.0
-0.0428683 -0.00869518 0.0
-0.04254 -0.0120041 0.0
-0.0420795 -0.0156631 0.0
-0.0414712 -0.0197296 0.0
-0.0406974 -0.0242676 0.0
-0.0397376 -0.0293468 0.0
-0.0385689 -0.0350418 0.0
-0.0371657 -0.0414309 0.0
-0.0354994 -0.0485926 0.0
-0.0335387 -0.0566013 0.0
-0.0312499 -0.0655198 0.0
-0.0285966 -0.0753868 0.0
-0.0255386 -0.0861883 0.0
-0.0220214 -0.0977674 0.0
-0.0179253 -0.109469 0.0
-0.0128365 -0.118453 0.0
-0.00498112 -0.108773 0.0
0.00498112 0.108773 0.0
0.00374754 -0.0843465 0.0
-0.00374754 0.0843465 0.0
-0.00923623 0.0866867 0.0
-0.0122128 0.0794682 0.0
-0.0144541 0.0719602 0.0
-0.016307 0.0653168 0.0
-0.0178698 0.0595512 0.0
-0.0191873 0.0545168 0.0
-0.0202905 0.0500742 0.0
-0.0212048 0.0461123 0.0
-0.0219523 0.042544 0.0
-0.0225528 0.039301 0.0
-0.0230239 0.0363284 0.0
-0.0233816 0.0335817 0.0
-0.0236404 0.0310239 0.0
-0.0238138 0.0286239 0.0
-0.0239141 0.026355 0.0
-0.0239525 0.0241937 0.0
-0.0239395 0.0221188 0.0
-0.0238846 0.0201109 0.0
-0.0237964 0.0181515 0.0
-0.0236827 0.0162228 0.0
-0.0235505 0.0143069 0.0
-0.0234059 0.0123857 0.0
-0.0232541 0.0104402 0.0
-0.0230998 0.00845004 0.0
-0.0229463 0.00639352 0.0
-0.0227963 0.00424661 0.0
-0.0226515 0.00198276 0.0
-0.0225126 -0.000427661 0.0
-0.0223791 -0.00301794 0.0
-0.0222494 -0.00582557 0.0
-0.0221205 -0.00889281 0.0
-0.0219881 -0.0122673 0.0
-0.021846 -0.0160025 0.0
-0.0216865 -0.0201581 0.0
-0.0214993 -0.0248003 0.0
-0.0212718 -0.0300014 0.0
-0.0209885 -0.0358391 0.0
-0.0206305 -0.0423948 0.0
-0.0201748 -0.0497506 0.0
-0.019594 -0.0579846 0.0
-0.0188558 -0.0671635 0.0
-0.0179218 -0.0773304 0.0
-0.016745 -0.0884795 0.0
-0.0152577 -0.100481 0.0
-0.0133164 -0.112793 0.0
-0.0104457 -0.123088 0.0
-0.00434241 -0.118096 0.0
0.00434241 0.118096 0.0
0.00243437 -0.0905284 0.0
-0.00243437 0.0905284 0.0
-0.00482009 0.0883792 0.0
-0.00418166 0.0801138 0.0
-0.00274989 0.0721241 0.0
-0.000889247 0.0651452 0.0
0.00129101 0.0591053 0.0
0.00373217 0.053839 0.0
0.00638678 0.0492006 0.0
0.00921141 0.0450756 0.0
0.0121654 0.0413743 0.0
0.0152106 0.0380259 0.0
0.0183116 0.0349736 0.0
0.021435 0.0321707 0.0
0.02455 0.0295787 0.0
0.0276279 0.0271646 0.0
0.0306421 0.0249004 0.0
0.0335676 0.0227612 0.0
0.0363814 0.0207245 0.0
0.0390619 0.0187698 0.0
0.0415888 0.0168776 0.0
0.0439428 0.015029 0.0
0.0461058 0.0132055 0.0
0.0480603 0.011388 0.0
0.0497895 0.00955691 0.0
0.0512771 0.00769134 0.0
0.0525069 0.00576887 0.0
0.0534632 0.00376499 0.0
0.0541302 0.00165263 0.0
0.0544921 -0.000598397 0.0
0.0545334 -0.00302195 0.0
0.0542383 -0.00565618 0.0
0.0535913 -0.00854416 0.0
0.0525775 -0.0117345 0.0
0.0511824 -0.0152821 0.0
0.0493926 -0.0192482 0.0
0.0471967 -0.0237014 0.0
0.0445858 -0.0287168 0.0
0.0415548 -0.034376 0.0
0.0381042 -0.0407653 0.0
0.0342413 -0.047973 0.0
0.0299835 -0.0560851 0.0
0.0253601 -0.0651779 0.0
0.0204172 -0.075307 0.0
0.0152226 -0.0864851 0.0
0.00988293 -0.0986225 0.0
0.00460464 -0.111314 0.0
-2.51827e-05 -0.122808 0.0
-0.0010332 -0.123472 0.0
0.0010332 0.123472 0.0
-0.00423531 -0.0887275 0.0
0.00423531 0.0887275 0.0
0.0156294 0.0811718 0.0
0.0303559 0.0719563 0.0
0.0455518 0.0636539 0.0
0.0607487 0.0565579 0.0
0.0757599 0.0505012 0.0
0.0904708 0.045291 0.0
0.104796 0.0407686 0.0
0.118669 0.0368096 0.0
0.132039 0.0333164 0.0
0.144866 0.0302116 0.0
0.157121 0.0274329 0.0
0.168779 0.0249293 0.0
0.179826 0.0226585 0.0
0.190248 0.0205852 0.0
0.200034 0.018679 0.0
0.209178 0.0169135 0.0
0.217671 0.0152655 0.0
0.225505 0.0137139 0.0
0.232672 0.0122395 0.0
0.239162 0.0108238 0.0
0.24496 0.00944917 0.0
0.250052 0.00809801 0.0
0.254417 0.00675238 0.0
0.258032 0.00539356 0.0
0.260867 0.00400161 0.0
0.262888 0.00255487 0.0
0.264055 0.00102943 0.0
0.264319 -0.000601453 0.0
0.263627 -0.00236796 0.0
0.261916 -0.00430444 0.0
0.259117 -0.00645014 0.0
0.255153 -0.00885002 0.0
0.249937 -0.0115556 0.0
0.243378 -0.0146257 0.0
0.235377 -0.0181273 0.0
0.225832 -0.0221358 0.0
0.214642 -0.0267354 0.0
0.201705 -0.0320183 0.0
0.186931 -0.0380834 0.0
0.170247 -0.0450328 0.0
0.151607 -0.0529672 0.0
0.131009 -0.0619765 0.0
0.108512 -0.0721239 0.0
0.0842732 -0.0834056 0.0
0.0586361 -0.0956156 0.0
0.0324523 -0.107693 0.0
0.00968914 -0.114816 0.0
-0.00968914 0.114816 0.0
-0.0422461 -0.0422461 0.0
0.0422461 0.0422461 0.0
0.121499 0.0370065 0.0
0.1907 0.0321943 0.0
0.250907 0.0280129 0.0
0.303414 0.0244946 0.0
0.349438 0.0215293 0.0
0.389979 0.0190113 0.0
0.425846 0.0168558 0.0
0.457698 0.0149966 0.0
0.486076 0.0133814 0.0
0.511427 0.011969 0.0
0.534122 0.0107261 0.0
0.554474 0.00962556 0.0
0.572744 0.00864507 0.0
0.589155 0.00776602 0.0
0.603894 0.00697272 0.0
0.617118 0.00625172 0.0
0.628961 0.00559132 0.0
0.639534 0.00498118 0.0
0.648927 0.00441195 0.0
0.657214 0.00387501 0.0
0.664451 0.00336218 0.0
0.670679 0.00286551 0.0
0.675921 0.00237704 0.0
0.680187 0.00188856 0.0
0.683467 0.00139143 0.0
0.685735 0.000876267 0.0
0.686944 0.00033271 0.0
0.687026 -0.000250877 0.0
0.685887 -0.000887748 0.0
0.683406 -0.00159315 0.0
0.679428 -0.00238472 0.0
0.67376 -0.003283 0.0
0.666166 -0.00431188 0.0
0.656355 -0.00549913 0.0
0.643978 -0.00687695 0.0
0.628619 -0.00848241 0.0
0.609779 -0.0103578 0.0
0.586871 -0.0125506 0.0
0.559207 -0.0151134 0.0
0.525991 -0.0181027 0.0
0.48631 -0.0215775 0.0
0.439138 -0.0255952 0.0
0.383336 -0.0302064 0.0
0.317691 -0.0354391 0.0
0.240999 -0.0412529 0.0
0.152436 -0.0473094 0.0
0.0525634 -0.0525634 0.0
-0.0525634 0.0525634 0.0
-1.95775 0.0422461 0.0
1.95775 -0.0422461 0.0
1.8785 -0.0370065 0.0
1.8093 -0.0321943 0.0
1.74909 -0.0280129 0.0
1.69659 -0.0244946 0.0
1.65056 -0.0215293 0.0
1.61002 -0.0190113 0.0
1.57415 -0.0168558 0.0
1.5423 -0.0149966 0.0
1.51392 -0.0133814 0.0
1.48857 -0.011969 0.0
1.46588 -0.0107261 0.0
1.44553 -0.00962556 0.0
1.42726 -0.00864507 0.0
1.41084 -0.00776602 0.0
1.39611 -0.00697272 0.0
1.38288 -0.00625172 0.0
1.37104 -0.00559132 0.0
1.36047 -0.00498118 0.0
1.35107 -0.00441195 0.0
1.34279 -0.00387501 0.0
1.33555 -0.00336218 0.0
1.32932 -0.00286551 0.0
1.32408 -0.00237704 0.0
1.31981 -0.00188856 0.0
1.31653 -0.00139143 0.0
1.31427 -0.000876267 0.0
1.31306 -0.00033271 0.0
1.31297 0.000250877 0.0
1.31411 0.000887748 0.0
1.31659 0.00159315 0.0
1.32057 0.00238472 0.0
1.32624 0.003283 0.0
1.33383 0.00431188 0.0
1.34365 0.00549913 0.0
1.35602 0.00687695 0.0
1.37138 0.00848241 0.0
1.39022 0.0103578 0.0
1.41313 0.0125506 0.0
1.44079 0.0151134 0.0
1.47401 0.0181027 0.0
1.51369 0.0215775 0.0
1.56086 0.0255952 0.0
1.61666 0.0302064 0.0
1.68231 0.0354391 0.0
1.759 0.0412529 0.0
1.84756 0.0473094 0.0
1.94744 0.0525634 0.0
-1.94744 -0.0525634 0.0
