# vtk DataFile Version 3.0
DroneCFD Output
ASCII
DATASET STRUCTURED_POINTS
DIMENSIONS 50 50 1
ORIGIN 0 0 0
SPACING 0.02 0.02 1
POINT_DATA 2500
SCALARS pressure double 1
LOOKUP_TABLE default
0
0
-0.000756302
-0.000810863
-0.000684183
-0.000491062
-0.000251223
2.96307e-05
0.000347651
0.000699471
0.00108205
0.00149261
0.00192864
0.00238782
0.002868
0.00336722
0.00388363
0.00441551
0.00496123
0.00551924
0.00608806
0.00666625
0.00725241
0.00784516
0.00844313
0.00904493
0.00964917
0.0102544
0.0108592
0.011462
0.0120611
0.0126549
0.0132415
0.0138189
0.0143852
0.0149379
0.0154746
0.0159927
0.0164891
0.0169607
0.0174039
0.0178147
0.018189
0.018522
0.0188083
0.0190407
0.0191968
0.0191558
0.0183701
0.0183701
0
0
-0.000756302
-0.000810863
-0.000684183
-0.000491062
-0.000251223
2.96307e-05
0.000347651
0.000699471
0.00108205
0.00149261
0.00192864
0.00238782
0.002868
0.00336722
0.00388363
0.00441551
0.00496123
0.00551924
0.00608806
0.00666625
0.00725241
0.00784516
0.00844313
0.00904493
0.00964917
0.0102544
0.0108592
0.011462
0.0120611
0.0126549
0.0132415
0.0138189
0.0143852
0.0149379
0.0154746
0.0159927
0.0164891
0.0169607
0.0174039
0.0178147
0.018189
0.018522
0.0188083
0.0190407
0.0191968
0.0191558
0.0183701
0.0183701
0.00059257
0.00059257
-0.000169613
-0.000224452
-0.000100952
8.48749e-05
0.000313519
0.000579663
0.000879836
0.00121102
0.00157048
0.00195575
0.00236454
0.00279478
0.00324454
0.00371204
0.0041956
0.00469364
0.00520468
0.0057273
0.00626012
0.00680182
0.00735109
0.00790664
0.00846719
0.00903146
0.00959812
0.0101658
0.0107332
0.0112988
0.0118612
0.0124186
0.0129695
0.0135119
0.014044
0.0145636
0.0150685
0.0155561
0.0160238
0.0164686
0.0168872
0.0172761
0.0176313
0.0179485
0.0182228
0.0184472
0.0185998
0.0185582
0.0177659
0.0177659
0.000663568
0.000663568
-0.00011071
-0.000165521
-4.0811e-05
0.000145886
0.000374859
0.000640774
0.000940172
0.00127005
0.00162772
0.00201072
0.00241682
0.00284397
0.00329029
0.00375402
0.00423353
0.00472728
0.00523381
0.00575174
0.00627972
0.00681647
0.00736071
0.00791119
0.00846665
0.00902583
0.00958746
0.0101502
0.0107127
0.0112737
0.0118314
0.0123845
0.0129313
0.0134699
0.0139985
0.014515
0.0150172
0.0155025
0.0159683
0.0164118
0.0168296
0.0172182
0.0175737
0.0178918
0.0181675
0.0183937
0.0185484
0.0185072
0.0177017
0.0177017
0.000628337
0.000628337
-0.00016096
-0.000214564
-8.62996e-05
0.000104049
0.000336471
0.000605595
0.000907956
0.00124056
0.00160072
0.00198601
0.00239419
0.00282325
0.00327132
0.00373665
0.00421764
0.00471278
0.00522061
0.00573978
0.00626896
0.00680687
0.00735227
0.00790391
0.00846057
0.00902099
0.00958392
0.0101481
0.0107121
0.0112746
0.0118341
0.0123891
0.012938
0.0134789
0.01401
0.0145293
0.0150344
0.015523
0.0159924
0.0164397
0.0168617
0.0172548
0.0176151
0.0179382
0.0182191
0.0184507
0.0186103
0.018571
0.0177488
0.0177488
0.000558307
0.000558307
-0.000248747
-0.000300418
-0.000167048
2.86031e-05
0.000266127
0.000540102
0.000847058
0.00118401
0.00154828
0.00193744
0.00234931
0.00278187
0.00323326
0.00370179
0.00418586
0.00468397
0.00519471
0.00571672
0.00624872
0.00678943
0.00733763
0.0078921
0.00845163
0.00901499
0.00958094
0.0101482
0.0107155
0.0112814
0.0118445
0.0124033
0.0129561
0.0135012
0.0140368
0.0145608
0.015071
0.015565
0.0160401
0.0164935
0.0169218
0.0173217
0.017689
0.0180194
0.0183078
0.018547
0.0187135
0.0186772
0.017835
0.017835
0.000462155
0.000462155
-0.000365521
-0.000414507
-0.000274518
-7.20119e-05
0.000172113
0.000452381
0.000765318
0.00110795
0.00147761
0.0018719
0.00228865
0.00272587
0.00318175
0.00365459
0.00414283
0.004645
0.00515972
0.00568565
0.00622152
0.0067661
0.00731818
0.00787656
0.00844006
0.00900747
0.00957759
0.0101492
0.0107209
0.0112914
0.0118594
0.0124232
0.0129814
0.0135321
0.0140737
0.014604
0.0151208
0.0156218
0.0161044
0.0165657
0.0170024
0.017411
0.0177874
0.0181273
0.0184254
0.0186743
0.0188499
0.0188174
0.0179519
0.0179519
0.000340445
0.000340445
-0.000510871
-0.000556304
-0.000408095
-0.000197129
5.51274e-05
0.00034314
0.00066344
0.00101307
0.00138938
0.00179001
0.00221281
0.00265583
0.00311727
0.0035955
0.00408896
0.00459622
0.00511593
0.00564679
0.00618754
0.006737
0.00729397
0.00785729
0.0084258
0.00899833
0.00957368
0.0101507
0.010728
0.0113043
0.0118783
0.0124485
0.0130133
0.0135711
0.01412
0.0146581
0.0151832
0.015693
0.0161848
0.0166558
0.0171027
0.017522
0.0179097
0.0182612
0.0185713
0.0188322
0.0190191
0.0189917
0.0180992
0.0180992
0.000192808
0.000192808
-0.000685305
-0.000726167
-0.000568021
-0.000346905
-8.49329e-05
0.000212315
0.000541384
0.00089934
0.00128358
0.00169176
0.00212177
0.00257171
0.00303982
0.00352449
0.00402421
0.00453759
0.00506331
0.00560009
0.00614673
0.00670207
0.00726494
0.00783421
0.00840877
0.00898746
0.00956913
0.0101526
0.0107366
0.01132
0.0119013
0.0124791
0.0130518
0.013618
0.0141757
0.0147231
0.0152581
0.0157782
0.016281
0.0167636
0.0172227
0.0176549
0.018056
0.0184214
0.0187458
0.0190212
0.0192217
0.0192007
0.0182775
0.0182775
1.86817e-05
1.86817e-05
-0.000889499
-0.000924602
-0.000754662
-0.000521612
-0.00024827
5.97497e-05
0.000399026
0.000766667
0.00116011
0.00157706
0.00201547
0.00247345
0.00294932
0.00344149
0.00394851
0.00446903
0.00500175
0.00554546
0.00609899
0.0066612
0.00723098
0.00780722
0.00838885
0.00897476
0.00956382
0.0101549
0.0107468
0.0113383
0.0119281
0.0125147
0.0130968
0.0136727
0.0142408
0.014799
0.0153454
0.0158776
0.0163932
0.0168893
0.0173626
0.0178097
0.0182265
0.0186082
0.0189494
0.0192419
0.0194585
0.0194457
0.0184877
0.0184877
-0.000182632
-0.000182632
-0.00112424
-0.00115219
-0.000968448
-0.000721568
-0.000435127
-0.000114746
0.000236212
0.000614915
0.00101886
0.00144582
0.00189378
0.00236094
0.00284565
0.00334638
0.00386174
0.00439041
0.00493115
0.00548279
0.00604419
0.00661428
0.00719196
0.0077762
0.00836593
0.0089601
0.00955763
0.0101574
0.0107583
0.0113591
0.0119586
0.0125554
0.0131481
0.0137352
0.014315
0.0148856
0.015445
0.0159911
0.0165213
0.0170328
0.0175225
0.0179867
0.0184215
0.018822
0.0191827
0.0194951
0.0197307
0.0197277
0.0187308
0.0187308
-0.00041197
-0.00041197
-0.00139044
-0.00140961
-0.00120986
-0.000947138
-0.000645783
-0.000311393
5.27595e-05
0.000443927
0.000859688
0.00129789
0.00175659
0.00223406
0.0027287
0.00323905
0.00376377
0.00430161
0.00485137
0.00541193
0.0059822
0.00656115
0.00714775
0.00774099
0.00833985
0.00894334
0.0095504
0.01016
0.010771
0.0113824
0.0119928
0.012601
0.0132057
0.0138053
0.0143983
0.0149828
0.015557
0.0161187
0.0166653
0.0171943
0.0177024
0.0181861
0.0186413
0.0190633
0.0194463
0.0197815
0.0200391
0.0200482
0.0190081
0.0190081
-0.000670309
-0.000670309
-0.00168908
-0.00169759
-0.00147946
-0.00119873
-0.000880554
-0.000530444
-0.000151543
0.00025352
0.000682427
0.00113312
0.00160374
0.00209264
0.0025983
0.00311933
0.00365445
0.00420246
0.00476224
0.00533271
0.00591285
0.00650167
0.00709818
0.00770143
0.00831046
0.00892431
0.00954199
0.0101625
0.0107848
0.0114079
0.0120304
0.0126514
0.0132693
0.0138829
0.0144906
0.0150907
0.0156813
0.0162603
0.0168253
0.0173738
0.0179025
0.018408
0.0188863
0.0193325
0.0197408
0.0201022
0.0203852
0.0204087
0.0193211
0.0193211
-0.000958781
-0.000958781
-0.00202128
-0.00201693
-0.00177781
-0.00147679
-0.00113979
-0.000772185
-0.000376935
4.34822e-05
0.000486883
0.000951323
0.00143506
0.00193653
0.00245429
0.00298705
0.00353359
0.00409279
0.00466359
0.00524496
0.00583596
0.00643563
0.00704305
0.00765733
0.00827756
0.00890283
0.00953222
0.0101648
0.0107995
0.0114354
0.0120714
0.0127063
0.013339
0.013968
0.0145919
0.0152091
0.0158177
0.0164159
0.0170013
0.0175714
0.0181231
0.0186529
0.0191569
0.0196303
0.0200672
0.0204581
0.0207703
0.0208111
0.0196715
0.0196715
-0.00127868
-0.00127868
-0.00238825
-0.00236851
-0.00210558
-0.00178182
-0.00142388
-0.00103693
-0.000623688
-0.000186427
0.000272833
0.000752291
0.00125033
0.00176549
0.00229645
0.00284199
0.00340098
0.00397238
0.00455518
0.00514846
0.00575129
0.00636282
0.00698217
0.00760849
0.00824096
0.0088787
0.00952087
0.0101666
0.0108149
0.0114649
0.0121155
0.0127657
0.0134144
0.0140602
0.0147019
0.0153378
0.0159664
0.0165856
0.0171934
0.0177872
0.0183642
0.018921
0.0194536
0.0199572
0.0204261
0.0208505
0.0211958
0.0212572
0.0200613
0.0200613
-0.00163146
-0.00163146
-0.00279129
-0.00275327
-0.00246345
-0.00211434
-0.00173325
-0.00132503
-0.000892104
-0.000436482
4.00199e-05
0.000535774
0.00104931
0.00157931
0.00212455
0.00268392
0.00325638
0.00384097
0.00443679
0.00504295
0.00565862
0.00628299
0.00691527
0.00755467
0.00820041
0.00885169
0.00950773
0.0101677
0.0108308
0.011496
0.0121626
0.0128294
0.0134955
0.0141596
0.0148206
0.0154769
0.0161271
0.0167693
0.0174015
0.0180214
0.0186261
0.0192125
0.0197767
0.020314
0.0208186
0.0212805
0.0216634
0.0217492
0.0204925
0.0204925
-0.00201879
-0.00201879
-0.00323182
-0.00317219
-0.00285216
-0.00247492
-0.00206835
-0.00163688
-0.00118252
-0.000706991
-0.000211847
0.000301489
0.000831727
0.00137769
0.00193829
0.00251254
0.0030995
0.0036983
0.00430811
0.00492815
0.00555766
0.00619588
0.0068421
0.0074956
0.00815565
0.00882155
0.00949257
0.0101679
0.0108469
0.0115287
0.0122124
0.0128972
0.0135821
0.014266
0.0149478
0.0156262
0.0162998
0.0169669
0.0176257
0.018274
0.0189091
0.019528
0.020127
0.0207015
0.0212456
0.0217495
0.0221749
0.0222894
0.0209677
0.0209677
-0.00244251
-0.00244251
-0.00371132
-0.00362632
-0.00327248
-0.00286418
-0.00242969
-0.00197289
-0.00149532
-0.000998303
-0.000483102
4.9112e-05
0.000597252
0.00116031
0.00173736
0.00232753
0.00293001
0.00354402
0.00416884
0.00480375
0.00544808
0.00610117
0.00676235
0.00743098
0.00810642
0.00878801
0.00947511
0.010167
0.0108631
0.0115626
0.0122648
0.0129689
0.013674
0.0143792
0.0150834
0.0157857
0.0164845
0.0171786
0.0178662
0.0185453
0.0192134
0.0198678
0.0205048
0.0211203
0.0217083
0.022259
0.0227321
0.0228801
0.0214897
0.0214897
-0.00290471
-0.00290471
-0.00423137
-0.00411672
-0.00372522
-0.00328275
-0.00281779
-0.00233353
-0.00183091
-0.00131081
-0.000774122
-0.000221729
0.000345518
0.000926813
0.00152139
0.00212853
0.00274755
0.00337778
0.0040186
0.00466939
0.00532955
0.00599851
0.00667568
0.00736049
0.00805238
0.00875076
0.00945507
0.0101647
0.0108791
0.0115976
0.0123195
0.0130442
0.013771
0.014499
0.0152274
0.0159552
0.0166812
0.0174043
0.0181229
0.0188353
0.0195393
0.0202323
0.020911
0.0215713
0.0222078
0.0228103
0.0233369
0.023524
0.0220613
0.0220613
-0.0034077
-0.0034077
-0.00479363
-0.0046445
-0.00421121
-0.00373131
-0.00323324
-0.00271931
-0.00218977
-0.00164496
-0.00108534
-0.000511459
7.61006e-05
0.000676762
0.00128995
0.00191511
0.00255169
0.00319915
0.00385697
0.00452464
0.00520165
0.00588751
0.00658171
0.00728377
0.00799319
0.00870948
0.00943214
0.0101607
0.0108946
0.0116333
0.0123764
0.0131231
0.013873
0.0146254
0.0153795
0.0161347
0.0168899
0.0176441
0.0183961
0.0191444
0.0198871
0.020622
0.0213461
0.0220555
0.0227452
0.0234051
0.0239914
0.0242239
0.0226862
0.0226862
-0.00395409
-0.00395409
-0.00539979
-0.00521078
-0.00473133
-0.00421058
-0.00367664
-0.00313078
-0.00257241
-0.00200123
-0.00141723
-0.000820561
-0.000211484
0.000409675
0.00104255
0.00168677
0.00234194
0.00300764
0.00368348
0.00436905
0.00506394
0.00576774
0.00648003
0.00720041
0.00792847
0.0086638
0.00940598
0.0101546
0.0109093
0.0116696
0.012435
0.0132053
0.0139798
0.0147581
0.0155398
0.0163241
0.0171104
0.017898
0.0186858
0.0194727
0.0202573
0.0210375
0.0218108
0.0225739
0.023322
0.024045
0.0246978
0.0249826
0.023368
0.023368
-0.00454676
-0.00454676
-0.00605162
-0.00581669
-0.00528645
-0.0047213
-0.00414866
-0.00356854
-0.0029794
-0.00238021
-0.00177036
-0.00114959
-0.000517793
0.000124993
0.000778641
0.00144297
0.00211775
0.00280272
0.0034976
0.0042021
0.00491591
0.0056387
0.00637017
0.00710998
0.00785781
0.00861333
0.00937623
0.0101462
0.0109229
0.0117061
0.0124954
0.0132905
0.0140912
0.0148971
0.015708
0.0165234
0.0173429
0.018166
0.0189922
0.0198206
0.0206501
0.0214793
0.022306
0.0231275
0.0239393
0.0247319
0.0254582
0.0258033
0.0241111
0.0241111
-0.00518894
-0.00518894
-0.00675089
-0.00646335
-0.00587746
-0.00526425
-0.00465
-0.00403327
-0.00341139
-0.0027825
-0.00214536
-0.00149918
-0.00084346
-0.000177923
0.000497572
0.00118306
0.00187848
0.00258375
0.00329871
0.00402319
0.00475698
0.00549986
0.0062516
0.00701198
0.00778073
0.00855765
0.00934249
0.010135
0.0109351
0.0117425
0.0125571
0.0133786
0.0142071
0.0150423
0.0158841
0.0167325
0.0175873
0.0184484
0.0193156
0.0201883
0.0210661
0.021948
0.0228325
0.0237174
0.0245987
0.0254673
0.0262749
0.0266889
0.02492
0.02492
-0.00588424
-0.00588424
-0.00749938
-0.00715183
-0.00650525
-0.00584021
-0.0051814
-0.00452566
-0.00386908
-0.00320883
-0.00254293
-0.00187004
-0.00118921
-0.000499802
0.000198616
0.00090631
0.00162343
0.00235004
0.00308613
0.00383166
0.00458652
0.0053506
0.00612376
0.00690586
0.00769675
0.00849629
0.00930435
0.0101208
0.0109456
0.0117786
0.0126199
0.0134694
0.0143272
0.0151934
0.0160681
0.0169515
0.0178439
0.0187453
0.0196561
0.0205763
0.0215059
0.0224445
0.0233913
0.0243447
0.0253016
0.0262531
0.0271501
0.0276427
0.0258
0.0258
-0.00663669
-0.00663669
-0.00829889
-0.00788319
-0.00717069
-0.00645003
-0.00574366
-0.00504653
-0.00435327
-0.00365999
-0.0029639
-0.00226301
-0.00155588
-0.000841482
-0.000119063
0.000611898
0.00135176
0.00210078
0.00285908
0.00362675
0.00440381
0.00519023
0.005986
0.00679104
0.00760531
0.00842875
0.00926134
0.0101031
0.010954
0.0118141
0.0126836
0.0135627
0.0144515
0.0153505
0.01626
0.0171805
0.0181126
0.019057
0.0200142
0.020985
0.0219699
0.0229693
0.0239832
0.0250107
0.0260494
0.0270912
0.0280859
0.0286679
0.0267569
0.0267569
-0.00745079
-0.00745079
-0.00915113
-0.00865838
-0.00787466
-0.00709453
-0.00633764
-0.00559672
-0.00486483
-0.00413687
-0.00340917
-0.00267901
-0.00194442
-0.00120391
-0.00045642
0.000298873
0.00106255
0.00183505
0.00261667
0.00340761
0.00420803
0.005018
0.00583759
0.00666685
0.00750579
0.00835449
0.00921299
0.0100814
0.0109599
0.0118487
0.012748
0.0136582
0.0145799
0.0155135
0.0164598
0.0174195
0.0183938
0.0193836
0.0203902
0.0214148
0.0224589
0.0235235
0.0246093
0.0257166
0.0268438
0.0279833
0.0290847
0.0297677
0.0277972
0.0277972
-0.00833161
-0.00833161
-0.0100578
-0.00947831
-0.00861799
-0.00777459
-0.00696423
-0.00617718
-0.00540474
-0.0046405
-0.00387979
-0.00311911
-0.00235589
-0.00158819
-0.000814544
-3.38448e-05
0.000754737
0.00155183
0.0023579
0.00317329
0.00399828
0.00483305
0.00567776
0.00653255
0.00739755
0.0082729
0.00915877
0.0100554
0.010963
0.011882
0.0128128
0.013756
0.0147123
0.0156824
0.0166675
0.0176688
0.0186876
0.0197256
0.0207846
0.0218666
0.0229736
0.0241078
0.0252709
0.0264638
0.0276861
0.0289312
0.0301484
0.0309452
0.0289279
0.0289279
-0.00928483
-0.00928483
-0.0110203
-0.0103437
-0.00940146
-0.00849109
-0.00762438
-0.00678892
-0.00597408
-0.00517201
-0.00437693
-0.00358452
-0.00279155
-0.00199556
-0.00119468
-0.000387487
0.000427103
0.00124993
0.00208163
0.0029227
0.00377352
0.00463441
0.0055056
0.00638734
0.00727984
0.00818335
0.00909813
0.0100245
0.0109629
0.0119138
0.0128779
0.0138558
0.0148486
0.0158574
0.0168835
0.0179286
0.0189945
0.0200835
0.0211981
0.0223409
0.023515
0.0247234
0.0259689
0.0272537
0.0285781
0.0299365
0.0312789
0.0322034
0.030157
0.030157
-0.0103169
-0.0103169
-0.0120403
-0.0112553
-0.0102258
-0.00924489
-0.00831912
-0.00743307
-0.00657406
-0.00573267
-0.00490193
-0.00407662
-0.00325278
-0.00242742
-0.00159824
-0.000763456
7.82768e-05
0.000928017
0.00178658
0.00265461
0.00353262
0.004421
0.00532013
0.00623031
0.00715187
0.00808513
0.00903047
0.00998833
0.0109592
0.0119439
0.012943
0.0139577
0.014989
0.0160385
0.0171079
0.0181993
0.019315
0.0204579
0.0216313
0.0228387
0.024084
0.0253715
0.0267049
0.0280876
0.0295212
0.031001
0.032478
0.0335452
0.0314934
0.0314934
-0.0114349
-0.0114349
-0.0131188
-0.0122135
-0.0110917
-0.0100369
-0.00904949
-0.00811084
-0.007206
-0.0063239
-0.00545628
-0.00459695
-0.00374118
-0.0028854
-0.00202683
-0.00116335
-0.000293306
0.000584574
0.00147129
0.00236764
0.00327425
0.00419163
0.00512024
0.00606048
0.00701276
0.00797749
0.00895515
0.0099463
0.0109516
0.0119719
0.0130081
0.0140615
0.0151336
0.0162261
0.0173411
0.0184813
0.0196496
0.0208495
0.0220851
0.0233609
0.0246818
0.0260531
0.02748
0.028967
0.0305169
0.0321259
0.0337471
0.034973
0.032947
0.032947
-0.0126472
-0.0126472
-0.0142569
-0.0132186
-0.0119998
-0.010868
-0.00981663
-0.00882353
-0.00787137
-0.00694729
-0.00604167
-0.00514727
-0.00425855
-0.00337131
-0.00248229
-0.00158897
-0.000689423
0.000217876
0.00113411
0.00206022
0.00299695
0.00394494
0.0049047
0.00587674
0.00686154
0.00785961
0.00887151
0.00989793
0.0109396
0.0119977
0.0130731
0.0141675
0.0152826
0.0164205
0.0175837
0.0187754
0.0199992
0.0212593
0.0225607
0.0239087
0.0253096
0.0267698
0.0282958
0.0298933
0.0315665
0.0333127
0.0350874
0.0364891
0.0345288
0.0345288
-0.0139631
-0.0139631
-0.0154553
-0.0142707
-0.0129505
-0.0117391
-0.0106217
-0.00957255
-0.00857177
-0.0076046
-0.00665999
-0.00572955
-0.00480693
-0.00388722
-0.00296668
-0.00204239
-0.00111209
-0.000174032
0.000773161
0.00173057
0.00269907
0.00367938
0.00467212
0.00567786
0.00669715
0.00773059
0.00877883
0.00984266
0.010923
0.012021
0.013138
0.0142758
0.0154363
0.0166222
0.0178363
0.0190824
0.0203648
0.0216884
0.0230591
0.0244835
0.0259688
0.027523
0.0291537
0.0308681
0.0326715
0.0345624
0.0364996
0.038095
0.0362512
0.0362512
-0.0153931
-0.0153931
-0.0167143
-0.0153697
-0.0139442
-0.0126509
-0.0114659
-0.0103594
-0.00930898
-0.0082978
-0.00731332
-0.00634601
-0.00538859
-0.00443548
-0.00348236
-0.00252593
-0.0015636
-0.000593369
0.000386318
0.00137669
0.00237874
0.00339326
0.00442096
0.00546247
0.00651841
0.00758946
0.00867634
0.00977995
0.0109013
0.0120418
0.0132029
0.0143866
0.0155953
0.0168319
0.0180998
0.0194034
0.0207475
0.0221381
0.0235819
0.0250868
0.0266611
0.0283142
0.0300552
0.0318927
0.0338329
0.0358756
0.0379841
0.0397921
0.038128
0.038128
-0.0169494
-0.0169494
-0.0180341
-0.0165153
-0.0149813
-0.0136045
-0.0123506
-0.0111858
-0.0100849
-0.00902902
-0.00800401
-0.00699912
-0.00600612
-0.00501869
-0.00403198
-0.00304223
-0.00204653
-0.00104265
-2.8822e-05
0.000996308
0.00203383
0.00308463
0.00414948
0.00522906
0.00632404
0.00743516
0.00856324
0.00970923
0.0108743
0.01206
0.0132679
0.0145004
0.0157602
0.0170504
0.0183753
0.0197395
0.0211488
0.0226099
0.0241308
0.0257203
0.0273883
0.0291453
0.0310021
0.0329685
0.0350518
0.037253
0.0395404
0.0415806
0.0401747
0.0401747
-0.018646
-0.018646
-0.0194141
-0.0177068
-0.0160618
-0.0146004
-0.013277
-0.0120534
-0.0109016
-0.00980063
-0.00873464
-0.00769163
-0.00666238
-0.00563982
-0.00461851
-0.00359426
-0.00256382
-0.0015247
-0.000474981
0.000586849
0.00166197
0.00275132
0.00385573
0.00497592
0.00611261
0.00726656
0.00843866
0.00962995
0.0108417
0.0120756
0.0133335
0.0146179
0.0159318
0.017279
0.018664
0.0200923
0.0215703
0.0231058
0.0247077
0.0263861
0.0281522
0.0300181
0.0319959
0.0340967
0.0363288
0.0386943
0.0411679
0.0434603
0.0424087
0.0424087
-0.0204989
-0.0204989
-0.0208534
-0.0189433
-0.017186
-0.0156396
-0.0142465
-0.0129641
-0.0117614
-0.0106152
-0.00950805
-0.00842658
-0.00736057
-0.00630216
-0.00524531
-0.00418537
-0.00311876
-0.00204275
-0.000955234
0.000145414
0.00126045
0.00239088
0.00353754
0.00470118
0.00588254
0.00708241
0.00830171
0.00954155
0.0108033
0.0120887
0.0133999
0.0147397
0.0161113
0.017519
0.0189677
0.0204637
0.0220142
0.0236279
0.0253148
0.0270863
0.0289551
0.0309346
0.0330382
0.0352785
0.0376645
0.0401993
0.042865
0.0454295
0.0448496
0.0448496
-0.0225264
-0.0225264
-0.0223504
-0.0202238
-0.0183536
-0.0167228
-0.0152606
-0.0139198
-0.0126666
-0.0114755
-0.0103273
-0.00920734
-0.00810424
-0.00700939
-0.00591612
-0.00481932
-0.00371508
-0.00260041
-0.00147305
-0.000331277
0.00082624
0.00200053
0.00319244
0.00440271
0.00563208
0.00688135
0.00815143
0.00944347
0.0107589
0.0120997
0.013468
0.0148669
0.0163
0.017772
0.0192883
0.0208559
0.0224828
0.0241787
0.0259547
0.0278235
0.0297992
0.0318967
0.0341307
0.0365148
0.039059
0.041767
0.0446293
0.0474859
0.0475192
0.0475192
-0.0247502
-0.0247502
-0.0239029
-0.0215469
-0.0195645
-0.0178506
-0.0163205
-0.0149226
-0.0136198
-0.0123846
-0.0111959
-0.0100376
-0.0088973
-0.00776557
-0.0066351
-0.0055003
-0.00435692
-0.00320175
-0.00203235
-0.000846917
0.000355913
0.00157717
0.00281769
0.00407818
0.00535932
0.00666189
0.00798679
0.00933518
0.0107085
0.0121088
0.0135385
0.0150008
0.0164996
0.01804
0.0196281
0.0212714
0.0229788
0.0247609
0.0266301
0.0286004
0.0306871
0.0329065
0.0352748
0.0378065
0.040512
0.0433957
0.0464578
0.0496254
0.0504422
0.0504422
-0.027195
-0.027195
-0.0255079
-0.0229112
-0.0208184
-0.0190238
-0.0174279
-0.0159746
-0.0146238
-0.0133457
-0.0121174
-0.0109213
-0.00974403
-0.0085752
-0.00740688
-0.00623299
-0.00504896
-0.00385132
-0.00263752
-0.00140566
-0.000154388
0.00111731
0.00241021
0.00372494
0.00506212
0.00642243
0.00780673
0.00921613
0.0106521
0.0121167
0.0136125
0.0151429
0.0167121
0.0183255
0.0199898
0.0217131
0.0235053
0.0253778
0.0273443
0.0294198
0.0316213
0.0339662
0.036472
0.0391539
0.0420228
0.0450834
0.0483464
0.0518426
0.0536463
0.0536463
-0.0298899
-0.0298899
-0.0271615
-0.0243149
-0.0221151
-0.020243
-0.0185842
-0.017078
-0.0156815
-0.0143623
-0.0130957
-0.0118629
-0.0106491
-0.00944321
-0.00823655
-0.00702258
-0.00579636
-0.00455422
-0.00329347
-0.00201217
-0.000708989
0.000617028
0.00196654
0.00334008
0.00473811
0.00616121
0.0076101
0.00908583
0.0105898
0.0121241
0.0136914
0.015295
0.0169397
0.0186312
0.0203765
0.0221845
0.0240658
0.026033
0.0281006
0.0302851
0.0326045
0.0350779
0.0377235
0.0405572
0.0435901
0.0468272
0.0502903
0.0541303
0.0571625
0.0571625
-0.0328688
-0.0328688
-0.028859
-0.0257563
-0.0234543
-0.0215089
-0.019791
-0.0182353
-0.0167958
-0.015438
-0.0141352
-0.012867
-0.0116176
-0.010375
-0.00912972
-0.00787478
-0.00660488
-0.00531611
-0.00400569
-0.00267166
-0.00131273
7.1924e-05
0.00148283
0.00292032
0.00438469
0.00587629
0.0073957
0.00894379
0.0105219
0.0121319
0.0137766
0.0154595
0.0171853
0.0189602
0.0207918
0.0226894
0.0246644
0.0267303
0.0289027
0.0311995
0.0336397
0.0362435
0.0390303
0.0420163
0.0452123
0.0486234
0.0522835
0.0564793
0.0610258
0.0610258
-0.0361714
-0.0361714
-0.0305943
-0.0272338
-0.0248356
-0.0228224
-0.0210499
-0.0194488
-0.0179701
-0.0165767
-0.0152402
-0.0139387
-0.0126551
-0.0113764
-0.0100925
-0.00879588
-0.00748084
-0.00614327
-0.00478029
-0.00338995
-0.00197105
-0.00052292
0.000954734
0.002462
0.00399891
0.00556554
0.00716219
0.0087895
0.0104486
0.0121412
0.0138701
0.0156387
0.017452
0.0193163
0.0212396
0.0232319
0.0253052
0.0274739
0.0297548
0.0321666
0.0347297
0.0374652
0.0403932
0.0435304
0.0468871
0.050468
0.0543194
0.0588784
0.0652752
0.0652752
-0.0398447
-0.0398447
-0.0323604
-0.0287458
-0.0262592
-0.0241844
-0.0223631
-0.0207215
-0.0192079
-0.0177828
-0.0164159
-0.0150836
-0.0137677
-0.0124541
-0.0111319
-0.00979312
-0.00843159
-0.007043
-0.00562439
-0.00417385
-0.00269032
-0.00117334
0.000377086
0.00196072
0.00357722
0.00522628
0.00690784
0.00862216
0.0103701
0.0121531
0.0139737
0.0158354
0.0177431
0.0197033
0.0217243
0.0238167
0.025993
0.0282686
0.0306611
0.0331903
0.0358777
0.0387452
0.0418136
0.0450995
0.0486126
0.0523571
0.0563918
0.0613152
0.0699561
0.0699561
-0.043947
-0.043947
-0.0341519
-0.0302947
-0.0277289
-0.0255999
-0.0237364
-0.0220605
-0.0205175
-0.0190656
-0.0176724
-0.0163127
-0.0149671
-0.0136203
-0.0122607
-0.0108795
-0.0094702
-0.00802833
-0.00655078
-0.00503573
-0.0034823
-0.00189033
-0.000260189
0.00140744
0.00311172
0.00485187
0.00662728
0.00843777
0.0102837
0.0121662
0.0140874
0.0160508
0.018061
0.0201247
0.0222505
0.0244493
0.0267344
0.0291218
0.0316299
0.0342797
0.0370934
0.0400939
0.0433022
0.0467349
0.0504006
0.0543024
0.0585115
0.0637939
0.0751384
0.0751384
-0.0485871
-0.0485871
-0.0360033
-0.0319267
-0.0292949
-0.0271231
-0.0252278
-0.0235272
-0.0219634
-0.0204923
-0.0190794
-0.0176977
-0.0163262
-0.0149486
-0.0135523
-0.0121279
-0.0106685
-0.0091693
-0.00762721
-0.00604053
-0.00440868
-0.00273192
-0.00101112
0.000752429
0.00255727
0.00440193
0.00628518
0.00820617
0.0101647
0.0121615
0.0141982
0.016278
0.0184056
0.0205878
0.0228333
0.0251537
0.0275629
0.0300777
0.0327176
0.0355045
0.0384616
0.0416123
0.0449777
0.0485736
0.0524064
0.0564773
0.0608667
0.0665062
0.0810934
0.0810934
-0.0543644
-0.0543644
-0.0384409
-0.0342005
-0.0315414
-0.029364
-0.0274717
-0.025777
-0.0242177
-0.022746
-0.0213248
-0.019925
-0.0185242
-0.017105
-0.0156544
-0.0141628
-0.0126235
-0.0110322
-0.00938639
-0.0076852
-0.00592893
-0.00411882
-0.00225671
-0.000344809
0.00161452
0.00361905
0.00566687
0.00775668
0.00988798
0.0120614
0.0142788
0.0165438
0.0188619
0.0212409
0.0236909
0.0262248
0.0288586
0.0316107
0.0345026
0.0375574
0.0407992
0.044251
0.0479321
0.0518538
0.0560153
0.060407
0.0651072
0.0711877
0.0896787
0.0896787
-0.0667177
-0.0667177
-0.0469238
-0.0427064
-0.0401697
-0.0381013
-0.0362765
-0.0345936
-0.0329837
-0.0313973
-0.029799
-0.0281642
-0.0264762
-0.0247242
-0.0229022
-0.0210075
-0.0190398
-0.0170006
-0.0148926
-0.012719
-0.0104834
-0.00818935
-0.00584007
-0.00343815
-0.000985357
0.00151757
0.00407113
0.00667728
0.00933966
0.0120638
0.0148573
0.0177302
0.020695
0.0237669
0.0269641
0.0303073
0.0338199
0.0375273
0.0414557
0.0456306
0.0500741
0.0548011
0.0598143
0.0650976
0.0706087
0.0762807
0.0821259
0.0892545
0.112615
0.112615
-0.129477
-0.129477
-0.104531
-0.0989887
-0.094639
-0.0903286
-0.085933
-0.0814486
-0.0768928
-0.0722889
-0.067661
-0.0630317
-0.0584206
-0.053844
-0.0493145
-0.0448412
-0.0404297
-0.0360822
-0.0317977
-0.0275719
-0.0233976
-0.0192644
-0.0151587
-0.011064
-0.00696008
-0.00282351
0.00137296
0.00566048
0.0100744
0.0146545
0.0194452
0.024496
0.0298609
0.0355991
0.0417738
0.0484516
0.0557007
0.0635885
0.0721771
0.0815173
0.0916402
0.102545
0.11418
0.126426
0.139063
0.151748
0.164091
0.176704
0.208348
0.208348
-0.498628
-0.498628
-0.423987
-0.364605
-0.316545
-0.27641
-0.242444
-0.213405
-0.188358
-0.166581
-0.147507
-0.130688
-0.115765
-0.102446
-0.0904907
-0.0797001
-0.0699058
-0.0609639
-0.0527492
-0.0451504
-0.038067
-0.0314056
-0.0250773
-0.018995
-0.013071
-0.00721483
-0.00133014
0.00468748
0.0109537
0.0175987
0.0247709
0.0326409
0.0414066
0.051298
0.062583
0.0755733
0.0906308
0.108173
0.128676
0.15268
0.180783
0.213638
0.251929
0.296347
0.34754
0.40606
0.472385
0.548035
0.63551
0.63551
-0.498628
-0.498628
-0.423987
-0.364605
-0.316545
-0.27641
-0.242444
-0.213405
-0.188358
-0.166581
-0.147507
-0.130688
-0.115765
-0.102446
-0.0904907
-0.0797001
-0.0699058
-0.0609639
-0.0527492
-0.0451504
-0.038067
-0.0314056
-0.0250773
-0.018995
-0.013071
-0.00721483
-0.00133014
0.00468748
0.0109537
0.0175987
0.0247709
0.0326409
0.0414066
0.051298
0.062583
0.0755733
0.0906308
0.108173
0.128676
0.15268
0.180783
0.213638
0.251929
0.296347
0.34754
0.40606
0.472385
0.548035
0.63551
0.63551
VECTORS velocity double
-8.07265e-05 8.07264e-05 0.0
8.07265e-05 -8.07264e-05 0.0
0.000319123 -0.00015767 0.0
0.000644086 -0.000167293 0.0
0.000974724 -0.000163346 0.0
0.00129519 -0.000157119 0.0
0.00160259 -0.000150278 0.0
0.00189595 -0.00014309 0.0
0.0021747 -0.000135654 0.0
0.00243839 -0.000128035 0.0
0.00268671 -0.000120285 0.0
0.00291944 -0.000112444 0.0
0.00313642 -0.00010454 0.0
0.00333756 -9.65969e-05 0.0
0.00352278 -8.8629e-05 0.0
0.00369206 -8.06471e-05 0.0
0.00384537 -7.26576e-05 0.0
0.00398269 -6.46636e-05 0.0
0.00410402 -5.66651e-05 0.0
0.00420934 -4.866e-05 0.0
0.00429865 -4.06445e-05 0.0
0.0043719 -3.26132e-05 0.0
0.00442908 -2.45594e-05 0.0
0.00447011 -1.64758e-05 0.0
0.00449494 -8.35418e-06 0.0
0.00450348 -1.86107e-07 0.0
0.00449563 8.03711e-06 0.0
0.00447127 1.63241e-05 0.0
0.00443026 2.4683e-05 0.0
0.00437246 3.31216e-05 0.0
0.00429769 4.16466e-05 0.0
0.00420578 5.02634e-05 0.0
0.00409654 5.89755e-05 0.0
0.00396978 6.77843e-05 0.0
0.00382531 7.66881e-05 0.0
0.00366294 8.56813e-05 0.0
0.0034825 9.47538e-05 0.0
0.00328386 0.000103889 0.0
0.00306691 0.000113064 0.0
0.00283159 0.000122246 0.0
0.00257796 0.00013139 0.0
0.00230613 0.000140438 0.0
0.00201638 0.000149313 0.0
0.00170915 0.000157917 0.0
0.00138512 0.000166109 0.0
0.00104545 0.000173559 0.0
0.000693437 0.000178457 0.0
0.000346017 0.000168963 0.0
8.85271e-05 8.85271e-05 0.0
-8.85271e-05 -8.85271e-05 0.0
8.07265e-05 -8.07264e-05 0.0
-8.07265e-05 8.07264e-05 0.0
-0.000319123 0.00015767 0.0
-0.000644086 0.000167293 0.0
-0.000974724 0.000163346 0.0
-0.00129519 0.000157119 0.0
-0.00160259 0.000150278 0.0
-0.00189595 0.00014309 0.0
-0.0021747 0.000135654 0.0
-0.00243839 0.000128035 0.0
-0.00268671 0.000120285 0.0
-0.00291944 0.000112444 0.0
-0.00313642 0.00010454 0.0
-0.00333756 9.65969e-05 0.0
-0.00352278 8.8629e-05 0.0
-0.00369206 8.06471e-05 0.0
-0.00384537 7.26576e-05 0.0
-0.00398269 6.46636e-05 0.0
-0.00410402 5.66651e-05 0.0
-0.00420934 4.866e-05 0.0
-0.00429865 4.06445e-05 0.0
-0.0043719 3.26132e-05 0.0
-0.00442908 2.45594e-05 0.0
-0.00447011 1.64758e-05 0.0
-0.00449494 8.35418e-06 0.0
-0.00450348 1.86107e-07 0.0
-0.00449563 -8.03711e-06 0.0
-0.00447127 -1.63241e-05 0.0
-0.00443026 -2.4683e-05 0.0
-0.00437246 -3.31216e-05 0.0
-0.00429769 -4.16466e-05 0.0
-0.00420578 -5.02634e-05 0.0
-0.00409654 -5.89755e-05 0.0
-0.00396978 -6.77843e-05 0.0
-0.00382531 -7.66881e-05 0.0
-0.00366294 -8.56813e-05 0.0
-0.0034825 -9.47538e-05 0.0
-0.00328386 -0.000103889 0.0
-0.00306691 -0.000113064 0.0
-0.00283159 -0.000122246 0.0
-0.00257796 -0.00013139 0.0
-0.00230613 -0.000140438 0.0
-0.00201638 -0.000149313 0.0
-0.00170915 -0.000157917 0.0
-0.00138512 -0.000166109 0.0
-0.00104545 -0.000173559 0.0
-0.000693437 -0.000178457 0.0
-0.000346017 -0.000168963 0.0
-8.85271e-05 -8.85271e-05 0.0
8.85271e-05 8.85271e-05 0.0
0.000140982 -0.000302435 0.0
-0.000140982 0.000302435 0.0
-0.000501026 0.000534402 0.0
-0.000948791 0.000563288 0.0
-0.00140172 0.000550913 0.0
-0.00184297 0.000531268 0.0
-0.00226885 0.000509409 0.0
-0.0026777 0.000486176 0.0
-0.00306829 0.000461902 0.0
-0.00343963 0.000436818 0.0
-0.00379092 0.00041111 0.0
-0.0041215 0.000384922 0.0
-0.00443082 0.000358368 0.0
-0.00471845 0.000331535 0.0
-0.00498402 0.000304489 0.0
-0.00522724 0.000277281 0.0
-0.00544785 0.000249944 0.0
-0.00564565 0.000222501 0.0
-0.00582046 0.000194966 0.0
-0.00597212 0.000167344 0.0
-0.00610049 0.000139634 0.0
-0.00620544 0.000111829 0.0
-0.00628684 8.39182e-05 0.0
-0.00634458 5.58874e-05 0.0
-0.00637853 2.77207e-05 0.0
-0.00638857 -5.99752e-07 0.0
-0.00637458 -2.90921e-05 0.0
-0.00633643 -5.77741e-05 0.0
-0.00627401 -8.66623e-05 0.0
-0.00618719 -0.000115771 0.0
-0.00607584 -0.000145111 0.0
-0.00593986 -0.000174688 0.0
-0.00577915 -0.000204502 0.0
-0.00559363 -0.000234543 0.0
-0.00538323 -0.000264794 0.0
-0.00514796 -0.000295221 0.0
-0.00488783 -0.000325777 0.0
-0.00460295 -0.000356392 0.0
-0.00429349 -0.000386975 0.0
-0.00395973 -0.000417401 0.0
-0.00360209 -0.00044751 0.0
-0.00322114 -0.000477095 0.0
-0.00281766 -0.000505892 0.0
-0.00239266 -0.000533565 0.0
-0.0019475 -0.000559651 0.0
-0.00148408 -0.000583109 0.0
-0.00100656 -0.000598445 0.0
-0.000532954 -0.000569997 0.0
-0.000150441 -0.000327496 0.0
0.000150441 0.000327496 0.0
0.000150896 -0.000594312 0.0
-0.000150896 0.000594312 0.0
-0.000532001 0.000983673 0.0
-0.00100192 0.0010317 0.0
-0.00147655 0.00101005 0.0
-0.00193884 0.000975678 0.0
-0.00238506 0.000937097 0.0
-0.00281349 0.000895766 0.0
-0.00322287 0.000852284 0.0
-0.00361217 0.000807083 0.0
-0.00398055 0.00076051 0.0
-0.0043273 0.000712844 0.0
-0.00465184 0.000664306 0.0
-0.00495369 0.000615074 0.0
-0.00523245 0.000565285 0.0
-0.00548779 0.000515046 0.0
-0.00571943 0.000464437 0.0
-0.00592714 0.000413516 0.0
-0.0061107 0.000362325 0.0
-0.00626995 0.000310889 0.0
-0.00640471 0.00025922 0.0
-0.00651484 0.000207322 0.0
-0.0066002 0.000155191 0.0
-0.00666067 0.000102815 0.0
-0.00669611 5.01798e-05 0.0
-0.00670639 -2.73231e-06 0.0
-0.0066914 -5.59399e-05 0.0
-0.00665101 -0.000109461 0.0
-0.0065851 -0.00016331 0.0
-0.00649355 -0.000217498 0.0
-0.00637625 -0.000272029 0.0
-0.0062331 -0.000326898 0.0
-0.00606402 -0.000382088 0.0
-0.00586893 -0.000437565 0.0
-0.00564782 -0.00049328 0.0
-0.00540067 -0.000549154 0.0
-0.00512756 -0.000605085 0.0
-0.0048286 -0.000660929 0.0
-0.00450399 -0.000716502 0.0
-0.00415406 -0.000771563 0.0
-0.00377924 -0.000825806 0.0
-0.00338015 -0.000878844 0.0
-0.00295758 -0.000930192 0.0
-0.00251261 -0.000979237 0.0
-0.0020466 -0.00102515 0.0
-0.0015615 -0.00106613 0.0
-0.00106153 -0.00109292 0.0
-0.000564948 -0.00104571 0.0
-0.000160653 -0.00063859 0.0
0.000160653 0.00063859 0.0
0.000153459 -0.000898667 0.0
-0.000153459 0.000898667 0.0
-0.000541204 0.00144817 0.0
-0.00101917 0.00151509 0.0
-0.00150142 0.00148354 0.0
-0.00197071 0.00143378 0.0
-0.00242333 0.00137783 0.0
-0.00285762 0.00131776 0.0
-0.00327238 0.00125443 0.0
-0.0036666 0.00118847 0.0
-0.00403947 0.00112038 0.0
-0.00439034 0.00105058 0.0
-0.00471863 0.0009794 0.0
-0.0050239 0.000907098 0.0
-0.00530576 0.000833887 0.0
-0.00556391 0.000759929 0.0
-0.00579806 0.000685353 0.0
-0.00600801 0.000610251 0.0
-0.00619354 0.000534693 0.0
-0.0063545 0.000458724 0.0
-0.00649073 0.000382373 0.0
-0.00660209 0.000305654 0.0
-0.00668843 0.000228569 0.0
-0.00674964 0.000151111 0.0
-0.00678559 7.32678e-05 0.0
-0.00679614 -4.97802e-06 0.0
-0.00678118 -8.36443e-05 0.0
-0.00674058 -0.000162748 0.0
-0.00667421 -0.000242303 0.0
-0.00658195 -0.000322314 0.0
-0.00646369 -0.00040278 0.0
-0.0063193 -0.000483684 0.0
-0.00614869 -0.000564991 0.0
-0.00595179 -0.000646645 0.0
-0.00572855 -0.000728562 0.0
-0.00547894 -0.000810622 0.0
-0.00520301 -0.000892665 0.0
-0.00490084 -0.000974476 0.0
-0.00457262 -0.00105578 0.0
-0.00421862 -0.00113622 0.0
-0.00383925 -0.00121534 0.0
-0.00343507 -0.00129259 0.0
-0.00300683 -0.00136725 0.0
-0.00255553 -0.00143844 0.0
-0.00208251 -0.00150498 0.0
-0.00158963 -0.00156428 0.0
-0.00108109 -0.00160327 0.0
-0.000575415 -0.00153761 0.0
-0.000163577 -0.00096282 0.0
0.000163577 0.00096282 0.0
0.000155863 -0.00120799 0.0
-0.000155863 0.00120799 0.0
-0.000550214 0.00192094 0.0
-0.00103644 0.00200651 0.0
-0.0015264 0.00196433 0.0
-0.0020026 0.00189848 0.0
-0.00246137 0.00182452 0.0
-0.00290115 0.00174514 0.0
-0.0033208 0.00166145 0.0
-0.00371939 0.00157426 0.0
-0.00409617 0.00148424 0.0
-0.00445052 0.00139193 0.0
-0.00478193 0.00129775 0.0
-0.00508997 0.00120206 0.0
-0.0053743 0.00110513 0.0
-0.00563465 0.00100717 0.0
-0.00587075 0.000908373 0.0
-0.00608243 0.000808848 0.0
-0.00626949 0.000708693 0.0
-0.00643178 0.000607974 0.0
-0.00656916 0.000506733 0.0
-0.0066815 0.00040499 0.0
-0.00676868 0.000302754 0.0
-0.00683056 0.00020002 0.0
-0.00686703 9.67749e-05 0.0
-0.00687796 -6.99874e-06 0.0
-0.00686322 -0.000111321 0.0
-0.00682269 -0.000216209 0.0
-0.00675622 -0.000321678 0.0
-0.00666369 -0.000427732 0.0
-0.00654495 -0.000534363 0.0
-0.0063999 -0.000641546 0.0
-0.0062284 -0.000749232 0.0
-0.00603036 -0.000857346 0.0
-0.00580569 -0.000965773 0.0
-0.00555435 -0.00107436 0.0
-0.00527633 -0.00118288 0.0
-0.00497169 -0.00129107 0.0
-0.00464056 -0.00139855 0.0
-0.00428314 -0.00150486 0.0
-0.00389979 -0.00160942 0.0
-0.003491 -0.00171149 0.0
-0.00305744 -0.00181015 0.0
-0.00260003 -0.00190425 0.0
-0.00212 -0.00199223 0.0
-0.00161914 -0.00207077 0.0
-0.00110159 -0.00212288 0.0
-0.000586194 -0.00203909 0.0
-0.000166491 -0.00129289 0.0
0.000166491 0.00129289 0.0
0.000159015 -0.00152287 0.0
-0.000159015 0.00152287 0.0
-0.000561768 0.00240317 0.0
-0.0010583 0.00250705 0.0
-0.00155785 0.0024533 0.0
-0.0020426 0.00237046 0.0
-0.00250899 0.0022777 0.0
-0.00295554 0.0021783 0.0
-0.00338123 0.00207362 0.0
-0.00378519 0.00196465 0.0
-0.00416676 0.0018522 0.0
-0.00452537 0.00173693 0.0
-0.00486057 0.00161936 0.0
-0.00517199 0.00149992 0.0
-0.00545934 0.00137895 0.0
-0.00572235 0.00125671 0.0
-0.00596083 0.00113342 0.0
-0.0061746 0.00100924 0.0
-0.00636351 0.00088427 0.0
-0.00652742 0.000758599 0.0
-0.00666621 0.000632278 0.0
-0.00677976 0.000505335 0.0
-0.00686795 0.000377777 0.0
-0.00693067 0.000249601 0.0
-0.0069678 0.000120791 0.0
-0.00697921 -8.67465e-06 0.0
-0.00696477 -0.000138821 0.0
-0.00692435 -0.00026967 0.0
-0.00685779 -0.000401238 0.0
-0.00676497 -0.000533533 0.0
-0.00664572 -0.000666545 0.0
-0.00649989 -0.000800244 0.0
-0.00632735 -0.000934573 0.0
-0.00612796 -0.00106944 0.0
-0.00590161 -0.0012047 0.0
-0.00564819 -0.00134018 0.0
-0.00536767 -0.0014756 0.0
-0.00506004 -0.00161062 0.0
-0.00472536 -0.00174481 0.0
-0.00436377 -0.0018776 0.0
-0.00397555 -0.00200826 0.0
-0.00356108 -0.00213591 0.0
-0.00312095 -0.00225942 0.0
-0.00265597 -0.00237737 0.0
-0.00216724 -0.00248786 0.0
-0.00165643 -0.0025868 0.0
-0.00112762 -0.0026532 0.0
-0.000600043 -0.00255172 0.0
-0.000170308 -0.00162969 0.0
0.000170308 0.00162969 0.0
0.000163031 -0.00184491 0.0
-0.000163031 0.00184491 0.0
-0.000576226 0.00289707 0.0
-0.00108535 0.00301881 0.0
-0.00159659 0.00295232 0.0
-0.00209177 0.00285137 0.0
-0.00256742 0.00273882 0.0
-0.00302221 0.00261853 0.0
-0.00345522 0.00249208 0.0
-0.00386571 0.00236064 0.0
-0.00425309 0.00222515 0.0
-0.00461688 0.00208638 0.0
-0.0049567 0.00194493 0.0
-0.00527223 0.0018013 0.0
-0.00556323 0.0016559 0.0
-0.00582949 0.00150904 0.0
-0.00607085 0.00136094 0.0
-0.00628717 0.00121181 0.0
-0.00647833 0.00106176 0.0
-0.00664421 0.000910896 0.0
-0.00678471 0.000759269 0.0
-0.00689972 0.00060691 0.0
-0.00698916 0.000453828 0.0
-0.0070529 0.000300011 0.0
-0.00709083 0.00014544 0.0
-0.00710282 -9.91572e-06 0.0
-0.00708875 -0.000166088 0.0
-0.00704847 -0.000323108 0.0
-0.00698182 -0.000481 0.0
-0.00688865 -0.000639775 0.0
-0.00676877 -0.000799429 0.0
-0.00662202 -0.000959932 0.0
-0.00644823 -0.00112122 0.0
-0.00624721 -0.0012832 0.0
-0.00601882 -0.0014457 0.0
-0.0057629 -0.00160851 0.0
-0.00547935 -0.00177133 0.0
-0.00516809 -0.00193377 0.0
-0.00482911 -0.00209532 0.0
-0.00446247 -0.00225531 0.0
-0.00406833 -0.00241292 0.0
-0.00364698 -0.00256708 0.0
-0.00319887 -0.00271649 0.0
-0.00272468 -0.00285948 0.0
-0.00222535 -0.00299381 0.0
-0.00170241 -0.00311461 0.0
-0.00115984 -0.00319679 0.0
-0.000617353 -0.0030782 0.0
-0.000175152 -0.00197515 0.0
0.000175152 0.00197515 0.0
0.000167954 -0.0021759 0.0
-0.000167954 0.0021759 0.0
-0.000593734 0.00340506 0.0
-0.00111785 0.00354406 0.0
-0.00164295 0.0034634 0.0
-0.00215047 0.003343 0.0
-0.00263707 0.00320945 0.0
-0.00310159 0.00306721 0.0
-0.00354325 0.00291807 0.0
-0.00396144 0.00276334 0.0
-0.00435567 0.00260407 0.0
-0.00472556 0.00244114 0.0
-0.00507081 0.00227523 0.0
-0.00539119 0.00210691 0.0
-0.00568649 0.00193661 0.0
-0.00595658 0.00176469 0.0
-0.00620134 0.00159141 0.0
-0.00642067 0.00141698 0.0
-0.00661447 0.00124154 0.0
-0.00678267 0.00106519 0.0
-0.00692518 0.000887989 0.0
-0.00704193 0.00070996 0.0
-0.00713283 0.000531108 0.0
-0.00719778 0.000351415 0.0
-0.00723666 0.000170849 0.0
-0.00724936 -1.06312e-05 0.0
-0.00723573 -0.00019307 0.0
-0.00719562 -0.000376512 0.0
-0.00712887 -0.000560992 0.0
-0.0070353 -0.000746534 0.0
-0.0069147 -0.000933141 0.0
-0.00676688 -0.00112079 0.0
-0.00659162 -0.00130942 0.0
-0.00638871 -0.00149893 0.0
-0.00615793 -0.00168914 0.0
-0.00589908 -0.00187983 0.0
-0.00561198 -0.00207066 0.0
-0.00529648 -0.00226121 0.0
-0.00495246 -0.00245089 0.0
-0.00457988 -0.00263897 0.0
-0.00417878 -0.0028245 0.0
-0.00374931 -0.00300631 0.0
-0.00329179 -0.00318289 0.0
-0.00280671 -0.00335235 0.0
-0.00229484 -0.00351213 0.0
-0.00175751 -0.00365656 0.0
-0.00119858 -0.00375633 0.0
-0.000638314 -0.00362141 0.0
-0.000181079 -0.00233138 0.0
0.000181079 0.00233138 0.0
0.000173832 -0.00251768 0.0
-0.000173832 0.00251768 0.0
-0.000614447 0.00392967 0.0
-0.00115604 0.00408515 0.0
-0.00169725 0.00398862 0.0
-0.00221909 0.00384714 0.0
-0.00271836 0.00369118 0.0
-0.00319411 0.00352575 0.0
-0.00364575 0.00335282 0.0
-0.00407281 0.00317383 0.0
-0.00447494 0.00298994 0.0
-0.00485185 0.00280209 0.0
-0.00520336 0.00261104 0.0
-0.0055293 0.00241741 0.0
-0.00582955 0.00222167 0.0
-0.00610405 0.00202421 0.0
-0.00635271 0.00182531 0.0
-0.00657548 0.00162519 0.0
-0.00677233 0.00142399 0.0
-0.0069432 0.00122181 0.0
-0.00708804 0.00101872 0.0
-0.00720679 0.000814728 0.0
-0.00729938 0.000609825 0.0
-0.00736571 0.000403982 0.0
-0.0074057 0.000197151 0.0
-0.00741921 -1.07252e-05 0.0
-0.00740611 -0.000219709 0.0
-0.00736622 -0.000429862 0.0
-0.00729938 -0.000641237 0.0
-0.00720537 -0.000853876 0.0
-0.00708397 -0.0010678 0.0
-0.00693494 -0.00128299 0.0
-0.00675802 -0.0014994 0.0
-0.00655296 -0.00171693 0.0
-0.00631947 -0.00193541 0.0
-0.00605729 -0.0021546 0.0
-0.00576614 -0.00237415 0.0
-0.00544577 -0.00259359 0.0
-0.00509598 -0.00281232 0.0
-0.00471659 -0.00302951 0.0
-0.00430749 -0.00324415 0.0
-0.00386869 -0.00345493 0.0
-0.00340031 -0.00366018 0.0
-0.00290264 -0.00385781 0.0
-0.00237624 -0.00404493 0.0
-0.00182219 -0.00421513 0.0
-0.00124421 -0.00433468 0.0
-0.000663139 -0.00418439 0.0
-0.000188153 -0.00270061 0.0
0.000188153 0.00270061 0.0
0.000180724 -0.00287224 0.0
-0.000180724 0.00287224 0.0
-0.000638551 0.00447355 0.0
-0.00120023 0.00464454 0.0
-0.00175989 0.0045301 0.0
-0.00229805 0.00436565 0.0
-0.00281175 0.00418564 0.0
-0.00330027 0.00399558 0.0
-0.00376323 0.00379759 0.0
-0.00420034 0.00359323 0.0
-0.00461139 0.00338372 0.0
-0.00499626 0.00317008 0.0
-0.00535483 0.00295312 0.0
-0.00568705 0.00273349 0.0
-0.00599289 0.00251169 0.0
-0.00627235 0.00228813 0.0
-0.00652541 0.00206311 0.0
-0.00675209 0.00183684 0.0
-0.00695237 0.00160947 0.0
-0.00712625 0.00138109 0.0
-0.00727372 0.00115175 0.0
-0.00739472 0.000921458 0.0
-0.00748923 0.000690185 0.0
-0.00755715 0.000457883 0.0
-0.0075984 0.000224483 0.0
-0.00761285 -1.00952e-05 0.0
-0.00760035 -0.000245937 0.0
-0.00756074 -0.000483127 0.0
-0.00749382 -0.000721744 0.0
-0.00739935 -0.000961852 0.0
-0.00727707 -0.00120349 0.0
-0.00712672 -0.00144667 0.0
-0.00694799 -0.00169136 0.0
-0.00674054 -0.00193747 0.0
-0.00650404 -0.00218485 0.0
-0.00623813 -0.00243325 0.0
-0.00594245 -0.00268232 0.0
-0.00561665 -0.00293159 0.0
-0.00526037 -0.00318039 0.0
-0.00487331 -0.00342789 0.0
-0.00445519 -0.00367299 0.0
-0.00400582 -0.00391426 0.0
-0.00352512 -0.00414993 0.0
-0.00301314 -0.0043777 0.0
-0.00247017 -0.00459441 0.0
-0.00189699 -0.00479287 0.0
-0.00129713 -0.00493479 0.0
-0.000692079 -0.0047704 0.0
-0.000196455 -0.00308522 0.0
0.000196455 0.00308522 0.0
0.0001887 -0.00324167 0.0
-0.0001887 0.00324167 0.0
-0.000666265 0.00503952 0.0
-0.00125078 0.00522477 0.0
-0.0018313 0.00509004 0.0
-0.00238786 0.00490044 0.0
-0.00291778 0.00469446 0.0
-0.00342062 0.00447812 0.0
-0.00389625 0.00425364 0.0
-0.00434459 0.00402263 0.0
-0.00476562 0.0037864 0.0
-0.00515934 0.00354598 0.0
-0.00552578 0.00330223 0.0
-0.00586499 0.00305582 0.0
-0.00617706 0.00280727 0.0
-0.00646203 0.00255699 0.0
-0.00671999 0.00230528 0.0
-0.006951 0.00205235 0.0
-0.0071551 0.00179834 0.0
-0.00733233 0.00154333 0.0
-0.00748272 0.00128736 0.0
-0.00760625 0.00103039 0.0
-0.00770289 0.000772397 0.0
-0.00777259 0.000513294 0.0
-0.00781526 0.000252987 0.0
-0.00783078 -8.63138e-06 0.0
-0.007819 -0.000271677 0.0
-0.00777973 -0.000536267 0.0
-0.00771275 -0.000802509 0.0
-0.00761781 -0.0010705 0.0
-0.00749462 -0.00134031 0.0
-0.00734285 -0.00161198 0.0
-0.00716214 -0.0018855 0.0
-0.0069521 -0.00216082 0.0
-0.00671232 -0.00243779 0.0
-0.00644233 -0.0027162 0.0
-0.00614167 -0.0029957 0.0
-0.00580986 -0.00327582 0.0
-0.00544641 -0.00355589 0.0
-0.00505084 -0.00383504 0.0
-0.00462268 -0.00411212 0.0
-0.00416153 -0.00438565 0.0
-0.00366704 -0.00465374 0.0
-0.00313899 -0.00491393 0.0
-0.00257734 -0.00516281 0.0
-0.00198254 -0.00539244 0.0
-0.00135783 -0.00555979 0.0
-0.000725432 -0.00538285 0.0
-0.000206076 -0.00348775 0.0
0.000206076 0.00348775 0.0
0.000197844 -0.00362821 0.0
-0.000197844 0.00362821 0.0
-0.000697842 0.00563054 0.0
-0.00130808 0.00582851 0.0
-0.00191198 0.00567072 0.0
-0.00248909 0.00545344 0.0
-0.00303706 0.00521933 0.0
-0.0035558 0.00497483 0.0
-0.00404547 0.00472223 0.0
-0.00450623 0.00446316 0.0
-0.00493826 0.00419894 0.0
-0.00534174 0.00393064 0.0
-0.00571685 0.00365912 0.0
-0.00606376 0.00338506 0.0
-0.00638266 0.00310898 0.0
-0.0066737 0.00283129 0.0
-0.00693703 0.00255227 0.0
-0.00717279 0.00227212 0.0
-0.0073811 0.00199097 0.0
-0.00756202 0.00170886 0.0
-0.00771562 0.00142581 0.0
-0.00784193 0.00114177 0.0
-0.00794094 0.000856671 0.0
-0.00801261 0.000570393 0.0
-0.00805687 0.000282812 0.0
-0.00807359 -6.21518e-06 0.0
-0.00806263 -0.000296843 0.0
-0.00802378 -0.000589225 0.0
-0.00795679 -0.00088351 0.0
-0.0078614 -0.00117983 0.0
-0.00773726 -0.00147831 0.0
-0.007584 -0.00177901 0.0
-0.0074012 -0.00208197 0.0
-0.0071884 -0.00238718 0.0
-0.00694507 -0.00269453 0.0
-0.00667068 -0.00300384 0.0
-0.00636463 -0.00331478 0.0
-0.00602628 -0.0036269 0.0
-0.005655 -0.00393955 0.0
-0.0052501 -0.00425185 0.0
-0.0048109 -0.00456265 0.0
-0.00433674 -0.00487043 0.0
-0.00382698 -0.00517321 0.0
-0.00328106 -0.00546843 0.0
-0.00269856 -0.00575246 0.0
-0.00207953 -0.00601663 0.0
-0.00142688 -0.00621296 0.0
-0.000763542 -0.00602541 0.0
-0.00021713 -0.00391095 0.0
0.00021713 0.00391095 0.0
0.000208253 -0.00403431 0.0
-0.000208253 0.00403431 0.0
-0.000733574 0.00624976 0.0
-0.00137258 0.00645853 0.0
-0.00200249 0.00627449 0.0
-0.00260238 0.00602667 0.0
-0.00317027 0.00576196 0.0
-0.00370652 0.00548719 0.0
-0.00421161 0.00520463 0.0
-0.00468598 0.00491589 0.0
-0.00513005 0.0046223 0.0
-0.00554419 0.00432489 0.0
-0.00592875 0.00402453 0.0
-0.00628405 0.00372186 0.0
-0.00661038 0.00341741 0.0
-0.00690802 0.00311154 0.0
-0.0071772 0.00280454 0.0
-0.00741814 0.00249656 0.0
-0.00763101 0.0021877 0.0
-0.00781594 0.00187799 0.0
-0.00797305 0.0015674 0.0
-0.0081024 0.00125585 0.0
-0.008204 0.000943217 0.0
-0.00827785 0.000629363 0.0
-0.00832386 0.000314114 0.0
-0.00834194 -2.71844e-06 0.0
-0.00833191 -0.000321333 0.0
-0.00829357 -0.00064193 0.0
-0.00822665 -0.000964707 0.0
-0.00813083 -0.00128985 0.0
-0.00800574 -0.00161752 0.0
-0.00785095 -0.00194785 0.0
-0.00766597 -0.00228092 0.0
-0.00745024 -0.00261677 0.0
-0.00720317 -0.00295535 0.0
-0.00692408 -0.00329651 0.0
-0.00661224 -0.00364 0.0
-0.00626687 -0.00398539 0.0
-0.00588712 -0.00433209 0.0
-0.0054721 -0.00467923 0.0
-0.00502088 -0.00502569 0.0
-0.00453249 -0.00536994 0.0
-0.00400596 -0.00570998 0.0
-0.00344034 -0.00604319 0.0
-0.00283477 -0.00636577 0.0
-0.00218878 -0.00666834 0.0
-0.0015049 -0.00689779 0.0
-0.000806806 -0.00670201 0.0
-0.000229746 -0.00435783 0.0
0.000229746 0.00435783 0.0
0.000220042 -0.0044626 0.0
-0.000220042 0.0044626 0.0
-0.000773794 0.00690054 0.0
-0.00144481 0.00711778 0.0
-0.00210347 0.00690382 0.0
-0.00272843 0.00662218 0.0
-0.00331819 0.00632411 0.0
-0.00387358 0.00601668 0.0
-0.00439548 0.00570212 0.0
-0.00488466 0.00538196 0.0
-0.0053418 0.00505744 0.0
-0.00576749 0.00472958 0.0
-0.00616227 0.00439918 0.0
-0.00652663 0.00406686 0.0
-0.006861 0.0037331 0.0
-0.00716575 0.00339824 0.0
-0.00744124 0.00306251 0.0
-0.00768776 0.00272604 0.0
-0.00790555 0.00238888 0.0
-0.00809482 0.00205102 0.0
-0.00825572 0.00171238 0.0
-0.00838836 0.00137285 0.0
-0.00849278 0.00103225 0.0
-0.008569 0.000690391 0.0
-0.00861695 0.000347055 0.0
-0.00863653 1.99778e-06 0.0
-0.00862758 -0.000345032 0.0
-0.00858986 -0.000694293 0.0
-0.00852308 -0.00104604 0.0
-0.00842689 -0.00140052 0.0
-0.00830088 -0.00175795 0.0
-0.00814454 -0.00211854 0.0
-0.00795732 -0.00248243 0.0
-0.00773857 -0.00284973 0.0
-0.00748757 -0.00322045 0.0
-0.00720354 -0.00359453 0.0
-0.00688557 -0.00397178 0.0
-0.00653271 -0.00435184 0.0
-0.0061439 -0.00473419 0.0
-0.005718 -0.00511805 0.0
-0.00525379 -0.00550232 0.0
-0.00474996 -0.00588554 0.0
-0.00420515 -0.00626573 0.0
-0.00361795 -0.00664026 0.0
-0.00298698 -0.00700524 0.0
-0.0023112 -0.00735064 0.0
-0.00159261 -0.00761797 0.0
-0.00085568 -0.00741685 0.0
-0.000244074 -0.00483165 0.0
0.000244074 0.00483165 0.0
0.00023334 -0.00491598 0.0
-0.00023334 0.00491598 0.0
-0.000818878 0.00758644 0.0
-0.00152531 0.00780932 0.0
-0.00221562 0.00756125 0.0
-0.00286803 0.00724211 0.0
-0.00348164 0.00690755 0.0
-0.00405784 0.00656483 0.0
-0.00459796 0.006216 0.0
-0.00510315 0.00586245 0.0
-0.00557438 0.00550532 0.0
-0.00601251 0.00514552 0.0
-0.00641829 0.00478379 0.0
-0.00679237 0.00442069 0.0
-0.00713534 0.00405662 0.0
-0.00744771 0.00369187 0.0
-0.00772995 0.00332661 0.0
-0.00798244 0.00296094 0.0
-0.0082055 0.00259484 0.0
-0.00839942 0.00222824 0.0
-0.00856439 0.00186103 0.0
-0.00870057 0.00149301 0.0
-0.00880804 0.00112398 0.0
-0.00888683 0.00075367 0.0
-0.00893691 0.000381806 0.0
-0.00895816 8.08441e-06 0.0
-0.00895043 -0.000367812 0.0
-0.00891346 -0.000746208 0.0
-0.00884693 -0.00112743 0.0
-0.00875046 -0.00151179 0.0
-0.00862358 -0.00189959 0.0
-0.00846571 -0.0022911 0.0
-0.00827623 -0.00268657 0.0
-0.00805438 -0.00308618 0.0
-0.00779934 -0.00349004 0.0
-0.00751014 -0.00389817 0.0
-0.00718575 -0.00431049 0.0
-0.00682499 -0.00472675 0.0
-0.00642657 -0.00514652 0.0
-0.00598906 -0.00556913 0.0
-0.00551091 -0.0059936 0.0
-0.00499043 -0.00641856 0.0
-0.00442582 -0.00684213 0.0
-0.00381512 -0.00726174 0.0
-0.00315636 -0.00767349 0.0
-0.00244779 -0.00806674 0.0
-0.00169083 -0.00837742 0.0
-0.000910679 -0.00817449 0.0
-0.000260289 -0.00533601 0.0
0.000260289 0.00533601 0.0
0.000248297 -0.00539762 0.0
-0.000248297 0.00539762 0.0
-0.000869249 0.0083113 0.0
-0.00161474 0.00853639 0.0
-0.0023397 0.00824945 0.0
-0.00302204 0.00788866 0.0
-0.00366155 0.00751412 0.0
-0.00426026 0.00713317 0.0
-0.00482003 0.00674756 0.0
-0.00534244 0.00635848 0.0
-0.00582879 0.00596688 0.0
-0.00628023 0.00557353 0.0
-0.00669774 0.00517907 0.0
-0.00708219 0.00478394 0.0
-0.00743432 0.00438847 0.0
-0.00775481 0.00399288 0.0
-0.00804422 0.00359725 0.0
-0.00830306 0.00320162 0.0
-0.00853173 0.0028059 0.0
-0.00873059 0.00240996 0.0
-0.0088999 0.0020136 0.0
-0.00903987 0.00161659 0.0
-0.00915062 0.00121863 0.0
-0.0092322 0.000819397 0.0
-0.00928459 0.000418549 0.0
-0.0093077 1.57056e-05 0.0
-0.00930134 -0.000389524 0.0
-0.00926527 -0.000797542 0.0
-0.00919913 -0.00120876 0.0
-0.00910249 -0.00162356 0.0
-0.00897482 -0.00204236 0.0
-0.00881549 -0.00246552 0.0
-0.00862377 -0.00289337 0.0
-0.00839881 -0.0033262 0.0
-0.00813962 -0.00376425 0.0
-0.00784512 -0.00420766 0.0
-0.00751406 -0.00465646 0.0
-0.00714503 -0.00511056 0.0
-0.00673648 -0.00556968 0.0
-0.00628667 -0.00603329 0.0
-0.00579367 -0.00650059 0.0
-0.00525535 -0.00697036 0.0
-0.00466938 -0.00744091 0.0
-0.00403322 -0.00790982 0.0
-0.00334416 -0.00837325 0.0
-0.00259967 -0.00882003 0.0
-0.00180044 -0.00918031 0.0
-0.000972384 -0.00897979 0.0
-0.00027859 -0.00587489 0.0
0.00027859 0.00587489 0.0
0.000265081 -0.005911 0.0
-0.000265081 0.005911 0.0
-0.000925381 0.00907917 0.0
-0.00171378 0.0093024 0.0
-0.00247656 0.00897119 0.0
-0.0031914 0.0085641 0.0
-0.00385892 0.00814571 0.0
-0.00448189 0.00772326 0.0
-0.00506276 0.00729813 0.0
-0.00560359 0.00687115 0.0
-0.00610608 0.00644305 0.0
-0.00657169 0.00601441 0.0
-0.00700167 0.00558568 0.0
-0.00739711 0.0051572 0.0
-0.00775896 0.00472918 0.0
-0.00808802 0.00430172 0.0
-0.00838502 0.00387483 0.0
-0.00865057 0.00344843 0.0
-0.00888518 0.00302237 0.0
-0.00908927 0.00259643 0.0
-0.00926319 0.00217035 0.0
-0.00940718 0.0017438 0.0
-0.00952143 0.00131641 0.0
-0.00960601 0.000887776 0.0
-0.00966092 0.000457473 0.0
-0.00968607 2.50403e-05 0.0
-0.00968128 -0.000410002 0.0
-0.00964627 -0.000848144 0.0
-0.00958068 -0.00128989 0.0
-0.00948401 -0.00173574 0.0
-0.00935569 -0.00218618 0.0
-0.009195 -0.00264171 0.0
-0.00900111 -0.00310278 0.0
-0.00877306 -0.00356981 0.0
-0.00850971 -0.00404317 0.0
-0.0082098 -0.00452315 0.0
-0.00787187 -0.00500997 0.0
-0.00749427 -0.00550369 0.0
-0.00707513 -0.00600424 0.0
-0.00661237 -0.0065113 0.0
-0.00610364 -0.00702431 0.0
-0.00554629 -0.0075423 0.0
-0.00493741 -0.00806383 0.0
-0.00427375 -0.00858673 0.0
-0.00355179 -0.00910736 0.0
-0.00276809 -0.00961411 0.0
-0.00192245 -0.0100311 0.0
-0.00104145 -0.00983804 0.0
-0.000299204 -0.00645268 0.0
0.000299204 0.00645268 0.0
0.000283887 -0.00645997 0.0
-0.000283887 0.00645997 0.0
-0.000987805 0.00989442 0.0
-0.0018232 0.0101109 0.0
-0.00262713 0.00972936 0.0
-0.00337715 0.00927078 0.0
-0.00407485 0.00880424 0.0
-0.00472386 0.0083367 0.0
-0.0053273 0.00786901 0.0
-0.00588777 0.00740157 0.0
-0.00640742 0.00693477 0.0
-0.00688805 0.00646893 0.0
-0.00733122 0.00600431 0.0
-0.00773826 0.00554106 0.0
-0.00811033 0.00507924 0.0
-0.00844843 0.00461882 0.0
-0.0087534 0.0041597 0.0
-0.009026 0.0037017 0.0
-0.00926685 0.00324455 0.0
-0.00947645 0.00278795 0.0
-0.00965523 0.00233153 0.0
-0.00980349 0.00187488 0.0
-0.00992146 0.00141754 0.0
-0.0100093 0.000959015 0.0
-0.0100669 0.000498781 0.0
-0.0100943 3.62831e-05 0.0
-0.0100913 -0.000429056 0.0
-0.0100575 -0.000897832 0.0
-0.00999267 -0.00137065 0.0
-0.00989616 -0.00184814 0.0
-0.00976736 -0.00233091 0.0
-0.00960546 -0.00281958 0.0
-0.00940952 -0.00331474 0.0
-0.00917846 -0.00381697 0.0
-0.00891099 -0.00432682 0.0
-0.00860563 -0.00484476 0.0
-0.00826071 -0.00537121 0.0
-0.00787429 -0.00590647 0.0
-0.00744417 -0.00645071 0.0
-0.00696786 -0.0070039 0.0
-0.00644253 -0.00756578 0.0
-0.00586497 -0.00813573 0.0
-0.00523159 -0.00871266 0.0
-0.00453835 -0.00929479 0.0
-0.00378079 -0.00987881 0.0
-0.0029544 -0.0104528 0.0
-0.00205795 -0.0109346 0.0
-0.00111862 -0.0107549 0.0
-0.000322391 -0.00707428 0.0
0.000322391 0.00707428 0.0
0.000304933 -0.00704879 0.0
-0.000304933 0.00704879 0.0
-0.00105711 0.0107617 0.0
-0.00194383 0.0109658 0.0
-0.00279239 0.010527 0.0
-0.00358038 0.0100112 0.0
-0.00431052 0.0094917 0.0
-0.0049874 0.00897512 0.0
-0.00561491 0.00846154 0.0
-0.00619624 0.00795083 0.0
-0.00673405 0.00744295 0.0
-0.00723054 0.00693788 0.0
-0.0076876 0.0064356 0.0
-0.00810683 0.00593605 0.0
-0.00848963 0.00543911 0.0
-0.00883717 0.00494459 0.0
-0.0091505 0.00445224 0.0
-0.00943047 0.00396174 0.0
-0.00967784 0.00347272 0.0
-0.00989322 0.00298476 0.0
-0.0100771 0.00249738 0.0
-0.0102299 0.00201006 0.0
-0.0103518 0.00152225 0.0
-0.010443 0.00103333 0.0
-0.0105036 0.000542686 0.0
-0.0105335 4.96467e-05 0.0
-0.0105324 -0.000446476 0.0
-0.0105002 -0.000946397 0.0
-0.0104363 -0.00145085 0.0
-0.0103402 -0.00196058 0.0
-0.0102111 -0.00247636 0.0
-0.0100482 -0.00299894 0.0
-0.00985038 -0.0035291 0.0
-0.00961646 -0.0040676 0.0
-0.00934497 -0.00461517 0.0
-0.0090342 -0.00517253 0.0
-0.00868223 -0.00574034 0.0
-0.00828681 -0.00631918 0.0
-0.00784537 -0.00690955 0.0
-0.00735496 -0.00751177 0.0
-0.00681222 -0.00812598 0.0
-0.00621329 -0.00875201 0.0
-0.00555382 -0.00938924 0.0
-0.00482884 -0.0100364 0.0
-0.00403285 -0.0106907 0.0
-0.0031601 -0.01134 0.0
-0.00220817 -0.0118957 0.0
-0.00120471 -0.0117366 0.0
-0.000348446 -0.00774512 0.0
0.000348446 0.00774512 0.0
0.000328465 -0.00768219 0.0
-0.000328465 0.00768219 0.0
-0.00113395 0.0116859 0.0
-0.0020766 0.0118709 0.0
-0.00297343 0.0113673 0.0
-0.0038023 0.0107878 0.0
-0.00456721 0.0102101 0.0
-0.00527383 0.00964017 0.0
-0.00592692 0.00907709 0.0
-0.00653036 0.00852006 0.0
-0.00708733 0.0079685 0.0
-0.00760051 0.00742199 0.0
-0.00807214 0.00688017 0.0
-0.00850413 0.00634271 0.0
-0.00889812 0.00580925 0.0
-0.00925552 0.00527941 0.0
-0.00957754 0.00475276 0.0
-0.00986519 0.00422884 0.0
-0.0101194 0.00370715 0.0
-0.0103408 0.00318711 0.0
-0.01053 0.00266813 0.0
-0.0106875 0.00214957 0.0
-0.0108136 0.00163075 0.0
-0.0109085 0.00111095 0.0
-0.0109722 0.000589414 0.0
-0.0110048 6.53626e-05 0.0
-0.011006 -0.000462025 0.0
-0.0109755 -0.000993596 0.0
-0.0109128 -0.00153022 0.0
-0.0108173 -0.00207281 0.0
-0.0106883 -0.00262228 0.0
-0.0105246 -0.00317958 0.0
-0.0103252 -0.00374566 0.0
-0.0100886 -0.00432151 0.0
-0.00981329 -0.0049081 0.0
-0.00949723 -0.00550642 0.0
-0.00913824 -0.00611742 0.0
-0.00873372 -0.00674205 0.0
-0.00828068 -0.00738116 0.0
-0.00777568 -0.00803556 0.0
-0.00721475 -0.00870587 0.0
-0.0065933 -0.00939249 0.0
-0.0059061 -0.0100954 0.0
-0.00514717 -0.0108141 0.0
-0.00430978 -0.0115464 0.0
-0.00338681 -0.01228 0.0
-0.00237444 -0.0129199 0.0
-0.00130063 -0.0127896 0.0
-0.000377703 -0.00847126 0.0
0.000377703 0.00847126 0.0
0.000354763 -0.00836541 0.0
-0.000354763 0.00836541 0.0
-0.00121904 0.0126725 0.0
-0.00222248 0.0128305 0.0
-0.00317141 0.0122535 0.0
-0.00404419 0.0116032 0.0
-0.00484628 0.0109617 0.0
-0.00558457 0.0103336 0.0
-0.0062648 0.00971702 0.0
-0.00689158 0.00911036 0.0
-0.00746873 0.00851233 0.0
-0.00799941 0.00792201 0.0
-0.00848627 0.00733863 0.0
-0.00893156 0.00676153 0.0
-0.0093372 0.00619006 0.0
-0.00970483 0.00562362 0.0
-0.0100359 0.00506158 0.0
-0.0103315 0.00450329 0.0
-0.0105927 0.00394808 0.0
-0.0108203 0.00339523 0.0
-0.0110151 0.00284401 0.0
-0.0111775 0.00229362 0.0
-0.011308 0.00174327 0.0
-0.0114068 0.00119209 0.0
-0.011474 0.000639207 0.0
-0.0115095 8.36836e-05 0.0
-0.0115132 -0.000475436 0.0
-0.0114848 -0.00103915 0.0
-0.0114236 -0.00160849 0.0
-0.0113291 -0.00218454 0.0
-0.0112004 -0.00276839 0.0
-0.0110363 -0.0033612 0.0
-0.0108356 -0.00396415 0.0
-0.0105967 -0.00457847 0.0
-0.0103177 -0.00520543 0.0
-0.0099966 -0.00584631 0.0
-0.00963068 -0.00650244 0.0
-0.00921704 -0.00717518 0.0
-0.00875222 -0.00786588 0.0
-0.0082322 -0.00857586 0.0
-0.00765234 -0.00930638 0.0
-0.00700722 -0.0100585 0.0
-0.00629065 -0.0108332 0.0
-0.00549546 -0.0116305 0.0
-0.00461358 -0.0124493 0.0
-0.0036363 -0.0132774 0.0
-0.00255823 -0.014013 0.0
-0.00140741 -0.0139212 0.0
-0.000410542 -0.00925951 0.0
0.000410542 0.00925951 0.0
0.00038414 -0.00910432 0.0
-0.00038414 0.00910432 0.0
-0.00131319 0.0137269 0.0
-0.00238256 0.0138489 0.0
-0.00338758 0.013189 0.0
-0.00430741 0.0124603 0.0
-0.00514919 0.0117485 0.0
-0.00592115 0.011057 0.0
-0.00663009 0.0103827 0.0
-0.00728148 0.00972284 0.0
-0.00787982 0.00907534 0.0
-0.0084288 0.00843867 0.0
-0.00893154 0.00781157 0.0
-0.00939064 0.00719299 0.0
-0.00980835 0.00658195 0.0
-0.0101866 0.00597757 0.0
-0.0105269 0.00537898 0.0
-0.0108307 0.00478533 0.0
-0.0110992 0.00419574 0.0
-0.0113333 0.00360934 0.0
-0.0115338 0.00302522 0.0
-0.0117014 0.00244244 0.0
-0.0118365 0.00186004 0.0
-0.0119394 0.00127701 0.0
-0.0120103 0.00069232 0.0
-0.0120491 0.000104885 0.0
-0.0120556 -0.000486414 0.0
-0.0120295 -0.00108274 0.0
-0.0119702 -0.00168532 0.0
-0.011877 -0.0022954 0.0
-0.011749 -0.00291431 0.0
-0.0115849 -0.00354344 0.0
-0.0113833 -0.00418421 0.0
-0.0111424 -0.00483815 0.0
-0.0108603 -0.00550686 0.0
-0.0105343 -0.00619199 0.0
-0.0101617 -0.00689531 0.0
-0.009739 -0.00761865 0.0
-0.00926228 -0.00836396 0.0
-0.00872688 -0.0091332 0.0
-0.00812739 -0.0099284 0.0
-0.00745748 -0.0107515 0.0
-0.00670984 -0.0116044 0.0
-0.00587602 -0.0124883 0.0
-0.00494639 -0.013403 0.0
-0.00391049 -0.0143368 0.0
-0.00276112 -0.015181 0.0
-0.00152619 -0.0151389 0.0
-0.000447391 -0.0101174 0.0
0.000447391 0.0101174 0.0
0.000416951 -0.00990541 0.0
-0.000416951 0.00990541 0.0
-0.00141728 0.0148552 0.0
-0.00255799 0.0149306 0.0
-0.00362327 0.0141775 0.0
-0.00459344 0.0133618 0.0
-0.00547749 0.0125728 0.0
-0.00628518 0.0118123 0.0
-0.00702446 0.0110756 0.0
-0.00770174 0.0103586 0.0
-0.00832227 0.00965841 0.0
-0.00889035 0.00897266 0.0
-0.00940959 0.00829955 0.0
-0.00988301 0.00763753 0.0
-0.0103132 0.00698527 0.0
-0.0107023 0.00634155 0.0
-0.0110522 0.00570521 0.0
-0.0113644 0.00507517 0.0
-0.0116404 0.00445033 0.0
-0.0118811 0.00382963 0.0
-0.0120876 0.00321196 0.0
-0.0122606 0.00259622 0.0
-0.0124005 0.00198127 0.0
-0.0125078 0.00136594 0.0
-0.0125825 0.000749025 0.0
-0.0126249 0.000129269 0.0
-0.0126345 -0.000494626 0.0
-0.0126111 -0.00112401 0.0
-0.0125541 -0.00176031 0.0
-0.0124627 -0.00240499 0.0
-0.0123359 -0.00305962 0.0
-0.0121722 -0.00372585 0.0
-0.0119702 -0.0044054 0.0
-0.0117279 -0.00510013 0.0
-0.011443 -0.00581201 0.0
-0.0111126 -0.00654315 0.0
-0.0107336 -0.0072958 0.0
-0.010302 -0.00807241 0.0
-0.00981334 -0.00887557 0.0
-0.00926227 -0.00970806 0.0
-0.00864249 -0.0105728 0.0
-0.00794667 -0.0114729 0.0
-0.00716625 -0.0124111 0.0
-0.00629131 -0.0133903 0.0
-0.00531051 -0.0144114 0.0
-0.00421145 -0.0154634 0.0
-0.00298485 -0.0164305 0.0
-0.00165821 -0.016451 0.0
-0.000488737 -0.0110536 0.0
0.000488737 0.0110536 0.0
0.000453595 -0.010776 0.0
-0.000453595 0.010776 0.0
-0.00153229 0.0160637 0.0
-0.00275002 0.0160806 0.0
-0.00387989 0.0152227 0.0
-0.00490381 0.0143107 0.0
-0.00583284 0.013437 0.0
-0.00667837 0.0126014 0.0
-0.00744966 0.0117971 0.0
-0.00815415 0.0110189 0.0
-0.00879789 0.0102624 0.0
-0.00938586 0.00952469 0.0
-0.00992221 0.00880311 0.0
-0.0104104 0.0080956 0.0
-0.0108534 0.00740037 0.0
-0.0112537 0.00671582 0.0
-0.0116133 0.0060405 0.0
-0.0119342 0.00537301 0.0
-0.0122178 0.00471204 0.0
-0.0124654 0.00405628 0.0
-0.012678 0.00340443 0.0
-0.0128565 0.00275518 0.0
-0.0130015 0.0021072 0.0
-0.0131133 0.00145915 0.0
-0.0131924 0.000809613 0.0
-0.0132385 0.000157163 0.0
-0.0132517 -0.000499704 0.0
-0.0132314 -0.00116255 0.0
-0.0131772 -0.00183302 0.0
-0.013088 -0.00251283 0.0
-0.0129629 -0.00320381 0.0
-0.0128003 -0.0039079 0.0
-0.0125985 -0.00462718 0.0
-0.0123552 -0.00536388 0.0
-0.0120681 -0.0061204 0.0
-0.0117338 -0.00689937 0.0
-0.0113488 -0.00770364 0.0
-0.0109086 -0.00853632 0.0
-0.0104081 -0.00940082 0.0
-0.00984112 -0.0103009 0.0
-0.00920045 -0.0112405 0.0
-0.0084776 -0.0122239 0.0
-0.00766262 -0.0132555 0.0
-0.00674398 -0.0143395 0.0
-0.00570842 -0.0154786 0.0
-0.00454139 -0.0166623 0.0
-0.0032313 -0.0177682 0.0
-0.00180487 -0.0178664 0.0
-0.000535128 -0.0120774 0.0
0.000535128 0.0120774 0.0
0.000494521 -0.0117241 0.0
-0.000494521 0.0117241 0.0
-0.00165928 0.017359 0.0
-0.00295998 0.0173037 0.0
-0.00415897 0.0163285 0.0
-0.00524018 0.0153101 0.0
-0.00621698 0.0143435 0.0
-0.00710256 0.013426 0.0
-0.00790758 0.0125488 0.0
-0.00864061 0.0117047 0.0
-0.00930859 0.0108883 0.0
-0.00991724 0.0100954 0.0
-0.0104713 0.00932276 0.0
-0.0109747 0.00856757 0.0
-0.0114309 0.00782753 0.0
-0.0118426 0.00710063 0.0
-0.0122122 0.00638503 0.0
-0.0125419 0.00567903 0.0
-0.0128333 0.00498102 0.0
-0.0130878 0.00428945 0.0
-0.0133067 0.00360278 0.0
-0.0134909 0.0029195 0.0
-0.0136412 0.00223805 0.0
-0.0137579 0.00155689 0.0
-0.0138414 0.000874394 0.0
-0.0138918 0.000188925 0.0
-0.0139088 -0.00050124 0.0
-0.0138922 -0.0011979 0.0
-0.0138412 -0.00190293 0.0
-0.0137549 -0.00261835 0.0
-0.0136321 -0.00334627 0.0
-0.0134711 -0.00408897 0.0
-0.0132702 -0.00484891 0.0
-0.0130268 -0.00562876 0.0
-0.012738 -0.00643143 0.0
-0.0124005 -0.00726013 0.0
-0.01201 -0.00811839 0.0
-0.0115616 -0.00901013 0.0
-0.0110494 -0.00993972 0.0
-0.0104664 -0.010912 0.0
-0.00980428 -0.0119322 0.0
-0.00905327 -0.0130061 0.0
-0.00820191 -0.0141397 0.0
-0.00723686 -0.015339 0.0
-0.00614277 -0.0166087 0.0
-0.00490269 -0.0179394 0.0
-0.00350251 -0.0192014 0.0
-0.00196772 -0.0193944 0.0
-0.000587183 -0.0131997 0.0
0.000587183 0.0131997 0.0
0.000540234 -0.0127588 0.0
-0.000540234 0.0127588 0.0
-0.00179943 0.0187482 0.0
-0.00318931 0.0186051 0.0
-0.00446208 0.0174989 0.0
-0.00560425 0.0163631 0.0
-0.00663173 0.0152947 0.0
-0.00755966 0.0142883 0.0
-0.0084002 0.0133322 0.0
-0.00916315 0.0124173 0.0
-0.00985642 0.0115369 0.0
-0.0104865 0.0106856 0.0
-0.0110589 0.00985902 0.0
-0.011578 0.00905382 0.0
-0.0120476 0.00826705 0.0
-0.0124709 0.00749618 0.0
-0.0128508 0.00673896 0.0
-0.0131893 0.00599334 0.0
-0.0134886 0.00525739 0.0
-0.0137503 0.00452927 0.0
-0.0139756 0.00380718 0.0
-0.0141657 0.00308937 0.0
-0.0143213 0.00237405 0.0
-0.0144431 0.00165944 0.0
-0.0145315 0.000943699 0.0
-0.0145864 0.000224948 0.0
-0.0146079 -0.000498778 0.0
-0.0145953 -0.00122953 0.0
-0.0145482 -0.00196948 0.0
-0.0144654 -0.00272091 0.0
-0.0143456 -0.00348631 0.0
-0.0141871 -0.00426832 0.0
-0.0139878 -0.00506983 0.0
-0.013745 -0.00589402 0.0
-0.0134556 -0.00674437 0.0
-0.0131155 -0.00762476 0.0
-0.0127202 -0.00853952 0.0
-0.0122641 -0.00949352 0.0
-0.0117405 -0.0104922 0.0
-0.0111413 -0.0115417 0.0
-0.0104572 -0.0126487 0.0
-0.00967689 -0.0138208 0.0
-0.00878727 -0.0150659 0.0
-0.00777297 -0.0163922 0.0
-0.00661637 -0.0178063 0.0
-0.00529791 -0.0193003 0.0
-0.00380068 -0.0207379 0.0
-0.00214845 -0.021045 0.0
-0.000645601 -0.0144325 0.0
0.000645601 0.0144325 0.0
0.000591302 -0.0138904 0.0
-0.000591302 0.0138904 0.0
-0.00195405 0.0202386 0.0
-0.00343955 0.01999 0.0
-0.0047909 0.018738 0.0
-0.00599784 0.017473 0.0
-0.00707903 0.0162934 0.0
-0.00805168 0.0151901 0.0
-0.0089296 0.0141488 0.0
-0.0097239 0.013158 0.0
-0.0104436 0.0122092 0.0
-0.0110959 0.0112958 0.0
-0.0116872 0.0104124 0.0
-0.0122223 0.0095547 0.0
-0.0127057 0.00871915 0.0
-0.0131409 0.00790263 0.0
-0.013531 0.00710242 0.0
-0.0138786 0.00631605 0.0
-0.0141859 0.00554124 0.0
-0.0144546 0.00477584 0.0
-0.0146865 0.00401776 0.0
-0.0148826 0.00326497 0.0
-0.0150439 0.00251542 0.0
-0.0151711 0.00176709 0.0
-0.0152646 0.00101788 0.0
-0.0153245 0.000265658 0.0
-0.0153508 -0.000491814 0.0
-0.0153429 -0.00125687 0.0
-0.0153003 -0.00203198 0.0
-0.0152217 -0.00281979 0.0
-0.0151058 -0.00362313 0.0
-0.0149506 -0.0044451 0.0
-0.0147539 -0.00528906 0.0
-0.0145127 -0.00615876 0.0
-0.0142235 -0.00705834 0.0
-0.0138818 -0.00799247 0.0
-0.0134825 -0.00896638 0.0
-0.0130193 -0.00998601 0.0
-0.0124846 -0.0110581 0.0
-0.0118693 -0.0121902 0.0
-0.0111626 -0.0133909 0.0
-0.0103519 -0.0146696 0.0
-0.00942203 -0.0160366 0.0
-0.00835551 -0.0175023 0.0
-0.0071322 -0.019076 0.0
-0.00572974 -0.0207515 0.0
-0.00412817 -0.0223855 0.0
-0.00234894 -0.0228288 0.0
-0.000711171 -0.0157893 0.0
0.000711171 0.0157893 0.0
0.000648368 -0.01513 0.0
-0.000648368 0.01513 0.0
-0.00212455 0.0218379 0.0
-0.00371233 0.0214641 0.0
-0.00514721 0.0200502 0.0
-0.00642285 0.0186434 0.0
-0.00756088 0.0173423 0.0
-0.00858074 0.0161338 0.0
-0.00949798 0.0150003 0.0
-0.0103251 0.0139279 0.0
-0.0110723 0.0129061 0.0
-0.0117478 0.0119268 0.0
-0.0123585 0.0109833 0.0
-0.0129101 0.0100705 0.0
-0.0134075 0.00918406 0.0
-0.0138547 0.00832013 0.0
-0.0142552 0.00747549 0.0
-0.0146118 0.00664722 0.0
-0.0149271 0.00583265 0.0
-0.0152031 0.00502925 0.0
-0.0154416 0.00423464 0.0
-0.0156438 0.00344646 0.0
-0.015811 0.0026624 0.0
-0.0159438 0.00188014 0.0
-0.0160428 0.00109733 0.0
-0.0161082 0.000311523 0.0
-0.0161398 -0.000479789 0.0
-0.0161373 -0.00127926 0.0
-0.0160999 -0.00208971 0.0
-0.0160263 -0.00291414 0.0
-0.0159152 -0.00375583 0.0
-0.0157644 -0.00461833 0.0
-0.0155714 -0.00550559 0.0
-0.0153328 -0.00642196 0.0
-0.0150449 -0.00737236 0.0
-0.0147027 -0.00836233 0.0
-0.0143003 -0.00939817 0.0
-0.0138307 -0.0104871 0.0
-0.0132853 -0.0116372 0.0
-0.0126539 -0.0128578 0.0
-0.0119243 -0.0141596 0.0
-0.0110819 -0.0155541 0.0
-0.0101097 -0.0170542 0.0
-0.00898785 -0.0186731 0.0
-0.00769341 -0.020423 0.0
-0.00620105 -0.0222994 0.0
-0.00448751 -0.0241527 0.0
-0.00257125 -0.0247571 0.0
-0.000784781 -0.0172853 0.0
0.000784781 0.0172853 0.0
0.000712155 -0.0164906 0.0
-0.000712155 0.0164906 0.0
-0.00231252 0.0235539 0.0
-0.00400941 0.0230327 0.0
-0.00553286 0.0214399 0.0
-0.00688124 0.0198777 0.0
-0.00807937 0.0184441 0.0
-0.00914903 0.0171215 0.0
-0.0101076 0.0158884 0.0
-0.0109692 0.0147284 0.0
-0.011745 0.0136286 0.0
-0.0124445 0.0125792 0.0
-0.0130752 0.0115723 0.0
-0.0136437 0.0106017 0.0
-0.0141554 0.00966197 0.0
-0.0146147 0.00874878 0.0
-0.0150257 0.00785823 0.0
-0.0153914 0.00698689 0.0
-0.0157148 0.00613163 0.0
-0.015998 0.00528956 0.0
-0.0162431 0.0044579 0.0
-0.0164517 0.00363399 0.0
-0.0166249 0.0028152 0.0
-0.0167636 0.0019989 0.0
-0.0168685 0.00118243 0.0
-0.0169397 0.000363055 0.0
-0.0169774 -0.000462083 0.0
-0.0169809 -0.00129598 0.0
-0.0169495 -0.00214182 0.0
-0.016882 -0.00300304 0.0
-0.0167767 -0.00388337 0.0
-0.0166314 -0.00478692 0.0
-0.0164432 -0.00571824 0.0
-0.0162086 -0.00668243 0.0
-0.0159232 -0.00768525 0.0
-0.0155816 -0.00873327 0.0
-0.0151772 -0.00983398 0.0
-0.014702 -0.010996 0.0
-0.0141466 -0.0122291 0.0
-0.0134992 -0.0135447 0.0
-0.0127461 -0.0149555 0.0
-0.0118708 -0.0164758 0.0
-0.0108541 -0.0181213 0.0
-0.00967355 -0.0199084 0.0
-0.00830332 -0.0218523 0.0
-0.00671488 -0.0239508 0.0
-0.00488144 -0.0260482 0.0
-0.00281767 -0.0268416 0.0
-0.000867434 -0.0189375 0.0
0.000867434 0.0189375 0.0
0.000783478 -0.0179862 0.0
-0.000783478 0.0179862 0.0
-0.00251969 0.0253948 0.0
-0.00433265 0.0247016 0.0
-0.00594979 0.0229116 0.0
-0.00737506 0.0211797 0.0
-0.00863668 0.0196019 0.0
-0.00975885 0.0181555 0.0
-0.010761 0.0168151 0.0
-0.0116586 0.0155609 0.0
-0.0124643 0.0143777 0.0
-0.0131886 0.0132538 0.0
-0.0138401 0.0121799 0.0
-0.0144259 0.0111484 0.0
-0.0149521 0.0101531 0.0
-0.0154237 0.00918866 0.0
-0.0158451 0.00825066 0.0
-0.0162199 0.00733504 0.0
-0.0165513 0.0064382 0.0
-0.0168418 0.00555678 0.0
-0.0170937 0.00468763 0.0
-0.0173086 0.00382772 0.0
-0.017488 0.00297406 0.0
-0.0176329 0.00212371 0.0
-0.017744 0.00127365 0.0
-0.0178217 0.000420813 0.0
-0.017866 -0.000438012 0.0
-0.0178763 -0.0013062 0.0
-0.0178519 -0.00218737 0.0
-0.0177915 -0.00308541 0.0
-0.0176932 -0.00400458 0.0
-0.0175546 -0.00494959 0.0
-0.0173727 -0.0059257 0.0
-0.0171434 -0.00693883 0.0
-0.0168619 -0.00799572 0.0
-0.0165223 -0.00910408 0.0
-0.0161171 -0.0102728 0.0
-0.0156374 -0.011512 0.0
-0.0150724 -0.0128335 0.0
-0.0144092 -0.0142509 0.0
-0.0136321 -0.0157795 0.0
-0.0127226 -0.0174365 0.0
-0.0116591 -0.0192408 0.0
-0.0104163 -0.0212123 0.0
-0.0089654 -0.0233696 0.0
-0.00727442 -0.025713 0.0
-0.00531284 -0.0280811 0.0
-0.00309072 -0.0290946 0.0
-0.000960259 -0.0207652 0.0
0.000960259 0.0207652 0.0
0.00086326 -0.0196329 0.0
-0.00086326 0.0196329 0.0
-0.00274797 0.027369 0.0
-0.00468405 0.0264765 0.0
-0.00640004 0.0244699 0.0
-0.00790644 0.0225531 0.0
-0.00923503 0.0208187 0.0
-0.0104126 0.0192384 0.0
-0.0114604 0.0177822 0.0
-0.0123959 0.0164268 0.0
-0.0132329 0.0151546 0.0
-0.0139831 0.0139515 0.0
-0.0146559 0.0128066 0.0
-0.0152594 0.011711 0.0
-0.0158003 0.0106575 0.0
-0.0162844 0.00963985 0.0
-0.0167163 0.00865278 0.0
-0.0171002 0.00769166 0.0
-0.0174395 0.00675231 0.0
-0.0177372 0.00583092 0.0
-0.0179958 0.00492388 0.0
-0.0182172 0.00402776 0.0
-0.018403 0.00313922 0.0
-0.0185544 0.0022549 0.0
-0.0186722 0.00137145 0.0
-0.0187569 0.00048541 0.0
-0.0188085 -0.000406818 0.0
-0.0188265 -0.00130904 0.0
-0.0188101 -0.00222532 0.0
-0.018758 -0.00316007 0.0
-0.018668 -0.00411815 0.0
-0.0185376 -0.00510495 0.0
-0.0183634 -0.0061265 0.0
-0.0181411 -0.00718967 0.0
-0.0178651 -0.00830229 0.0
-0.0175289 -0.00947338 0.0
-0.0171242 -0.0107133 0.0
-0.0166411 -0.0120342 0.0
-0.0160673 -0.01345 0.0
-0.0153883 -0.0149767 0.0
-0.0145866 -0.0166325 0.0
-0.0136416 -0.018438 0.0
-0.0125287 -0.0204156 0.0
-0.01122 -0.022589 0.0
-0.00968326 -0.0249805 0.0
-0.00788302 -0.0275932 0.0
-0.00578483 -0.0302607 0.0
-0.00339314 -0.0315289 0.0
-0.00106453 -0.0227899 0.0
0.00106453 0.0227899 0.0
0.000952547 -0.0214487 0.0
-0.000952547 0.0214487 0.0
-0.0029995 0.0294849 0.0
-0.00506575 0.0283629 0.0
-0.00688575 0.0261194 0.0
-0.00847758 0.0240018 0.0
-0.00987674 0.0220978 0.0
-0.0111126 0.0203727 0.0
-0.0122086 0.0187918 0.0
-0.0131838 0.0173279 0.0
-0.0140535 0.0159603 0.0
-0.0148306 0.0146729 0.0
-0.0155256 0.0134529 0.0
-0.0161473 0.01229 0.0
-0.0167032 0.0111755 0.0
-0.0171997 0.0101024 0.0
-0.0176422 0.00906456 0.0
-0.0180351 0.00805666 0.0
-0.0183823 0.00707391 0.0
-0.0186872 0.00611194 0.0
-0.0189525 0.00516669 0.0
-0.0191804 0.00423426 0.0
-0.0193728 0.0033109 0.0
-0.019531 0.00239285 0.0
-0.019656 0.00147634 0.0
-0.0197483 0.000557519 0.0
-0.019808 -0.000367662 0.0
-0.0198347 -0.00130347 0.0
-0.0198275 -0.00225448 0.0
-0.0197849 -0.0032257 0.0
-0.0197047 -0.00422263 0.0
-0.0195842 -0.00525141 0.0
-0.0194194 -0.00631899 0.0
-0.0192057 -0.00743327 0.0
-0.018937 -0.00860334 0.0
-0.0186059 -0.00983967 0.0
-0.0182032 -0.0111545 0.0
-0.0177177 -0.0125618 0.0
-0.0171358 -0.0140781 0.0
-0.0164412 -0.0157222 0.0
-0.0156144 -0.0175155 0.0
-0.0146321 -0.0194823 0.0
-0.0134673 -0.0216489 0.0
-0.0120887 -0.0240431 0.0
-0.0104606 -0.0266912 0.0
-0.00854419 -0.0295992 0.0
-0.00630069 -0.0325963 0.0
-0.00372798 -0.0341576 0.0
-0.00118167 -0.0250361 0.0
0.00118167 0.0250361 0.0
0.00105252 -0.0234538 0.0
-0.00105252 0.0234538 0.0
-0.00327662 0.0317509 0.0
-0.00548003 0.0303666 0.0
-0.00740914 0.0278649 0.0
-0.00909075 0.0255298 0.0
-0.0105642 0.0234424 0.0
-0.0118615 0.0215613 0.0
-0.0130082 0.019846 0.0
-0.0140251 0.0182657 0.0
-0.0149292 0.0167963 0.0
-0.0157343 0.0154192 0.0
-0.0164522 0.0141196 0.0
-0.0170927 0.0128855 0.0
-0.017664 0.0117072 0.0
-0.0181731 0.0105763 0.0
-0.0186261 0.00948598 0.0
-0.0190279 0.00842999 0.0
-0.019383 0.00740292 0.0
-0.019695 0.00639982 0.0
-0.019967 0.00541608 0.0
-0.0202015 0.00444734 0.0
-0.0204007 0.00348935 0.0
-0.020566 0.00253794 0.0
-0.0206986 0.00158889 0.0
-0.0207992 0.000637878 0.0
-0.0208679 -0.00031962 0.0
-0.0209044 -0.00128838 0.0
-0.0209076 -0.00227357 0.0
-0.020876 -0.00328082 0.0
-0.0208073 -0.00431638 0.0
-0.0206983 -0.00538724 0.0
-0.0205448 -0.00650135 0.0
-0.0203417 -0.0076678 0.0
-0.0200821 -0.00889707 0.0
-0.0197579 -0.0102013 0.0
-0.0193587 -0.0115947 0.0
-0.0188721 -0.0130937 0.0
-0.0182829 -0.0147173 0.0
-0.0175728 -0.0164876 0.0
-0.01672 -0.0184297 0.0
-0.0156989 -0.0205716 0.0
-0.0144792 -0.0229441 0.0
-0.0130264 -0.0255794 0.0
-0.0113014 -0.0285079 0.0
-0.00926157 -0.0317389 0.0
-0.00686395 -0.0350978 0.0
-0.00409857 -0.0369942 0.0
-0.0013133 -0.0275311 0.0
0.0013133 0.0275311 0.0
0.00116454 -0.0256709 0.0
-0.00116454 0.0256709 0.0
-0.00358196 0.0341753 0.0
-0.00592934 0.0324929 0.0
-0.00797258 0.0297109 0.0
-0.0097483 0.0271411 0.0
-0.0112998 0.0248561 0.0
-0.0126618 0.0228068 0.0
-0.013862 0.0209473 0.0
-0.0149228 0.0192421 0.0
-0.0158628 0.0176639 0.0
-0.0166973 0.0161912 0.0
-0.0174391 0.0148072 0.0
-0.018099 0.0134982 0.0
-0.018686 0.0122528 0.0
-0.019208 0.0110618 0.0
-0.0196715 0.00991701 0.0
-0.0200822 0.00881156 0.0
-0.020445 0.00773925 0.0
-0.020764 0.00669448 0.0
-0.0210427 0.00567207 0.0
-0.0212839 0.0046671 0.0
-0.02149 0.00367485 0.0
-0.0216628 0.00269062 0.0
-0.0218037 0.00170971 0.0
-0.0219133 0.000727299 0.0
-0.021992 -0.00026167 0.0
-0.0220393 -0.00126255 0.0
-0.0220544 -0.00228115 0.0
-0.0220354 -0.00332381 0.0
-0.0219799 -0.00439761 0.0
-0.0218844 -0.00551051 0.0
-0.0217444 -0.00667158 0.0
-0.0215538 -0.00789124 0.0
-0.0213055 -0.00918157 0.0
-0.02099 -0.0105566 0.0
-0.020596 -0.0120326 0.0
-0.0201095 -0.0136288 0.0
-0.0195136 -0.0153672 0.0
-0.0187881 -0.0172733 0.0
-0.0179086 -0.0193762 0.0
-0.0168466 -0.0217083 0.0
-0.0155688 -0.0243048 0.0
-0.0140374 -0.0272029 0.0
-0.0122096 -0.0304371 0.0
-0.010039 -0.0340202 0.0
-0.00747832 -0.0377748 0.0
-0.0045086 -0.0400523 0.0
-0.00146122 -0.0303056 0.0
0.00146122 0.0303056 0.0
0.00129012 -0.0281255 0.0
-0.00129012 0.0281255 0.0
-0.00391845 0.0367664 0.0
-0.00641636 0.0347471 0.0
-0.00857852 0.0316621 0.0
-0.0104527 0.0288398 0.0
-0.0120861 0.0263424 0.0
-0.0135161 0.0241125 0.0
-0.0147726 0.0220982 0.0
-0.0158797 0.0202593 0.0
-0.0168577 0.0185647 0.0
-0.0177231 0.0169903 0.0
-0.0184898 0.0155167 0.0
-0.0191698 0.0141285 0.0
-0.019773 0.0128127 0.0
-0.020308 0.0115588 0.0
-0.0207822 0.0103576 0.0
-0.0212018 0.00920128 0.0
-0.0215722 0.0080828 0.0
-0.0218982 0.00699587 0.0
-0.0221835 0.00593467 0.0
-0.0224315 0.0048937 0.0
-0.0226448 0.00386766 0.0
-0.0228255 0.00285134 0.0
-0.0229751 0.00183947 0.0
-0.0230946 0.000826675 0.0
-0.0231843 -0.000192686 0.0
-0.0232439 -0.00122462 0.0
-0.0232723 -0.00227563 0.0
-0.0232677 -0.00335287 0.0
-0.0232274 -0.00446436 0.0
-0.0231475 -0.00561913 0.0
-0.023023 -0.00682752 0.0
-0.0228474 -0.00810145 0.0
-0.0226124 -0.00945477 0.0
-0.0223076 -0.0109036 0.0
-0.0219205 -0.0124668 0.0
-0.0214354 -0.0141662 0.0
-0.0208336 -0.0160275 0.0
-0.0200924 -0.0180798 0.0
-0.0191851 -0.0203566 0.0
-0.01808 -0.0228949 0.0
-0.0167409 -0.0257351 0.0
-0.0151261 -0.0289189 0.0
-0.0131893 -0.0324857 0.0
-0.0108803 -0.0364512 0.0
-0.00814774 -0.0406369 0.0
-0.00496208 -0.0433456 0.0
-0.00162747 -0.0333943 0.0
0.00162747 0.0333943 0.0
0.00143103 -0.0308467 0.0
-0.00143103 0.0308467 0.0
-0.00428936 0.0395319 0.0
-0.00694394 0.0371341 0.0
-0.0092296 0.0337229 0.0
-0.0112064 0.0306299 0.0
-0.0129257 0.0279049 0.0
-0.0144272 0.0254815 0.0
-0.0157429 0.0233014 0.0
-0.016899 0.0213193 0.0
-0.017917 0.0195005 0.0
-0.0188149 0.0178177 0.0
-0.0196079 0.0162491 0.0
-0.0203089 0.0147771 0.0
-0.0209289 0.0133873 0.0
-0.0214773 0.0120677 0.0
-0.0219622 0.0108079 0.0
-0.0223907 0.00959913 0.0
-0.0227688 0.00843351 0.0
-0.0231017 0.00730394 0.0
-0.0233936 0.00620391 0.0
-0.0236485 0.00512728 0.0
-0.0238692 0.00406812 0.0
-0.0240583 0.00302061 0.0
-0.0242173 0.00197891 0.0
-0.0243476 0.000936991 0.0
-0.0244495 -0.000111431 0.0
-0.0245227 -0.00117308 0.0
-0.0245662 -0.00225527 0.0
-0.0245779 -0.00336606 0.0
-0.0245549 -0.00451449 0.0
-0.0244929 -0.00571084 0.0
-0.0243864 -0.00696685 0.0
-0.024228 -0.00829614 0.0
-0.0240086 -0.00971452 0.0
-0.0237167 -0.0112405 0.0
-0.0233381 -0.0128956 0.0
-0.0228557 -0.014705 0.0
-0.0222483 -0.0166979 0.0
-0.0214912 -0.0189077 0.0
-0.0205547 -0.0213725 0.0
-0.0194043 -0.0241344 0.0
-0.0179999 -0.027239 0.0
-0.0162967 -0.0307331 0.0
-0.0142445 -0.0346605 0.0
-0.0117896 -0.0390403 0.0
-0.00887638 -0.0436936 0.0
-0.00546344 -0.0468876 0.0
-0.00181433 -0.0368361 0.0
0.00181433 0.0368361 0.0
0.00158928 -0.033867 0.0
-0.00158928 0.033867 0.0
-0.00469838 0.042479 0.0
-0.00751523 0.0396584 0.0
-0.0099286 0.0358976 0.0
-0.0120122 0.0325157 0.0
-0.0138211 0.0295474 0.0
-0.0153977 0.0269172 0.0
-0.016776 0.0245597 0.0
-0.0179837 0.0224248 0.0
-0.019044 0.0204734 0.0
-0.0199764 0.0186751 0.0
-0.0207971 0.0170054 0.0
-0.0215202 0.0154448 0.0
-0.0221577 0.0139771 0.0
-0.02272 0.0125886 0.0
-0.0232161 0.0112679 0.0
-0.0236536 0.0100051 0.0
-0.0240393 0.00879134 0.0
-0.0243791 0.00761869 0.0
-0.0246778 0.00647987 0.0
-0.0249397 0.00536803 0.0
-0.0251681 0.00427658 0.0
-0.025366 0.00319902 0.0
-0.0255352 0.00212884 0.0
-0.0256773 0.00105933 0.0
-0.0257926 -1.65451e-05 0.0
-0.025881 -0.00110632 0.0
-0.0259414 -0.00221819 0.0
-0.0259716 -0.00336125 0.0
-0.0259682 -0.00454571 0.0
-0.0259265 -0.00578321 0.0
-0.0258404 -0.00708711 0.0
-0.0257018 -0.00847289 0.0
-0.0255004 -0.0099586 0.0
-0.0252234 -0.0115653 0.0
-0.024855 -0.0133176 0.0
-0.0243762 -0.0152443 0.0
-0.0237638 -0.0173783 0.0
-0.0229902 -0.019758 0.0
-0.0220229 -0.0224261 0.0
-0.0208242 -0.0254301 0.0
-0.0193506 -0.0288211 0.0
-0.0175536 -0.0326512 0.0
-0.0153795 -0.0369687 0.0
-0.0127711 -0.0417955 0.0
-0.00966864 -0.046954 0.0
-0.00601753 -0.0506911 0.0
-0.00202436 -0.0406748 0.0
0.00202436 0.0406748 0.0
0.00176717 -0.0372234 0.0
-0.00176717 0.0372234 0.0
-0.0051497 0.0456142 0.0
-0.00813368 0.0423241 0.0
-0.0106785 0.0381902 0.0
-0.0128727 0.0345009 0.0
-0.0147752 0.0312736 0.0
-0.0164305 0.0284229 0.0
-0.0178746 0.0258764 0.0
-0.019137 0.0235783 0.0
-0.0202423 0.0214855 0.0
-0.0212112 0.0195642 0.0
-0.0220614 0.0177872 0.0
-0.022808 0.0161328 0.0
-0.0234641 0.0145828 0.0
-0.0240409 0.0131221 0.0
-0.0245485 0.011738 0.0
-0.0249953 0.0104194 0.0
-0.0253888 0.00915636 0.0
-0.0257356 0.00794017 0.0
-0.0260411 0.00676266 0.0
-0.0263102 0.00561622 0.0
-0.0265468 0.00449348 0.0
-0.0267541 0.00338723 0.0
-0.0269344 0.0022902 0.0
-0.0270893 0.00119489 0.0
-0.0272195 9.346e-05 0.0
-0.0273248 -0.00102255 0.0
-0.0274041 -0.00216234 0.0
-0.0274549 -0.00333617 0.0
-0.0274735 -0.00455557 0.0
-0.0274548 -0.0058337 0.0
-0.0273918 -0.00718573 0.0
-0.0272754 -0.00862926 0.0
-0.0270943 -0.0101848 0.0
-0.0268342 -0.0118762 0.0
-0.0264777 -0.0137316 0.0
-0.0260034 -0.0157834 0.0
-0.0253859 -0.0180691 0.0
-0.0245949 -0.0206318 0.0
-0.0235949 -0.0235195 0.0
-0.0223447 -0.0267856 0.0
-0.0207976 -0.0304864 0.0
-0.0189012 -0.0346794 0.0
-0.0165985 -0.0394173 0.0
-0.013829 -0.0447248 0.0
-0.0105291 -0.050427 0.0
-0.00662966 -0.0547687 0.0
-0.00226043 -0.0449596 0.0
0.00226043 0.0449596 0.0
0.00196737 -0.040958 0.0
-0.00196737 0.040958 0.0
-0.00564805 0.0489428 0.0
-0.00880309 0.0451345 0.0
-0.0114827 0.0406043 0.0
-0.013791 0.0365893 0.0
-0.0157907 0.0330873 0.0
-0.0175284 0.0300023 0.0
-0.0190419 0.0272545 0.0
-0.0203622 0.0247828 0.0
-0.0215152 0.0225394 0.0
-0.0225232 0.0204872 0.0
-0.0234049 0.0185961 0.0
-0.0241766 0.0168422 0.0
-0.0248525 0.0152053 0.0
-0.0254449 0.0136688 0.0
-0.0259645 0.0122185 0.0
-0.0264211 0.0108421 0.0
-0.0268227 0.00952875 0.0
-0.0271767 0.00826855 0.0
-0.0274894 0.00705252 0.0
-0.0277661 0.00587218 0.0
-0.0280113 0.00471935 0.0
-0.0282287 0.00358599 0.0
-0.028421 0.00246399 0.0
-0.02859 0.001345 0.0
-0.0287366 0.000220207 0.0
-0.0288607 -0.000919851 0.0
-0.0289609 -0.00208554 0.0
-0.0290347 -0.00328841 0.0
-0.0290779 -0.00454148 0.0
-0.0290848 -0.00585965 0.0
-0.0290475 -0.0072601 0.0
-0.028956 -0.00876276 0.0
-0.0287975 -0.0103909 0.0
-0.0285562 -0.0121715 0.0
-0.0282128 -0.0141364 0.0
-0.0277436 -0.016322 0.0
-0.0271208 -0.0187708 0.0
-0.0263112 -0.0215307 0.0
-0.025276 -0.0246557 0.0
-0.0239708 -0.0282047 0.0
-0.0223453 -0.0322399 0.0
-0.0203436 -0.036824 0.0
-0.0179056 -0.0420135 0.0
-0.0149676 -0.047836 0.0
-0.0114628 -0.0541206 0.0
-0.00730564 -0.0591317 0.0
-0.00252572 -0.0497458 0.0
0.00252572 0.0497458 0.0
0.00219296 -0.0451183 0.0
-0.00219296 0.0451183 0.0
-0.00619884 0.0524691 0.0
-0.00952773 0.0480922 0.0
-0.0123446 0.0431431 0.0
-0.0147703 0.0387845 0.0
-0.0168707 0.0349921 0.0
-0.0186944 0.0316589 0.0
-0.0202808 0.0286977 0.0
-0.0216624 0.0260414 0.0
-0.0228664 0.0236379 0.0
-0.0239162 0.0214464 0.0
-0.0248318 0.0194342 0.0
-0.0256306 0.0175747 0.0
-0.0263279 0.0158459 0.0
-0.026937 0.0142297 0.0
-0.0274698 0.0127102 0.0
-0.0279368 0.0112739 0.0
-0.028347 0.00990887 0.0
-0.0287088 0.00860417 0.0
-0.029029 0.00734981 0.0
-0.0293138 0.0061364 0.0
-0.0295683 0.00495485 0.0
-0.0297966 0.00379619 0.0
-0.030002 0.00265139 0.0
-0.0301865 0.0015111 0.0
-0.0303512 0.000365457 0.0
-0.030496 -0.000796178 0.0
-0.0306195 -0.00198547 0.0
-0.0307188 -0.00321543 0.0
-0.0307892 -0.00450079 0.0
-0.0308243 -0.00585837 0.0
-0.0308154 -0.00730759 0.0
-0.0307512 -0.00887099 0.0
-0.0306175 -0.0105748 0.0
-0.0303967 -0.0124496 0.0
-0.0300674 -0.014531 0.0
-0.0296036 -0.0168602 0.0
-0.0289748 -0.0194843 0.0
-0.0281447 -0.022457 0.0
-0.0270714 -0.0258379 0.0
-0.0257072 -0.029692 0.0
-0.0239981 -0.0340872 0.0
-0.0218851 -0.0390913 0.0
-0.0193049 -0.0447645 0.0
-0.0161915 -0.0511363 0.0
-0.0124746 -0.0580421 0.0
-0.00805182 -0.0637901 0.0
-0.00282381 -0.0550953 0.0
0.00282381 0.0550953 0.0
0.0024475 -0.0497588 0.0
-0.0024475 0.0497588 0.0
-0.00680829 0.0561953 0.0
-0.0103124 0.0511989 0.0
-0.0132683 0.0458092 0.0
-0.015814 0.0410898 0.0
-0.0180183 0.0369916 0.0
-0.0199316 0.0333965 0.0
-0.0215946 0.0302095 0.0
-0.023041 0.0273576 0.0
-0.0242994 0.0247841 0.0
-0.0253942 0.0224447 0.0
-0.0263464 0.0203038 0.0
-0.0271748 0.0183322 0.0
-0.0278955 0.0165063 0.0
-0.028523 0.0148059 0.0
-0.0290702 0.013214 0.0
-0.0295487 0.0117155 0.0
-0.0299684 0.0102974 0.0
-0.0303386 0.00894758 0.0
-0.0306671 0.00765512 0.0
-0.0309607 0.00640956 0.0
-0.0312253 0.0052008 0.0
-0.0314657 0.00401889 0.0
-0.0316853 0.00285371 0.0
-0.0318869 0.00169481 0.0
-0.0320715 0.000531107 0.0
-0.0322392 -0.000649352 0.0
-0.0323882 -0.00185971 0.0
-0.0325155 -0.00311466 0.0
-0.0326158 -0.00443081 0.0
-0.0326819 -0.00582718 0.0
-0.0327039 -0.00732568 0.0
-0.0326693 -0.00895173 0.0
-0.0325622 -0.0107349 0.0
-0.0323632 -0.0127094 0.0
-0.0320486 -0.0149153 0.0
-0.0315899 -0.0173983 0.0
-0.0309537 -0.0202112 0.0
-0.0301008 -0.0234131 0.0
-0.028986 -0.0270698 0.0
-0.0275581 -0.0312522 0.0
-0.02576 -0.0360341 0.0
-0.0235295 -0.0414879 0.0
-0.0208005 -0.0476771 0.0
-0.017505 -0.0546326 0.0
-0.0135699 -0.0621978 0.0
-0.00887505 -0.0687521 0.0
-0.00315865 -0.0610777 0.0
0.00315865 0.0610777 0.0
0.00273515 -0.0549414 0.0
-0.00273515 0.0549414 0.0
-0.00748351 0.0601218 0.0
-0.0111624 0.0544553 0.0
-0.0142581 0.0486044 0.0
-0.0169257 0.0435077 0.0
-0.0192366 0.0390889 0.0
-0.0212428 0.0352186 0.0
-0.022986 0.0317936 0.0
-0.024501 0.0287349 0.0
-0.0258173 0.0259815 0.0
-0.0269605 0.0234853 0.0
-0.0279526 0.0212077 0.0
-0.0288133 0.0191173 0.0
-0.0295598 0.0171885 0.0
-0.0302078 0.0153993 0.0
-0.0307712 0.0137312 0.0
-0.0312625 0.012168 0.0
-0.031693 0.0106951 0.0
-0.0320727 0.00929962 0.0
-0.0324104 0.00796925 0.0
-0.0327138 0.00669252 0.0
-0.0329896 0.00545824 0.0
-0.0332431 0.0042553 0.0
-0.0334785 0.0030724 0.0
-0.0336987 0.00189784 0.0
-0.0339052 0.000719146 0.0
-0.0340978 -0.000477133 0.0
-0.0342748 -0.00170583 0.0
-0.0344326 -0.00298351 0.0
-0.0345653 -0.00432894 0.0
-0.0346647 -0.00576356 0.0
-0.0347199 -0.00731207 0.0
-0.0347169 -0.00900302 0.0
-0.0346379 -0.0108696 0.0
-0.0344615 -0.0129501 0.0
-0.0341615 -0.0152891 0.0
-0.033707 -0.0179376 0.0
-0.0330616 -0.0209536 0.0
-0.0321828 -0.0244024 0.0
-0.0310225 -0.0283557 0.0
-0.029526 -0.0328907 0.0
-0.0276331 -0.0380866 0.0
-0.0252789 -0.0440202 0.0
-0.0223949 -0.0507577 0.0
-0.0189115 -0.0583309 0.0
-0.0147535 -0.0665926 0.0
-0.00978234 -0.0740233 0.0
-0.00353446 -0.0677709 0.0
0.00353446 0.0677709 0.0
0.00306046 -0.060737 0.0
-0.00306046 0.060737 0.0
-0.00823185 0.064246 0.0
-0.0120823 0.0578606 0.0
-0.0153168 0.0515295 0.0
-0.0181066 0.0460399 0.0
-0.0205256 0.0412867 0.0
-0.0226267 0.0371281 0.0
-0.0244526 0.0334531 0.0
-0.026039 0.0301768 0.0
-0.0274162 0.0272333 0.0
-0.0286105 0.024571 0.0
-0.0296451 0.0221486 0.0
-0.0305403 0.0199323 0.0
-0.0313146 0.0178944 0.0
-0.0319846 0.0160114 0.0
-0.0325653 0.0142632 0.0
-0.0330704 0.0126324 0.0
-0.0335122 0.011103 0.0
-0.0339018 0.00966098 0.0
-0.0342491 0.00829287 0.0
-0.0345627 0.00698599 0.0
-0.0348501 0.00572795 0.0
-0.0351174 0.00450638 0.0
-0.0353693 0.00330866 0.0
-0.0356092 0.00212163 0.0
-0.0358386 0.000931265 0.0
-0.0360577 -0.00027761 0.0
-0.0362643 -0.00152173 0.0
-0.0364543 -0.00281981 0.0
-0.0366212 -0.00419301 0.0
-0.0367558 -0.00566548 0.0
-0.0368458 -0.00726497 0.0
-0.0368755 -0.00902352 0.0
-0.0368253 -0.0109782 0.0
-0.0366716 -0.0131717 0.0
-0.0363858 -0.0156534 0.0
-0.0359341 -0.0184795 0.0
-0.0352772 -0.021714 0.0
-0.0343698 -0.0254281 0.0
-0.0331602 -0.0296998 0.0
-0.0315911 -0.0346122 0.0
-0.0295994 -0.0402497 0.0
-0.0271175 -0.0466933 0.0
-0.0240752 -0.0540109 0.0
-0.020402 -0.0622344 0.0
-0.0160211 -0.071228 0.0
-0.0107757 -0.0796043 0.0
-0.00395406 -0.0752594 0.0
0.00395406 0.0752594 0.0
0.00342463 -0.0672221 0.0
-0.00342463 0.0672221 0.0
-0.00904926 0.0685569 0.0
-0.0130562 0.061407 0.0
-0.016417 0.0545784 0.0
-0.0193179 0.0486817 0.0
-0.0218346 0.0435806 0.0
-0.0240207 0.0391214 0.0
-0.0259196 0.0351847 0.0
-0.0275676 0.0316796 0.0
-0.0289958 0.0285358 0.0
-0.0302312 0.0256982 0.0
-0.0312978 0.0231225 0.0
-0.032217 0.0207728 0.0
-0.0330082 0.0186194 0.0
-0.0336892 0.0166374 0.0
-0.0342762 0.014805 0.0
-0.0347839 0.0131035 0.0
-0.0352261 0.0115158 0.0
-0.0356149 0.0100266 0.0
-0.0359614 0.00862106 0.0
-0.0362754 0.00728536 0.0
-0.0365651 0.00600574 0.0
-0.0368377 0.00476843 0.0
-0.0370984 0.0035593 0.0
-0.0373512 0.00236356 0.0
-0.0375978 0.00116542 0.0
-0.0378383 -5.22485e-05 0.0
-0.0380704 -0.00130835 0.0
-0.0382895 -0.002624 0.0
-0.0384884 -0.00402303 0.0
-0.0386567 -0.00553259 0.0
-0.0387808 -0.0071838 0.0
-0.0388434 -0.00901243 0.0
-0.0388231 -0.0110597 0.0
-0.038694 -0.013373 0.0
-0.0384252 -0.0160067 0.0
-0.0379805 -0.0190226 0.0
-0.0373179 -0.0224905 0.0
-0.0363893 -0.0264877 0.0
-0.0351408 -0.0310984 0.0
-0.0335121 -0.0364114 0.0
-0.0314382 -0.0425162 0.0
-0.0288496 -0.0494973 0.0
-0.0256753 -0.0574235 0.0
-0.0218438 -0.0663264 0.0
-0.0172776 -0.0760832 0.0
-0.011802 -0.08547 0.0
-0.00440192 -0.0836154 0.0
0.00440192 0.0836154 0.0
0.00377998 -0.0744267 0.0
-0.00377998 0.0744267 0.0
-0.00978252 0.0729794 0.0
-0.0138142 0.0650231 0.0
-0.0171701 0.057679 0.0
-0.0200475 0.0513594 0.0
-0.0225237 0.0458957 0.0
-0.0246531 0.0411218 0.0
-0.0264805 0.0369104 0.0
-0.0280435 0.0331648 0.0
-0.0293748 0.0298102 0.0
-0.0305035 0.0267879 0.0
-0.0314553 0.0240511 0.0
-0.0322537 0.0215618 0.0
-0.0329204 0.0192884 0.0
-0.0334751 0.0172041 0.0
-0.0339361 0.0152862 0.0
-0.0343203 0.0135142 0.0
-0.034643 0.01187 0.0
-0.0349184 0.0103366 0.0
-0.0351591 0.00889821 0.0
-0.0353763 0.00753935 0.0
-0.0355796 0.00624485 0.0
-0.0357771 0.00499936 0.0
-0.035975 0.00378704 0.0
-0.0361777 0.00259127 0.0
-0.0363877 0.00139428 0.0
-0.0366051 0.000176746 0.0
-0.0368277 -0.00108261 0.0
-0.0370507 -0.00240754 0.0
-0.0372666 -0.00382477 0.0
-0.0374645 -0.00536466 0.0
-0.0376303 -0.00706185 0.0
-0.037746 -0.00895605 0.0
-0.0377896 -0.0110928 0.0
-0.0377345 -0.0135242 0.0
-0.0375491 -0.0163097 0.0
-0.0371966 -0.0195167 0.0
-0.0366347 -0.0232209 0.0
-0.035815 -0.0275055 0.0
-0.0346833 -0.0324609 0.0
-0.0331795 -0.0381813 0.0
-0.0312386 -0.0447612 0.0
-0.0287913 -0.0522881 0.0
-0.0257662 -0.0608321 0.0
-0.0220914 -0.070424 0.0
-0.0176862 -0.080957 0.0
-0.0123556 -0.0914024 0.0
-0.00471072 -0.092728 0.0
0.00471072 0.092728 0.0
0.00357944 -0.0817862 0.0
-0.00357944 0.0817862 0.0
-0.00877214 0.0768153 0.0
-0.0115585 0.0680053 0.0
-0.0136222 0.0601163 0.0
-0.0151711 0.0533486 0.0
-0.0162908 0.0475023 0.0
-0.0170463 0.0424002 0.0
-0.0174946 0.0379076 0.0
-0.017686 0.033922 0.0
-0.0176653 0.0303638 0.0
-0.0174731 0.0271707 0.0
-0.0171453 0.0242924 0.0
-0.0167145 0.0216882 0.0
-0.0162097 0.0193238 0.0
-0.0156569 0.0171705 0.0
-0.015079 0.015203 0.0
-0.0144967 0.0133992 0.0
-0.013928 0.011739 0.0
-0.0133886 0.0102036 0.0
-0.0128921 0.00877549 0.0
-0.0124504 0.0074375 0.0
-0.0120731 0.00617275 0.0
-0.0117683 0.00496415 0.0
-0.0115423 0.00379414 0.0
-0.0113996 0.00264427 0.0
-0.0113433 0.00149486 0.0
-0.0113743 0.000324612 0.0
-0.0114923 -0.000889911 0.0
-0.0116948 -0.00217475 0.0
-0.0119773 -0.00355914 0.0
-0.0123335 -0.00507618 0.0
-0.0127545 -0.00676355 0.0
-0.0132289 -0.00866425 0.0
-0.0137424 -0.0108275 0.0
-0.0142775 -0.0133095 0.0
-0.014813 -0.0161742 0.0
-0.0153236 -0.019494 0.0
-0.0157791 -0.0233499 0.0
-0.0161442 -0.0278311 0.0
-0.0163773 -0.0330339 0.0
-0.0164303 -0.0390591 0.0
-0.0162474 -0.0460072 0.0
-0.0157652 -0.0539716 0.0
-0.014912 -0.0630269 0.0
-0.0136074 -0.0732087 0.0
-0.0117494 -0.0844354 0.0
-0.00909432 -0.0959097 0.0
-0.0037606 -0.101199 0.0
0.0037606 0.101199 0.0
-0.00157694 -0.0837887 0.0
0.00157694 0.0837887 0.0
0.00709584 0.0744866 0.0
0.0152973 0.0649189 0.0
0.023922 0.0566416 0.0
0.0326651 0.0496292 0.0
0.0413653 0.0436412 0.0
0.0499017 0.0384806 0.0
0.0581803 0.033997 0.0
0.0661297 0.0300747 0.0
0.0736967 0.0266234 0.0
0.0808439 0.0235715 0.0
0.0875464 0.0208613 0.0
0.0937893 0.0184456 0.0
0.0995657 0.0162852 0.0
0.104875 0.014347 0.0
0.109721 0.0126026 0.0
0.114111 0.0110272 0.0
0.118055 0.00959878 0.0
0.121562 0.00829714 0.0
0.124644 0.00710373 0.0
0.12731 0.00600092 0.0
0.129571 0.00497162 0.0
0.131432 0.00399891 0.0
0.1329 0.00306568 0.0
0.133976 0.00215416 0.0
0.134659 0.00124562 0.0
0.134944 0.000319831 0.0
0.134822 -0.000645337 0.0
0.13428 -0.00167452 0.0
0.133298 -0.00279545 0.0
0.131854 -0.00403968 0.0
0.129919 -0.00544333 0.0
0.127457 -0.007048 0.0
0.124428 -0.00890167 0.0
0.120787 -0.0110597 0.0
0.116485 -0.0135859 0.0
0.111466 -0.0165531 0.0
0.105675 -0.0200442 0.0
0.0990555 -0.0241522 0.0
0.0915552 -0.0289793 0.0
0.0831301 -0.0346357 0.0
0.0737523 -0.0412357 0.0
0.0634187 -0.0488918 0.0
0.0521644 -0.0577056 0.0
0.0400808 -0.0677511 0.0
0.0273517 -0.0790218 0.0
0.0144133 -0.0910399 0.0
0.00398521 -0.100975 0.0
-0.00398521 0.100975 0.0
-0.0411059 -0.0411059 0.0
0.0411059 0.0411059 0.0
0.117484 0.0352723 0.0
0.183086 0.0303297 0.0
0.239554 0.0261382 0.0
0.288318 0.0226257 0.0
0.330603 0.0196594 0.0
0.367396 0.0171333 0.0
0.399495 0.0149661 0.0
0.427556 0.013095 0.0
0.452122 0.0114705 0.0
0.473646 0.0100533 0.0
0.492511 0.00881185 0.0
0.509043 0.00772018 0.0
0.52352 0.006757 0.0
0.536181 0.00590444 0.0
0.547233 0.00514732 0.0
0.556853 0.00447257 0.0
0.565194 0.00386873 0.0
0.572389 0.00332561 0.0
0.578548 0.00283393 0.0
0.583767 0.0023851 0.0
0.588123 0.00197094 0.0
0.591678 0.00158353 0.0
0.594476 0.00121492 0.0
0.596548 0.000857036 0.0
0.597907 0.000501367 0.0
0.598547 0.000138801 0.0
0.598445 -0.000240645 0.0
0.597556 -0.00064811 0.0
0.595812 -0.0010962 0.0
0.593116 -0.00159936 0.0
0.589343 -0.00217427 0.0
0.584328 -0.00284034 0.0
0.577867 -0.0036202 0.0
0.569707 -0.00454024 0.0
0.559536 -0.00563124 0.0
0.546975 -0.00692887 0.0
0.531572 -0.00847424 0.0
0.512784 -0.0103142 0.0
0.489968 -0.0125014 0.0
0.462373 -0.0150936 0.0
0.429127 -0.0181531 0.0
0.38923 -0.0217438 0.0
0.341558 -0.0259277 0.0
0.284872 -0.0307588 0.0
0.21785 -0.0362631 0.0
0.139288 -0.0422985 0.0
0.0484947 -0.0484947 0.0
-0.0484947 0.0484947 0.0
-1.95889 0.0411059 0.0
1.95889 -0.0411059 0.0
1.88252 -0.0352723 0.0
1.81691 -0.0303297 0.0
1.76045 -0.0261382 0.0
1.71168 -0.0226257 0.0
1.6694 -0.0196594 0.0
1.6326 -0.0171333 0.0
1.60051 -0.0149661 0.0
1.57244 -0.013095 0.0
1.54788 -0.0114705 0.0
1.52635 -0.0100533 0.0
1.50749 -0.00881185 0.0
1.49096 -0.00772018 0.0
1.47648 -0.006757 0.0
1.46382 -0.00590444 0.0
1.45277 -0.00514732 0.0
1.44315 -0.00447257 0.0
1.43481 -0.00386873 0.0
1.42761 -0.00332561 0.0
1.42145 -0.00283393 0.0
1.41623 -0.0023851 0.0
1.41188 -0.00197094 0.0
1.40832 -0.00158353 0.0
1.40552 -0.00121492 0.0
1.40345 -0.000857036 0.0
1.40209 -0.000501367 0.0
1.40145 -0.000138801 0.0
1.40156 0.000240645 0.0
1.40244 0.00064811 0.0
1.40419 0.0010962 0.0
1.40688 0.00159936 0.0
1.41066 0.00217427 0.0
1.41567 0.00284034 0.0
1.42213 0.0036202 0.0
1.43029 0.00454024 0.0
1.44046 0.00563124 0.0
1.45302 0.00692887 0.0
1.46843 0.00847424 0.0
1.48722 0.0103142 0.0
1.51003 0.0125014 0.0
1.53763 0.0150936 0.0
1.57087 0.0181531 0.0
1.61077 0.0217438 0.0
1.65844 0.0259277 0.0
1.71513 0.0307588 0.0
1.78215 0.0362631 0.0
1.86071 0.0422985 0.0
1.95151 0.0484947 0.0
-1.95151 -0.0484947 0.0
