# vtk DataFile Version 3.0
DroneCFD Output
ASCII
DATASET STRUCTURED_POINTS
DIMENSIONS 50 50 1
ORIGIN 0 0 0
SPACING 0.02 0.02 1
POINT_DATA 2500
SCALARS pressure double 1
LOOKUP_TABLE default
0
0
-0.00181123
-0.00226952
-0.00212204
-0.00179237
-0.00141441
-0.00101895
-0.000611704
-0.000193756
0.000234424
0.000672417
0.00111981
0.00157623
0.00204133
0.00251483
0.0029965
0.00348616
0.00398367
0.00448895
0.00500193
0.00552261
0.00605097
0.00658705
0.00713088
0.00768252
0.00824201
0.00880939
0.00938472
0.009968
0.0105592
0.0111583
0.0117653
0.0123798
0.0130016
0.0136303
0.0142654
0.014906
0.0155511
0.016199
0.0168479
0.0174949
0.0181361
0.0187652
0.0193674
0.0198936
0.0201666
0.0196621
0.0174595
0.0174595
0
0
-0.00181123
-0.00226952
-0.00212204
-0.00179237
-0.00141441
-0.00101895
-0.000611704
-0.000193756
0.000234424
0.000672417
0.00111981
0.00157623
0.00204133
0.00251483
0.0029965
0.00348616
0.00398367
0.00448895
0.00500193
0.00552261
0.00605097
0.00658705
0.00713088
0.00768252
0.00824201
0.00880939
0.00938472
0.009968
0.0105592
0.0111583
0.0117653
0.0123798
0.0130016
0.0136303
0.0142654
0.014906
0.0155511
0.016199
0.0168479
0.0174949
0.0181361
0.0187652
0.0193674
0.0198936
0.0201666
0.0196621
0.0174595
0.0174595
0.00122062
0.00122062
-0.000600966
-0.00105806
-0.000916871
-0.000604079
-0.000252619
0.000108366
0.000474683
0.000846479
0.00122428
0.00160847
0.00199926
0.00239679
0.00280111
0.00321228
0.00363029
0.00405516
0.00448689
0.00492551
0.00537102
0.00582346
0.00628285
0.00674924
0.00722266
0.00770316
0.00819078
0.00868558
0.00918759
0.00969684
0.0102134
0.0107372
0.0112683
0.0118066
0.012352
0.0129045
0.0134637
0.0140295
0.0146011
0.0151781
0.0157592
0.016343
0.0169271
0.0175071
0.0180704
0.0185701
0.0188305
0.0183232
0.0161048
0.0161048
0.0015626
0.0015626
-0.000284109
-0.000743015
-0.000602357
-0.000292081
5.46436e-05
0.00040887
0.000766601
0.00112816
0.00149423
0.00186532
0.00224181
0.00262393
0.00301187
0.00340575
0.00380571
0.00421182
0.0046242
0.00504292
0.00546809
0.00589979
0.00633814
0.00678324
0.00723519
0.00769411
0.00816011
0.00863331
0.00911383
0.00960177
0.0100973
0.0106004
0.0111112
0.0116299
0.0121563
0.0126907
0.0132327
0.0137824
0.0143393
0.0149029
0.0154724
0.0160465
0.016623
0.0171976
0.0177579
0.018257
0.0185184
0.0180084
0.0157566
0.0157566
0.00163369
0.00163369
-0.000242735
-0.00070069
-0.000555351
-0.000241418
0.000107563
0.000462863
0.000820689
0.00118152
0.00154615
0.00191521
0.00228914
0.00266825
0.00305277
0.00344291
0.00383881
0.00424062
0.00464848
0.00506251
0.00548283
0.00590959
0.00634292
0.00678294
0.00722982
0.00768368
0.00814468
0.00861297
0.00908871
0.00957206
0.0100632
0.0105622
0.0110692
0.0115844
0.0121079
0.0126398
0.01318
0.0137285
0.014285
0.0148492
0.0154202
0.015997
0.0165774
0.0171573
0.0177244
0.0182316
0.018501
0.0179916
0.0156989
0.0156989
0.0016287
0.0016287
-0.000281127
-0.000736739
-0.000583874
-0.000263406
9.06255e-05
0.000449775
0.000810508
0.00117349
0.00153967
0.00190977
0.00228434
0.00266374
0.00304829
0.00343823
0.00383374
0.00423502
0.00464222
0.00505551
0.00547504
0.00590096
0.00633343
0.00677261
0.00721866
0.00767177
0.00813209
0.00859981
0.00907512
0.00955819
0.0100492
0.0105484
0.011056
0.011572
0.0120968
0.0126304
0.0131729
0.0137244
0.0142847
0.0148535
0.0154303
0.0160139
0.0166025
0.0171921
0.0177704
0.0182901
0.0185716
0.0180642
0.0157237
0.0157237
0.00159685
0.00159685
-0.000350011
-0.00080215
-0.000639522
-0.000310501
5.03044e-05
0.000414809
0.000779798
0.00114617
0.00151504
0.00188728
0.00226353
0.00264426
0.00302984
0.00342057
0.0038167
0.00421844
0.00462599
0.00503955
0.0054593
0.00588541
0.00631808
0.00675747
0.0072038
0.00765724
0.008118
0.00858629
0.00906233
0.00954634
0.0100385
0.0105392
0.0110485
0.0115668
0.0120943
0.0126311
0.0131776
0.0137338
0.0142998
0.0148754
0.0154601
0.0160531
0.0166526
0.0172548
0.0178476
0.0183834
0.0186804
0.018176
0.015781
0.015781
0.00154853
0.00154853
-0.000439078
-0.000886517
-0.000711987
-0.000372583
-3.52084e-06
0.000367562
0.000737833
0.00110846
0.00148078
0.00185582
0.00223434
0.00261692
0.00300401
0.00339598
0.00379312
0.00419572
0.00460401
0.00501822
0.00543856
0.00586524
0.00629848
0.00673848
0.00718547
0.00763967
0.00810131
0.00857064
0.0090479
0.00953338
0.0100273
0.0105301
0.0110419
0.0115632
0.0120943
0.0126354
0.0131869
0.0137491
0.0143222
0.0149061
0.0155007
0.0161051
0.016718
0.0173356
0.017946
0.0185012
0.0188172
0.0183171
0.0158605
0.0158605
0.00148548
0.00148548
-0.000546614
-0.000987929
-0.000799334
-0.000447755
-6.9007e-05
0.000309815
0.000686324
0.00106201
0.00143845
0.00181686
0.00219814
0.00258299
0.00297196
0.0033655
0.00376398
0.00416772
0.00457701
0.00499212
0.0054133
0.0058408
0.00627486
0.00671573
0.00716365
0.0076189
0.00808173
0.00855244
0.00903131
0.00951867
0.0100149
0.0105202
0.0110352
0.0115601
0.0120955
0.0126418
0.0131994
0.0137688
0.0143503
0.0149442
0.0155503
0.0161684
0.016797
0.0174328
0.0180637
0.0186419
0.0189801
0.018486
0.0159607
0.0159607
0.00140777
0.00140777
-0.000672524
-0.00110605
-0.000901179
-0.000535641
-0.000145799
0.0002419
0.000625583
0.00100711
0.00138831
0.00177063
0.00215514
0.00254267
0.00293388
0.00332931
0.0037294
0.00413454
0.00454507
0.0049613
0.00538355
0.00581209
0.0062472
0.00668917
0.00713828
0.00759484
0.00805915
0.00853155
0.00901238
0.00950201
0.0100009
0.0105094
0.011028
0.0115573
0.0120978
0.0126501
0.0132148
0.0137925
0.0143838
0.0149892
0.0156088
0.0162425
0.0168893
0.0175458
0.0182005
0.0188049
0.019169
0.0186826
0.0160817
0.0160817
0.00131508
0.00131508
-0.000816996
-0.00124081
-0.00101737
-0.000636098
-0.000233772
0.000163924
0.000555699
0.000943817
0.00133043
0.0017172
0.00210539
0.00249599
0.00288978
0.00328739
0.00368936
0.00409615
0.00450815
0.00492574
0.00534926
0.00577905
0.00621543
0.00665873
0.00710927
0.0075674
0.00803347
0.00850787
0.008991
0.0094833
0.00998525
0.0104974
0.0110203
0.0115545
0.0121009
0.01266
0.0132328
0.0138201
0.0144226
0.015041
0.0156759
0.0163273
0.0169946
0.0176747
0.0183562
0.0189903
0.0193839
0.0189075
0.0162241
0.0162241
0.00120697
0.00120697
-0.000980276
-0.00139213
-0.00114779
-0.000749011
-0.00033283
7.59661e-05
0.000476735
0.000872194
0.00126483
0.00165657
0.00204889
0.00244294
0.00283964
0.00323974
0.00364385
0.00405252
0.00446621
0.00488537
0.00531038
0.00574163
0.00617949
0.00662433
0.00707653
0.00753648
0.00800459
0.00848129
0.00896705
0.0094624
0.00996788
0.0104841
0.0110118
0.0115517
0.0121047
0.0126716
0.0132535
0.0138514
0.0144664
0.0150995
0.0157514
0.0164227
0.0171129
0.0178193
0.0185306
0.0191979
0.0196247
0.019161
0.0163884
0.0163884
0.00108285
0.00108285
-0.00116264
-0.00155995
-0.0012923
-0.000874252
-0.00044287
-2.18945e-05
0.000388752
0.00079228
0.00119155
0.00158877
0.00198565
0.00238352
0.00278345
0.0031863
0.00359281
0.00400359
0.0044192
0.00484012
0.00526682
0.00569973
0.00613928
0.00658588
0.00703996
0.00750198
0.00797239
0.00845169
0.00894042
0.00943919
0.00994862
0.0104695
0.0110025
0.0115487
0.012109
0.0126845
0.0132765
0.0138863
0.0145152
0.0151645
0.0158353
0.0165285
0.017244
0.0179794
0.0187236
0.0194275
0.0198916
0.0194436
0.0165755
0.0165755
0.000942001
0.000942001
-0.00136439
-0.00174421
-0.00145074
-0.00101168
-0.000563782
-0.000129572
0.000291812
0.00070412
0.00111061
0.00151381
0.00191566
0.00231771
0.00272118
0.00312706
0.0035362
0.00394932
0.00436704
0.00478992
0.0052185
0.00565326
0.00609469
0.00654326
0.00699945
0.00746377
0.00793674
0.00841894
0.00891097
0.00941352
0.00992733
0.0104533
0.0109922
0.0115453
0.0121137
0.0126987
0.0133018
0.0139246
0.0145687
0.0152358
0.0159273
0.0166445
0.0173877
0.0181548
0.0189351
0.0196791
0.0201843
0.0197558
0.0167865
0.0167865
0.000783575
0.000783575
-0.00158584
-0.00194479
-0.00162294
-0.00116116
-0.000695444
-0.000246974
0.000185984
0.000607759
0.00102204
0.00143169
0.00183892
0.00224549
0.00265278
0.00306196
0.00347396
0.00388962
0.00430965
0.00473469
0.00516533
0.00560213
0.00604563
0.00649636
0.00695487
0.00742173
0.00789752
0.00838289
0.00887854
0.00938524
0.00990384
0.0104353
0.0109808
0.0115414
0.0121186
0.012714
0.0133292
0.0139662
0.0146268
0.0153132
0.0160273
0.0167706
0.0175439
0.0183454
0.0191647
0.0199523
0.0205029
0.0200981
0.0170224
0.0170224
0.000606552
0.000606552
-0.00182733
-0.00216158
-0.00180871
-0.0013225
-0.000837726
-0.000374004
7.13356e-05
0.000503242
0.000925864
0.00134242
0.00175542
0.00216683
0.00257823
0.00299094
0.00340603
0.00382443
0.00424696
0.00467432
0.0051072
0.00554621
0.00599196
0.00644505
0.00690609
0.00737571
0.00785457
0.00834339
0.00884297
0.00935418
0.00987799
0.0104155
0.010968
0.0115368
0.0121236
0.0127301
0.0133584
0.0140107
0.0146893
0.0153967
0.0161351
0.0169065
0.0177122
0.0185509
0.0194122
0.020247
0.0208473
0.020471
0.0172847
0.0172847
0.000409737
0.000409737
-0.00208924
-0.00239445
-0.00200784
-0.00149553
-0.000990488
-0.000510557
-5.20599e-05
0.000390613
0.000822102
0.00124601
0.00166513
0.00208169
0.00249748
0.00291395
0.00333233
0.00375366
0.00417885
0.00460872
0.005044
0.00548539
0.00593357
0.0063892
0.00685296
0.00732556
0.00780773
0.00830029
0.00880411
0.00932017
0.00984959
0.0103936
0.0109536
0.0115313
0.0121283
0.0127469
0.0133893
0.0140581
0.014756
0.0154858
0.0162503
0.017052
0.0178925
0.018771
0.0196774
0.0205627
0.0212171
0.0208751
0.017575
0.017575
0.000191738
0.000191738
-0.00237195
-0.00264323
-0.00222008
-0.00168005
-0.00115358
-0.000656524
-0.000184128
0.00026992
0.000710773
0.00114244
0.00156803
0.00199004
0.00241045
0.00283091
0.00325277
0.00367721
0.00410524
0.00453775
0.00497559
0.00541952
0.0058703
0.00632865
0.00679533
0.00727112
0.00775684
0.00825339
0.00876176
0.00928303
0.00981845
0.0103694
0.0109375
0.0115246
0.0121327
0.0127642
0.0134217
0.0141081
0.0148266
0.0155804
0.0163728
0.0172068
0.0180845
0.0190053
0.0199597
0.020899
0.0216122
0.0213108
0.0178952
0.0178952
-4.9058e-05
-4.9058e-05
-0.00267585
-0.00290772
-0.00244518
-0.00187585
-0.00132684
-0.000811789
-0.00032479
0.000141205
0.000591895
0.00103171
0.0014641
0.00189182
0.0023171
0.00274174
0.00316726
0.00359497
0.00402598
0.0044613
0.00490185
0.00534847
0.005802
0.00626324
0.00673303
0.00721222
0.00770172
0.00820253
0.00871574
0.00924257
0.00978439
0.0103428
0.0109195
0.0115166
0.0121365
0.0127817
0.0134552
0.0141604
0.0149008
0.0156802
0.0165023
0.0173706
0.0182877
0.0192534
0.0202587
0.0212555
0.0220321
0.0217786
0.0182474
0.0182474
-0.000314517
-0.000314517
-0.00300136
-0.0031877
-0.00268284
-0.00208268
-0.00151009
-0.000976229
-0.000473968
4.51325e-06
0.00046548
0.000913803
0.00135329
0.00178699
0.00221734
0.00264635
0.0030757
0.00350682
0.00394097
0.00437923
0.00482262
0.00527208
0.00572851
0.00619281
0.00666588
0.00714867
0.00764218
0.00814751
0.00866586
0.00919858
0.00974719
0.0103134
0.0108993
0.0115071
0.0121394
0.0127992
0.0134897
0.0142148
0.0149785
0.0157849
0.0166384
0.017543
0.0185017
0.0195149
0.0205739
0.0216315
0.0224765
0.0222791
0.0186342
0.0186342
-0.00060679
-0.00060679
-0.00334891
-0.00348289
-0.00293276
-0.00230031
-0.00170315
-0.00114972
-0.000631579
-0.000140113
0.000331538
0.000788705
0.00123557
0.00167547
0.00211108
0.00254463
0.00297796
0.00341264
0.00385005
0.00429138
0.00473774
0.00519017
0.00564965
0.00611717
0.0065937
0.00708029
0.00757804
0.00808813
0.00861191
0.00915085
0.00970665
0.0102812
0.0108768
0.0114958
0.0121413
0.0128164
0.013525
0.0142711
0.0150592
0.0158942
0.0167809
0.0177236
0.0187261
0.0197892
0.0209047
0.0220263
0.0229446
0.0228125
0.0190584
0.0190584
-0.00092835
-0.00092835
-0.00371893
-0.00379301
-0.00319458
-0.00252846
-0.00190582
-0.00133212
-0.000797539
-0.000292632
0.000190074
0.000656389
0.00111088
0.00155718
0.00199824
0.00243648
0.00287392
0.00331229
0.00375307
0.00419758
0.00464705
0.00510257
0.00556525
0.00603613
0.00651629
0.00700688
0.00750907
0.00802419
0.00855369
0.00909919
0.00966254
0.0102459
0.0108516
0.0114825
0.0121418
0.0128332
0.0135606
0.0143288
0.0151428
0.0160078
0.0169292
0.017912
0.0189604
0.0200757
0.0212502
0.022439
0.0234356
0.0233793
0.0195233
0.0195233
-0.00128204
-0.00128204
-0.00411187
-0.0041177
-0.00346794
-0.00276685
-0.0021179
-0.00152329
-0.000971764
-0.000453005
4.10888e-05
0.000516822
0.000979155
0.00143205
0.00187871
0.00232177
0.00276345
0.0032056
0.00364986
0.00409768
0.00455035
0.0050091
0.00547509
0.00594949
0.00643345
0.00692822
0.00743508
0.00795547
0.00849097
0.00904336
0.00961465
0.0102072
0.0108236
0.011467
0.0121408
0.0128491
0.0135965
0.0143879
0.0152288
0.0161252
0.0170829
0.0181076
0.0192039
0.0203736
0.0216096
0.0228687
0.0239488
0.0239797
0.0200326
0.0200326
-0.00167112
-0.00167112
-0.00452815
-0.00445657
-0.00375244
-0.00301517
-0.00233918
-0.00172309
-0.00115417
-0.000621195
-0.000115422
0.000369965
0.000840334
0.00129998
0.00175237
0.00220037
0.00264638
0.00309242
0.00354027
0.00399147
0.00444746
0.00490954
0.00537898
0.00585704
0.00634497
0.00684411
0.00735585
0.00788176
0.00842354
0.00898314
0.00956275
0.0101649
0.0107925
0.0114489
0.012138
0.0128641
0.0136322
0.0144477
0.0153169
0.016246
0.0172416
0.0183099
0.019456
0.0206822
0.0219819
0.0233141
0.024483
0.0246138
0.0205906
0.0205906
-0.00209935
-0.00209935
-0.00496821
-0.00480919
-0.00404766
-0.00327312
-0.00256943
-0.00193138
-0.00134466
-0.000797166
-0.000279466
0.000215773
0.000694338
0.00116086
0.00161909
0.00207213
0.00252256
0.00297257
0.00342408
0.00387877
0.00433817
0.00480369
0.00527671
0.00575857
0.00625063
0.00675431
0.00727116
0.00780282
0.00835118
0.00891831
0.00950661
0.0101188
0.0107581
0.0114282
0.0121331
0.0128777
0.0136674
0.0145082
0.0154066
0.0163698
0.0174047
0.0185182
0.0197158
0.0210004
0.022366
0.0237741
0.0250368
0.0252816
0.0212022
0.0212022
-0.002571
-0.002571
-0.00543245
-0.00517507
-0.00435314
-0.00354036
-0.00280843
-0.002148
-0.00154317
-0.000980889
-0.000451059
5.41922e-05
0.000541081
0.00101458
0.00147874
0.00193689
0.00239181
0.00284587
0.00330112
0.00375937
0.00422227
0.00469134
0.00516805
0.00565385
0.00615019
0.00665862
0.00718077
0.00771844
0.00827364
0.00884863
0.009446
0.0100687
0.0107202
0.0114044
0.0121258
0.0128897
0.0137018
0.0145688
0.0154976
0.016496
0.0175716
0.0187317
0.0199825
0.0213271
0.0227606
0.0242469
0.0256087
0.025983
0.0218731
0.0218731
-0.00309103
-0.00309103
-0.00592127
-0.00555368
-0.00466843
-0.00381655
-0.00305592
-0.00237279
-0.0017496
-0.00117234
-0.000630222
-0.000114838
0.000380468
0.00086103
0.00133118
0.0017945
0.00225396
0.00271212
0.00317117
0.00363305
0.00409954
0.00457226
0.00505278
0.00554265
0.00604344
0.00655679
0.00708446
0.00762839
0.00819071
0.00877388
0.00938067
0.0100143
0.0106784
0.0113773
0.0121159
0.0128997
0.0137351
0.0146291
0.0155893
0.016624
0.0177415
0.0189496
0.020255
0.0216613
0.0231642
0.024731
0.0261969
0.0267175
0.0226094
0.0226094
-0.00366507
-0.00366507
-0.00643498
-0.00594443
-0.00499302
-0.00410134
-0.00331169
-0.00260561
-0.00196387
-0.00137149
-0.000816981
-0.000291385
0.000212398
0.000700063
0.00117624
0.00164476
0.00210881
0.00257111
0.00303401
0.00349959
0.00396974
0.00444621
0.00493065
0.00542474
0.00593013
0.00644859
0.006982
0.00753241
0.00810215
0.00869381
0.00931039
0.00995532
0.0106326
0.0113467
0.012103
0.0129074
0.0137668
0.0146886
0.0156812
0.0167533
0.0179137
0.019171
0.0205322
0.0220014
0.0235751
0.0252245
0.0267994
0.0274846
0.0234186
0.0234186
-0.00429964
-0.00429964
-0.0069739
-0.00634668
-0.00532642
-0.00439438
-0.00357547
-0.00284631
-0.0021859
-0.00157832
-0.00101137
-0.000475526
3.67579e-05
0.000531544
0.00101377
0.0014875
0.00195616
0.00242263
0.00288942
0.00335877
0.00383265
0.00431295
0.00480144
0.00529987
0.00581003
0.00633379
0.00687314
0.0074303
0.00800772
0.00860819
0.00923491
0.00989155
0.0105824
0.0113122
0.0120868
0.0129124
0.0137965
0.0147469
0.0157727
0.016883
0.0180874
0.0193948
0.0208129
0.022346
0.0239916
0.025725
0.0274138
0.0282831
0.0243088
0.0243088
-0.00500218
-0.00500218
-0.00753821
-0.00675975
-0.0056681
-0.00469532
-0.00384705
-0.00309474
-0.00241563
-0.00179283
-0.00121343
-0.000667346
-0.000146572
0.000355323
0.000843581
0.00132253
0.00179579
0.00226646
0.00273718
0.00321033
0.00368803
0.00417225
0.00466489
0.00516781
0.0056829
0.00621214
0.00675766
0.0073218
0.00790718
0.00851677
0.00915397
0.00982271
0.0105275
0.0112736
0.0120669
0.0129144
0.0138237
0.0148035
0.015863
0.0170124
0.0182614
0.0196198
0.0210955
0.0226933
0.0244116
0.0262302
0.0280375
0.0291119
0.0252895
0.0252895
-0.00578128
-0.00578128
-0.00812804
-0.0071829
-0.00601756
-0.0050038
-0.00412619
-0.00335076
-0.002653
-0.00201502
-0.00142322
-0.000866938
-0.00033772
0.000171243
0.000665502
0.00114964
0.00162751
0.00210237
0.00257705
0.00305405
0.00353562
0.00402386
0.00452077
0.00502831
0.00554849
0.0060834
0.0066353
0.00720667
0.00780029
0.0084193
0.00906733
0.00974854
0.0104677
0.0112304
0.012043
0.0129128
0.013848
0.0148576
0.0159516
0.0171405
0.0184349
0.0198448
0.0213786
0.0230414
0.0248328
0.0267375
0.0286673
0.0299693
0.0263714
0.0263714
-0.00664681
-0.00664681
-0.00874336
-0.00761536
-0.00637428
-0.00531951
-0.00441268
-0.00361426
-0.00289795
-0.00224491
-0.0016408
-0.00107441
-0.000536823
-2.08611e-05
0.000479343
0.000968637
0.00145108
0.00193014
0.00240879
0.00288968
0.0033752
0.00386754
0.00436882
0.00488113
0.00540656
0.00594734
0.00650584
0.00708468
0.00768681
0.00831554
0.00897471
0.00966873
0.0104027
0.0111824
0.0120147
0.0129072
0.0138686
0.0149086
0.0160375
0.0172664
0.0186064
0.0200681
0.0216602
0.0233883
0.0252526
0.0272438
0.0292999
0.0308528
0.0275665
0.0275665
-0.00761012
-0.00761012
-0.00938399
-0.00805631
-0.00673777
-0.00564212
-0.00470633
-0.00388513
-0.00315045
-0.0024825
-0.00186623
-0.00128986
-0.000744027
-0.00022116
0.000284913
0.000779304
0.0012663
0.00174953
0.00223217
0.00271699
0.00320651
0.00370304
0.00420882
0.00472602
0.00525688
0.00580371
0.00636903
0.00695559
0.00756648
0.00820522
0.00887584
0.00958299
0.010332
0.0111292
0.0119815
0.0128971
0.0138851
0.0149557
0.0161197
0.0173889
0.0187747
0.0202882
0.0219385
0.0237314
0.0256683
0.0277459
0.0299315
0.0317599
0.0288887
0.0288887
-0.00868433
-0.00868433
-0.0100496
-0.00850493
-0.00710756
-0.00597135
-0.00500696
-0.00416328
-0.0034105
-0.00272786
-0.00209962
-0.00151343
-0.000959487
-0.000429833
8.20163e-05
0.000581434
0.00107293
0.00156033
0.00204696
0.00253574
0.00302932
0.00353013
0.00404052
0.00456277
0.00509921
0.00565229
0.00622464
0.00681915
0.00743906
0.00808807
0.00877042
0.00949099
0.0102554
0.0110702
0.0119429
0.0128818
0.0138967
0.014998
0.0161973
0.0175067
0.0189382
0.0205033
0.0222113
0.0240683
0.0260769
0.0282401
0.0305579
0.0326869
0.0303536
0.0303536
-0.00988457
-0.00988457
-0.0107394
-0.00896035
-0.00748323
-0.00630698
-0.00531445
-0.00444868
-0.0036781
-0.00298104
-0.00234106
-0.00174526
-0.00118337
-0.000647064
-0.000129549
0.000374814
0.000870753
0.00136229
0.00185292
0.0023457
0.0028434
0.00334858
0.00386369
0.00439113
0.00493333
0.00549284
0.00607243
0.0066751
0.00730427
0.00796381
0.00865814
0.00939238
0.0101724
0.0110051
0.0118983
0.0128607
0.0139025
0.0150346
0.0162691
0.0176185
0.0190953
0.0207112
0.0224761
0.0243961
0.026475
0.0287227
0.0311744
0.0336296
0.0319788
0.0319788
-0.0112283
-0.0112283
-0.0114526
-0.00942174
-0.00786442
-0.00664881
-0.00562873
-0.00474131
-0.00395332
-0.00324215
-0.00259069
-0.0019855
-0.00141585
-0.000873045
-0.000349984
0.000159234
0.000659562
0.00115521
0.00164984
0.00214664
0.00264853
0.00315817
0.00367812
0.00421088
0.004759
0.00532513
0.00591214
0.0065232
0.00716185
0.00783212
0.00853864
0.00928675
0.0100826
0.0109333
0.0118471
0.012833
0.0139017
0.0150644
0.0163337
0.0177226
0.0192439
0.0209099
0.0227303
0.0247117
0.026859
0.0291893
0.0317759
0.0345828
0.0337843
0.0337843
-0.0127359
-0.0127359
-0.0121877
-0.00988827
-0.00825085
-0.00699676
-0.00594977
-0.00504123
-0.00423624
-0.00351132
-0.00284867
-0.00223433
-0.00165711
-0.00110798
-0.000579498
-6.55152e-05
0.000439142
0.000938877
0.0014375
0.00193837
0.0024445
0.00295869
0.00348359
0.00402181
0.004576
0.00514892
0.00574355
0.00636318
0.00701149
0.00769267
0.00841155
0.00917367
0.00998545
0.0108542
0.0117885
0.0127979
0.0138931
0.0150861
0.0163897
0.0178172
0.0193821
0.0210966
0.0229709
0.0250117
0.0272249
0.0296353
0.0323568
0.0355402
0.0357926
0.0357926
-0.0144307
-0.0144307
-0.0129429
-0.0103592
-0.00864235
-0.00735082
-0.00627767
-0.00534856
-0.00452703
-0.00378871
-0.00311519
-0.00249195
-0.00190738
-0.00135208
-0.000818302
-0.000299645
0.000209286
0.000713081
0.00121571
0.00172067
0.00223111
0.00274994
0.0032799
0.00382371
0.00438412
0.00496398
0.00556639
0.00619474
0.00685287
0.00754511
0.00827645
0.00905264
0.00988033
0.0107671
0.0117218
0.0127543
0.0138757
0.0150983
0.0164353
0.0179005
0.0195074
0.0212688
0.0231948
0.0252924
0.0275685
0.0300558
0.0329109
0.0364943
0.0380291
0.0380291
-0.0163401
-0.0163401
-0.0137157
-0.0108337
-0.0090389
-0.0077111
-0.00661257
-0.0056635
-0.0048259
-0.00407459
-0.0033905
-0.00275861
-0.00216689
-0.00160557
-0.00106662
-0.000543369
-3.02132e-05
0.000477625
0.000984274
0.00149337
0.00200818
0.00253172
0.00306685
0.00361637
0.00418312
0.00477006
0.00538037
0.00601758
0.00668563
0.00738899
0.00813283
0.00892308
0.00976658
0.0106712
0.011646
0.0127011
0.0138481
0.0150994
0.0164687
0.01797
0.0196173
0.0214234
0.0233985
0.0255497
0.0278852
0.0304455
0.0334316
0.037436
0.0405222
0.0405222
-0.0184961
-0.0184961
-0.0145031
-0.0113115
-0.00944064
-0.00807788
-0.00695482
-0.0059864
-0.00513321
-0.00436928
-0.00367492
-0.00303463
-0.00243595
-0.00186875
-0.00132472
-0.000796947
-0.0002796
0.000232274
0.000742963
0.00125624
0.00177548
0.00230382
0.00284421
0.00339954
0.00397273
0.00456684
0.00518516
0.0058313
0.00650931
0.00722381
0.00798009
0.00878427
0.00964338
0.0105655
0.0115599
0.0126371
0.0138087
0.0150877
0.0164878
0.0180235
0.019709
0.0215571
0.0235783
0.0257795
0.0281702
0.0307988
0.033912
0.0383551
0.043304
0.043304
-0.0209359
-0.0209359
-0.015301
-0.0117921
-0.00984811
-0.00845182
-0.00730508
-0.00631793
-0.00544963
-0.00467345
-0.00396913
-0.00332065
-0.00271518
-0.00214224
-0.00159322
-0.00106098
-0.000539467
-2.35593e-05
0.000491186
0.00100867
0.0015324
0.0020656
0.00261132
0.00317253
0.00375225
0.00435361
0.00497997
0.00563506
0.00632302
0.0070486
0.00781721
0.00863512
0.00950952
0.0104487
0.0114621
0.0125605
0.0137558
0.0150611
0.0164905
0.0180586
0.0197798
0.021667
0.0237308
0.0259781
0.0284195
0.0311111
0.0343459
0.0392405
0.0464116
0.0464116
-0.0237046
-0.0237046
-0.0161056
-0.0122771
-0.0102635
-0.00883521
-0.00766574
-0.00666056
-0.00577772
-0.00498974
-0.00427582
-0.00361947
-0.00300745
-0.00242897
-0.00187514
-0.00133855
-0.000812982
-0.000293113
0.000225644
0.000747323
0.00127554
0.00181363
0.00236471
0.00293187
0.00351818
0.00412686
0.00476136
0.00542548
0.00612348
0.00686018
0.00764114
0.00847275
0.00936236
0.0103184
0.0113506
0.0124697
0.013688
0.0150188
0.0164763
0.0180754
0.0198304
0.0217546
0.0238581
0.0261482
0.0286362
0.031386
0.034736
0.0400891
0.0498966
0.0498966
-0.0268639
-0.0268639
-0.0169214
-0.0127778
-0.0106994
-0.00924138
-0.00805076
-0.00702894
-0.00613281
-0.00533421
-0.00461176
-0.00394854
-0.00333089
-0.0027477
-0.00218979
-0.00164951
-0.00112041
-0.000597018
-7.4567e-05
0.000451113
0.000983763
0.00152682
0.00208351
0.00265701
0.00325048
0.00386724
0.00451082
0.00518513
0.00589451
0.00664394
0.00743907
0.00828645
0.00919358
0.0101691
0.0112228
0.0123658
0.0136105
0.0149703
0.0164597
0.0180935
0.0198863
0.021851
0.0239979
0.0263337
0.0288706
0.031679
0.0351414
0.0409553
0.0538756
0.0538756
-0.0305468
-0.0305468
-0.0178143
-0.0133715
-0.0112368
-0.00975491
-0.00854857
-0.00751549
-0.00661135
-0.00580724
-0.00508113
-0.00441556
-0.00379641
-0.00321215
-0.00265325
-0.00211175
-0.00158094
-0.00105508
-0.000529197
1.07287e-06
0.000539648
0.00109012
0.0016559
0.00224027
0.00284657
0.00347826
0.00413904
0.00483297
0.00556461
0.00633912
0.0071624
0.00804124
0.00898342
0.00999785
0.0110946
0.0122852
0.0135821
0.0149991
0.0165508
0.0182519
0.0201168
0.0221579
0.0243844
0.0268019
0.0294217
0.0323187
0.0359142
0.0421989
0.0587823
0.0587823
-0.0352657
-0.0352657
-0.0192254
-0.0145218
-0.0123552
-0.0108724
-0.0096739
-0.00865318
-0.007764
-0.00697592
-0.00626568
-0.00561471
-0.00500795
-0.00443305
-0.00387978
-0.00333958
-0.00280518
-0.00227042
-0.00172991
-0.00117894
-0.000613276
-2.90375e-05
0.000577452
0.00120978
0.00187155
0.00256654
0.0032988
0.00407279
0.00489348
0.00576653
0.0066984
0.00769647
0.00876915
0.00992601
0.0111778
0.0125365
0.0140152
0.0156277
0.0173886
0.0193118
0.0214104
0.0236945
0.0261696
0.0288362
0.0316992
0.0348302
0.0386764
0.0454999
0.0663929
0.0663929
-0.0434411
-0.0434411
-0.0235246
-0.0186583
-0.0165421
-0.0151424
-0.0140339
-0.0131011
-0.0122919
-0.0115713
-0.0109124
-0.0102938
-0.00969839
-0.00911209
-0.00852353
-0.00792331
-0.00730368
-0.00665812
-0.00598111
-0.00526789
-0.00451419
-0.00371611
-0.00286993
-0.00197189
-0.0010181
-4.39138e-06
0.0010739
0.002222
0.00344588
0.00475238
0.0061493
0.00764553
0.0092511
0.0109772
0.0128359
0.0148406
0.0170047
0.0193421
0.0218655
0.0245855
0.0275092
0.0306373
0.0339618
0.0374648
0.0411272
0.0449938
0.0495048
0.0571349
0.0831179
0.0831179
-0.0654896
-0.0654896
-0.0411782
-0.0363418
-0.0344178
-0.0331981
-0.0322145
-0.0313316
-0.0304866
-0.0296397
-0.0287627
-0.0278359
-0.0268454
-0.0257815
-0.0246378
-0.0234099
-0.0220946
-0.0206898
-0.0191934
-0.0176037
-0.0159184
-0.0141348
-0.0122492
-0.0102572
-0.00815343
-0.00593101
-0.00358194
-0.00109678
0.0015354
0.00432702
0.00729198
0.0104456
0.0138044
0.0173858
0.0212077
0.0252876
0.0296417
0.034283
0.0392196
0.0444517
0.0499677
0.0557396
0.0617179
0.0678263
0.0739691
0.0800945
0.086542
0.0958484
0.127913
0.127913
-0.142556
-0.142556
-0.112552
-0.106229
-0.102364
-0.0987777
-0.0950961
-0.0912806
-0.0873521
-0.0833388
-0.0792668
-0.0751573
-0.0710267
-0.0668863
-0.0627427
-0.0585982
-0.054451
-0.0502959
-0.0461239
-0.041923
-0.0376778
-0.0333695
-0.0289766
-0.0244737
-0.0198322
-0.0150199
-0.0100008
-0.00473499
0.000821562
0.00671684
0.0130028
0.0197352
0.0269726
0.0347761
0.0432073
0.0523265
0.0621893
0.0728422
0.0843169
0.0966217
0.109731
0.12357
0.138001
0.152795
0.167629
0.182115
0.196131
0.211694
0.253074
0.253074
-0.497856
-0.497856
-0.418092
-0.358246
-0.311189
-0.272409
-0.239845
-0.212188
-0.188481
-0.167994
-0.150156
-0.134511
-0.120695
-0.10841
-0.0974105
-0.0874922
-0.0784821
-0.0702316
-0.0626114
-0.0555066
-0.0488131
-0.0424342
-0.036278
-0.0302545
-0.0242733
-0.018241
-0.0120585
-0.00561851
0.00119777
0.00852358
0.0165104
0.0253321
0.0351892
0.046314
0.0589758
0.0734862
0.0902047
0.109543
0.131967
0.157998
0.18821
0.223215
0.263642
0.31011
0.363184
0.423379
0.491414
0.57018
0.667862
0.667862
-0.497856
-0.497856
-0.418092
-0.358246
-0.311189
-0.272409
-0.239845
-0.212188
-0.188481
-0.167994
-0.150156
-0.134511
-0.120695
-0.10841
-0.0974105
-0.0874922
-0.0784821
-0.0702316
-0.0626114
-0.0555066
-0.0488131
-0.0424342
-0.036278
-0.0302545
-0.0242733
-0.018241
-0.0120585
-0.00561851
0.00119777
0.00852358
0.0165104
0.0253321
0.0351892
0.046314
0.0589758
0.0734862
0.0902047
0.109543
0.131967
0.157998
0.18821
0.223215
0.263642
0.31011
0.363184
0.423379
0.491414
0.57018
0.667862
0.667862
VECTORS velocity double
-3.14744e-05 3.14743e-05 0.0
3.14744e-05 -3.14743e-05 0.0
0.00027476 -0.000211811 0.0
0.000746183 -0.000259612 0.0
0.00125796 -0.00025216 0.0
0.0017417 -0.000231581 0.0
0.0021839 -0.000210621 0.0
0.00258625 -0.000191733 0.0
0.00295295 -0.000174961 0.0
0.00328788 -0.000159974 0.0
0.00359432 -0.000146462 0.0
0.00387495 -0.000134166 0.0
0.00413199 -0.000122879 0.0
0.0043673 -0.000112433 0.0
0.00458242 -0.000102687 0.0
0.00477863 -9.35218e-05 0.0
0.00495699 -8.48369e-05 0.0
0.00511837 -7.6544e-05 0.0
0.00526348 -6.8565e-05 0.0
0.00539287 -6.08298e-05 0.0
0.00550698 -5.32737e-05 0.0
0.00560609 -4.58362e-05 0.0
0.00569038 -3.84594e-05 0.0
0.00575993 -3.10865e-05 0.0
0.00581468 -2.36608e-05 0.0
0.00585446 -1.61243e-05 0.0
0.005879 -8.41666e-06 0.0
0.00588789 -4.73606e-07 0.0
0.00588059 7.77415e-06 0.0
0.00585642 1.64026e-05 0.0
0.00581452 2.54962e-05 0.0
0.00575387 3.51496e-05 0.0
0.00567325 4.54701e-05 0.0
0.0055712 5.65799e-05 0.0
0.005446 6.86188e-05 0.0
0.00529564 8.17472e-05 0.0
0.00511774 9.61491e-05 0.0
0.00490956 0.000112035 0.0
0.00466788 0.000129644 0.0
0.00438899 0.000149246 0.0
0.0040686 0.000171142 0.0
0.0037018 0.000195657 0.0
0.00328302 0.000223117 0.0
0.00280617 0.000253737 0.0
0.0022654 0.000287037 0.0
0.00165915 0.000319208 0.0
0.00100629 0.000333654 0.0
0.000394264 0.000278374 0.0
5.79447e-05 5.79447e-05 0.0
-5.79447e-05 -5.79447e-05 0.0
3.14744e-05 -3.14743e-05 0.0
-3.14744e-05 3.14743e-05 0.0
-0.00027476 0.000211811 0.0
-0.000746183 0.000259612 0.0
-0.00125796 0.00025216 0.0
-0.0017417 0.000231581 0.0
-0.0021839 0.000210621 0.0
-0.00258625 0.000191733 0.0
-0.00295295 0.000174961 0.0
-0.00328788 0.000159974 0.0
-0.00359432 0.000146462 0.0
-0.00387495 0.000134166 0.0
-0.00413199 0.000122879 0.0
-0.0043673 0.000112433 0.0
-0.00458242 0.000102687 0.0
-0.00477863 9.35218e-05 0.0
-0.00495699 8.48369e-05 0.0
-0.00511837 7.6544e-05 0.0
-0.00526348 6.8565e-05 0.0
-0.00539287 6.08298e-05 0.0
-0.00550698 5.32737e-05 0.0
-0.00560609 4.58362e-05 0.0
-0.00569038 3.84594e-05 0.0
-0.00575993 3.10865e-05 0.0
-0.00581468 2.36608e-05 0.0
-0.00585446 1.61243e-05 0.0
-0.005879 8.41666e-06 0.0
-0.00588789 4.73606e-07 0.0
-0.00588059 -7.77415e-06 0.0
-0.00585642 -1.64026e-05 0.0
-0.00581452 -2.54962e-05 0.0
-0.00575387 -3.51496e-05 0.0
-0.00567325 -4.54701e-05 0.0
-0.0055712 -5.65799e-05 0.0
-0.005446 -6.86188e-05 0.0
-0.00529564 -8.17472e-05 0.0
-0.00511774 -9.61491e-05 0.0
-0.00490956 -0.000112035 0.0
-0.00466788 -0.000129644 0.0
-0.00438899 -0.000149246 0.0
-0.0040686 -0.000171142 0.0
-0.0037018 -0.000195657 0.0
-0.00328302 -0.000223117 0.0
-0.00280617 -0.000253737 0.0
-0.0022654 -0.000287037 0.0
-0.00165915 -0.000319208 0.0
-0.00100629 -0.000333654 0.0
-0.000394264 -0.000278374 0.0
-5.79447e-05 -5.79447e-05 0.0
5.79447e-05 5.79447e-05 0.0
0.000152135 -0.000215083 0.0
-0.000152135 0.000215083 0.0
-0.000639351 0.000758703 0.0
-0.00135766 0.000902456 0.0
-0.00211569 0.000879112 0.0
-0.0028426 0.000815282 0.0
-0.00352288 0.000749408 0.0
-0.00415661 0.000689027 0.0
-0.00474665 0.000634402 0.0
-0.00529584 0.000584664 0.0
-0.0058066 0.00053896 0.0
-0.00628089 0.000496594 0.0
-0.0067204 0.000457003 0.0
-0.0071265 0.000419724 0.0
-0.00750036 0.000384372 0.0
-0.00784294 0.000350621 0.0
-0.00815503 0.000318189 0.0
-0.00843729 0.000286829 0.0
-0.00869021 0.000256319 0.0
-0.0089142 0.000226457 0.0
-0.00910951 0.000197056 0.0
-0.00927628 0.000167937 0.0
-0.00941456 0.00013893 0.0
-0.00952426 0.000109862 0.0
-0.00960519 8.05649e-05 0.0
-0.00965705 5.0862e-05 0.0
-0.0096794 2.05706e-05 0.0
-0.00967168 -1.05032e-05 0.0
-0.00963321 -4.25683e-05 0.0
-0.00956315 -7.58528e-05 0.0
-0.00946048 -0.000110608 0.0
-0.00932405 -0.000147115 0.0
-0.00915249 -0.000185687 0.0
-0.00894422 -0.000226681 0.0
-0.00869744 -0.0002705 0.0
-0.00841007 -0.000317602 0.0
-0.00807975 -0.00036851 0.0
-0.00770379 -0.000423812 0.0
-0.00727917 -0.000484175 0.0
-0.00680243 -0.000550337 0.0
-0.00626976 -0.000623111 0.0
-0.00567689 -0.000703358 0.0
-0.00501917 -0.000791916 0.0
-0.00429171 -0.000889253 0.0
-0.0034903 -0.000993703 0.0
-0.00261551 -0.00109357 0.0
-0.00168891 -0.00113875 0.0
-0.000801357 -0.000972855 0.0
-0.000192625 -0.000308514 0.0
0.000192625 0.000308514 0.0
0.000185439 -0.000552657 0.0
-0.000185439 0.000552657 0.0
-0.000741725 0.00146463 0.0
-0.00153118 0.00170429 0.0
-0.00235913 0.00166325 0.0
-0.00315424 0.00155316 0.0
-0.00390082 0.00143839 0.0
-0.00459878 0.00133172 0.0
-0.00525081 0.00123378 0.0
-0.00585957 0.00114325 0.0
-0.00642727 0.00105883 0.0
-0.00695574 0.000979482 0.0
-0.00744644 0.000904329 0.0
-0.00790062 0.000832672 0.0
-0.00831926 0.000763925 0.0
-0.0087032 0.000697586 0.0
-0.00905311 0.000633222 0.0
-0.0093695 0.000570449 0.0
-0.0096528 0.00050892 0.0
-0.00990327 0.000448316 0.0
-0.0101211 0.000388338 0.0
-0.0103064 0.0003287 0.0
-0.0104591 0.000269123 0.0
-0.010579 0.000209329 0.0
-0.010666 0.000149037 0.0
-0.0107197 8.7958e-05 0.0
-0.0107397 2.57909e-05 0.0
-0.0107253 -3.77849e-05 0.0
-0.010676 -0.000103114 0.0
-0.0105908 -0.00017057 0.0
-0.0104688 -0.000240566 0.0
-0.0103088 -0.000313557 0.0
-0.0101096 -0.000390053 0.0
-0.00986953 -0.000470626 0.0
-0.00958694 -0.000555922 0.0
-0.00925982 -0.000646669 0.0
-0.0088859 -0.000743689 0.0
-0.00846258 -0.000847906 0.0
-0.00798694 -0.000960349 0.0
-0.00745568 -0.00108215 0.0
-0.00686509 -0.00121455 0.0
-0.00621106 -0.00135882 0.0
-0.00548907 -0.00151617 0.0
-0.0046944 -0.00168713 0.0
-0.003823 -0.00186864 0.0
-0.0028756 -0.00204083 0.0
-0.00187405 -0.00211964 0.0
-0.000910083 -0.00184348 0.0
-0.000227783 -0.000728922 0.0
0.000227783 0.000728922 0.0
0.00019404 -0.000932136 0.0
-0.00019404 0.000932136 0.0
-0.000770478 0.00221788 0.0
-0.00158278 0.00255279 0.0
-0.00243265 0.00249257 0.0
-0.00324833 0.00233465 0.0
-0.00401425 0.00216941 0.0
-0.00473044 0.00201485 0.0
-0.00539967 0.00187191 0.0
-0.00602466 0.00173886 0.0
-0.00660766 0.00161393 0.0
-0.0071505 0.00149569 0.0
-0.00765468 0.001383 0.0
-0.00812142 0.00127491 0.0
-0.00855171 0.00117063 0.0
-0.00894639 0.0010695 0.0
-0.00930609 0.000970922 0.0
-0.00963134 0.000874395 0.0
-0.00992253 0.00077945 0.0
-0.0101799 0.000685656 0.0
-0.0104037 0.00059261 0.0
-0.0105939 0.000499921 0.0
-0.0107506 0.00040721 0.0
-0.0108734 0.000314098 0.0
-0.0109624 0.0002202 0.0
-0.011017 0.000125119 0.0
-0.0110368 2.84407e-05 0.0
-0.0110213 -7.02761e-05 0.0
-0.0109698 -0.000171505 0.0
-0.0108814 -0.000275763 0.0
-0.0107552 -0.000383615 0.0
-0.01059 -0.000495689 0.0
-0.0103845 -0.000612684 0.0
-0.0101371 -0.000735387 0.0
-0.00984618 -0.00086468 0.0
-0.00950965 -0.00100156 0.0
-0.00912523 -0.00114715 0.0
-0.0086903 -0.0013027 0.0
-0.00820189 -0.00146961 0.0
-0.00765663 -0.00164942 0.0
-0.00705073 -0.00184377 0.0
-0.00637999 -0.00205438 0.0
-0.00563976 -0.00228283 0.0
-0.00482517 -0.00252973 0.0
-0.00393202 -0.00279061 0.0
-0.00296087 -0.00303741 0.0
-0.00193355 -0.00315192 0.0
-0.000942639 -0.00276608 0.0
-0.000237277 -0.00119398 0.0
0.000237277 0.00119398 0.0
0.000197552 -0.00132373 0.0
-0.000197552 0.00132373 0.0
-0.000784341 0.00298951 0.0
-0.00161004 0.00341916 0.0
-0.00247223 0.00333826 0.0
-0.00329872 0.00313113 0.0
-0.00407413 0.00291425 0.0
-0.00479873 0.00271078 0.0
-0.00547548 0.00252196 0.0
-0.00610724 0.00234556 0.0
-0.00669636 0.00217935 0.0
-0.00724477 0.00202152 0.0
-0.00775402 0.00187061 0.0
-0.00822539 0.00172542 0.0
-0.00865993 0.00158496 0.0
-0.00905849 0.00144839 0.0
-0.00942174 0.00131498 0.0
-0.00975023 0.00118408 0.0
-0.0100444 0.00105509 0.0
-0.0103044 0.000927482 0.0
-0.0105306 0.00080074 0.0
-0.010723 0.000674374 0.0
-0.0108815 0.000547901 0.0
-0.011006 0.000420841 0.0
-0.0110963 0.000292705 0.0
-0.0111521 0.000162988 0.0
-0.0111729 3.11616e-05 0.0
-0.011158 -0.000103337 0.0
-0.0111069 -0.000241112 0.0
-0.0110186 -0.000382822 0.0
-0.0108922 -0.000529192 0.0
-0.0107265 -0.000681023 0.0
-0.0105201 -0.000839211 0.0
-0.0102716 -0.00100476 0.0
-0.00997903 -0.0011788 0.0
-0.0096404 -0.00136261 0.0
-0.00925331 -0.00155761 0.0
-0.00881506 -0.00176541 0.0
-0.00832256 -0.0019878 0.0
-0.00777231 -0.00222673 0.0
-0.00716036 -0.0024843 0.0
-0.00648228 -0.00276267 0.0
-0.00573322 -0.00306383 0.0
-0.00490804 -0.00338849 0.0
-0.00400224 -0.00373081 0.0
-0.00301611 -0.00405449 0.0
-0.00197138 -0.00420688 0.0
-0.00096164 -0.00371177 0.0
-0.000242019 -0.00167328 0.0
0.000242019 0.00167328 0.0
0.000200927 -0.00172221 0.0
-0.000200927 0.00172221 0.0
-0.000798163 0.00377506 0.0
-0.00163765 0.0042988 0.0
-0.00251227 0.00419543 0.0
-0.00334933 0.00393751 0.0
-0.00413373 0.0036677 0.0
-0.00486606 0.00341426 0.0
-0.0055495 0.00317868 0.0
-0.0061871 0.0029582 0.0
-0.00678137 0.0027501 0.0
-0.00733434 0.00255215 0.0
-0.00784767 0.00236256 0.0
-0.00832272 0.00217988 0.0
-0.00876059 0.0020029 0.0
-0.00916218 0.0018306 0.0
-0.00952822 0.00166207 0.0
-0.00985928 0.00149654 0.0
-0.0101558 0.00133328 0.0
-0.0104181 0.00117164 0.0
-0.0106463 0.00101101 0.0
-0.0108406 0.000850775 0.0
-0.011001 0.000690357 0.0
-0.0111272 0.000529171 0.0
-0.0112192 0.00036662 0.0
-0.0112764 0.00020209 0.0
-0.0112985 3.49337e-05 0.0
-0.011285 -0.000135535 0.0
-0.011235 -0.000310058 0.0
-0.0111477 -0.00048944 0.0
-0.0110221 -0.000674569 0.0
-0.010857 -0.000866431 0.0
-0.010651 -0.00106612 0.0
-0.0104025 -0.00127488 0.0
-0.0101097 -0.0014941 0.0
-0.00977028 -0.00172534 0.0
-0.00938188 -0.00197036 0.0
-0.00894164 -0.00223115 0.0
-0.00844631 -0.00250989 0.0
-0.0078922 -0.002809 0.0
-0.00727515 -0.00313105 0.0
-0.00659047 -0.00347868 0.0
-0.00583301 -0.00385434 0.0
-0.0049973 -0.00425887 0.0
-0.00407844 -0.00468508 0.0
-0.00307638 -0.00508841 0.0
-0.0020127 -0.00528137 0.0
-0.000982235 -0.00467749 0.0
-0.000247061 -0.00216236 0.0
0.000247061 0.00216236 0.0
0.000205229 -0.00212836 0.0
-0.000205229 0.00212836 0.0
-0.000815145 0.00457606 0.0
-0.0016709 0.00519304 0.0
-0.00256013 0.00506503 0.0
-0.00340955 0.0047544 0.0
-0.00420445 0.00443011 0.0
-0.00494574 0.00412546 0.0
-0.00563692 0.0038421 0.0
-0.00628126 0.00357672 0.0
-0.00688144 0.00332603 0.0
-0.00743963 0.00308738 0.0
-0.00795762 0.00285864 0.0
-0.00843685 0.00263807 0.0
-0.0088785 0.00242423 0.0
-0.00928355 0.0022159 0.0
-0.00965276 0.00201202 0.0
-0.00998675 0.00181164 0.0
-0.010286 0.00161394 0.0
-0.0105509 0.00141812 0.0
-0.0107815 0.00122345 0.0
-0.0109781 0.00102922 0.0
-0.0111406 0.000834748 0.0
-0.0112689 0.000639328 0.0
-0.0113628 0.000442258 0.0
-0.0114219 0.000242808 0.0
-0.0114457 4.02097e-05 0.0
-0.0114338 -0.000166353 0.0
-0.0113852 -0.000377762 0.0
-0.0112993 -0.000594979 0.0
-0.0111748 -0.000819063 0.0
-0.0110107 -0.00105119 0.0
-0.0108053 -0.00129268 0.0
-0.0105572 -0.001545 0.0
-0.0102642 -0.00180983 0.0
-0.0099241 -0.00208905 0.0
-0.00953438 -0.00238477 0.0
-0.00909201 -0.00269936 0.0
-0.00859354 -0.00303548 0.0
-0.00803506 -0.003396 0.0
-0.00741215 -0.00378402 0.0
-0.0067198 -0.00420273 0.0
-0.0059525 -0.00465505 0.0
-0.00510436 -0.00514201 0.0
-0.00417006 -0.00565509 0.0
-0.0031491 -0.00614143 0.0
-0.00206287 -0.00637826 0.0
-0.00100764 -0.0056663 0.0
-0.000253469 -0.00266289 0.0
0.000253469 0.00266289 0.0
0.000210677 -0.00254427 0.0
-0.000210677 0.00254427 0.0
-0.000835945 0.00539534 0.0
-0.00171089 0.00610447 0.0
-0.00261728 0.00594922 0.0
-0.00348125 0.00558361 0.0
-0.00428849 0.00520303 0.0
-0.00504036 0.0048457 0.0
-0.00574068 0.00451337 0.0
-0.00639298 0.00420209 0.0
-0.00700015 0.003908 0.0
-0.00756453 0.00362799 0.0
-0.00808803 0.00335953 0.0
-0.00857222 0.0031006 0.0
-0.00901837 0.00284951 0.0
-0.00942751 0.00260482 0.0
-0.0098005 0.00236529 0.0
-0.010138 0.00212985 0.0
-0.0104405 0.00189749 0.0
-0.0107084 0.00166731 0.0
-0.0109419 0.00143845 0.0
-0.0111412 0.0012101 0.0
-0.0113063 0.00098144 0.0
-0.011437 0.000751671 0.0
-0.0115332 0.00051997 0.0
-0.0115945 0.000285485 0.0
-0.0116204 4.73241e-05 0.0
-0.0116104 -0.000195467 0.0
-0.0115636 -0.000443919 0.0
-0.0114792 -0.000699155 0.0
-0.0113561 -0.000962416 0.0
-0.0111931 -0.00123508 0.0
-0.0109885 -0.0015187 0.0
-0.0107407 -0.00181501 0.0
-0.0104475 -0.00212597 0.0
-0.0101067 -0.00245381 0.0
-0.00971536 -0.00280102 0.0
-0.00927044 -0.00317041 0.0
-0.00876824 -0.0035651 0.0
-0.00820458 -0.0039885 0.0
-0.00757472 -0.00444429 0.0
-0.00687329 -0.00493624 0.0
-0.00609435 -0.00546778 0.0
-0.00523156 -0.00604021 0.0
-0.00427905 -0.00664369 0.0
-0.00323581 -0.00721703 0.0
-0.00212302 -0.00750167 0.0
-0.00103855 -0.00668259 0.0
-0.000261476 -0.00317783 0.0
0.000261476 0.00317783 0.0
0.000217342 -0.00297229 0.0
-0.000217342 0.00297229 0.0
-0.000860772 0.00623602 0.0
-0.00175793 0.00703589 0.0
-0.00268413 0.00685038 0.0
-0.00356489 0.00642718 0.0
-0.0043864 0.00598821 0.0
-0.00515052 0.00557651 0.0
-0.00586144 0.00519381 0.0
-0.00652298 0.00483549 0.0
-0.00713828 0.00449706 0.0
-0.00770987 0.00417489 0.0
-0.00823981 0.00386607 0.0
-0.00872979 0.00356823 0.0
-0.00918119 0.00327942 0.0
-0.00959513 0.00299799 0.0
-0.00997252 0.0027225 0.0
-0.0103141 0.00245169 0.0
-0.0106204 0.00218444 0.0
-0.0108918 0.00191969 0.0
-0.0111287 0.00165647 0.0
-0.0113312 0.00139383 0.0
-0.0114992 0.00113084 0.0
-0.0116328 0.000866588 0.0
-0.0117317 0.000600121 0.0
-0.0117955 0.000330467 0.0
-0.0118239 5.65972e-05 0.0
-0.0118161 -0.000222584 0.0
-0.0117713 -0.000508262 0.0
-0.0116888 -0.000801735 0.0
-0.0115673 -0.00110444 0.0
-0.0114055 -0.00141797 0.0
-0.0112017 -0.00174411 0.0
-0.0109543 -0.0020849 0.0
-0.0106609 -0.00244261 0.0
-0.0103191 -0.00281982 0.0
-0.00992595 -0.00321946 0.0
-0.00947804 -0.00364479 0.0
-0.00897148 -0.00409947 0.0
-0.00840178 -0.00458749 0.0
-0.00776382 -0.00511313 0.0
-0.00705184 -0.00568081 0.0
-0.0062594 -0.00629458 0.0
-0.00537962 -0.006956 0.0
-0.00440605 -0.00765398 0.0
-0.00333708 -0.00831895 0.0
-0.00219361 -0.00865601 0.0
-0.00107525 -0.00773109 0.0
-0.000271177 -0.00371049 0.0
0.000271177 0.00371049 0.0
0.00022528 -0.00341491 0.0
-0.00022528 0.00341491 0.0
-0.000889785 0.00710133 0.0
-0.00181224 0.00799019 0.0
-0.00276092 0.00777096 0.0
-0.00366074 0.0072872 0.0
-0.00449847 0.00678744 0.0
-0.00527653 0.00631944 0.0
-0.00599953 0.0058848 0.0
-0.00667164 0.00547815 0.0
-0.00729623 0.0050943 0.0
-0.00787607 0.00472908 0.0
-0.00841338 0.00437914 0.0
-0.00891 0.00404176 0.0
-0.00936742 0.00371471 0.0
-0.00978686 0.00339608 0.0
-0.0101693 0.00308424 0.0
-0.0105156 0.00277776 0.0
-0.0108262 0.00247533 0.0
-0.0111018 0.00217578 0.0
-0.0113425 0.00187798 0.0
-0.0115486 0.00158086 0.0
-0.0117201 0.00128338 0.0
-0.0118569 0.000984477 0.0
-0.0119589 0.000683088 0.0
-0.0120257 0.000378104 0.0
-0.0120567 6.83573e-05 0.0
-0.0120515 -0.000247401 0.0
-0.0120091 -0.000570521 0.0
-0.0119286 -0.000902486 0.0
-0.0118089 -0.00124494 0.0
-0.0116485 -0.0015997 0.0
-0.0114458 -0.00196884 0.0
-0.0111987 -0.00235467 0.0
-0.0109051 -0.00275984 0.0
-0.0105622 -0.0031873 0.0
-0.0101669 -0.00364045 0.0
-0.00971552 -0.00412305 0.0
-0.00920395 -0.00463934 0.0
-0.00862732 -0.00519395 0.0
-0.00798011 -0.00579184 0.0
-0.00725607 -0.00643813 0.0
-0.00644823 -0.00713753 0.0
-0.0055491 -0.00789196 0.0
-0.00455156 -0.00868913 0.0
-0.00345334 -0.009451 0.0
-0.002275 -0.00984577 0.0
-0.00111801 -0.00881667 0.0
-0.000282663 -0.00426433 0.0
0.000282663 0.00426433 0.0
0.000234559 -0.00387475 0.0
-0.000234559 0.00387475 0.0
-0.000923164 0.0079946 0.0
-0.00187407 0.00897028 0.0
-0.00284792 0.0087134 0.0
-0.00376908 0.00816574 0.0
-0.004625 0.00760256 0.0
-0.00541871 0.00707609 0.0
-0.0061553 0.00658774 0.0
-0.00683929 0.0061313 0.0
-0.00747436 0.00570082 0.0
-0.0080635 0.00529154 0.0
-0.00860914 0.00489963 0.0
-0.00911326 0.00452201 0.0
-0.00957749 0.00415611 0.0
-0.0100032 0.00379978 0.0
-0.0103913 0.00345117 0.0
-0.0107429 0.00310863 0.0
-0.0110585 0.00277072 0.0
-0.0113386 0.00243609 0.0
-0.0115837 0.00210347 0.0
-0.0117939 0.00177166 0.0
-0.0119693 0.00143949 0.0
-0.0121099 0.00110575 0.0
-0.0122153 0.000769262 0.0
-0.0122854 0.000428765 0.0
-0.0123196 8.29463e-05 0.0
-0.0123172 -0.000269604 0.0
-0.0122775 -0.000630414 0.0
-0.0121994 -0.00100116 0.0
-0.0120817 -0.00138371 0.0
-0.0119229 -0.00178014 0.0
-0.0117212 -0.0021928 0.0
-0.0114746 -0.00262433 0.0
-0.0111807 -0.00307775 0.0
-0.0108365 -0.00355646 0.0
-0.0104388 -0.00406434 0.0
-0.00998357 -0.00460573 0.0
-0.00946634 -0.00518547 0.0
-0.00888189 -0.0058089 0.0
-0.00822424 -0.00648174 0.0
-0.00748662 -0.00720988 0.0
-0.00666146 -0.00799877 0.0
-0.00574057 -0.00885074 0.0
-0.00471612 -0.00975234 0.0
-0.00358509 -0.010617 0.0
-0.00236762 -0.0110755 0.0
-0.00116712 -0.0099444 0.0
-0.000296039 -0.00484303 0.0
0.000296039 0.00484303 0.0
0.000245258 -0.00435456 0.0
-0.000245258 0.00435456 0.0
-0.00096112 0.00891925 0.0
-0.00194369 0.0099791 0.0
-0.00294543 0.00968016 0.0
-0.00389023 0.00906494 0.0
-0.00476633 0.00843538 0.0
-0.00557742 0.00784807 0.0
-0.00632911 0.00730406 0.0
-0.00702633 0.00679619 0.0
-0.00767308 0.00631774 0.0
-0.0082726 0.00586327 0.0
-0.00882753 0.00542846 0.0
-0.00934003 0.0050098 0.0
-0.00981187 0.00460439 0.0
-0.0102445 0.00420979 0.0
-0.0106391 0.00382392 0.0
-0.0109966 0.00344492 0.0
-0.0113177 0.00307117 0.0
-0.011603 0.00270115 0.0
-0.011853 0.00233344 0.0
-0.0120678 0.00196671 0.0
-0.0122476 0.00159961 0.0
-0.0123923 0.00123084 0.0
-0.0125017 0.000859046 0.0
-0.0125754 0.000482831 0.0
-0.0126131 0.000100722 0.0
-0.012614 -0.000288863 0.0
-0.0125772 -0.000687642 0.0
-0.0125018 -0.0010975 0.0
-0.0123863 -0.00152054 0.0
-0.0122293 -0.00195912 0.0
-0.0120289 -0.00241589 0.0
-0.0117828 -0.00289385 0.0
-0.0114886 -0.00339643 0.0
-0.011143 -0.00392751 0.0
-0.0107425 -0.0044915 0.0
-0.010283 -0.00509335 0.0
-0.00975944 -0.00573862 0.0
-0.00916627 -0.00643338 0.0
-0.00849698 -0.00718419 0.0
-0.00774423 -0.0079978 0.0
-0.00689978 -0.00888047 0.0
-0.00595469 -0.00983502 0.0
-0.00490034 -0.0108469 0.0
-0.00373287 -0.011821 0.0
-0.00247194 -0.0123499 0.0
-0.00122292 -0.0111195 0.0
-0.000311431 -0.0054505 0.0
0.000311431 0.0054505 0.0
0.000257472 -0.00485729 0.0
-0.000257472 0.00485729 0.0
-0.00100389 0.00987881 0.0
-0.00202141 0.0110196 0.0
-0.00305378 0.0106738 0.0
-0.00402454 0.00998692 0.0
-0.00492281 0.00928776 0.0
-0.00575303 0.008637 0.0
-0.00652137 0.00803517 0.0
-0.00723319 0.00747411 0.0
-0.00789283 0.00694621 0.0
-0.00850383 0.00644532 0.0
-0.00906904 0.00596656 0.0
-0.00959082 0.00550598 0.0
-0.0100711 0.00506032 0.0
-0.0105114 0.00462683 0.0
-0.0109131 0.00420316 0.0
-0.0112772 0.00378725 0.0
-0.0116045 0.00337726 0.0
-0.0118956 0.00297151 0.0
-0.012151 0.00256842 0.0
-0.0123709 0.00216648 0.0
-0.0125555 0.00176423 0.0
-0.0127048 0.00136019 0.0
-0.0128186 0.000952864 0.0
-0.0128965 0.000540703 0.0
-0.012938 0.000122059 0.0
-0.0129425 -0.000304831 0.0
-0.012909 -0.000741886 0.0
-0.0128365 -0.00119122 0.0
-0.0127236 -0.0016552 0.0
-0.0125686 -0.00213646 0.0
-0.0123696 -0.002638 0.0
-0.0121242 -0.00316321 0.0
-0.0118296 -0.00371596 0.0
-0.0114825 -0.00430065 0.0
-0.011079 -0.00492228 0.0
-0.0106146 -0.00558648 0.0
-0.0100841 -0.00629956 0.0
-0.0094813 -0.00706844 0.0
-0.00879915 -0.00790057 0.0
-0.00802969 -0.00880365 0.0
-0.00716394 -0.00978483 0.0
-0.00619217 -0.0108475 0.0
-0.00510487 -0.011976 0.0
-0.0038973 -0.0130669 0.0
-0.00258851 -0.0136738 0.0
-0.0012858 -0.0123474 0.0
-0.000328986 -0.00609092 0.0
0.000328986 0.00609092 0.0
0.000271311 -0.00538607 0.0
-0.000271311 0.00538607 0.0
-0.00105177 0.0108769 0.0
-0.00210759 0.0120949 0.0
-0.00317336 0.0116967 0.0
-0.00417241 0.0109338 0.0
-0.00509486 0.0101616 0.0
-0.00594598 0.00944452 0.0
-0.00673254 0.00878255 0.0
-0.00746035 0.00816636 0.0
-0.00813413 0.00758738 0.0
-0.00875771 0.00703872 0.0
-0.00933422 0.00651488 0.0
-0.0098662 0.00601142 0.0
-0.0103557 0.0055247 0.0
-0.0108046 0.00505162 0.0
-0.0112141 0.00458957 0.0
-0.0115854 0.00413624 0.0
-0.0119195 0.00368959 0.0
-0.0122169 0.00324773 0.0
-0.0124783 0.00280892 0.0
-0.0127039 0.00237149 0.0
-0.0128938 0.00193381 0.0
-0.0130482 0.00149425 0.0
-0.0131668 0.00105116 0.0
-0.0132493 0.000602798 0.0
-0.0132951 0.000147353 0.0
-0.0133036 -0.000317137 0.0
-0.0132739 -0.000792811 0.0
-0.0132046 -0.00128203 0.0
-0.0130945 -0.00178743 0.0
-0.0129418 -0.00231196 0.0
-0.0127443 -0.002859 0.0
-0.0124996 -0.00343236 0.0
-0.0122046 -0.0040364 0.0
-0.0118558 -0.00467608 0.0
-0.0114491 -0.00535704 0.0
-0.0109795 -0.00608567 0.0
-0.0104413 -0.00686908 0.0
-0.00982792 -0.00771513 0.0
-0.00913167 -0.00863227 0.0
-0.00834387 -0.00962921 0.0
-0.00745478 -0.0107141 0.0
-0.0064538 -0.011891 0.0
-0.00533046 -0.0131432 0.0
-0.00407904 -0.0143587 0.0
-0.00271791 -0.0150519 0.0
-0.00135622 -0.0136337 0.0
-0.000348878 -0.00676878 0.0
0.000348878 0.00676878 0.0
0.000286904 -0.00594429 0.0
-0.000286904 0.00594429 0.0
-0.00110506 0.0119173 0.0
-0.00220262 0.0132079 0.0
-0.00330458 0.0127514 0.0
-0.00433426 0.0119078 0.0
-0.00528294 0.0110587 0.0
-0.00615675 0.0102723 0.0
-0.00696311 0.00954767 0.0
-0.00770832 0.00887426 0.0
-0.00839751 0.00824245 0.0
-0.00903483 0.00764455 0.0
-0.00962366 0.00707439 0.0
-0.0101668 0.00652702 0.0
-0.0106665 0.00599834 0.0
-0.0111246 0.00548493 0.0
-0.0115427 0.00498386 0.0
-0.011922 0.00449257 0.0
-0.0122634 0.00400877 0.0
-0.0125678 0.0035304 0.0
-0.0128358 0.00305552 0.0
-0.0130676 0.00258228 0.0
-0.0132634 0.00210888 0.0
-0.0134234 0.00163353 0.0
-0.0135473 0.00115439 0.0
-0.0136348 0.000669557 0.0
-0.0136854 0.00017702 0.0
-0.0136983 -0.000325395 0.0
-0.0136726 -0.00084006 0.0
-0.013607 -0.0013696 0.0
-0.0135 -0.00191695 0.0
-0.0133498 -0.00248542 0.0
-0.013154 -0.00307876 0.0
-0.0129101 -0.00370126 0.0
-0.0126148 -0.00435781 0.0
-0.0122642 -0.00505399 0.0
-0.0118539 -0.00579614 0.0
-0.0113786 -0.00659147 0.0
-0.0108321 -0.00744799 0.0
-0.0102072 -0.00837457 0.0
-0.00949551 -0.00938073 0.0
-0.00868773 -0.0104763 0.0
-0.00777322 -0.0116706 0.0
-0.00674043 -0.0129683 0.0
-0.0055779 -0.0143518 0.0
-0.00427886 -0.0157006 0.0
-0.00286082 -0.0164892 0.0
-0.00143467 -0.0149842 0.0
-0.000371304 -0.00748896 0.0
0.000371304 0.00748896 0.0
0.000304397 -0.00653559 0.0
-0.000304397 0.00653559 0.0
-0.00116412 0.0130039 0.0
-0.00230694 0.0143617 0.0
-0.00344789 0.0138405 0.0
-0.00451057 0.0129111 0.0
-0.00548753 0.0119811 0.0
-0.00638586 0.0111221 0.0
-0.00721363 0.010332 0.0
-0.00797769 0.00959915 0.0
-0.00868358 0.00891264 0.0
-0.00933581 0.00826391 0.0
-0.00993804 0.0076461 0.0
-0.0104933 0.00705368 0.0
-0.011004 0.0064821 0.0
-0.0114723 0.00592754 0.0
-0.0118997 0.00538676 0.0
-0.0122876 0.0048569 0.0
-0.0126372 0.00433546 0.0
-0.0129492 0.00382013 0.0
-0.0132243 0.00330879 0.0
-0.0134629 0.00279939 0.0
-0.0136652 0.00228996 0.0
-0.0138313 0.00177851 0.0
-0.013961 0.00126304 0.0
-0.014054 0.000741444 0.0
-0.0141098 0.0002115 0.0
-0.0141276 -0.000329191 0.0
-0.0141063 -0.000883252 0.0
-0.0140447 -0.0014536 0.0
-0.0139412 -0.00204348 0.0
-0.0137937 -0.00265659 0.0
-0.0135999 -0.00329712 0.0
-0.0133569 -0.00396985 0.0
-0.0130612 -0.00468025 0.0
-0.0127088 -0.00543457 0.0
-0.0122947 -0.00623996 0.0
-0.0118132 -0.00710446 0.0
-0.0112576 -0.00803711 0.0
-0.0106201 -0.00904786 0.0
-0.00989175 -0.0101474 0.0
-0.00906229 -0.0113469 0.0
-0.00812022 -0.0126566 0.0
-0.007053 -0.0140822 0.0
-0.00584808 -0.0156053 0.0
-0.00449755 -0.0170967 0.0
-0.00301797 -0.0179907 0.0
-0.00152175 -0.016405 0.0
-0.00039649 -0.00825676 0.0
0.00039649 0.00825676 0.0
0.000323958 -0.00716394 0.0
-0.000323958 0.00716394 0.0
-0.00122936 0.0141406 0.0
-0.00242104 0.0155594 0.0
-0.00360381 0.0149665 0.0
-0.00470187 0.0139458 0.0
-0.00570919 0.0129307 0.0
-0.00663386 0.0119955 0.0
-0.00748469 0.0111372 0.0
-0.00826908 0.0103424 0.0
-0.00899301 0.00959919 0.0
-0.00966135 0.00889793 0.0
-0.0102781 0.00823103 0.0
-0.0108464 0.00759235 0.0
-0.0113691 0.00697684 0.0
-0.0118483 0.00638026 0.0
-0.0122859 0.00579901 0.0
-0.0126833 0.00522996 0.0
-0.0130416 0.00467032 0.0
-0.0133619 0.00411756 0.0
-0.0136448 0.00356933 0.0
-0.0138908 0.00302341 0.0
-0.0141001 0.0024776 0.0
-0.0142729 0.00192975 0.0
-0.014409 0.00137763 0.0
-0.014508 0.000818949 0.0
-0.0145695 0.000251257 0.0
-0.0145926 -0.000328089 0.0
-0.0145762 -0.000921987 0.0
-0.014519 -0.00153366 0.0
-0.0144193 -0.00216671 0.0
-0.0142749 -0.00282524 0.0
-0.0140832 -0.0035139 0.0
-0.0138413 -0.00423804 0.0
-0.0135452 -0.00500375 0.0
-0.0131907 -0.00581803 0.0
-0.0127725 -0.00668885 0.0
-0.0122843 -0.00762523 0.0
-0.011719 -0.00863729 0.0
-0.0110679 -0.00973617 0.0
-0.0103215 -0.0109339 0.0
-0.00946866 -0.0122428 0.0
-0.00849684 -0.0136746 0.0
-0.00739249 -0.0152358 0.0
-0.00614192 -0.0169072 0.0
-0.004736 -0.0185512 0.0
-0.00319018 -0.0195616 0.0
-0.00161807 -0.0179025 0.0
-0.000424696 -0.00907794 0.0
0.000424696 0.00907794 0.0
0.000345778 -0.00783368 0.0
-0.000345778 0.00783368 0.0
-0.00130123 0.0153318 0.0
-0.00254544 0.0168042 0.0
-0.00377289 0.016132 0.0
-0.00490871 0.0150142 0.0
-0.00594848 0.0139094 0.0
-0.00690138 0.0128944 0.0
-0.00777694 0.0119647 0.0
-0.00858315 0.0111055 0.0
-0.00932648 0.0103034 0.0
-0.0100122 0.00954777 0.0
-0.0106445 0.00883026 0.0
-0.0112271 0.00814402 0.0
-0.0117627 0.00748347 0.0
-0.0122537 0.00684393 0.0
-0.0127023 0.00622142 0.0
-0.0131098 0.00561248 0.0
-0.0134777 0.00501405 0.0
-0.0138069 0.00442334 0.0
-0.0140983 0.00383779 0.0
-0.0143523 0.00325493 0.0
-0.0145693 0.00267239 0.0
-0.0147493 0.00208779 0.0
-0.0148924 0.00149869 0.0
-0.014998 0.000902588 0.0
-0.0150657 0.000296783 0.0
-0.0150946 -0.000321628 0.0
-0.0150836 -0.000955837 0.0
-0.0150312 -0.0016094 0.0
-0.0149356 -0.0022863 0.0
-0.0147945 -0.00299109 0.0
-0.0146053 -0.00372894 0.0
-0.0143645 -0.00450577 0.0
-0.0140682 -0.00532838 0.0
-0.0137115 -0.00620457 0.0
-0.0132888 -0.00714322 0.0
-0.0127935 -0.0081544 0.0
-0.0122176 -0.00924941 0.0
-0.011552 -0.0104407 0.0
-0.0107861 -0.0117416 0.0
-0.00990802 -0.013166 0.0
-0.00890421 -0.014727 0.0
-0.00775998 -0.016432 0.0
-0.00646044 -0.0182611 0.0
-0.00499518 -0.0200684 0.0
-0.00337833 -0.021207 0.0
-0.00172437 -0.0194831 0.0
-0.000456216 -0.00995885 0.0
0.000456216 0.00995885 0.0
0.000370073 -0.00854953 0.0
-0.000370073 0.00854953 0.0
-0.00138024 0.0165815 0.0
-0.00268075 0.0180991 0.0
-0.00395573 0.0173394 0.0
-0.00513171 0.0161185 0.0
-0.00620606 0.0149192 0.0
-0.00718906 0.0138205 0.0
-0.00809106 0.0128162 0.0
-0.00892065 0.0118898 0.0
-0.00968478 0.0110265 0.0
-0.0103891 0.0102146 0.0
-0.0110383 0.00944488 0.0
-0.011636 0.0087097 0.0
-0.0121856 0.00800293 0.0
-0.0126894 0.00731942 0.0
-0.0131498 0.00665479 0.0
-0.0135683 0.00600523 0.0
-0.0139465 0.00536738 0.0
-0.0142855 0.00473819 0.0
-0.014586 0.00411482 0.0
-0.0148487 0.00349461 0.0
-0.015074 0.00287495 0.0
-0.0152619 0.00225323 0.0
-0.0154125 0.0016268 0.0
-0.0155252 0.000992908 0.0
-0.0155997 0.000348596 0.0
-0.0156349 -0.000309319 0.0
-0.0156297 -0.00098435 0.0
-0.0155826 -0.00168041 0.0
-0.0154915 -0.00240192 0.0
-0.0153542 -0.00315388 0.0
-0.0151676 -0.00394203 0.0
-0.0149281 -0.00477295 0.0
-0.0146315 -0.00565418 0.0
-0.0142725 -0.00659438 0.0
-0.0138451 -0.00760345 0.0
-0.013342 -0.00869259 0.0
-0.0127548 -0.00987437 0.0
-0.0120735 -0.0111626 0.0
-0.0112868 -0.0125722 0.0
-0.0103816 -0.0141186 0.0
-0.00934351 -0.0158163 0.0
-0.00815659 -0.0176738 0.0
-0.00680472 -0.0196707 0.0
-0.00527611 -0.0216527 0.0
-0.00358339 -0.0229323 0.0
-0.00184145 -0.0211537 0.0
-0.000491384 -0.0109065 0.0
0.000491384 0.0109065 0.0
0.000397089 -0.00931669 0.0
-0.000397089 0.00931669 0.0
-0.00146695 0.0178944 0.0
-0.00282761 0.0194474 0.0
-0.00415299 0.0185915 0.0
-0.00537154 0.017261 0.0
-0.00648259 0.0159621 0.0
-0.00749763 0.0147755 0.0
-0.00842781 0.0136933 0.0
-0.00928236 0.0126969 0.0
-0.0100687 0.01177 0.0
-0.010793 0.0108998 0.0
-0.0114602 0.010076 0.0
-0.0120743 0.00929044 0.0
-0.0126388 0.0085362 0.0
-0.0131564 0.00780766 0.0
-0.0136295 0.00709999 0.0
-0.01406 0.00640903 0.0
-0.0144493 0.00573109 0.0
-0.0147987 0.00506282 0.0
-0.0151091 0.00440114 0.0
-0.0153812 0.00374312 0.0
-0.0156155 0.00308592 0.0
-0.015812 0.0024267 0.0
-0.0159707 0.00176256 0.0
-0.0160912 0.00109049 0.0
-0.016173 0.000407248 0.0
-0.0162151 -0.000290646 0.0
-0.0162162 -0.00100705 0.0
-0.0161748 -0.00174627 0.0
-0.0160887 -0.00251318 0.0
-0.0159554 -0.0033133 0.0
-0.0157717 -0.00415298 0.0
-0.0155336 -0.00503949 0.0
-0.0152367 -0.0059812 0.0
-0.0148753 -0.00698771 0.0
-0.0144429 -0.00806999 0.0
-0.0139315 -0.00924048 0.0
-0.0133321 -0.0105131 0.0
-0.012634 -0.0119033 0.0
-0.0118249 -0.0134274 0.0
-0.0108908 -0.0151027 0.0
-0.00981602 -0.0169451 0.0
-0.00858355 -0.0189644 0.0
-0.00717592 -0.0211396 0.0
-0.00557991 -0.0233085 0.0
-0.00380644 -0.0247428 0.0
-0.00197019 -0.0229214 0.0
-0.000530577 -0.0119284 0.0
0.000530577 0.0119284 0.0
0.000427104 -0.0101409 0.0
-0.000427104 0.0101409 0.0
-0.001562 0.019275 0.0
-0.00298674 0.0208523 0.0
-0.00436539 0.0198907 0.0
-0.00562892 0.0184438 0.0
-0.00677884 0.0170402 0.0
-0.00782786 0.0157615 0.0
-0.008788 0.0145977 0.0
-0.00966912 0.0135282 0.0
-0.0104792 0.0125352 0.0
-0.0112248 0.0116045 0.0
-0.0119113 0.0107249 0.0
-0.0125429 0.00988735 0.0
-0.0131235 0.00908432 0.0
-0.0136559 0.0083096 0.0
-0.0141427 0.00755793 0.0
-0.0145859 0.00682474 0.0
-0.0149872 0.00610598 0.0
-0.0153479 0.00539802 0.0
-0.015669 0.00469749 0.0
-0.0159513 0.00400118 0.0
-0.0161952 0.003306 0.0
-0.016401 0.00260887 0.0
-0.0165685 0.00190661 0.0
-0.0166974 0.00119593 0.0
-0.0167872 0.000473319 0.0
-0.0168367 -0.000265061 0.0
-0.0168447 -0.00102344 0.0
-0.0168095 -0.00180653 0.0
-0.0167288 -0.00261971 0.0
-0.0165999 -0.00346906 0.0
-0.0164193 -0.00436158 0.0
-0.0161828 -0.00530531 0.0
-0.0158856 -0.0063095 0.0
-0.0155217 -0.00738477 0.0
-0.0150838 -0.00854328 0.0
-0.0145635 -0.00979877 0.0
-0.0139511 -0.0111667 0.0
-0.013235 -0.012664 0.0
-0.0124019 -0.0143089 0.0
-0.0114369 -0.0161203 0.0
-0.0103231 -0.018116 0.0
-0.00904214 -0.0203069 0.0
-0.00757528 -0.0226716 0.0
-0.00590777 -0.02504 0.0
-0.00404861 -0.0266439 0.0
-0.00211158 -0.0247936 0.0
-0.000574221 -0.0130332 0.0
0.000574221 0.0130332 0.0
0.000460432 -0.0110284 0.0
-0.000460432 0.0110284 0.0
-0.0016661 0.020728 0.0
-0.00315892 0.0223168 0.0
-0.00459371 0.0212396 0.0
-0.00590464 0.0196694 0.0
-0.00709559 0.0181555 0.0
-0.00818057 0.0167802 0.0
-0.00917248 0.015531 0.0
-0.0100819 0.0143853 0.0
-0.0109172 0.0133235 0.0
-0.0116856 0.0123301 0.0
-0.0123926 0.0113928 0.0
-0.013043 0.0105016 0.0
-0.0136408 0.00964835 0.0
-0.0141891 0.00882627 0.0
-0.0146906 0.00802957 0.0
-0.0151475 0.00725326 0.0
-0.0155617 0.00649293 0.0
-0.0159345 0.00574462 0.0
-0.0162672 0.00500465 0.0
-0.0165604 0.00426954 0.0
-0.0168148 0.00353592 0.0
-0.0170305 0.00280043 0.0
-0.0172076 0.00205962 0.0
-0.0173456 0.0013099 0.0
-0.0174439 0.000547423 0.0
-0.0175015 -0.000231992 0.0
-0.017517 -0.00103298 0.0
-0.0174885 -0.00186072 0.0
-0.0174136 -0.0027211 0.0
-0.0172894 -0.00362084 0.0
-0.0171122 -0.00456763 0.0
-0.0168775 -0.00557033 0.0
-0.01658 -0.00663917 0.0
-0.0162133 -0.00778586 0.0
-0.0157696 -0.0090238 0.0
-0.0152398 -0.0103682 0.0
-0.0146135 -0.0118361 0.0
-0.0138781 -0.0134461 0.0
-0.0130195 -0.0152185 0.0
-0.0120215 -0.0171738 0.0
-0.0108661 -0.0193317 0.0
-0.0095337 -0.0217046 0.0
-0.0080041 -0.0242704 0.0
-0.00626098 -0.0268518 0.0
-0.00431117 -0.0286411 0.0
-0.00226674 -0.0267779 0.0
-0.000622799 -0.0142302 0.0
0.000622799 0.0142302 0.0
0.00049743 -0.0119863 0.0
-0.00049743 0.0119863 0.0
-0.00178003 0.0222584 0.0
-0.00334501 0.0238442 0.0
-0.0048388 0.0226408 0.0
-0.00619955 0.0209399 0.0
-0.00743371 0.0193101 0.0
-0.00855667 0.0178335 0.0
-0.0095822 0.0164951 0.0
-0.0105215 0.0152699 0.0
-0.0113838 0.0141365 0.0
-0.0121763 0.013078 0.0
-0.0129053 0.0120809 0.0
-0.0135758 0.0111344 0.0
-0.0141919 0.0102294 0.0
-0.0147572 0.00935872 0.0
-0.0152745 0.0085159 0.0
-0.0157462 0.00769554 0.0
-0.0161742 0.00689284 0.0
-0.0165601 0.00610348 0.0
-0.0169052 0.00532346 0.0
-0.0172102 0.00454901 0.0
-0.0174759 0.00377646 0.0
-0.0177024 0.00300214 0.0
-0.0178897 0.00222231 0.0
-0.0180375 0.00143307 0.0
-0.0181452 0.000630209 0.0
-0.0182115 -0.000190833 0.0
-0.018235 -0.00103512 0.0
-0.0182137 -0.00190835 0.0
-0.0181452 -0.00281696 0.0
-0.018026 -0.00376832 0.0
-0.0178525 -0.00477092 0.0
-0.0176197 -0.0058345 0.0
-0.0173219 -0.0069703 0.0
-0.0169521 -0.00819125 0.0
-0.0165021 -0.00951209 0.0
-0.0159622 -0.0109496 0.0
-0.0153209 -0.0125224 0.0
-0.014565 -0.0142511 0.0
-0.0136791 -0.0161579 0.0
-0.0126461 -0.0182654 0.0
-0.0114466 -0.020595 0.0
-0.0100597 -0.0231606 0.0
-0.00846378 -0.0259399 0.0
-0.00664091 -0.0287483 0.0
-0.00459547 -0.0307398 0.0
-0.00243686 -0.0288822 0.0
-0.000676854 -0.0155299 0.0
0.000676854 0.0155299 0.0
0.000538501 -0.0130222 0.0
-0.000538501 0.0130222 0.0
-0.00190467 0.0238712 0.0
-0.00354596 0.0254376 0.0
-0.00510159 0.0240968 0.0
-0.00651457 0.0222576 0.0
-0.00779415 0.0205062 0.0
-0.00895712 0.0189235 0.0
-0.0100182 0.0174918 0.0
-0.0109892 0.0161837 0.0
-0.01188 0.0149758 0.0
-0.0126983 0.0138497 0.0
-0.0134507 0.0127907 0.0
-0.0141425 0.011787 0.0
-0.0147783 0.0108288 0.0
-0.0153618 0.00990809 0.0
-0.015896 0.00901801 0.0
-0.0163835 0.00815261 0.0
-0.0168264 0.00730669 0.0
-0.0172264 0.00647554 0.0
-0.0175848 0.00565483 0.0
-0.0179025 0.00484046 0.0
-0.0181803 0.00402843 0.0
-0.0184184 0.00321479 0.0
-0.0186169 0.00239545 0.0
-0.0187753 0.00156616 0.0
-0.0188929 0.000722359 0.0
-0.0189686 -0.00014095 0.0
-0.0190008 -0.0010293 0.0
-0.0189873 -0.00194891 0.0
-0.0189255 -0.00290684 0.0
-0.0188118 -0.00391119 0.0
-0.0186422 -0.00497126 0.0
-0.0184114 -0.00609776 0.0
-0.0181132 -0.00730304 0.0
-0.0177402 -0.00860128 0.0
-0.0172835 -0.0100087 0.0
-0.0167326 -0.0115437 0.0
-0.0160753 -0.0132268 0.0
-0.0152974 -0.0150806 0.0
-0.0143825 -0.0171292 0.0
-0.0133123 -0.0193974 0.0
-0.0120661 -0.0219087 0.0
-0.0106216 -0.0246783 0.0
-0.0089558 -0.0276839 0.0
-0.00704906 -0.0307339 0.0
-0.00490302 -0.0329456 0.0
-0.00262332 -0.0311147 0.0
-0.000737 -0.0169437 0.0
0.000737 0.0169437 0.0
0.0005841 -0.0141448 0.0
-0.0005841 0.0141448 0.0
-0.00204102 0.0255717 0.0
-0.00376282 0.0271002 0.0
-0.00538312 0.0256101 0.0
-0.00685073 0.0236249 0.0
-0.00817793 0.0217457 0.0
-0.00938298 0.020052 0.0
-0.0104815 0.0185228 0.0
-0.0114861 0.0171282 0.0
-0.012407 0.0158428 0.0
-0.0132527 0.0146466 0.0
-0.01403 0.0135235 0.0
-0.0147446 0.0124607 0.0
-0.0154014 0.0114477 0.0
-0.0160043 0.0104756 0.0
-0.0165567 0.00953703 0.0
-0.0170611 0.00862556 0.0
-0.01752 0.00773552 0.0
-0.0179351 0.0068618 0.0
-0.0183078 0.00599971 0.0
-0.0186393 0.00514479 0.0
-0.0189301 0.00429274 0.0
-0.0191808 0.00343922 0.0
-0.0193911 0.00257984 0.0
-0.0195609 0.00170995 0.0
-0.0196893 0.000824592 0.0
-0.0197751 -8.16801e-05 0.0
-0.0198166 -0.0010149 0.0
-0.0198115 -0.00198188 0.0
-0.0197569 -0.00299034 0.0
-0.0196491 -0.00404914 0.0
-0.0194836 -0.00516847 0.0
-0.0192548 -0.00636009 0.0
-0.0189562 -0.00763753 0.0
-0.0185796 -0.00901635 0.0
-0.0181156 -0.0105143 0.0
-0.017553 -0.0121516 0.0
-0.0168786 -0.0139506 0.0
-0.0160773 -0.015936 0.0
-0.0151316 -0.0181343 0.0
-0.0140219 -0.0205723 0.0
-0.0127262 -0.0232757 0.0
-0.011221 -0.026261 0.0
-0.00948174 -0.0295062 0.0
-0.00748699 -0.0328131 0.0
-0.00523541 -0.0352641 0.0
-0.00282761 -0.0334838 0.0
-0.000803926 -0.0184847 0.0
0.000803926 0.0184847 0.0
0.000634746 -0.0153637 0.0
-0.000634746 0.0153637 0.0
-0.00219017 0.0273652 0.0
-0.00399673 0.0288351 0.0
-0.00568448 0.0271833 0.0
-0.00720911 0.025044 0.0
-0.00858616 0.0230309 0.0
-0.00983538 0.021221 0.0
-0.0109733 0.0195902 0.0
-0.0120133 0.0181055 0.0
-0.0129662 0.0167394 0.0
-0.0138409 0.0154703 0.0
-0.0146447 0.0142808 0.0
-0.0153836 0.013157 0.0
-0.0160628 0.0120874 0.0
-0.0166865 0.0110625 0.0
-0.0172583 0.0100742 0.0
-0.0177809 0.00911554 0.0
-0.0182569 0.00818042 0.0
-0.0186883 0.00726331 0.0
-0.0190764 0.00635911 0.0
-0.0194226 0.005463 0.0
-0.0197275 0.0045703 0.0
-0.0199916 0.00367635 0.0
-0.0202148 0.00277634 0.0
-0.0203968 0.00186524 0.0
-0.0205368 0.000937662 0.0
-0.0206334 -1.23311e-05 0.0
-0.0206849 -0.000991321 0.0
-0.0206887 -0.00200673 0.0
-0.0206418 -0.00306702 0.0
-0.0205402 -0.00418186 0.0
-0.020379 -0.0053624 0.0
-0.0201524 -0.00662151 0.0
-0.0198532 -0.00797401 0.0
-0.0194727 -0.0094369 0.0
-0.0190009 -0.0110296 0.0
-0.0184256 -0.0127742 0.0
-0.0177329 -0.0146951 0.0
-0.0169066 -0.0168192 0.0
-0.0159281 -0.0191753 0.0
-0.0147766 -0.0217926 0.0
-0.0134288 -0.0246988 0.0
-0.0118596 -0.0279122 0.0
-0.0100433 -0.0314106 0.0
-0.00795641 -0.0349903 0.0
-0.00559439 -0.0377005 0.0
-0.00305141 -0.0359981 0.0
-0.000878412 -0.020167 0.0
0.000878412 0.020167 0.0
0.000691025 -0.0166894 0.0
-0.000691025 0.0166894 0.0
-0.00235336 0.0292572 0.0
-0.00424898 0.0306453 0.0
-0.00600691 0.0288188 0.0
-0.00759093 0.0265171 0.0
-0.00902006 0.0243639 0.0
-0.0103156 0.0224327 0.0
-0.0114949 0.0206958 0.0
-0.0125722 0.0191172 0.0
-0.0135589 0.0176673 0.0
-0.0144644 0.0163226 0.0
-0.0152963 0.0150643 0.0
-0.0160611 0.0138773 0.0
-0.0167643 0.0127494 0.0
-0.0174102 0.0116701 0.0
-0.0180027 0.0106307 0.0
-0.0185448 0.00962379 0.0
-0.0190392 0.0086426 0.0
-0.019488 0.00768122 0.0
-0.0198928 0.00673413 0.0
-0.0202547 0.00579612 0.0
-0.0205748 0.00486214 0.0
-0.0208533 0.00392711 0.0
-0.0210904 0.00298585 0.0
-0.0212855 0.00203289 0.0
-0.0214379 0.00106236 0.0
-0.0215461 6.78147e-05 0.0
-0.0216082 -0.000957918 0.0
-0.0216216 -0.00202294 0.0
-0.0215828 -0.00313646 0.0
-0.0214878 -0.00430906 0.0
-0.0213312 -0.00555292 0.0
-0.0211067 -0.00688208 0.0
-0.0208067 -0.00831273 0.0
-0.0204219 -0.00986343 0.0
-0.0199415 -0.0115554 0.0
-0.0193526 -0.0134126 0.0
-0.0186403 -0.0154617 0.0
-0.0177874 -0.0177319 0.0
-0.0167741 -0.0202544 0.0
-0.0155783 -0.0230609 0.0
-0.0141755 -0.0261811 0.0
-0.0125392 -0.0296352 0.0
-0.0106422 -0.033401 0.0
-0.00845914 -0.0372698 0.0
-0.00598188 -0.0402603 0.0
-0.00329656 -0.0386666 0.0
-0.000961334 -0.0220067 0.0
0.000961334 0.0220067 0.0
0.000753603 -0.0181341 0.0
-0.000753603 0.0181341 0.0
-0.00253198 0.0312533 0.0
-0.00452095 0.0325338 0.0
-0.00635175 0.030519 0.0
-0.00799751 0.0280467 0.0
-0.00948095 0.0257469 0.0
-0.0108249 0.0236892 0.0
-0.0120478 0.0218416 0.0
-0.0131644 0.0201653 0.0
-0.0141868 0.0186283 0.0
-0.0151248 0.017205 0.0
-0.0159865 0.0158755 0.0
-0.0167789 0.0146233 0.0
-0.0175076 0.0134352 0.0
-0.0181773 0.0122999 0.0
-0.018792 0.0112081 0.0
-0.019355 0.0101516 0.0
-0.0198692 0.00912332 0.0
-0.0203367 0.00811674 0.0
-0.0207592 0.00712594 0.0
-0.0211382 0.00614529 0.0
-0.0214745 0.00516931 0.0
-0.0217686 0.00419254 0.0
-0.0220205 0.00320934 0.0
-0.0222297 0.00221379 0.0
-0.0223954 0.00119951 0.0
-0.022516 0.0001595 0.0
-0.0225894 -0.000914048 0.0
-0.0226129 -0.00202995 0.0
-0.0225828 -0.00319826 0.0
-0.0224947 -0.0044305 0.0
-0.0223428 -0.00573995 0.0
-0.0221204 -0.00714191 0.0
-0.0218193 -0.00865403 0.0
-0.0214297 -0.0102965 0.0
-0.0209399 -0.0120925 0.0
-0.0203363 -0.0140679 0.0
-0.019603 -0.0162519 0.0
-0.0187217 -0.018676 0.0
-0.0176715 -0.0213738 0.0
-0.016429 -0.0243797 0.0
-0.0149683 -0.0277257 0.0
-0.0132617 -0.0314335 0.0
-0.0112803 -0.0354813 0.0
-0.00899713 -0.0396557 0.0
-0.00639992 -0.0429488 0.0
-0.00356511 -0.0414982 0.0
-0.00105368 -0.0240218 0.0
0.00105368 0.0240218 0.0
0.000823239 -0.0197109 0.0
-0.000823239 0.0197109 0.0
-0.00272758 0.0333592 0.0
-0.00481422 0.0345035 0.0
-0.0067205 0.0322863 0.0
-0.0084303 0.0296349 0.0
-0.00997029 0.0271821 0.0
-0.0113648 0.0249924 0.0
-0.0126333 0.0230297 0.0
-0.0137913 0.0212518 0.0
-0.0148513 0.0196242 0.0
-0.0158238 0.0181196 0.0
-0.0167172 0.0167162 0.0
-0.0175389 0.0153966 0.0
-0.0182948 0.0141464 0.0
-0.0189898 0.0129535 0.0
-0.0196283 0.0118078 0.0
-0.0202138 0.0107005 0.0
-0.0207491 0.00962395 0.0
-0.0212367 0.00857119 0.0
-0.0216784 0.00753579 0.0
-0.0220757 0.00651169 0.0
-0.0224295 0.00549297 0.0
-0.0227402 0.00447371 0.0
-0.023008 0.00344781 0.0
-0.0232323 0.00240888 0.0
-0.0234122 0.00134997 0.0
-0.023546 0.000263488 0.0
-0.0236316 -0.000859054 0.0
-0.0236658 -0.00202725 0.0
-0.0236448 -0.00325203 0.0
-0.0235637 -0.00454594 0.0
-0.0234167 -0.00592344 0.0
-0.0231963 -0.00740119 0.0
-0.0228938 -0.00899834 0.0
-0.0224988 -0.0107369 0.0
-0.0219988 -0.0126419 0.0
-0.0213793 -0.0147416 0.0
-0.0206235 -0.0170673 0.0
-0.0197119 -0.0196534 0.0
-0.0186225 -0.022536 0.0
-0.0173307 -0.0257519 0.0
-0.0158093 -0.0293356 0.0
-0.014029 -0.0333105 0.0
-0.0119597 -0.037655 0.0
-0.0095725 -0.0421524 0.0
-0.00685078 -0.0457711 0.0
-0.00385934 -0.0445022 0.0
-0.00115656 -0.026232 0.0
0.00115656 0.026232 0.0
0.000900796 -0.0214349 0.0
-0.000900796 0.0214349 0.0
-0.00294192 0.0355806 0.0
-0.0051305 0.0365573 0.0
-0.00711481 0.0341231 0.0
-0.00889093 0.031284 0.0
-0.0104897 0.0286717 0.0
-0.011937 0.0263447 0.0
-0.0132533 0.0242622 0.0
-0.0144547 0.0223787 0.0
-0.0155544 0.0206571 0.0
-0.0165633 0.0190681 0.0
-0.0174904 0.0175883 0.0
-0.0183432 0.016199 0.0
-0.019128 0.0148847 0.0
-0.0198502 0.0136324 0.0
-0.0205142 0.0124313 0.0
-0.0211236 0.0112719 0.0
-0.0216817 0.010146 0.0
-0.0221909 0.00904597 0.0
-0.0226532 0.00796504 0.0
-0.0230701 0.00689661 0.0
-0.0234426 0.00583432 0.0
-0.0237713 0.00477176 0.0
-0.0240561 0.00370235 0.0
-0.0242966 0.00261914 0.0
-0.0244916 0.00151463 0.0
-0.0246395 0.00038056 0.0
-0.0247378 -0.00079228 0.0
-0.0247833 -0.00201431 0.0
-0.0247719 -0.00329741 0.0
-0.0246982 -0.00465522 0.0
-0.024556 -0.00610344 0.0
-0.0243374 -0.00766015 0.0
-0.0240331 -0.00934617 0.0
-0.0236319 -0.0111853 0.0
-0.0231207 -0.0132047 0.0
-0.022484 -0.0154349 0.0
-0.021704 -0.0179098 0.0
-0.0207603 -0.0206663 0.0
-0.0196294 -0.0237432 0.0
-0.0182857 -0.0271802 0.0
-0.0167004 -0.031014 0.0
-0.0148433 -0.0352695 0.0
-0.0126826 -0.039926 0.0
-0.0101875 -0.0447637 0.0
-0.0073369 -0.0487321 0.0
-0.00418178 -0.0476877 0.0
-0.00127123 -0.0286598 0.0
0.00127123 0.0286598 0.0
0.000987258 -0.023323 0.0
-0.000987258 0.023323 0.0
-0.00317698 0.0379234 0.0
-0.00547173 0.0386978 0.0
-0.00753651 0.0360317 0.0
-0.00938119 0.0329963 0.0
-0.0110409 0.030218 0.0
-0.0125433 0.0277482 0.0
-0.0139095 0.0255412 0.0
-0.0151565 0.023548 0.0
-0.016298 0.0217289 0.0
-0.0173454 0.0200525 0.0
-0.0183081 0.0184937 0.0
-0.019194 0.0170324 0.0
-0.0200098 0.0156519 0.0
-0.0207609 0.0143385 0.0
-0.0214521 0.0130804 0.0
-0.0220873 0.0118675 0.0
-0.0226698 0.0106909 0.0
-0.0232021 0.00954258 0.0
-0.0236865 0.00841511 0.0
-0.0241245 0.00730143 0.0
-0.0245172 0.00619467 0.0
-0.024865 0.00508793 0.0
-0.0251681 0.00397408 0.0
-0.0254258 0.00284562 0.0
-0.025637 0.00169441 0.0
-0.0257999 0.000511509 0.0
-0.0259117 -0.000713072 0.0
-0.0259691 -0.00199064 0.0
-0.0259675 -0.00333409 0.0
-0.0259015 -0.00475822 0.0
-0.0257641 -0.00628005 0.0
-0.025547 -0.00791917 0.0
-0.0252404 -0.00969812 0.0
-0.0248322 -0.0116427 0.0
-0.0243086 -0.0137822 0.0
-0.0236533 -0.0161495 0.0
-0.0228474 -0.0187812 0.0
-0.0218693 -0.0217168 0.0
-0.0206946 -0.0249982 0.0
-0.0192961 -0.0286675 0.0
-0.017644 -0.0327639 0.0
-0.0157067 -0.0373141 0.0
-0.0134511 -0.0422978 0.0
-0.0108446 -0.0474935 0.0
-0.00786092 -0.0518365 0.0
-0.00453523 -0.0510641 0.0
-0.00139909 -0.0313301 0.0
0.00139909 0.0313301 0.0
0.00108375 -0.025394 0.0
-0.00108375 0.025394 0.0
-0.003435 0.0403934 0.0
-0.00584006 0.0409277 0.0
-0.00798764 0.0380142 0.0
-0.00990305 0.0347738 0.0
-0.011626 0.0318231 0.0
-0.0131856 0.029205 0.0
-0.014604 0.0268689 0.0
-0.0158987 0.024762 0.0
-0.0170843 0.0228419 0.0
-0.0181723 0.021075 0.0
-0.0191728 0.0194344 0.0
-0.0200939 0.0178987 0.0
-0.0209426 0.01645 0.0
-0.0217246 0.0150735 0.0
-0.022445 0.0137568 0.0
-0.0231078 0.012489 0.0
-0.0237164 0.0112605 0.0
-0.0242737 0.0100627 0.0
-0.0247818 0.00888756 0.0
-0.0252424 0.00772761 0.0
-0.0256567 0.0065754 0.0
-0.0260251 0.00542348 0.0
-0.0263477 0.00426418 0.0
-0.0266238 0.00308937 0.0
-0.0268522 0.00189025 0.0
-0.0270309 0.000657137 0.0
-0.0271569 -0.00062079 0.0
-0.0272267 -0.00195578 0.0
-0.0272354 -0.00336181 0.0
-0.0271771 -0.00485489 0.0
-0.0270444 -0.00645345 0.0
-0.0268285 -0.00817869 0.0
-0.0265188 -0.010055 0.0
-0.0261027 -0.0121101 0.0
-0.0255655 -0.0143756 0.0
-0.02489 -0.016887 0.0
-0.0240562 -0.0196834 0.0
-0.0230415 -0.0228074 0.0
-0.0218203 -0.0263035 0.0
-0.0203643 -0.0302168 0.0
-0.0186424 -0.0345886 0.0
-0.0166217 -0.0394475 0.0
-0.0142678 -0.0447738 0.0
-0.0115463 -0.0503455 0.0
-0.00842574 -0.0550888 0.0
-0.00492279 -0.0546405 0.0
-0.00154173 -0.0342709 0.0
0.00154173 0.0342709 0.0
0.00119156 -0.0276693 0.0
-0.00119156 0.0276693 0.0
-0.00371849 0.0429962 0.0
-0.00623788 0.0432493 0.0
-0.00847048 0.0400728 0.0
-0.0104588 0.0366189 0.0
-0.0122471 0.0334892 0.0
-0.0138662 0.0307175 0.0
-0.015339 0.0282476 0.0
-0.0166838 0.026023 0.0
-0.0179156 0.0239983 0.0
-0.0190466 0.0221377 0.0
-0.0200871 0.0204126 0.0
-0.0210455 0.0188001 0.0
-0.0219293 0.017281 0.0
-0.0227443 0.0158396 0.0
-0.0234959 0.0144626 0.0
-0.0241882 0.0131383 0.0
-0.0248249 0.0118565 0.0
-0.0254089 0.0106079 0.0
-0.0259425 0.00938405 0.0
-0.0264275 0.00817672 0.0
-0.0268649 0.00697797 0.0
-0.0272554 0.0057798 0.0
-0.0275988 0.0045739 0.0
-0.0278945 0.00335151 0.0
-0.0281411 0.00210311 0.0
-0.0283365 0.000818244 0.0
-0.0284775 -0.000514814 0.0
-0.0285602 -0.00190931 0.0
-0.0285794 -0.00338036 0.0
-0.0285288 -0.00494528 0.0
-0.0284006 -0.00662397 0.0
-0.0281854 -0.0084393 0.0
-0.0278718 -0.0104175 0.0
-0.0274468 -0.0125886 0.0
-0.0268945 -0.0149865 0.0
-0.026197 -0.0176492 0.0
-0.0253333 -0.0206187 0.0
-0.0242796 -0.0239404 0.0
-0.0230094 -0.0276619 0.0
-0.0214929 -0.0318309 0.0
-0.0196981 -0.0364912 0.0
-0.0175907 -0.041673 0.0
-0.0151353 -0.0473575 0.0
-0.0122956 -0.053323 0.0
-0.00903451 -0.058493 0.0
-0.00534789 -0.0584259 0.0
-0.00170092 -0.0375136 0.0
0.00170092 0.0375136 0.0
0.00131216 -0.030173 0.0
-0.00131216 0.030173 0.0
-0.00403035 0.0457376 0.0
-0.00666791 0.0456648 0.0
-0.0089876 0.0422095 0.0
-0.0110508 0.0385337 0.0
-0.0129067 0.0352187 0.0
-0.0145875 0.032288 0.0
-0.016117 0.0296796 0.0
-0.0175143 0.0273331 0.0
-0.0187947 0.0252003 0.0
-0.019971 0.0232429 0.0
-0.0210537 0.0214306 0.0
-0.0220519 0.0197387 0.0
-0.0229729 0.0181471 0.0
-0.0238232 0.0166389 0.0
-0.0246081 0.0151998 0.0
-0.0253321 0.0138175 0.0
-0.025999 0.0124809 0.0
-0.0266117 0.0111802 0.0
-0.0271727 0.00990632 0.0
-0.0276837 0.00865042 0.0
-0.0281459 0.00740395 0.0
-0.02856 0.0061583 0.0
-0.0289256 0.00490453 0.0
-0.0292422 0.00363318 0.0
-0.0295081 0.00233398 0.0
-0.029721 0.00099562 0.0
-0.0298777 -0.000394558 0.0
-0.0299737 -0.00185087 0.0
-0.0300036 -0.00338962 0.0
-0.0299607 -0.00502952 0.0
-0.0298367 -0.006792 0.0
-0.0296214 -0.00870172 0.0
-0.0293032 -0.0107869 0.0
-0.0288678 -0.0130797 0.0
-0.0282989 -0.0156165 0.0
-0.0275774 -0.0184381 0.0
-0.0266816 -0.0215893 0.0
-0.0255865 -0.0251185 0.0
-0.0242644 -0.0290762 0.0
-0.0226845 -0.0335129 0.0
-0.0208137 -0.0384748 0.0
-0.0186165 -0.0439939 0.0
-0.0160565 -0.0500521 0.0
-0.0130955 -0.0564292 0.0
-0.00969064 -0.0620527 0.0
-0.00581436 -0.062429 0.0
-0.00187865 -0.0410931 0.0
0.00187865 0.0410931 0.0
0.00144726 -0.0329325 0.0
-0.00144726 0.0329325 0.0
-0.00437382 0.0486229 0.0
-0.00713318 0.0481764 0.0
-0.00954189 0.0444263 0.0
-0.011682 0.0405202 0.0
-0.0136076 0.0370136 0.0
-0.0153523 0.0339186 0.0
-0.016941 0.0311671 0.0
-0.018393 0.0286949 0.0
-0.0197245 0.0264504 0.0
-0.0209485 0.0243931 0.0
-0.022076 0.0224907 0.0
-0.0231162 0.020717 0.0
-0.024077 0.0190506 0.0
-0.0249649 0.0174736 0.0
-0.0257855 0.0159706 0.0
-0.0265434 0.0145286 0.0
-0.0272426 0.0131357 0.0
-0.0278861 0.0117816 0.0
-0.0284764 0.0104563 0.0
-0.0290154 0.00915047 0.0
-0.0295042 0.00785497 0.0
-0.0299434 0.00656049 0.0
-0.0303328 0.00525742 0.0
-0.0306715 0.00393555 0.0
-0.0309578 0.00258383 0.0
-0.0311891 0.00119004 0.0
-0.031362 -0.000259477 0.0
-0.0314718 -0.00178015 0.0
-0.0315126 -0.00338958 0.0
-0.0314772 -0.00510787 0.0
-0.0313568 -0.00695813 0.0
-0.0311408 -0.00896682 0.0
-0.0308166 -0.0111642 0.0
-0.0303695 -0.0135849 0.0
-0.0297822 -0.0162676 0.0
-0.0290347 -0.019256 0.0
-0.0281043 -0.0225977 0.0
-0.0269651 -0.0263443 0.0
-0.0255883 -0.0305493 0.0
-0.023942 -0.0352659 0.0
-0.021992 -0.0405427 0.0
-0.019702 -0.0464132 0.0
-0.0170344 -0.0528604 0.0
-0.0139493 -0.0596669 0.0
-0.0103979 -0.0657713 0.0
-0.00632641 -0.0666581 0.0
-0.00207717 -0.045049 0.0
0.00207717 0.045049 0.0
0.0015988 -0.0359785 0.0
-0.0015988 0.0359785 0.0
-0.00475265 0.0516573 0.0
-0.00763711 0.0507859 0.0
-0.0101366 0.0467251 0.0
-0.0123555 0.0425805 0.0
-0.0143529 0.0388762 0.0
-0.0161639 0.0356117 0.0
-0.017814 0.0327127 0.0
-0.0193233 0.0301107 0.0
-0.0207082 0.027751 0.0
-0.0219824 0.0255907 0.0
-0.0231572 0.0235954 0.0
-0.0242422 0.0217375 0.0
-0.0252452 0.0199941 0.0
-0.0261733 0.0183461 0.0
-0.027032 0.0167774 0.0
-0.0278262 0.0152739 0.0
-0.02856 0.0138233 0.0
-0.0292365 0.0124141 0.0
-0.0298583 0.0110359 0.0
-0.0304272 0.00967877 0.0
-0.0309445 0.00833276 0.0
-0.0314106 0.00698793 0.0
-0.0318251 0.00563395 0.0
-0.0321873 0.00425983 0.0
-0.032495 0.00285364 0.0
-0.0327457 0.00140224 0.0
-0.0329354 -0.000109087 0.0
-0.0330592 -0.00169696 0.0
-0.0331109 -0.0033803 0.0
-0.0330827 -0.00518074 0.0
-0.0329653 -0.00712306 0.0
-0.0327476 -0.00923566 0.0
-0.0324162 -0.011551 0.0
-0.0319556 -0.0141058 0.0
-0.0313479 -0.0169417 0.0
-0.0305721 -0.0201051 0.0
-0.0296046 -0.0236466 0.0
-0.0284185 -0.0276208 0.0
-0.026984 -0.0320842 0.0
-0.0252683 -0.037093 0.0
-0.0232361 -0.0426979 0.0
-0.0208502 -0.0489339 0.0
-0.0180723 -0.0557852 0.0
-0.0148607 -0.0630387 0.0
-0.0111602 -0.0696515 0.0
-0.00688871 -0.071121 0.0
-0.00229898 -0.0494251 0.0
0.00229898 0.0494251 0.0
0.00176904 -0.0393464 0.0
-0.00176904 0.0393464 0.0
-0.0051711 0.0548454 0.0
-0.00818362 0.0534948 0.0
-0.0107755 0.0491075 0.0
-0.013075 0.0447166 0.0
-0.0151462 0.0408087 0.0
-0.0170257 0.0373697 0.0
-0.0187395 0.0343187 0.0
-0.0203086 0.031583 0.0
-0.0217496 0.0291047 0.0
-0.0230767 0.0268383 0.0
-0.0243015 0.0247474 0.0
-0.0254337 0.0228027 0.0
-0.0264817 0.02098 0.0
-0.0274525 0.019259 0.0
-0.028352 0.0176227 0.0
-0.0291851 0.016056 0.0
-0.029956 0.0145458 0.0
-0.0306679 0.01308 0.0
-0.0313234 0.0116474 0.0
-0.0319244 0.0102373 0.0
-0.032472 0.00883914 0.0
-0.0329667 0.00744227 0.0
-0.033408 0.00603557 0.0
-0.0337949 0.00460721 0.0
-0.0341253 0.00314437 0.0
-0.034396 0.00163292 0.0
-0.0346031 5.70226e-05 0.0
-0.0347412 -0.00160118 0.0
-0.0348036 -0.003362 0.0
-0.0347821 -0.00524866 0.0
-0.034667 -0.00728769 0.0
-0.0344463 -0.00950947 0.0
-0.0341062 -0.0119486 0.0
-0.0336304 -0.0146445 0.0
-0.033 -0.0176412 0.0
-0.0321935 -0.0209879 0.0
-0.0311861 -0.0247386 0.0
-0.0299502 -0.0289508 0.0
-0.0284549 -0.033684 0.0
-0.0266666 -0.0389972 0.0
-0.0245491 -0.0449433 0.0
-0.0220646 -0.0515588 0.0
-0.0191737 -0.0588291 0.0
-0.0158334 -0.0665467 0.0
-0.0119821 -0.0736952 0.0
-0.0075064 -0.0758244 0.0
-0.00254687 -0.054271 0.0
0.00254687 0.054271 0.0
0.00196059 -0.043076 0.0
-0.00196059 0.043076 0.0
-0.00563405 0.0581912 0.0
-0.0087771 0.0563045 0.0
-0.0114627 0.0515752 0.0
-0.0138446 0.0469304 0.0
-0.0159916 0.0428131 0.0
-0.0179417 0.0391947 0.0
-0.0197218 0.0359876 0.0
-0.021353 0.0331144 0.0
-0.0228528 0.0305141 0.0
-0.0242355 0.0281386 0.0
-0.025513 0.0259493 0.0
-0.0266953 0.0239154 0.0
-0.0277911 0.0220111 0.0
-0.0288075 0.0202151 0.0
-0.0297505 0.0185091 0.0
-0.0306251 0.0168774 0.0
-0.0314357 0.0153058 0.0
-0.0321854 0.0137816 0.0
-0.032877 0.0122928 0.0
-0.0335123 0.0108281 0.0
-0.0340923 0.009376 0.0
-0.0346174 0.00792519 0.0
-0.0350871 0.00646372 0.0
-0.0355001 0.0049789 0.0
-0.0358541 0.00345696 0.0
-0.0361457 0.00188271 0.0
-0.0363706 0.000239173 0.0
-0.036523 -0.00149283 0.0
-0.0365959 -0.00333506 0.0
-0.0365805 -0.00531237 0.0
-0.0364666 -0.00745312 0.0
-0.0362416 -0.00978972 0.0
-0.035891 -0.0123591 0.0
-0.0353978 -0.015203 0.0
-0.0347425 -0.0183684 0.0
-0.0339024 -0.0219073 0.0
-0.0328523 -0.0258768 0.0
-0.0315634 -0.0303374 0.0
-0.0300042 -0.0353518 0.0
-0.0281402 -0.0409817 0.0
-0.0259346 -0.047282 0.0
-0.0233486 -0.0542906 0.0
-0.0203425 -0.0619943 0.0
-0.0168717 -0.0701926 0.0
-0.0128682 -0.0779042 0.0
-0.00818515 -0.0807743 0.0
-0.00282397 -0.0596418 0.0
0.00282397 0.0596418 0.0
0.00217648 -0.0472131 0.0
-0.00217648 0.0472131 0.0
-0.00614712 0.0616983 0.0
-0.0094226 0.059216 0.0
-0.012203 0.0541297 0.0
-0.0146689 0.0492238 0.0
-0.0168937 0.0448917 0.0
-0.0189167 0.0410892 0.0
-0.0207653 0.0377218 0.0
-0.0224613 0.0347075 0.0
-0.0240225 0.031982 0.0
-0.0254635 0.0294944 0.0
-0.0267965 0.0272041 0.0
-0.028032 0.0250784 0.0
-0.0291784 0.0230903 0.0
-0.0302433 0.0212171 0.0
-0.0312326 0.0194395 0.0
-0.0321517 0.0177407 0.0
-0.0330046 0.0161059 0.0
-0.0337949 0.0145215 0.0
-0.034525 0.0129747 0.0
-0.0351968 0.0114533 0.0
-0.0358113 0.00994531 0.0
-0.0363688 0.00843842 0.0
-0.0368684 0.00691988 0.0
-0.0373088 0.00537609 0.0
-0.0376874 0.00379229 0.0
-0.0380005 0.00215218 0.0
-0.0382435 0.000437566 0.0
-0.0384103 -0.00137207 0.0
-0.0384932 -0.00330001 0.0
-0.0384831 -0.00537278 0.0
-0.0383692 -0.00762064 0.0
-0.0381382 -0.0100781 0.0
-0.0377752 -0.0127844 0.0
-0.0372623 -0.0157838 0.0
-0.0365792 -0.019126 0.0
-0.0357028 -0.0228661 0.0
-0.0346068 -0.0270641 0.0
-0.0332618 -0.0317838 0.0
-0.0316355 -0.0370909 0.0
-0.0296927 -0.0430494 0.0
-0.0273959 -0.0497167 0.0
-0.024706 -0.0571317 0.0
-0.0215826 -0.0652827 0.0
-0.01798 -0.0739776 0.0
-0.0138237 -0.082279 0.0
-0.00893113 -0.0859751 0.0
-0.00313375 -0.0655995 0.0
0.00313375 0.0655995 0.0
0.00242021 -0.0518097 0.0
-0.00242021 0.0518097 0.0
-0.00671676 0.0653688 0.0
-0.0101258 0.06223 0.0
-0.013002 0.0567723 0.0
-0.0155533 0.0515984 0.0
-0.0178577 0.0470463 0.0
-0.0199555 0.0430554 0.0
-0.021875 0.0395237 0.0
-0.0236383 0.0363649 0.0
-0.0252635 0.033511 0.0
-0.0267657 0.0309085 0.0
-0.0281572 0.0285146 0.0
-0.0294486 0.0262948 0.0
-0.0306487 0.0242205 0.0
-0.0317649 0.0222679 0.0
-0.0328036 0.0204166 0.0
-0.0337699 0.0186489 0.0
-0.034668 0.0169489 0.0
-0.0355014 0.0153022 0.0
-0.0362726 0.0136953 0.0
-0.0369833 0.0121152 0.0
-0.0376343 0.010549 0.0
-0.0382258 0.00898365 0.0
-0.038757 0.00740546 0.0
-0.039226 0.00579988 0.0
-0.03963 0.00415111 0.0
-0.0399652 0.00244171 0.0
-0.0402264 0.000652224 0.0
-0.0404072 -0.00123927 0.0
-0.0404994 -0.00325762 0.0
-0.0404935 -0.00543109 0.0
-0.040378 -0.00779185 0.0
-0.0401392 -0.0103766 0.0
-0.0397614 -0.0132268 0.0
-0.0392262 -0.0163894 0.0
-0.0385126 -0.019917 0.0
-0.0375966 -0.0238675 0.0
-0.0364514 -0.028304 0.0
-0.0350471 -0.0332934 0.0
-0.0333504 -0.0389043 0.0
-0.0313258 -0.0452035 0.0
-0.0289353 -0.05225 0.0
-0.0261393 -0.0600842 0.0
-0.0228972 -0.0686957 0.0
-0.0191621 -0.0779023 0.0
-0.0148532 -0.0868195 0.0
-0.00975069 -0.0914296 0.0
-0.00347989 -0.0722132 0.0
0.00347989 0.0722132 0.0
0.00269575 -0.0569257 0.0
-0.00269575 0.0569257 0.0
-0.00735007 0.0692037 0.0
-0.0108927 0.0653467 0.0
-0.0138649 0.059504 0.0
-0.0165026 0.0540556 0.0
-0.0188879 0.0492787 0.0
-0.0210623 0.0450952 0.0
-0.0230546 0.0413956 0.0
-0.0248872 0.038089 0.0
-0.0265787 0.0351037 0.0
-0.0281443 0.0323835 0.0
-0.0295968 0.0298835 0.0
-0.0309466 0.0275671 0.0
-0.0322029 0.0254045 0.0
-0.0333731 0.0233704 0.0
-0.0344635 0.0214433 0.0
-0.0354794 0.0196044 0.0
-0.036425 0.0178371 0.0
-0.0373037 0.016126 0.0
-0.0381178 0.0144568 0.0
-0.038869 0.0128156 0.0
-0.039558 0.0111887 0.0
-0.0401848 0.00956223 0.0
-0.0407483 0.00792149 0.0
-0.0412464 0.00625096 0.0
-0.0416761 0.00453376 0.0
-0.0420331 0.00275126 0.0
-0.0423119 0.000882692 0.0
-0.0425056 -0.0010953 0.0
-0.0426058 -0.00320916 0.0
-0.0426023 -0.00548894 0.0
-0.042483 -0.00796877 0.0
-0.0422339 -0.0106875 0.0
-0.0418386 -0.013689 0.0
-0.0412781 -0.0170229 0.0
-0.0405307 -0.0207445 0.0
-0.0395721 -0.0249146 0.0
-0.0383748 -0.0295994 0.0
-0.0369081 -0.034869 0.0
-0.0351386 -0.0407948 0.0
-0.0330302 -0.047446 0.0
-0.0305445 -0.0548837 0.0
-0.027642 -0.063149 0.0
-0.0242816 -0.0722334 0.0
-0.0204155 -0.0819658 0.0
-0.015957 -0.0915234 0.0
-0.0106478 -0.0971373 0.0
-0.00386553 -0.0795586 0.0
0.00386553 0.0795586 0.0
0.00300684 -0.0626283 0.0
-0.00300684 0.0626283 0.0
-0.0080525 0.0732011 0.0
-0.0117253 0.0685648 0.0
-0.0147913 0.0623243 0.0
-0.0175137 0.0565955 0.0
-0.0199786 0.0515891 0.0
-0.0222284 0.0472089 0.0
-0.0242923 0.043338 0.0
-0.0261933 0.0398803 0.0
-0.0279502 0.0367607 0.0
-0.0295783 0.0339202 0.0
-0.0310906 0.0313115 0.0
-0.0324978 0.0288963 0.0
-0.0338091 0.0266429 0.0
-0.035032 0.024525 0.0
-0.0361727 0.0225199 0.0
-0.0372367 0.0206077 0.0
-0.0382279 0.0187707 0.0
-0.0391498 0.0169928 0.0
-0.0400046 0.0152588 0.0
-0.0407938 0.013554 0.0
-0.0415182 0.0118637 0.0
-0.0421772 0.0101731 0.0
-0.0427698 0.00846663 0.0
-0.0432935 0.0067277 0.0
-0.0437451 0.0049383 0.0
-0.04412 0.00307859 0.0
-0.0444124 0.00112648 0.0
-0.0446149 -0.00094288 0.0
-0.0447187 -0.00315757 0.0
-0.0447133 -0.00554943 0.0
-0.0445862 -0.0081546 0.0
-0.0443229 -0.0110141 0.0
-0.0439064 -0.0141743 0.0
-0.0433175 -0.0176872 0.0
-0.0425341 -0.021611 0.0
-0.0415313 -0.0260095 0.0
-0.0402813 -0.0309519 0.0
-0.0387532 -0.0365113 0.0
-0.0369133 -0.0427618 0.0
-0.0347253 -0.0497754 0.0
-0.0321508 -0.0576145 0.0
-0.0291502 -0.0663214 0.0
-0.0256825 -0.0758892 0.0
-0.021699 -0.0861596 0.0
-0.0171071 -0.0963801 0.0
-0.0116096 -0.103087 0.0
-0.00428828 -0.0877124 0.0
0.00428828 0.0877124 0.0
0.00335164 -0.0689868 0.0
-0.00335164 0.0689868 0.0
-0.00881167 0.0773483 0.0
-0.0125945 0.0718732 0.0
-0.0157357 0.0652229 0.0
-0.0185243 0.0592078 0.0
-0.0210498 0.0539672 0.0
-0.0233554 0.0493862 0.0
-0.0254709 0.04534 0.0
-0.0274193 0.0417277 0.0
-0.0292199 0.0384707 0.0
-0.0308882 0.0355067 0.0
-0.0324374 0.0327864 0.0
-0.0338784 0.0302695 0.0
-0.0352204 0.0279229 0.0
-0.0364711 0.0257186 0.0
-0.037637 0.0236329 0.0
-0.0387233 0.0216448 0.0
-0.0397343 0.0197358 0.0
-0.0406734 0.0178887 0.0
-0.0415429 0.0160873 0.0
-0.0423444 0.0143162 0.0
-0.0430784 0.0125598 0.0
-0.0437446 0.0108023 0.0
-0.0443418 0.00902716 0.0
-0.0448676 0.00721672 0.0
-0.0453186 0.00535186 0.0
-0.0456902 0.00341149 0.0
-0.0459764 0.00137215 0.0
-0.0461699 -0.000792493 0.0
-0.0462619 -0.00311215 0.0
-0.0462417 -0.00562046 0.0
-0.0460968 -0.00835556 0.0
-0.0458127 -0.0113606 0.0
-0.0453725 -0.0146844 0.0
-0.044757 -0.0183815 0.0
-0.0439443 -0.0225128 0.0
-0.0429097 -0.027145 0.0
-0.0416256 -0.0323504 0.0
-0.0400616 -0.0382048 0.0
-0.0381842 -0.0447855 0.0
-0.0359576 -0.0521664 0.0
-0.0333437 -0.0604119 0.0
-0.0303031 -0.0695651 0.0
-0.0267949 -0.0796214 0.0
-0.0227694 -0.0904364 0.0
-0.0181278 -0.101337 0.0
-0.0125337 -0.109222 0.0
-0.00471594 -0.0967166 0.0
0.00471594 0.0967166 0.0
0.00369121 -0.0760296 0.0
-0.00369121 0.0760296 0.0
-0.00950198 0.0815762 0.0
-0.0132794 0.0752056 0.0
-0.0163804 0.0681326 0.0
-0.0191169 0.0618232 0.0
-0.0215811 0.0563415 0.0
-0.0238165 0.051553 0.0
-0.0258532 0.0473253 0.0
-0.0277149 0.0435526 0.0
-0.0294212 0.0401526 0.0
-0.0309884 0.0370603 0.0
-0.0324303 0.0342239 0.0
-0.0337586 0.0316014 0.0
-0.0349834 0.0291578 0.0
-0.0361131 0.0268642 0.0
-0.0371552 0.0246953 0.0
-0.0381159 0.0226294 0.0
-0.0390003 0.0206467 0.0
-0.0398128 0.0187293 0.0
-0.0405567 0.0168601 0.0
-0.0412346 0.0150228 0.0
-0.041848 0.0132007 0.0
-0.0423977 0.0113773 0.0
-0.0428833 0.00953497 0.0
-0.0433036 0.00765503 0.0
-0.0436563 0.00571721 0.0
-0.0439378 0.00369921 0.0
-0.0441434 0.00157625 0.0
-0.044267 -0.000679464 0.0
-0.044301 -0.00309924 0.0
-0.0442361 -0.00571846 0.0
-0.0440613 -0.00857718 0.0
-0.0437638 -0.0117207 0.0
-0.0433284 -0.0151999 0.0
-0.0427378 -0.0190721 0.0
-0.0419719 -0.0234007 0.0
-0.0410082 -0.0282554 0.0
-0.0398213 -0.0337111 0.0
-0.0383826 -0.0398469 0.0
-0.0366608 -0.0467426 0.0
-0.0346216 -0.0544751 0.0
-0.0322282 -0.0631105 0.0
-0.0294418 -0.0726935 0.0
-0.0262206 -0.0832224 0.0
-0.0225123 -0.0945692 0.0
-0.0182089 -0.106149 0.0
-0.0129314 -0.115282 0.0
-0.00498685 -0.106419 0.0
0.00498685 0.106419 0.0
0.00379168 -0.0835125 0.0
-0.00379168 0.0835125 0.0
-0.00940987 0.0855223 0.0
-0.0125718 0.0781989 0.0
-0.0150144 0.0706829 0.0
-0.0170669 0.0640621 0.0
-0.0188228 0.0583226 0.0
-0.0203266 0.0533111 0.0
-0.0216104 0.0488877 0.0
-0.0227006 0.0449422 0.0
-0.0236201 0.0413889 0.0
-0.0243892 0.0381603 0.0
-0.0250258 0.0352025 0.0
-0.0255462 0.0324716 0.0
-0.0259651 0.0299313 0.0
-0.0262959 0.0275512 0.0
-0.0265507 0.0253052 0.0
-0.0267406 0.0231701 0.0
-0.0268759 0.0211256 0.0
-0.0269654 0.0191525 0.0
-0.0270175 0.017233 0.0
-0.0270394 0.0153497 0.0
-0.0270374 0.0134852 0.0
-0.0270169 0.0116219 0.0
-0.0269822 0.00974133 0.0
-0.026937 0.0078237 0.0
-0.0268835 0.00584771 0.0
-0.0268231 0.00378991 0.0
-0.0267563 0.0016243 0.0
-0.026682 -0.000678229 0.0
-0.0265981 -0.00315041 0.0
-0.026501 -0.00582921 0.0
-0.0263858 -0.00875637 0.0
-0.0262458 -0.0119791 0.0
-0.0260723 -0.0155504 0.0
-0.0258549 -0.0195298 0.0
-0.0255806 -0.0239833 0.0
-0.0252337 -0.0289833 0.0
-0.0247957 -0.0346081 0.0
-0.0242445 -0.0409398 0.0
-0.0235541 -0.0480619 0.0
-0.0226944 -0.0560547 0.0
-0.0216305 -0.0649881 0.0
-0.0203224 -0.0749105 0.0
-0.018723 -0.085826 0.0
-0.0167691 -0.0976279 0.0
-0.0143316 -0.109831 0.0
-0.0109746 -0.120234 0.0
-0.00449 -0.115896 0.0
0.00449 0.115896 0.0
0.00259468 -0.0898989 0.0
-0.00259468 0.0898989 0.0
-0.00534704 0.0875065 0.0
-0.00513597 0.0791656 0.0
-0.00414695 0.0711698 0.0
-0.00272573 0.0642065 0.0
-0.000976153 0.0581845 0.0
0.00104352 0.0529334 0.0
0.00328517 0.0483075 0.0
0.0057047 0.044193 0.0
0.00826108 0.0405012 0.0
0.0109161 0.0371621 0.0
0.0136342 0.0341192 0.0
0.0163826 0.0313268 0.0
0.0191308 0.0287467 0.0
0.0218509 0.0263466 0.0
0.0245169 0.0240986 0.0
0.027105 0.0219785 0.0
0.0295932 0.0199642 0.0
0.0319611 0.0180355 0.0
0.03419 0.0161733 0.0
0.0362621 0.0143592 0.0
0.038161 0.0125748 0.0
0.0398712 0.0108016 0.0
0.0413779 0.00902033 0.0
0.0426669 0.00721042 0.0
0.0437245 0.00534985 0.0
0.0445375 0.00341449 0.0
0.0450927 0.00137763 0.0
0.0453774 -0.000790527 0.0
0.0453788 -0.00312347 0.0
0.0450846 -0.00565898 0.0
0.0444826 -0.00843979 0.0
0.0435611 -0.0115142 0.0
0.0423093 -0.0149369 0.0
0.0407176 -0.0187689 0.0
0.0387779 -0.0230788 0.0
0.036485 -0.0279418 0.0
0.0338374 -0.0334399 0.0
0.0308383 -0.0396601 0.0
0.0274981 -0.0466917 0.0
0.0238359 -0.0546224 0.0
0.0198826 -0.063531 0.0
0.0156838 -0.0734769 0.0
0.0113051 -0.0844802 0.0
0.0068456 -0.0964682 0.0
0.00249337 -0.109076 0.0
-0.00120913 -0.120643 0.0
-0.00139709 -0.121783 0.0
0.00139709 0.121783 0.0
-0.00403738 -0.0884562 0.0
0.00403738 0.0884562 0.0
0.0149869 0.080752 0.0
0.0292059 0.07149 0.0
0.0438801 0.0631822 0.0
0.0585598 0.0560931 0.0
0.0730638 0.0500443 0.0
0.0872774 0.0448402 0.0
0.101114 0.0403221 0.0
0.114507 0.0363661 0.0
0.127404 0.0328753 0.0
0.139764 0.0297726 0.0
0.151558 0.0269963 0.0
0.162764 0.0244956 0.0
0.173365 0.0222286 0.0
0.183349 0.0201602 0.0
0.192708 0.0182603 0.0
0.201434 0.0165027 0.0
0.209521 0.0148645 0.0
0.216964 0.0133248 0.0
0.223754 0.0118645 0.0
0.229885 0.0104653 0.0
0.235345 0.00910992 0.0
0.24012 0.00778077 0.0
0.244195 0.00646014 0.0
0.247547 0.0051295 0.0
0.250151 0.00376909 0.0
0.251976 0.00235742 0.0
0.252984 0.000870764 0.0
0.253134 -0.000717416 0.0
0.252373 -0.00243713 0.0
0.250644 -0.00432252 0.0
0.247883 -0.00641266 0.0
0.244015 -0.00875233 0.0
0.238961 -0.0113929 0.0
0.232633 -0.014393 0.0
0.224937 -0.0178195 0.0
0.215777 -0.0217479 0.0
0.205053 -0.0262624 0.0
0.19267 -0.0314554 0.0
0.178539 -0.0374261 0.0
0.162591 -0.0442775 0.0
0.14478 -0.0521113 0.0
0.125102 -0.0610195 0.0
0.103612 -0.0710694 0.0
0.0804599 -0.0822671 0.0
0.0559658 -0.0944308 0.0
0.0309336 -0.106554 0.0
0.00921461 -0.113966 0.0
-0.00921461 0.113966 0.0
-0.0422094 -0.0422094 0.0
0.0422094 0.0422094 0.0
0.121339 0.0369199 0.0
0.19035 0.0320916 0.0
0.250349 0.0279074 0.0
0.302647 0.0243903 0.0
0.348464 0.0214264 0.0
0.388799 0.0189091 0.0
0.424462 0.0167537 0.0
0.45611 0.014894 0.0
0.484282 0.0132784 0.0
0.509426 0.0118654 0.0
0.531913 0.0106219 0.0
0.552056 0.00952107 0.0
0.570118 0.00854051 0.0
0.58632 0.00766176 0.0
0.600851 0.00686917 0.0
0.613869 0.00614935 0.0
0.625509 0.00549066 0.0
0.635883 0.00488281 0.0
0.645082 0.0043165 0.0
0.653182 0.00378314 0.0
0.66024 0.0032746 0.0
0.666297 0.00278296 0.0
0.67138 0.0023003 0.0
0.675499 0.00181846 0.0
0.678646 0.00132881 0.0
0.680797 0.000822007 0.0
0.681907 0.000287736 0.0
0.681909 -0.000285602 0.0
0.680712 -0.00091122 0.0
0.678197 -0.00160432 0.0
0.67421 -0.00238249 0.0
0.668561 -0.00326621 0.0
0.661016 -0.00427931 0.0
0.651287 -0.00544951 0.0
0.639028 -0.00680893 0.0
0.623825 -0.00839457 0.0
0.605182 -0.0102486 0.0
0.582515 -0.0124186 0.0
0.555139 -0.014957 0.0
0.522261 -0.0179206 0.0
0.482972 -0.0213682 0.0
0.436246 -0.0253581 0.0
0.380946 -0.0299417 0.0
0.315854 -0.0351504 0.0
0.239752 -0.0409515 0.0
0.151776 -0.0470248 0.0
0.0523756 -0.0523756 0.0
-0.0523756 0.0523756 0.0
-1.95779 0.0422094 0.0
1.95779 -0.0422094 0.0
1.87866 -0.0369199 0.0
1.80965 -0.0320916 0.0
1.74965 -0.0279074 0.0
1.69735 -0.0243903 0.0
1.65154 -0.0214264 0.0
1.6112 -0.0189091 0.0
1.57554 -0.0167537 0.0
1.54389 -0.014894 0.0
1.51572 -0.0132784 0.0
1.49057 -0.0118654 0.0
1.46809 -0.0106219 0.0
1.44794 -0.00952107 0.0
1.42988 -0.00854051 0.0
1.41368 -0.00766176 0.0
1.39915 -0.00686917 0.0
1.38613 -0.00614935 0.0
1.37449 -0.00549066 0.0
1.36412 -0.00488281 0.0
1.35492 -0.0043165 0.0
1.34682 -0.00378314 0.0
1.33976 -0.0032746 0.0
1.3337 -0.00278296 0.0
1.32862 -0.0023003 0.0
1.3245 -0.00181846 0.0
1.32135 -0.00132881 0.0
1.3192 -0.000822007 0.0
1.31809 -0.000287736 0.0
1.31809 0.000285602 0.0
1.31929 0.00091122 0.0
1.3218 0.00160432 0.0
1.32579 0.00238249 0.0
1.33144 0.00326621 0.0
1.33898 0.00427931 0.0
1.34871 0.00544951 0.0
1.36097 0.00680893 0.0
1.37618 0.00839457 0.0
1.39482 0.0102486 0.0
1.41749 0.0124186 0.0
1.44486 0.014957 0.0
1.47774 0.0179206 0.0
1.51703 0.0213682 0.0
1.56375 0.0253581 0.0
1.61905 0.0299417 0.0
1.68415 0.0351504 0.0
1.76025 0.0409515 0.0
1.84822 0.0470248 0.0
1.94762 0.0523756 0.0
-1.94762 -0.0523756 0.0
