# vtk DataFile Version 3.0
DroneCFD Output
ASCII
DATASET STRUCTURED_POINTS
DIMENSIONS 50 50 1
ORIGIN 0 0 0
SPACING 0.02 0.02 1
POINT_DATA 2500
SCALARS pressure double 1
LOOKUP_TABLE default
0
0
-0.00124083
-0.00144372
-0.00129987
-0.00105589
-0.000767817
-0.000447578
-9.94532e-05
0.000273607
0.00066911
0.00108488
0.00151902
0.00196984
0.00243588
0.00291581
0.00340848
0.00391282
0.00442789
0.0049528
0.00548676
0.00602901
0.00657881
0.00713546
0.00769827
0.00826654
0.00883955
0.00941657
0.0099968
0.0105794
0.0111634
0.0117478
0.0123315
0.0129132
0.0134914
0.0140646
0.0146307
0.0151876
0.0157328
0.0162634
0.016776
0.0172666
0.0177305
0.018162
0.0185534
0.0188875
0.0190974
0.0189066
0.0175403
0.0175403
0
0
-0.00124083
-0.00144372
-0.00129987
-0.00105589
-0.000767817
-0.000447578
-9.94532e-05
0.000273607
0.00066911
0.00108488
0.00151902
0.00196984
0.00243588
0.00291581
0.00340848
0.00391282
0.00442789
0.0049528
0.00548676
0.00602901
0.00657881
0.00713546
0.00769827
0.00826654
0.00883955
0.00941657
0.0099968
0.0105794
0.0111634
0.0117478
0.0123315
0.0129132
0.0134914
0.0140646
0.0146307
0.0151876
0.0157328
0.0162634
0.016776
0.0172666
0.0177305
0.018162
0.0185534
0.0188875
0.0190974
0.0189066
0.0175403
0.0175403
0.000890852
0.000890852
-0.00035855
-0.000561301
-0.00042203
-0.000189544
8.05993e-05
0.000377349
0.00069723
0.00103799
0.00139772
0.00177475
0.0021676
0.00257497
0.00299568
0.00342869
0.00387305
0.00432791
0.00479247
0.005266
0.00574782
0.00623728
0.00673373
0.00723657
0.00774518
0.00825893
0.00877719
0.00929929
0.00982453
0.0103521
0.0108813
0.0114111
0.0119406
0.0124687
0.012994
0.0135152
0.0140307
0.0145387
0.0150369
0.015523
0.0159941
0.0164468
0.0168773
0.0172807
0.0176503
0.01797
0.0181734
0.0179814
0.016604
0.016604
0.0010748
0.0010748
-0.000193567
-0.000397052
-0.000256853
-2.44858e-05
0.000244184
0.000538182
0.000854147
0.00118993
0.00154372
0.00191393
0.00229918
0.00269823
0.00310999
0.00353348
0.00396782
0.00441221
0.00486593
0.00532829
0.00579868
0.00627647
0.0067611
0.007252
0.00774859
0.00825031
0.00875657
0.00926675
0.0097802
0.0102962
0.010814
0.0113328
0.0118516
0.0123694
0.012885
0.0133971
0.0139041
0.0144043
0.0148957
0.0153758
0.015842
0.016291
0.016719
0.0171213
0.0174911
0.0178125
0.0180183
0.0178258
0.0164256
0.0164256
0.00108302
0.00108302
-0.000208564
-0.000410941
-0.000266048
-2.93869e-05
0.000242706
0.00053934
0.000857273
0.00119446
0.00154917
0.00191989
0.00230528
0.00270417
0.0031155
0.00353833
0.00397182
0.00441519
0.00486776
0.00532888
0.00579793
0.00627433
0.00675755
0.00724702
0.00774221
0.00824257
0.00874753
0.00925651
0.00976887
0.010284
0.010801
0.0113192
0.0118377
0.0123555
0.0128714
0.0133842
0.0138923
0.014394
0.0148875
0.0153703
0.0158398
0.0162929
0.0167257
0.0171336
0.0175101
0.0178388
0.0180519
0.0178612
0.0164323
0.0164323
0.00104509
0.00104509
-0.000273507
-0.000473824
-0.000322005
-7.87816e-05
0.000198889
0.000500225
0.000822141
0.00116271
0.00152032
0.00189353
0.00228108
0.00268183
0.00309478
0.00351904
0.00395379
0.00439831
0.00485192
0.005314
0.00578397
0.00626128
0.00674539
0.00723578
0.00773192
0.00823331
0.00873938
0.00924958
0.00976331
0.0102799
0.0107987
0.0113189
0.0118396
0.0123599
0.0128787
0.0133947
0.0139065
0.0144125
0.0149108
0.015399
0.0158747
0.0163348
0.0167754
0.0171923
0.0175786
0.0179181
0.0181416
0.0179538
0.0164908
0.0164908
0.00098451
0.00098451
-0.000364988
-0.000562376
-0.000401651
-0.00014998
0.00013493
0.000442438
0.000769652
0.00111481
0.00147642
0.00185314
0.0022438
0.00264733
0.00306278
0.00348932
0.00392617
0.00437264
0.00482809
0.00529194
0.00576362
0.00624263
0.00672844
0.00722056
0.00771851
0.00822177
0.00872983
0.00924216
0.00975819
0.0102773
0.0107988
0.011322
0.0118461
0.0123701
0.012893
0.0134137
0.0139306
0.0144424
0.0149472
0.0154427
0.0159266
0.0163958
0.0168467
0.017275
0.017674
0.0180273
0.0182642
0.0180805
0.0165778
0.0165778
0.000904601
0.000904601
-0.000479798
-0.00067327
-0.000501639
-0.00023966
5.40928e-05
0.00036916
0.00070289
0.00105371
0.00142029
0.0018014
0.00219597
0.00260302
0.00302168
0.00345115
0.00389072
0.00433975
0.00479764
0.00526383
0.00573781
0.00621909
0.00670719
0.00720164
0.00770198
0.00820774
0.00871844
0.00923358
0.00975262
0.010275
0.0108001
0.0113271
0.0118555
0.0123842
0.0129123
0.0134387
0.0139622
0.0144811
0.0149939
0.0154985
0.0159924
0.0164728
0.0169363
0.0173786
0.0177932
0.0181634
0.0184166
0.0182383
0.01669
0.01669
0.000805569
0.000805569
-0.000617827
-0.000806236
-0.000621623
-0.000347445
-4.3231e-05
0.000280786
0.00062224
0.000979792
0.00135228
0.00173864
0.0021379
0.00254919
0.00297171
0.00340475
0.00384765
0.00429981
0.00476069
0.00522978
0.0057066
0.00619069
0.00668162
0.00717895
0.00768226
0.00819112
0.00870507
0.00922366
0.0097464
0.0102727
0.0108021
0.0113339
0.0118674
0.0124018
0.0129362
0.0134696
0.0140007
0.0145283
0.0150506
0.0155659
0.0160718
0.0165656
0.017044
0.0175029
0.0179359
0.0183261
0.0185988
0.0184274
0.0168276
0.0168276
0.000687125
0.000687125
-0.000779405
-0.000961409
-0.000761648
-0.000473334
-0.000157018
0.000177351
0.000527743
0.000893088
0.00127243
0.00166489
0.00206961
0.00248585
0.00291289
0.00335011
0.00379692
0.00425278
0.0047172
0.00518972
0.00566991
0.00615735
0.00665165
0.00715242
0.00765927
0.0081718
0.00868962
0.0092123
0.0097394
0.0102704
0.0108049
0.0113422
0.0118818
0.0124228
0.0129645
0.013506
0.0140461
0.0145837
0.0151171
0.0156448
0.0161646
0.0166739
0.0171697
0.0176479
0.0181023
0.0185158
0.0188113
0.0186485
0.0169911
0.0169911
0.000548834
0.000548834
-0.000964953
-0.00113899
-0.000921813
-0.000617381
-0.000287293
5.88462e-05
0.000419396
0.000793597
0.00118074
0.00158013
0.00199108
0.00241296
0.00284517
0.00328718
0.00373848
0.00419859
0.0046671
0.00514358
0.00562767
0.00611899
0.00661719
0.00712194
0.00763287
0.00814966
0.00867194
0.00919935
0.00973149
0.0102679
0.0108082
0.0113519
0.0118984
0.012447
0.0129971
0.0135478
0.0140982
0.0146472
0.0151934
0.0157352
0.0162709
0.0167979
0.0173135
0.0178138
0.0182927
0.0187328
0.0190546
0.0189025
0.0171812
0.0171812
0.000390147
0.000390147
-0.00117495
-0.00133921
-0.00110224
-0.000779647
-0.000434091
-7.47498e-05
0.000297184
0.000681305
0.00107718
0.00148434
0.00190226
0.00233048
0.00276851
0.00321591
0.00367226
0.00413718
0.00461029
0.00509126
0.00557976
0.00607548
0.00657812
0.00708738
0.00760296
0.00812457
0.00865192
0.00918468
0.00972251
0.0102651
0.010812
0.0113628
0.0119171
0.0124743
0.0130338
0.0135949
0.0141569
0.0147187
0.0152792
0.015837
0.0163905
0.0169375
0.0174754
0.0180006
0.0185072
0.0189775
0.0193292
0.0191901
0.0173988
0.0173988
0.00021039
0.00021039
-0.00140991
-0.0015623
-0.00130304
-0.000960204
-0.000597455
-0.000223466
0.000161083
0.000556189
0.000961732
0.00137748
0.00180313
0.00223836
0.00268282
0.0031362
0.00359817
0.00406843
0.00454668
0.00503265
0.00552608
0.00602671
0.0065343
0.0070486
0.00756937
0.00809638
0.00862938
0.00916811
0.00971231
0.0102617
0.010816
0.0113748
0.0119377
0.0125044
0.0130744
0.0136471
0.0142219
0.014798
0.0153744
0.0159501
0.0165234
0.0170928
0.0176556
0.0182086
0.0187462
0.0192503
0.0196359
0.0195125
0.017645
0.017645
8.7646e-06
8.7646e-06
-0.0016704
-0.00180852
-0.00152435
-0.00115913
-0.000777437
-0.000387339
1.10613e-05
0.000418212
0.000834345
0.0012595
0.00169361
0.00213651
0.00258804
0.00304797
0.00351611
0.00399223
0.00447613
0.00496761
0.00546647
0.00597252
0.00648557
0.00700544
0.00753195
0.00806492
0.00860416
0.00914948
0.0097007
0.0102576
0.01082
0.0113875
0.0119601
0.0125373
0.0131188
0.0137043
0.0142932
0.014885
0.015479
0.0160743
0.0166697
0.0172636
0.0178541
0.018438
0.01901
0.0195518
0.0199753
0.0198706
0.017921
0.017921
-0.000215669
-0.000215669
-0.00195704
-0.00207812
-0.0017663
-0.00137651
-0.000974094
-0.000566418
-0.000152927
0.000267327
0.000694966
0.00113034
0.00157363
0.00202487
0.00248405
0.00295111
0.00342595
0.00390845
0.00439851
0.00489599
0.00540078
0.00591274
0.00643177
0.00695773
0.00749051
0.00802999
0.00857606
0.0091286
0.00968748
0.0102526
0.0108238
0.011401
0.011984
0.0125726
0.0131668
0.0137662
0.0143706
0.0149796
0.0155928
0.0162096
0.0168291
0.0174502
0.018071
0.018689
0.0192989
0.0198824
0.0203481
0.0202658
0.0182284
0.0182284
-0.000464003
-0.000464003
-0.00227046
-0.00237136
-0.00202902
-0.00161242
-0.00118749
-0.000760757
-0.000330939
0.00010347
0.000543524
0.000989915
0.00144308
0.00190331
0.00237074
0.00284547
0.00332754
0.00381694
0.00431364
0.00481762
0.00532882
0.0058472
0.0063727
0.00690526
0.00744485
0.0079914
0.00854488
0.00910523
0.00967244
0.0102465
0.0108273
0.0114149
0.0120092
0.0126103
0.0132181
0.0138326
0.0144538
0.0150815
0.0157157
0.0163559
0.0170018
0.0176524
0.0183065
0.0189618
0.0196132
0.0202425
0.0207551
0.0206991
0.0185686
0.0185686
-0.0007375
-0.0007375
-0.00261135
-0.00268849
-0.00231262
-0.00186695
-0.0014177
-0.000970423
-0.000523044
-7.34366e-05
0.000379929
0.000838117
0.00130187
0.0017717
0.00224796
0.00273091
0.00322072
0.0037175
0.00422135
0.0047323
0.0052504
0.00577567
0.00630814
0.00684783
0.00739474
0.00794892
0.00851038
0.00907917
0.00965534
0.010239
0.0108301
0.0114289
0.0120355
0.01265
0.0132725
0.0139034
0.0145427
0.0151907
0.0158475
0.0165131
0.0171876
0.0178704
0.0185606
0.0192565
0.0199534
0.0206327
0.0211969
0.0211719
0.0189437
0.0189437
-0.00103761
-0.00103761
-0.00298041
-0.00302975
-0.00261724
-0.00214018
-0.00166479
-0.0011955
-0.000729328
-0.00026349
0.000204069
0.000674822
0.00114983
0.00162988
0.00211554
0.00260724
0.00310529
0.00360995
0.0041214
0.0046398
0.00516528
0.00569793
0.00623787
0.00678517
0.00733995
0.0079023
0.00847232
0.00905016
0.00963595
0.0102299
0.0108321
0.011443
0.0120626
0.0126915
0.0133299
0.0139783
0.0146371
0.0153069
0.015988
0.0166811
0.0173864
0.018104
0.0188335
0.0195734
0.0203196
0.0210534
0.0216744
0.0216855
0.0193557
0.0193557
-0.001366
-0.001366
-0.00337837
-0.00339534
-0.00294295
-0.0024322
-0.00192885
-0.00143606
-0.000949893
-0.000466807
1.5811e-05
0.000499879
0.000986814
0.00147768
0.00197328
0.00247423
0.00298102
0.00349403
0.00401356
0.00453988
0.0050732
0.00561371
0.0061616
0.00671704
0.00728021
0.00785127
0.00843044
0.00901794
0.009614
0.0102189
0.010833
0.0114567
0.0120904
0.0127346
0.0133899
0.0140571
0.0147368
0.0154299
0.0161373
0.0168599
0.0175984
0.0183535
0.0191252
0.0199128
0.0207123
0.0215052
0.0221881
0.0222414
0.0198071
0.0198071
-0.00172457
-0.00172457
-0.00380598
-0.00378546
-0.00328986
-0.00274307
-0.00220996
-0.00169223
-0.00118486
-0.000683529
-0.000185006
0.000313107
0.000812609
0.00131487
0.00182095
0.00233166
0.00284766
0.00336948
0.00389755
0.00443225
0.00497388
0.00552273
0.00607906
0.00664314
0.00721522
0.00779556
0.00838446
0.00898223
0.00958922
0.0102058
0.0108325
0.0114699
0.0121185
0.0127791
0.0134525
0.0141396
0.0148416
0.0155597
0.0162951
0.0170492
0.0178234
0.0186188
0.019436
0.0202748
0.0211317
0.0219883
0.0227389
0.0228408
0.0203006
0.0203006
-0.00211548
-0.00211548
-0.00426399
-0.00420026
-0.003658
-0.00307287
-0.00250821
-0.0019641
-0.00143437
-0.00091382
-0.000398572
0.000114293
0.000626986
0.0011412
0.00165827
0.00217922
0.00270491
0.003236
0.00377306
0.00431659
0.00486699
0.00542465
0.00598992
0.00656315
0.00714468
0.00773486
0.00833407
0.00894273
0.00956131
0.0101903
0.0108304
0.0114823
0.0121467
0.0128247
0.0135172
0.0142256
0.0149514
0.015696
0.0164613
0.0172492
0.0180615
0.0188999
0.0197659
0.0206596
0.0215782
0.0225033
0.0233271
0.0234853
0.0208393
0.0208393
-0.00254122
-0.00254122
-0.00475316
-0.00463983
-0.00404742
-0.00342165
-0.00282371
-0.00225182
-0.00169858
-0.00115788
-0.000625108
-9.68086e-05
0.000429673
0.000956386
0.00148494
0.00201661
0.00255242
0.00309323
0.00363974
0.00419255
0.00475219
0.00531914
0.00589384
0.00647673
0.00706824
0.00766882
0.00827895
0.00889914
0.00952999
0.0101722
0.0108264
0.0114936
0.0121748
0.0128711
0.013584
0.014315
0.0150659
0.0158388
0.0166359
0.0174596
0.0183125
0.019197
0.0201149
0.0210673
0.0220518
0.0230503
0.0239534
0.0241762
0.0214268
0.0214268
-0.0030046
-0.0030046
-0.00527423
-0.00510423
-0.00445811
-0.00378946
-0.00315654
-0.00255553
-0.00197769
-0.00141592
-0.000864872
-0.000320487
0.000220356
0.000760082
0.0013006
0.00184344
0.00238983
0.0029408
0.00349719
0.00405973
0.00462907
0.00520579
0.00579042
0.0063835
0.00698555
0.0075971
0.00821875
0.00885112
0.00949493
0.010151
0.0108202
0.0115036
0.0122025
0.0129183
0.0136526
0.0144075
0.015185
0.0159879
0.0168187
0.0176805
0.0185766
0.01951
0.0204833
0.0214982
0.0225529
0.0236297
0.0246181
0.0249148
0.0220668
0.0220668
-0.00350886
-0.00350886
-0.00582795
-0.00559346
-0.00489004
-0.00417634
-0.00350681
-0.00287539
-0.0022719
-0.00168821
-0.00111816
-0.000557073
-1.32338e-06
0.000551909
0.00110486
0.0016593
0.00221671
0.00277826
0.00334497
0.0039177
0.0044972
0.00508418
0.00567925
0.00628305
0.0068962
0.00751932
0.00815312
0.00879834
0.00945581
0.0101265
0.0108115
0.011512
0.0122295
0.0129658
0.0137229
0.0145029
0.0153087
0.0161431
0.0170096
0.0179119
0.0188537
0.0198389
0.020871
0.0219523
0.0230815
0.0242414
0.0253215
0.0257024
0.022764
0.022764
-0.00405767
-0.00405767
-0.00641501
-0.00610744
-0.00534313
-0.00458231
-0.00387463
-0.00321158
-0.00258146
-0.00197504
-0.00138532
-0.000806944
-0.000235776
0.000331429
0.000897241
0.00146372
0.00203256
0.00260512
0.00318259
0.00376596
0.00435611
0.00495383
0.00555987
0.00617494
0.00679977
0.00743508
0.00808168
0.00874043
0.0094123
0.0100984
0.0108
0.0115185
0.0122558
0.0130137
0.0137946
0.0146012
0.0154367
0.0163045
0.0172087
0.0181536
0.0191438
0.0201839
0.0212781
0.0224296
0.0236376
0.0248856
0.0260637
0.0265401
0.0235232
0.0235232
-0.00465524
-0.00465524
-0.00703608
-0.00664603
-0.00581728
-0.00500736
-0.00426011
-0.00356429
-0.00290663
-0.00227674
-0.00166672
-0.00107053
-0.000483467
9.81485e-05
0.000677243
0.00125617
0.00183684
0.00242084
0.00300951
0.00360397
0.00420525
0.00481424
0.00543178
0.0060587
0.00669581
0.00734395
0.00800402
0.00867703
0.00936406
0.0100664
0.0107855
0.011523
0.0122809
0.0130616
0.0138676
0.0147022
0.0155689
0.016472
0.0174158
0.0184057
0.0194469
0.0205449
0.0217047
0.0229301
0.0242211
0.0255619
0.0268444
0.027429
0.0243503
0.0243503
-0.00530637
-0.00530637
-0.00769177
-0.00720898
-0.00631232
-0.0054515
-0.00466336
-0.00393376
-0.00324774
-0.0025937
-0.00196282
-0.00134832
-0.000744921
-0.000148489
0.00044428
0.00103604
0.00162895
0.00222481
0.00282511
0.00343114
0.00404404
0.00466482
0.00529443
0.0059338
0.00658382
0.00724546
0.00791973
0.00860774
0.00931074
0.0100302
0.0107676
0.0115251
0.0123048
0.0131094
0.0139418
0.0148058
0.0157055
0.0166454
0.0176311
0.0186682
0.0197631
0.0209219
0.0221506
0.0234537
0.0248319
0.0262702
0.0276635
0.0283699
0.0252515
0.0252515
-0.00601656
-0.00601656
-0.00838263
-0.00779597
-0.00682805
-0.0059147
-0.00508451
-0.00432022
-0.00360511
-0.00292633
-0.00227409
-0.00164085
-0.00102073
-0.000409106
0.000197704
0.000802672
0.00140822
0.00201634
0.00262873
0.00324681
0.00387184
0.00450497
0.00514724
0.00579968
0.0064633
0.00713915
0.00782836
0.00853218
0.00925199
0.0099894
0.0107463
0.0115247
0.0123273
0.013157
0.0140172
0.014912
0.0158462
0.0168249
0.0178544
0.0189411
0.0200922
0.0213149
0.0226158
0.0240002
0.0254695
0.0270098
0.0285201
0.0293634
0.0262342
0.0262342
-0.0067921
-0.0067921
-0.0091091
-0.00840662
-0.00736422
-0.00639691
-0.00552368
-0.00472393
-0.00397912
-0.0032751
-0.00260108
-0.00194873
-0.00131154
-0.000684398
-6.3207e-05
0.000555327
0.00117389
0.0017947
0.00241962
0.00305024
0.00368795
0.004334
0.00498956
0.00565575
0.00633367
0.0070245
0.00772946
0.00844994
0.00918747
0.00994383
0.0107211
0.0115216
0.0123482
0.0132042
0.0140936
0.0150208
0.0159911
0.0170105
0.0180859
0.0192245
0.0204345
0.0217238
0.0231
0.0245692
0.0261335
0.0277799
0.0294134
0.0304098
0.0273066
0.0273066
-0.00764025
-0.00764025
-0.00987154
-0.0090404
-0.00792056
-0.00689809
-0.00598102
-0.00514519
-0.00437019
-0.00364054
-0.0029444
-0.00227264
-0.0016181
-0.000975137
-0.000339255
0.000293183
0.000925136
0.00155905
0.00219697
0.00284064
0.00349159
0.00415119
0.00482071
0.00550135
0.00619435
0.00690097
0.00762255
0.0083606
0.00911681
0.00989314
0.0106918
0.0115156
0.0123675
0.0132512
0.0141711
0.0151322
0.0161403
0.0172023
0.0183255
0.0195184
0.0207897
0.0221485
0.0236032
0.0251605
0.026823
0.0285795
0.0303422
0.031509
0.0284779
0.0284779
-0.00856928
-0.00856928
-0.0106702
-0.00969672
-0.00849674
-0.00741818
-0.00645667
-0.00558432
-0.00477879
-0.00402322
-0.00330473
-0.00261332
-0.00194119
-0.00128217
-0.000631322
1.5337e-05
0.000661047
0.00130848
0.00195988
0.00261714
0.00328193
0.00395573
0.00463992
0.0053358
0.00604471
0.00676799
0.00750713
0.00826375
0.00903968
0.00983706
0.0106584
0.0115065
0.012385
0.0132977
0.0142496
0.0152462
0.016294
0.0174003
0.0185735
0.0198228
0.0211579
0.0225888
0.0241248
0.0257732
0.0275373
0.0294073
0.0313047
0.0326606
0.0297587
0.0297587
-0.00958876
-0.00958876
-0.011505
-0.0103749
-0.00909239
-0.00795711
-0.00695081
-0.00604167
-0.00520542
-0.00442378
-0.00368278
-0.0029716
-0.00228172
-0.00160644
-0.00094038
-0.000279202
0.000380624
0.00104201
0.00170738
0.0023788
0.00305806
0.00374677
0.0044464
0.00515836
0.00588407
0.00662499
0.0073827
0.00815895
0.00895573
0.00977535
0.0106205
0.0114944
0.0124007
0.013344
0.0143294
0.0153631
0.0164521
0.0176047
0.0188299
0.0201378
0.0215391
0.0230446
0.0246644
0.0264067
0.0282751
0.0302616
0.0322988
0.0338637
0.0311608
0.0311608
-0.0107097
-0.0107097
-0.0123761
-0.0110742
-0.00970716
-0.00851483
-0.00746361
-0.00651764
-0.00565064
-0.00484291
-0.00407938
-0.00334836
-0.00264065
-0.00194897
-0.00126749
-0.000591515
8.27773e-05
0.000758538
0.00143839
0.00212457
0.00281899
0.00352336
0.00423928
0.00496823
0.00571173
0.00647133
0.00724872
0.00804577
0.00886462
0.00970775
0.0105781
0.011479
0.0124147
0.01339
0.0144105
0.0154829
0.016615
0.0178156
0.0190948
0.0204634
0.021933
0.0235154
0.0252215
0.02706
0.029035
0.0311404
0.0333221
0.0351167
0.0326979
0.0326979
-0.0119447
-0.0119447
-0.0132829
-0.0117937
-0.0103407
-0.00909129
-0.00799531
-0.00701266
-0.00611505
-0.00528136
-0.0044954
-0.00374459
-0.00301902
-0.00231085
-0.0016138
-0.000922778
-0.000233675
0.000456904
0.00115178
0.00185334
0.00256365
0.00328452
0.00401763
0.00476457
0.00552693
0.00630636
0.00710465
0.00792377
0.00876602
0.00963405
0.010531
0.0114605
0.0124271
0.0134359
0.0144931
0.015606
0.0167829
0.0180334
0.0193683
0.0207995
0.0223395
0.0240009
0.0257952
0.0277319
0.0298153
0.0320415
0.0343714
0.0364174
0.0343851
0.0343851
-0.0133085
-0.0133085
-0.0142248
-0.0125326
-0.0109925
-0.00968649
-0.00854617
-0.00752722
-0.00659934
-0.00573997
-0.0049318
-0.00416134
-0.00341799
-0.00269331
-0.00198055
-0.00127426
-0.00057001
0.000135837
0.000846302
0.00156393
0.00229091
0.00302917
0.00378047
0.00454649
0.0053289
0.00612942
0.00694993
0.00779253
0.00865962
0.00955404
0.0104791
0.0114388
0.0124379
0.0134819
0.0145775
0.0157325
0.0169559
0.0182581
0.0196507
0.0211463
0.0227584
0.0245004
0.0263847
0.0284209
0.030614
0.0329619
0.0354433
0.0377628
0.0362398
0.0362398
-0.0148181
-0.0148181
-0.0152011
-0.01329
-0.0116624
-0.0103004
-0.00911649
-0.00806185
-0.00710423
-0.00621962
-0.00538959
-0.00459976
-0.00383877
-0.00309762
-0.00236908
-0.00164732
-0.000927596
-0.00020602
0.000520625
0.00125504
0.00199955
0.00275617
0.00352676
0.00431306
0.0051168
0.0059398
0.00678399
0.00765159
0.00854511
0.00946755
0.0104224
0.011414
0.0124472
0.0135281
0.0146639
0.0158627
0.0171344
0.01849
0.0199418
0.0215035
0.0231893
0.0250133
0.0269887
0.0291253
0.0314285
0.0338986
0.0365335
0.0391489
0.0382815
0.0382815
-0.016493
-0.016493
-0.0162103
-0.0140648
-0.01235
-0.0109333
-0.00970666
-0.00861719
-0.00763055
-0.00672131
-0.00586991
-0.00506106
-0.00428269
-0.00352518
-0.00278083
-0.00204342
-0.00130789
-0.000570114
0.000173337
0.00092532
0.00168827
0.00246431
0.00325538
0.00406327
0.00488977
0.00573676
0.00660624
0.0075005
0.00842219
0.00937441
0.0103609
0.0113861
0.0124553
0.013575
0.0147526
0.0159971
0.0173187
0.0187292
0.0202419
0.021871
0.0236316
0.0255387
0.0276058
0.0298432
0.0322563
0.0348479
0.0376374
0.0405709
0.0405322
0.0405322
-0.0183561
-0.0183561
-0.0172507
-0.0148563
-0.0130552
-0.0115851
-0.0103172
-0.00919394
-0.00817919
-0.0072461
-0.00637395
-0.00554657
-0.00475113
-0.00397744
-0.0032173
-0.00246409
-0.00171245
-0.000957974
-0.000197054
0.000573325
0.00135572
0.00215234
0.00296517
0.00379609
0.00464691
0.00551955
0.00641607
0.00733883
0.00829054
0.00927446
0.0102945
0.0113552
0.0124624
0.0136226
0.014844
0.0161358
0.017509
0.018976
0.0205507
0.0222484
0.0240848
0.0260754
0.0282344
0.0305721
0.0330941
0.0358057
0.0387497
0.0420225
0.0430169
0.0430169
-0.020434
-0.020434
-0.01832
-0.0156636
-0.0137779
-0.0122564
-0.0109486
-0.0097929
-0.00875117
-0.00779514
-0.00690301
-0.00605767
-0.0052456
-0.00445596
-0.00368009
-0.00291096
-0.00214288
-0.0013712
-0.000592115
0.000197552
0.00100046
0.00181891
0.00265493
0.00351044
0.00438728
0.00528739
0.00621286
0.00716609
0.00814988
0.00916756
0.0102232
0.0113216
0.0124686
0.0136714
0.0149383
0.0162791
0.0177054
0.0192303
0.0208683
0.0226353
0.0245479
0.0266222
0.0288725
0.0313094
0.0339385
0.0367674
0.0398643
0.0434961
0.0457636
0.0457636
-0.0227575
-0.0227575
-0.0194152
-0.016486
-0.0145182
-0.0129475
-0.0116017
-0.010415
-0.00934759
-0.0083697
-0.00745847
-0.00659588
-0.00576766
-0.00496238
-0.00417088
-0.00338572
-0.00260089
-0.00181148
-0.00101347
-0.000203562
0.000621024
0.00146265
0.0023234
0.0032052
0.0041099
0.00503945
0.00599595
0.00698181
0.00799986
0.00905352
0.0101469
0.0112851
0.0124742
0.0137215
0.0150358
0.0164274
0.0179083
0.0194921
0.0211943
0.0230312
0.02502
0.0271773
0.0295178
0.0320521
0.0347853
0.037728
0.0409747
0.0449826
0.0488039
0.0488039
-0.025363
-0.025363
-0.0205327
-0.0173232
-0.0152766
-0.0136592
-0.0122773
-0.0110615
-0.00996975
-0.00897121
-0.00804185
-0.00716279
-0.00631899
-0.00549843
-0.00469143
-0.00389015
-0.00308824
-0.00228054
-0.00146283
-0.000631655
0.000215852
0.00108212
0.00196925
0.00287917
0.00381374
0.00477486
0.00576463
0.00678542
0.00784011
0.00893212
0.0100657
0.011246
0.0124792
0.0137731
0.0151367
0.0165806
0.0181174
0.0197614
0.0215282
0.0234351
0.0254997
0.027739
0.0301678
0.0327966
0.0356304
0.0386822
0.0420739
0.046471
0.0521732
0.0521732
-0.028293
-0.028293
-0.021668
-0.0181751
-0.016054
-0.0143926
-0.012977
-0.0117337
-0.0106193
-0.00960143
-0.00865504
-0.00776035
-0.00690161
-0.00606617
-0.00524384
-0.00442636
-0.00360705
-0.00278049
-0.00194224
-0.00108872
-0.000216971
0.00067549
0.00159078
0.00253081
0.00349738
0.00449237
0.0055178
0.00657603
0.00766987
0.00880278
0.009979
0.0112038
0.0124835
0.0138261
0.0152408
0.0167387
0.0183328
0.0200376
0.0218696
0.0238463
0.0259858
0.0283055
0.0308202
0.0335401
0.0364699
0.039625
0.0431552
0.0479497
0.0559126
0.0559126
-0.0315989
-0.0315989
-0.022817
-0.0190439
-0.0168532
-0.0151511
-0.0137042
-0.0124357
-0.0113003
-0.0102647
-0.00930254
-0.00839328
-0.0075204
-0.00667062
-0.00583324
-0.00499959
-0.00416262
-0.00331664
-0.00245703
-0.00158005
-0.000682648
0.000237675
0.00118304
0.00215533
0.00315628
0.00418768
0.00525147
0.00634993
0.0074858
0.0086625
0.00988428
0.0111564
0.0124854
0.0138792
0.0153475
0.0169016
0.0185546
0.0203218
0.0222199
0.0242668
0.026481
0.0288801
0.0314789
0.034287
0.0373086
0.0405616
0.0442231
0.0494167
0.0600798
0.0600798
-0.0353564
-0.0353564
-0.0239899
-0.0199486
-0.0176951
-0.0159568
-0.0144824
-0.0131921
-0.012039
-0.0109883
-0.010013
-0.00909127
-0.00820602
-0.00734329
-0.00649183
-0.00564252
-0.00478794
-0.00392213
-0.00304025
-0.00213841
-0.00121348
-0.00026293
0.00071535
0.00172317
0.0027622
0.00383413
0.00494078
0.00608432
0.00726742
0.00849342
0.00976656
0.0110921
0.0124768
0.0139285
0.0154573
0.0170747
0.0187943
0.0206315
0.0226035
0.0247287
0.0270257
0.0295119
0.0322021
0.035105
0.0382238
0.0415778
0.0453699
0.0509616
0.064834
0.064834
-0.039791
-0.039791
-0.0253386
-0.0210572
-0.018756
-0.0169943
-0.0155051
-0.0142053
-0.0130461
-0.0119911
-0.0110119
-0.0100857
-0.0091944
-0.00832326
-0.00746035
-0.00659603
-0.00572248
-0.00483341
-0.00392377
-0.00298956
-0.00202758
-0.00103532
-1.07113e-05
0.00104795
0.00214224
0.0032737
0.00444409
0.0056555
0.00691056
0.00821265
0.00956612
0.0109765
0.0124506
0.0139971
0.0156262
0.0173501
0.019183
0.021141
0.0232417
0.0255038
0.0279459
0.0305848
0.0334339
0.0364995
0.0397815
0.0432966
0.0472672
0.0532819
0.070961
0.070961
-0.0462315
-0.0462315
-0.0281302
-0.0236866
-0.0213984
-0.019675
-0.018231
-0.0169767
-0.0158588
-0.0148373
-0.013881
-0.0129651
-0.01207
-0.01118
-0.0102826
-0.0093679
-0.00842813
-0.00745726
-0.00645064
-0.00540476
-0.00431699
-0.00318533
-0.00200823
-0.000784399
0.000487452
0.00180875
0.0031813
0.00460746
0.00609037
0.00763417
0.00924423
0.0109273
0.0126918
0.014548
0.0165078
0.0185855
0.0207969
0.0231595
0.0256916
0.0284117
0.0313366
0.0344793
0.0378463
0.0414335
0.0452259
0.0492228
0.0536435
0.060261
0.0824847
0.0824847
-0.063113
-0.063113
-0.0408445
-0.03645
-0.0343468
-0.0327959
-0.0314754
-0.030278
-0.0291411
-0.0280211
-0.0268869
-0.0257165
-0.0244949
-0.0232122
-0.0218621
-0.020441
-0.0189471
-0.0173799
-0.0157397
-0.0140271
-0.0122423
-0.0103858
-0.00845701
-0.00645483
-0.00437709
-0.00222045
1.9778e-05
0.00234983
0.00477762
0.0073129
0.0099674
0.0127549
0.0156913
0.0187945
0.0220842
0.0255816
0.0293085
0.0332863
0.0375346
0.0420681
0.0468942
0.0520075
0.0573851
0.0629793
0.0687141
0.0745094
0.0804992
0.0885101
0.116302
0.116302
-0.135681
-0.135681
-0.107938
-0.10213
-0.0981383
-0.0942651
-0.0902861
-0.0861911
-0.0820019
-0.0777445
-0.073444
-0.069122
-0.0647962
-0.0604802
-0.0561835
-0.0519118
-0.0476671
-0.043448
-0.0392499
-0.0350648
-0.0308819
-0.0266871
-0.0224631
-0.0181893
-0.0138417
-0.00939237
-0.0048098
-5.81984e-05
0.00490252
0.0101169
0.0156342
0.0215079
0.0277959
0.03456
0.0418644
0.0497745
0.0583543
0.0676626
0.0777481
0.0886414
0.100346
0.112823
0.125974
0.139621
0.153479
0.167154
0.180341
0.194351
0.231088
0.231088
-0.498447
-0.498447
-0.42098
-0.361555
-0.3142
-0.274918
-0.241817
-0.21363
-0.18941
-0.168427
-0.150111
-0.134008
-0.119754
-0.107053
-0.0956611
-0.0853757
-0.0760256
-0.0674646
-0.0595655
-0.0522156
-0.0453131
-0.0387635
-0.0324772
-0.0263663
-0.0203423
-0.0143137
-0.00818309
-0.00184458
0.00481927
0.0119408
0.0196708
0.028183
0.0376781
0.0483892
0.0605871
0.0745858
0.090748
0.10949
0.131285
0.156664
0.18621
0.220552
0.26034
0.306216
0.358766
0.418483
0.485902
0.56321
0.656165
0.656165
-0.498447
-0.498447
-0.42098
-0.361555
-0.3142
-0.274918
-0.241817
-0.21363
-0.18941
-0.168427
-0.150111
-0.134008
-0.119754
-0.107053
-0.0956611
-0.0853757
-0.0760256
-0.0674646
-0.0595655
-0.0522156
-0.0453131
-0.0387635
-0.0324772
-0.0263663
-0.0203423
-0.0143137
-0.00818309
-0.00184458
0.00481927
0.0119408
0.0196708
0.028183
0.0376781
0.0483892
0.0605871
0.0745858
0.090748
0.10949
0.131285
0.156664
0.18621
0.220552
0.26034
0.306216
0.358766
0.418483
0.485902
0.56321
0.656165
0.656165
VECTORS velocity double
-6.09475e-05 6.09474e-05 0.0
6.09475e-05 -6.09474e-05 0.0
0.000307214 -0.000185319 0.0
0.000701205 -0.000208673 0.0
0.00111211 -0.000202233 0.0
0.00150475 -0.000190404 0.0
0.00187346 -0.000178308 0.0
0.00221845 -0.000166685 0.0
0.0025407 -0.000155566 0.0
0.00284117 -0.000144905 0.0
0.00312073 -0.000134651 0.0
0.00338015 -0.000124763 0.0
0.00362011 -0.0001152 0.0
0.00384123 -0.000105924 0.0
0.00404406 -9.69014e-05 0.0
0.00422906 -8.80989e-05 0.0
0.00439664 -7.94844e-05 0.0
0.00454715 -7.10273e-05 0.0
0.00468088 -6.26975e-05 0.0
0.00479804 -5.44654e-05 0.0
0.00489881 -4.6302e-05 0.0
0.00498329 -3.81784e-05 0.0
0.00505153 -3.00657e-05 0.0
0.00510353 -2.19349e-05 0.0
0.00513922 -1.37564e-05 0.0
0.00515848 -5.50032e-06 0.0
0.00516112 2.86398e-06 0.0
0.00514689 1.13681e-05 0.0
0.00511547 2.00447e-05 0.0
0.0050665 2.89276e-05 0.0
0.00499952 3.80521e-05 0.0
0.00491401 4.74549e-05 0.0
0.00480938 5.71745e-05 0.0
0.00468496 6.72507e-05 0.0
0.00453998 7.77252e-05 0.0
0.00437362 8.86411e-05 0.0
0.00418493 0.000100042 0.0
0.00397292 0.000111974 0.0
0.00373646 0.000124481 0.0
0.00347437 0.000137606 0.0
0.00318538 0.000151388 0.0
0.00286813 0.00016586 0.0
0.00252123 0.000181042 0.0
0.00214326 0.000196925 0.0
0.00173298 0.000213358 0.0
0.0012903 0.000229321 0.0
0.000822134 0.000238847 0.0
0.000368597 0.00021469 0.0
7.69534e-05 7.69534e-05 0.0
-7.69534e-05 -7.69534e-05 0.0
6.09475e-05 -6.09474e-05 0.0
-6.09475e-05 6.09474e-05 0.0
-0.000307214 0.000185319 0.0
-0.000701205 0.000208673 0.0
-0.00111211 0.000202233 0.0
-0.00150475 0.000190404 0.0
-0.00187346 0.000178308 0.0
-0.00221845 0.000166685 0.0
-0.0025407 0.000155566 0.0
-0.00284117 0.000144905 0.0
-0.00312073 0.000134651 0.0
-0.00338015 0.000124763 0.0
-0.00362011 0.0001152 0.0
-0.00384123 0.000105924 0.0
-0.00404406 9.69014e-05 0.0
-0.00422906 8.80989e-05 0.0
-0.00439664 7.94844e-05 0.0
-0.00454715 7.10273e-05 0.0
-0.00468088 6.26975e-05 0.0
-0.00479804 5.44654e-05 0.0
-0.00489881 4.6302e-05 0.0
-0.00498329 3.81784e-05 0.0
-0.00505153 3.00657e-05 0.0
-0.00510353 2.19349e-05 0.0
-0.00513922 1.37564e-05 0.0
-0.00515848 5.50032e-06 0.0
-0.00516112 -2.86398e-06 0.0
-0.00514689 -1.13681e-05 0.0
-0.00511547 -2.00447e-05 0.0
-0.0050665 -2.89276e-05 0.0
-0.00499952 -3.80521e-05 0.0
-0.00491401 -4.74549e-05 0.0
-0.00480938 -5.71745e-05 0.0
-0.00468496 -6.72507e-05 0.0
-0.00453998 -7.77252e-05 0.0
-0.00437362 -8.86411e-05 0.0
-0.00418493 -0.000100042 0.0
-0.00397292 -0.000111974 0.0
-0.00373646 -0.000124481 0.0
-0.00347437 -0.000137606 0.0
-0.00318538 -0.000151388 0.0
-0.00286813 -0.00016586 0.0
-0.00252123 -0.000181042 0.0
-0.00214326 -0.000196925 0.0
-0.00173298 -0.000213358 0.0
-0.0012903 -0.000229321 0.0
-0.000822134 -0.000238847 0.0
-0.000368597 -0.00021469 0.0
-7.69534e-05 -7.69534e-05 0.0
7.69534e-05 7.69534e-05 0.0
0.000149838 -0.000271733 0.0
-0.000149838 0.000271733 0.0
-0.000575722 0.000646683 0.0
-0.00115131 0.000716882 0.0
-0.00174316 0.000696781 0.0
-0.00231447 0.0006598 0.0
-0.00285827 0.000621428 0.0
-0.00337368 0.000583966 0.0
-0.00386073 0.000547585 0.0
-0.00431958 0.000512205 0.0
-0.0047504 0.000477733 0.0
-0.00515339 0.000444081 0.0
-0.00552871 0.00041117 0.0
-0.00587656 0.000378921 0.0
-0.00619709 0.000347258 0.0
-0.00649045 0.000316107 0.0
-0.00675678 0.000285392 0.0
-0.00699619 0.000255039 0.0
-0.00720875 0.000224971 0.0
-0.00739451 0.000195114 0.0
-0.00755348 0.000165392 0.0
-0.00768564 0.000135726 0.0
-0.00779092 0.00010604 0.0
-0.00786921 7.62519e-05 0.0
-0.00792036 4.6282e-05 0.0
-0.00794417 1.60464e-05 0.0
-0.00794041 -1.45403e-05 0.0
-0.00790877 -4.55662e-05 0.0
-0.0078489 -7.71218e-05 0.0
-0.00776042 -0.000109301 0.0
-0.00764288 -0.0001422 0.0
-0.00749578 -0.000175918 0.0
-0.00731856 -0.000210559 0.0
-0.00711063 -0.000246227 0.0
-0.00687132 -0.000283029 0.0
-0.00659995 -0.000321074 0.0
-0.00629578 -0.000360469 0.0
-0.00595802 -0.000401319 0.0
-0.00558589 -0.000443723 0.0
-0.00517857 -0.000487767 0.0
-0.00473527 -0.00053352 0.0
-0.00425522 -0.000581022 0.0
-0.00373774 -0.000630264 0.0
-0.00318227 -0.000681136 0.0
-0.00258861 -0.000733091 0.0
-0.00195793 -0.000782952 0.0
-0.00129866 -0.000812653 0.0
-0.000652891 -0.000740188 0.0
-0.000171041 -0.000324948 0.0
0.000171041 0.000324948 0.0
0.000169147 -0.000590717 0.0
-0.000169147 0.000590717 0.0
-0.000635541 0.00121998 0.0
-0.00125328 0.00133691 0.0
-0.00188649 0.00130181 0.0
-0.00249797 0.00123756 0.0
-0.00308067 0.00117018 0.0
-0.00363365 0.0011036 0.0
-0.00415685 0.00103821 0.0
-0.00465036 0.00097394 0.0
-0.00511425 0.000910716 0.0
-0.00554861 0.00084845 0.0
-0.00595355 0.00078706 0.0
-0.00632914 0.000726462 0.0
-0.00667546 0.000666572 0.0
-0.0069926 0.000607297 0.0
-0.00728061 0.000548545 0.0
-0.00753953 0.000490216 0.0
-0.00776939 0.00043221 0.0
-0.00797017 0.00037442 0.0
-0.00814185 0.000316737 0.0
-0.00828436 0.000259048 0.0
-0.0083976 0.000201238 0.0
-0.00848145 0.000143186 0.0
-0.00853572 8.47705e-05 0.0
-0.00856021 2.58632e-05 0.0
-0.00855467 -3.36662e-05 0.0
-0.0085188 -9.39522e-05 0.0
-0.00845226 -0.000155133 0.0
-0.00835468 -0.000217351 0.0
-0.00822562 -0.000280752 0.0
-0.0080646 -0.000345483 0.0
-0.00787112 -0.000411698 0.0
-0.00764459 -0.000479547 0.0
-0.00738442 -0.000549182 0.0
-0.00708996 -0.000620754 0.0
-0.00676052 -0.000694406 0.0
-0.00639539 -0.00077027 0.0
-0.00599383 -0.000848461 0.0
-0.00555511 -0.000929068 0.0
-0.00507849 -0.00101214 0.0
-0.00456328 -0.00109766 0.0
-0.00400886 -0.00118553 0.0
-0.00341475 -0.00127546 0.0
-0.00278077 -0.00136641 0.0
-0.00210817 -0.00145292 0.0
-0.00140549 -0.00150463 0.0
-0.000715332 -0.00138414 0.0
-0.000191095 -0.000687085 0.0
0.000191095 0.000687085 0.0
0.000173652 -0.000933515 0.0
-0.000173652 0.000933515 0.0
-0.000651375 0.0018213 0.0
-0.0012826 0.00198456 0.0
-0.00192859 0.00193336 0.0
-0.00255181 0.00184071 0.0
-0.0031453 0.00174322 0.0
-0.00370823 0.00164645 0.0
-0.00424065 0.00155097 0.0
-0.0047427 0.00145673 0.0
-0.00521453 0.00136364 0.0
-0.00565626 0.00127162 0.0
-0.00606801 0.00118057 0.0
-0.00644989 0.00109042 0.0
-0.006802 0.00100105 0.0
-0.00712443 0.000912381 0.0
-0.00741724 0.000824283 0.0
-0.00768048 0.000736644 0.0
-0.00791418 0.000649336 0.0
-0.00811833 0.000562226 0.0
-0.00829289 0.000475176 0.0
-0.00843782 0.000388041 0.0
-0.008553 0.000300669 0.0
-0.00863831 0.000212904 0.0
-0.00869356 0.000124584 0.0
-0.00871857 3.55409e-05 0.0
-0.00871305 -5.43978e-05 0.0
-0.00867673 -0.00014541 0.0
-0.00860926 -0.00023768 0.0
-0.00851026 -0.000331395 0.0
-0.00837928 -0.000426748 0.0
-0.00821585 -0.000523933 0.0
-0.00801943 -0.000623149 0.0
-0.00778945 -0.000724594 0.0
-0.00752529 -0.000828464 0.0
-0.00722628 -0.000934949 0.0
-0.0068917 -0.00104423 0.0
-0.00652082 -0.00115647 0.0
-0.00611284 -0.0012718 0.0
-0.00566698 -0.00139031 0.0
-0.00518244 -0.00151205 0.0
-0.00465845 -0.00163695 0.0
-0.00409428 -0.00176483 0.0
-0.00348932 -0.00189523 0.0
-0.00284327 -0.00202665 0.0
-0.00215721 -0.00215134 0.0
-0.00143961 -0.00222649 0.0
-0.000733619 -0.00205843 0.0
-0.000196233 -0.00107441 0.0
0.000196233 0.00107441 0.0
0.000176386 -0.00128355 0.0
-0.000176386 0.00128355 0.0
-0.000662283 0.00243488 0.0
-0.00130418 0.0026441 0.0
-0.00195998 0.0025756 0.0
-0.00259173 0.00245344 0.0
-0.00319262 0.00232488 0.0
-0.00376201 0.00219711 0.0
-0.0043001 0.00207083 0.0
-0.00480717 0.00194599 0.0
-0.00528344 0.00182249 0.0
-0.00572914 0.0017002 0.0
-0.00614445 0.00157904 0.0
-0.00652952 0.0014589 0.0
-0.0068845 0.00133967 0.0
-0.00720951 0.00122121 0.0
-0.00750465 0.00110341 0.0
-0.00776999 0.000986104 0.0
-0.00800558 0.000869155 0.0
-0.00821141 0.000752394 0.0
-0.00838749 0.000635652 0.0
-0.00853375 0.000518749 0.0
-0.0086501 0.000401497 0.0
-0.00873642 0.000283701 0.0
-0.00879254 0.000165161 0.0
-0.00881824 4.56644e-05 0.0
-0.00881326 -7.5004e-05 0.0
-0.00877732 -0.000197068 0.0
-0.00871006 -0.000320758 0.0
-0.00861107 -0.00044631 0.0
-0.00847992 -0.000573966 0.0
-0.00831609 -0.000703971 0.0
-0.00811904 -0.000836574 0.0
-0.00788816 -0.000972024 0.0
-0.00762279 -0.00111057 0.0
-0.00732221 -0.00125244 0.0
-0.00698566 -0.00139787 0.0
-0.00661232 -0.00154706 0.0
-0.00620134 -0.00170017 0.0
-0.00575182 -0.00185732 0.0
-0.00526286 -0.00201855 0.0
-0.00473353 -0.00218377 0.0
-0.00416295 -0.00235276 0.0
-0.00355032 -0.0025249 0.0
-0.00289511 -0.00269824 0.0
-0.00219816 -0.00286276 0.0
-0.00146784 -0.00296299 0.0
-0.000747956 -0.00274781 0.0
-0.000199867 -0.00147051 0.0
0.000199867 0.00147051 0.0
0.000179726 -0.00163967 0.0
-0.000179726 0.00163967 0.0
-0.0006754 0.00306034 0.0
-0.00132991 0.00331505 0.0
-0.00199721 0.00322776 0.0
-0.00263886 0.00307469 0.0
-0.00324824 0.00291391 0.0
-0.00382496 0.00275418 0.0
-0.00436941 0.00259631 0.0
-0.00488204 0.00244021 0.0
-0.00536321 0.00228571 0.0
-0.00581323 0.00213269 0.0
-0.00623236 0.00198099 0.0
-0.00662084 0.0018305 0.0
-0.00697887 0.00168108 0.0
-0.00730662 0.00153256 0.0
-0.00760422 0.0013848 0.0
-0.00787178 0.00123761 0.0
-0.00810937 0.00109082 0.0
-0.00831701 0.00094422 0.0
-0.00849473 0.000797614 0.0
-0.00864246 0.000650781 0.0
-0.00876014 0.000503495 0.0
-0.00884764 0.000355521 0.0
-0.0089048 0.000206612 0.0
-0.0089314 5.65147e-05 0.0
-0.00892719 -9.50357e-05 0.0
-0.00889186 -0.000248311 0.0
-0.00882504 -0.000403592 0.0
-0.00872634 -0.000561168 0.0
-0.00859527 -0.000721333 0.0
-0.00843131 -0.000884389 0.0
-0.00823387 -0.00105064 0.0
-0.00800231 -0.0012204 0.0
-0.00773591 -0.00139396 0.0
-0.00743391 -0.00157163 0.0
-0.00709545 -0.00175368 0.0
-0.00671966 -0.00194038 0.0
-0.00630555 -0.00213193 0.0
-0.00585211 -0.0023285 0.0
-0.00535828 -0.00253015 0.0
-0.00482297 -0.00273681 0.0
-0.00424508 -0.0029482 0.0
-0.00362355 -0.00316361 0.0
-0.00295759 -0.00338069 0.0
-0.00224773 -0.00358712 0.0
-0.00150216 -0.00371452 0.0
-0.000765537 -0.00345279 0.0
-0.00020439 -0.00187477 0.0
0.00020439 0.00187477 0.0
0.000184041 -0.00200343 0.0
-0.000184041 0.00200343 0.0
-0.000691855 0.00370006 0.0
-0.00136165 0.00399962 0.0
-0.00204287 0.00389169 0.0
-0.00269649 0.00370602 0.0
-0.00331613 0.00351161 0.0
-0.0039017 0.00331876 0.0
-0.00445385 0.00312834 0.0
-0.0049732 0.00294016 0.0
-0.00546027 0.002754 0.0
-0.0059155 0.00256964 0.0
-0.00633925 0.00238692 0.0
-0.00673185 0.00220565 0.0
-0.00709356 0.00202567 0.0
-0.00742461 0.00184677 0.0
-0.00772518 0.00166876 0.0
-0.00799542 0.00149144 0.0
-0.00823543 0.00131458 0.0
-0.00844527 0.00113795 0.0
-0.00862496 0.000961292 0.0
-0.00877449 0.000784361 0.0
-0.00889378 0.000606882 0.0
-0.00898271 0.000428574 0.0
-0.00904114 0.000249146 0.0
-0.00906885 6.82936e-05 0.0
-0.00906558 -0.000114297 0.0
-0.00903101 -0.000298952 0.0
-0.00896477 -0.000486006 0.0
-0.00886642 -0.000675806 0.0
-0.00873548 -0.000868707 0.0
-0.00857138 -0.00106507 0.0
-0.00837351 -0.00126527 0.0
-0.00814115 -0.00146968 0.0
-0.00787355 -0.00167867 0.0
-0.00756985 -0.00189262 0.0
-0.00722914 -0.00211186 0.0
-0.00685039 -0.00233674 0.0
-0.00643253 -0.00256754 0.0
-0.00597438 -0.00280449 0.0
-0.00547469 -0.00304769 0.0
-0.00493215 -0.00329712 0.0
-0.00434541 -0.00355252 0.0
-0.00371311 -0.00381311 0.0
-0.00303412 -0.00407615 0.0
-0.00230859 -0.00432705 0.0
-0.00154451 -0.00448423 0.0
-0.000787522 -0.0041767 0.0
-0.000210184 -0.00228934 0.0
0.000210184 0.00228934 0.0
0.000189411 -0.00237689 0.0
-0.000189411 0.00237689 0.0
-0.00071189 0.0043569 0.0
-0.00139981 0.0047005 0.0
-0.00209749 0.00456971 0.0
-0.00276526 0.00434939 0.0
-0.00339705 0.00411968 0.0
-0.00399309 0.00389231 0.0
-0.00455434 0.00366819 0.0
-0.00508165 0.00344697 0.0
-0.00557571 0.00322832 0.0
-0.00603711 0.00301195 0.0
-0.00646634 0.0027976 0.0
-0.00686382 0.00258505 0.0
-0.0072299 0.00237406 0.0
-0.00756487 0.00216439 0.0
-0.00786897 0.00195581 0.0
-0.00814239 0.00174805 0.0
-0.00838527 0.00154086 0.0
-0.00859772 0.00133395 0.0
-0.00877977 0.00112703 0.0
-0.00893142 0.000919798 0.0
-0.00905262 0.000711934 0.0
-0.00914327 0.000503111 0.0
-0.00920321 0.000292983 0.0
-0.00923224 8.11938e-05 0.0
-0.00923008 -0.000132626 0.0
-0.00919642 -0.000348859 0.0
-0.00913086 -0.000567903 0.0
-0.00903295 -0.000790167 0.0
-0.00890216 -0.00101607 0.0
-0.00873791 -0.00124606 0.0
-0.00853952 -0.00148056 0.0
-0.00830623 -0.00172004 0.0
-0.00803721 -0.00196494 0.0
-0.00773152 -0.00221573 0.0
-0.00738813 -0.00247285 0.0
-0.00700591 -0.00273672 0.0
-0.00658362 -0.00300773 0.0
-0.00611989 -0.00328618 0.0
-0.00561327 -0.0035723 0.0
-0.00506218 -0.00386613 0.0
-0.00446497 -0.00416746 0.0
-0.00381993 -0.00447551 0.0
-0.0031255 -0.00478719 0.0
-0.0023814 -0.00508563 0.0
-0.0015954 -0.00527572 0.0
-0.000814214 -0.00492338 0.0
-0.000217342 -0.00271687 0.0
0.000217342 0.00271687 0.0
0.000195886 -0.00276218 0.0
-0.000195886 0.00276218 0.0
-0.000735662 0.00503386 0.0
-0.00144464 0.00542044 0.0
-0.00216138 0.00526418 0.0
-0.00284553 0.00500684 0.0
-0.00349136 0.00473985 0.0
-0.00409953 0.00447636 0.0
-0.00467131 0.00421718 0.0
-0.00520782 0.00396179 0.0
-0.00570997 0.00370971 0.0
-0.00617852 0.00346051 0.0
-0.0066141 0.00321385 0.0
-0.00701723 0.00296942 0.0
-0.00738837 0.00272691 0.0
-0.00772788 0.00248602 0.0
-0.00803607 0.00224647 0.0
-0.00831318 0.00200793 0.0
-0.0085594 0.00177009 0.0
-0.00877487 0.00153263 0.0
-0.00895965 0.00129518 0.0
-0.00911377 0.00105741 0.0
-0.0092372 0.000818945 0.0
-0.00932984 0.00057939 0.0
-0.00939154 0.000338351 0.0
-0.0094221 9.54138e-05 0.0
-0.00942125 -0.000149854 0.0
-0.00938865 -0.000397899 0.0
-0.00932389 -0.000649184 0.0
-0.00922649 -0.000904191 0.0
-0.00909591 -0.00116342 0.0
-0.0089315 -0.00142738 0.0
-0.00873253 -0.0016966 0.0
-0.00849819 -0.00197163 0.0
-0.00822755 -0.00225301 0.0
-0.00791958 -0.00254132 0.0
-0.00757313 -0.0028371 0.0
-0.00718691 -0.00314091 0.0
-0.00675951 -0.00345324 0.0
-0.00628936 -0.00377455 0.0
-0.00577473 -0.00410518 0.0
-0.00521377 -0.0044453 0.0
-0.00460444 -0.00479482 0.0
-0.00394464 -0.005153 0.0
-0.0032323 -0.00551647 0.0
-0.00246668 -0.00586607 0.0
-0.0016552 -0.00609276 0.0
-0.000845847 -0.00569689 0.0
-0.000225937 -0.00316015 0.0
0.000225937 0.00316015 0.0
0.000203524 -0.00316159 0.0
-0.000203524 0.00316159 0.0
-0.000763345 0.00573404 0.0
-0.0014964 0.00616229 0.0
-0.00223486 0.00597752 0.0
-0.00293766 0.00568044 0.0
-0.00359948 0.00537391 0.0
-0.00422144 0.00507243 0.0
-0.0048052 0.00477665 0.0
-0.00535217 0.00448581 0.0
-0.00586352 0.0041992 0.0
-0.0063402 0.00391624 0.0
-0.00678298 0.00363648 0.0
-0.00719254 0.00335948 0.0
-0.00756943 0.00308486 0.0
-0.00791411 0.00281225 0.0
-0.00822694 0.00254127 0.0
-0.00850826 0.00227155 0.0
-0.00875828 0.00200272 0.0
-0.00897718 0.00173437 0.0
-0.00916508 0.00146612 0.0
-0.00932202 0.00119754 0.0
-0.00944798 0.000928209 0.0
-0.0095429 0.000657679 0.0
-0.00960662 0.00038549 0.0
-0.00963894 0.000111161 0.0
-0.00963959 -0.000165805 0.0
-0.00960822 -0.000445926 0.0
-0.0095444 -0.00072974 0.0
-0.00944762 -0.00101781 0.0
-0.00931729 -0.00131071 0.0
-0.00915273 -0.00160905 0.0
-0.00895315 -0.00191347 0.0
-0.00871765 -0.0022246 0.0
-0.00844522 -0.00254311 0.0
-0.00813471 -0.0028697 0.0
-0.00778482 -0.00320506 0.0
-0.0073941 -0.00354988 0.0
-0.00696094 -0.00390483 0.0
-0.00648352 -0.00427053 0.0
-0.00595982 -0.00464751 0.0
-0.00538764 -0.00503612 0.0
-0.00476453 -0.00543643 0.0
-0.0040879 -0.00584782 0.0
-0.00335516 -0.00626672 0.0
-0.00256495 -0.00667165 0.0
-0.00172435 -0.00693925 0.0
-0.000882686 -0.00650143 0.0
-0.000236057 -0.00362214 0.0
0.000236057 0.00362214 0.0
0.000212396 -0.00357751 0.0
-0.000212396 0.00357751 0.0
-0.000795144 0.00646069 0.0
-0.0015554 0.00692896 0.0
-0.00231831 0.00671222 0.0
-0.00304206 0.00637228 0.0
-0.00372183 0.00602366 0.0
-0.00435927 0.00568208 0.0
-0.00495647 0.00534795 0.0
-0.00551519 0.00502019 0.0
-0.00603685 0.00469782 0.0
-0.00652263 0.00438007 0.0
-0.0069735 0.00406631 0.0
-0.00739026 0.00375598 0.0
-0.00777359 0.00344859 0.0
-0.00812405 0.00314366 0.0
-0.00844211 0.00284075 0.0
-0.00872813 0.0025394 0.0
-0.00898241 0.00223917 0.0
-0.00920518 0.00193959 0.0
-0.00939657 0.00164019 0.0
-0.00955668 0.00134051 0.0
-0.0096855 0.00104003 0.0
-0.00978299 0.000738254 0.0
-0.00984899 0.000434645 0.0
-0.00988332 0.000128656 0.0
-0.00988568 -0.000180287 0.0
-0.00985572 -0.00049278 0.0
-0.00979299 -0.000809443 0.0
-0.00969694 -0.00113093 0.0
-0.00956696 -0.0014579 0.0
-0.00940229 -0.00179109 0.0
-0.00920208 -0.00213122 0.0
-0.00896534 -0.00247907 0.0
-0.00869096 -0.00283545 0.0
-0.00837766 -0.00320119 0.0
-0.00802399 -0.00357715 0.0
-0.00762829 -0.0039642 0.0
-0.00718873 -0.00436323 0.0
-0.00670321 -0.00477508 0.0
-0.00616938 -0.00520049 0.0
-0.00558463 -0.00564008 0.0
-0.00494605 -0.00609415 0.0
-0.00425051 -0.00656227 0.0
-0.00349478 -0.00704074 0.0
-0.00267683 -0.00750578 0.0
-0.00180334 -0.00781921 0.0
-0.000925044 -0.00734144 0.0
-0.000247805 -0.004106 0.0
0.000247805 0.004106 0.0
0.000222586 -0.00401249 0.0
-0.000222586 0.00401249 0.0
-0.000831296 0.00721717 0.0
-0.00162199 0.00772344 0.0
-0.00241214 0.0074708 0.0
-0.0031592 0.00708451 0.0
-0.00385893 0.00669093 0.0
-0.00451357 0.00630689 0.0
-0.00512569 0.00593246 0.0
-0.00569743 0.00556614 0.0
-0.00623052 0.00520663 0.0
-0.0067264 0.00485292 0.0
-0.00718622 0.00450415 0.0
-0.00761096 0.00415964 0.0
-0.00800143 0.00381873 0.0
-0.0083583 0.00348085 0.0
-0.00868213 0.00314544 0.0
-0.00897337 0.00281197 0.0
-0.00923238 0.00247989 0.0
-0.00945943 0.00214868 0.0
-0.00965472 0.00181779 0.0
-0.00981835 0.00148666 0.0
-0.00995037 0.00115472 0.0
-0.0100507 0.000821396 0.0
-0.0101193 0.000486075 0.0
-0.0101559 0.000148129 0.0
-0.0101602 -0.000193096 0.0
-0.0101318 -0.000538283 0.0
-0.0100703 -0.000888146 0.0
-0.00997517 -0.00124343 0.0
-0.00984563 -0.00160493 0.0
-0.00968091 -0.00197346 0.0
-0.00948008 -0.00234989 0.0
-0.00924206 -0.00273515 0.0
-0.00896561 -0.0031302 0.0
-0.00864931 -0.00353604 0.0
-0.00829153 -0.00395375 0.0
-0.0078904 -0.00438442 0.0
-0.00744382 -0.00482916 0.0
-0.00694938 -0.00528911 0.0
-0.00640435 -0.00576531 0.0
-0.00580568 -0.00625869 0.0
-0.00514992 -0.00676987 0.0
-0.00443332 -0.0072987 0.0
-0.00365194 -0.00784142 0.0
-0.00280303 -0.00837197 0.0
-0.00189272 -0.00873683 0.0
-0.000973283 -0.00822155 0.0
-0.000261303 -0.00461511 0.0
0.000261303 0.00461511 0.0
0.000234193 -0.00446927 0.0
-0.000234193 0.00446927 0.0
-0.000872073 0.00800698 0.0
-0.00169655 0.0085488 0.0
-0.00251681 0.00825584 0.0
-0.00328959 0.00781932 0.0
-0.00401132 0.00737758 0.0
-0.0046849 0.00694845 0.0
-0.00531344 0.00653155 0.0
-0.0058995 0.00612486 0.0
-0.00644517 0.00572668 0.0
-0.00695214 0.00533571 0.0
-0.00742179 0.00495084 0.0
-0.00785529 0.00457119 0.0
-0.00825359 0.00419595 0.0
-0.0086175 0.00382441 0.0
-0.00894767 0.00345589 0.0
-0.00924464 0.00308974 0.0
-0.00950884 0.00272534 0.0
-0.00974061 0.00236206 0.0
-0.00994018 0.00199927 0.0
-0.0101077 0.00163633 0.0
-0.0102432 0.0012726 0.0
-0.0103468 0.000907402 0.0
-0.0104182 0.00054005 0.0
-0.0104573 0.000169828 0.0
-0.0104638 -0.000204009 0.0
-0.0104373 -0.000582241 0.0
-0.0103772 -0.000965683 0.0
-0.0102831 -0.00135519 0.0
-0.0101541 -0.00175168 0.0
-0.00998944 -0.00215611 0.0
-0.00978803 -0.00256949 0.0
-0.00954871 -0.0029929 0.0
-0.0092701 -0.0034275 0.0
-0.00895062 -0.00387452 0.0
-0.00858844 -0.00433524 0.0
-0.00818145 -0.00481103 0.0
-0.00772726 -0.00530332 0.0
-0.00722309 -0.00581356 0.0
-0.00666581 -0.00634317 0.0
-0.00605183 -0.00689348 0.0
-0.00537715 -0.00746552 0.0
-0.00463729 -0.00805951 0.0
-0.00382756 -0.00867172 0.0
-0.00294431 -0.00927383 0.0
-0.00199312 -0.00969647 0.0
-0.00102782 -0.00914665 0.0
-0.000276695 -0.00515311 0.0
0.000276695 0.00515311 0.0
0.00024733 -0.0049508 0.0
-0.00024733 0.0049508 0.0
-0.000917784 0.00883379 0.0
-0.00177953 0.00940821 0.0
-0.00263283 0.00906999 0.0
-0.00343381 0.00857894 0.0
-0.00417962 0.0080855 0.0
-0.00487391 0.0076084 0.0
-0.0055204 0.00714662 0.0
-0.0061221 0.00669756 0.0
-0.00668149 0.00625904 0.0
-0.00720054 0.00582937 0.0
-0.00768091 0.0054072 0.0
-0.00812395 0.00499137 0.0
-0.00853079 0.00458091 0.0
-0.00890235 0.00417492 0.0
-0.00923943 0.00377261 0.0
-0.00954265 0.0033732 0.0
-0.00981252 0.00297595 0.0
-0.0100494 0.00258013 0.0
-0.0102537 0.00218502 0.0
-0.0104255 0.00178989 0.0
-0.0105649 0.00139399 0.0
-0.0106719 0.000996577 0.0
-0.0107465 0.000596854 0.0
-0.0107884 0.000194015 0.0
-0.0107973 -0.000212786 0.0
-0.0107729 -0.000624435 0.0
-0.0107145 -0.00104186 0.0
-0.0106216 -0.00146605 0.0
-0.0104934 -0.00189804 0.0
-0.0103288 -0.00233895 0.0
-0.0101269 -0.00278997 0.0
-0.00988631 -0.00325236 0.0
-0.00960548 -0.00372749 0.0
-0.00928267 -0.00421683 0.0
-0.00891582 -0.00472195 0.0
-0.00850258 -0.00524455 0.0
-0.00804019 -0.00578639 0.0
-0.00752551 -0.00634934 0.0
-0.0069549 -0.00693528 0.0
-0.00632425 -0.007546 0.0
-0.00562886 -0.00818307 0.0
-0.00486351 -0.00884717 0.0
-0.00402259 -0.00953471 0.0
-0.00310154 -0.0102151 0.0
-0.00210524 -0.0107027 0.0
-0.00108911 -0.0101219 0.0
-0.000294145 -0.00572395 0.0
0.000294145 0.00572395 0.0
0.000262127 -0.00546025 0.0
-0.000262127 0.00546025 0.0
-0.000968778 0.00970144 0.0
-0.0018714 0.0103049 0.0
-0.00276077 0.00991596 0.0
-0.00359246 0.00936563 0.0
-0.00436448 0.00881664 0.0
-0.0050813 0.00828839 0.0
-0.00574728 0.0077791 0.0
-0.00636597 0.00728547 0.0
-0.00694023 0.00680477 0.0
-0.00747239 0.00633486 0.0
-0.00796436 0.00587405 0.0
-0.00841773 0.00542092 0.0
-0.0088338 0.00497426 0.0
-0.00921366 0.004533 0.0
-0.00955821 0.00409616 0.0
-0.0098682 0.00366285 0.0
-0.0101442 0.00323218 0.0
-0.0103867 0.00280332 0.0
-0.0105961 0.00237544 0.0
-0.0107725 0.00194769 0.0
-0.0109161 0.00151925 0.0
-0.011027 0.00108924 0.0
-0.011105 0.000656788 0.0
-0.01115 0.000220971 0.0
-0.0111617 -0.000219165 0.0
-0.0111396 -0.000664624 0.0
-0.0110831 -0.00111646 0.0
-0.0109917 -0.00157581 0.0
-0.0108643 -0.00204385 0.0
-0.0107001 -0.00252188 0.0
-0.0104978 -0.00301127 0.0
-0.010256 -0.00351351 0.0
-0.00997289 -0.00403022 0.0
-0.00964664 -0.00456315 0.0
-0.00927491 -0.0051142 0.0
-0.00885503 -0.00568543 0.0
-0.00838389 -0.00627904 0.0
-0.00785791 -0.00689737 0.0
-0.00727293 -0.00754283 0.0
-0.0066242 -0.00821783 0.0
-0.0059063 -0.00892454 0.0
-0.00511312 -0.00966424 0.0
-0.00423812 -0.0104336 0.0
-0.00327567 -0.0111998 0.0
-0.00222986 -0.0117601 0.0
-0.0011577 -0.0111527 0.0
-0.000313843 -0.00633194 0.0
0.000313843 0.00633194 0.0
0.000278735 -0.00600111 0.0
-0.000278735 0.00600111 0.0
-0.00102544 0.0106139 0.0
-0.00197269 0.0112423 0.0
-0.00290124 0.0107965 0.0
-0.00376621 0.0101817 0.0
-0.00456662 0.00957297 0.0
-0.00530782 0.00899009 0.0
-0.00599488 0.00843044 0.0
-0.00663191 0.00788985 0.0
-0.00722222 0.00736496 0.0
-0.00776851 0.00685312 0.0
-0.00827299 0.00635225 0.0
-0.00873748 0.00586059 0.0
-0.0091635 0.00537668 0.0
-0.00955229 0.00489923 0.0
-0.00990489 0.00442709 0.0
-0.0102222 0.00395918 0.0
-0.0105048 0.00349449 0.0
-0.0107533 0.00303205 0.0
-0.0109682 0.00257091 0.0
-0.0111496 0.00211011 0.0
-0.0112979 0.00164871 0.0
-0.0114129 0.00118573 0.0
-0.0114948 0.000720168 0.0
-0.0115432 0.000250999 0.0
-0.0115579 -0.000222859 0.0
-0.0115384 -0.000702541 0.0
-0.0114841 -0.00118924 0.0
-0.0113944 -0.00168425 0.0
-0.0112682 -0.00218892 0.0
-0.0111045 -0.00270474 0.0
-0.0109019 -0.0032333 0.0
-0.0106589 -0.00377634 0.0
-0.0103736 -0.00433576 0.0
-0.0100438 -0.00491364 0.0
-0.00966703 -0.00551226 0.0
-0.00924017 -0.00613411 0.0
-0.00875976 -0.0067819 0.0
-0.00822171 -0.00745853 0.0
-0.0076213 -0.00816706 0.0
-0.00695307 -0.00891057 0.0
-0.00621078 -0.00969199 0.0
-0.00538741 -0.0105133 0.0
-0.00447532 -0.0113716 0.0
-0.00346773 -0.0122318 0.0
-0.00236784 -0.0128738 0.0
-0.00123417 -0.0122449 0.0
-0.000336006 -0.00698179 0.0
0.000336006 0.00698179 0.0
0.000297322 -0.00657717 0.0
-0.000297322 0.00657717 0.0
-0.00108822 0.0115755 0.0
-0.00208399 0.0122237 0.0
-0.00305489 0.0117145 0.0
-0.0039558 0.0110296 0.0
-0.00478682 0.0103565 0.0
-0.00555429 0.00971523 0.0
-0.00626404 0.0091021 0.0
-0.00692079 0.00851196 0.0
-0.00752835 0.00794071 0.0
-0.00808982 0.00738512 0.0
-0.00860772 0.00684263 0.0
-0.00908414 0.00631112 0.0
-0.00952081 0.00578883 0.0
-0.00991917 0.00527423 0.0
-0.0102804 0.00476593 0.0
-0.0106055 0.00426269 0.0
-0.0108952 0.00376334 0.0
-0.0111502 0.00326675 0.0
-0.011371 0.00277184 0.0
-0.0115579 0.00227753 0.0
-0.0117111 0.00178275 0.0
-0.0118308 0.00128639 0.0
-0.0119168 0.000787332 0.0
-0.0119689 0.000284421 0.0
-0.011987 -0.00022356 0.0
-0.0119704 -0.00073789 0.0
-0.0119186 -0.00125992 0.0
-0.0118309 -0.00179111 0.0
-0.0117061 -0.00233302 0.0
-0.0115431 -0.00288734 0.0
-0.0113405 -0.0034559 0.0
-0.0110965 -0.00404074 0.0
-0.010809 -0.00464409 0.0
-0.0104757 -0.00526839 0.0
-0.0100937 -0.00591636 0.0
-0.00965951 -0.00659101 0.0
-0.00916931 -0.00729561 0.0
-0.00861844 -0.00803373 0.0
-0.00800152 -0.00880918 0.0
-0.00731235 -0.00962586 0.0
-0.00654377 -0.0104876 0.0
-0.00568774 -0.0113972 0.0
-0.00473544 -0.0123521 0.0
-0.00367885 -0.0133154 0.0
-0.00252011 -0.0140488 0.0
-0.00131919 -0.0134045 0.0
-0.000360882 -0.00767867 0.0
0.000360882 0.00767867 0.0
0.000318082 -0.00719258 0.0
-0.000318082 0.00719258 0.0
-0.00115759 0.0125905 0.0
-0.00220592 0.0132529 0.0
-0.00322245 0.0126728 0.0
-0.004162 0.0119118 0.0
-0.00502591 0.0111693 0.0
-0.00582158 0.0104656 0.0
-0.00655566 0.00979559 0.0
-0.00723355 0.00915312 0.0
-0.00785959 0.00853316 0.0
-0.00843729 0.00793184 0.0
-0.00896954 0.00734606 0.0
-0.00945871 0.00677328 0.0
-0.00990676 0.0062114 0.0
-0.0103153 0.00565859 0.0
-0.0106858 0.00511325 0.0
-0.0110192 0.0045739 0.0
-0.0113166 0.0040392 0.0
-0.0115785 0.00350787 0.0
-0.0118057 0.00297866 0.0
-0.0119984 0.00245036 0.0
-0.012157 0.00192174 0.0
-0.0122816 0.00139159 0.0
-0.0123721 0.000858639 0.0
-0.0124284 0.000321587 0.0
-0.0124502 -0.000220928 0.0
-0.0124369 -0.000770344 0.0
-0.012388 -0.00132819 0.0
-0.0123025 -0.00189611 0.0
-0.0121794 -0.00247588 0.0
-0.0120174 -0.00306943 0.0
-0.011815 -0.0036789 0.0
-0.0115701 -0.00430661 0.0
-0.0112806 -0.00495517 0.0
-0.0109438 -0.00562747 0.0
-0.0105564 -0.00632672 0.0
-0.0101147 -0.00705651 0.0
-0.00961418 -0.00782078 0.0
-0.00904974 -0.00862388 0.0
-0.00841525 -0.00947045 0.0
-0.00770365 -0.0103654 0.0
-0.00690683 -0.0113134 0.0
-0.0060156 -0.0123185 0.0
-0.00501987 -0.0133788 0.0
-0.00391024 -0.014455 0.0
-0.0026877 -0.0152905 0.0
-0.0014135 -0.0146379 0.0
-0.00038875 -0.00842831 0.0
0.00038875 0.00842831 0.0
0.00034123 -0.00785189 0.0
-0.00034123 0.00785189 0.0
-0.00123408 0.0136635 0.0
-0.00233918 0.0143332 0.0
-0.00340468 0.0136745 0.0
-0.00438563 0.0128306 0.0
-0.00528477 0.0120135 0.0
-0.00611061 0.0112429 0.0
-0.00687072 0.0105125 0.0
-0.00757121 0.00981462 0.0
-0.00821696 0.00914345 0.0
-0.00881198 0.00849428 0.0
-0.00935952 0.00786341 0.0
-0.00986227 0.00724785 0.0
-0.0103225 0.00664508 0.0
-0.0107419 0.00605296 0.0
-0.0111222 0.0054696 0.0
-0.0114645 0.00489333 0.0
-0.01177 0.00432256 0.0
-0.0120394 0.00375585 0.0
-0.0122733 0.00319179 0.0
-0.0124723 0.00262899 0.0
-0.0126367 0.0020661 0.0
-0.0127667 0.00150173 0.0
-0.0128621 0.000934472 0.0
-0.0129229 0.000362873 0.0
-0.0129488 -0.000214593 0.0
-0.0129392 -0.000799541 0.0
-0.0128934 -0.00139369 0.0
-0.0128106 -0.0019989 0.0
-0.0126896 -0.00261719 0.0
-0.0125289 -0.00325076 0.0
-0.0123269 -0.00390205 0.0
-0.0120815 -0.00457376 0.0
-0.0117901 -0.00526892 0.0
-0.0114497 -0.00599091 0.0
-0.0110569 -0.00674351 0.0
-0.0106074 -0.00753097 0.0
-0.0100962 -0.00835801 0.0
-0.00951741 -0.00922985 0.0
-0.00886425 -0.0101521 0.0
-0.00812871 -0.0111308 0.0
-0.00730163 -0.0121719 0.0
-0.00637257 -0.0132804 0.0
-0.00533006 -0.0144552 0.0
-0.00416323 -0.0156551 0.0
-0.00287173 -0.0166045 0.0
-0.00151791 -0.015952 0.0
-0.000419928 -0.00923698 0.0
0.000419928 0.00923698 0.0
0.000367012 -0.00856013 0.0
-0.000367012 0.00856013 0.0
-0.0013183 0.0147994 0.0
-0.00248451 0.0154686 0.0
-0.0036024 0.0147225 0.0
-0.00462759 0.0137888 0.0
-0.00556433 0.0128912 0.0
-0.00642238 0.0120491 0.0
-0.00721026 0.0112543 0.0
-0.00793482 0.0104978 0.0
-0.00860158 0.00977275 0.0
-0.00921503 0.00907345 0.0
-0.00977883 0.00839558 0.0
-0.010296 0.0077356 0.0
-0.0107691 0.00709056 0.0
-0.0112001 0.00645795 0.0
-0.0115908 0.00583558 0.0
-0.0119426 0.0052215 0.0
-0.0122567 0.00461392 0.0
-0.012534 0.00401118 0.0
-0.0127752 0.00341168 0.0
-0.0129809 0.00281387 0.0
-0.0131516 0.00221623 0.0
-0.0132873 0.00161721 0.0
-0.0133881 0.00101524 0.0
-0.0134538 0.000408686 0.0
-0.0134842 -0.000204153 0.0
-0.0134787 -0.000825082 0.0
-0.0134366 -0.00145604 0.0
-0.0133568 -0.00209911 0.0
-0.0132383 -0.00275658 0.0
-0.0130793 -0.00343097 0.0
-0.0128781 -0.00412507 0.0
-0.0126323 -0.00484198 0.0
-0.0123392 -0.00558521 0.0
-0.0119955 -0.00635869 0.0
-0.0115972 -0.00716686 0.0
-0.0111396 -0.00801473 0.0
-0.0106172 -0.00890789 0.0
-0.0100233 -0.00985256 0.0
-0.00935041 -0.0108555 0.0
-0.0085894 -0.011924 0.0
-0.00772995 -0.0130653 0.0
-0.00676033 -0.0142857 0.0
-0.00566759 -0.0155851 0.0
-0.00443921 -0.0169203 0.0
-0.00307341 -0.0179965 0.0
-0.00163335 -0.0173538 0.0
-0.000454775 -0.0101117 0.0
0.000454775 0.0101117 0.0
0.000395705 -0.00932285 0.0
-0.000395705 0.00932285 0.0
-0.00141091 0.0160032 0.0
-0.00264271 0.0166629 0.0
-0.0038165 0.0158199 0.0
-0.00488881 0.0147888 0.0
-0.0058656 0.0138047 0.0
-0.00675794 0.012886 0.0
-0.00757536 0.0120227 0.0
-0.00832552 0.0112042 0.0
-0.00901461 0.0104223 0.0
-0.00964763 0.0096704 0.0
-0.0102287 0.00894349 0.0
-0.0107612 0.00823736 0.0
-0.0112479 0.00754857 0.0
-0.0116912 0.00687422 0.0
-0.0120929 0.00621176 0.0
-0.0124547 0.00555896 0.0
-0.012778 0.00491377 0.0
-0.0130637 0.00427432 0.0
-0.0133127 0.00363879 0.0
-0.0135256 0.00300545 0.0
-0.0137029 0.00237259 0.0
-0.0138449 0.00173848 0.0
-0.0139515 0.00110138 0.0
-0.0140226 0.000459464 0.0
-0.014058 -0.000189165 0.0
-0.0140571 -0.000846528 0.0
-0.014019 -0.00151479 0.0
-0.0139428 -0.00219631 0.0
-0.0138271 -0.00289366 0.0
-0.0136703 -0.00360971 0.0
-0.0134702 -0.00434763 0.0
-0.0132244 -0.00511099 0.0
-0.0129298 -0.00590384 0.0
-0.0125829 -0.00673075 0.0
-0.0121791 -0.00759687 0.0
-0.0117133 -0.00850809 0.0
-0.0111793 -0.00947098 0.0
-0.0105696 -0.0104929 0.0
-0.00987578 -0.0115819 0.0
-0.00908767 -0.0127467 0.0
-0.00819371 -0.013996 0.0
-0.0071807 -0.0153376 0.0
-0.00603411 -0.0167725 0.0
-0.00473971 -0.0182557 0.0
-0.00329406 -0.0194726 0.0
-0.00176081 -0.018851 0.0
-0.000493697 -0.0110602 0.0
0.000493697 0.0110602 0.0
0.00042762 -0.0101462 0.0
-0.00042762 0.0101462 0.0
-0.00151263 0.0172801 0.0
-0.00281467 0.0179198 0.0
-0.0040479 0.01697 0.0
-0.00517028 0.0158334 0.0
-0.00618962 0.0147562 0.0
-0.00711839 0.0137556 0.0
-0.00796719 0.0128193 0.0
-0.00874454 0.0119351 0.0
-0.00945731 0.0110932 0.0
-0.0101111 0.0102862 0.0
-0.0107104 0.00950808 0.0
-0.0112591 0.00875395 0.0
-0.0117603 0.00801986 0.0
-0.0122165 0.00730243 0.0
-0.01263 0.00659875 0.0
-0.0130025 0.00590627 0.0
-0.0133354 0.00522266 0.0
-0.01363 0.00454577 0.0
-0.0138873 0.0038736 0.0
-0.0141079 0.0032042 0.0
-0.0142924 0.00253564 0.0
-0.0144411 0.00186601 0.0
-0.014554 0.00119337 0.0
-0.014631 0.000515684 0.0
-0.0146719 -0.000169151 0.0
-0.014676 -0.000863393 0.0
-0.0146425 -0.00156947 0.0
-0.0145703 -0.00229002 0.0
-0.014458 -0.00302796 0.0
-0.0143037 -0.00378652 0.0
-0.0141053 -0.00456933 0.0
-0.0138599 -0.00538048 0.0
-0.0135642 -0.00622461 0.0
-0.0132141 -0.00710699 0.0
-0.0128049 -0.00803363 0.0
-0.0123307 -0.00901135 0.0
-0.0117846 -0.0100479 0.0
-0.0111584 -0.0111518 0.0
-0.0104425 -0.0123328 0.0
-0.00962565 -0.0136008 0.0
-0.00869491 -0.0149665 0.0
-0.00763558 -0.0164394 0.0
-0.00643141 -0.0180215 0.0
-0.00506633 -0.0196662 0.0
-0.00353511 -0.021039 0.0
-0.00190143 -0.0204516 0.0
-0.000537152 -0.012091 0.0
0.000537152 0.012091 0.0
0.000463109 -0.0110369 0.0
-0.000463109 0.0110369 0.0
-0.00162428 0.0186356 0.0
-0.00300132 0.0192434 0.0
-0.00429762 0.0181759 0.0
-0.00547307 0.0169253 0.0
-0.00653752 0.0157481 0.0
-0.00750491 0.0146598 0.0
-0.00838697 0.0136459 0.0
-0.00919313 0.012692 0.0
-0.009931 0.0117869 0.0
-0.0106067 0.010922 0.0
-0.0112255 0.0100903 0.0
-0.0117913 0.00928624 0.0
-0.0123077 0.00850518 0.0
-0.0127777 0.00774328 0.0
-0.0132035 0.0069972 0.0
-0.0135872 0.00626402 0.0
-0.0139305 0.00554112 0.0
-0.0142346 0.00482608 0.0
-0.0145007 0.00411664 0.0
-0.0147295 0.00341061 0.0
-0.0149217 0.00270588 0.0
-0.0150776 0.0020003 0.0
-0.0151973 0.0012917 0.0
-0.0152808 0.000577862 0.0
-0.0153276 -0.000143585 0.0
-0.0153373 -0.000875148 0.0
-0.015309 -0.00161954 0.0
-0.0152414 -0.00237971 0.0
-0.015133 -0.00315896 0.0
-0.0149819 -0.00396093 0.0
-0.0147855 -0.00478975 0.0
-0.0145409 -0.00565007 0.0
-0.0142444 -0.00654722 0.0
-0.0138916 -0.00748727 0.0
-0.013477 -0.00847716 0.0
-0.0129942 -0.0095248 0.0
-0.0124356 -0.0106392 0.0
-0.011792 -0.0118303 0.0
-0.0110529 -0.0131094 0.0
-0.0102055 -0.0144883 0.0
-0.0092357 -0.0159796 0.0
-0.00812699 -0.0175944 0.0
-0.00686136 -0.0193363 0.0
-0.00542081 -0.021157 0.0
-0.00379809 -0.0227021 0.0
-0.00205642 -0.0221638 0.0
-0.000585656 -0.0132138 0.0
0.000585656 0.0132138 0.0
0.000502567 -0.0120026 0.0
-0.000502567 0.0120026 0.0
-0.00174674 0.0200752 0.0
-0.00320369 0.0206377 0.0
-0.00456672 0.019441 0.0
-0.00579828 0.0180673 0.0
-0.00691045 0.0167827 0.0
-0.00791872 0.0156008 0.0
-0.008836 0.0145042 0.0
-0.00967266 0.0134765 0.0
-0.0104371 0.0125047 0.0
-0.0111361 0.011579 0.0
-0.0117753 0.0106913 0.0
-0.0123592 0.00983513 0.0
-0.0128918 0.00900535 0.0
-0.0133763 0.00819748 0.0
-0.0138152 0.00740774 0.0
-0.0142108 0.00663281 0.0
-0.014565 0.00586973 0.0
-0.0148791 0.00511578 0.0
-0.0151546 0.00436842 0.0
-0.0153921 0.00362523 0.0
-0.0155926 0.00288384 0.0
-0.0157562 0.00214187 0.0
-0.0158833 0.00139694 0.0
-0.0159738 0.000646557 0.0
-0.0160273 -0.000111897 0.0
-0.0160432 -0.00088121 0.0
-0.0160206 -0.00166441 0.0
-0.0159582 -0.00246481 0.0
-0.0158544 -0.00328609 0.0
-0.0157069 -0.00413239 0.0
-0.0155132 -0.00500837 0.0
-0.0152699 -0.00591934 0.0
-0.014973 -0.00687137 0.0
-0.0146176 -0.00787143 0.0
-0.0141977 -0.00892749 0.0
-0.0137062 -0.0100487 0.0
-0.0131347 -0.0112454 0.0
-0.012473 -0.0125293 0.0
-0.0117093 -0.0139133 0.0
-0.0108297 -0.0154113 0.0
-0.00981831 -0.0170378 0.0
-0.00865704 -0.0188061 0.0
-0.00732594 -0.0207213 0.0
-0.00580497 -0.0227335 0.0
-0.00408467 -0.0244686 0.0
-0.00222717 -0.0239965 0.0
-0.000639793 -0.0144393 0.0
0.000639793 0.0144393 0.0
0.000546441 -0.0130516 0.0
-0.000546441 0.0130516 0.0
-0.00188102 0.021605 0.0
-0.00342288 0.0221068 0.0
-0.00485634 0.0207684 0.0
-0.0061471 0.0192622 0.0
-0.00730966 0.0178626 0.0
-0.00836112 0.0165807 0.0
-0.00931563 0.0153961 0.0
-0.0101845 0.0142901 0.0
-0.010977 0.013248 0.0
-0.0117006 0.0122583 0.0
-0.0123614 0.0113119 0.0
-0.0129646 0.0104016 0.0
-0.0135142 0.0095212 0.0
-0.014014 0.0086658 0.0
-0.0144667 0.00783109 0.0
-0.0148749 0.0070133 0.0
-0.0152406 0.0062091 0.0
-0.0155655 0.00541546 0.0
-0.0158509 0.00462953 0.0
-0.0160978 0.00384862 0.0
-0.016307 0.00307009 0.0
-0.0164791 0.00229133 0.0
-0.0166141 0.00150967 0.0
-0.0167122 0.000722376 0.0
-0.016773 -7.34623e-05 0.0
-0.0167958 -0.000880943 0.0
-0.0167796 -0.00170344 0.0
-0.0167231 -0.00254465 0.0
-0.0166245 -0.00340872 0.0
-0.0164814 -0.00430029 0.0
-0.0162909 -0.00522464 0.0
-0.0160495 -0.00618781 0.0
-0.0157526 -0.00719669 0.0
-0.0153949 -0.00825925 0.0
-0.0149698 -0.00938463 0.0
-0.0144695 -0.0105833 0.0
-0.0138846 -0.0118672 0.0
-0.0132039 -0.0132499 0.0
-0.0124143 -0.014746 0.0
-0.0115006 -0.0163719 0.0
-0.0104451 -0.0181441 0.0
-0.00922798 -0.0200783 0.0
-0.00782725 -0.022181 0.0
-0.00622075 -0.0244013 0.0
-0.00439664 -0.0263452 0.0
-0.00241517 -0.0259588 0.0
-0.000700219 -0.0157793 0.0
0.000700219 0.0157793 0.0
0.000595237 -0.0141933 0.0
-0.000595237 0.0141933 0.0
-0.0020282 0.0232308 0.0
-0.00366008 0.0236547 0.0
-0.00516768 0.0221616 0.0
-0.00652076 0.0205128 0.0
-0.00773643 0.0189902 0.0
-0.00883347 0.0176016 0.0
-0.00982728 0.0163235 0.0
-0.0107303 0.0151346 0.0
-0.0115524 0.0140182 0.0
-0.012302 0.0129613 0.0
-0.0129857 0.0119535 0.0
-0.013609 0.0109865 0.0
-0.0141768 0.0100536 0.0
-0.0146927 0.00914904 0.0
-0.01516 0.00826797 0.0
-0.0155816 0.00740616 0.0
-0.0159595 0.00655989 0.0
-0.0162957 0.00572574 0.0
-0.0165917 0.00490057 0.0
-0.0168486 0.00408138 0.0
-0.0170672 0.00326525 0.0
-0.0172483 0.00244928 0.0
-0.017392 0.00163054 0.0
-0.0174984 0.000805979 0.0
-0.0175671 -2.76035e-05 0.0
-0.0175975 -0.000873653 0.0
-0.0175885 -0.00173592 0.0
-0.0175386 -0.00261854 0.0
-0.0174459 -0.00352615 0.0
-0.0173079 -0.00446398 0.0
-0.0171213 -0.00543797 0.0
-0.0168823 -0.00645496 0.0
-0.0165859 -0.00752279 0.0
-0.0162263 -0.00865052 0.0
-0.0157961 -0.00984858 0.0
-0.0152868 -0.011129 0.0
-0.0146881 -0.0125053 0.0
-0.0139875 -0.0139931 0.0
-0.0131707 -0.0156092 0.0
-0.0122208 -0.0173723 0.0
-0.0111186 -0.0193014 0.0
-0.00984213 -0.0214145 0.0
-0.00836749 -0.0237201 0.0
-0.00667023 -0.0261659 0.0
-0.00473592 -0.028339 0.0
-0.00262211 -0.0280603 0.0
-0.000767675 -0.0172472 0.0
0.000767675 0.0172472 0.0
0.000649522 -0.015438 0.0
-0.000649522 0.015438 0.0
-0.00218951 0.024959 0.0
-0.0039166 0.0252855 0.0
-0.00550205 0.0236239 0.0
-0.0069206 0.0218222 0.0
-0.00819214 0.020168 0.0
-0.00933718 0.0186658 0.0
-0.0103725 0.0172884 0.0
-0.0113114 0.0160117 0.0
-0.0121649 0.0148168 0.0
-0.0129419 0.0136892 0.0
-0.0136498 0.0126171 0.0
-0.0142946 0.0115911 0.0
-0.0148813 0.0106035 0.0
-0.0154143 0.00964806 0.0
-0.0158972 0.00871916 0.0
-0.0163328 0.00781213 0.0
-0.0167237 0.00692277 0.0
-0.017072 0.0060473 0.0
-0.0173792 0.00518221 0.0
-0.0176467 0.00432417 0.0
-0.0178756 0.00346997 0.0
-0.0180664 0.00261641 0.0
-0.0182194 0.00176023 0.0
-0.0183349 0.000898084 0.0
-0.0184123 2.64175e-05 0.0
-0.018451 -0.000858584 0.0
-0.0184499 -0.00176109 0.0
-0.0184075 -0.00268571 0.0
-0.0183215 -0.00363764 0.0
-0.0181893 -0.00462273 0.0
-0.0180074 -0.00564769 0.0
-0.0177714 -0.00672023 0.0
-0.017476 -0.00784924 0.0
-0.0171148 -0.00904499 0.0
-0.0166797 -0.0103193 0.0
-0.0161613 -0.0116859 0.0
-0.0155481 -0.0131603 0.0
-0.0148267 -0.01476 0.0
-0.0139811 -0.0165046 0.0
-0.0129931 -0.0184149 0.0
-0.0118413 -0.0205128 0.0
-0.0105019 -0.0228189 0.0
-0.00894896 -0.0253434 0.0
-0.00715558 -0.0280333 0.0
-0.00510459 -0.030457 0.0
-0.00284982 -0.0303109 0.0
-0.000842994 -0.0188578 0.0
0.000842994 0.0188578 0.0
0.000709942 -0.0167975 0.0
-0.000709942 0.0167975 0.0
-0.0023663 0.0267959 0.0
-0.00419383 0.0270032 0.0
-0.00586083 0.0251586 0.0
-0.007348 0.0231932 0.0
-0.00867822 0.0213988 0.0
-0.00987377 0.0197757 0.0
-0.0109527 0.0182928 0.0
-0.0119296 0.0169231 0.0
-0.0128162 0.0156455 0.0
-0.0136223 0.0144435 0.0
-0.0143557 0.013304 0.0
-0.0150231 0.0122163 0.0
-0.01563 0.011172 0.0
-0.0161811 0.0101638 0.0
-0.0166804 0.00918552 0.0
-0.0171309 0.00823199 0.0
-0.0175356 0.0072985 0.0
-0.0178967 0.00638085 0.0
-0.0182159 0.00547514 0.0
-0.0184948 0.00457771 0.0
-0.0187346 0.00368499 0.0
-0.0189358 0.00279344 0.0
-0.019099 0.00189951 0.0
-0.0192243 0.000999468 0.0
-0.0193112 8.94023e-05 0.0
-0.0193592 -0.000834915 0.0
-0.0193669 -0.00177811 0.0
-0.0193327 -0.00274533 0.0
-0.0192543 -0.00374236 0.0
-0.0191288 -0.00477577 0.0
-0.0189522 -0.0058531 0.0
-0.01872 -0.00698303 0.0
-0.0184262 -0.00817559 0.0
-0.0180637 -0.00944241 0.0
-0.0176238 -0.0107969 0.0
-0.017096 -0.0122546 0.0
-0.0164678 -0.013833 0.0
-0.0157245 -0.0155521 0.0
-0.0148487 -0.0174339 0.0
-0.0138202 -0.0195022 0.0
-0.0126159 -0.0217816 0.0
-0.01121 -0.0242953 0.0
-0.00957408 -0.0270559 0.0
-0.00767912 -0.0300091 0.0
-0.00550488 -0.0327063 0.0
-0.00310035 -0.0327209 0.0
-0.000927116 -0.020628 0.0
0.000927116 0.020628 0.0
0.000777227 -0.0182847 0.0
-0.000777227 0.0182847 0.0
-0.00256008 0.028748 0.0
-0.00449331 0.0288119 0.0
-0.00624551 0.0267691 0.0
-0.00780445 0.0246288 0.0
-0.00919618 0.0226851 0.0
-0.0104448 0.0209335 0.0
-0.0115697 0.0193388 0.0
-0.0125866 0.0178709 0.0
-0.0135082 0.016506 0.0
-0.0143449 0.0152258 0.0
-0.0151053 0.0140155 0.0
-0.0157967 0.0128635 0.0
-0.016425 0.0117601 0.0
-0.0169953 0.0106971 0.0
-0.0175119 0.00966795 0.0
-0.0179783 0.00866659 0.0
-0.0183977 0.00768789 0.0
-0.0187724 0.00672718 0.0
-0.0191045 0.00578016 0.0
-0.0193956 0.00484276 0.0
-0.019647 0.00391107 0.0
-0.0198596 0.00298119 0.0
-0.0200338 0.00204919 0.0
-0.0201697 0.00111098 0.0
-0.0202671 0.000162221 0.0
-0.0203252 -0.000801759 0.0
-0.0203426 -0.00178609 0.0
-0.0203176 -0.00279651 0.0
-0.0202477 -0.00383945 0.0
-0.0201297 -0.00492229 0.0
-0.0199594 -0.00605346 0.0
-0.0197315 -0.00724273 0.0
-0.0194398 -0.0085014 0.0
-0.0190764 -0.00984256 0.0
-0.0186317 -0.0112814 0.0
-0.0180943 -0.0128353 0.0
-0.0174506 -0.0145242 0.0
-0.0166842 -0.0163705 0.0
-0.0157764 -0.0183992 0.0
-0.0147051 -0.0206368 0.0
-0.0134452 -0.0231111 0.0
-0.0119689 -0.0258481 0.0
-0.0102454 -0.0288625 0.0
-0.0082433 -0.0320996 0.0
-0.0059392 -0.0350943 0.0
-0.00337595 -0.0353007 0.0
-0.0010211 -0.0225762 0.0
0.0010211 0.0225762 0.0
0.000852204 -0.0199141 0.0
-0.000852204 0.0199141 0.0
-0.00277255 0.0308217 0.0
-0.0048167 0.0307155 0.0
-0.00665768 0.0284586 0.0
-0.00829152 0.026132 0.0
-0.00974763 0.0240297 0.0
-0.0110519 0.0221418 0.0
-0.0122252 0.0204288 0.0
-0.0132843 0.0188569 0.0
-0.0142427 0.0174 0.0
-0.0151118 0.0160375 0.0
-0.0159008 0.0147532 0.0
-0.0166176 0.0135339 0.0
-0.0172686 0.0123689 0.0
-0.0178593 0.0112493 0.0
-0.0183943 0.0101675 0.0
-0.0188777 0.00911689 0.0
-0.0193126 0.00809185 0.0
-0.0197019 0.00708717 0.0
-0.0200477 0.0060981 0.0
-0.0203519 0.00512018 0.0
-0.0206159 0.00414908 0.0
-0.0208407 0.00318053 0.0
-0.0210268 0.00221018 0.0
-0.0211744 0.00123354 0.0
-0.0212832 0.000245816 0.0
-0.0213524 -0.000758155 0.0
-0.0213805 -0.00178407 0.0
-0.0213658 -0.00283828 0.0
-0.0213053 -0.00392799 0.0
-0.0211957 -0.00506141 0.0
-0.0210324 -0.006248 0.0
-0.0208097 -0.0074987 0.0
-0.0205206 -0.0088262 0.0
-0.0201566 -0.0102452 0.0
-0.0197072 -0.0117728 0.0
-0.0191599 -0.0134285 0.0
-0.0184998 -0.0152348 0.0
-0.0177091 -0.0172169 0.0
-0.0167674 -0.0194024 0.0
-0.0156508 -0.0218215 0.0
-0.0143322 -0.0245048 0.0
-0.0127814 -0.0274815 0.0
-0.0109655 -0.0307684 0.0
-0.00885071 -0.0343105 0.0
-0.00641014 -0.037628 0.0
-0.0036791 -0.0380613 0.0
-0.00112614 -0.0247234 0.0
0.00112614 0.0247234 0.0
0.000935816 -0.0217021 0.0
-0.000935816 0.0217021 0.0
-0.00300558 0.0330238 0.0
-0.00516584 0.0327178 0.0
-0.00709907 0.0302305 0.0
-0.00881092 0.0277059 0.0
-0.0103343 0.0254354 0.0
-0.0116969 0.0234031 0.0
-0.012921 0.0215649 0.0
-0.0140245 0.0198833 0.0
-0.0150219 0.0183294 0.0
-0.0159252 0.0168805 0.0
-0.0167446 0.0155186 0.0
-0.0174882 0.014229 0.0
-0.0181633 0.0129999 0.0
-0.0187757 0.0118214 0.0
-0.0193304 0.0106852 0.0
-0.0198318 0.00958392 0.0
-0.0202834 0.00851135 0.0
-0.0206882 0.00746176 0.0
-0.0210488 0.00642991 0.0
-0.0213671 0.0054109 0.0
-0.0216447 0.00439997 0.0
-0.0218827 0.00339241 0.0
-0.0220817 0.00238346 0.0
-0.022242 0.00136815 0.0
-0.0223632 0.000341208 0.0
-0.0224445 -0.000703074 0.0
-0.0224845 -0.00177101 0.0
-0.022481 -0.00286965 0.0
-0.022431 -0.00400701 0.0
-0.0223308 -0.00519225 0.0
-0.0221753 -0.00643593 0.0
-0.0219585 -0.00775031 0.0
-0.0216726 -0.00914957 0.0
-0.0213082 -0.0106502 0.0
-0.0208541 -0.0122714 0.0
-0.0202964 -0.0140349 0.0
-0.019619 -0.015966 0.0
-0.0188027 -0.0180926 0.0
-0.0178251 -0.020446 0.0
-0.0166605 -0.0230592 0.0
-0.0152797 -0.0259665 0.0
-0.0136504 -0.0292 0.0
-0.0117372 -0.0327789 0.0
-0.00950406 -0.036648 0.0
-0.00692047 -0.0403147 0.0
-0.00401257 -0.0410135 0.0
-0.00124357 -0.0270931 0.0
0.00124357 0.0270931 0.0
0.00102913 -0.023667 0.0
-0.00102913 0.023667 0.0
-0.0032613 0.0353608 0.0
-0.00554272 0.0348225 0.0
-0.00757155 0.0320879 0.0
-0.00936445 0.0293532 0.0
-0.0109579 0.0269048 0.0
-0.0123816 0.02472 0.0
-0.0136591 0.0227495 0.0
-0.0148093 0.0209523 0.0
-0.0158477 0.0192963 0.0
-0.0167874 0.0177566 0.0
-0.0176388 0.0163133 0.0
-0.0184111 0.0149502 0.0
-0.0191118 0.0136544 0.0
-0.0197473 0.0124148 0.0
-0.020323 0.0112223 0.0
-0.0208437 0.0100688 0.0
-0.0213131 0.0089475 0.0
-0.0217347 0.00785202 0.0
-0.0221111 0.00677664 0.0
-0.0224446 0.00571596 0.0
-0.0227368 0.00466477 0.0
-0.0229891 0.00361789 0.0
-0.0232022 0.00257008 0.0
-0.0233763 0.00151589 0.0
-0.0235111 0.000449495 0.0
-0.0236057 -0.00063541 0.0
-0.0236586 -0.00174581 0.0
-0.0236675 -0.00288953 0.0
-0.023629 -0.00407549 0.0
-0.0235392 -0.00531387 0.0
-0.0233925 -0.00661646 0.0
-0.0231822 -0.00799693 0.0
-0.0228999 -0.00947113 0.0
-0.0225354 -0.0110575 0.0
-0.0220763 -0.0127773 0.0
-0.0215078 -0.0146552 0.0
-0.0208121 -0.0167188 0.0
-0.0199685 -0.0189997 0.0
-0.0189529 -0.0215321 0.0
-0.0177375 -0.024353 0.0
-0.016291 -0.0274999 0.0
-0.0145788 -0.0310082 0.0
-0.0125634 -0.0348993 0.0
-0.0102063 -0.039118 0.0
-0.00747318 -0.0431614 0.0
-0.00437939 -0.0441685 0.0
-0.00137491 -0.0297116 0.0
0.00137491 0.0297116 0.0
0.00113338 -0.0258296 0.0
-0.00113338 0.0258296 0.0
-0.00354208 0.0378392 0.0
-0.00594955 0.0370331 0.0
-0.00807718 0.0340338 0.0
-0.00995408 0.0310771 0.0
-0.0116205 0.0284409 0.0
-0.013108 0.0260951 0.0
-0.0144414 0.0239852 0.0
-0.0156407 0.0220662 0.0
-0.0167226 0.0203028 0.0
-0.0177007 0.0186678 0.0
-0.0185862 0.0171391 0.0
-0.019389 0.0156993 0.0
-0.0201169 0.0143339 0.0
-0.0207771 0.0130309 0.0
-0.0213753 0.0117801 0.0
-0.0219166 0.0105729 0.0
-0.0224053 0.00940152 0.0
-0.0228448 0.00825914 0.0
-0.0232384 0.00713945 0.0
-0.0235882 0.00603652 0.0
-0.0238964 0.00494463 0.0
-0.0241642 0.00385812 0.0
-0.0243925 0.00277123 0.0
-0.0245816 0.00167794 0.0
-0.0247313 0.000571863 0.0
-0.0248404 -0.000553984 0.0
-0.0249074 -0.00170732 0.0
-0.0249298 -0.00289683 0.0
-0.024904 -0.00413239 0.0
-0.0248255 -0.00542535 0.0
-0.0246884 -0.00678881 0.0
-0.0244853 -0.008238 0.0
-0.024207 -0.00979057 0.0
-0.0238425 -0.011467 0.0
-0.0233783 -0.0132911 0.0
-0.0227982 -0.01529 0.0
-0.022083 -0.0174948 0.0
-0.0212104 -0.0199399 0.0
-0.0201543 -0.0226636 0.0
-0.0188851 -0.0257062 0.0
-0.0173692 -0.0291091 0.0
-0.0155697 -0.0329107 0.0
-0.0134471 -0.0371347 0.0
-0.0109604 -0.0417264 0.0
-0.0080715 -0.0461749 0.0
-0.00478292 -0.0475373 0.0
-0.00152184 -0.0326083 0.0
0.00152184 0.0326083 0.0
0.00124994 -0.0282129 0.0
-0.00124994 0.0282129 0.0
-0.00385061 0.0404652 0.0
-0.00638879 0.0393527 0.0
-0.00861819 0.0360712 0.0
-0.0105819 0.0328803 0.0
-0.0123242 0.0300463 0.0
-0.0138782 0.0275311 0.0
-0.0152701 0.0252746 0.0
-0.0165212 0.0232274 0.0
-0.0176489 0.0213512 0.0
-0.0186676 0.0196161 0.0
-0.0195894 0.0179982 0.0
-0.0204246 0.0164782 0.0
-0.0211818 0.0150403 0.0
-0.0218684 0.0136713 0.0
-0.0224907 0.0123603 0.0
-0.0230543 0.0110976 0.0
-0.0235636 0.0098748 0.0
-0.0240226 0.00868446 0.0
-0.0244346 0.00751964 0.0
-0.0248023 0.00637386 0.0
-0.0251277 0.00524085 0.0
-0.0254123 0.00411439 0.0
-0.0256572 0.00298818 0.0
-0.0258627 0.00185559 0.0
-0.0260285 0.000709581 0.0
-0.0261535 -0.000457546 0.0
-0.0262359 -0.00165433 0.0
-0.026273 -0.00289038 0.0
-0.0262609 -0.00417666 0.0
-0.0261947 -0.00552576 0.0
-0.026068 -0.00695224 0.0
-0.0258727 -0.008473 0.0
-0.0255988 -0.0101077 0.0
-0.0252343 -0.011879 0.0
-0.0247644 -0.0138133 0.0
-0.0241718 -0.0159407 0.0
-0.0234358 -0.0182954 0.0
-0.0225321 -0.0209156 0.0
-0.021433 -0.0238431 0.0
-0.0201067 -0.0271223 0.0
-0.0185175 -0.0307981 0.0
-0.0166263 -0.0349123 0.0
-0.0143915 -0.0394906 0.0
-0.0117697 -0.044479 0.0
-0.00871888 -0.049362 0.0
-0.00522689 -0.0511309 0.0
-0.00168629 -0.0358165 0.0
0.00168629 0.0358165 0.0
0.00138044 -0.0308433 0.0
-0.00138044 0.0308433 0.0
-0.00418992 0.043245 0.0
-0.00686315 0.0417843 0.0
-0.00919706 0.0382029 0.0
-0.0112504 0.0347657 0.0
-0.0130712 0.0317239 0.0
-0.0146944 0.0290308 0.0
-0.0161477 0.0266201 0.0
-0.0174532 0.0244384 0.0
-0.0186292 0.0224439 0.0
-0.019691 0.0206039 0.0
-0.0206513 0.0188926 0.0
-0.0215211 0.0172887 0.0
-0.0223096 0.0157753 0.0
-0.0230246 0.0143379 0.0
-0.0236729 0.0129644 0.0
-0.0242604 0.0116445 0.0
-0.0247921 0.0103689 0.0
-0.0252722 0.00912948 0.0
-0.0257043 0.00791868 0.0
-0.0260913 0.00672942 0.0
-0.0264354 0.00555483 0.0
-0.0267384 0.00438811 0.0
-0.0270014 0.00322233 0.0
-0.0272247 0.00205021 0.0
-0.027408 0.00086401 0.0
-0.0275502 -0.000344774 0.0
-0.0276493 -0.00158557 0.0
-0.0277023 -0.00286902 0.0
-0.0277052 -0.00420726 0.0
-0.0276523 -0.00561423 0.0
-0.0275367 -0.00710608 0.0
-0.0273496 -0.00870154 0.0
-0.0270803 -0.0104223 0.0
-0.0267155 -0.0122936 0.0
-0.0262394 -0.0143445 0.0
-0.0256332 -0.0166082 0.0
-0.0248746 -0.0191224 0.0
-0.0239378 -0.021929 0.0
-0.0227928 -0.0250737 0.0
-0.0214059 -0.0286049 0.0
-0.0197393 -0.0325713 0.0
-0.0177519 -0.0370177 0.0
-0.0153997 -0.0419722 0.0
-0.0126375 -0.0473815 0.0
-0.00941907 -0.0527287 0.0
-0.00571539 -0.0549598 0.0
-0.00187038 -0.0393731 0.0
0.00187038 0.0393731 0.0
0.00152669 -0.0337504 0.0
-0.00152669 0.0337504 0.0
-0.00456347 0.0461841 0.0
-0.00737565 0.0443306 0.0
-0.00981654 0.0404315 0.0
-0.011962 0.0367359 0.0
-0.013864 0.0334765 0.0
-0.0155593 0.0305968 0.0
-0.0170766 0.0280246 0.0
-0.0184391 0.0257019 0.0
-0.0196661 0.0235834 0.0
-0.0207736 0.0216337 0.0
-0.021775 0.0198246 0.0
-0.0226818 0.0181333 0.0
-0.0235038 0.0165412 0.0
-0.0242494 0.0150326 0.0
-0.0249258 0.0135945 0.0
-0.0255393 0.0122155 0.0
-0.0260953 0.0108856 0.0
-0.0265983 0.00959592 0.0
-0.0270522 0.00833824 0.0
-0.0274602 0.00710482 0.0
-0.0278248 0.00588817 0.0
-0.0281478 0.00468083 0.0
-0.0284305 0.0034752 0.0
-0.0286732 0.00226331 0.0
-0.0288755 0.0010366 0.0
-0.0290364 -0.000214284 0.0
-0.0291536 -0.00149975 0.0
-0.0292238 -0.00283157 0.0
-0.0292426 -0.00422315 0.0
-0.0292039 -0.00568993 0.0
-0.0291001 -0.00724976 0.0
-0.0289217 -0.00892334 0.0
-0.0286569 -0.0107347 0.0
-0.0282914 -0.0127115 0.0
-0.0278083 -0.0148859 0.0
-0.0271871 -0.0172943 0.0
-0.026404 -0.019978 0.0
-0.0254314 -0.0229829 0.0
-0.0242375 -0.0263588 0.0
-0.0227863 -0.030158 0.0
-0.0210382 -0.034433 0.0
-0.0189498 -0.0392318 0.0
-0.0164753 -0.0445846 0.0
-0.0135675 -0.0504391 0.0
-0.0101761 -0.0562809 0.0
-0.00625296 -0.0590344 0.0
-0.00207653 -0.0433201 0.0
0.00207653 0.0433201 0.0
0.00169082 -0.0369679 0.0
-0.00169082 0.0369679 0.0
-0.00497516 0.0492877 0.0
-0.00792972 0.0469937 0.0
-0.0104797 0.0427592 0.0
-0.0127196 0.0387936 0.0
-0.0147054 0.0353067 0.0
-0.0164754 0.0322319 0.0
-0.0180595 0.0294909 0.0
-0.0194819 0.0270206 0.0
-0.0207627 0.0247724 0.0
-0.0219186 0.022708 0.0
-0.0229638 0.0207968 0.0
-0.0239102 0.0190143 0.0
-0.0247682 0.0173402 0.0
-0.0255468 0.0157577 0.0
-0.0262536 0.0142526 0.0
-0.0268954 0.0128126 0.0
-0.0274778 0.0114269 0.0
-0.0280059 0.0100857 0.0
-0.0284836 0.00878018 0.0
-0.0289147 0.00750188 0.0
-0.0293016 0.00624263 0.0
-0.0296465 0.00499428 0.0
-0.0299506 0.00374848 0.0
-0.0302143 0.00249649 0.0
-0.0304374 0.00122888 0.0
-0.0306185 -6.46344e-05 0.0
-0.0307551 -0.00139556 0.0
-0.0308438 -0.00277687 0.0
-0.0308795 -0.00422338 0.0
-0.0308558 -0.00575214 0.0
-0.0307643 -0.00738285 0.0
-0.0305947 -0.00913831 0.0
-0.0303342 -0.011045 0.0
-0.0299675 -0.0131334 0.0
-0.0294761 -0.0154386 0.0
-0.0288382 -0.0180006 0.0
-0.0280285 -0.0208645 0.0
-0.0270172 -0.0240802 0.0
-0.0257709 -0.0277017 0.0
-0.0242517 -0.0317854 0.0
-0.0224176 -0.0363878 0.0
-0.0202236 -0.0415596 0.0
-0.017622 -0.0473329 0.0
-0.0145636 -0.053657 0.0
-0.0109942 -0.060024 0.0
-0.00684459 -0.063364 0.0
-0.00230741 -0.047704 0.0
0.00230741 0.047704 0.0
0.00187527 -0.040534 0.0
-0.00187527 0.040534 0.0
-0.0054295 0.0525602 0.0
-0.0085292 0.0497755 0.0
-0.01119 0.0451882 0.0
-0.0135265 0.040941 0.0
-0.0155984 0.037217 0.0
-0.0174458 0.033939 0.0
-0.0190995 0.0310217 0.0
-0.0205847 0.0283975 0.0
-0.0219222 0.0260139 0.0
-0.0231294 0.0238297 0.0
-0.0242212 0.021812 0.0
-0.0252101 0.0199344 0.0
-0.026107 0.018175 0.0
-0.0269213 0.0165158 0.0
-0.0276611 0.0149413 0.0
-0.0283337 0.0134382 0.0
-0.028945 0.011995 0.0
-0.0295004 0.010601 0.0
-0.0300044 0.00924663 0.0
-0.0304606 0.00792266 0.0
-0.030872 0.00662021 0.0
-0.0312408 0.00533036 0.0
-0.0315683 0.00404399 0.0
-0.031855 0.00275148 0.0
-0.0321005 0.00144249 0.0
-0.0323033 0.000105661 0.0
-0.0324609 -0.00127166 0.0
-0.0325692 -0.00270379 0.0
-0.0326228 -0.00420706 0.0
-0.0326148 -0.00580026 0.0
-0.0325359 -0.00750508 0.0
-0.032375 -0.00934659 0.0
-0.0321184 -0.0113538 0.0
-0.0317494 -0.0135602 0.0
-0.0312482 -0.0160042 0.0
-0.0305917 -0.0187294 0.0
-0.0297526 -0.0217847 0.0
-0.0286996 -0.0252242 0.0
-0.0273973 -0.0291063 0.0
-0.0258057 -0.0334916 0.0
-0.0238813 -0.0384401 0.0
-0.0215768 -0.0440057 0.0
-0.0188433 -0.0502219 0.0
-0.0156299 -0.0570397 0.0
-0.0118781 -0.0639625 0.0
-0.00749577 -0.0679575 0.0
-0.00256604 -0.0525774 0.0
0.00256604 0.0525774 0.0
0.00208288 -0.0444921 0.0
-0.00208288 0.0444921 0.0
-0.00593161 0.056005 0.0
-0.00917843 0.0526772 0.0
-0.0119513 0.0477201 0.0
-0.0143862 0.0431803 0.0
-0.0165466 0.03921 0.0
-0.0184738 0.0357205 0.0
-0.0201999 0.0326199 0.0
-0.0217508 0.0298354 0.0
-0.023148 0.0273107 0.0
-0.0244097 0.0250018 0.0
-0.0255512 0.0228732 0.0
-0.0265856 0.0208966 0.0
-0.0275244 0.0190486 0.0
-0.0283775 0.0173096 0.0
-0.0291533 0.0156632 0.0
-0.0298595 0.014095 0.0
-0.0305025 0.0125925 0.0
-0.031088 0.0111443 0.0
-0.0316207 0.00973997 0.0
-0.0321046 0.00836945 0.0
-0.0325429 0.00702309 0.0
-0.0329378 0.00569118 0.0
-0.0332909 0.00436371 0.0
-0.0336025 0.00303014 0.0
-0.0338723 0.00167911 0.0
-0.0340985 0.000298121 0.0
-0.0342784 -0.00112676 0.0
-0.0344075 -0.00261129 0.0
-0.0344799 -0.00417345 0.0
-0.034488 -0.00583389 0.0
-0.0344218 -0.00761644 0.0
-0.0342694 -0.0095486 0.0
-0.0340157 -0.0116621 0.0
-0.0336431 -0.0139936 0.0
-0.0331303 -0.0165848 0.0
-0.0324526 -0.019483 0.0
-0.0315812 -0.0227415 0.0
-0.030483 -0.0264185 0.0
-0.0291206 -0.0305767 0.0
-0.0274524 -0.0352809 0.0
-0.0254329 -0.0405948 0.0
-0.0230134 -0.0465749 0.0
-0.0201434 -0.0532562 0.0
-0.0167706 -0.0605915 0.0
-0.0128327 -0.0681003 0.0
-0.00821256 -0.0728222 0.0
-0.00285578 -0.0579993 0.0
0.00285578 0.0579993 0.0
0.00231691 -0.0488919 0.0
-0.00231691 0.0488919 0.0
-0.00648741 0.0596245 0.0
-0.00988239 0.0556996 0.0
-0.0127682 0.0503565 0.0
-0.0153029 0.0455135 0.0
-0.0175537 0.041288 0.0
-0.0195632 0.0375793 0.0
-0.0213644 0.0342883 0.0
-0.0229839 0.0313373 0.0
-0.024444 0.0286661 0.0
-0.0257634 0.0262274 0.0
-0.0269579 0.0239836 0.0
-0.0280413 0.0219041 0.0
-0.0290254 0.019964 0.0
-0.0299205 0.0181423 0.0
-0.0307356 0.0164214 0.0
-0.0314787 0.014786 0.0
-0.0321565 0.0132224 0.0
-0.0327751 0.0117185 0.0
-0.0333395 0.0102629 0.0
-0.0338539 0.00884485 0.0
-0.0343217 0.00745376 0.0
-0.0347453 0.00607905 0.0
-0.0351262 0.00470979 0.0
-0.035465 0.00333444 0.0
-0.0357609 0.00194051 0.0
-0.0360122 0.00051427 0.0
-0.0362157 -0.000959601 0.0
-0.0363666 -0.00249843 0.0
-0.0364585 -0.00412196 0.0
-0.036483 -0.00585285 0.0
-0.0364294 -0.0077172 0.0
-0.0362846 -0.00974509 0.0
-0.0360327 -0.0119712 0.0
-0.0356547 -0.0144352 0.0
-0.035128 -0.0171826 0.0
-0.0344262 -0.0202646 0.0
-0.033519 -0.0237386 0.0
-0.0323716 -0.0276671 0.0
-0.0309449 -0.0321173 0.0
-0.0291954 -0.037158 0.0
-0.0270762 -0.0428566 0.0
-0.024537 -0.0492719 0.0
-0.0215261 -0.0564401 0.0
-0.0179904 -0.0643162 0.0
-0.0138634 -0.0724405 0.0
-0.00900155 -0.077964 0.0
-0.00318035 -0.0640354 0.0
0.00318035 0.0640354 0.0
0.0025812 -0.05379 0.0
-0.0025812 0.05379 0.0
-0.00710371 0.0634194 0.0
-0.0106467 0.0588426 0.0
-0.0136457 0.0530982 0.0
-0.0162813 0.0479421 0.0
-0.0186241 0.0434531 0.0
-0.0207181 0.0395177 0.0
-0.0225969 0.0360298 0.0
-0.024288 0.0329064 0.0
-0.0258141 0.0300833 0.0
-0.0271945 0.0275101 0.0
-0.0284457 0.0251466 0.0
-0.0295816 0.0229604 0.0
-0.0306146 0.0209247 0.0
-0.0315554 0.0190174 0.0
-0.0324134 0.0172195 0.0
-0.0331969 0.0155145 0.0
-0.033913 0.0138879 0.0
-0.034568 0.0123267 0.0
-0.0351674 0.0108185 0.0
-0.0357154 0.00935171 0.0
-0.0362156 0.00791489 0.0
-0.0366705 0.00649648 0.0
-0.0370818 0.00508455 0.0
-0.0374498 0.00366644 0.0
-0.0377738 0.00222847 0.0
-0.0380518 0.000755582 0.0
-0.0382802 -0.00076906 0.0
-0.0384538 -0.00236446 0.0
-0.0385655 -0.00405227 0.0
-0.0386063 -0.00585729 0.0
-0.0385646 -0.00780802 0.0
-0.0384264 -0.00993726 0.0
-0.0381746 -0.0122827 0.0
-0.0377889 -0.0148875 0.0
-0.0372453 -0.0178007 0.0
-0.0365161 -0.0210776 0.0
-0.0355692 -0.0247797 0.0
-0.0343683 -0.0289742 0.0
-0.0328726 -0.0337325 0.0
-0.0310373 -0.0391276 0.0
-0.0288136 -0.04523 0.0
-0.0261503 -0.0521009 0.0
-0.0229949 -0.0597774 0.0
-0.019293 -0.0682166 0.0
-0.0149751 -0.076985 0.0
-0.00986956 -0.0833869 0.0
-0.00354376 -0.0707595 0.0
0.00354376 0.0707595 0.0
0.00288004 -0.0592513 0.0
-0.00288004 0.0592513 0.0
-0.00778795 0.0673885 0.0
-0.0114771 0.0621056 0.0
-0.0145884 0.0559455 0.0
-0.0173252 0.0504671 0.0
-0.019761 0.0457068 0.0
-0.021941 0.0415379 0.0
-0.0238994 0.0378469 0.0
-0.0256643 0.0345454 0.0
-0.0272592 0.0315653 0.0
-0.0287036 0.0288529 0.0
-0.0300144 0.0263657 0.0
-0.0312061 0.0240689 0.0
-0.0322914 0.0219344 0.0
-0.0332812 0.0199384 0.0
-0.0341854 0.0180607 0.0
-0.0350126 0.0162838 0.0
-0.0357702 0.0145923 0.0
-0.0364648 0.0129719 0.0
-0.0371019 0.0114097 0.0
-0.0376862 0.00989284 0.0
-0.0382213 0.00840908 0.0
-0.0387099 0.00694582 0.0
-0.0391535 0.00549005 0.0
-0.0395525 0.00402792 0.0
-0.0399059 0.00254446 0.0
-0.0402115 0.00102315 0.0
-0.0404653 -0.000554452 0.0
-0.0406616 -0.00220915 0.0
-0.0407928 -0.00396462 0.0
-0.040849 -0.00584794 0.0
-0.0408179 -0.00789016 0.0
-0.0406843 -0.0101269 0.0
-0.0404301 -0.0125991 0.0
-0.0400338 -0.0153532 0.0
-0.03947 -0.0184423 0.0
-0.0387095 -0.0219256 0.0
-0.037719 -0.0258691 0.0
-0.0364604 -0.0303443 0.0
-0.0348917 -0.0354268 0.0
-0.0329665 -0.0411938 0.0
-0.0306349 -0.0477189 0.0
-0.0278449 -0.0550652 0.0
-0.0245431 -0.0632703 0.0
-0.0206749 -0.0722937 0.0
-0.0161674 -0.0817333 0.0
-0.0108205 -0.0890909 0.0
-0.00394927 -0.0782526 0.0
0.00394927 0.0782526 0.0
0.00321696 -0.0653483 0.0
-0.00321696 0.0653483 0.0
-0.0085441 0.0715266 0.0
-0.0123722 0.0654849 0.0
-0.0155906 0.058896 0.0
-0.0184241 0.0530869 0.0
-0.0209492 0.048048 0.0
-0.0232117 0.0436391 0.0
-0.0252468 0.0397391 0.0
-0.0270829 0.0362543 0.0
-0.0287439 0.0331123 0.0
-0.0302498 0.0302563 0.0
-0.0316179 0.0276412 0.0
-0.032863 0.0252302 0.0
-0.0339981 0.0229934 0.0
-0.0350345 0.0209057 0.0
-0.0359825 0.0189456 0.0
-0.0368508 0.0170944 0.0
-0.0376472 0.0153357 0.0
-0.0383785 0.0136544 0.0
-0.0390506 0.0120364 0.0
-0.0396681 0.010468 0.0
-0.040235 0.00893592 0.0
-0.040754 0.00742647 0.0
-0.0412265 0.00592548 0.0
-0.0416528 0.00441784 0.0
-0.042032 0.00288717 0.0
-0.0423615 0.00131542 0.0
-0.0426368 -0.000317572 0.0
-0.042852 -0.00203454 0.0
-0.0429987 -0.00386131 0.0
-0.0430663 -0.00582735 0.0
-0.0430418 -0.00796636 0.0
-0.0429092 -0.010317 0.0
-0.0426492 -0.0129232 0.0
-0.0422392 -0.0158354 0.0
-0.0416528 -0.0191102 0.0
-0.0408597 -0.0228113 0.0
-0.0398251 -0.0270087 0.0
-0.03851 -0.0317784 0.0
-0.0368711 -0.0372004 0.0
-0.0348611 -0.0433555 0.0
-0.0324293 -0.0503205 0.0
-0.029523 -0.05816 0.0
-0.0260886 -0.0669116 0.0
-0.0220712 -0.0765379 0.0
-0.017395 -0.086673 0.0
-0.0118314 -0.0950617 0.0
-0.00439131 -0.0865931 0.0
0.00439131 0.0865931 0.0
0.00358195 -0.0721472 0.0
-0.00358195 0.0721472 0.0
-0.00933411 0.075807 0.0
-0.0132584 0.0689569 0.0
-0.0165428 0.0619267 0.0
-0.0194316 0.0557784 0.0
-0.0220035 0.0504535 0.0
-0.024305 0.0457977 0.0
-0.0263717 0.0416823 0.0
-0.0282329 0.0380083 0.0
-0.0299127 0.0346991 0.0
-0.0314319 0.0316946 0.0
-0.0328081 0.0289472 0.0
-0.0340568 0.026418 0.0
-0.0351916 0.0240755 0.0
-0.0362244 0.0218929 0.0
-0.0371658 0.0198477 0.0
-0.0380254 0.0179201 0.0
-0.0388114 0.0160925 0.0
-0.0395313 0.0143489 0.0
-0.0401913 0.012674 0.0
-0.0407967 0.0110534 0.0
-0.0413517 0.00947244 0.0
-0.0418593 0.00791648 0.0
-0.0423214 0.00637005 0.0
-0.0427384 0.00481671 0.0
-0.0431095 0.00323859 0.0
-0.0434321 0.00161599 0.0
-0.0437018 -7.30464e-05 0.0
-0.0439125 -0.00185328 0.0
-0.0440556 -0.00375276 0.0
-0.0441204 -0.00580342 0.0
-0.0440935 -0.00804173 0.0
-0.0439584 -0.0105093 0.0
-0.0436958 -0.0132535 0.0
-0.0432826 -0.0163283 0.0
-0.0426922 -0.0197941 0.0
-0.041894 -0.0237188 0.0
-0.040853 -0.0281767 0.0
-0.0395301 -0.0332483 0.0
-0.037882 -0.0390175 0.0
-0.0358614 -0.045569 0.0
-0.0334178 -0.0529824 0.0
-0.0304986 -0.0613237 0.0
-0.0270503 -0.0706307 0.0
-0.0230173 -0.0808692 0.0
-0.0183201 -0.0917151 0.0
-0.0127011 -0.101202 0.0
-0.00480467 -0.0957891 0.0
0.00480467 0.0957891 0.0
0.00385305 -0.0795822 0.0
-0.00385305 0.0795822 0.0
-0.00978058 0.0800517 0.0
-0.0134893 0.0723452 0.0
-0.0165235 0.064857 0.0
-0.0191422 0.0583556 0.0
-0.0214256 0.0527315 0.0
-0.0234212 0.0478167 0.0
-0.0251663 0.0434751 0.0
-0.026692 0.0396024 0.0
-0.0280251 0.0361179 0.0
-0.0291887 0.0329586 0.0
-0.0302035 0.0300742 0.0
-0.0310879 0.027424 0.0
-0.0318582 0.0249745 0.0
-0.0325294 0.0226978 0.0
-0.0331149 0.0205698 0.0
-0.0336269 0.0185696 0.0
-0.0340764 0.0166786 0.0
-0.0344732 0.0148794 0.0
-0.0348258 0.013156 0.0
-0.0351416 0.0114926 0.0
-0.035427 0.00987349 0.0
-0.0356866 0.00828273 0.0
-0.0359243 0.00670355 0.0
-0.0361421 0.00511809 0.0
-0.0363408 0.00350695 0.0
-0.0365194 0.00184876 0.0
-0.0366751 0.000119697 0.0
-0.0368035 -0.00170698 0.0
-0.0368979 -0.00366152 0.0
-0.0369495 -0.00577828 0.0
-0.036947 -0.00809637 0.0
-0.0368763 -0.0106603 0.0
-0.0367208 -0.0135207 0.0
-0.0364603 -0.0167348 0.0
-0.0360713 -0.0203669 0.0
-0.0355268 -0.0244888 0.0
-0.0347955 -0.0291791 0.0
-0.0338419 -0.0345224 0.0
-0.0326263 -0.040607 0.0
-0.0311047 -0.0475217 0.0
-0.0292288 -0.0553491 0.0
-0.026947 -0.0641579 0.0
-0.0242048 -0.073987 0.0
-0.020943 -0.0848078 0.0
-0.0170718 -0.0963449 0.0
-0.012296 -0.106967 0.0
-0.00481135 -0.105405 0.0
0.00481135 0.105405 0.0
0.00317656 -0.0866118 0.0
-0.00317656 0.0866118 0.0
-0.00730501 0.0830781 0.0
-0.00873598 0.0744585 0.0
-0.00943662 0.0664786 0.0
-0.0096789 0.059595 0.0
-0.00955212 0.0536487 0.0
-0.0091162 0.0484593 0.0
-0.00842298 0.0438844 0.0
-0.00751926 0.039815 0.0
-0.0064476 0.0361666 0.0
-0.00524666 0.0328726 0.0
-0.0039515 0.0298799 0.0
-0.00259385 0.027145 0.0
-0.0012023 0.0246323 0.0
0.000197459 0.0223115 0.0
0.00158242 0.0201567 0.0
0.0029321 0.0181451 0.0
0.00422828 0.0162564 0.0
0.00545489 0.0144718 0.0
0.00659773 0.0127735 0.0
0.0076444 0.0111443 0.0
0.00858404 0.00956741 0.0
0.00940724 0.0080253 0.0
0.0101059 0.00649999 0.0
0.0106731 0.00497231 0.0
0.0111029 0.00342156 0.0
0.0113906 0.00182505 0.0
0.0115321 0.000157596 0.0
0.0115247 -0.001609 0.0
0.0113661 -0.00350654 0.0
0.0110555 -0.00557107 0.0
0.0105929 -0.00784353 0.0
0.00997965 -0.0103705 0.0
0.00921863 -0.013205 0.0
0.00831456 -0.0164069 0.0
0.00727445 -0.0200436 0.0
0.00610819 -0.0241904 0.0
0.00482929 -0.02893 0.0
0.00345582 -0.0343516 0.0
0.00201158 -0.0405491 0.0
0.00052745 -0.0476171 0.0
-0.000957056 -0.0556451 0.0
-0.002392 -0.0647088 0.0
-0.00371483 -0.0748554 0.0
-0.00484473 -0.0860713 0.0
-0.00565198 -0.0981453 0.0
-0.0057618 -0.109833 0.0
-0.00278479 -0.113001 0.0
0.00278479 0.113001 0.0
-0.00299274 -0.0867956 0.0
0.00299274 0.0867956 0.0
0.0116259 0.0783895 0.0
0.0232512 0.0689528 0.0
0.0352925 0.0606436 0.0
0.0473765 0.0535884 0.0
0.0593359 0.0475691 0.0
0.0710536 0.0423852 0.0
0.0824387 0.0378803 0.0
0.0934203 0.0339339 0.0
0.103944 0.0304519 0.0
0.113971 0.0273597 0.0
0.123472 0.0245972 0.0
0.132426 0.0221156 0.0
0.140822 0.0198744 0.0
0.148652 0.0178396 0.0
0.155913 0.0159824 0.0
0.162605 0.0142777 0.0
0.16873 0.0127032 0.0
0.174289 0.0112391 0.0
0.179285 0.00986679 0.0
0.183721 0.00856893 0.0
0.187595 0.00732863 0.0
0.190907 0.00612907 0.0
0.193652 0.00495313 0.0
0.195821 0.00378289 0.0
0.197403 0.00259926 0.0
0.198381 0.00138144 0.0
0.198734 0.000106431 0.0
0.198435 -0.00125151 0.0
0.197451 -0.00272154 0.0
0.195743 -0.00433688 0.0
0.193263 -0.00613563 0.0
0.18996 -0.00816158 0.0
0.185772 -0.0104651 0.0
0.180633 -0.0131039 0.0
0.174471 -0.0161442 0.0
0.167208 -0.019661 0.0
0.158766 -0.0237384 0.0
0.149066 -0.0284699 0.0
0.138036 -0.0339564 0.0
0.125615 -0.0403043 0.0
0.111762 -0.047621 0.0
0.0964721 -0.0560075 0.0
0.0797853 -0.0655471 0.0
0.0618165 -0.0762811 0.0
0.0428089 -0.0881206 0.0
0.0233725 -0.100311 0.0
0.00682933 -0.108957 0.0
-0.00682933 0.108957 0.0
-0.0419014 -0.0419014 0.0
0.0419014 0.0419014 0.0
0.120177 0.0363745 0.0
0.188036 0.031484 0.0
0.246813 0.0272935 0.0
0.297887 0.0237805 0.0
0.342487 0.0208185 0.0
0.381605 0.0182997 0.0
0.416045 0.0161405 0.0
0.446461 0.0142758 0.0
0.473392 0.012655 0.0
0.497284 0.0112374 0.0
0.518513 0.00999073 0.0
0.537392 0.00888839 0.0
0.554189 0.00790864 0.0
0.569131 0.00703332 0.0
0.582411 0.00624712 0.0
0.594195 0.00553692 0.0
0.604623 0.00489132 0.0
0.613815 0.00430021 0.0
0.62187 0.00375447 0.0
0.62887 0.00324568 0.0
0.634881 0.00276582 0.0
0.639954 0.00230712 0.0
0.644123 0.00186176 0.0
0.647407 0.0014217 0.0
0.649807 0.000978441 0.0
0.651308 0.000522781 0.0
0.651875 4.45521e-05 0.0
0.651452 -0.000467666 0.0
0.649958 -0.00102688 0.0
0.647283 -0.00164804 0.0
0.643286 -0.00234848 0.0
0.637789 -0.00314833 0.0
0.63057 -0.00407107 0.0
0.621355 -0.00514404 0.0
0.609812 -0.00639894 0.0
0.595541 -0.0078724 0.0
0.578062 -0.00960629 0.0
0.556808 -0.011648 0.0
0.53111 -0.01405 0.0
0.50019 -0.0168696 0.0
0.463153 -0.0201669 0.0
0.418984 -0.0240022 0.0
0.36655 -0.0284317 0.0
0.304621 -0.033498 0.0
0.231924 -0.039199 0.0
0.147426 -0.0452987 0.0
0.0510637 -0.0510637 0.0
-0.0510637 0.0510637 0.0
-1.9581 0.0419014 0.0
1.9581 -0.0419014 0.0
1.87982 -0.0363745 0.0
1.81196 -0.031484 0.0
1.75319 -0.0272935 0.0
1.70211 -0.0237805 0.0
1.65751 -0.0208185 0.0
1.6184 -0.0182997 0.0
1.58396 -0.0161405 0.0
1.55354 -0.0142758 0.0
1.52661 -0.012655 0.0
1.50272 -0.0112374 0.0
1.48149 -0.00999073 0.0
1.46261 -0.00888839 0.0
1.44581 -0.00790864 0.0
1.43087 -0.00703332 0.0
1.41759 -0.00624712 0.0
1.4058 -0.00553692 0.0
1.39538 -0.00489132 0.0
1.38618 -0.00430021 0.0
1.37813 -0.00375447 0.0
1.37113 -0.00324568 0.0
1.36512 -0.00276582 0.0
1.36005 -0.00230712 0.0
1.35588 -0.00186176 0.0
1.35259 -0.0014217 0.0
1.35019 -0.000978441 0.0
1.34869 -0.000522781 0.0
1.34812 -4.45521e-05 0.0
1.34855 0.000467666 0.0
1.35004 0.00102688 0.0
1.35272 0.00164804 0.0
1.35671 0.00234848 0.0
1.36221 0.00314833 0.0
1.36943 0.00407107 0.0
1.37865 0.00514404 0.0
1.39019 0.00639894 0.0
1.40446 0.0078724 0.0
1.42194 0.00960629 0.0
1.44319 0.011648 0.0
1.46889 0.01405 0.0
1.49981 0.0168696 0.0
1.53685 0.0201669 0.0
1.58102 0.0240022 0.0
1.63345 0.0284317 0.0
1.69538 0.033498 0.0
1.76808 0.039199 0.0
1.85257 0.0452987 0.0
1.94894 0.0510637 0.0
-1.94894 -0.0510637 0.0
