# vtk DataFile Version 3.0
DroneCFD Output
ASCII
DATASET STRUCTURED_POINTS
DIMENSIONS 50 50 1
ORIGIN 0 0 0
SPACING 0.02 0.02 1
POINT_DATA 2500
SCALARS pressure double 1
LOOKUP_TABLE default
0
0
-3.68159e-05
6.43123e-05
0.000228469
0.000451285
0.000731327
0.00106697
0.00145631
0.00189723
0.00238739
0.00292427
0.00350517
0.00412729
0.00478768
0.00548331
0.00621107
0.00696776
0.00775014
0.00855492
0.00937878
0.0102184
0.0110702
0.0119311
0.0127974
0.0136658
0.0145328
0.015395
0.016249
0.0170913
0.0179184
0.0187271
0.0195138
0.0202752
0.0210081
0.0217091
0.022375
0.0230028
0.0235893
0.0241316
0.024627
0.0250729
0.0254668
0.0258065
0.0260901
0.0263158
0.0264821
0.0265847
0.0265484
0.0265484
0
0
-3.68159e-05
6.43123e-05
0.000228469
0.000451285
0.000731327
0.00106697
0.00145631
0.00189723
0.00238739
0.00292427
0.00350517
0.00412729
0.00478768
0.00548331
0.00621107
0.00696776
0.00775014
0.00855492
0.00937878
0.0102184
0.0110702
0.0119311
0.0127974
0.0136658
0.0145328
0.015395
0.016249
0.0170913
0.0179184
0.0187271
0.0195138
0.0202752
0.0210081
0.0217091
0.022375
0.0230028
0.0235893
0.0241316
0.024627
0.0250729
0.0254668
0.0258065
0.0260901
0.0263158
0.0264821
0.0265847
0.0265484
0.0265484
3.70703e-05
3.70703e-05
-2.9452e-07
0.000100918
0.000264968
0.000487441
0.000766922
0.0011018
0.0014902
0.00192999
0.00241886
0.00295428
0.00353358
0.00415395
0.00481246
0.00550609
0.00623172
0.00698619
0.00776627
0.00856866
0.00939006
0.0102271
0.0110765
0.0119347
0.0127984
0.0136642
0.0145287
0.0153883
0.0162397
0.0170795
0.0179043
0.0187106
0.019495
0.0202543
0.0209851
0.0216842
0.0223483
0.0229743
0.0235593
0.0241003
0.0245944
0.0250393
0.0254323
0.0257713
0.0260543
0.0262797
0.026446
0.0265486
0.0265118
0.0265118
-5.08509e-05
-5.08509e-05
-8.90013e-05
1.3043e-05
0.000178446
0.00040273
0.00068445
0.00102196
0.00141335
0.00185646
0.00234893
0.00288821
0.0034716
0.00409626
0.00475923
0.00545746
0.00618783
0.00694715
0.00773216
0.00853958
0.00936606
0.0102083
0.0110628
0.0119262
0.0127952
0.0136662
0.0145359
0.0154008
0.0162575
0.0171025
0.0179324
0.0187438
0.0195333
0.0202976
0.0210332
0.021737
0.0224058
0.0230363
0.0236255
0.0241704
0.0246684
0.0251167
0.0255128
0.0258546
0.0261399
0.0263672
0.0265349
0.0266385
0.0266008
0.0266008
-0.000194752
-0.000194752
-0.000233769
-0.000130372
3.72178e-05
0.000264433
0.000549777
0.000891553
0.00128779
0.00173629
0.00223461
0.00278018
0.00337022
0.00400186
0.00467211
0.00537787
0.00611599
0.00688323
0.00767633
0.00849196
0.00932678
0.0101774
0.0110404
0.0119124
0.01279
0.0136696
0.0145479
0.0154214
0.0162866
0.0171402
0.0179785
0.0187983
0.0195961
0.0203684
0.0211121
0.0218236
0.0224998
0.0231375
0.0237336
0.0242851
0.0247892
0.0252431
0.0256443
0.0259905
0.0262796
0.02651
0.02668
0.0267849
0.0267465
0.0267465
-0.000392207
-0.000392207
-0.000432166
-0.000326903
-0.000156305
7.4937e-05
0.000365259
0.00071289
0.00111579
0.00157166
0.00207802
0.0026322
0.00323136
0.00387258
0.00455279
0.00526886
0.00601758
0.00679569
0.00759986
0.00842675
0.00927298
0.0101351
0.0110098
0.0118935
0.0127828
0.0136742
0.0145643
0.0154496
0.0163266
0.0171918
0.0180417
0.0188729
0.019682
0.0204655
0.02122
0.0219422
0.0226287
0.0232763
0.0238818
0.0244423
0.0249547
0.0254162
0.0258244
0.0261767
0.026471
0.0267056
0.0268787
0.0269857
0.0269463
0.0269463
-0.000643986
-0.000643986
-0.000684986
-0.000577324
-0.000402865
-0.000166462
0.000130233
0.000485355
0.00089676
0.00136206
0.00187868
0.00244384
0.00305464
0.00370806
0.00440097
0.00513017
0.00589239
0.00668432
0.00750259
0.0083438
0.00920454
0.0100814
0.0109708
0.0118694
0.0127737
0.0136801
0.0145852
0.0154854
0.0163773
0.0172574
0.0181221
0.0189679
0.0197913
0.020589
0.0213574
0.022093
0.0227926
0.0234528
0.0240704
0.0246423
0.0251653
0.0256367
0.0260537
0.0264139
0.0267149
0.0269548
0.027132
0.0272415
0.0272011
0.0272011
-0.000951194
-0.000951194
-0.000993359
-0.000882733
-0.000703523
-0.000460774
-0.000156251
0.000208058
0.000629889
0.00110673
0.00163588
0.00221447
0.00283947
0.00350778
0.00421617
0.00496138
0.00574005
0.00654881
0.00738424
0.00824288
0.00912128
0.010016
0.0109234
0.0118401
0.0127625
0.0136872
0.0146105
0.015529
0.016439
0.0173372
0.0182198
0.0190833
0.0199243
0.0207392
0.0215245
0.0222766
0.0229922
0.0236678
0.0243001
0.0248859
0.025422
0.0259054
0.0263333
0.026703
0.0270122
0.0272588
0.027441
0.0275535
0.0275121
0.0275121
-0.0013152
-0.0013152
-0.00135867
-0.00124448
-0.00105957
-0.00080923
-0.000495356
-0.000120084
0.000314168
0.000804746
0.0013488
0.00194332
0.00258517
0.00327112
0.00399785
0.00476199
0.00556012
0.00638878
0.00724448
0.00812371
0.00902297
0.0099387
0.0108674
0.0118054
0.0127493
0.0136955
0.0146404
0.0155803
0.0165118
0.0174313
0.0183351
0.0192196
0.0200813
0.0209166
0.0217218
0.0224935
0.023228
0.0239218
0.0245716
0.0251739
0.0257255
0.0262233
0.0266641
0.0270453
0.0273643
0.0276189
0.027807
0.0279233
0.0278806
0.0278806
-0.00173763
-0.00173763
-0.00178256
-0.00166417
-0.00147256
-0.00121329
-0.000888455
-0.000500353
-5.1588e-05
0.000455009
0.00101642
0.00162948
0.00229091
0.00299734
0.00374534
0.00453143
0.00535208
0.00620377
0.00708292
0.00798596
0.00890932
0.0098494
0.0108026
0.0117654
0.0127341
0.0137051
0.0146748
0.0156396
0.0165959
0.01754
0.0184683
0.0193771
0.0202627
0.0211216
0.02195
0.0227442
0.0235007
0.0242157
0.0248858
0.0255074
0.0260771
0.0265916
0.0270476
0.0274422
0.0277727
0.0280366
0.0282318
0.0283525
0.0283084
0.0283084
-0.00222041
-0.00222041
-0.00226695
-0.00214367
-0.00194427
-0.00167466
-0.00133714
-0.000934233
-0.00046875
5.62668e-05
0.000637604
0.00127191
0.00195575
0.0026856
0.00345788
0.00426901
0.00511535
0.00599327
0.00689912
0.00782926
0.00878004
0.00974781
0.0107289
0.0117197
0.0127166
0.0137158
0.0147138
0.0157069
0.0166913
0.0176635
0.0186196
0.019556
0.020469
0.0213547
0.0222095
0.0230296
0.0238112
0.0245505
0.0252438
0.0258876
0.026478
0.0270117
0.0274852
0.0278953
0.0282391
0.0285139
0.0287172
0.0288431
0.0287975
0.0287975
-0.00276574
-0.00276574
-0.00281407
-0.00268513
-0.00247676
-0.00219528
-0.00184324
-0.00142341
-0.000938875
-0.000392909
0.000211048
0.000869438
0.00157863
0.00233493
0.00313463
0.00397399
0.00484926
0.0057567
0.00669259
0.00765318
0.00863477
0.00963363
0.0106461
0.0116684
0.0126969
0.0137278
0.0147575
0.0157823
0.0167984
0.017802
0.0187895
0.019757
0.0207006
0.0216167
0.0225012
0.0233504
0.0241603
0.0249271
0.0256468
0.0263156
0.0269297
0.0274852
0.0279787
0.0284065
0.0287656
0.0290528
0.0292656
0.0293975
0.0293502
0.0293502
-0.00337615
-0.00337615
-0.00342644
-0.003291
-0.00307236
-0.00277734
-0.00240879
-0.00196979
-0.00146371
-0.000894114
-0.0002647
0.000420741
0.00115836
0.00194429
0.00277464
0.00364552
0.00455307
0.00549343
0.00646276
0.00745726
0.00847312
0.00950657
0.0105538
0.0116112
0.0126748
0.013741
0.014806
0.015866
0.0169173
0.017956
0.0189783
0.0199803
0.0209582
0.021908
0.0228258
0.0237075
0.0245492
0.0253467
0.026096
0.026793
0.0274337
0.028014
0.02853
0.028978
0.0293544
0.0296559
0.0298795
0.0300183
0.0299692
0.0299692
-0.0040545
-0.0040545
-0.00410692
-0.00396403
-0.0037337
-0.00342331
-0.00303609
-0.00257548
-0.0020452
-0.00144912
-0.000791247
-7.56316e-05
0.000693645
0.0015125
0.00237686
0.00328269
0.00422597
0.00520273
0.00620904
0.00724098
0.00829467
0.00936628
0.010452
0.0115479
0.0126503
0.0137553
0.0148592
0.0159581
0.0170482
0.0181256
0.0191863
0.0202266
0.0212424
0.0222296
0.0231841
0.024102
0.0249789
0.0258106
0.0265929
0.0273214
0.0279918
0.0285999
0.0291414
0.0296121
0.0300082
0.0303259
0.0305619
0.0307085
0.0306574
0.0306574
-0.00480401
-0.00480401
-0.00485871
-0.00470731
-0.0044637
-0.00413593
-0.00372768
-0.00324282
-0.00268547
-0.00205987
-0.00137035
-0.000621266
0.000183049
0.00103828
0.00194016
0.00288448
0.00386708
0.00488386
0.00593075
0.00700378
0.00809896
0.00921238
0.0103402
0.0114784
0.0126232
0.0137708
0.0149173
0.0160588
0.0171914
0.0183112
0.0194142
0.0204964
0.0215537
0.022582
0.0235772
0.0245348
0.0254506
0.0263202
0.027139
0.0279026
0.0286062
0.0292452
0.0298152
0.0303115
0.0307297
0.0310658
0.0313158
0.0314715
0.0314182
0.0314182
-0.00562829
-0.00562829
-0.00568542
-0.00552429
-0.0052656
-0.00491821
-0.00448635
-0.00397437
-0.00338686
-0.00272848
-0.00200393
-0.00121789
-0.000374969
0.000520261
0.00146333
0.00244983
0.00347545
0.00453596
0.0056272
0.00674505
0.00788548
0.00904448
0.0102181
0.0114024
0.0125935
0.0137874
0.0149803
0.0161682
0.0173472
0.0185132
0.0196622
0.0207902
0.021893
0.0229663
0.0240059
0.0250072
0.0259658
0.026877
0.0277362
0.0285384
0.0292788
0.0299523
0.0305541
0.031079
0.0315222
0.0318791
0.032145
0.032311
0.0322556
0.0322556
-0.00653138
-0.00653138
-0.00659105
-0.00641879
-0.00614299
-0.0057735
-0.00531515
-0.00477293
-0.00415191
-0.00345725
-0.00269405
-0.00186735
-0.000982073
-4.30472e-05
0.000945024
0.00197755
0.00305006
0.00415817
0.0052976
0.00646415
0.00765369
0.00886215
0.0100855
0.0113198
0.0125609
0.0138051
0.0150483
0.0162865
0.0175157
0.0187319
0.019931
0.0211088
0.022261
0.0233833
0.0244713
0.0255203
0.0265257
0.0274826
0.0283861
0.029231
0.030012
0.0307238
0.0313609
0.0319179
0.0323891
0.0327694
0.0330535
0.0332314
0.0331736
0.0331736
-0.00751779
-0.00751779
-0.00758007
-0.00739505
-0.00709983
-0.00670542
-0.00621743
-0.00564152
-0.00498337
-0.00424866
-0.00344294
-0.00257165
-0.00164004
-0.000653228
0.000383855
0.00146642
0.00258981
0.00374952
0.00494114
0.00616038
0.00740301
0.00866491
0.00994197
0.0112302
0.0125254
0.0138238
0.0151213
0.0164139
0.0176974
0.0189679
0.0202211
0.0214527
0.0226585
0.023834
0.0249746
0.0260755
0.0271319
0.0281388
0.0290908
0.0299825
0.0308083
0.0315625
0.0322389
0.0328315
0.0333343
0.033741
0.0340458
0.0342373
0.0341772
0.0341772
-0.00859256
-0.00859256
-0.00865743
-0.00845772
-0.00814042
-0.00771795
-0.0071968
-0.00658341
-0.00588418
-0.00510535
-0.00425298
-0.00333291
-0.00235078
-0.00131197
-0.000221675
0.000915106
0.00209356
0.00330901
0.00455696
0.00583301
0.00713285
0.00845227
0.00978713
0.0111333
0.0124868
0.0138435
0.0151994
0.0165505
0.0178925
0.0192214
0.0205329
0.0218227
0.0230863
0.0243193
0.0255169
0.0266741
0.027786
0.0288473
0.0298523
0.0307954
0.0316705
0.0324713
0.0331913
0.0338238
0.0343618
0.0347985
0.0351268
0.0353339
0.0352717
0.0352717
-0.0097613
-0.0097613
-0.00982864
-0.00961195
-0.00926951
-0.00881539
-0.00825714
-0.00760213
-0.0068575
-0.00603015
-0.00512669
-0.0041534
-0.00311628
-0.00202105
-0.000873146
0.000322225
0.00156007
0.00283559
0.00414415
0.00548126
0.00684254
0.00822371
0.00962059
0.011029
0.0124449
0.0138642
0.0152827
0.0166965
0.0181012
0.0194929
0.020867
0.0222193
0.0235453
0.0248403
0.0260994
0.0273176
0.0284897
0.02961
0.0306729
0.0316721
0.0326013
0.0334536
0.0342219
0.0348987
0.0354763
0.0359468
0.036302
0.0365273
0.0364629
0.0364629
-0.0110303
-0.0110303
-0.0110998
-0.0108634
-0.0104922
-0.0100024
-0.00940267
-0.00870143
-0.0079067
-0.00702608
-0.00606675
-0.00503549
-0.00393868
-0.00278236
-0.00157222
-0.000313692
0.000988073
0.00232813
0.00370174
0.00510431
0.0065314
0.00797869
0.00944191
0.0109169
0.0123995
0.0138857
0.0153712
0.0168521
0.018324
0.0197828
0.0212241
0.0226435
0.0240364
0.025398
0.0267234
0.0280074
0.0292446
0.030429
0.0315548
0.0326153
0.0336037
0.0345127
0.0353345
0.0360607
0.0366827
0.0371914
0.0375774
0.0378238
0.0377578
0.0377578
-0.0124065
-0.0124065
-0.0124776
-0.0122182
-0.0118142
-0.011284
-0.0106379
-0.00988534
-0.00903535
-0.00809631
-0.007076
-0.0059817
-0.00482021
-0.00359787
-0.00232065
-0.000994181
0.000376216
0.00178547
0.00322872
0.00470131
0.00619873
0.0077166
0.00925064
0.0107966
0.0123505
0.0139079
0.015465
0.0170174
0.018561
0.0200916
0.0216047
0.0230959
0.0245605
0.0259937
0.0273903
0.0287452
0.0300525
0.0313065
0.0325005
0.0336278
0.0346811
0.0356524
0.0365332
0.0373144
0.0379862
0.0385383
0.0389595
0.0392306
0.0391637
0.0391637
-0.0138978
-0.0138978
-0.0139695
-0.0136832
-0.0132415
-0.0126657
-0.0119676
-0.0111581
-0.0102473
-0.0092442
-0.00815742
-0.00699468
-0.00576321
-0.00446966
-0.00312026
-0.00172085
-0.000276911
0.00120637
0.00272403
0.00427135
0.00584377
0.00743686
0.00904631
0.0106679
0.0122975
0.0139309
0.015564
0.0171926
0.0188126
0.0204197
0.0220094
0.0235772
0.0251185
0.0266283
0.0281014
0.0295324
0.0309155
0.0322444
0.0335125
0.0347125
0.0358366
0.0368764
0.0378225
0.0386649
0.0393927
0.0399939
0.0404557
0.0407559
0.0406891
0.0406891
-0.015513
-0.015513
-0.0155839
-0.0152656
-0.0147806
-0.0141531
-0.0133969
-0.0125243
-0.0115464
-0.0104733
-0.00931413
-0.0080772
-0.00677012
-0.00539989
-0.00397297
-0.00249539
-0.000972777
0.000589555
0.00218658
0.00381351
0.00546573
0.00713881
0.00882841
0.0105303
0.0122404
0.0139544
0.0156683
0.017378
0.0190791
0.0207675
0.0224388
0.0240883
0.0257114
0.0273031
0.0288581
0.0303708
0.0318353
0.0332452
0.0345934
0.0358724
0.037074
0.0381889
0.0392071
0.0401176
0.0409082
0.0415653
0.0420739
0.0424085
0.0423434
0.0423434
-0.017262
-0.017262
-0.0173297
-0.0169737
-0.0164387
-0.0157525
-0.0149312
-0.0139886
-0.012937
-0.0117873
-0.0105494
-0.00923216
-0.00784352
-0.00639082
-0.00488076
-0.00331953
-0.00171291
-6.62992e-05
0.00161522
0.00332679
0.0050638
0.00682178
0.00859642
0.0103835
0.0121789
0.0139784
0.015778
0.0175735
0.0193608
0.0211356
0.0228935
0.02463
0.0263402
0.0280192
0.0296617
0.031262
0.032814
0.0343111
0.035746
0.0371108
0.0383967
0.039594
0.0406919
0.0416782
0.0425394
0.0432601
0.0438229
0.0441982
0.0441375
0.0441375
-0.0191559
-0.0191559
-0.0192171
-0.0188161
-0.0182232
-0.0174706
-0.0165764
-0.0155562
-0.0144234
-0.0131901
-0.0118667
-0.0104626
-0.00898607
-0.00744481
-0.00584571
-0.00419512
-0.00249892
-0.000762582
0.00100874
0.00281019
0.00463712
0.00648509
0.00834979
0.010227
0.0121127
0.0140027
0.015893
0.0177794
0.019658
0.0215243
0.0233741
0.0252029
0.0270058
0.0287779
0.0305138
0.0322078
0.0338536
0.0354445
0.036973
0.0384307
0.0398086
0.0410963
0.0422821
0.0433528
0.0442933
0.0450864
0.045712
0.046136
0.0460834
0.0460834
-0.0212072
-0.0212072
-0.0212572
-0.0208022
-0.0201424
-0.0193142
-0.0183384
-0.0172322
-0.0160104
-0.0146858
-0.0132696
-0.0117716
-0.0102006
-0.00856433
-0.00686999
-0.00512404
-0.00333244
-0.00150073
0.000365921
0.00226265
0.00418482
0.006128
0.00808794
0.0100605
0.0120415
0.0140271
0.0160132
0.0179958
0.0199708
0.0219341
0.0238813
0.0258079
0.0277093
0.0295803
0.0314158
0.0332098
0.0349562
0.0366479
0.0382772
0.0398358
0.0413138
0.0427004
0.0439831
0.0451476
0.0461774
0.047053
0.0477516
0.0482341
0.0481949
0.0481949
-0.0234303
-0.0234303
-0.023462
-0.0229423
-0.0222049
-0.0212909
-0.0202237
-0.0190223
-0.0177028
-0.0162787
-0.0147619
-0.0131626
-0.0114899
-0.00975193
-0.00795585
-0.00610828
-0.00421522
-0.00228225
-0.000314533
0.00168307
0.00370596
0.00574977
0.00781028
0.0098834
0.0119651
0.0140516
0.0161388
0.0182228
0.0202997
0.0223653
0.0244155
0.0264458
0.0284515
0.0304277
0.0323691
0.0342699
0.0361238
0.0379237
0.0396618
0.0413293
0.0429162
0.0444111
0.0458006
0.0470695
0.0481996
0.0491695
0.0499531
0.0505059
0.0504874
0.0504874
-0.0258412
-0.0258412
-0.025845
-0.0252474
-0.0244199
-0.0234085
-0.022239
-0.0209323
-0.0195056
-0.0179731
-0.0163474
-0.014639
-0.0128572
-0.0110103
-0.00910565
-0.00714988
-0.00514904
-0.00310868
-0.00103395
0.00107033
0.00319962
0.00534961
0.00751618
0.00969533
0.0118832
0.0140759
0.0162696
0.0184605
0.0206448
0.0228185
0.0249774
0.0271173
0.0292335
0.0313213
0.0333753
0.0353898
0.0373586
0.0392745
0.0411296
0.0429149
0.0446201
0.0462334
0.0477407
0.0491256
0.0503685
0.0514459
0.0523285
0.0529661
0.0529787
0.0529787
-0.028458
-0.028458
-0.0284209
-0.0277294
-0.0267972
-0.0256752
-0.0243915
-0.0229684
-0.0214242
-0.0197739
-0.0180303
-0.0162043
-0.0143056
-0.0123423
-0.0103219
-0.00825101
-0.00613576
-0.00398163
-0.00179371
0.000423252
0.00266481
0.00492674
0.00720502
0.00949578
0.0117953
0.0140997
0.0164055
0.018709
0.0210064
0.0232939
0.0255675
0.0278231
0.0300562
0.0322622
0.0344358
0.0365714
0.0386627
0.0407028
0.0426837
0.0445962
0.04643
0.0481725
0.0498094
0.0513232
0.0526929
0.053893
0.0548911
0.0556311
0.0556889
0.0556889
-0.0313011
-0.0313011
-0.0312055
-0.030401
-0.0293474
-0.0280999
-0.0266886
-0.025137
-0.0234643
-0.0216859
-0.0198149
-0.0178626
-0.0158384
-0.0137507
-0.011607
-0.00941392
-0.00717735
-0.00490278
-0.00259524
-0.000259356
0.00210053
0.00448032
0.00687614
0.00928426
0.0117011
0.014123
0.0165466
0.0189683
0.0213847
0.023792
0.0261864
0.0285641
0.0309206
0.0332516
0.035552
0.0378163
0.0400384
0.0422114
0.0443273
0.0463772
0.0483502
0.0502339
0.0520132
0.0536701
0.0551824
0.0565224
0.0576551
0.0585188
0.0586407
0.0586407
-0.0343935
-0.0343935
-0.0342162
-0.0332757
-0.0320815
-0.0306918
-0.0291382
-0.027445
-0.0256318
-0.0237144
-0.021706
-0.0196178
-0.0174593
-0.0152389
-0.012964
-0.010641
-0.00827582
-0.00587387
-0.00344
-0.000978727
0.00150576
0.00400954
0.00652888
0.00906024
0.0116002
0.0141454
0.0166926
0.0192385
0.0217798
0.024313
0.0268346
0.0293408
0.0318276
0.0342908
0.0367255
0.0391265
0.0414879
0.0438029
0.0460638
0.0482615
0.0503855
0.0524231
0.0543591
0.0561747
0.0578468
0.0593464
0.0606358
0.0616488
0.0618595
0.0618595
-0.0377608
-0.0377608
-0.0374715
-0.036368
-0.0350111
-0.0334607
-0.0317487
-0.0298997
-0.0279332
-0.0258651
-0.0237084
-0.0214743
-0.0191721
-0.0168101
-0.0143955
-0.0119346
-0.0094333
-0.00689668
-0.00432951
-0.00173612
0.00087948
0.00351355
0.00616257
0.00882323
0.0114923
0.0141668
0.0168436
0.0195196
0.0221919
0.0248573
0.0275124
0.030154
0.0327781
0.0353809
0.0379578
0.0405039
0.0430134
0.0454801
0.0478964
0.0502534
0.0525409
0.0547462
0.056854
0.0588455
0.0606969
0.0623781
0.0638499
0.0650423
0.0653743
0.0653743
-0.0414312
-0.0414312
-0.0409914
-0.0396933
-0.0381489
-0.0364172
-0.0345293
-0.032509
-0.0303755
-0.0281441
-0.0258277
-0.0234369
-0.020981
-0.0184679
-0.0159047
-0.0132976
-0.010652
-0.00797309
-0.0052653
-0.00253279
0.000220653
0.00299153
0.00577657
0.00857271
0.0113771
0.0141868
0.0169992
0.0198115
0.0226211
0.025425
0.0282204
0.0310042
0.0337729
0.036523
0.0392503
0.0419501
0.0446174
0.0472459
0.0498286
0.0523572
0.0548215
0.0572094
0.0595057
0.0616918
0.0637439
0.0656315
0.067315
0.0687224
0.069217
0.069217
-0.0454359
-0.0454359
-0.0447969
-0.0432679
-0.0415082
-0.0395726
-0.0374896
-0.0352815
-0.0329662
-0.0305582
-0.0280696
-0.0255108
-0.0228904
-0.0202163
-0.017495
-0.0147326
-0.0119343
-0.00910502
-0.00624895
-0.00337001
-0.000471726
0.00244268
0.00537024
0.0083082
0.011254
0.0142052
0.0171594
0.0201142
0.0230674
0.0260164
0.0289589
0.031892
0.0348129
0.0377182
0.0406044
0.0434673
0.0463021
0.0491033
0.0518643
0.0545773
0.0572329
0.0598193
0.0623222
0.0647235
0.0669999
0.0691218
0.0710501
0.0727138
0.0734229
0.0734229
-0.0498085
-0.0498085
-0.0489099
-0.0471092
-0.0451033
-0.0429392
-0.0406406
-0.0382269
-0.0357139
-0.0331149
-0.030441
-0.0277018
-0.0249055
-0.0220594
-0.0191699
-0.0162427
-0.0132827
-0.0102944
-0.00728202
-0.004249
-0.00119862
0.00186626
0.004943
0.00802925
0.0111228
0.0142217
0.0173239
0.0204275
0.0235308
0.0266316
0.0297281
0.0328179
0.0358987
0.0389676
0.0420217
0.0450573
0.0480702
0.0510556
0.0540075
0.0569189
0.0597811
0.0625835
0.0653125
0.0679514
0.0704782
0.0728652
0.0750756
0.0770424
0.0780305
0.0780305
-0.0545847
-0.0545847
-0.0533529
-0.0512352
-0.0489497
-0.0465306
-0.0439943
-0.0413559
-0.0386283
-0.0358229
-0.0329494
-0.0300166
-0.0270319
-0.0240023
-0.0209335
-0.017831
-0.0146996
-0.0115434
-0.00836605
-0.00517094
-0.00196088
0.00126162
0.00449437
0.00773546
0.0109832
0.014236
0.0174925
0.0207513
0.0240111
0.0272705
0.0305281
0.0337822
0.0370309
0.0402722
0.0435036
0.0467221
0.0499244
0.0531062
0.0562625
0.0593873
0.0624729
0.06551
0.0684865
0.0713874
0.0741933
0.0768792
0.0794131
0.0817354
0.0830812
0.0830812
-0.0598023
-0.0598023
-0.0581481
-0.0556652
-0.0530645
-0.050362
-0.0475647
-0.0446813
-0.0417209
-0.0386924
-0.0356039
-0.0324629
-0.0292762
-0.0260501
-0.0227901
-0.0195012
-0.0161878
-0.0128538
-0.00950253
-0.00613686
-0.00275925
0.000628262
0.00402399
0.00742656
0.0108348
0.0142479
0.0176649
0.0210852
0.0245081
0.027933
0.0313589
0.0347849
0.0382101
0.0416328
0.0450515
0.0484639
0.0518675
0.0552591
0.0586345
0.061989
0.0653161
0.0686083
0.0718554
0.0750451
0.0781611
0.0811831
0.0840856
0.0868202
0.0886189
0.0886189
-0.0655
-0.0655
-0.0633167
-0.0604187
-0.057466
-0.0544508
-0.0513677
-0.0482178
-0.0450051
-0.0417354
-0.0384149
-0.0350497
-0.031646
-0.0282093
-0.0247447
-0.021257
-0.0177502
-0.0142278
-0.0106928
-0.0071476
-0.0035942
-3.40704e-05
0.0035317
0.0071024
0.0106776
0.014257
0.0178408
0.0214288
0.0250214
0.0286184
0.0322201
0.0358262
0.0394364
0.0430503
0.0466669
0.050285
0.053903
0.0575187
0.0611293
0.0647312
0.0683198
0.0718894
0.0754325
0.0789399
0.0823998
0.0857978
0.0891168
0.0923238
0.094689
0.094689
-0.0717168
-0.0717168
-0.0688779
-0.0655158
-0.0621744
-0.0588168
-0.0554226
-0.0519834
-0.0484974
-0.0449667
-0.0413953
-0.0377881
-0.0341503
-0.030487
-0.026803
-0.0231026
-0.0193896
-0.0156672
-0.0119379
-0.00820367
-0.00446585
-0.000725298
0.00301765
0.00676306
0.0105114
0.0142632
0.0180196
0.0217815
0.02555
0.0293262
0.033111
0.0369054
0.04071
0.0445253
0.0483513
0.052188
0.0560347
0.0598905
0.063754
0.0676231
0.0714951
0.0753667
0.0792334
0.0830899
0.0869299
0.0907461
0.0945314
0.0982716
0.101338
0.101338
-0.0784915
-0.0784915
-0.074847
-0.0709759
-0.0672116
-0.0634828
-0.059752
-0.0559998
-0.052218
-0.0484046
-0.0445613
-0.0406917
-0.0368004
-0.0328921
-0.0289715
-0.0250427
-0.0211092
-0.0171738
-0.0132386
-0.00930507
-0.00537379
-0.00144482
0.0024824
0.00640895
0.0103363
0.0142662
0.0182008
0.0221423
0.0260929
0.0300549
0.0340305
0.0380217
0.0420304
0.0460581
0.0501061
0.0541755
0.058267
0.0623809
0.0665172
0.0706757
0.0748558
0.0790566
0.0832771
0.0875166
0.0917748
0.0960526
0.100354
0.104685
0.108611
0.108611
-0.0858615
-0.0858615
-0.0812339
-0.0768176
-0.0726012
-0.0684751
-0.0643831
-0.0602939
-0.0561923
-0.052072
-0.0479328
-0.0437773
-0.0396099
-0.0354352
-0.031258
-0.0270824
-0.0229119
-0.0187489
-0.014595
-0.0104511
-0.00631682
-0.0021913
0.00192718
0.00604091
0.0101527
0.0142658
0.0183836
0.0225099
0.0266483
0.0308026
0.0349765
0.0391734
0.0433965
0.0476487
0.0519329
0.0562511
0.0606056
0.0649982
0.0694303
0.0739035
0.0784193
0.0829796
0.087587
0.0922455
0.0969612
0.101744
0.106607
0.111581
0.116553
0.116553
-0.0938624
-0.0938624
-0.0880406
-0.0830563
-0.0783675
-0.0738234
-0.0693483
-0.0648987
-0.060452
-0.0559983
-0.0515357
-0.0470669
-0.0425964
-0.0381297
-0.033672
-0.0292279
-0.0248009
-0.0203934
-0.0160064
-0.0116398
-0.00729256
-0.00296229
0.00135409
0.00566047
0.00996134
0.0142617
0.0185668
0.0228822
0.0272136
0.0315664
0.035946
0.0403578
0.0448066
0.049297
0.0538331
0.058419
0.0630579
0.0677531
0.0725078
0.0773249
0.0822081
0.0871617
0.0921917
0.0973066
0.102519
0.107846
0.113312
0.118968
0.125206
0.125206
-0.102528
-0.102528
-0.0952592
-0.0897036
-0.0845348
-0.0795609
-0.0746861
-0.0698547
-0.0650371
-0.0602208
-0.0554035
-0.0505886
-0.0457826
-0.0409926
-0.0362253
-0.0314863
-0.0267795
-0.0221074
-0.0174706
-0.0128679
-0.00829694
-0.00375377
0.000766584
0.00527006
0.00976335
0.0142537
0.0187488
0.0232565
0.0277848
0.0323415
0.0369344
0.0415708
0.0462578
0.0510018
0.0558089
0.0606845
0.0656335
0.0706604
0.0757694
0.0809648
0.0862516
0.0916358
0.0971263
0.102735
0.108481
0.114386
0.120483
0.126843
0.134607
0.134607
-0.111891
-0.111891
-0.102869
-0.0967641
-0.0911259
-0.0857235
-0.0804411
-0.075211
-0.069998
-0.0647879
-0.0595797
-0.0543801
-0.0491989
-0.0440468
-0.0389334
-0.0338665
-0.0288512
-0.0238902
-0.0189837
-0.0141295
-0.00932344
-0.00455942
0.000170003
0.00487349
0.00956061
0.0142416
0.0189272
0.0236284
0.0283562
0.0331214
0.0379347
0.0428062
0.0477456
0.0527618
0.0578626
0.0630553
0.068346
0.0737399
0.0792418
0.084856
0.0905877
0.0964436
0.102434
0.108572
0.114881
0.121389
0.12813
0.135189
0.144791
0.144791
-0.121993
-0.121993
-0.110845
-0.104245
-0.098171
-0.0923592
-0.086674
-0.0810363
-0.0754058
-0.0697687
-0.0641282
-0.0584966
-0.0528904
-0.0473266
-0.0418201
-0.0363825
-0.0310216
-0.0257409
-0.0205404
-0.0154165
-0.0103627
-0.00537021
-0.000428074
0.004476
0.00935548
0.0142246
0.0190982
0.0239912
0.0289187
0.0338956
0.0389363
0.0440547
0.0492635
0.0545745
0.059998
0.0655425
0.071215
0.0770206
0.0829629
0.0890449
0.0952698
0.101643
0.108173
0.114874
0.121771
0.128892
0.136273
0.144001
0.155815
0.155815
-0.13329
-0.13329
-0.11957
-0.112572
-0.106118
-0.0999219
-0.093828
-0.087748
-0.0816412
-0.0755
-0.0693373
-0.0631777
-0.0570496
-0.0509811
-0.044996
-0.0391126
-0.0333424
-0.0276907
-0.0221568
-0.0167349
-0.0114149
-0.00618373
-0.0010254
0.00407771
0.0091446
0.0141951
0.0192497
0.0243289
0.0294534
0.0346436
0.0399191
0.045299
0.0508005
0.0564394
0.062229
0.0681798
0.0742994
0.0805922
0.0870603
0.0937037
0.100523
0.10752
0.1147
0.122078
0.129672
0.137506
0.145605
0.154031
0.168563
0.168563
-0.160844
-0.160844
-0.14347
-0.135147
-0.127012
-0.118921
-0.110828
-0.102738
-0.0946849
-0.0867131
-0.0788699
-0.0711986
-0.0637345
-0.0565031
-0.0495195
-0.0427889
-0.0363073
-0.0300633
-0.0240393
-0.0182133
-0.01256
-0.00705204
-0.00166076
0.00364316
0.00888938
0.0141077
0.0193281
0.0245806
0.0298957
0.0353042
0.0408373
0.0465267
0.0524043
0.0585025
0.0648534
0.0714895
0.0784433
0.0857479
0.0934369
0.101546
0.11011
0.119168
0.128751
0.13888
0.14955
0.160698
0.172172
0.1837
0.203303
0.203303
-0.471102
-0.471102
-0.404701
-0.34213
-0.290034
-0.246389
-0.209669
-0.178677
-0.15245
-0.130193
-0.111237
-0.0950208
-0.0810639
-0.0689606
-0.0583684
-0.0489999
-0.0406161
-0.0330192
-0.0260469
-0.019566
-0.0134675
-0.00766155
-0.00207325
0.00336104
0.0086971
0.0139859
0.0192765
0.0246186
0.0300662
0.0356801
0.0415327
0.0477121
0.0543281
0.0615192
0.0694609
0.0783755
0.0885439
0.100318
0.114136
0.130535
0.150164
0.173798
0.202337
0.236805
0.278325
0.328075
0.387209
0.456815
0.528223
0.528223
-0.471102
-0.471102
-0.404701
-0.34213
-0.290034
-0.246389
-0.209669
-0.178677
-0.15245
-0.130193
-0.111237
-0.0950208
-0.0810639
-0.0689606
-0.0583684
-0.0489999
-0.0406161
-0.0330192
-0.0260469
-0.019566
-0.0134675
-0.00766155
-0.00207325
0.00336104
0.0086971
0.0139859
0.0192765
0.0246186
0.0300662
0.0356801
0.0415327
0.0477121
0.0543281
0.0615192
0.0694609
0.0783755
0.0885439
0.100318
0.114136
0.130535
0.150164
0.173798
0.202337
0.236805
0.278325
0.328075
0.387209
0.456815
0.528223
0.528223
VECTORS velocity double
-6.27643e-05 6.27642e-05 0.0
6.27643e-05 -6.27642e-05 0.0
0.000196793 -7.12642e-05 0.0
0.000338979 -7.09215e-05 0.0
0.000479792 -6.98913e-05 0.0
0.000618203 -6.85203e-05 0.0
0.000753554 -6.68307e-05 0.0
0.000885223 -6.48377e-05 0.0
0.00101262 -6.25584e-05 0.0
0.00113519 -6.00114e-05 0.0
0.00125242 -5.72161e-05 0.0
0.00136382 -5.41924e-05 0.0
0.00146898 -5.09601e-05 0.0
0.00156748 -4.75388e-05 0.0
0.00165896 -4.39476e-05 0.0
0.00174312 -4.02048e-05 0.0
0.00181965 -3.63281e-05 0.0
0.00188831 -3.23341e-05 0.0
0.00194888 -2.82389e-05 0.0
0.00200118 -2.40574e-05 0.0
0.00204504 -1.9804e-05 0.0
0.00208034 -1.54924e-05 0.0
0.00210697 -1.11357e-05 0.0
0.00212485 -6.74646e-06 0.0
0.00213393 -2.33708e-06 0.0
0.00213419 2.08035e-06 0.0
0.00212561 6.49374e-06 0.0
0.00210823 1.08909e-05 0.0
0.00208208 1.52595e-05 0.0
0.00204723 1.95867e-05 0.0
0.00200379 2.38592e-05 0.0
0.00195186 2.80632e-05 0.0
0.00189162 3.2184e-05 0.0
0.00182323 3.62062e-05 0.0
0.00174691 4.01136e-05 0.0
0.0016629 4.38888e-05 0.0
0.0015715 4.75139e-05 0.0
0.00147302 5.09699e-05 0.0
0.00136781 5.42372e-05 0.0
0.00125628 5.72957e-05 0.0
0.00113886 6.01248e-05 0.0
0.00101603 6.27039e-05 0.0
0.000888311 6.50131e-05 0.0
0.000756265 6.70331e-05 0.0
0.000620485 6.87463e-05 0.0
0.000481602 7.01367e-05 0.0
0.000340284 7.11817e-05 0.0
0.000197569 7.15334e-05 0.0
6.30177e-05 6.30176e-05 0.0
-6.30177e-05 -6.30176e-05 0.0
6.27643e-05 -6.27642e-05 0.0
-6.27643e-05 6.27642e-05 0.0
-0.000196793 7.12642e-05 0.0
-0.000338979 7.09215e-05 0.0
-0.000479792 6.98913e-05 0.0
-0.000618203 6.85203e-05 0.0
-0.000753554 6.68307e-05 0.0
-0.000885223 6.48377e-05 0.0
-0.00101262 6.25584e-05 0.0
-0.00113519 6.00114e-05 0.0
-0.00125242 5.72161e-05 0.0
-0.00136382 5.41924e-05 0.0
-0.00146898 5.09601e-05 0.0
-0.00156748 4.75388e-05 0.0
-0.00165896 4.39476e-05 0.0
-0.00174312 4.02048e-05 0.0
-0.00181965 3.63281e-05 0.0
-0.00188831 3.23341e-05 0.0
-0.00194888 2.82389e-05 0.0
-0.00200118 2.40574e-05 0.0
-0.00204504 1.9804e-05 0.0
-0.00208034 1.54924e-05 0.0
-0.00210697 1.11357e-05 0.0
-0.00212485 6.74646e-06 0.0
-0.00213393 2.33708e-06 0.0
-0.00213419 -2.08035e-06 0.0
-0.00212561 -6.49374e-06 0.0
-0.00210823 -1.08909e-05 0.0
-0.00208208 -1.52595e-05 0.0
-0.00204723 -1.95867e-05 0.0
-0.00200379 -2.38592e-05 0.0
-0.00195186 -2.80632e-05 0.0
-0.00189162 -3.2184e-05 0.0
-0.00182323 -3.62062e-05 0.0
-0.00174691 -4.01136e-05 0.0
-0.0016629 -4.38888e-05 0.0
-0.0015715 -4.75139e-05 0.0
-0.00147302 -5.09699e-05 0.0
-0.00136781 -5.42372e-05 0.0
-0.00125628 -5.72957e-05 0.0
-0.00113886 -6.01248e-05 0.0
-0.00101603 -6.27039e-05 0.0
-0.000888311 -6.50131e-05 0.0
-0.000756265 -6.70331e-05 0.0
-0.000620485 -6.87463e-05 0.0
-0.000481602 -7.01367e-05 0.0
-0.000340284 -7.11817e-05 0.0
-0.000197569 -7.15334e-05 0.0
-6.30177e-05 -6.30176e-05 0.0
6.30177e-05 6.30176e-05 0.0
7.12653e-05 -0.000196794 0.0
-7.12653e-05 0.000196794 0.0
-0.000222397 0.000222394 0.0
-0.000381755 0.000221335 0.0
-0.000539617 0.000218153 0.0
-0.000694845 0.000213899 0.0
-0.000846685 0.000208643 0.0
-0.000994427 0.000202436 0.0
-0.0011374 0.000195332 0.0
-0.00127498 0.000187389 0.0
-0.00140659 0.000178669 0.0
-0.00153167 0.000169234 0.0
-0.00164975 0.000159146 0.0
-0.00176036 0.000148467 0.0
-0.00186311 0.000137256 0.0
-0.00195763 0.00012557 0.0
-0.0020436 0.000113464 0.0
-0.00212073 0.000100992 0.0
-0.00218878 8.82017e-05 0.0
-0.00224753 7.51414e-05 0.0
-0.00229681 6.18557e-05 0.0
-0.00233646 4.83875e-05 0.0
-0.00236637 3.47779e-05 0.0
-0.00238645 2.10665e-05 0.0
-0.00239664 7.29194e-06 0.0
-0.00239691 -6.50771e-06 0.0
-0.00238725 -2.02945e-05 0.0
-0.0023677 -3.40303e-05 0.0
-0.00233829 -4.76761e-05 0.0
-0.00229912 -6.11919e-05 0.0
-0.00225028 -7.45361e-05 0.0
-0.00219193 -8.76651e-05 0.0
-0.00212422 -0.000100533 0.0
-0.00204738 -0.000113092 0.0
-0.00196163 -0.000125291 0.0
-0.00186727 -0.000137076 0.0
-0.00176461 -0.000148391 0.0
-0.00165401 -0.000159176 0.0
-0.00153588 -0.000169371 0.0
-0.00141066 -0.000178912 0.0
-0.00127886 -0.000187735 0.0
-0.001141 -0.000195776 0.0
-0.000997688 -0.000202972 0.0
-0.000849547 -0.000209262 0.0
-0.000697255 -0.000214589 0.0
-0.000541529 -0.000218903 0.0
-0.000383134 -0.00022213 0.0
-0.000223217 -0.000223217 0.0
-7.15335e-05 -0.000197569 0.0
7.15335e-05 0.000197569 0.0
7.21639e-05 -0.000340223 0.0
-7.21639e-05 0.000340223 0.0
-0.000225214 0.000383146 0.0
-0.000386596 0.000381323 0.0
-0.000546443 0.000375873 0.0
-0.000703602 0.000368565 0.0
-0.000857307 0.000359522 0.0
-0.00100684 0.000348833 0.0
-0.00115152 0.000336594 0.0
-0.00129072 0.000322908 0.0
-0.00142385 0.000307881 0.0
-0.00155036 0.000291621 0.0
-0.00166977 0.000274235 0.0
-0.0017816 0.000255831 0.0
-0.00188547 0.00023651 0.0
-0.00198101 0.000216371 0.0
-0.00206788 0.00019551 0.0
-0.00214582 0.000174016 0.0
-0.00221457 0.000151976 0.0
-0.00227393 0.00012947 0.0
-0.0023237 0.000106577 0.0
-0.00236376 8.33689e-05 0.0
-0.00239397 5.99175e-05 0.0
-0.00241425 3.62909e-05 0.0
-0.00242455 1.25557e-05 0.0
-0.00242483 -1.12225e-05 0.0
-0.00241508 -3.49785e-05 0.0
-0.00239534 -5.86464e-05 0.0
-0.00236564 -8.21593e-05 0.0
-0.00232608 -0.000105448 0.0
-0.00227675 -0.000128441 0.0
-0.00221781 -0.000151063 0.0
-0.00214941 -0.000173236 0.0
-0.00207177 -0.000194876 0.0
-0.00198512 -0.000215896 0.0
-0.00188975 -0.000236203 0.0
-0.00178598 -0.0002557 0.0
-0.00167416 -0.000274285 0.0
-0.0015547 -0.000291852 0.0
-0.00142805 -0.000308293 0.0
-0.00129472 -0.000323496 0.0
-0.00115524 -0.00033735 0.0
-0.0010102 -0.000349745 0.0
-0.000860259 -0.000360574 0.0
-0.000706088 -0.000369739 0.0
-0.000548417 -0.000377149 0.0
-0.000388019 -0.000382676 0.0
-0.00022606 -0.000384546 0.0
-7.24405e-05 -0.000341543 0.0
7.24405e-05 0.000341543 0.0
7.3085e-05 -0.000485472 0.0
-7.3085e-05 0.000485472 0.0
-0.000228122 0.000545984 0.0
-0.000391621 0.000543367 0.0
-0.00055354 0.000535595 0.0
-0.000712703 0.000525165 0.0
-0.000868334 0.000512258 0.0
-0.0010197 0.000497 0.0
-0.00116612 0.000479532 0.0
-0.00130695 0.000460001 0.0
-0.0014416 0.000438563 0.0
-0.00156952 0.000415371 0.0
-0.00169022 0.00039058 0.0
-0.00180324 0.000364342 0.0
-0.00190817 0.000336804 0.0
-0.00200467 0.000308107 0.0
-0.0020924 0.000278385 0.0
-0.00217109 0.000247768 0.0
-0.00224049 0.000216376 0.0
-0.00230039 0.000184327 0.0
-0.00235062 0.000151728 0.0
-0.00239104 0.000118685 0.0
-0.00242153 8.52982e-05 0.0
-0.00244199 5.16635e-05 0.0
-0.00245239 1.78752e-05 0.0
-0.00245268 -1.5974e-05 0.0
-0.00244286 -4.97919e-05 0.0
-0.00242295 -8.34854e-05 0.0
-0.00239301 -0.00011696 0.0
-0.0023531 -0.000150118 0.0
-0.00230334 -0.000182857 0.0
-0.00224386 -0.000215073 0.0
-0.00217483 -0.000246653 0.0
-0.00209645 -0.000277479 0.0
-0.00200896 -0.000307427 0.0
-0.00191264 -0.000336364 0.0
-0.0018078 -0.000364154 0.0
-0.0016948 -0.000390649 0.0
-0.00157405 -0.0004157 0.0
-0.00144599 -0.00043915 0.0
-0.00131113 -0.00046084 0.0
-0.00117001 -0.000480609 0.0
-0.00102322 -0.0004983 0.0
-0.000871427 -0.00051376 0.0
-0.000715309 -0.000526843 0.0
-0.000555608 -0.000537418 0.0
-0.000393113 -0.000545301 0.0
-0.00022901 -0.000547985 0.0
-7.33751e-05 -0.000487358 0.0
7.33751e-05 0.000487358 0.0
7.43375e-05 -0.000632894 0.0
-7.43375e-05 0.000632894 0.0
-0.000232056 0.000711317 0.0
-0.000398392 0.000707869 0.0
-0.000563088 0.000697707 0.0
-0.000724941 0.00068407 0.0
-0.000883154 0.000667197 0.0
-0.00103698 0.000647258 0.0
-0.00118573 0.000624439 0.0
-0.00132874 0.000598937 0.0
-0.00146542 0.000570956 0.0
-0.00159522 0.000540699 0.0
-0.00171765 0.00050837 0.0
-0.00183224 0.000474166 0.0
-0.0019386 0.000438281 0.0
-0.00203637 0.000400897 0.0
-0.00212524 0.000362192 0.0
-0.00220492 0.000322332 0.0
-0.00227519 0.000281474 0.0
-0.00233582 0.000239768 0.0
-0.00238666 0.000197356 0.0
-0.00242756 0.000154372 0.0
-0.00245841 0.000110946 0.0
-0.00247912 6.72011e-05 0.0
-0.00248965 2.32587e-05 0.0
-0.00248995 -2.07622e-05 0.0
-0.00248003 -6.47433e-05 0.0
-0.00245991 -0.000108565 0.0
-0.00242963 -0.000152106 0.0
-0.00238927 -0.00019524 0.0
-0.00233893 -0.000237837 0.0
-0.00227874 -0.00027976 0.0
-0.00220888 -0.000320865 0.0
-0.00212952 -0.000360999 0.0
-0.00204092 -0.0004 0.0
-0.00194333 -0.000437699 0.0
-0.00183707 -0.000473914 0.0
-0.0017225 -0.000508456 0.0
-0.00160002 -0.000541128 0.0
-0.00147008 -0.000571724 0.0
-0.00133317 -0.000600037 0.0
-0.00118985 -0.000625854 0.0
-0.00104072 -0.000648967 0.0
-0.000886439 -0.000669172 0.0
-0.00072771 -0.000686278 0.0
-0.000565287 -0.000700107 0.0
-0.000399978 -0.000710415 0.0
-0.000233 -0.000713952 0.0
-7.4646e-05 -0.000635379 0.0
7.4646e-05 0.000635379 0.0
7.59378e-05 -0.000783169 0.0
-7.59378e-05 0.000783169 0.0
-0.000237067 0.000879889 0.0
-0.000406999 0.000875565 0.0
-0.000575216 0.000862924 0.0
-0.000740476 0.000845967 0.0
-0.00090196 0.000824996 0.0
-0.0010589 0.000800228 0.0
-0.00121059 0.0007719 0.0
-0.00135636 0.000740259 0.0
-0.0014956 0.000705563 0.0
-0.00162778 0.000668066 0.0
-0.00175238 0.000628024 0.0
-0.00186895 0.000585683 0.0
-0.00197711 0.000541281 0.0
-0.00207649 0.000495048 0.0
-0.00216678 0.000447199 0.0
-0.00224771 0.000397941 0.0
-0.00231905 0.000347467 0.0
-0.0023806 0.000295961 0.0
-0.0024322 0.000243596 0.0
-0.0024737 0.000190535 0.0
-0.00250501 0.000136937 0.0
-0.00252603 8.29508e-05 0.0
-0.00253672 2.87248e-05 0.0
-0.00253705 -2.55971e-05 0.0
-0.002527 -7.98713e-05 0.0
-0.00250661 -0.000133953 0.0
-0.00247591 -0.000187694 0.0
-0.00243498 -0.000240942 0.0
-0.00238392 -0.000293538 0.0
-0.00232285 -0.000345316 0.0
-0.00225193 -0.000396098 0.0
-0.00217135 -0.000445698 0.0
-0.00208134 -0.000493917 0.0
-0.00198216 -0.000540545 0.0
-0.00187413 -0.00058536 0.0
-0.00175758 -0.000628126 0.0
-0.00163292 -0.000668598 0.0
-0.0015006 -0.000706521 0.0
-0.00136111 -0.000741635 0.0
-0.00121502 -0.000773673 0.0
-0.00106292 -0.000802372 0.0
-0.000905493 -0.000827476 0.0
-0.000743456 -0.00084874 0.0
-0.000577583 -0.00086594 0.0
-0.000408708 -0.000878766 0.0
-0.000238084 -0.000883203 0.0
-7.627e-05 -0.000786295 0.0
7.627e-05 0.000786295 0.0
7.78965e-05 -0.000937003 0.0
-7.78965e-05 0.000937003 0.0
-0.000243192 0.00105248 0.0
-0.000417505 0.00104722 0.0
-0.00059001 0.00103199 0.0
-0.000759418 0.00101157 0.0
-0.000924878 0.000986335 0.0
-0.0010856 0.000956552 0.0
-0.00124085 0.000922514 0.0
-0.00138996 0.000884525 0.0
-0.00153232 0.000842898 0.0
-0.00166736 0.000797944 0.0
-0.00179458 0.000749972 0.0
-0.00191355 0.000699279 0.0
-0.00202386 0.000646152 0.0
-0.00212517 0.000590865 0.0
-0.00221718 0.000533676 0.0
-0.00229961 0.00047483 0.0
-0.00237225 0.000414557 0.0
-0.0024349 0.000353074 0.0
-0.0024874 0.000290583 0.0
-0.00252963 0.000227279 0.0
-0.00256148 0.000163346 0.0
-0.00258287 9.89598e-05 0.0
-0.00259376 3.42921e-05 0.0
-0.00259411 -3.04884e-05 0.0
-0.00258392 -9.52142e-05 0.0
-0.00256321 -0.000159716 0.0
-0.00253201 -0.000223822 0.0
-0.0024904 -0.000287353 0.0
-0.00243847 -0.000350122 0.0
-0.00237634 -0.000411934 0.0
-0.00230416 -0.000472581 0.0
-0.00222211 -0.000531841 0.0
-0.00213042 -0.00058948 0.0
-0.00202933 -0.000645247 0.0
-0.00191915 -0.000698876 0.0
-0.00180022 -0.000750087 0.0
-0.00167293 -0.000798583 0.0
-0.00153773 -0.000844058 0.0
-0.00139512 -0.000886194 0.0
-0.00124566 -0.00092467 0.0
-0.00108997 -0.000959164 0.0
-0.000928719 -0.000989359 0.0
-0.00076266 -0.00101495 0.0
-0.000592587 -0.00103567 0.0
-0.000419366 -0.00105113 0.0
-0.000244299 -0.00105653 0.0
-7.82583e-05 -0.000940824 0.0
7.82583e-05 0.000940824 0.0
8.02277e-05 -0.00109513 0.0
-8.02277e-05 0.00109513 0.0
-0.000250474 0.0012299 0.0
-0.000429987 0.00122363 0.0
-0.000607576 0.00120567 0.0
-0.000781897 0.00118162 0.0
-0.000952062 0.00115191 0.0
-0.00111725 0.00111689 0.0
-0.00127671 0.00107689 0.0
-0.00142976 0.0010323 0.0
-0.00157576 0.000983482 0.0
-0.00171417 0.000930808 0.0
-0.00184448 0.000874644 0.0
-0.00196625 0.000815342 0.0
-0.00207908 0.000753238 0.0
-0.00218265 0.000688654 0.0
-0.00227665 0.00062189 0.0
-0.00236083 0.00055323 0.0
-0.00243498 0.00048294 0.0
-0.0024989 0.000411269 0.0
-0.00255246 0.000338452 0.0
-0.00259553 0.000264708 0.0
-0.00262802 0.000190249 0.0
-0.00264984 0.000115274 0.0
-0.00266095 3.99792e-05 0.0
-0.00266133 -3.54453e-05 0.0
-0.00265097 -0.000110809 0.0
-0.00262989 -0.000185921 0.0
-0.00259812 -0.000260584 0.0
-0.00255572 -0.000334596 0.0
-0.00250278 -0.000407744 0.0
-0.00243942 -0.000479804 0.0
-0.00236578 -0.000550538 0.0
-0.00228202 -0.00061969 0.0
-0.00218835 -0.000686989 0.0
-0.00208504 -0.000752145 0.0
-0.00197235 -0.000814847 0.0
-0.00185063 -0.000874767 0.0
-0.00172026 -0.000931557 0.0
-0.00158168 -0.000984856 0.0
-0.0014354 -0.00103429 0.0
-0.00128198 -0.00107946 0.0
-0.00112204 -0.00112 0.0
-0.000956277 -0.00115553 0.0
-0.000785457 -0.00118567 0.0
-0.000610408 -0.00121008 0.0
-0.000432032 -0.00122832 0.0
-0.000251691 -0.00123475 0.0
-8.06255e-05 -0.00109971 0.0
8.06255e-05 0.00109971 0.0
8.29486e-05 -0.0012583 0.0
-8.29486e-05 0.0012583 0.0
-0.000258968 0.00141298 0.0
-0.000444538 0.00140563 0.0
-0.000628043 0.00138477 0.0
-0.000808074 0.00135687 0.0
-0.000983696 0.00132245 0.0
-0.00115406 0.00128191 0.0
-0.00131839 0.00123567 0.0
-0.00147597 0.00118416 0.0
-0.00162619 0.00112784 0.0
-0.00176847 0.00106713 0.0
-0.00190231 0.00100247 0.0
-0.00202729 0.000934257 0.0
-0.00214301 0.000862883 0.0
-0.00224915 0.000788717 0.0
-0.00234543 0.000712105 0.0
-0.0024316 0.000633368 0.0
-0.00250746 0.000552809 0.0
-0.00257284 0.000470709 0.0
-0.0026276 0.000387331 0.0
-0.00267163 0.000302922 0.0
-0.00270483 0.000217717 0.0
-0.00272714 0.000131939 0.0
-0.00273851 4.58043e-05 0.0
-0.00273893 -4.0476e-05 0.0
-0.00272837 -0.000126691 0.0
-0.00270687 -0.000212629 0.0
-0.00267445 -0.000298071 0.0
-0.00263116 -0.000382793 0.0
-0.00257708 -0.000466557 0.0
-0.00251233 -0.000549111 0.0
-0.00243701 -0.000630189 0.0
-0.00235131 -0.000709502 0.0
-0.00225541 -0.000786742 0.0
-0.00214954 -0.000861578 0.0
-0.00203399 -0.000933656 0.0
-0.00190907 -0.0010026 0.0
-0.00177517 -0.001068 0.0
-0.00163271 -0.00112944 0.0
-0.0014822 -0.00118649 0.0
-0.0013242 -0.00123869 0.0
-0.00115935 -0.00128558 0.0
-0.000988358 -0.00132671 0.0
-0.000812013 -0.00136165 0.0
-0.000631179 -0.00138998 0.0
-0.000446804 -0.00141117 0.0
-0.000260317 -0.00141873 0.0
-8.33896e-05 -0.00126372 0.0
8.33896e-05 0.00126372 0.0
8.60807e-05 -0.00142733 0.0
-8.60807e-05 0.00142733 0.0
-0.000268741 0.00160264 0.0
-0.000461271 0.00159407 0.0
-0.000651565 0.00157012 0.0
-0.000838136 0.00153812 0.0
-0.00102 0.00149869 0.0
-0.00119627 0.0014523 0.0
-0.00136614 0.00139947 0.0
-0.00152889 0.0013407 0.0
-0.00168387 0.00127651 0.0
-0.00183053 0.00120741 0.0
-0.00196837 0.00113388 0.0
-0.00209696 0.00105641 0.0
-0.00221593 0.000975425 0.0
-0.00232497 0.000891352 0.0
-0.0024238 0.000804578 0.0
-0.0025122 0.000715465 0.0
-0.00258997 0.000624351 0.0
-0.00265698 0.000531548 0.0
-0.00271307 0.000437346 0.0
-0.00275816 0.000342019 0.0
-0.00279216 0.000245822 0.0
-0.00281501 0.000148999 0.0
-0.00282668 5.17856e-05 0.0
-0.00282713 -4.5588e-05 0.0
-0.00281637 -0.000142893 0.0
-0.0027944 -0.0002399 0.0
-0.00276125 -0.000336371 0.0
-0.00271698 -0.000432059 0.0
-0.00266164 -0.000526706 0.0
-0.00259532 -0.000620034 0.0
-0.00251815 -0.000711748 0.0
-0.00243027 -0.000801527 0.0
-0.00233186 -0.000889029 0.0
-0.00222314 -0.00097388 0.0
-0.00210436 -0.00105568 0.0
-0.00197585 -0.001134 0.0
-0.00183795 -0.00120839 0.0
-0.0016911 -0.00127836 0.0
-0.0015358 -0.00134339 0.0
-0.0013726 -0.00140298 0.0
-0.00120215 -0.00145658 0.0
-0.00102519 -0.00150366 0.0
-0.000842526 -0.00154371 0.0
-0.000655062 -0.00157622 0.0
-0.000463799 -0.00160057 0.0
-0.000270247 -0.00160937 0.0
-8.65729e-05 -0.00143368 0.0
8.65729e-05 0.00143368 0.0
8.96493e-05 -0.00160306 0.0
-8.96493e-05 0.00160306 0.0
-0.000279873 0.00179979 0.0
-0.000480318 0.00178989 0.0
-0.000678324 0.0017626 0.0
-0.000872309 0.00172619 0.0
-0.00106123 0.0016814 0.0
-0.00124417 0.00162879 0.0
-0.00142028 0.00156896 0.0
-0.00158882 0.0015025 0.0
-0.00174915 0.00143002 0.0
-0.00190071 0.00135211 0.0
-0.002043 0.00126931 0.0
-0.00217561 0.00118218 0.0
-0.00229818 0.0010912 0.0
-0.00241041 0.000996849 0.0
-0.00251207 0.000899561 0.0
-0.00260292 0.000799736 0.0
-0.00268281 0.000697747 0.0
-0.00275159 0.000593935 0.0
-0.00280916 0.000488618 0.0
-0.00285541 0.00038209 0.0
-0.00289029 0.000274628 0.0
-0.00291374 0.000166495 0.0
-0.00292572 5.79409e-05 0.0
-0.00292622 -5.07875e-05 0.0
-0.00291523 -0.000159447 0.0
-0.00289276 -0.00026779 0.0
-0.00285882 -0.000375564 0.0
-0.00281346 -0.000482504 0.0
-0.00275674 -0.00058833 0.0
-0.00268872 -0.000692743 0.0
-0.0026095 -0.000795419 0.0
-0.00251923 -0.00089601 0.0
-0.00241805 -0.000994134 0.0
-0.00230617 -0.00108938 0.0
-0.00218382 -0.0011813 0.0
-0.0020513 -0.00126942 0.0
-0.00190896 -0.00135321 0.0
-0.00175721 -0.00143213 0.0
-0.00159653 -0.0015056 0.0
-0.00142749 -0.00157301 0.0
-0.00125075 -0.00163374 0.0
-0.00106704 -0.00168717 0.0
-0.000877228 -0.00173268 0.0
-0.000682246 -0.00176969 0.0
-0.000483155 -0.00179745 0.0
-0.000281564 -0.00180763 0.0
-9.0202e-05 -0.00161046 0.0
9.0202e-05 0.00161046 0.0
9.36851e-05 -0.0017864 0.0
-9.36851e-05 0.0017864 0.0
-0.000292458 0.00200545 0.0
-0.000501839 0.00199406 0.0
-0.000708533 0.00196314 0.0
-0.000910853 0.00192196 0.0
-0.0011077 0.0018714 0.0
-0.00129808 0.00181211 0.0
-0.00148115 0.00174481 0.0
-0.00165614 0.00167018 0.0
-0.0018224 0.00158893 0.0
-0.00197936 0.00150172 0.0
-0.00212656 0.00140919 0.0
-0.00226359 0.00131194 0.0
-0.00239012 0.00121053 0.0
-0.00250586 0.00110549 0.0
-0.00261059 0.000997296 0.0
-0.00270412 0.000886387 0.0
-0.0027863 0.000773169 0.0
-0.00285702 0.000658012 0.0
-0.00291617 0.000541259 0.0
-0.00296369 0.000423224 0.0
-0.00299952 0.000304201 0.0
-0.00302361 0.000184467 0.0
-0.00303595 6.42875e-05 0.0
-0.0030365 -5.60794e-05 0.0
-0.00302527 -0.000176378 0.0
-0.00300225 -0.000296349 0.0
-0.00296747 -0.000415726 0.0
-0.00292094 -0.000534229 0.0
-0.00286271 -0.00065156 0.0
-0.00279285 -0.000767399 0.0
-0.00271142 -0.0008814 0.0
-0.00261854 -0.000993183 0.0
-0.00251435 -0.00110233 0.0
-0.00239901 -0.0012084 0.0
-0.00227275 -0.00131089 0.0
-0.00213583 -0.00140927 0.0
-0.00198858 -0.00150295 0.0
-0.00183141 -0.00159132 0.0
-0.00166477 -0.00167372 0.0
-0.00148924 -0.00174945 0.0
-0.00130547 -0.0018178 0.0
-0.00111423 -0.00187804 0.0
-0.000916393 -0.00192946 0.0
-0.000712953 -0.00197134 0.0
-0.000505039 -0.00200281 0.0
-0.000294365 -0.00201454 0.0
-9.43088e-05 -0.00179497 0.0
9.43088e-05 0.00179497 0.0
9.82241e-05 -0.00197831 0.0
-9.82241e-05 0.00197831 0.0
-0.000306606 0.0022207 0.0
-0.000526018 0.0022076 0.0
-0.000742443 0.00217271 0.0
-0.000954075 0.00212634 0.0
-0.00115974 0.00206952 0.0
-0.0013584 0.00200304 0.0
-0.00154916 0.00192771 0.0
-0.00173126 0.00184437 0.0
-0.00190404 0.00175378 0.0
-0.00206694 0.00165673 0.0
-0.0022195 0.00155394 0.0
-0.00236135 0.00144607 0.0
-0.00249216 0.00133375 0.0
-0.0026117 0.00121755 0.0
-0.00271975 0.00109802 0.0
-0.00281617 0.000975612 0.0
-0.00290082 0.000850778 0.0
-0.00297361 0.000723911 0.0
-0.00303447 0.000595374 0.0
-0.00308334 0.0004655 0.0
-0.00312019 0.000334596 0.0
-0.00314497 0.000202952 0.0
-0.00315768 7.08422e-05 0.0
-0.00315829 -6.1467e-05 0.0
-0.0031468 -0.000193711 0.0
-0.00312321 -0.000325622 0.0
-0.00308753 -0.000456924 0.0
-0.00303976 -0.000587326 0.0
-0.00297993 -0.000716515 0.0
-0.00290809 -0.000844153 0.0
-0.00282429 -0.000969873 0.0
-0.00272861 -0.00109327 0.0
-0.00262116 -0.00121389 0.0
-0.00250209 -0.00133125 0.0
-0.00237158 -0.00144481 0.0
-0.00222988 -0.00155397 0.0
-0.00207728 -0.0016581 0.0
-0.00191416 -0.00175648 0.0
-0.00174097 -0.00184838 0.0
-0.00155828 -0.00193302 0.0
-0.00136673 -0.00200955 0.0
-0.00116712 -0.00207715 0.0
-0.000960338 -0.00213497 0.0
-0.000747446 -0.00218217 0.0
-0.000529642 -0.0022177 0.0
-0.000308768 -0.00223119 0.0
-9.89311e-05 -0.00198821 0.0
9.89311e-05 0.00198821 0.0
0.000103309 -0.00217984 0.0
-0.000103309 0.00217984 0.0
-0.00032245 0.00244669 0.0
-0.000553073 0.00243165 0.0
-0.000780347 0.00239237 0.0
-0.00100233 0.0023403 0.0
-0.00121776 0.00227665 0.0
-0.00142555 0.00220236 0.0
-0.00162479 0.00211839 0.0
-0.00181468 0.00202568 0.0
-0.00199457 0.00192514 0.0
-0.00216392 0.00181763 0.0
-0.0023223 0.00170398 0.0
-0.00246935 0.00158492 0.0
-0.00260478 0.00146115 0.0
-0.00272839 0.0013333 0.0
-0.00284 0.00120194 0.0
-0.00293949 0.00106759 0.0
-0.00302676 0.000930723 0.0
-0.00310176 0.000791751 0.0
-0.00316443 0.000651059 0.0
-0.00321473 0.000508991 0.0
-0.00325265 0.000365868 0.0
-0.00327817 0.000221984 0.0
-0.00329127 7.76209e-05 0.0
-0.00329195 -6.69517e-05 0.0
-0.0032802 -0.000211465 0.0
-0.00325601 -0.000355648 0.0
-0.00321938 -0.000499218 0.0
-0.0031703 -0.000641876 0.0
-0.00310879 -0.000783301 0.0
-0.00303486 -0.000923141 0.0
-0.00294854 -0.00106101 0.0
-0.00284988 -0.00119647 0.0
-0.00273896 -0.00132906 0.0
-0.00261588 -0.00145823 0.0
-0.00248081 -0.00158341 0.0
-0.00233394 -0.00170395 0.0
-0.00217554 -0.00181912 0.0
-0.00200596 -0.00192816 0.0
-0.00182562 -0.00203022 0.0
-0.00163508 -0.00212442 0.0
-0.00143498 -0.0022098 0.0
-0.00122612 -0.00228539 0.0
-0.00100943 -0.00235019 0.0
-0.00078603 -0.00240323 0.0
-0.000557194 -0.00244327 0.0
-0.00032491 -0.00245878 0.0
-0.000104114 -0.00219126 0.0
0.000104114 0.00219126 0.0
0.000108991 -0.00239214 0.0
-0.000108991 0.00239214 0.0
-0.000340145 0.00268468 0.0
-0.00058326 0.00266739 0.0
-0.000822587 0.00262323 0.0
-0.00105602 0.00256486 0.0
-0.00128222 0.00249372 0.0
-0.00150005 0.00241092 0.0
-0.00170855 0.00231757 0.0
-0.00190693 0.00221477 0.0
-0.00209454 0.00210355 0.0
-0.00227086 0.0019849 0.0
-0.00243549 0.00185972 0.0
-0.00258811 0.00172884 0.0
-0.00272848 0.00159303 0.0
-0.00285642 0.00145296 0.0
-0.0029718 0.00130927 0.0
-0.00307454 0.00116249 0.0
-0.00316458 0.00101314 0.0
-0.00324189 0.00086164 0.0
-0.00330645 0.000708396 0.0
-0.00335825 0.000553762 0.0
-0.00339729 0.000398061 0.0
-0.00342358 0.000241593 0.0
-0.0034371 8.46386e-05 0.0
-0.00343786 -7.25329e-05 0.0
-0.00342584 -0.000229655 0.0
-0.00340103 -0.000386455 0.0
-0.00336342 -0.000542653 0.0
-0.00331299 -0.000697947 0.0
-0.00324972 -0.000852009 0.0
-0.0031736 -0.00100448 0.0
-0.00308464 -0.00115495 0.0
-0.00298284 -0.00130298 0.0
-0.00286824 -0.00144806 0.0
-0.00274092 -0.00158963 0.0
-0.00260098 -0.00172704 0.0
-0.00244858 -0.00185959 0.0
-0.00228394 -0.00198651 0.0
-0.00210738 -0.00210692 0.0
-0.0019193 -0.00221988 0.0
-0.0017202 -0.0023244 0.0
-0.00151075 -0.00241938 0.0
-0.00129172 -0.00250369 0.0
-0.00106411 -0.00257619 0.0
-0.000829062 -0.00263569 0.0
-0.000587961 -0.00268075 0.0
-0.000342952 -0.00269859 0.0
-0.00010991 -0.00240528 0.0
0.00010991 0.00240528 0.0
0.00011533 -0.00261646 0.0
-0.00011533 0.00261646 0.0
-0.000359873 0.00293606 0.0
-0.000616879 0.00291614 0.0
-0.00086956 0.00286649 0.0
-0.00111564 0.00280112 0.0
-0.00135367 0.0027217 0.0
-0.00158247 0.00262956 0.0
-0.00180105 0.002526 0.0
-0.00200862 0.00241228 0.0
-0.00220456 0.00228958 0.0
-0.00238837 0.00215901 0.0
-0.00255969 0.00202156 0.0
-0.00271823 0.00187817 0.0
-0.00286382 0.00172966 0.0
-0.00299633 0.00157677 0.0
-0.00311567 0.00142018 0.0
-0.00322181 0.00126046 0.0
-0.00331473 0.00109814 0.0
-0.00339445 0.000933665 0.0
-0.00346097 0.000767454 0.0
-0.00351432 0.000599862 0.0
-0.00355453 0.000431213 0.0
-0.00358161 0.000261804 0.0
-0.00359557 9.19093e-05 0.0
-0.00359641 -7.82075e-05 0.0
-0.00358412 -0.000248287 0.0
-0.00355869 -0.000418065 0.0
-0.00352008 -0.000587266 0.0
-0.00346825 -0.000755591 0.0
-0.00340317 -0.000922713 0.0
-0.0033248 -0.00108827 0.0
-0.00323309 -0.00125184 0.0
-0.00312802 -0.00141297 0.0
-0.00300957 -0.00157112 0.0
-0.00287778 -0.00172569 0.0
-0.00273269 -0.00187601 0.0
-0.00257441 -0.0020213 0.0
-0.00240312 -0.00216072 0.0
-0.00221908 -0.00229331 0.0
-0.00202263 -0.00241802 0.0
-0.00181428 -0.00253371 0.0
-0.00159463 -0.00263916 0.0
-0.00136449 -0.00273306 0.0
-0.00112486 -0.00281406 0.0
-0.00087696 -0.00288077 0.0
-0.000622259 -0.00293147 0.0
-0.000363089 -0.00295205 0.0
-0.000116383 -0.00263157 0.0
0.000116383 0.00263157 0.0
0.000122399 -0.00285419 0.0
-0.000122399 0.00285419 0.0
-0.000381854 0.00320232 0.0
-0.000654284 0.00317931 0.0
-0.00092173 0.00312345 0.0
-0.00118172 0.00305023 0.0
-0.00143272 0.00296162 0.0
-0.00167347 0.00285919 0.0
-0.00190298 0.00274447 0.0
-0.00212047 0.00261888 0.0
-0.00232533 0.00248379 0.0
-0.00251713 0.00234041 0.0
-0.00269554 0.00218988 0.0
-0.00286035 0.00203321 0.0
-0.00301143 0.00187129 0.0
-0.00314871 0.00170493 0.0
-0.00327217 0.00153483 0.0
-0.00338183 0.00136161 0.0
-0.00347773 0.00118581 0.0
-0.00355992 0.0010079 0.0
-0.00362846 0.000828284 0.0
-0.0036834 0.000647329 0.0
-0.0037248 0.000465351 0.0
-0.00375269 0.000282635 0.0
-0.0037671 9.94451e-05 0.0
-0.00376803 -8.39695e-05 0.0
-0.00375548 -0.000267363 0.0
-0.00372942 -0.000450487 0.0
-0.0036898 -0.000633075 0.0
-0.00363657 -0.00081484 0.0
-0.00356965 -0.000995462 0.0
-0.00348896 -0.00117458 0.0
-0.00339443 -0.00135177 0.0
-0.00328599 -0.00152656 0.0
-0.00316355 -0.0016984 0.0
-0.0030271 -0.00186666 0.0
-0.00287661 -0.00203062 0.0
-0.00271214 -0.00218944 0.0
-0.00253379 -0.00234221 0.0
-0.00234176 -0.00248788 0.0
-0.00213636 -0.00262529 0.0
-0.00191801 -0.00275315 0.0
-0.00168732 -0.00287007 0.0
-0.00144507 -0.00297454 0.0
-0.00119228 -0.003065 0.0
-0.00093021 -0.0031398 0.0
-0.000660457 -0.0031969 0.0
-0.000385547 -0.0032207 0.0
-0.000123608 -0.00287156 0.0
0.000123608 0.00287156 0.0
0.000130283 -0.00310687 0.0
-0.000130283 0.00310687 0.0
-0.000406345 0.00348516 0.0
-0.00069589 0.00345845 0.0
-0.000979642 0.00339551 0.0
-0.00125492 0.00331343 0.0
-0.00152007 0.00321456 0.0
-0.0017738 0.00310074 0.0
-0.00201511 0.00297374 0.0
-0.00224324 0.00283522 0.0
-0.00245763 0.0026867 0.0
-0.0026579 0.00252956 0.0
-0.00284379 0.00236504 0.0
-0.00301517 0.00219424 0.0
-0.00317197 0.00201814 0.0
-0.0033142 0.00183759 0.0
-0.00344191 0.00165334 0.0
-0.00355519 0.00146603 0.0
-0.00365412 0.00127622 0.0
-0.00373882 0.00108438 0.0
-0.0038094 0.000890917 0.0
-0.00386595 0.000696186 0.0
-0.00390855 0.00050049 0.0
-0.00393726 0.000304099 0.0
-0.00395213 0.000107257 0.0
-0.00395316 -8.98098e-05 0.0
-0.00394036 -0.000286877 0.0
-0.00391368 -0.000483715 0.0
-0.00387307 -0.000680081 0.0
-0.00381843 -0.000875705 0.0
-0.00374966 -0.00107028 0.0
-0.00366665 -0.00126345 0.0
-0.00356927 -0.00145481 0.0
-0.00345737 -0.00164387 0.0
-0.00333084 -0.00183006 0.0
-0.00318957 -0.00201273 0.0
-0.00303347 -0.00219113 0.0
-0.00286251 -0.00236436 0.0
-0.00267673 -0.00253143 0.0
-0.00247625 -0.00269119 0.0
-0.00226129 -0.00284235 0.0
-0.00203222 -0.00298349 0.0
-0.00178961 -0.00311303 0.0
-0.0015342 -0.00322924 0.0
-0.00126702 -0.00333028 0.0
-0.000989383 -0.00341422 0.0
-0.000702993 -0.00347863 0.0
-0.000410599 -0.00350628 0.0
-0.000131676 -0.00312685 0.0
0.000131676 0.00312685 0.0
0.000139085 -0.00337624 0.0
-0.000139085 0.00337624 0.0
-0.000433654 0.00378642 0.0
-0.000742189 0.00375526 0.0
-0.00104393 0.00368418 0.0
-0.00133596 0.00359206 0.0
-0.00161653 0.00348165 0.0
-0.00188432 0.00335516 0.0
-0.00213832 0.00321463 0.0
-0.00237782 0.00306196 0.0
-0.00260233 0.00289886 0.0
-0.00281153 0.00272687 0.0
-0.00300526 0.00254735 0.0
-0.00318347 0.00236151 0.0
-0.00334618 0.00217038 0.0
-0.00349349 0.00197489 0.0
-0.00362554 0.0017758 0.0
-0.00374248 0.00157378 0.0
-0.00384447 0.0013694 0.0
-0.0039317 0.00116313 0.0
-0.00400431 0.000955359 0.0
-0.00406245 0.000746433 0.0
-0.00410624 0.000536633 0.0
-0.00413578 0.000326201 0.0
-0.0041511 0.000115352 0.0
-0.00415226 -9.57159e-05 0.0
-0.00413922 -0.000306809 0.0
-0.00411195 -0.000517731 0.0
-0.00407037 -0.000728266 0.0
-0.00401435 -0.000938171 0.0
-0.00394377 -0.00114716 0.0
-0.00385845 -0.0013549 0.0
-0.00375821 -0.00156099 0.0
-0.00364284 -0.00176495 0.0
-0.00351215 -0.0019662 0.0
-0.00336595 -0.00216407 0.0
-0.00320407 -0.00235777 0.0
-0.00302639 -0.00254636 0.0
-0.00283284 -0.00272876 0.0
-0.00262344 -0.00290373 0.0
-0.00239835 -0.00306986 0.0
-0.00215784 -0.00322556 0.0
-0.00190239 -0.00336903 0.0
-0.00163273 -0.00349831 0.0
-0.00134986 -0.00361126 0.0
-0.00105515 -0.00370558 0.0
-0.000750385 -0.00377841 0.0
-0.000438569 -0.0038107 0.0
-0.000140697 -0.00339922 0.0
0.000140697 0.00339922 0.0
0.000148933 -0.00366426 0.0
-0.000148933 0.00366426 0.0
-0.000464153 0.00410819 0.0
-0.000793765 0.00407164 0.0
-0.00111534 0.00399113 0.0
-0.00142572 0.00388752 0.0
-0.00172306 0.0037641 0.0
-0.00200601 0.00362345 0.0
-0.00227361 0.00346795 0.0
-0.00252521 0.00329974 0.0
-0.00276039 0.00312077 0.0
-0.00297895 0.00293273 0.0
-0.00318083 0.00273711 0.0
-0.00336609 0.00253521 0.0
-0.00353486 0.00232816 0.0
-0.00368734 0.0021169 0.0
-0.00382375 0.00190225 0.0
-0.00394435 0.00168487 0.0
-0.00404939 0.00146534 0.0
-0.0041391 0.00124412 0.0
-0.00421371 0.00102159 0.0
-0.00427342 0.000798052 0.0
-0.00431838 0.000573764 0.0
-0.00434871 0.000348933 0.0
-0.0043645 0.000123736 0.0
-0.00436577 -0.000101671 0.0
-0.00435253 -0.000327134 0.0
-0.00432471 -0.000552498 0.0
-0.00428221 -0.000777585 0.0
-0.00422488 -0.00100219 0.0
-0.00415254 -0.00122606 0.0
-0.00406497 -0.00144889 0.0
-0.00396192 -0.0016703 0.0
-0.0038431 -0.00188982 0.0
-0.00370825 -0.00210687 0.0
-0.00355707 -0.00232078 0.0
-0.00338929 -0.00253071 0.0
-0.00320469 -0.0027357 0.0
-0.00300307 -0.00293458 0.0
-0.00278436 -0.00312602 0.0
-0.00254858 -0.00330846 0.0
-0.00229589 -0.00348015 0.0
-0.00202671 -0.00363907 0.0
-0.00174166 -0.00378298 0.0
-0.00144173 -0.00390939 0.0
-0.00112829 -0.0040156 0.0
-0.000803247 -0.00409821 0.0
-0.000469849 -0.00413612 0.0
-0.000150802 -0.00369072 0.0
0.000150802 0.00369072 0.0
0.000159978 -0.00397317 0.0
-0.000159978 0.00397317 0.0
-0.000498287 0.00445281 0.0
-0.000851309 0.00440965 0.0
-0.00119475 0.00431813 0.0
-0.00152519 0.00420134 0.0
-0.00184072 0.00406315 0.0
-0.00214 0.00390662 0.0
-0.00242212 0.00373449 0.0
-0.00268652 0.0035492 0.0
-0.00293291 0.0033529 0.0
-0.00316122 0.00314747 0.0
-0.00337151 0.00293454 0.0
-0.00356397 0.0027155 0.0
-0.00373888 0.00249154 0.0
-0.00389653 0.00226365 0.0
-0.00403729 0.00203267 0.0
-0.0041615 0.00179926 0.0
-0.00426951 0.00156399 0.0
-0.00436163 0.00132731 0.0
-0.00443817 0.00108955 0.0
-0.00449937 0.000850994 0.0
-0.00454544 0.00061185 0.0
-0.00457654 0.00037228 0.0
-0.00459277 0.00013241 0.0
-0.00459418 -0.000107653 0.0
-0.00458077 -0.00034781 0.0
-0.00455246 -0.000587957 0.0
-0.00450912 -0.000827967 0.0
-0.00445057 -0.00106768 0.0
-0.00437658 -0.0013069 0.0
-0.00428687 -0.00154534 0.0
-0.0041811 -0.00178267 0.0
-0.00405893 -0.00201843 0.0
-0.00391997 -0.00225207 0.0
-0.00376382 -0.00248291 0.0
-0.0035901 -0.00271008 0.0
-0.00339844 -0.00293259 0.0
-0.00318853 -0.0031492 0.0
-0.00296014 -0.00335849 0.0
-0.00271314 -0.00355877 0.0
-0.00244759 -0.00374808 0.0
-0.00216373 -0.00392418 0.0
-0.00186212 -0.00408452 0.0
-0.00154367 -0.00422623 0.0
-0.00120974 -0.00434612 0.0
-0.00086231 -0.00444016 0.0
-0.000504908 -0.00448497 0.0
-0.000162152 -0.00400367 0.0
0.000162152 0.00400367 0.0
0.000172406 -0.00430555 0.0
-0.000172406 0.00430555 0.0
-0.000536595 0.00482293 0.0
-0.000915646 0.00477161 0.0
-0.00128318 0.00466715 0.0
-0.00163554 0.00453512 0.0
-0.00197077 0.00438012 0.0
-0.00228756 0.00420572 0.0
-0.00258511 0.00401506 0.0
-0.002863 0.00381091 0.0
-0.0031211 0.00359566 0.0
-0.00335947 0.00337138 0.0
-0.00357836 0.00313981 0.0
-0.00377812 0.00290245 0.0
-0.00395916 0.00266054 0.0
-0.00412195 0.0024151 0.0
-0.00426696 0.00216698 0.0
-0.00439466 0.00191685 0.0
-0.0045055 0.00166525 0.0
-0.0045999 0.00141258 0.0
-0.00467823 0.00115915 0.0
-0.00474081 0.000905181 0.0
-0.00478792 0.000650835 0.0
-0.00481973 0.000396211 0.0
-0.00483639 0.000141373 0.0
-0.00483796 -0.000113636 0.0
-0.00482442 -0.000368782 0.0
-0.00479569 -0.000624026 0.0
-0.00475162 -0.000879306 0.0
-0.00469198 -0.00113452 0.0
-0.0046165 -0.00138953 0.0
-0.0045248 -0.00164411 0.0
-0.0044165 -0.00189797 0.0
-0.00429112 -0.00215068 0.0
-0.00414818 -0.00240173 0.0
-0.00398716 -0.00265042 0.0
-0.00380753 -0.00289592 0.0
-0.00360877 -0.00313717 0.0
-0.00339041 -0.00337289 0.0
-0.00315204 -0.00360157 0.0
-0.00289337 -0.00382137 0.0
-0.00261426 -0.00403015 0.0
-0.00231482 -0.00422542 0.0
-0.00199543 -0.00440428 0.0
-0.00165691 -0.00456345 0.0
-0.00130057 -0.00469917 0.0
-0.000928447 -0.00480666 0.0
-0.000544316 -0.00486 0.0
-0.000174946 -0.00434077 0.0
0.000174946 0.00434077 0.0
0.000186449 -0.00466441 0.0
-0.000186449 0.00466441 0.0
-0.000579729 0.00522154 0.0
-0.000987761 0.00516008 0.0
-0.00138186 0.00504031 0.0
-0.00175813 0.0048906 0.0
-0.00211464 0.00471637 0.0
-0.00245016 0.00452179 0.0
-0.00276406 0.00431045 0.0
-0.00305609 0.00408545 0.0
-0.0033263 0.00384944 0.0
-0.00357499 0.00360467 0.0
-0.00380259 0.00335301 0.0
-0.00400964 0.00309605 0.0
-0.00419674 0.00283507 0.0
-0.00436451 0.00257112 0.0
-0.00451358 0.00230504 0.0
-0.00464456 0.00203748 0.0
-0.00475804 0.00176893 0.0
-0.00485452 0.00149977 0.0
-0.00493447 0.00123024 0.0
-0.00499829 0.000960498 0.0
-0.00504631 0.000690636 0.0
-0.00507876 0.000420679 0.0
-0.00509582 0.000150617 0.0
-0.00509754 -0.000119587 0.0
-0.00508394 -0.000389979 0.0
-0.0050549 -0.000660598 0.0
-0.00501024 -0.00093146 0.0
-0.0049497 -0.00120254 0.0
-0.00487292 -0.00147378 0.0
-0.00477949 -0.001745 0.0
-0.00466888 -0.00201599 0.0
-0.00454055 -0.00228637 0.0
-0.00439386 -0.00255566 0.0
-0.00422815 -0.00282321 0.0
-0.00404274 -0.00308817 0.0
-0.00383693 -0.00334948 0.0
-0.00361005 -0.00360582 0.0
-0.00336149 -0.00385557 0.0
-0.00309074 -0.00409678 0.0
-0.00279746 -0.00432712 0.0
-0.00248151 -0.00454383 0.0
-0.00214312 -0.00474365 0.0
-0.0017829 -0.00492282 0.0
-0.00140209 -0.00507695 0.0
-0.0010027 -0.0052004 0.0
-0.000588765 -0.00526434 0.0
-0.000189426 -0.00470514 0.0
0.000189426 0.00470514 0.0
0.00020239 -0.00505325 0.0
-0.00020239 0.00505325 0.0
-0.000628484 0.00565207 0.0
-0.00106883 0.00557793 0.0
-0.0014922 0.00543992 0.0
-0.00189455 0.0052696 0.0
-0.00227399 0.00507331 0.0
-0.00262948 0.00485588 0.0
-0.0029606 0.00462138 0.0
-0.00326735 0.00437329 0.0
-0.00355004 0.0041145 0.0
-0.00380919 0.00384745 0.0
-0.0040455 0.00357414 0.0
-0.00425973 0.0032962 0.0
-0.00445268 0.00301497 0.0
-0.00462519 0.0027315 0.0
-0.00477805 0.0024466 0.0
-0.00491202 0.00216089 0.0
-0.00502784 0.00187481 0.0
-0.00512612 0.00158866 0.0
-0.00520746 0.00130263 0.0
-0.00527232 0.00101679 0.0
-0.0053211 0.000731141 0.0
-0.00535409 0.000445621 0.0
-0.00537149 0.000160129 0.0
-0.00537339 -0.000125468 0.0
-0.00535979 -0.00041131 0.0
-0.00533057 -0.000697531 0.0
-0.00528551 -0.000984243 0.0
-0.00522429 -0.00127152 0.0
-0.0051465 -0.00155937 0.0
-0.00505163 -0.00184773 0.0
-0.00493906 -0.00213644 0.0
-0.0048081 -0.00242521 0.0
-0.00465799 -0.00271362 0.0
-0.0044879 -0.00300105 0.0
-0.00429696 -0.00328669 0.0
-0.00408426 -0.00356947 0.0
-0.00384891 -0.00384805 0.0
-0.00359006 -0.00412075 0.0
-0.00330693 -0.00438548 0.0
-0.00299891 -0.00463973 0.0
-0.00266559 -0.00488047 0.0
-0.00230693 -0.00510407 0.0
-0.00192332 -0.00530623 0.0
-0.0015158 -0.00548187 0.0
-0.00108633 -0.00562434 0.0
-0.000639098 -0.00570156 0.0
-0.000205893 -0.00510046 0.0
0.000205893 0.00510046 0.0
0.000220578 -0.00547621 0.0
-0.000220578 0.00547621 0.0
-0.00068383 0.00611845 0.0
-0.00116027 0.00602834 0.0
-0.00161591 0.00586852 0.0
-0.00204663 0.00567407 0.0
-0.00245073 0.00545238 0.0
-0.00282744 0.00520901 0.0
-0.00317662 0.00494855 0.0
-0.00349859 0.00467484 0.0
-0.00379398 0.00439103 0.0
-0.00406364 0.00409974 0.0
-0.00430853 0.00380305 0.0
-0.00452969 0.00350268 0.0
-0.00472818 0.00319995 0.0
-0.00490505 0.0028959 0.0
-0.00506129 0.0025913 0.0
-0.00519786 0.00228673 0.0
-0.00531562 0.00198254 0.0
-0.00541536 0.00167896 0.0
-0.00549777 0.00137607 0.0
-0.0055634 0.00107385 0.0
-0.00561275 0.000772201 0.0
-0.00564614 0.000470951 0.0
-0.00566383 0.000169887 0.0
-0.00566592 -0.000131233 0.0
-0.00565241 -0.000432663 0.0
-0.00562316 -0.000734651 0.0
-0.00557792 -0.00103742 0.0
-0.00551633 -0.00134115 0.0
-0.00543788 -0.00164597 0.0
-0.00534196 -0.00195192 0.0
-0.00522786 -0.00225893 0.0
-0.00509473 -0.00256681 0.0
-0.00494166 -0.00287521 0.0
-0.00476762 -0.00318359 0.0
-0.00457154 -0.00349118 0.0
-0.00435226 -0.00379696 0.0
-0.00410863 -0.00409955 0.0
-0.00383951 -0.00439723 0.0
-0.00354382 -0.00468782 0.0
-0.00322059 -0.00496864 0.0
-0.00286909 -0.00523638 0.0
-0.00248892 -0.00548701 0.0
-0.00208014 -0.00571568 0.0
-0.00164352 -0.00591655 0.0
-0.00118083 -0.00608182 0.0
-0.000696346 -0.00617578 0.0
-0.000224719 -0.00553107 0.0
0.000224719 0.00553107 0.0
0.000241448 -0.00593824 0.0
-0.000241448 0.00593824 0.0
-0.000746948 0.00662518 0.0
-0.00126377 0.00651487 0.0
-0.00175498 0.00632884 0.0
-0.00221655 0.00610605 0.0
-0.0026471 0.00585505 0.0
-0.00304623 0.00558217 0.0
-0.00341422 0.00529255 0.0
-0.00375181 0.00499039 0.0
-0.00406002 0.00467909 0.0
-0.00434006 0.00436139 0.0
-0.00459326 0.00403949 0.0
-0.00482095 0.0037151 0.0
-0.0050245 0.00338956 0.0
-0.0052052 0.00306385 0.0
-0.00536428 0.00273869 0.0
-0.00550291 0.00241455 0.0
-0.00562213 0.00209171 0.0
-0.00572287 0.00177028 0.0
-0.00580594 0.00145023 0.0
-0.00587202 0.00113142 0.0
-0.00592168 0.000813628 0.0
-0.00595531 0.000496557 0.0
-0.00597321 0.000179863 0.0
-0.0059755 -0.000136829 0.0
-0.00596218 -0.000453903 0.0
-0.0059331 -0.000771739 0.0
-0.00588797 -0.0010907 0.0
-0.00582635 -0.00141109 0.0
-0.00574768 -0.00173316 0.0
-0.00565122 -0.00205709 0.0
-0.00553614 -0.00238294 0.0
-0.00540144 -0.00271062 0.0
-0.005246 -0.0030399 0.0
-0.00506862 -0.00337032 0.0
-0.00486794 -0.00370121 0.0
-0.00464257 -0.00403158 0.0
-0.00439103 -0.00436009 0.0
-0.00411184 -0.004685 0.0
-0.00380353 -0.00500405 0.0
-0.00346476 -0.00531441 0.0
-0.00309435 -0.00561251 0.0
-0.00269144 -0.00589395 0.0
-0.00225566 -0.00615329 0.0
-0.00178737 -0.00638385 0.0
-0.001288 -0.00657659 0.0
-0.000761768 -0.00669173 0.0
-0.000246365 -0.00600216 0.0
0.000246365 0.00600216 0.0
0.000265539 -0.00644523 0.0
-0.000265539 0.00644523 0.0
-0.000819282 0.00717743 0.0
-0.00138135 0.0070415 0.0
-0.00191177 0.00682385 0.0
-0.00240683 0.00656767 0.0
-0.00286564 0.00628279 0.0
-0.00328837 0.0059763 0.0
-0.00367584 0.00565389 0.0
-0.00402929 0.0053201 0.0
-0.00435025 0.00497855 0.0
-0.00464038 0.0046321 0.0
-0.0049014 0.00428299 0.0
-0.00513504 0.00393293 0.0
-0.00534298 0.00358321 0.0
-0.00552682 0.00323473 0.0
-0.00568805 0.00288812 0.0
-0.00582807 0.00254375 0.0
-0.0059481 0.00220176 0.0
-0.00604926 0.00186213 0.0
-0.00613251 0.00152469 0.0
-0.00619863 0.00118917 0.0
-0.00624829 0.000855187 0.0
-0.00628195 0.000522301 0.0
-0.00629995 0.000190017 0.0
-0.00630246 -0.000142192 0.0
-0.00628945 -0.000474864 0.0
-0.00626077 -0.000808535 0.0
-0.00621609 -0.00114372 0.0
-0.0061549 -0.00148087 0.0
-0.00607653 -0.00182042 0.0
-0.00598016 -0.00216267 0.0
-0.00586478 -0.00250783 0.0
-0.00572924 -0.00285597 0.0
-0.00557223 -0.00320699 0.0
-0.00539227 -0.00356058 0.0
-0.00518776 -0.00391614 0.0
-0.00495697 -0.0042728 0.0
-0.00469809 -0.00462929 0.0
-0.00440922 -0.00498386 0.0
-0.00408847 -0.00533425 0.0
-0.00373397 -0.00567749 0.0
-0.00334403 -0.00600979 0.0
-0.00291723 -0.00632639 0.0
-0.0024526 -0.00662126 0.0
-0.0019499 -0.00688687 0.0
-0.00141003 -0.00711281 0.0
-0.000836905 -0.00725486 0.0
-0.000271406 -0.00651993 0.0
0.000271406 0.00651993 0.0
0.000293513 -0.00700428 0.0
-0.000293513 0.00700428 0.0
-0.000902588 0.0077812 0.0
-0.00151545 0.00761267 0.0
-0.00208909 0.00735674 0.0
-0.00262042 0.00706117 0.0
-0.00310934 0.00673703 0.0
-0.00355676 0.00639221 0.0
-0.00396421 0.00603289 0.0
-0.00433359 0.00566393 0.0
-0.00466703 0.00528911 0.0
-0.00496672 0.00491136 0.0
-0.00523487 0.00453291 0.0
-0.00547364 0.00415543 0.0
-0.00568509 0.0037801 0.0
-0.00587117 0.00340775 0.0
-0.00603366 0.00303884 0.0
-0.0061742 0.00267359 0.0
-0.00629427 0.00231201 0.0
-0.00639515 0.00195391 0.0
-0.00647795 0.00159895 0.0
-0.00654362 0.0012467 0.0
-0.00659289 0.000896586 0.0
-0.00662634 0.00054801 0.0
-0.00664432 0.000200298 0.0
-0.00664704 -0.000147252 0.0
-0.0066345 -0.000495355 0.0
-0.0066065 -0.000844723 0.0
-0.00656267 -0.00119605 0.0
-0.00650243 -0.00154997 0.0
-0.00642502 -0.00190709 0.0
-0.00632949 -0.0022679 0.0
-0.00621467 -0.00263279 0.0
-0.00607922 -0.003002 0.0
-0.00592159 -0.00337561 0.0
-0.00574006 -0.00375346 0.0
-0.0055327 -0.00413513 0.0
-0.00529744 -0.00451987 0.0
-0.00503204 -0.00490651 0.0
-0.00473414 -0.00529341 0.0
-0.00440132 -0.00567828 0.0
-0.00403114 -0.00605813 0.0
-0.00362124 -0.00642899 0.0
-0.00316947 -0.00678576 0.0
-0.00267411 -0.00712189 0.0
-0.00213409 -0.00742896 0.0
-0.00154951 -0.00769517 0.0
-0.000923638 -0.0078715 0.0
-0.000300549 -0.00709188 0.0
0.000300549 0.00709188 0.0
0.000326189 -0.00762398 0.0
-0.000326189 0.00762398 0.0
-0.000999003 0.00844339 0.0
-0.00166898 0.00823332 0.0
-0.00229022 0.00793097 0.0
-0.00286076 0.00758882 0.0
-0.00338161 0.00721915 0.0
-0.00385469 0.00683058 0.0
-0.00428245 0.00642972 0.0
-0.00466759 0.00602163 0.0
-0.00501297 0.00561021 0.0
-0.00532142 0.00519839 0.0
-0.00559573 0.00478833 0.0
-0.00583855 0.00438159 0.0
-0.00605238 0.00397922 0.0
-0.00623956 0.00358187 0.0
-0.00640219 0.00318984 0.0
-0.00654222 0.00280316 0.0
-0.00666135 0.00242164 0.0
-0.00676109 0.0020449 0.0
-0.00684272 0.00167241 0.0
-0.00690732 0.00130351 0.0
-0.00695576 0.000937475 0.0
-0.00698867 0.000573473 0.0
-0.00700648 0.00021064 0.0
-0.00700943 -0.000151926 0.0
-0.00699751 -0.000515144 0.0
-0.00697052 -0.000879927 0.0
-0.00692802 -0.00124717 0.0
-0.00686937 -0.00161773 0.0
-0.00679371 -0.00199241 0.0
-0.00669992 -0.0023719 0.0
-0.00658669 -0.00275683 0.0
-0.00645246 -0.00314764 0.0
-0.00629544 -0.00354462 0.0
-0.00611358 -0.00394783 0.0
-0.00590464 -0.00435705 0.0
-0.00566612 -0.00477172 0.0
-0.00539532 -0.00519086 0.0
-0.00508935 -0.00561293 0.0
-0.00474515 -0.00603577 0.0
-0.00435959 -0.00645638 0.0
-0.00392951 -0.00687072 0.0
-0.00345186 -0.00727344 0.0
-0.00292391 -0.00765752 0.0
-0.00234352 -0.00801373 0.0
-0.00170959 -0.00832891 0.0
-0.00102426 -0.00854896 0.0
-0.000334668 -0.0077271 0.0
0.000334668 0.0077271 0.0
0.000364567 -0.00831474 0.0
-0.000364567 0.00831474 0.0
-0.00111111 0.00917199 0.0
-0.00184539 0.00890898 0.0
-0.00251906 0.00855022 0.0
-0.00313188 0.00815293 0.0
-0.00368644 0.00773044 0.0
-0.00418598 0.00729192 0.0
-0.00463411 0.00684427 0.0
-0.00503456 0.00639267 0.0
-0.00539102 0.00594102 0.0
-0.00570711 0.00549214 0.0
-0.00598628 0.00504806 0.0
-0.00623175 0.00461016 0.0
-0.00644653 0.00417927 0.0
-0.00663338 0.00375584 0.0
-0.00679479 0.00333992 0.0
-0.00693301 0.00293133 0.0
-0.00705004 0.00252963 0.0
-0.0071476 0.00213421 0.0
-0.00722717 0.0017443 0.0
-0.00728999 0.00135903 0.0
-0.00733703 0.000977427 0.0
-0.00736903 0.000598434 0.0
-0.0073865 0.000220961 0.0
-0.00738967 -0.000156123 0.0
-0.00737857 -0.000533964 0.0
-0.00735297 -0.000913707 0.0
-0.00731238 -0.00129648 0.0
-0.00725607 -0.00168338 0.0
-0.00718307 -0.00207543 0.0
-0.00709213 -0.00247361 0.0
-0.00698173 -0.00287875 0.0
-0.00685009 -0.00329158 0.0
-0.00669514 -0.00371265 0.0
-0.00651452 -0.00414227 0.0
-0.00630558 -0.00458049 0.0
-0.00606538 -0.00502701 0.0
-0.00579067 -0.00548108 0.0
-0.00547793 -0.00594141 0.0
-0.00512341 -0.00640601 0.0
-0.00472311 -0.006872 0.0
-0.00427291 -0.00733538 0.0
-0.00376866 -0.00779068 0.0
-0.00320636 -0.00823053 0.0
-0.00258239 -0.00864507 0.0
-0.001894 -0.0090199 0.0
-0.00114155 -0.00929575 0.0
-0.000374836 -0.0084366 0.0
0.000374836 0.0084366 0.0
0.00040986 -0.00908916 0.0
-0.00040986 0.00908916 0.0
-0.00124201 0.00997625 0.0
-0.00204881 0.0096458 0.0
-0.00278018 0.00921843 0.0
-0.00343849 0.00875584 0.0
-0.00402843 0.00827203 0.0
-0.00455501 0.00777646 0.0
-0.00502327 0.00727612 0.0
-0.00543817 0.00677616 0.0
-0.00580448 0.0062803 0.0
-0.0061267 0.00579116 0.0
-0.00640903 0.00531053 0.0
-0.00665538 0.0048395 0.0
-0.00686932 0.00437864 0.0
-0.00705409 0.00392808 0.0
-0.0072126 0.00348761 0.0
-0.00734748 0.00305674 0.0
-0.00746099 0.00263476 0.0
-0.00755513 0.00222078 0.0
-0.00763158 0.00181376 0.0
-0.00769174 0.00141256 0.0
-0.00773673 0.00101594 0.0
-0.00776739 0.000622587 0.0
-0.00778427 0.000231158 0.0
-0.00778768 -0.000159737 0.0
-0.00777763 -0.000551503 0.0
-0.00775386 -0.000945544 0.0
-0.00771584 -0.00134325 0.0
-0.00766276 -0.00174599 0.0
-0.00759352 -0.00215506 0.0
-0.00750672 -0.00257172 0.0
-0.00740064 -0.00299711 0.0
-0.00727324 -0.00343226 0.0
-0.00712216 -0.00387801 0.0
-0.00694468 -0.00433501 0.0
-0.00673771 -0.00480366 0.0
-0.0064978 -0.00528397 0.0
-0.00622109 -0.00577554 0.0
-0.00590336 -0.00627741 0.0
-0.00554 -0.0067879 0.0
-0.00512603 -0.00730439 0.0
-0.00465616 -0.00782306 0.0
-0.00412487 -0.00833853 0.0
-0.00352655 -0.00884331 0.0
-0.00285568 -0.00932714 0.0
-0.00210721 -0.0097747 0.0
-0.00127885 -0.0101218 0.0
-0.000422358 -0.00923379 0.0
0.000422358 0.00923379 0.0
0.000463531 -0.00996255 0.0
-0.000463531 0.00996255 0.0
-0.00139541 0.0108669 0.0
-0.0022841 0.0104507 0.0
-0.00307898 0.00993983 0.0
-0.00378606 0.00939985 0.0
-0.00441292 0.00884482 0.0
-0.00496679 0.00828411 0.0
-0.00545455 0.00772449 0.0
-0.00588264 0.00717079 0.0
-0.00625707 0.00662641 0.0
-0.00658341 0.00609361 0.0
-0.00686676 0.00557377 0.0
-0.00711177 0.00506762 0.0
-0.00732266 0.00457535 0.0
-0.00750321 0.0040967 0.0
-0.00765682 0.00363112 0.0
-0.00778647 0.00317776 0.0
-0.00789479 0.00273557 0.0
-0.00798402 0.00230334 0.0
-0.0080561 0.00187972 0.0
-0.00811259 0.00146325 0.0
-0.00815475 0.0010524 0.0
-0.00818353 0.000645564 0.0
-0.00819957 0.000241105 0.0
-0.0082032 -0.000162652 0.0
-0.00819444 -0.0005674 0.0
-0.00817302 -0.000974833 0.0
-0.00813836 -0.00138664 0.0
-0.00808955 -0.00180448 0.0
-0.00802537 -0.00222999 0.0
-0.00794423 -0.00266473 0.0
-0.00784422 -0.00311019 0.0
-0.00772304 -0.00356775 0.0
-0.007578 -0.00403864 0.0
-0.00740596 -0.0045239 0.0
-0.00720338 -0.00502432 0.0
-0.00696622 -0.00554038 0.0
-0.00668995 -0.0060721 0.0
-0.00636953 -0.006619 0.0
-0.00599935 -0.00717985 0.0
-0.00557329 -0.00775247 0.0
-0.00508466 -0.00833348 0.0
-0.00452627 -0.0089178 0.0
-0.00389046 -0.00949818 0.0
-0.00316925 -0.0100644 0.0
-0.00235451 -0.0106007 0.0
-0.00144019 -0.0110385 0.0
-0.000478809 -0.010135 0.0
0.000478809 0.010135 0.0
0.00052732 -0.0109534 0.0
-0.00052732 0.0109534 0.0
-0.00157568 0.0118563 0.0
-0.00255696 0.0113312 0.0
-0.00342171 0.0107189 0.0
-0.00418099 0.0100872 0.0
-0.0048461 0.00944946 0.0
-0.00542715 0.00881439 0.0
-0.00593326 0.00818808 0.0
-0.00637271 0.00757474 0.0
-0.00675299 0.00697718 0.0
-0.00708089 0.00639708 0.0
-0.00736254 0.0058353 0.0
-0.00760347 0.00529203 0.0
-0.00780861 0.00476696 0.0
-0.00798236 0.00425939 0.0
-0.00812862 0.0037683 0.0
-0.00825082 0.00329243 0.0
-0.00835194 0.00283033 0.0
-0.00843452 0.0023804 0.0
-0.00850073 0.00194094 0.0
-0.00855234 0.00151013 0.0
-0.00859076 0.0010861 0.0
-0.00861705 0.000666932 0.0
-0.00863192 0.000250649 0.0
-0.00863576 -0.000164737 0.0
-0.00862859 -0.000581239 0.0
-0.00861012 -0.00100088 0.0
-0.00857972 -0.00142566 0.0
-0.00853639 -0.00185761 0.0
-0.00847876 -0.00229868 0.0
-0.0084051 -0.00275084 0.0
-0.00831325 -0.00321595 0.0
-0.00820063 -0.0036958 0.0
-0.00806419 -0.00419208 0.0
-0.0079004 -0.0047063 0.0
-0.00770515 -0.00523975 0.0
-0.00747378 -0.00579347 0.0
-0.007201 -0.00636806 0.0
-0.00688082 -0.00696365 0.0
-0.00650652 -0.00757967 0.0
-0.0060706 -0.00821464 0.0
-0.0055647 -0.00886584 0.0
-0.00497958 -0.00952894 0.0
-0.00430506 -0.0101974 0.0
-0.00352998 -0.0108615 0.0
-0.00264216 -0.0115061 0.0
-0.00163031 -0.0120592 0.0
-0.00054607 -0.0111598 0.0
0.00054607 0.0111598 0.0
0.000603273 -0.012084 0.0
-0.000603273 0.012084 0.0
-0.00178794 0.0129587 0.0
-0.00287404 0.0122962 0.0
-0.0038157 0.0115603 0.0
-0.00463067 0.0108199 0.0
-0.00533512 0.0100862 0.0
-0.00594276 0.00936631 0.0
-0.00646551 0.00866502 0.0
-0.00691383 0.00798556 0.0
-0.00729698 0.00732979 0.0
-0.00762319 0.00669858 0.0
-0.00789979 0.00609204 0.0
-0.00813326 0.00550968 0.0
-0.00832936 0.00495056 0.0
-0.00849319 0.00441338 0.0
-0.00862921 0.00389659 0.0
-0.00874131 0.00339843 0.0
-0.00883285 0.00291698 0.0
-0.00890671 0.0024502 0.0
-0.00896531 0.00199595 0.0
-0.00901062 0.00155204 0.0
-0.00904422 0.00111621 0.0
-0.00906729 0.000686177 0.0
-0.00908062 0.000259605 0.0
-0.00908463 -0.000165848 0.0
-0.00907938 -0.000592544 0.0
-0.00906456 -0.00102286 0.0
-0.00903946 -0.00145918 0.0
-0.00900301 -0.00190388 0.0
-0.0089537 -0.00235934 0.0
-0.00888962 -0.00282792 0.0
-0.00880838 -0.00331195 0.0
-0.0087071 -0.0038137 0.0
-0.00858235 -0.00433536 0.0
-0.00843014 -0.00487903 0.0
-0.00824579 -0.00544662 0.0
-0.00802394 -0.00603982 0.0
-0.00775843 -0.00666001 0.0
-0.00744221 -0.00730811 0.0
-0.00706726 -0.00798446 0.0
-0.00662447 -0.00868856 0.0
-0.00610351 -0.00941879 0.0
-0.00549263 -0.010172 0.0
-0.00477851 -0.0109429 0.0
-0.00394593 -0.0117235 0.0
-0.00297746 -0.0125004 0.0
-0.00185482 -0.0131995 0.0
-0.000626362 -0.0123323 0.0
0.000626362 0.0123323 0.0
0.000693769 -0.013381 0.0
-0.000693769 0.013381 0.0
-0.00203811 0.0141907 0.0
-0.00324298 0.0133552 0.0
-0.00426938 0.0124694 0.0
-0.0051437 0.0116002 0.0
-0.00588828 0.010755 0.0
-0.00652138 0.00993827 0.0
-0.00705832 0.00915276 0.0
-0.00751223 0.00840005 0.0
-0.00789446 0.00768068 0.0
-0.00821492 0.00699437 0.0
-0.00848229 0.00634023 0.0
-0.00870419 0.00571687 0.0
-0.00888731 0.00512258 0.0
-0.00903747 0.00455534 0.0
-0.00915977 0.00401294 0.0
-0.00925861 0.00349302 0.0
-0.00933777 0.0029931 0.0
-0.00940048 0.00251064 0.0
-0.00944942 0.00204304 0.0
-0.00948678 0.00158763 0.0
-0.0095143 0.00114175 0.0
-0.00953329 0.000702694 0.0
-0.00954462 0.000267748 0.0
-0.00954877 -0.000165823 0.0
-0.00954582 -0.000600769 0.0
-0.00953543 -0.00103985 0.0
-0.00951684 -0.00148586 0.0
-0.0094889 -0.0019416 0.0
-0.00944996 -0.00240987 0.0
-0.00939793 -0.00289351 0.0
-0.00933017 -0.00339536 0.0
-0.0092435 -0.00391824 0.0
-0.00913411 -0.00446496 0.0
-0.00899748 -0.00503828 0.0
-0.00882833 -0.00564086 0.0
-0.00862053 -0.00627523 0.0
-0.00836694 -0.0069437 0.0
-0.00805933 -0.00764825 0.0
-0.00768816 -0.00839042 0.0
-0.00724246 -0.00917108 0.0
-0.0067095 -0.00999019 0.0
-0.00607451 -0.0108465 0.0
-0.00532026 -0.0117369 0.0
-0.00442644 -0.012656 0.0
-0.00336885 -0.0135939 0.0
-0.00212018 -0.0144772 0.0
-0.000722274 -0.0136809 0.0
0.000722274 0.0136809 0.0
0.000801527 -0.0148763 0.0
-0.000801527 0.0148763 0.0
-0.00233291 0.0155711 0.0
-0.00367251 0.0145192 0.0
-0.00479243 0.0134517 0.0
-0.00572999 0.0124298 0.0
-0.00651521 0.0114552 0.0
-0.00717198 0.010528 0.0
-0.00771984 0.00964787 0.0
-0.0081751 0.00881411 0.0
-0.00855162 0.00802536 0.0
-0.00886128 0.0072798 0.0
-0.00911433 0.00657522 0.0
-0.00931967 0.00590912 0.0
-0.009485 0.00527878 0.0
-0.00961701 0.00468131 0.0
-0.00972146 0.00411372 0.0
-0.00980331 0.00357293 0.0
-0.0098668 0.00305584 0.0
-0.00991549 0.00255931 0.0
-0.00995236 0.00208018 0.0
-0.00997983 0.00161532 0.0
-0.00999981 0.00116156 0.0
-0.0100137 0.000715777 0.0
-0.0100225 0.000274811 0.0
-0.0100268 -0.000164489 0.0
-0.0100265 -0.000605292 0.0
-0.0100215 -0.00105079 0.0
-0.0100108 -0.00150419 0.0
-0.00999323 -0.00196877 0.0
-0.00996703 -0.00244782 0.0
-0.00992992 -0.0029447 0.0
-0.00987902 -0.00346282 0.0
-0.00981082 -0.00400564 0.0
-0.00972111 -0.00457667 0.0
-0.00960484 -0.00517946 0.0
-0.00945608 -0.00581758 0.0
-0.00926783 -0.00649457 0.0
-0.00903188 -0.0072139 0.0
-0.00873863 -0.00797891 0.0
-0.00837683 -0.00879272 0.0
-0.00793329 -0.00965804 0.0
-0.00739242 -0.0105771 0.0
-0.00673578 -0.0115512 0.0
-0.00594131 -0.0125808 0.0
-0.0049823 -0.0136649 0.0
-0.00382605 -0.0147989 0.0
-0.00243383 -0.0159131 0.0
-0.000836778 -0.01524 0.0
0.000836778 0.01524 0.0
0.000929618 -0.0166075 0.0
-0.000929618 0.0166075 0.0
-0.00267988 0.0171216 0.0
-0.00417242 0.0158009 0.0
-0.00539586 0.0145134 0.0
-0.00640089 0.0133107 0.0
-0.00722699 0.0121856 0.0
-0.00790497 0.0111323 0.0
-0.0084595 0.0101459 0.0
-0.00891078 0.00922258 0.0
-0.00927563 0.00835827 0.0
-0.00956826 0.00754918 0.0
-0.00980076 0.00679139 0.0
-0.00998346 0.00608099 0.0
-0.0101252 0.00541403 0.0
-0.0102337 0.00478655 0.0
-0.0103154 0.00419462 0.0
-0.0103759 0.00363434 0.0
-0.0104198 0.00310184 0.0
-0.0104511 0.00259333 0.0
-0.0104731 0.00210503 0.0
-0.0104884 0.00163325 0.0
-0.0104991 0.00117432 0.0
-0.0105068 0.000724597 0.0
-0.0105125 0.000280475 0.0
-0.0105167 -0.000161654 0.0
-0.0105197 -0.000605408 0.0
-0.010521 -0.00105443 0.0
-0.0105198 -0.00151242 0.0
-0.0105148 -0.00198312 0.0
-0.0105041 -0.00247037 0.0
-0.0104852 -0.00297812 0.0
-0.0104551 -0.00351041 0.0
-0.01041 -0.00407143 0.0
-0.010345 -0.0046655 0.0
-0.0102548 -0.0052971 0.0
-0.0101327 -0.00597087 0.0
-0.00997063 -0.00669158 0.0
-0.0097593 -0.00746416 0.0
-0.00948753 -0.00829366 0.0
-0.00914207 -0.00918523 0.0
-0.00870709 -0.0101441 0.0
-0.00816362 -0.0111754 0.0
-0.00748871 -0.0122844 0.0
-0.00665431 -0.0134765 0.0
-0.00562581 -0.0147567 0.0
-0.00436001 -0.0161291 0.0
-0.00280413 -0.017531 0.0
-0.000973243 -0.01705 0.0
0.000973243 0.01705 0.0
0.00108145 -0.0186185 0.0
-0.00108145 0.0186185 0.0
-0.00308734 0.0188667 0.0
-0.00475351 0.0172145 0.0
-0.006092 0.0156617 0.0
-0.00716936 0.0142448 0.0
-0.00803644 0.0129447 0.0
-0.00873245 0.0117472 0.0
-0.00928833 0.0106414 0.0
-0.00972898 0.009619 0.0
-0.0100748 0.00867253 0.0
-0.0103428 0.00779551 0.0
-0.0105471 0.00698188 0.0
-0.0106998 0.00622592 0.0
-0.0108111 0.00552217 0.0
-0.0108896 0.0048654 0.0
-0.0109427 0.00425053 0.0
-0.0109765 0.00367269 0.0
-0.0109963 0.00312716 0.0
-0.0110063 0.00260936 0.0
-0.0110102 0.00211485 0.0
-0.0110107 0.0016393 0.0
-0.0110102 0.00117846 0.0
-0.0110102 0.000728187 0.0
-0.011012 0.00028436 0.0
-0.0110162 -0.000157109 0.0
-0.0110229 -0.000600315 0.0
-0.0110317 -0.00104939 0.0
-0.0110419 -0.00150852 0.0
-0.0110519 -0.00198199 0.0
-0.0110599 -0.00247424 0.0
-0.0110632 -0.00298982 0.0
-0.0110585 -0.00353352 0.0
-0.0110416 -0.00411033 0.0
-0.0110076 -0.00472551 0.0
-0.0109503 -0.00538464 0.0
-0.0108622 -0.0060936 0.0
-0.0107344 -0.00685869 0.0
-0.0105562 -0.00768661 0.0
-0.0103146 -0.00858456 0.0
-0.00999411 -0.00956031 0.0
-0.00957571 -0.0106223 0.0
-0.00903631 -0.01178 0.0
-0.00834745 -0.0130436 0.0
-0.00747375 -0.0144254 0.0
-0.00637088 -0.0159392 0.0
-0.00498292 -0.0176004 0.0
-0.00324035 -0.0193582 0.0
-0.00113542 -0.0191586 0.0
0.00113542 0.0191586 0.0
0.00126077 -0.0209608 0.0
-0.00126077 0.0209608 0.0
-0.0035643 0.0208338 0.0
-0.00542752 0.0187767 0.0
-0.0068945 0.0169049 0.0
-0.00805001 0.0152344 0.0
-0.00895825 0.0137304 0.0
-0.00966849 0.0123677 0.0
-0.0102192 0.0111275 0.0
-0.0106411 0.00999546 0.0
-0.0109589 0.0089597 0.0
-0.0111929 0.00801027 0.0
-0.0113598 0.00713835 0.0
-0.0114736 0.00633598 0.0
-0.011546 0.00559583 0.0
-0.0115869 0.0049111 0.0
-0.0116043 0.00427538 0.0
-0.0116053 0.00368265 0.0
-0.0115955 0.00312717 0.0
-0.0115797 0.00260351 0.0
-0.0115615 0.00210644 0.0
-0.0115442 0.00163095 0.0
-0.0115302 0.00117219 0.0
-0.0115211 0.000725424 0.0
-0.0115181 0.000286017 0.0
-0.0115221 -0.00015063 0.0
-0.0115331 -0.000589107 0.0
-0.0115508 -0.00103405 0.0
-0.0115744 -0.00149018 0.0
-0.0116023 -0.00196235 0.0
-0.0116326 -0.0024556 0.0
-0.0116626 -0.00297521 0.0
-0.0116887 -0.00352674 0.0
-0.0117065 -0.0041161 0.0
-0.0117106 -0.00474965 0.0
-0.0116942 -0.00543421 0.0
-0.0116492 -0.00617718 0.0
-0.0115654 -0.00698667 0.0
-0.0114306 -0.00787158 0.0
-0.01123 -0.00884183 0.0
-0.010945 -0.00990855 0.0
-0.010553 -0.0110845 0.0
-0.0100259 -0.0123844 0.0
-0.00932834 -0.0138256 0.0
-0.00841609 -0.0154293 0.0
-0.007233 -0.0172212 0.0
-0.0057081 -0.0192313 0.0
-0.00375258 -0.0214254 0.0
-0.00132745 -0.0216215 0.0
0.00132745 0.0216215 0.0
0.00147161 -0.0236932 0.0
-0.00147161 0.0236932 0.0
-0.00412032 0.0230537 0.0
-0.0062069 0.0205067 0.0
-0.00781821 0.0182533 0.0
-0.00905917 0.0162825 0.0
-0.0100092 0.0145406 0.0
-0.0107294 0.012988 0.0
-0.0112674 0.011596 0.0
-0.0116608 0.0103423 0.0
-0.0119396 0.00920948 0.0
-0.0121282 0.00818304 0.0
-0.0122464 0.00725066 0.0
-0.0123105 0.00640155 0.0
-0.0123339 0.00562609 0.0
-0.0123277 0.00491555 0.0
-0.0123013 0.00426194 0.0
-0.0122621 0.00365786 0.0
-0.0122163 0.00309642 0.0
-0.0121691 0.00257119 0.0
-0.0121246 0.00207608 0.0
-0.0120859 0.00160533 0.0
-0.0120556 0.00115341 0.0
-0.0120355 0.000715003 0.0
-0.0120268 0.000284914 0.0
-0.0120304 -0.000141974 0.0
-0.0120464 -0.000570764 0.0
-0.0120745 -0.00100661 0.0
-0.0121138 -0.00145476 0.0
-0.012163 -0.00192068 0.0
-0.0122199 -0.00241006 0.0
-0.0122818 -0.00292892 0.0
-0.012345 -0.00348371 0.0
-0.0124049 -0.00408139 0.0
-0.0124556 -0.00472951 0.0
-0.01249 -0.00543639 0.0
-0.0124988 -0.00621123 0.0
-0.0124709 -0.00706432 0.0
-0.0123922 -0.00800732 0.0
-0.0122454 -0.00905353 0.0
-0.0120089 -0.0102184 0.0
-0.0116552 -0.0115202 0.0
-0.0111501 -0.0129808 0.0
-0.0104501 -0.0146267 0.0
-0.00949975 -0.0164908 0.0
-0.00822913 -0.0186135 0.0
-0.0065498 -0.0210432 0.0
-0.0043516 -0.0237671 0.0
-0.00155377 -0.0245027 0.0
0.00155377 0.0245027 0.0
0.00171831 -0.0268831 0.0
-0.00171831 0.0268831 0.0
-0.00476537 0.0255595 0.0
-0.00710453 0.0224266 0.0
-0.00887892 0.0197191 0.0
-0.0102148 0.0173935 0.0
-0.0112083 0.0153731 0.0
-0.0119341 0.0136015 0.0
-0.0124506 0.0120371 0.0
-0.012804 0.010648 0.0
-0.0130308 0.0094094 0.0
-0.0131602 0.00830115 0.0
-0.0132159 0.00730645 0.0
-0.013217 0.00641095 0.0
-0.0131791 0.00560216 0.0
-0.0131148 0.00486901 0.0
-0.0130343 0.00420156 0.0
-0.0129461 0.00359079 0.0
-0.0128569 0.00302849 0.0
-0.012772 0.00250705 0.0
-0.0126957 0.00201944 0.0
-0.0126315 0.00155907 0.0
-0.0125819 0.00111971 0.0
-0.0125487 0.000695412 0.0
-0.0125332 0.000280427 0.0
-0.0125362 -0.000130886 0.0
-0.0125579 -0.000544134 0.0
-0.0125981 -0.000964981 0.0
-0.0126559 -0.00139923 0.0
-0.0127301 -0.00185294 0.0
-0.0128185 -0.00233248 0.0
-0.0129184 -0.00284469 0.0
-0.0130262 -0.00339697 0.0
-0.013137 -0.00399742 0.0
-0.0132447 -0.00465503 0.0
-0.0133414 -0.00537982 0.0
-0.0134172 -0.00618316 0.0
-0.0134595 -0.00707804 0.0
-0.0134523 -0.00807949 0.0
-0.0133752 -0.00920515 0.0
-0.0132026 -0.010476 0.0
-0.0129015 -0.0119174 0.0
-0.0124298 -0.0135604 0.0
-0.0117338 -0.0154432 0.0
-0.0107451 -0.0176133 0.0
-0.00937743 -0.0201293 0.0
-0.00752288 -0.0230613 0.0
-0.00504866 -0.0264215 0.0
-0.00181917 -0.0278757 0.0
0.00181917 0.0278757 0.0
0.00200544 -0.0306068 0.0
-0.00200544 0.0306068 0.0
-0.00550965 0.0283871 0.0
-0.00813334 0.0245619 0.0
-0.010093 0.0213178 0.0
-0.0115361 0.0185737 0.0
-0.0125766 0.0162269 0.0
-0.0133043 0.0142012 0.0
-0.01379 0.0124397 0.0
-0.0140901 0.0108988 0.0
-0.0142492 0.00954444 0.0
-0.0143029 0.0083492 0.0
-0.0142794 0.00729065 0.0
-0.0142014 0.00634994 0.0
-0.0140871 0.00551094 0.0
-0.0139509 0.00475968 0.0
-0.0138043 0.00408384 0.0
-0.0136565 0.00347247 0.0
-0.0135147 0.00291575 0.0
-0.0133846 0.00240478 0.0
-0.0132706 0.00193145 0.0
-0.013176 0.00148828 0.0
-0.0131035 0.00106829 0.0
-0.0130547 0.000664907 0.0
-0.0130311 0.000271826 0.0
-0.0130333 -0.000117091 0.0
-0.0130615 -0.000507928 0.0
-0.0131157 -0.000906833 0.0
-0.0131951 -0.00132013 0.0
-0.0132986 -0.00175447 0.0
-0.0134242 -0.00221692 0.0
-0.0135694 -0.00271517 0.0
-0.0137304 -0.00325764 0.0
-0.0139026 -0.00385375 0.0
-0.0140796 -0.00451408 0.0
-0.0142529 -0.00525074 0.0
-0.0144116 -0.00607768 0.0
-0.0145417 -0.00701122 0.0
-0.0146245 -0.00807066 0.0
-0.0146364 -0.00927915 0.0
-0.0145463 -0.0106648 0.0
-0.0143142 -0.0122619 0.0
-0.0138885 -0.0141133 0.0
-0.0132032 -0.0162717 0.0
-0.0121743 -0.0188024 0.0
-0.0106969 -0.0217853 0.0
-0.00864238 -0.0253143 0.0
-0.00585527 -0.0294298 0.0
-0.00212866 -0.0318235 0.0
0.00212866 0.0318235 0.0
0.00233789 -0.0349502 0.0
-0.00233789 0.0349502 0.0
-0.0063634 0.0315735 0.0
-0.00930588 0.0269417 0.0
-0.011477 0.0230689 0.0
-0.0130437 0.0198326 0.0
-0.0141377 0.0171024 0.0
-0.0148647 0.0147803 0.0
-0.0153101 0.0127917 0.0
-0.0155422 0.011079 0.0
-0.0156155 0.00959668 0.0
-0.0155734 0.00830852 0.0
-0.0154504 0.00718483 0.0
-0.0152736 0.00620102 0.0
-0.0150644 0.00533636 0.0
-0.0148395 0.00457317 0.0
-0.014612 0.00389619 0.0
-0.0143917 0.00329209 0.0
-0.0141866 0.00274915 0.0
-0.0140023 0.00225697 0.0
-0.0138432 0.00180622 0.0
-0.0137127 0.00138845 0.0
-0.0136131 0.000995941 0.0
-0.0135461 0.00062148 0.0
-0.0135127 0.000258258 0.0
-0.0135138 -0.000100304 0.0
-0.0135495 -0.000460704 0.0
-0.0136199 -0.000829509 0.0
-0.0137244 -0.00121351 0.0
-0.0138621 -0.0016199 0.0
-0.0140316 -0.00205644 0.0
-0.0142304 -0.00253168 0.0
-0.0144553 -0.00305517 0.0
-0.0147015 -0.00363778 0.0
-0.0149626 -0.00429199 0.0
-0.0152298 -0.00503236 0.0
-0.015491 -0.00587607 0.0
-0.0157302 -0.0068436 0.0
-0.0159259 -0.00795969 0.0
-0.0160497 -0.00925452 0.0
-0.0160639 -0.0107652 0.0
-0.0159197 -0.0125378 0.0
-0.0155535 -0.0146293 0.0
-0.0148844 -0.0171102 0.0
-0.0138105 -0.0200667 0.0
-0.0122066 -0.0236022 0.0
-0.00992295 -0.0278356 0.0
-0.00678289 -0.0328357 0.0
-0.00248747 -0.0364396 0.0
0.00248747 0.0364396 0.0
0.00272084 -0.0400089 0.0
-0.00272084 0.0400089 0.0
-0.00733671 0.0351561 0.0
-0.0106337 0.0295985 0.0
-0.0130466 0.024996 0.0
-0.0147582 0.0211838 0.0
-0.0159163 0.0180033 0.0
-0.0166431 0.0153334 0.0
-0.0170395 0.0130804 0.0
-0.0171877 0.0111706 0.0
-0.0171544 0.00954508 0.0
-0.016993 0.00815661 0.0
-0.0167457 0.00696645 0.0
-0.0164457 0.00594265 0.0
-0.0161188 0.00505855 0.0
-0.0157844 0.00429174 0.0
-0.0154575 0.00362317 0.0
-0.0151492 0.00303654 0.0
-0.0148675 0.00251782 0.0
-0.0146183 0.00205481 0.0
-0.0144058 0.00163681 0.0
-0.0142328 0.00125436 0.0
-0.0141013 0.000898957 0.0
-0.0140127 0.000562827 0.0
-0.0139679 0.000238735 0.0
-0.0139674 -8.0231e-05 0.0
-0.0140116 -0.000400862 0.0
-0.0141005 -0.000730022 0.0
-0.0142342 -0.00107486 0.0
-0.014412 -0.00144302 0.0
-0.0146329 -0.0018429 0.0
-0.0148954 -0.00228393 0.0
-0.0151966 -0.00277687 0.0
-0.0155322 -0.00333424 0.0
-0.0158958 -0.00397078 0.0
-0.0162782 -0.00470409 0.0
-0.0166659 -0.00555537 0.0
-0.0170405 -0.00655045 0.0
-0.0173766 -0.00772107 0.0
-0.0176396 -0.00910643 0.0
-0.0177834 -0.0107552 0.0
-0.0177477 -0.0127278 0.0
-0.0174544 -0.0150988 0.0
-0.0168048 -0.0179593 0.0
-0.0156772 -0.021419 0.0
-0.0139249 -0.0256059 0.0
-0.0113779 -0.0306626 0.0
-0.0078425 -0.0366841 0.0
-0.00290099 -0.0418281 0.0
0.00290099 0.0418281 0.0
0.00315878 -0.0458885 0.0
-0.00315878 0.0458885 0.0
-0.00843618 0.0391698 0.0
-0.0121213 0.032567 0.0
-0.0148082 0.0271273 0.0
-0.0166894 0.0226453 0.0
-0.0179259 0.0189363 0.0
-0.0186552 0.0158566 0.0
-0.0189942 0.0132926 0.0
-0.019041 0.0111533 0.0
-0.0188766 0.00936463 0.0
-0.018567 0.00786598 0.0
-0.0181646 0.00660746 0.0
-0.0177107 0.00554776 0.0
-0.0172367 0.00465251 0.0
-0.0167664 0.00389307 0.0
-0.0163168 0.00324547 0.0
-0.0159005 0.00268958 0.0
-0.0155259 0.00220843 0.0
-0.0151985 0.00178766 0.0
-0.0149221 0.001415 0.0
-0.0146988 0.00107987 0.0
-0.0145298 0.000773032 0.0
-0.0144159 0.000486268 0.0
-0.0143575 0.000212069 0.0
-0.0143549 -5.66226e-05 0.0
-0.0144086 -0.000326681 0.0
-0.0145187 -0.000605061 0.0
-0.0146859 -0.000899066 0.0
-0.0149102 -0.00121665 0.0
-0.0151918 -0.00156673 0.0
-0.0155298 -0.00195959 0.0
-0.0159225 -0.00240733 0.0
-0.0163663 -0.00292439 0.0
-0.016855 -0.00352828 0.0
-0.0173789 -0.00424042 0.0
-0.0179229 -0.00508725 0.0
-0.0184653 -0.00610154 0.0
-0.0189751 -0.00732409 0.0
-0.0194098 -0.00880574 0.0
-0.0197122 -0.0106096 0.0
-0.0198076 -0.0128138 0.0
-0.0196003 -0.0155134 0.0
-0.0189716 -0.0188229 0.0
-0.0177781 -0.0228766 0.0
-0.0158524 -0.0278263 0.0
-0.0130068 -0.0338348 0.0
-0.00903699 -0.0410172 0.0
-0.00337223 -0.0481013 0.0
0.00337223 0.0481013 0.0
0.00361304 -0.0526603 0.0
-0.00361304 0.0526603 0.0
-0.00953622 0.0435986 0.0
-0.01355 0.0358371 0.0
-0.016456 0.0294501 0.0
-0.0184502 0.024198 0.0
-0.019704 0.0198738 0.0
-0.0203692 0.0163136 0.0
-0.0205796 0.013385 0.0
-0.0204508 0.0109789 0.0
-0.0200805 0.00900444 0.0
-0.0195497 0.00738571 0.0
-0.0189234 0.00605906 0.0
-0.0182524 0.00497129 0.0
-0.0175754 0.00407799 0.0
-0.0169205 0.00334231 0.0
-0.0163075 0.00273374 0.0
-0.0157497 0.00222711 0.0
-0.0152551 0.0018017 0.0
-0.0148285 0.00144045 0.0
-0.014472 0.00112927 0.0
-0.0141862 0.000856441 0.0
-0.0139708 0.000612106 0.0
-0.0138253 0.000387795 0.0
-0.0137492 0.000176028 0.0
-0.0137423 -3.0062e-05 0.0
-0.0138048 -0.000237077 0.0
-0.0139376 -0.000451706 0.0
-0.0141418 -0.000681078 0.0
-0.0144189 -0.000933163 0.0
-0.0147704 -0.00121722 0.0
-0.0151971 -0.0015443 0.0
-0.0156991 -0.00192795 0.0
-0.0162742 -0.00238491 0.0
-0.0169171 -0.00293615 0.0
-0.0176177 -0.00360803 0.0
-0.0183596 -0.00443377 0.0
-0.019117 -0.00545518 0.0
-0.0198529 -0.00672472 0.0
-0.0205155 -0.00830783 0.0
-0.0210353 -0.0102854 0.0
-0.0213219 -0.0127561 0.0
-0.0212618 -0.0158385 0.0
-0.0207167 -0.0196717 0.0
-0.0195235 -0.0244144 0.0
-0.0174977 -0.0302398 0.0
-0.0144395 -0.0373251 0.0
-0.0101404 -0.0457959 0.0
-0.00382711 -0.0553007 0.0
0.00382711 0.0553007 0.0
0.0025857 -0.058859 0.0
-0.0025857 0.058859 0.0
-0.00618482 0.0469221 0.0
-0.00766394 0.0380063 0.0
-0.00817716 0.0307 0.0
-0.00796333 0.0247285 0.0
-0.00722197 0.0198557 0.0
-0.00611708 0.015892 0.0
-0.00478166 0.0126816 0.0
-0.00332165 0.0100935 0.0
-0.0018194 0.00801734 0.0
-0.000336975 0.00635957 0.0
0.00108076 0.00504115 0.0
0.00240324 0.00399577 0.0
0.00361144 0.00316828 0.0
0.00469534 0.00251323 0.0
0.00565163 0.00199355 0.0
0.00648175 0.00157931 0.0
0.00719022 0.0012465 0.0
0.00778326 0.000976006 0.0
0.00826779 0.000752674 0.0
0.00865055 0.000564447 0.0
0.0089376 0.000401666 0.0
0.00913389 0.000256448 0.0
0.009243 0.000122153 0.0
0.009267 -7.0976e-06 0.0
0.00920636 -0.00013685 0.0
0.00905996 -0.000272748 0.0
0.0088251 -0.000420976 0.0
0.00849769 -0.00058875 0.0
0.00807239 -0.000784886 0.0
0.00754303 -0.00102049 0.0
0.00690307 -0.00130981 0.0
0.00614633 -0.00167124 0.0
0.00526798 -0.00212861 0.0
0.00426576 -0.00271271 0.0
0.00314159 -0.00346311 0.0
0.00190341 -0.00443022 0.0
0.000567355 -0.00567772 0.0
-0.000839818 -0.00728506 0.0
-0.00227815 -0.00935004 0.0
-0.00369174 -0.0119912 0.0
-0.00500589 -0.0153493 0.0
-0.00612403 -0.019588 0.0
-0.00692416 -0.0248913 0.0
-0.00725433 -0.0314585 0.0
-0.00692604 -0.0394929 0.0
-0.00570381 -0.0491494 0.0
-0.00241821 -0.061546 0.0
0.00241821 0.061546 0.0
-0.0307224 -0.0307224 0.0
0.0307224 0.0307224 0.0
0.0854125 0.0239678 0.0
0.128616 0.019236 0.0
0.163226 0.0153738 0.0
0.190833 0.0122336 0.0
0.212755 0.00968784 0.0
0.230076 0.00763358 0.0
0.243695 0.00598552 0.0
0.254353 0.00467199 0.0
0.262657 0.00363229 0.0
0.269104 0.00281495 0.0
0.274096 0.00217654 0.0
0.277953 0.00168068 0.0
0.280931 0.00129724 0.0
0.28323 0.00100156 0.0
0.285005 0.000773686 0.0
0.286376 0.000597686 0.0
0.287435 0.000460983 0.0
0.28825 0.000353744 0.0
0.288872 0.000268334 0.0
0.289339 0.000198846 0.0
0.289679 0.000140685 0.0
0.28991 9.02278e-05 0.0
0.290044 4.45175e-05 0.0
0.29009 1.00979e-06 0.0
0.290048 -4.26655e-05 0.0
0.289917 -8.89316e-05 0.0
0.289687 -0.000140503 0.0
0.289346 -0.000200652 0.0
0.288872 -0.000273518 0.0
0.288234 -0.000364491 0.0
0.287389 -0.000480678 0.0
0.286276 -0.000631475 0.0
0.284816 -0.00082927 0.0
0.282896 -0.00109028 0.0
0.28037 -0.00143554 0.0
0.277043 -0.00189203 0.0
0.272657 -0.00249391 0.0
0.266879 -0.00328389 0.0
0.259281 -0.0043145 0.0
0.249317 -0.00564932 0.0
0.236304 -0.00736385 0.0
0.219394 -0.00954571 0.0
0.197555 -0.0122938 0.0
0.169545 -0.015716 0.0
0.133905 -0.0199239 0.0
0.0889726 -0.0250084 0.0
0.0319821 -0.0319821 0.0
-0.0319821 0.0319821 0.0
-1.96928 0.0307224 0.0
1.96928 -0.0307224 0.0
1.91459 -0.0239678 0.0
1.87138 -0.019236 0.0
1.83677 -0.0153738 0.0
1.80917 -0.0122336 0.0
1.78725 -0.00968784 0.0
1.76992 -0.00763358 0.0
1.7563 -0.00598552 0.0
1.74565 -0.00467199 0.0
1.73734 -0.00363229 0.0
1.7309 -0.00281495 0.0
1.7259 -0.00217654 0.0
1.72205 -0.00168068 0.0
1.71907 -0.00129724 0.0
1.71677 -0.00100156 0.0
1.71499 -0.000773686 0.0
1.71362 -0.000597686 0.0
1.71256 -0.000460983 0.0
1.71175 -0.000353744 0.0
1.71113 -0.000268334 0.0
1.71066 -0.000198846 0.0
1.71032 -0.000140685 0.0
1.71009 -9.02278e-05 0.0
1.70996 -4.45175e-05 0.0
1.70991 -1.00979e-06 0.0
1.70995 4.26655e-05 0.0
1.71008 8.89316e-05 0.0
1.71031 0.000140503 0.0
1.71065 0.000200652 0.0
1.71113 0.000273518 0.0
1.71177 0.000364491 0.0
1.71261 0.000480678 0.0
1.71372 0.000631475 0.0
1.71518 0.00082927 0.0
1.7171 0.00109028 0.0
1.71963 0.00143554 0.0
1.72296 0.00189203 0.0
1.72734 0.00249391 0.0
1.73312 0.00328389 0.0
1.74072 0.0043145 0.0
1.75068 0.00564932 0.0
1.7637 0.00736385 0.0
1.78061 0.00954571 0.0
1.80245 0.0122938 0.0
1.83046 0.015716 0.0
1.8661 0.0199239 0.0
1.91103 0.0250084 0.0
1.96802 0.0319821 0.0
-1.96802 -0.0319821 0.0
